<?xml version="1.0" encoding="utf-8"?>
<!-- Generator: Adobe Illustrator 23.0.3, SVG Export Plug-In . SVG Version: 6.00 Build 0)  -->
<svg version="1.1" id="Capa_1" xmlns="http://www.w3.org/2000/svg" xmlns:xlink="http://www.w3.org/1999/xlink" x="0px" y="0px"
	 viewBox="0 0 842 493" style="enable-background:new 0 0 842 493;" xml:space="preserve">
<style type="text/css">
	.st0{fill:none;stroke:#9A321E;stroke-width:1.156;}
</style>
<g>
	<path class="st0" d="M842,327.69c-226.01,32.88-185.55,21,0-56.69l0,0.24c-211.14,89.67-217.05,89.45,0,42.62v0.08
		c-217.25,47.3-144.88,34.78-665.8,83.9c587.86-55.44,587.96-55.5-1.37,0.58c589.38-56.14,589.38-56.14-0.12,0.13
		c589.55-56.32,589.58-56.39-0.15,0.86c589.69-57.32,586.77-64.72,13.38,33.83c573.34-98.65,573.23-98.7,0.99,0.81
		c572.11-99.57,571.98-99.6,1.65,0.16C688.93,347.04,623.7,353.67,842,337.57v0.03c-206.56,15.42-211.31,15.05,0,33.71l0,0.39
		c-187.65-15.64-212.6-17.29,0-46.98V327.69z"/>
	<path class="st0" d="M741.86,493c-74.79-153.47-74.88-181.65-104.12,0h4.07c35.58-186.21,24.03-151.7-113.12,0l0.07,0
		c157.78-173.15,148.76-175.42,84.13,0h0.02c64.67-174.64,50.5-99.06,64.51-433.1c-14.73,350.87-14.82,350.94,0.79-0.88
		c-15.69,351.85-15.7,351.86,0.2-0.09c-15.99,351.98-16.09,352.01,1.41-0.2c-17.64,352.19-30.47,351.47,58.67,3.3
		c-89.31,348.16-89.42,348.1,1.49,0.47c-91,347.56-91.08,347.49,0.49,0.95C653.79,391.37,663.84,318.43,665.41,493h0.01
		c-1.46-171.91-10.08-173.99,76.27,0L741.86,493z"/>
</g>
<g>
	<path class="st0" d="M375.39,86.09c-163.47,182.2-110.97,131.23-240.02,233c129.04-101.77,137.68-98.73-48.24-16.97
		c187.87-82.56,188.27-98.87-2.12,87.93c188.25-187.55,164.1-179.6,130.23-42.88c33.62-135.33,42.18-132.32-47.89-16.84
		c90.07-115.48,37.6-64.54,239.86-232.85c-202.32,168.36-202.31,168.41,0.15-0.58c-202.44,169.02-202.44,169.03-0.04-0.08
		c-202.37,169.14-202.34,169.18-0.54-0.39c-201.73,169.59-195.25,171.91-29.61-10.6c-165.56,182.54-165.47,182.54-0.98-0.09
		C211.79,268.36,211.87,268.35,375.39,86.09z"/>
	<path class="st0" d="M413.34,374.75C204.2,209.58,269.4,255.17,115.3,166.34c154.1,88.83,161.84,85.05-43.23,21.14
		c207.2,64.51,211.86,80.59-25.08-86.69C282.01,269,256.07,263.34,186.87,131.33c68.58,130.66,76.26,126.91-42.91,20.99
		c119.17,105.92,54.01,60.36,297.85,208.29c-243.9-147.97-243.91-148.03,0.3,0.56c-244.2-148.62-244.2-148.62-0.02,0.09
		c-244.16-148.74-244.14-148.78-0.44,0.43c-243.64-149.24-237.85-152.11-26.48,13.17c-211.29-165.32-211.2-165.33-0.95,0.18
		C204.05,209.52,204.13,209.53,413.34,374.75z"/>
</g>
<g>
	<path class="st0" d="M457.15-4.26c-407.39,219.36-407.13,219.27-1.02,0l0.02,0C123.4,175.68,141.65,170.42-1.45,225.39l0-0.1
		c125.26-48.35,132.52-52.65,0-28.45v-0.7c118.3-22,125.18-18.83,0,42.17v-3.9c158.33-76.89,117.04-45.54,0,81.79v-0.18
		c134.94-148.45,151.43-158.67,0-65.97v-0.18c142.27-87.74,104.72-65.75,526.23-240.05c-493.17,203.94-493.2,204.02,0.8-0.89
		C31.57,213.91,31.56,213.92,525.6,8.79C31.57,213.97,31.58,214.04,525.1,7.98C42.24,209.69,39.78,219.73,459.34-4.26h0.04
		c-409.71,219.25-409.89,219.41-2.24,0H457.15z"/>
	<path class="st0" d="M0.21-4.26c144.48,240.38,119.24,205.91,133.7,0l0,0c-16.29,228.93-1.24,223.65-89.72,13.19
		c89.27,212.34,28.35,116.27,278.5,439.23c-250.21-323.06-250.17-323.14-0.06,1.01c-250.07-324.2-250.06-324.21-0.12,0.13
		c-249.89-324.39-249.82-324.44-1.13,0.55C72.84,124.83,85.05,122.14,265.53,462.16c-180.32-340.07-180.17-340.04-1.71-0.04
		C85.5,122.16,85.62,122.2,262.66,461.39C91.2,132.87,143.07,212.87-1.45,39.43v0c125.01,150.06,150.12,168.11,0,70.35v0.7
		c138.87,91.93,131.1,84.6,4.29-114.74L0.21-4.26z"/>
</g>
<g>
	<path class="st0" d="M445.43-4.26c57.05,40.63,23.52,32.92-91.92,0h2.43c135.32,37.82,153.74,41.4,75.19,0h0.78
		c95.35,50.2,112.65,69.73,395.81,283.94c-396.53-299.96-396.67-299.99,1.66,0.46c-398.44-300.44-398.45-300.45,0.27,0
		c-398.83-300.44-398.95-300.43,1.45-0.36C441.53-12.02,421.05-14.79,842,233.1v0.04C432.48-7.34,432.24-7.43,842,231.83v0.01
		c-409.72-239.13-409.54-238.97,0-0.6v0.02C560.8,67.9,521.19,48.27,453.61-4.26h0.38c38.08,29.4,45.56,30.52,28.72,0h0.84
		c12.39,25.27,2.54,26.03-41.7,0H445.43z"/>
	<path class="st0" d="M545.47-4.26c-52.12,33.2-31.17,32.31,99.09,0h-13.87C429.8,46.5,532.18,33.81,842,32.43v0
		c-380.6,1.75-415.19,9.82-147.44-36.69h-0.51C452.14,37.3,529.59,20.49,21.66,175.88C594.24,0.72,594.39,0.74,19.83,175.89
		C594.48,0.76,594.5,0.77,19.59,175.83c575-175.03,575.11-174.99-1.06-0.68C593.05,1.44,600.25,8.44-1.45,139.42v0
		c600.03-130.45,600-130.36,0-1.07v0c600.35-129.29,599.86-129.13,0-0.49C463.58,38.17,467,41.52,605.82-4.26h-0.43
		c-99.98,32.8-116.97,36.24-58.36,0H545.47z"/>
</g>
<g>
	<path class="st0" d="M550.86,373.03c83.34-224.25,52.76-160.33,139.81-292.22c-87.05,131.89-97.86,130.15,60.34,9.73
		c-159.89,121.6-152.06,139.17-42.16-94.74c-107.24,234.34-85.33,221.56-118.09,68.89c32.33,151.14,21.62,149.41,59.9,9.66
		c-38.29,139.75-7.72,75.87-139.71,292.02c132.02-216.22,131.99-216.27,0.13,0.65c131.82-216.96,131.82-216.96,0.08,0.08
		c131.7-217.07,131.64-217.1,0.79,0.32c130.77-217.44,122.65-218.79,37.14,6.18c85.4-224.98,85.31-224.96,1.1-0.08
		C634.31,148.69,634.24,148.72,550.86,373.03z"/>
	<path class="st0" d="M842,277.24C562.47,160.92,597.33,169.2,730.31,291.37c-139.64-128.17-145.98-122.8,35.45-30.07
		c-181.43-92.73-88.48-55.28-424.92-171.19c336.54,115.95,336.57,116.01-0.6-0.54c337.18,116.58,337.18,116.59-0.02-0.09
		c337.21,116.72,337.2,116.77,0.25-0.54c336.9,117.35,332.14,121.46,21.77-18.78c310.31,140.3,310.22,140.32,0.92-0.36
		c309.19,140.69,309.1,140.69,1.08,0.14c307.92,140.52,214.92,103.05,425.19,171.31c-210.27-68.26-216.66-62.84,35.71-30.29
		c-240.62-30.98-265.84-47.36,16.87,66.8V277.24z"/>
</g>
<g>
	<path class="st0" d="M395.69,493c-141.8-159.57-105.81-123.79,118.13-11.55C253.97,351.11,260.6,344.2,426.8,493h-0.01
		c-162.61-145.46-102.2-75.69-300.08-355.62c202.77,286.83,202.88,286.87-1.13-0.58c204.1,287.46,204.1,287.46-0.21-0.03
		c204.4,287.5,204.51,287.51-1.28,0.1c205.89,287.37,216.1,284.35-46.62,13.8c262.85,270.51,262.9,270.44-0.98,0.67
		c263.93,269.7,263.94,269.62,0.1,0.87C326.49,406.76,278.28,348.12,372.15,493l0,0c-89.66-138.27-86.74-145.72-65.26,0h-0.28
		c-20.6-129.85-30.74-145.52,92.92,0H395.69z"/>
	<path class="st0" d="M-1.45,399.66c389.28-28.58,331.15-21.47,25.27-69.41c337.71,52.85,335.72,44.07,11.14,49.07
		c324.58-5,173.85,7.6,689.04-57.62c-515.35,65.24-515.46,65.2,1.44,0.22c-516.97,64.95-516.98,64.95,0.18,0.08
		c-517.22,64.83-517.28,64.78,0.58,0.68c-517.88,64.03-519.47,57.37,7.33,30.45c-526.83,26.83-526.77,26.76-0.37,0.85
		c-526.31,25.84-526.23,25.79-1.28,0.45c-524.8,25.33-373.97,12.72-689.49,57.66c315.52-44.94,313.51-53.79,11.22,49.43
		c273.7-93.55,333-95.71-55.06-63.05L-1.45,399.66z"/>
</g>
<g>
	<path class="st0" d="M-1.45,81.26c372.37,11.83,314.42,7.66,26.07,65.84c320.16-64.52,319.24-55.97,5.12-47.85
		c314.12-8.11,167.07-14.28,672.24,28.18c-505.32-42.46-505.42-42.43,1.37-0.27c-506.86-42.12-506.86-42.11,0.15-0.09
		c-507.07-41.99-507.13-41.94,0.49-0.68C196.37,85.2,195.57,91.7,707.57,96.69c-512.01-4.9-511.94-4.84-0.46-0.81
		c-511.4-3.97-511.31-3.92-1.29-0.38C195.96,91.96,343.11,98.13,33.15,67.3c309.95,30.83,309.03,39.46,5.16-48.2
		C311.94,98.12,370.35,98.28-1.45,82.47V81.26z"/>
	<path class="st0" d="M278.38-4.26c-4.53,104.38-7.14,116.7,75.73,0h-4.27c-95.8,129.72-66.33,100.73,106.21,0h-0.07
		c-199.51,115.77-199.67,122.59-81.79,0h-0.06c-114.51,118.56-77.53,70.23-228,333.57c162.96-285.17,163.07-285.21-1.02,0.6
		c164.17-285.83,164.17-285.83-0.2,0.04c164.46-285.89,164.55-285.89-1.24-0.05c165.91-285.82,176.1-283.3-46.63-11.47
		c222.88-271.8,222.93-271.74-1.02-0.6c224-271.06,224.04-270.99,0.01-0.85C297.81,73.67,271.67,114.7,332.3-4.26h-0.03
		c-57.55,112.5-56.91,117.14-53.4,0H278.38z"/>
</g>
<g>
	<path class="st0" d="M747.17-4.26c-26.05,166.81-29.93,142.69-99.77,0h0.39c81.01,161.33,75.99,159.62,72.31,0l0.09,0
		c4.39,163.57,11.78,103.02-91.68,442.52c113.44-372.31,113.37-372.39,0.52,1.03c112.79-373.47,112.78-373.47,0.17,0.12
		c112.52-373.63,112.42-373.68,1.43,0.39c110.85-374.08,97.03-374.96,63.14,4c33.7-378.98,33.57-378.93,1.75-0.3
		c31.69-378.56,31.59-378.5,0.87-0.94c28.16-346.29,13.8-283.39,72.84-446.83l0.02,0C711.74,155.56,705.59,156.67,842,4.4v0.44
		c-117.82,133.65-130.02,158.08-99.76-9.09L747.17-4.26z"/>
	<path class="st0" d="M294.5-4.26c507.69,158.3,508.31,158.53,3.35,0l-0.02,0c504.17,158.36,504.05,158.37,1.51,0h-0.06
		c394.58,124.64,394.02,128,542.73,157.93v-0.12c-127.65-25.88-131.83-29.09,0-25.33l0-0.73c-116.24-3.59-125.5,0.63,0,36.21v-3.37
		c-144.89-39.21-119.73-23.05,0,52.23v-0.68c-136.5-87.27-143.22-92.26,0-40.24v-0.26C691.92,116.4,704.77,124.56,223.62,17.43
		c600.25,133.65,600.33,133.73-1.24-0.79c601.59,134.57,601.6,134.58-0.08-0.15c601.7,134.8,601.71,134.87,0.16-0.92
		C807.45,147.72,818,158.37,294.59-4.26H294.5z"/>
</g>
<g>
	<path class="st0" d="M471.05,493c-176.3-192.08-170.43-171.74,25.45-76.84c-200.85-97.39-190.99-100.49-55.15,17.35
		c-135.84-117.84-83.3-58.65-240.18-270.57c156.93,211.98,157.02,212-0.86-0.42c157.94,212.43,157.95,212.43-0.15-0.02
		c158.17,212.46,158.25,212.47-0.95,0.09c159.27,212.36,166.8,210.03-34.41,10.61c201.31,199.39,201.35,199.34-0.71,0.5
		c202.09,198.78,202.11,198.72,0.1,0.65c201.95,198.01,149.38,138.79,240.34,270.74c-90.96-131.95-81.01-135.08-55.56,17.48
		C324.24,313.8,298.86,299.62,471.48,493H471.05z"/>
	<path class="st0" d="M-1.45,368.63c409.3-35.51,384.95-24.14,130.1-61.41c252.44,36.85,250.77,30.34,9.32,36.44
		c241.45-6.1,129.54,4.39,511.58-47.93c-382.15,52.32-382.23,52.29,1.08,0.16C267.26,348,267.26,348,650.75,295.94
		c-383.55,52.03-383.59,52,0.45,0.5c-384.05,51.44-385.38,46.5,6.1,22.61c-391.51,23.82-391.46,23.77-0.26,0.64
		c-391.14,23.08-391.08,23.04-0.94,0.34c-390.02,22.69-278.04,12.2-511.91,47.96c233.87-35.76,232.19-42.33,9.39,36.71
		C378.48,324.84,407.43,331.48-1.45,368.63L-1.45,368.63z"/>
</g>
<g>
	<path class="st0" d="M440.2-4.26c131.54,133.1,94.26,101.09-112.68,6.58c240.31,109.84,238.69,117.76,85.26-6.58h0.02
		c148,119.73,93.51,63.96,288.82,308.34c-203.39-254.47-203.49-254.5,1.06,0.49c-204.63-255-204.64-255.01,0.2,0.03
		c-204.91-255.04-205.01-255.04,1.15-0.12C497.77,49.6,488.76,52.57,745.22,290.87c-256.58-238.25-256.63-238.19,0.84-0.63
		c-257.5-237.5-257.52-237.43-0.16-0.79C506.87,69.68,548.11,115.28,460.22-4.26h0.01c83.25,113.06,82.71,119.48,55.64,0l0.36,0
		c25.55,106.71,32.44,118.24-79.85,0H440.2z"/>
	<path class="st0" d="M842,59.47c-396.54,40.29-351.67,30.38-60.79,67.71c-309.09-39.6-306.68-31.71-13.5-44.11
		c-293.18,12.4-157.75-2.66-619.1,68.82c461.49-71.49,461.59-71.47-1.33-0.16c462.98-71.28,462.99-71.27-0.16-0.07
		c463.21-71.17,463.27-71.13-0.58-0.6c463.86-70.47,465.77-64.48-8.75-27.36c474.56-37.04,474.51-36.98,0.28-0.78
		c474.16-36.14,474.08-36.09,1.13-0.43c472.82-35.64,337.31-20.57,619.5-68.87c-282.19,48.3-279.76,56.25-13.59-44.43
		c-250.4,94.8-298.35,94.76,96.9,50.93V59.47z"/>
</g>
<g>
	<path class="st0" d="M412.61-4.26c74.24,110.24,88.69,118.5-98.41,0l2.98,0C525,122.49,488.32,99.26,252.39,37.3
		c268.16,70.5,259.01,75.62,51.21-28.63c207.79,104.25,120.51,49.12,399.05,252.06c-278.65-203-278.74-203.01,1.15,0.31
		c-279.97-203.31-279.97-203.31,0.18,0c-280.23-203.31-280.31-203.3,0.99-0.26C423.59,57.78,416.58,61.63,737.02,243.14
		c-320.53-181.45-320.55-181.39,0.52-0.68c-321.07-180.64-321.06-180.58-0.43-0.69C421.88,64.91,501.13,115.34,345.84-4.26l0,0
		c145.13,111.77,147.73,122.72,66.55,0H412.61z"/>
	<path class="st0" d="M620.83-4.26c-194.72,120.04-220.93,115.99,198.4,5.1C391.1,112.04,411.68,95.34,708.2,90.85
		c-293.52,4.51-288.39,11.31-28.67-38.01c-259.72,49.32-143.24,18.13-532.47,142.6c389.35-124.5,389.46-124.49-1.26,0.02
		c390.79-124.5,390.79-124.5-0.17-0.05c391.03-124.43,391.1-124.4-0.74-0.46c391.88-123.88,395.84-118.74-18.15-23.53
		c414.05-95.13,414.02-95.07-0.04-0.74c414.01-94.27,413.96-94.22,0.85-0.54C540.55,76.5,424,107.71,660.37,27.45
		c-232.15,78.83-231.32,86.85-39.53-31.71H620.83z"/>
</g>
<g>
	<path class="st0" d="M697.89-4.26c-58.49,218.08-44.12,190.2-108.92,25.23c69.85,178.15,56.71,176.86,73.53,7.23
		c-16.82,169.63,6.46,91.15-106.45,358.76c112.93-267.69,112.88-267.75,0.29,0.76c112.54-268.55,112.54-268.55,0.12,0.09
		c112.37-268.68,112.3-268.71,1,0.33c111.19-269.05,101.21-270.08,45.62,4.7c55.46-274.79,55.36-274.77,1.3-0.17
		c53.96-274.56,53.88-274.51,0.71-0.65c53.14-273.77,29.85-195.25,106.52-359c-76.67,163.75-89.93,162.45,74.06,7.28
		C633.72,183.94,631.96,213.08,696.53-4.26L697.89-4.26z"/>
	<path class="st0" d="M842,174.73c-215.36-15.74-241.69-23.74,0,53.43l0-1.77c-257.47-85.95-206.18-68.23-39.5,55.2
		c-193.27-143.02-199.72-136.14,36.11-38.45C602.78,145.46,721.52,183.5,295.78,69.26c425.85,114.27,425.9,114.34-0.84-0.61
		c426.76,114.98,426.76,114.99-0.04-0.11c426.82,115.15,426.82,115.2,0.19-0.66c426.57,115.92,421.74,121.16,22.12-23.99
		c399.56,145.23,399.46,145.26,1.03-0.49c398.31,145.77,398.21,145.78,1.31,0.08C705.57,185.2,603.56,153,842,212.31v0
		c-227.97-56.71-241.89-54.4,0-37.49V174.73z"/>
</g>
<g>
	<path class="st0" d="M395.05,493c-61.91-134.86-80.92-148.37,105.76,0h-2.86c-203.85-155.83-169.53-127.99,76.28-42.97
		c-277.98-96.23-266.93-101.15-61.8,27.55c-205.12-128.7-121.3-62.26-383.18-303.73c261.97,241.54,262.07,241.56-1.19-0.41
		c263.35,241.97,263.35,241.97-0.2-0.01c263.64,241.99,263.74,241.98-1.13,0.21c264.96,241.73,273.41,238.03-38.62,16.93
		c312.14,221.04,312.18,220.97-0.71,0.7c312.91,220.2,312.91,220.13,0.34,0.78C398.14,409.88,317.42,345.72,468.11,493l0,0
		c-142.58-139.36-140.9-150.95-72.94,0H395.05z"/>
	<path class="st0" d="M-1.45,439.75c437.6-80.1,402.37-65.1,89.46-80.96c321.18,16.21,316.99,8.42,23.41,43.54
		c293.58-35.11,160.03-9.47,610.48-117.25c-450.59,107.81-450.7,107.79,1.38,0.06c-452.14,107.7-452.16,107.7,0.18,0.06
		c-452.41,107.62-452.48,107.58,0.71,0.56c-453.22,106.95-456.48,101.06,14.92,26.98c-471.44,73.99-471.4,73.93-0.1,0.81
		c-471.24,73.05-471.17,73-1.05,0.52c-469.99,72.44-336.36,46.78-610.87,117.33c274.51-70.56,270.29-78.41,23.59,43.86
		C390.9,356.1,434.38,356.38-1.45,439.45L-1.45,439.75z"/>
</g>
<g>
	<path class="st0" d="M515.73-4.26c62.83,69.7,35.49,57.58-83.24,0h1.34c137.93,65.76,148.08,69.49,64.79,0h0.51
		c90.14,74.67,82.35,75.45,280.75,333.42C525.28-1.86,525.14-1.9,781.23,329.81C525.05-1.91,525.04-1.91,781.48,329.85
		C524.93-1.93,524.81-1.93,782.97,329.71C524.69-1.89,512.94,1.86,836.62,312.58c-323.84-310.66-323.9-310.58,1.11-0.8
		C512.68,2.08,512.66,2.17,837.55,310.75C591.49,77.05,580.53,73.4,525.37-4.26h0.24c42.89,60.06,48.98,62.15,37.47,0h1.24
		c10.09,54.41,2.34,58.04-53.89,0H515.73z"/>
	<path class="st0" d="M714.35-4.26C535.39,59.18,533.81,60.34,842,28.59v-2.2C486.44,59,541.67,55.21,842,95.23l0-0.05
		c-340.8-46.14-334.16-39.05,0-49.82v0C502.34,56.2,652,41.6,70.31,126.38c598.5-87.22,598.63-87.18-1.71-0.23
		c600.42-86.92,600.43-86.92-0.2-0.09c600.71-86.79,600.79-86.73-0.72-0.78c601.53-85.86,603.81-78.11-10.43-35.45
		c614.28-42.56,614.21-42.48,0.38-1.01c613.74-41.4,613.64-41.33,1.47-0.55C659.84,48.26,501.72,64.82,842,9.4
		C547.13,57.43,509.89,70.1,715.79-4.26H714.35z"/>
</g>
<g>
	<path class="st0" d="M471.72-4.26c97.94,176.54,92.72,154.24-58.52,48.6c161.06,112.59,150.83,114.51,57.22-10.74
		c93.61,125.25,61.41,63.95,147.17,280.24c-85.79-216.35-85.86-216.38,0.69,0.48c-86.61-216.88-86.61-216.89,0.15,0.04
		c-86.82-216.94-86.89-216.95,0.92,0.02c-87.89-216.95-95.69-215.53,35.64-6.51c-131.43-209-131.48-208.96,0.82-0.4
		c-132.35-208.51-132.38-208.46,0.1-0.62C523.46,99.08,555.67,160.42,508.63,26.43c47.05,133.99,36.72,135.93,57.64-10.82
		c-19.72,137.77-2.1,157.72-95.47-19.87H471.72z"/>
	<path class="st0" d="M842,139.66c-368.16-8.13-337.7-14.57-113.37,45.29c-227.64-60.68-227.98-54.36,1.93-35.38
		c-229.91-18.97-121.1-17.41-497.46-7.13c376.47-10.28,376.54-10.25-0.98-0.25c377.56-9.97,377.57-9.97-0.1-0.07
		c377.71-9.87,377.75-9.83-0.28-0.52c378.02-9.26,377.82-4.45,0.9-21.99c376.91,17.61,376.85,17.65,0.43-0.57
		c376.36,18.26,376.28,18.29,0.99-0.23c375.18,18.52,266.29,16.95,497.78,7.13c-231.49,9.82-231.84,16.2,1.95-35.64
		C503.41,141.46,473.71,133.88,842,139.8L842,139.66z"/>
</g>
<g>
	<path class="st0" d="M367.26-4.26c100.7,115.93,120.68,122.55-115.33,0h2.11c253.06,126.92,221.24,106.93-25.83,58.52
		c269.27,52.83,261.28,58.26,44.65-30.4C489.49,112.52,396.66,64.37,697.21,244c-300.65-179.68-300.75-179.68,1.15,0.23
		c-301.97-179.91-301.98-179.91,0.18-0.01c-302.23-179.89-302.31-179.88,0.91-0.31C396.17,64.39,390.05,68.49,727.44,225.16
		c-337.47-156.61-337.48-156.55,0.4-0.68c-337.87-155.81-337.85-155.75-0.53-0.64C390.08,68.78,482.96,116.96,302.67,3.56
		c170.59,107.3,172.56,117.98,64.48-7.82H367.26z"/>
	<path class="st0" d="M573.19-4.26c-161.96,121.58-187.97,121.24,170.04,0h-0.47c-368.26,121.92-345.9,105-67.52,84.56
		c-281.6,20.74-275.57,26.99-33.7-34.96c-241.88,61.95-134.86,25.44-489.23,166.92c354.48-141.51,354.59-141.51-1.2,0.09
		c355.85-141.59,355.86-141.59-0.17-0.03c356.1-141.54,356.17-141.51-0.78-0.41c357-141.06,361.64-136.33-21.23-21.62
		c382.95-114.64,382.94-114.59-0.16-0.71c383.06-113.81,383.03-113.75,0.74-0.57C511.68,75.86,404.59,112.4,619.04,21.99
		C409.57,110.3,410.5,118.37,573.21-4.26H573.19z"/>
</g>
<g>
	<path class="st0" d="M516.85-4.26c61.04,189.35,62.84,168.46-64.28,52.43c133.09,121.57,122.71,122.68,58.02-6.25
		c64.69,128.93,46.3,66.83,84.05,283.9c-37.78-217.13-37.84-217.16,0.56,0.52c-38.45-217.7-38.46-217.71,0.13,0.05
		c-38.64-217.78-38.71-217.79,0.9,0.08c-39.69-217.86-47.59-217.05,36.09-3.71c-83.79-213.33-83.85-213.29,0.89-0.33
		c-84.8-212.91-84.83-212.87,0.23-0.6c-85.05-212.2-66.65-150.06-84.11-284.08c17.46,134.02,7,135.15,58.45-6.3
		c-49.22,135.04-34.98,154.19-91.58-35.71H516.85z"/>
	<path class="st0" d="M842,171.82c-348.32-34.28-316.19-37.67-111.87,36.59c-208.96-75.88-210.63-69.75,9.38-34.33
		C519.5,138.66,625.2,148.19,256.3,130.51c369.01,17.7,369.07,17.73-0.9-0.32c370.01,18.08,370.01,18.08-0.09-0.08
		c370.13,18.2,370.16,18.23-0.16-0.52c370.3,18.81,369.09,23.48,5.54-21.36c363.54,44.9,363.47,44.94,0.55-0.53
		c362.84,45.5,362.77,45.52,1.01-0.15c361.65,45.66,255.88,36.13,483.52,43.6c-227.64-7.47-229.34-1.28,9.45-34.59
		C521.69,149.19,493,140.02,842,172.01V171.82z"/>
</g>
<g>
	<path class="st0" d="M513.53,493c-204.21-121.46-141.34-90.81,140.34-19.68C322.74,389.61,317.69,379.59,552.26,493h-0.04
		C327.89,384.77,414.51,436.36,67.07,190.56c365.18,258.33,365.31,258.35-1.49-0.38c366.89,258.73,366.9,258.73-0.23,0
		c367.23,258.72,367.34,258.71-1.27,0.34c368.7,258.31,377.61,253.26-40.71,23.06c418.44,230.13,418.46,230.05-0.65,0.87
		c419.12,229.09,419.1,229.02,0.58,0.89C399.33,420.31,345.16,384.45,488.53,493h-0.04c-130.72-98.75-137.9-106.88-63.93,0h-0.81
		c-68.22-96.31-70.52-101.98,95.73,0H513.53z"/>
	<path class="st0" d="M241.15,493c171.12-106.3,174-102.66-194.99,0H50c416.14-110.87,365.2-91.92,15.28-83.65
		c377.81-9.01,370.99-17.71,38.12,48.63c332.87-66.35,183.86-24.91,681.15-189.44c-497.44,164.57-497.57,164.56,1.62-0.05
		c-499.27,164.58-499.28,164.58,0.21,0.05c-499.59,164.51-499.67,164.46,0.98,0.59c-500.7,163.8-505.97,157.22,24.1,30.1
		c-530.14,127.03-530.11,126.95,0.08,0.95c-530.14,125.91-530.08,125.84-1.09,0.7c-528.84,125.1-379.75,83.64-681.58,189.57
		C398.6,395.8,421.79,378.73,240.56,493H241.15z"/>
</g>
<g>
	<path class="st0" d="M489.83,493c-180.36-107.47-104.79-74.35,181.96-2.61c-335.96-84.14-359.24-98.33-147.83,2.61h-0.19
		c-192.57-91.44-130.71-57.15-482.64-304.42c392.97,276.09,393.11,276.11-1.59-0.41c394.8,276.51,394.82,276.51-0.25,0.01
		c395.17,276.5,395.29,276.48-1.35,0.37c395.53,275.2,406.2,270.65-39.39,27.04v0c444.17,242.63,444.42,242.68,0,1.31v0
		c444.4,241.27,444.18,241.08,0,0.59l0,0C374.83,421.17,346.05,399.74,469.71,493h-0.12c-108.94-81.84-117.62-87.75-56.67,0h-1.16
		c-55.82-78.87-51.86-82.86,85.22,0H489.83z"/>
	<path class="st0" d="M260.56,493c140.52-87.74,132.96-85.21-169.66,0h7.47c364.1-97.58,295.03-78.97-57.82-69.92
		c404.86-10.47,397.5-19.77,41.16,52.04c356.35-71.82,196.9-27.08,728.85-204.49c-532.1,177.44-532.25,177.43,1.74-0.06
		c-534.08,177.46-534.09,177.46,0.23,0.06c-534.42,177.38-534.52,177.34,1.04,0.63c-535.62,176.63-541.31,169.58,26.01,32.21
		c-567.4,137.27-567.37,137.19,0.09,1.02c-567.4,136.08-567.33,136.01-1.15,0.75c-536,128.03-421.36,94.69-681.85,187.75h0.01
		c228.68-81.64,252.39-94.97,102.76,0H260.56z"/>
</g>
<g>
	<path class="st0" d="M205.41,157.71c131.53,194.27,99.19,136.84,147.86,262.55c-48.67-125.71-39-127.65-53.96,10.84
		c15.19-139.9-5.94-150.8,113.93,58.75c-122.26-209.08-127.7-192.84,29.35-87.55c-155.4-104.27-145.82-106.19-53.56,10.76
		c-92.25-116.95-59.93-59.56-147.75-262.38c87.85,202.88,87.92,202.91-0.66-0.45c88.64,203.37,88.64,203.37-0.13-0.03
		c88.83,203.42,88.9,203.43-0.87-0.01c89.84,203.42,97.15,201.99-33.36,6.53c130.61,195.44,130.66,195.39-0.76,0.38
		C336.95,352.09,336.98,352.04,205.41,157.71z"/>
	<path class="st0" d="M608.96,330.13c-354.1-13.22-251.45-12.97-469.24-1.11c217.78-11.87,217.91-17.88-0.68,33.6
		c220.78-52.06,244.93-43.61-130.18-45.54c375.08,3.41,350.6,11.52,131.98-43.69c216.45,54.6,216.57,48.64-0.67,33.36
		c217.23,15.29,114.65,15.04,468.93,1.11c-354.37,13.93-354.44,13.9,0.93,0.23c-355.41,13.65-355.42,13.64,0.1,0.07
		c-355.55,13.55-355.59,13.52,0.28,0.48c-355.87,12.99-355.83,8.45-0.14,20.73c-355.69-12.34-355.64-12.38-0.39,0.55
		C254.69,316.94,254.76,316.91,608.96,330.13z"/>
</g>
<g>
	<path class="st0" d="M842,363.1c-305.21,9.5-250.78,5.4,0-62.4v0.04c-285.86,77.97-287.41,72.43,0,46.12v0.01
		c-287.55,26.49-162.53,22.88-699.42,11.84c561.46,11.53,561.57,11.48-1.45,0.39c563.07,11.05,563.08,11.04-0.15,0.1
		c563.28,10.9,563.34,10.84-0.4,0.77c563.73,9.99,563.3,2.82,1.99,32.77c561.3-30.04,561.22-30.1,0.66,0.85
		c560.45-31.02,560.35-31.06,1.49,0.33c533.03-29.94,409.82-28.2,697.29-17.29v0c-284.97-10.78-286.47-16.24,0,44.43v0.06
		c-252.07-52.71-302.04-54.01,0-60.23V363.1z"/>
	<path class="st0" d="M635.06,493c-19.37-136.38-14.16-156.24-92.76,0h4.1c89.95-168.23,64.71-131.9-118.43,0l0.02,0
		c211.2-151.6,205.74-158,90.08,0h0.02c113.16-154.13,76.99-86.16,192.62-393.65c-121.62,323.36-121.72,323.41,1-0.73
		c-122.81,324.16-122.81,324.16,0.21-0.06c-123.11,324.25-123.22,324.26,1.37-0.03c-124.71,324.27-136.37,322.23,53.31,9.34
		c-189.84,312.87-189.92,312.8,1.24,0.59c-191.22,312.13-191.27,312.06,0.17,0.93C589.19,399.99,617.81,338.97,568.32,493l0.01,0
		c47.93-148.78,42.91-153.68,66.44,0H635.06z"/>
</g>
<g>
	<path class="st0" d="M637.74-4.26c17.56,169.56,10.46,139.17-100.16,0h0.07c127.21,158.66,118.45,159.68,74.09,0h0.02
		c44.63,159.66,37.85,90.34,24.33,389.67c14.14-313.31,14.06-313.37,0.65,0.8c13.35-314.2,13.34-314.21,0.17,0.08
		c13.1-314.32,13.01-314.35,1.25,0.22c11.64-314.56,0.13-314.27,52.57-1.37c-52.59-312.9-52.69-312.85,1.37-0.38
		c-54.15-312.41-54.22-312.35,0.51-0.83c-52.14-296.72-48.47-228.59-33.25-388.2l0,0c-15.02,158.08-23.61,159.07,70.78,0h0.11
		c-81.97,140.01-83.78,167.46-96.05,0H637.74z"/>
	<path class="st0" d="M842,109.94c-211.62,11.41-242.11,9.22,0,50.33v-2.35c-260.17-46.91-205.36-33.41,0,63.73v-0.03
		c-235.61-112.04-245.04-109.43,0-48.4v-0.02c-239.61-59.9-136.69-41.17-626.62-102.71c519.95,65.33,520.02,65.38-1.18-0.55
		c521.24,65.98,521.25,65.98-0.1-0.12c521.39,66.15,521.41,66.21-0.06-0.76c521.43,67.05,518.24,73.56,14.56-29.82
		c503.64,103.47,503.54,103.52,0.95-0.69c502.47,104.25,502.35,104.28,1.49-0.1C694.85,135.1,602.36,120.71,842,146.19v-0.01
		c-231.11-24.66-238.38-22.23,0-36.05V109.94z"/>
</g>
<g>
	<path class="st0" d="M601.96-4.26c41.73,85.4,21.4,72.74-76.25,0h1.22c113.13,82.87,119.12,85.2,57.55,0h0.44
		c67.7,92.72,57.34,87.5,164.95,381.91c-135.8-371.48-135.92-371.53,1.15,0.84c-137.16-372.4-137.17-372.4,0.24,0.07
		c-137.51-372.5-137.63-372.51,1.58,0.05C613.48,6.07,600.07,8.37,814.09,368.11C599.9,8.4,599.8,8.47,815.52,367.43
		c-215.8-358.87-215.85-358.79,0.2-1.06C647.19,87.35,641.8,90.22,612.58-4.26h0.2c24.78,79.15,29.36,80.87,43.06,0h1.23
		c-11.44,71.14-19.49,77.88-60.47,0H601.96z"/>
	<path class="st0" d="M842,21.62c-217.82,43.82-254.13,48.32,0,54.95l0-3.07c-257.3-8.4-217.24-1.47,0,57.14v-0.29
		c-246.16-67.68-247.48-66.05,0-42.04v-0.08C589.79,63.32,675.03,68.02,101.03,77.81c644.29-10.98,644.41-10.92-1.67-0.45
		c646.15-10.42,646.16-10.42-0.17-0.12c646.39-10.24,646.45-10.18-0.44-0.89c646.88-9.2,646.29-0.98,2.65-37.58
		c643.65,36.71,643.55,36.78,0.77-0.97c642.66,37.82,642.53,37.88,1.71-0.37C673.13,71.4,589.6,71.57,842,62.25v-0.03
		c-245.01,8.86-246.28,10.48,0-40.29V21.62z"/>
</g>
<g>
	<path class="st0" d="M468.51-4.26c-425.57,202.52-425.35,202.46-1.09,0h0.05C130.59,156.87,135.08,158.57-1.45,204.44v-0.12
		c117-39.52,122.67-43.65,0-26.17v-0.74c108.75-15.71,115.36-11.68,0,38.41v-3.76c143.53-60.76,111.47-35.97,0,68.38v-0.48
		c127.6-121.37,139.47-129.9,0-54.43v-0.25C135.5,150.56,114.27,164.19,551.77,5.82C19.35,198.57,19.3,198.65,552.7,4.93
		C19.29,198.71,19.29,198.72,552.73,4.78c-533.45,194-533.43,194.07-0.43-0.86C36.44,192.68,27.3,204.8,470.81-4.26l0.09,0
		c-428.05,202.43-428.32,202.6-2.41,0L468.51-4.26z"/>
	<path class="st0" d="M21.93-4.26c107.17,220.38,92,188.92,123.46,0h-0.06c-36.76,213.9-24.23,206.55-88.26,0h0
		c65.56,211.76,17.15,117.24,238.48,456.32c-224.37-343.77-224.33-343.85-0.17,1.04c-224.1-344.94-224.1-344.95-0.13,0.13
		c-223.91-345.13-223.83-345.19-1.24,0.53C71.57,108.03,84.5,105.7,234.87,464.43c-150.2-358.76-150.05-358.74-1.76-0.1
		c-148.15-358.59-148.03-358.54-1.13-0.8C87.84,112.47,136.05,204.11-1.45,9.39c117.2,165.96,144.59,188.49,0,81.96v0.81
		c126.26,94.59,124.05,90,26.88-96.43L21.93-4.26z"/>
</g>
<g>
	<path class="st0" d="M842,273.63c-227.68,18.6-256.55,29.4,0-56v1.39c-265.13,92.15-218.62,77.22-59.67-44.84
		c-179.39,137.64-185.71,131.18,35.36,36.14c-221.07,95.04-109.44,57.77-510.3,170.38c400.97-112.64,401.02-112.7-0.78,0.59
		c401.81-113.33,401.81-113.33-0.04,0.11c401.86-113.48,401.86-113.54,0.19,0.63c401.61-114.22,396.88-119.15,21.66,22.55
		c375.15-141.77,375.05-141.8,0.99,0.45c373.94-142.27,373.84-142.28,1.24-0.09c372.48-142.15,260.78-104.86,510.64-170.48
		c-239.44,62.89-255.28,59.52,0.69,39.15V273.63z"/>
	<path class="st0" d="M705.15,493c-78.05-255.92-57.32-237.51-118.12-69.35c61.27-169.78,48.83-168.43,69.59-7.59
		c-20.76-160.84,3.56-86.58-111.17-339.48c114.75,252.97,114.71,253.03,0.25-0.73c114.41,253.79,114.41,253.79,0.12-0.09
		c114.24,253.92,114.17,253.95,0.93-0.32c113.14,254.28,103.7,255.35,43.18-4.92c60.4,260.29,60.3,260.26,1.23,0.15
		c58.98,260.07,58.9,260.03,0.69,0.62C650.02,330.64,625.69,256.34,703.09,411c-77.4-154.66-89.95-153.3,70.1-7.64
		C614.57,259.12,622.76,237.55,704.93,493L705.15,493z"/>
</g>
<g>
	<path class="st0" d="M97.79,493c36.61-218.05,32.94-182.46,121.51,0l-0.06,0c-101.84-207.44-88.81-204.72-88.48,0h-0.01
		c-0.52-207.09-17.55-115.05,96.91-472.27c-117.61,367.1-117.54,367.18-0.49-1.02c-116.98,368.24-116.97,368.25-0.17-0.11
		c-116.72,368.41-116.61,368.46-1.4-0.4c-115.07,368.86-101.45,369.79-62.3-4.28c-38.96,374.09-38.83,374.04-1.74,0.29
		c-36.97,373.7-36.87,373.63-0.87,0.92C125.46,381.11,145.09,285.67,68.64,493l0,0c72.85-197.61,89.3-205.74-70.1-32.05v-0.24
		C136.26,308.75,143.54,283.32,101.6,493H97.79z"/>
	<path class="st0" d="M-1.45,326.02c131.99,5.11,143.21,1.69,0-39.33v3.47c164.39,46.15,133.67,28.45,0-57.18v0.52
		c152.39,99.2,160.65,103.79,0,44.13v0.21c162.94,61.05,134.33,48.92,622.68,160.6c-590.8-135.12-590.87-135.19,1.21,0.78
		c-592.1-136.03-592.12-136.04,0.08,0.15C30.3,303.12,30.3,303.05,622.35,440.28C30.36,302.97,36.22,295.66,595.59,473.73
		c-559.3-178.17-559.17-178.21-1.32,0.71c-557.68-178.96-557.55-178.98-1.79-0.05C145.18,330.38,165.37,332.15-1.45,297.78v0.1
		c143.77,29.85,148.92,32.7,0,27.46V326.02z"/>
</g>
<g>
	<path class="st0" d="M286.42,493c-79.55-148.98-54.31-119.44,110.14,0h-0.21c-189.82-136.46-188.48-141.76-83.57,0h-0.09
		c-103.91-139.55-73.38-86.53-193.12-402.31c131.66,347.17,131.77,347.23-1.08-0.78c132.95,348.03,132.96,348.04-0.22-0.06
		c133.27,348.12,133.39,348.14-1.48-0.04C251.78,437.95,264.3,435.75,59.56,99.9c204.91,335.82,204.99,335.75-1.33,0.63
		c206.4,335.04,206.45,334.96-0.17,1C242.66,399.88,222.39,352.95,267.23,493h-0.04c-42.93-133.24-41.34-137.26-61.73,0l-0.57,0
		c16.47-122.03,16.1-138.03,86.52,0H286.42z"/>
	<path class="st0" d="M-1.45,432.49c248.72-51.9,295.68-54.45,0-60.35v2.55c298.68,8.87,247.69,3.78,0-62.4v0.1
		c281.65,76.23,283.05,71.86,0,46.03v0.03c284.34,26.21,167.76,22.36,732.08,10.17c-603.01,13.02-603.13,12.97,1.56,0.42
		c-604.75,12.5-604.76,12.5,0.16,0.12c-604.98,12.33-605.03,12.27,0.43,0.83c-605.46,11.36-605.01,3.67-2.02,35.19
		c-602.99-31.63-602.9-31.7-0.72,0.92c-602.07-32.68-601.96-32.74-1.59,0.35C168,375.56,282.88,376.56-1.45,387.91v0.01
		c280.73-11.12,282.1-15.44,0,44.44V432.49z"/>
</g>
<g>
	<path class="st0" d="M421.88-4.26c127.76,99.34,79.54,73.16-128.31,0h0.1c242.01,84.59,254.43,94.27,102.61,0h0.17
		C539.45,84,496.7,53.82,751.42,289.54C463.38,22.99,463.25,22.97,752.73,290c-289.56-267.04-289.57-267.04,0.22,0.01
		c-289.89-267.05-289.99-267.04,1.25-0.23C462.86,23.02,453.53,27.09,796.83,271.15c-343.42-244.01-343.46-243.93,0.78-0.77
		c-344.26-243.09-344.26-243.01-0.36-0.86C506.06,64.49,527.68,85.75,437.7-4.26h0.1c80.36,80.02,85.68,84.71,47.69,0h0.92
		c35.02,75.82,32.87,81.13-70.13,0H421.88z"/>
	<path class="st0" d="M649.62-4.26C467.79,83.13,468,78.6,842,7.21V6.4c-424.82,76.75-375.94,62.19-44.55,79.31
		c-354.02-18.22-349.43-9.63-25.68-48.02C448.02,76.08,595.32,47.95,98.41,166.3c497.06-118.37,497.19-118.35-1.52-0.07
		c498.78-118.25,498.79-118.25-0.19-0.07c499.05-118.15,499.13-118.11-0.78-0.62C595.87,48.12,599.44,54.63,79.55,135.78
		c519.94-81.06,519.9-80.99,0.12-0.89c519.71-80.03,519.64-79.96,1.15-0.58C599.16,54.95,451.78,83.1,754.62,5.62
		C484.33,74.77,458.96,89.11,650.27-4.26H649.62z"/>
</g>
<g>
	<path class="st0" d="M495.98-4.26c99.53,142.86,70.92,109.56-110.15,0h0c209.21,126.46,206.26,133.83,84.7,0c0,0,0.02,0,0.02,0
		c117.58,129.13,77.49,71.21,215.41,331.71c-144.68-273.25-144.78-273.29,0.96,0.58c-145.81-273.89-145.82-273.89,0.19,0.04
		C541,54.13,540.91,54.12,688.28,328.05C540.8,54.15,531.01,56.41,733.03,317.72c-202.14-261.28-202.21-261.22,0.99-0.56
		c-203.26-260.59-203.28-260.53,0.03-0.81C544.71,74.5,576.14,124.77,515.24-4.26h0.01c58.47,123.63,55.45,128.8,56.62,0h0.3
		c0.31,114.58,6.1,129.59-79.84,0L495.98-4.26z"/>
	<path class="st0" d="M842,93.28c-361.98,6.74-307.74,3.09-33.9,62.41c-302.16-65.37-301.59-57.23-3.15-45.57
		c-298.44-11.66-158.37-15.67-640.33,18.37c482.1-34.04,482.2-34.01-1.3-0.27c483.55-33.7,483.56-33.69-0.15-0.09
		c483.76-33.57,483.8-33.53-0.44-0.65c484.25-32.81,484.76-26.62-2.33-28.3c487.1,1.77,487.03,1.82,0.46-0.76
		c486.5,2.64,486.41,2.68,1.24-0.34c485.02,3.04,344.86,7.05,640.74-18.38c-295.88,25.43-295.32,33.65-3.17-45.91
		C534.94,105.95,480.36,104.91,842,94.35L842,93.28z"/>
</g>
<g>
	<path class="st0" d="M565.9-4.26c-512.8,173.54-512.61,173.53-1.47,0h0C140.49,139.76,171.41,133.85-1.45,171.99v-0.08
		c154.84-34.39,161.05-36.81,0-28.85v-0.61c143.28-7.7,155.96-5.4,0,41.43v-3.41c179.22-53.82,142.8-34.4,0,61.65c0,0,0-0.34,0-0.34
		c163.09-111.26,173.23-115.45,0-47.78v-0.16C169.64,126.47,126.04,142.87,604.67,26c-561.54,137.12-561.6,137.19,1.13-0.77
		c-562.76,138.02-562.77,138.02,0.06-0.14c-562.85,138.23-562.86,138.3-0.2-0.87C46.52,162.61,48.9,170.31,569.11-4.26h0.01
		C52.9,169.2,52.38,169.45,565.9-4.26L565.9-4.26z"/>
	<path class="st0" d="M78.94-4.26c72.97,176.87,83.07,176.73-80.39,8.18v0.13c141.76,147.57,154.13,179.13,109.52-8.3l-4.15,0
		c38.42,184.99,37.23,156.95,105.88,0c0,0-0.18,0-0.18,0c-79.41,177.79-70.83,175.14-76.7,0h-0.03
		c5.62,178.27-9.75,104.17,109.78,435.84C116.36,81.08,116.43,81,242.22,432.57c-125.73-351.61-125.72-351.62-0.17,0.11
		c-125.49-351.78-125.4-351.82-1.32,0.39c-123.93-352.22-110.9-353.29-59.59,4.91c-51.14-358.22-51.01-358.18-1.67-0.26
		c-49.22-357.86-49.12-357.81-0.87-0.87C132.62,96.49,152.6,174.1,78.94-4.26L78.94-4.26z"/>
</g>
<g>
	<path class="st0" d="M666.49,177.38C324.67,105.34,421.3,129.6,224.78,66.5c196.51,63.1,192.5,68.78,22.42-31.74
		C418.94,136.34,447.44,134.17,93.62,46.5c354.8,86.26,337.35,72.8,94.04,72.55c240.87,0.31,236.89,5.94,22.26-31.51
		c214.63,37.45,118.07,13.21,441.42,110.81c-323.45-97.62-323.53-97.61,1.03,0c-324.61-97.6-324.62-97.6,0.13-0.04
		c-324.8-97.54-324.86-97.52,0.6-0.39c-325.5-97.08-328.58-92.82,14.09-19.51c-342.71-73.25-342.69-73.2,0.01-0.61
		C324.54,105.27,324.58,105.32,666.49,177.38z"/>
	<path class="st0" d="M568.77-4.26c-234.35,151.09-222.05,133.69-9.07,74.13c-217.59,60.91-209.91,65.01-42.95-22.89
		c-166.96,87.89-97.2,41.67-318.91,211.31c221.78-169.69,221.88-169.7-0.92,0.27c222.85-169.97,222.86-169.97-0.15,0
		c223.08-169.97,223.15-169.96-0.82-0.21c224.03-169.72,229.9-166.64-26.87-14.09c256.86-152.5,256.88-152.45-0.44-0.55
		c257.32-151.85,257.32-151.8,0.33-0.57C425.87,91.97,356.07,138.22,488.07,31.7c-132,106.52-124.26,110.65-43.26-23.06
		c-79.2,130.91-107.32,139.85,124.37-12.9H568.77z"/>
</g>
<g>
	<path class="st0" d="M446.68,493c-170.63-143.04-123.27-108.99,126.17-13.94C282.02,368.14,283.77,359.48,479.99,493h-0.01
		c-189.96-129.07-117.48-67.47-379.44-333.7c271.62,276.03,271.74,276.06-1.29-0.5c273.12,276.56,273.12,276.57-0.22-0.02
		c273.44,276.59,273.55,276.58-1.28,0.2c274.93,276.34,284.63,272.46-44.33,17.74c329.08,254.67,329.12,254.59-0.85,0.75
		c330,253.76,330,253.69,0.3,0.88C358.26,412.51,305.3,364.22,422.99,493h-0.01c-110.48-120.72-111.95-128.74-63.51,0h-0.48
		c-44.97-115.29-52.64-126.04,92.26,0L446.68,493z"/>
	<path class="st0" d="M104.39,493C364.44,375.19,417.52,371.48-1.45,440.33v0.91c423.74-65.25,371.69-52.15,41.05-77.44
		c355.85,27.14,351.83,18.36,22.48,49.09c329.34-30.73,178.74-5.99,688.48-113.08c-509.9,107.12-510.02,107.09,1.52,0.11
		c-511.61,106.96-511.62,106.95,0.2,0.07c-511.9,106.85-511.97,106.81,0.74,0.64c-512.74,106.09-515.89,99.43,14.39,30.43
		c-530.32,68.91-530.27,68.84-0.19,0.9c-530.02,67.87-529.94,67.82-1.2,0.55C237.44,399.73,388.14,374.98,77.1,445.66
		C386.44,375.37,384.12,366.23,104.39,493L104.39,493z"/>
</g>
<g>
	<path class="st0" d="M688.1-4.26c-22.79,194.94-19.43,161.32-107.45,0h0.01c100.86,183.95,87.71,182.12,78.62,0v0
		c9.22,183.49,21.17,99.29-60.51,403.52c82.62-307.81,82.56-307.88,0.46,0.84c82.03-308.76,82.03-308.76,0.15,0.1
		c81.82-308.9,81.74-308.93,1.18,0.31c80.44-309.25,69.03-309.83,52.13,2.66c16.74-312.49,16.64-312.45,1.43-0.27
		c15.1-312.14,15.02-312.08,0.69-0.78c14.21-309.09,1.32-222.69,59.02-406.39l0,0c-58.08,184.89-71.95,182.95,85.78,0.09
		C662.02,155.2,655.56,194.32,685.18-4.26H688.1z"/>
	<path class="st0" d="M842,142.89c-189.95-4.56-212.42-6.88,0,47.75l0-2.56c-237.08-63.51-182.23-44.22,0,68.08v-0.02
		c-209.95-129.89-223.26-129.78,0-52.56v-0.03C627.01,128.91,718.08,153.8,253.03,56.72c498.31,104.02,498.37,104.09-1.04-0.64
		c499.44,104.77,499.44,104.78-0.07-0.12c499.53,104.95,499.54,105.01,0.1-0.76c499.39,105.83,494.82,112.02,20.9-28.28
		c473.85,140.39,473.74,140.42,1.08-0.61c472.54,141.06,472.42,141.08,1.49,0.02C703.68,154.6,626.56,136.44,842,176.81v-0.01
		c-204.2-38.38-213.12-37.77,0-33.64V142.89z"/>
</g>
<g>
	<path class="st0" d="M-1.45,213.46c332.41-67.74,299.36-67.71,118.67,25.68c185.26-95.67,188.66-89.76-19.01-33.05
		c207.67-56.71,105.77-36.87,465.8-90.7c-360.13,53.85-360.18,53.89,0.8-0.41c-361.01,54.34-361.01,54.34,0.06-0.08
		c-361.1,54.46-361.11,54.5,0.01-0.54c-361.09,55.09-358.57,59.59-11.53-20.59c-346.99,80.24-346.92,80.26-0.69-0.47
		c-346.15,80.76-346.07,80.78-1.04-0.04c-344.92,80.8-242.96,60.95-466.11,90.76c223.15-29.81,226.57-23.85-19.15-33.29
		c239.77,9.27,266.01-2.56-67.81,62.95V213.46z"/>
	<path class="st0" d="M268.41-4.26c-6.81,206.11-16.73,187.4,78.06,57.5c-97.24,133.4-86.66,133.49-59.19-0.47
		c-27.47,133.95-26.87,70.69-2.72,289.2c-24.15-218.57-24.1-218.62-0.41,0.57c-23.64-219.21-23.64-219.22-0.11,0.06
		c-23.48-219.3-23.41-219.32-0.86,0.17c-22.46-219.49-14.42-219.47-36.78-0.12c22.46-219.35,22.53-219.32-0.97-0.24
		c23.57-219.03,23.63-218.99-0.4-0.57c24.03-218.35,23.43-155.06,2.72-289.39c20.7,134.33,31.38,134.42-59.62-0.47
		c88.71,131.36,77.93,149.9,80.65-56.25H268.41z"/>
</g>
<g>
	<path class="st0" d="M604.39-4.26c44.06,130.25,27.04,107.71-90.59,0h0.4c135.72,122.44,134.67,125.14,67.74,0h0.13
		c68,125.84,50.61,83.73,108.06,381.48c-64.76-335.54-64.86-335.59,0.9,0.8c-65.84-336.42-65.84-336.43,0.2,0.07
		C625.1,41.58,625,41.55,692.62,378.22c-67.75-336.65-79.94-335.32,55.74-6.11c-135.85-329.19-135.94-329.13,1.36-0.52
		c-137.39-328.53-137.45-328.46,0.33-0.93C629.14,83.27,637.68,122.04,620.68-4.26h0.05c16.5,120.27,15.35,122.55,56.18,0h0.59
		c-34.68,108.73-38.08,124.03-77.89,0H604.39z"/>
	<path class="st0" d="M842,64.74c-222.06,30.83-258.36,31.53,0,53.15v-2.56c-267.91-24.9-219.19-16.27,0,59.81v-0.1
		c-249.73-87.66-254.28-84.62,0-44.62v-0.03c-253.39-40.15-151.92-30.03-681-51.91c571.41,23.64,571.51,23.7-1.4-0.49
		c572.95,24.23,572.97,24.24-0.13-0.12c573.15,24.4,573.18,24.46-0.26-0.81c573.43,25.35,571.69,32.59,7.94-33.1
		c563.73,65.78,563.63,65.84,0.83-0.82c562.68,66.71,562.57,66.76,1.56-0.24c514.91,61.5,418.91,55,672.46,60.68v-0.01
		c-246.88-5.64-250.89-2.76,0-38.64V64.74z"/>
</g>
<g>
	<path class="st0" d="M731.89-4.26c-54.59,207.65-44.95,173.67-112.91,0h0.01c77.79,197.73,63.4,193.68,81.94,0l0,0
		c-18.78,196.37,7.74,105.74-122.63,417.24c130.63-312.14,130.57-312.21,0.34,0.89c130.17-313.14,130.17-313.15,0.14,0.11
		c129.97-313.3,129.88-313.34,1.16,0.38c128.6-313.73,116.96-314.91,53.19,5.43c63.62-320.35,63.5-320.32,1.51-0.2
		c61.87-320.07,61.77-320.01,0.82-0.76c60.93-319.16,34.06-227.6,122.81-418.55C669.94,190.33,654.21,189.72,842,11.15v0
		C677.58,167.53,667.17,205.01,729.07-4.26L731.89-4.26z"/>
	<path class="st0" d="M842,160.18c-166.66-12.47-182.97-13.26,0,45.37v-2.94c-210.47-69.36-160.28-46.52,0,70.29v-0.05
		c-184.66-135.41-199.2-138.14,0-54.89v-0.06c-190.35-79.94-116.35-54.23-568.24-174.87c496.76,132.64,496.82,132.71-0.98-0.71
		c497.82,133.46,497.83,133.47-0.05-0.13c497.89,133.66,497.89,133.72,0.21-0.77c497.61,134.55,492,140.67,25.68-28
		c466.24,168.76,466.12,168.79,1.2-0.57c464.78,169.38,464.66,169.4,1.54,0.09C709.33,162.1,650.17,145.5,842,192.15v-0.03
		c-177.82-43.43-186.57-44.58,0-31.55V160.18z"/>
</g>
<g>
	<path class="st0" d="M-1.45,97.15c248.52-20.24,207.36-11.05,0,57.62v-0.27c235.4-79.24,238.87-78.07,0-42.79v-0.08
		C240.12,75.52,158.78,84.1,720.43,66.41c-631.63,19.9-631.74,19.96,1.57-0.52c-633.37,20.54-633.38,20.54,0.15-0.13
		c-633.58,20.72-633.63,20.79,0.32-0.89C88.53,86.64,90.22,94.65,714.72,28.24c-624.47,66.52-624.36,66.58-0.89-0.92
		c-623.35,67.57-623.22,67.61-1.72-0.28C163.72,86.95,240.67,83.59-1.45,86.37v-0.03c232.51-2.86,235.6-1.69,0-37.74v-0.35
		c208.77,30.91,240.39,33.89,0,51.96V97.15z"/>
	<path class="st0" d="M160.37-4.26c26,88.86,33.25,99.26,69.31,0h-5.45c-37.32,105.28-19,89.24,81.57,0h-0.92
		c-116.28,101.33-119.52,103.46-60.95,0h-0.32c-62.2,108.45-48.84,88.43-116.75,394.78c81.98-369.77,82.1-369.83-1,0.88
		c83.18-370.74,83.19-370.74-0.23,0.08c83.52-370.85,83.63-370.87-1.53,0.12c85.31-370.97,98.72-369.36-61.36-7.35
		c160.27-361.99,160.36-361.92-1.49-0.59c161.94-361.25,162.01-361.17-0.34-1.03C193.87,87.76,193.5,105.22,211.31-4.26h-0.14
		c-16.43,98.68-19.05,100.42-49.78,0H160.37z"/>
</g>
<g>
	<path class="st0" d="M177.61,493c-7.13-209.53-4.45-171.03,118.46,0h-0.01C155.14,297.5,169,297.24,208.61,493h0
		c-39.71-195.8-38.69-105.7-0.08-439.81c-39.21,339.45-39.14,339.51-0.64-0.89c-38.42,340.45-38.42,340.45-0.17-0.09
		c-38.17,340.58-38.07,340.61-1.33-0.27c-36.6,340.88-24.1,340.86-57.12,0.09c33.18,340.77,33.29,340.72-1.51,0.37
		c34.91,340.29,34.99,340.23-0.63,0.89c35.05,333.8,35.19,243.95,3.56,439.72l0,0c31.56-195.36,45.47-195.63-87.15,0h-0.01
		c115.67-171.28,116.95-209.01,117.39,0L177.61,493z"/>
	<path class="st0" d="M-1.45,345.54c190.06-5.35,213.64-5.28,0-47.58v2.88c232.74,47.9,185.95,32.57,0-62.23v0.13
		c212.53,109.49,221.75,109.42,0,47.4v0.06c217.84,61.32,137.11,43.25,642.29,119.73c-558.98-84.63-559.06-84.69,1.24,0.63
		c-560.34-85.38-560.34-85.38,0.1,0.13c-560.47-85.57-560.49-85.63,0.01,0.83c-560.45-86.54-556.5-93.52-18.07,31.95
		c-538.39-125.57-538.27-125.62-1.08,0.72c-537.06-126.38-536.93-126.41-1.62,0.07C147.19,328.2,217.45,339.88-1.45,311.35l0,0.03
		c206.86,27.13,213.62,26.77,0,33.81V345.54z"/>
</g>
<g>
	<path class="st0" d="M170.17,295.65c380.75,62.39,272.6,40.53,494.4,99.93c-221.79-59.41-218.19-65.76-20.12,35.5
		c-200.02-102.34-230.67-98.66,165.2-19.87C412.9,333.99,433.63,347.8,697.87,336.8c-261.58,10.82-258.01,4.52-19.97,35.24
		c-238.04-30.72-129.97-8.87-494.07-99.87c364.22,91.01,364.31,91-1.12,0.05c365.48,90.93,365.49,90.93-0.14,0.04
		c365.68,90.86,365.75,90.84-0.6,0.45c366.37,90.33,369.15,85.55-12.7,21.83c381.88,63.65,381.86,63.6,0.07,0.66
		C551.09,358.11,551.03,358.06,170.17,295.65z"/>
	<path class="st0" d="M294.26,493c240.73-179.9,231.46-160.75,6.19-85.56c228.14-76.22,219.25-80.31,49.68,22.86
		c169.57-103.17,99.98-49.75,318.11-244.22c-218.2,194.53-218.29,194.54,0.97-0.33c-219.32,194.88-219.33,194.88,0.17-0.01
		c-219.57,194.89-219.65,194.88,0.91,0.18c-220.62,194.66-227.42,191.59,31.06,14.06c-258.58,177.49-258.6,177.44,0.56,0.57
		c-259.17,176.81-259.17,176.75-0.29,0.64c-258.81,176.06-189.18,122.6-318.31,244.38c129.13-121.78,120.17-125.91,50.04,23.03
		c69.15-147.07,98.41-157-139.39,24.4H294.26z"/>
</g>
<g>
	<path class="st0" d="M-1.45,128.96c363.36-11.67,319.92-14.97,75.42,52.78c260.25-72.05,260.83-64.77-3.22-40.7
		C334.8,116.97,209.62,119.83,643.02,128c-433.53-8.16-433.61-8.13,1.11-0.3c-434.77-7.79-434.77-7.79,0.12-0.08
		c-434.93-7.67-434.97-7.63,0.31-0.6c-435.27-6.97-434.91-1.43-1.66-25.29c-433.25,23.93-433.18,23.97-0.52-0.66
		c-432.58,24.68-432.5,24.71-1.15-0.25c-431.22,24.96-305.97,22.11-572.63,13.05c266.67,9.05,267.25,16.39-3.24-40.99
		c254.14,53.98,296.86,48.31-66.81,56.68V128.96z"/>
	<path class="st0" d="M257.79-4.26c22.55,139.76,9.28,163.79,90.55,0h-2.17c-88.37,166.45-73.99,136.79,86.84,21.11
		C250.82,148,262.66,150.1,366.87,5.06C262.66,150.1,297.99,79.25,205.36,328.99c92.67-249.81,92.75-249.85-0.77,0.57
		c93.58-250.43,93.59-250.43-0.17,0.05c93.82-250.5,93.91-250.5-1.06,0.03c95.06-250.52,104.07-248.96-41.19-7.14
		c145.39-241.8,145.45-241.75-0.95-0.45c146.46-241.24,146.49-241.18-0.13-0.72C307.67,80.93,272.32,151.83,322.7-2.82
		c-49.32,151.38-38.93,156.62-64.9-1.44L257.79-4.26z"/>
</g>
<g>
	<path class="st0" d="M339.51-4.26c-265.45,298.82-265.17,298.61-0.79,0h0C98.02,267.68,146.46,223.19-1.45,339.48v-0.02
		c130.56-102.84,147.18-112.49,0-46.26v-0.65c134.67-61.59,134.99-58.56,0,73.87v-4.53c160.85-164.29,126.07-122.41,81.77,63.56
		c53.42-223.63,67.6-218.71-79.33-27.55C147.92,206.74,62.07,291.12,393.45,12.12c-331.46,279.09-331.46,279.17,0.24-0.95
		c-331.67,280.18-331.67,280.18-0.07-0.14C62.06,291.41,62.11,291.47,392.71,10.4C63.22,290.67,72.9,295.27,341.24-4.26l0,0
		C73.96,294.4,74.05,294.44,339.51-4.26L339.51-4.26z"/>
	<path class="st0" d="M-1.45,211.99c128.33,40.57,133.03,38.27,0-54.11v4.27c168.16,119.52,122.09,76.38,31.58-92.96
		C137.24,269.34,155.7,278.1-1.45,138.49v0.06c146.35,130.52,80.8,82.68,456.07,307.85c-405.01-243.03-405.02-243.11,0.51,0.92
		c-405.51-244.09-405.51-244.09-0.03,0.14c-405.47-244.29-405.42-244.35-0.71,0.72c-404.61-245.12-395.09-249.9-43.53,21.88
		C59.42,198.2,59.56,198.2,409.29,470.35c-349.57-272.14-349.45-272.13-1.45-0.44C107.15,235.15,147.31,259.27-1.45,175.96v0.06
		c130.51,73.35,141.99,79.45,0,35.32V211.99z"/>
</g>
<g>
	<path class="st0" d="M301.39,493c-83.3-186.57-64.64-148.3,114.33-6.77C209.5,323.02,221.67,319.25,331.11,493h0
		c-108.46-172.09-73.97-89.89-161.68-392.42c88.65,305.71,88.74,305.75-0.89-0.71c89.71,306.49,89.71,306.49-0.19-0.06
		c89.98,306.57,90.08,306.59-1.29-0.07c91.48,306.64,102.55,305.05-50.57,7.3c153.27,297.73,153.36,297.67-1.21,0.52
		c154.63,297.09,154.68,297.02-0.22,0.86C266.13,397.21,235.46,321.47,276.94,493l0,0c-40.55-167.65-30.73-172.71-72.32,0h-0.08
		c35.75-152.51,26.4-178.38,100,0L301.39,493z"/>
	<path class="st0" d="M-1.45,402.13c267.68-48.08,322.09-45.98,0-61.84l0,1.76c329.28,19.9,264.1,15.33,0-66.7l0,0
		c303.03,94.1,306.84,86.44,0,49.7v0c304.51,36.49,161.86,29.13,682.12,33.43c-526.01-4.35-526.11-4.4,1.33,0.4
		c-527.48-4.85-527.49-4.85,0.13,0.1c-527.67-5-527.72-5.05,0.31,0.73c-528.02-5.86-527.06-12.55-4.4,30.59
		c-522.64-43.24-522.56-43.29-0.69,0.78c-521.77-44.12-521.66-44.16-1.42,0.27c-511.79-43.71-373.27-37.07-677.39-34.75h0
		c301.37-2.3,304.92-9.64,0,45.51L-1.45,402.13z"/>
</g>
<g>
	<path class="st0" d="M-1.45,194.82c330.3-57.84,291.28-56.1,95.38,36.18c206.7-97.28,209.85-90.84-17.65-36
		c227.5-54.84,116.54-36.5,507.25-83.85c-390.82,47.37-390.88,47.41,0.89-0.41c-391.8,47.86-391.81,47.87,0.07-0.09
		c-391.91,47.99-391.92,48.04,0.05-0.57c-391.95,48.66-389.62,53.56-10.66-22.42c-378.93,76.05-378.85,76.08-0.7-0.53
		c-378.06,76.63-377.97,76.66-1.12-0.08c-376.74,76.72-265.71,58.37-507.57,83.9c241.86-25.54,245.05-19.04-17.77-36.27
		c249.22,16.39,283.76,5.59-48.17,60.62V194.82z"/>
	<path class="st0" d="M273.95-4.26c-22.5,197.93-27.33,174.47,81.38,42.45c-115.41,140.3-104.07,140.7-63.45-2.21
		c-40.61,142.91-34.71,75.06-26.97,310.17c-7.74-235.18-7.68-235.22-0.49,0.6c-7.14-235.85-7.14-235.86-0.12,0.06
		c-6.96-235.95-6.89-235.96-0.94,0.16c-5.86-236.12,2.77-235.86-39.44-1.19c42.33-234.66,42.4-234.63-1.02-0.29
		c43.49-234.3,43.55-234.25-0.38-0.63c43.93-233.56,38.03-165.66,26.98-310.37c11.05,144.71,22.49,145.11-63.92-2.23
		c81.42,138.66,71.91,161.61,89.28-36.53H273.95z"/>
</g>
<g>
	<path class="st0" d="M-1.45,67.17c358.43,12.14,295.41,10.07,0,68.49v0c337.23-66.88,334.33-58.16,0-50.19l0,0
		c336.39-8.04,180.51-14.79,731.16,32.79c-554.28-47.89-554.4-47.85,1.51-0.29c-555.97-47.52-555.98-47.52,0.16-0.09
		c-556.21-47.38-556.27-47.33,0.54-0.74c-556.82-46.51-557.73-39.38,4.15-32.6c-561.89-6.68-561.82-6.62-0.5-0.89
		c-561.22-5.66-561.13-5.61-1.41-0.42C175.96,78.06,335.28,85.15-1.45,50.81l0,0c337.5,34.42,335.63,43.61,3.58-53.14
		c289.38,84.4,359.12,87.62-3.58,71.27L-1.45,67.17z"/>
	<path class="st0" d="M264.61-4.26c-4.21,86.25-1.4,94.93,67.73,0h-5.14c-78.3,106.43-50.86,85.48,94.76,0h-0.47
		c-168.46,97.54-172.77,102.62-72.78,0h-0.21C248.7,97.34,274.54,68.28,118.18,338.4c180.95-312.56,181.06-312.61-1.13,0.66
		c182.27-313.28,182.29-313.29-0.22,0.05c182.6-313.35,182.7-313.35-1.36-0.06C299.65,25.79,310.83,28.57,64.38,326.34
		c246.6-297.74,246.67-297.67-1.12-0.67c247.84-296.92,247.88-296.84,0.02-0.93C272.27,75.24,260.2,98.72,313.12-4.26h-0.1
		c-48.42,93.55-50.99,96.93-47.56,0H264.61z"/>
</g>
<g>
	<path class="st0" d="M842,195.54c-118.1,77.15-82.07,36.35,0-101v0.22c-95.03,161.24-113.02,180.15,0,84.85v0.35
		c-103.45,87.98-91.47,74.19-458.55,283.6c451.02-257.31,451.05-257.4-0.6,0.99c451.63-258.45,451.63-258.46,0.03,0.15
		c451.57-258.67,451.54-258.74,0.74,0.79c450.68-259.59,440.57-264.94,46.24,24.46c394.19-289.47,394.05-289.48,1.69,0.35
		c392.19-289.82,392.05-289.8,1.59-0.45C732.11,268.28,731.03,263.12,842,203.54v0.17c-83.61,45.08-88.88,50.91,0,25.73v0.81
		c-78.74,22.08-81.13,15.98,0-39.18V195.54z"/>
	<path class="st0" d="M473.09-4.26c342.47,304.44,342.84,304.87,0.93,0h0c341.44,304.53,341.49,304.58,0.25,0l0,0
		c340.9,304.38,341.09,304.65,1.74,0l-0.01,0c332.61,298.89,327.89,308.03,68.04,0H544c254.31,302.42,254.24,302.44,1.74,0h-0.01
		c252.49,302.57,252.23,302.36,0.79,0h-0.02C752.75,244.25,738.25,234.79,842,320.49v-0.15c-85.63-71.07-94.4-80.31,0-36.34v-0.94
		c-85.98-40.05-85.67-31.45,0,58.9v-6.42c-119.93-127.7-87.07-72.94-51.19,111.33c-43.38-222.08-60.2-237.51,51.19-79.58v-0.15
		C740.71,222.57,784.46,272.44,473.09-4.26L473.09-4.26z"/>
</g>
<g>
	<path class="st0" d="M345.77-4.26C499.44,70.8,416.28,44.2,147.36-3.95C463.9,52.8,500.87,66.38,315.44-4.26h0.42
		c163.17,61.64,124,46.41,479.42,248.05C376.46,6.2,376.32,6.19,796.85,244.08C376.23,6.2,376.22,6.2,797.09,244.06
		C376.12,6.21,376.01,6.23,798.3,243.63C375.93,6.3,367.86,11.99,835.17,217.59c-467.41-205.52-467.42-205.43,0.49-0.93
		c-467.9-204.42-467.87-204.34-0.76-0.85C464.59,54.5,469.03,61.01,361.32-4.26h0.23c86.21,52,96.31,55.78,46.08,0h1.32
		c44.97,49.92,35.74,51.32-70.85,0H345.77z"/>
	<path class="st0" d="M501.56-4.26c-66.2,52.66-54.61,52.88,92.9,0h-9.41C381.02,67.86,464.71,47.99,755.62,22.08
		C406.64,53.24,384.54,62.87,632.83-4.26h-0.19C403.56,57.31,484.97,30.11,53.82,212.06c472.62-199.45,472.76-199.44-1.63,0.16
		c474.47-199.58,474.48-199.58-0.24-0.04c474.82-199.52,474.91-199.49-1.09-0.53c476.08-198.88,482.66-192.56-30.11-28.9
		C533.62,19.17,533.6,19.25,20.5,181.78C533.57,19.33,533.52,19.41,21.47,181C445.55,47.18,420.07,59.78,561.23-4.26h-0.19
		c-116.54,52.63-130.49,57.91-58.06,0H501.56z"/>
</g>
<g>
	<path class="st0" d="M842,445.79c-418.09-70.58-366.52-56.87-36.49-77.49c-355.56,22.14-351.21,13.44-24.34,48.59
		C454.3,381.75,603.35,408.46,99.8,294.76c503.7,113.74,503.82,113.71-1.52,0.09c505.42,113.59,505.43,113.59-0.19,0.07
		c505.69,113.49,505.77,113.45-0.78,0.63C603.89,408.3,607.3,401.7,81.78,325.66c525.55,75.96,525.51,75.88,0.15,0.9
		c525.3,74.91,525.22,74.85,1.17,0.57c523.9,74.26,374.76,47.52,681.81,122.21c-302.91-73.68-302.73-83.21-35.64,43.66h-0.01
		C480.86,375.25,432.44,371.41,842,444.87V445.79z"/>
	<path class="st0" d="M482.06,493c49.74-115.09,57.85-125.44-93.73,0l4.55,0c178-141.98,130.06-108.81-123.15-17.22
		c295.65-107.04,292.7-115.22,88.8,17.22h0.01c198.32-128.66,121.4-66.23,394.37-329.24c-281.52,271.24-281.65,271.26,1.3-0.48
		c-283.03,271.75-283.04,271.75,0.22-0.02c-283.35,271.77-283.45,271.76,1.27,0.22c-284.82,271.5-294.33,267.49,43.47,18.28
		c-337.93,249.17-337.97,249.09,0.8,0.77c-338.8,248.24-338.8,248.17-0.34,0.87C485.1,413.2,541.17,364.75,417.25,493l0.01,0
		c116.16-120.06,118.04-128.43,64.33,0H482.06z"/>
</g>
<g>
	<path class="st0" d="M842,370.39c-304.87,6.15-251.81,2.44,0-62.2v0.06c-286.69,74.37-287.58,69.05,0,45.86l0,0.01
		c-288.43,23.44-164.8,21.09-709.05,3.97c571.97,17.98,572.07,17.93-1.49,0.39c573.62,17.5,573.63,17.5-0.15,0.1
		c573.84,17.35,573.9,17.29-0.44,0.79c574.33,16.42,574.11,9.11,0.98,33.42c573.14-24.4,573.04-24.46,0.65,0.88
		c572.29-25.4,572.18-25.45,1.5,0.35c542.22-24.52,419.6-24.21,707.99-10.06v0c-286.16-13.99-287.03-19.3,0,45.02v0.07
		c-252.53-55.87-303.04-57.97,0-60.93V370.39z"/>
	<path class="st0" d="M629.88,493c-14.19-130.62-10.29-148.63-90.29,0h4.41c91.44-160.91,64.78-126.54-116.98,0h0.05
		c209.75-145.24,206.05-151.66,89.11,0h0.04c114.5-147.93,78.19-85.01,204.15-392.99c-134.28,328.26-134.39,328.31,1.05-0.73
		c-135.52,329.07-135.53,329.08,0.21-0.06c-135.83,329.16-135.94,329.17,1.4-0.02c-137.47,329.16-149.28,326.95,54.05,10.11
		c-203.49,316.82-203.57,316.75,1.24,0.62c-204.88,316.05-204.93,315.98,0.13,0.95C589.69,400.84,617.16,344.97,565.03,493h0.02
		c50.26-142.18,46.69-147,64.46,0H629.88z"/>
</g>
<g>
	<path class="st0" d="M391.99,493c-119.61-106.61-75.11-81.87,125.87,0h-0.42c-233.46-93.94-245.07-102.33-99.44,0h-0.28
		c-141.08-98.41-104.74-71.21-365.67-349.1c303.56,323.29,303.7,323.32-1.47-0.59c305.28,323.93,305.28,323.93-0.26-0.02
		c305.65,323.96,305.78,323.96-1.49,0.22c306.91,323.19,318.73,319.34-50.3,21.31v0c368.31,297.23,368.69,297.41,0,1.67l0,0
		c368.5,295.47,368.41,295.31,0,0.76v0c305.25,244,290.78,225.25,377.6,325.76h-0.14c-76.73-88.36-82.46-92.78-51.21,0h-1.12
		c-28.85-82.74-24.85-88.89,74.68,0H391.99z"/>
	<path class="st0" d="M130.41,493c211.66-89.58,228.24-91.54-131.86-36.66v1.9c400.2-56.27,339.12-46.95,0-76.23v0.01
		c385.1,33.66,373.55,24.54,0,54.84l0,0c381.18-30.92,206.67-4.5,800.51-121.39c-594.54,117.01-594.68,116.99,1.75,0.15
		c-596.51,116.81-596.53,116.8,0.23,0.08c-596.83,116.68-596.92,116.63,0.84,0.76c-597.79,115.79-601.17,108.04,15.45,35.42
		c-616.67,72.51-616.61,72.43-0.25,1.04c-616.28,71.3-616.19,71.24-1.42,0.62c-614.59,70.59-439.15,44-802.03,121.56
		c325.95-69.66,355.62-85.07,116.03,17.9H130.41z"/>
</g>
<g>
	<path class="st0" d="M453.42,362.57c173.74-161.09,118.89-116.32,250.77-204.65c-131.88,88.33-139.47,85.16,42.4,17.76
		c-183.77,68.04-186.18,83.08,12.98-81.08c-197.29,164.94-174,158.65-125.6,33.92c-47.99,123.47-55.51,120.32,42.1,17.63
		c-97.61,102.68-42.79,57.94-250.6,204.52c207.87-146.62,207.87-146.66-0.21,0.53c208.07-147.22,208.07-147.22,0.03,0.08
		c208.02-147.33,207.99-147.37,0.46,0.38c207.47-147.78,201.78-150.2,26,11.08c175.7-161.31,175.63-161.31,0.9,0.13
		C627.29,201.43,627.22,201.44,453.42,362.57z"/>
	<path class="st0" d="M454.55,94.44C626.93,256.03,572.46,211.1,703.59,299.82c-131.13-88.72-138.76-85.56,42.56-17.64
		c-183.2-68.57-185.48-83.62,12.29,81.12c-195.9-165.52-172.66-159.16-125.31-34.28c-46.95-123.61-54.5-120.48,42.24-17.51
		c-96.75-102.97-42.3-58.07-248.87-205.25c206.62,147.23,206.62,147.27-0.21-0.53c206.82,147.83,206.82,147.83,0.03-0.08
		c206.78,147.95,206.75,147.98,0.46-0.38c206.23,148.38,200.52,150.78,26.1-11c174.34,161.82,174.26,161.82,0.9-0.12
		C627.06,256.08,626.99,256.07,454.55,94.44z"/>
</g>
<g>
	<path class="st0" d="M284.69,540.54c513.04-172.82,512.85-172.81,1.47,0h0C710.3,397.12,679.37,402.99,852.29,365.09l0,0.08
		c-154.88,34.17-161.1,36.58-0.04,28.85l0,0.61c-143.29,7.5-155.97,5.18,0.06-41.43l0,3.41c-179.3,53.57-142.85,34.2,0.08-61.65
		c0,0,0,0.34,0,0.34C689.14,406.32,679,410.5,852.32,343.07l0,0.16c-171.19,67.14-127.56,50.8-606.36,167
		c561.73-136.33,561.79-136.41-1.13,0.77c562.95-137.23,562.96-137.23-0.06,0.14c563.05-137.44,563.05-137.51,0.19,0.87
		c559.35-137.61,556.97-145.31,36.52,28.53h-0.01C797.93,367.81,798.46,367.56,284.69,540.54L284.69,540.54z"/>
	<path class="st0" d="M771.65,541.23c-72.72-176.97-82.83-176.85,80.4-8.07l0-0.13c-141.55-147.77-153.88-179.35-109.53,8.15
		l4.15,0.01c-38.16-185.04-37.01-157-105.88-0.15c0,0,0.18,0,0.18,0c79.66-177.67,71.07-175.04,76.7,0.11l0.03,0
		C712.35,362.87,727.6,437,608.55,105.16c125.8,350.68,125.73,350.76,0.43-0.99c125.24,351.79,125.23,351.8,0.17-0.11
		c124.99,351.95,124.9,351.99,1.32-0.39c123.44,352.4,110.41,353.45,59.59-4.83c50.63,358.29,50.51,358.25,1.67,0.26
		c48.72,357.93,48.61,357.88,0.87,0.87C718.11,440.4,698.24,362.76,771.65,541.23L771.65,541.23z"/>
</g>
<g>
	<path class="st0" d="M839.83,324.22c-127.32,51.93-105.86,33.56-5.53-90.42l0.02,0.4c-113.92,142.94-116.69,142.06,4.13,67.61
		l0.01,0.13c-121.45,75.55-80.49,55.62-374.18,131.14c330.96-85.12,331.01-85.22-0.75,0.95c331.78-86.25,331.78-86.25-0.06,0.2
		c331.86-86.54,331.88-86.64-0.04,1.39c331.89-88.17,329.81-100.26,9.5,55.27c320.28-155.69,320.22-155.78,0.61,1.33
		c319.54-157.19,319.46-157.24,0.95,0.27c279.48-138.23,241.3-127.33,366.32-152.02l0,0.05c-119.04,23.81-121.38,22.8,3.43,56.07
		l0.04,0.59c-110.64-27.98-126.13-30.44-4.75-77.75L839.83,324.22z"/>
	<path class="st0" d="M785.47,565.6c-44.33-219.77-47.23-255.95-53.05,3.24l2.55-0.16c8.5-268.93,2.86-219.77-59.7,3.65l0.1-0.01
		c72.26-254.62,68.94-258.97,44.54-2.72l0.03,0c24.61-255.36,20.7-153.47,10.25-682.9c11.28,571.79,11.23,571.89,0.4-1.42
		c10.79,573.36,10.78,573.38,0.11-0.14c10.63,573.57,10.57,573.61,0.79-0.31c9.69,573.9,2.36,572.61,33.52,5.91
		c-31.26,566.69-31.32,566.6,0.87,0.77c-32.25,565.71-32.3,565.59,0.33,1.55c-29.95,517.7-29.33,421.49-19.53,674.91l0.01,0
		c-9.44-246.76-12.56-250.59,38.57-2.36L785.47,565.6z"/>
</g>
</svg>
