<?xml version="1.0" encoding="utf-8"?>
<!-- Generator: Adobe Illustrator 23.0.3, SVG Export Plug-In . SVG Version: 6.00 Build 0)  -->
<svg version="1.1" id="Capa_1" xmlns="http://www.w3.org/2000/svg" xmlns:xlink="http://www.w3.org/1999/xlink" x="0px" y="0px"
	 viewBox="0 0 842 493" style="enable-background:new 0 0 842 493;" xml:space="preserve">
<style type="text/css">
	.st0{fill:none;stroke:#9A321E;stroke-width:0.9829;}
	.st1{fill:none;stroke:#9A321E;stroke-width:1.0464;}
	.st2{fill:none;stroke:#9A321E;stroke-width:1.0409;}
	.st3{fill:none;stroke:#9A321E;stroke-width:1.0371;}
	.st4{fill:none;stroke:#9A321E;stroke-width:1.1245;}
	.st5{fill:none;stroke:#9A321E;stroke-width:1.1208;}
	.st6{fill:none;stroke:#9A321E;stroke-width:0.9942;}
	.st7{fill:none;stroke:#9A321E;stroke-width:1.0452;}
	.st8{fill:none;stroke:#9A321E;stroke-width:1.0439;}
	.st9{fill:none;stroke:#9A321E;stroke-width:0.9695;}
	.st10{fill:none;stroke:#9A321E;stroke-width:0.9574;}
	.st11{fill:none;stroke:#9A321E;stroke-width:1.0604;}
	.st12{fill:none;stroke:#9A321E;stroke-width:1.0637;}
	.st13{fill:none;stroke:#9A321E;stroke-width:1.0171;}
	.st14{fill:none;stroke:#9A321E;stroke-width:1.0755;}
	.st15{fill:none;stroke:#9A321E;stroke-width:1.0249;}
	.st16{fill:none;stroke:#9A321E;stroke-width:0.9397;}
</style>
<g>
	<path class="st0" d="M775,320.8c-192.2,28-157.8,17.9,0-48.2v0.2c-179.5,76.2-184.5,76.1,0,36.2v0.1
		c-184.7,40.2-123.2,29.6-566.1,71.3c499.8-47.1,499.9-47.2-1.2,0.5c501.1-47.7,501.1-47.7-0.1,0.1c501.3-47.9,501.3-47.9-0.1,0.7
		c501.4-48.7,498.9-55,11.4,28.8c487.5-83.9,487.4-83.9,0.8,0.7c486.4-84.7,486.3-84.7,1.4,0.1c423.7-74.1,368.3-68.5,553.9-82.2v0
		c-175.6,13.1-179.7,12.8,0,28.7v0.3c-159.6-13.3-180.8-14.7,0-39.9V320.8z"/>
	<path class="st0" d="M689.8,461.4c-63.6-130.5-63.7-154.4-88.5,0h3.5c30.3-158.3,20.4-129-96.2,0h0.1
		c134.2-147.2,126.5-149.2,71.5,0h0c55-148.5,42.9-84.2,54.9-368.2c-12.5,298.3-12.6,298.4,0.7-0.7c-13.3,299.2-13.3,299.2,0.2-0.1
		c-13.6,299.3-13.7,299.3,1.2-0.2c-15,299.5-25.9,298.8,49.9,2.8c-75.9,296-76,296,1.3,0.4c-77.4,295.5-77.4,295.5,0.4,0.8
		c-73.7,278.8-65.2,216.8-63.8,365.2h0c-1.2-146.2-8.6-147.9,64.8,0H689.8z"/>
</g>
<g>
	<path class="st0" d="M378.2,115.4c-139,154.9-94.4,111.6-204.1,198.1c109.7-86.5,117.1-83.9-41-14.4
		c159.7-70.2,160.1-84.1-1.8,74.8c160.1-159.5,139.5-152.7,110.7-36.5c28.6-115.1,35.9-112.5-40.7-14.3c76.6-98.2,32-54.9,203.9-198
		c-172,143.1-172,143.2,0.1-0.5c-172.1,143.7-172.1,143.7,0-0.1c-172.1,143.8-172,143.8-0.5-0.3c-171.5,144.2-166,146.2-25.2-9
		C239,270.4,239,270.4,378.9,115.1C239.1,270.4,239.2,270.4,378.2,115.4z"/>
	<path class="st0" d="M410.5,360.8C232.7,220.4,288.1,259.1,157.1,183.6c131,75.5,137.6,72.3-36.8,18
		c176.2,54.9,180.1,68.5-21.3-73.7c199.8,143,177.8,138.2,118.9,26c58.3,111.1,64.8,107.9-36.5,17.8
		c101.3,90.1,45.9,51.3,253.3,177.1C227.3,223,227.3,222.9,435,349.3c-207.6-126.4-207.6-126.4,0,0.1
		c-207.6-126.5-207.6-126.5-0.4,0.4c-207.2-126.9-202.2-129.3-22.5,11.2c-179.7-140.6-179.6-140.6-0.8,0.2
		C232.5,220.3,232.6,220.3,410.5,360.8z"/>
</g>
<g>
	<path class="st1" d="M444.6,8.7c-365.1,200.6-364.9,200.5-0.9,0h0c-298.2,164.5-281.9,159.7-410.1,210v-0.1
		c112.3-44.2,118.8-48.1,0-26v-0.6c106-20.1,112.2-17.2,0,38.6v-3.6c141.9-70.3,104.9-41.6,0,74.8v-0.2
		c120.9-135.7,135.7-145.1,0-60.3V241c127.5-80.2,93.9-60.1,471.6-219.5c-442,186.5-442,186.5,0.7-0.8
		c-442.7,187.4-442.7,187.4,0-0.1c-442.8,187.6-442.7,187.7-0.4-0.7C72.8,204.3,70.5,213.5,446.6,8.7h0
		C79.4,209.2,79.2,209.3,444.6,8.7L444.6,8.7z"/>
	<path class="st1" d="M35.1,8.7c129.5,219.8,106.9,188.3,119.8,0l0,0c-14.6,209.3-1.1,204.5-80.4,12.1
		c80,194.1,25.4,106.3,249.6,401.6C99.9,127,99.9,126.9,324,423.3c-224.1-296.4-224.1-296.4-0.1,0.1c-224-296.6-223.9-296.6-1,0.5
		c-222.7-297.2-211.8-299.6-50.1,11.3c-161.6-310.9-161.5-310.9-1.5,0c-159.8-310.8-159.7-310.8-1-0.7
		C116.6,134.1,163.1,207.2,33.6,48.6l0,0c112,137.2,134.5,153.7,0,64.3v0.6c124.5,84,117.5,77.3,3.8-104.9L35.1,8.7z"/>
</g>
<g>
	<path class="st0" d="M437.8,24.6c48.5,34.5,20,28-78.2,0h2.1c115.1,32.2,130.7,35.2,63.9,0h0.7c81.1,42.7,95.8,59.3,336.5,241.4
		C425.7,11,425.6,11,764.2,266.5C425.5,11,425.5,11,764.5,266.5C425.4,11,425.3,11,765.7,266.2C434.5,18,417.1,15.7,775,226.5v0
		C426.8,22,426.6,22,775,225.4v0c-348.4-203.3-348.2-203.2,0-0.5v0C535.9,86,502.2,69.3,444.7,24.6h0.3c32.4,25,38.7,25.9,24.4,0
		h0.7c10.5,21.5,2.2,22.1-35.5,0H437.8z"/>
	<path class="st0" d="M522.8,24.6c-44.3,28.2-26.5,27.5,84.3,0h-11.8C424.5,67.8,511.5,57,775,55.8l0,0
		c-323.6,1.5-353,8.3-125.4-31.2h-0.4C443.5,60,509.3,45.7,77.5,177.8c486.8-148.9,487-148.9-1.6,0c488.6-148.9,488.6-148.9-0.2-0.1
		c488.9-148.8,489-148.8-0.9-0.6c488.5-147.7,494.6-141.7-17-30.4l0,0C568,35.9,568,36,57.8,145.9l0,0c510.5-109.9,510-109.8,0-0.4
		C453.2,60.7,456.1,63.6,574.2,24.6h-0.4c-85,27.9-99.5,30.8-49.6,0H522.8z"/>
</g>
<g>
	<path class="st0" d="M527.4,359.4c70.9-190.7,44.9-136.3,118.9-248.5c-74,112.1-83.2,110.7,51.3,8.3
		c-135.9,103.4-129.3,118.3-35.8-80.6C570.6,237.9,589.2,227,561.3,97.2c27.5,128.5,18.4,127,50.9,8.2
		c-32.6,118.8-6.6,64.5-118.8,248.3c112.3-183.8,112.2-183.9,0.1,0.6c112.1-184.5,112.1-184.5,0.1,0.1
		c112-184.6,111.9-184.6,0.7,0.3c111.2-184.9,104.3-186,31.6,5.3c72.6-191.3,72.5-191.3,0.9-0.1
		C598.4,168.6,598.3,168.6,527.4,359.4z"/>
	<path class="st0" d="M775,277.9c-237.7-98.9-208-91.9-95,12c-118.7-109-124.1-104.4,30.1-25.6c-154.3-78.8-75.2-47-361.3-145.6
		c286.1,98.6,286.2,98.6-0.5-0.5c286.7,99.1,286.7,99.1,0-0.1c286.7,99.2,286.7,99.3,0.2-0.5c286.5,99.8,282.4,103.3,18.5-16
		c263.8,119.3,263.8,119.3,0.8-0.3c262.9,119.6,262.8,119.6,0.9,0.1c261.8,119.5,182.7,87.6,361.5,145.7
		c-178.8-58-184.2-53.4,30.4-25.8c-204.6-26.3-226-40.3,14.3,56.8L775,277.9L775,277.9z"/>
</g>
<g>
	<path class="st0" d="M395.5,461.4c-120.6-135.7-90-105.3,100.4-9.8c-220.9-110.8-215.3-116.7-74,9.8h0
		C283.7,337.7,335,397,166.8,159c172.4,243.9,172.5,243.9-1-0.5c173.5,244.4,173.5,244.4-0.2,0c173.8,244.4,173.9,244.5-1.1,0.1
		c175.1,244.3,183.7,241.8-39.6,11.7c223.5,230,223.5,229.9-0.8,0.6c224.4,229.3,224.4,229.2,0.1,0.7
		C336.6,388,295.7,338.2,375.5,461.4l0,0c-76.2-117.6-73.8-123.9-55.5,0h-0.2c-17.5-110.4-26.1-123.7,79,0H395.5z"/>
	<path class="st0" d="M57.8,382c331-24.3,281.6-18.3,21.5-59c287.1,44.9,285.4,37.5,9.5,41.7c276-4.3,147.8,6.5,585.9-49
		c-438.2,55.5-438.3,55.4,1.2,0.2c-439.6,55.2-439.6,55.2,0.2,0.1c-439.8,55.1-439.8,55.1,0.5,0.6c-440.3,54.4-441.7,48.8,6.2,25.9
		c-447.9,22.8-447.9,22.8-0.3,0.7c-447.5,22-447.4,21.9-1.1,0.4c-446.2,21.5-318,10.8-586.2,49c268.3-38.2,266.6-45.7,9.5,42
		c232.7-79.5,283.1-81.4-46.8-53.6L57.8,382z"/>
</g>
<g>
	<path class="st0" d="M57.8,111.3c316.6,10.1,267.3,6.5,22.2,56c272.2-54.9,271.4-47.6,4.4-40.7c267.1-6.9,142.1-12.1,571.6,24
		c-429.7-36.1-429.7-36.1,1.2-0.2c-431-35.8-431-35.8,0.1-0.1c-431.1-35.7-431.2-35.7,0.4-0.6c-431.6-35-432.3-29.5,3-25.3
		c-435.3-4.2-435.3-4.1-0.4-0.7c-434.8-3.4-434.7-3.3-1.1-0.3c-433.5-3-308.4,2.2-571.9-24c263.5,26.2,262.8,33.6,4.4-41
		c232.7,67.2,282.3,67.3-33.8,53.9V111.3z"/>
	<path class="st0" d="M295.7,38.6c-3.9,88.8-6.1,99.2,64.4,0h-3.6c-81.5,110.3-56.4,85.6,90.3,0h-0.1
		c-169.6,98.4-169.8,104.2-69.5,0h-0.1c-97.4,100.8-65.9,59.7-193.9,283.6c138.6-242.5,138.7-242.5-0.9,0.5
		c139.6-243,139.6-243-0.2,0c139.8-243.1,139.9-243.1-1.1,0c141.1-243,149.7-240.9-39.6-9.8c189.5-231.1,189.5-231-0.9-0.5
		c190.5-230.5,190.5-230.4,0-0.7C312.3,104.8,290,139.7,341.6,38.6h0c-48.9,95.7-48.4,99.6-45.4,0H295.7z"/>
</g>
<g>
	<path class="st0" d="M694.3,38.6c-22.1,141.8-25.4,121.3-84.8,0h0.3c68.9,137.2,64.6,135.7,61.5,0h0.1c3.7,139.1,10,87.6-78,376.3
		c96.5-316.6,96.4-316.6,0.4,0.9c95.9-317.5,95.9-317.5,0.1,0.1c95.7-317.7,95.6-317.7,1.2,0.3c94.3-318.1,82.5-318.8,53.7,3.4
		c28.7-322.2,28.5-322.2,1.5-0.3c26.9-321.9,26.9-321.8,0.7-0.8c23.9-294.4,11.7-241,61.9-379.9h0C664.2,174.4,659,175.4,775,45.9
		v0.4c-100.2,113.6-110.6,134.4-84.8-7.7L694.3,38.6z"/>
	<path class="st0" d="M309.4,38.6c431.7,134.6,432.2,134.8,2.8,0h0c428.7,134.6,428.6,134.7,1.3,0h-0.1
		c335.5,106,335,108.8,461.5,134.3v-0.1c-108.5-22-112.1-24.7,0-21.5v-0.6c-98.8-3.1-106.7,0.5,0,30.8v-2.9
		c-123.2-33.3-101.8-19.6,0,44.4v-0.6c-116.1-74.2-121.8-78.4,0-34.2v-0.2C647.4,141.2,658.3,148.1,249.2,57
		c510.4,113.6,510.4,113.7-1.1-0.7c511.5,114.4,511.5,114.4-0.1-0.1c511.6,114.6,511.6,114.7,0.1-0.8
		C745.6,167.8,754.6,176.8,309.4,38.6L309.4,38.6z"/>
</g>
<g>
	<path class="st0" d="M459.6,461.4C309.7,298,314.7,315.3,481.2,396c-170.8-82.8-162.4-85.4-46.9,14.8
		c-115.5-100.2-70.8-49.9-204.2-230.1c133.4,180.2,133.5,180.3-0.7-0.4c134.3,180.6,134.3,180.6-0.1,0
		c134.5,180.6,134.6,180.7-0.8,0.1c135.4,180.6,141.8,178.6-29.3,9c171.2,169.5,171.2,169.5-0.6,0.4c171.8,169,171.8,169,0.1,0.6
		c171.7,168.4,127,118,204.4,230.2c-77.3-112.2-68.9-114.9-47.2,14.9c-21-126.5-42.6-138.5,104.2,25.9H459.6z"/>
	<path class="st0" d="M57.8,355.6c348-30.2,327.3-20.5,110.6-52.2c214.6,31.3,213.2,25.8,7.9,31c205.3-5.2,110.1,3.7,435-40.8
		c-324.9,44.5-325,44.5,0.9,0.1c-326,44.3-326,44.3,0.1,0c-326.1,44.2-326.2,44.2,0.4,0.4c-326.5,43.7-327.7,39.5,5.2,19.2
		c-332.9,20.3-332.8,20.2-0.2,0.5c-332.6,19.6-332.5,19.6-0.8,0.3c-331.6,19.3-236.4,10.4-435.3,40.8c198.9-30.4,197.4-36,8,31.2
		C380.9,318.4,405.5,324,57.8,355.6L57.8,355.6z"/>
</g>
<g>
	<path class="st2" d="M422.1,42.8c136.8,98.4,98.9,75.7-97.9,23.6C552.8,127,552.6,134.3,398,47.1l0,0
		c149.1,83.9,92.3,42.6,302.9,230.6c-219.3-195.8-219.4-195.8,1,0.3c-220.4-196-220.5-196.1,0.2,0c-220.7-196-220.8-196,1-0.3
		C481.3,82,473.8,86.1,737.1,259c-263.4-172.9-263.4-172.8,0.6-0.7c-264.1-172.1-264.1-172-0.3-0.7C492.5,98.5,536,132.9,439.7,39.7
		l0,0c91.2,88.1,91.7,93.9,48.9-8.7l0.3-0.1c39.5,91.5,47.4,100.7-70.1,12.5L422.1,42.8z"/>
	<path class="st2" d="M785.1,36.8c-341.7,98.3-303.9,82.4-42.6,70.1c-277.7,13.1-274.4,19.7-18.9-37.3
		C468.2,126.7,584.7,92,191,228.3c393.8-136.4,393.9-136.4-1.2,0.1c395.1-136.4,395.1-136.4-0.2,0C585,92,585.1,92,189.1,227.9
		C585.1,92,587.7,97.1,177,204.8c410.8-107.6,410.7-107.5,0.1-0.7c410.6-106.7,410.5-106.7,0.9-0.6C587.5,97.4,471,132.1,711,44.6
		C471,132.1,474.4,138.9,692,7c-204.7,124.1-246.8,131.6,93.2,30.4L785.1,36.8L785.1,36.8z"/>
</g>
<g>
	<path class="st0" d="M409.9,38.6c63.1,93.7,75.4,100.8-83.7,0h2.5c176.7,107.8,145.5,88-55.1,35.3c228,59.9,220.2,64.3,43.5-24.3
		c176.7,88.6,102.5,41.8,339.3,214.3c-236.9-172.6-237-172.6,1,0.3c-238-172.9-238-172.9,0.2,0c-238.3-172.9-238.3-172.9,0.8-0.2
		c-239.2-172.6-245.2-169.3,27.3-15c-272.5-154.3-272.6-154.2,0.4-0.6c-273-153.6-273-153.5-0.4-0.6
		C417.8,97.4,485.1,140.3,353.1,38.6l0,0c123.4,95,125.6,104.3,56.6,0H409.9z"/>
	<path class="st0" d="M586.9,38.6c-165.6,102.1-187.8,98.6,168.7,4.3c-364,94.5-346.5,80.3-94.4,76.5
		c-249.6,3.8-245.2,9.6-24.4-32.3C416,129,515,102.5,184.1,208.4c331-105.9,331.1-105.8-1.1,0c332.3-105.9,332.3-105.9-0.1,0
		c332.5-105.8,332.5-105.8-0.6-0.4c333.2-105.3,336.6-101-15.4-20c352.1-80.9,352-80.8,0-0.6c352-80.2,352-80.1,0.7-0.5
		c351.2-79.6,252.1-53.1,453-121.3C423.1,132.5,423.9,139.4,586.9,38.6C586.9,38.6,586.9,38.6,586.9,38.6z"/>
</g>
<g>
	<path class="st0" d="M652.4,38.6C602.7,224,614.9,200.3,559.8,60c59.4,151.5,48.2,150.4,62.5,6.1c-14.3,144.2,5.5,77.5-90.5,305
		c96-227.6,96-227.7,0.2,0.6c95.7-228.3,95.7-228.3,0.1,0.1c95.5-228.4,95.5-228.5,0.9,0.3c94.5-228.8,86.1-229.6,38.8,4
		c47.2-233.6,47.1-233.6,1.1-0.1c45.9-233.4,45.8-233.4,0.6-0.6c45.2-232.8,25.4-166,90.6-305.2c-65.2,139.2-76.5,138.1,63,6.2
		c-129.2,122.1-130.7,146.9-75.8-37.9H652.4z"/>
	<path class="st0" d="M775,190.7c-183.1-13.4-205.5-20.2,0,45.4v-1.5c-218.9-73.1-175.3-58-33.6,46.9
		C577.1,160,571.6,165.9,772.1,248.9c-200.5-83.1-99.6-50.7-461.5-147.8c362.1,97.2,362.1,97.2-0.7-0.5c362.9,97.8,362.9,97.8,0-0.1
		c362.9,97.9,362.9,97.9,0.2-0.6c362.7,98.6,358.6,103,18.8-20.4C668.5,203,668.4,203,329.6,79.1c338.7,123.9,338.6,124,1.1,0.1
		C659,199.7,572.2,172.3,775,222.7l0,0C581.1,174.5,569.3,176.4,775,190.7L775,190.7z"/>
</g>
<g>
	<path class="st0" d="M400.2,466.7c-52.6-114.7-68.8-126.2,89.9,0h-2.4c-173.3-132.5-144.1-108.8,64.9-36.5
		c-236.4-81.8-227-86-52.5,23.4c-174.4-109.4-103.1-52.9-325.8-258.2c222.7,205.4,222.8,205.4-1-0.3c223.9,205.7,223.9,205.7-0.2,0
		c224.2,205.8,224.2,205.7-1,0.2c225.3,205.5,232.5,202.4-32.8,14.4c265.4,187.9,265.4,187.9-0.6,0.6
		c266.1,187.2,266.1,187.2,0.3,0.7c263.9,185.2,195.3,130.7,323.4,255.9l0,0c-121.2-118.5-119.8-128.3-62,0H400.2z"/>
	<path class="st0" d="M63,421.5c372.1-68.1,342.1-55.4,76.1-68.8c273.1,13.8,269.5,7.2,19.9,37c249.6-29.9,136.1-8.1,519.1-99.7
		c-383.1,91.7-383.2,91.6,1.2,0.1c-384.4,91.6-384.5,91.6,0.2,0.1c-384.7,91.5-384.7,91.5,0.6,0.5c-385.4,90.9-388.1,85.9,12.7,22.9
		c-400.8,62.9-400.8,62.9-0.1,0.7c-400.7,62.1-400.6,62.1-0.9,0.4c-399.6,61.6-286,39.8-519.4,99.8c233.4-60,229.8-66.7,20.1,37.3
		C396.6,350.3,433.6,350.6,63,421.2V421.5z"/>
</g>
<g>
	<path class="st2" d="M488.4,31c66.3,52.5,40.4,45.9-73.1,13.1l1.2-0.2C548.1,81,557.6,82.8,473.4,33.7l0.4-0.1
		c91.1,52.7,84.4,54.6,299.8,254.3C497.2,31.6,497.1,31.6,775,288.2c-278-256.6-278-256.6,0.2,0c-278.3-256.6-278.4-256.6,1.3-0.4
		c-279.8-256.2-289.5-251,44.4-23.7c-334-227.1-334.1-227.1,0.8-0.9c-334.9-226.1-334.9-226-0.3-0.9
		C567.9,91.8,557.7,90.3,496.9,29.5l0.2,0c47.3,47,52.9,47.9,32.9-5.9l1.1-0.2c17.6,47.1,11.3,51.6-47.3,8.5L488.4,31z"/>
	<path class="st2" d="M662.8-0.2c-147,84.8-148.2,86.1,117.3,9.4l-0.4-2c-307,85-259.1,72.9,11,61.6l0,0
		c-306.6,12.2-299.7,17.5-8-44.6l0,0c-296.5,63-167.4,26.4-664.6,193.6c511.6-171.9,511.7-171.9-1.5,0.1c513.3-172,513.3-172-0.2,0
		c513.6-171.9,513.7-171.9-0.8-0.6C630.2,46,633.4,52.6,100.9,187.1c532.6-134.5,532.5-134.4,0.2-1c532.3-133.3,532.2-133.3,1.2-0.7
		C623.4,55.4,487.2,95,777.1-8c-251.2,89.2-281.9,106.4-113,7.6L662.8-0.2z"/>
</g>
<g>
	<path class="st0" d="M460.1,38.6c83.3,150.1,78.8,131.1-49.8,41.3c136.9,95.7,128.2,97.4,48.7-9.1
		c79.6,106.5,52.2,54.4,125.1,238.3c-72.9-184-73-184,0.6,0.4c-73.6-184.4-73.6-184.4,0.1,0c-73.8-184.5-73.9-184.5,0.8,0
		C510.9,125,504.3,126.2,616,304c-111.7-177.7-111.8-177.7,0.7-0.3c-112.5-177.3-112.6-177.2,0.1-0.5
		C504.1,126.4,531.5,178.6,491.5,64.7c40,113.9,31.2,115.6,49-9.2c-16.8,117.1-1.8,134.1-81.2-16.9H460.1z"/>
	<path class="st0" d="M775,160.9c-313-6.9-287.1-12.4-96.4,38.5c-193.6-51.6-193.8-46.2,1.6-30.1c-195.5-16.1-103-14.8-423-6.1
		c320.1-8.7,320.2-8.7-0.8-0.2c321-8.5,321-8.5-0.1-0.1c321.2-8.4,321.2-8.4-0.2-0.4c321.4-7.9,321.2-3.8,0.8-18.7
		c320.5,15,320.4,15,0.4-0.5c320,15.5,319.9,15.6,0.8-0.2c319,15.7,226.4,14.4,423.2,6.1C484.5,157.6,484.2,163,683,119
		C487.1,162.5,461.8,156,775,161V160.9z"/>
</g>
<g>
	<path class="st0" d="M371.3,16.6c85.6,98.6,102.6,104.2-98.1,0h1.8c215.2,107.9,188.1,90.9-22,49.8c228.9,44.9,222.2,49.5,38-25.8
		c184.2,75.4,105.3,34.4,360.8,187.2c-255.6-152.8-255.7-152.8,1,0.2c-256.8-153-256.8-153,0.2,0c-257-153-257-152.9,0.8-0.3
		C395.9,75,390.7,78.5,677.6,211.7c-286.9-133.2-286.9-133.1,0.3-0.6c-287.3-132.5-287.3-132.4-0.5-0.5
		C390.7,78.7,469.7,119.7,316.4,23.2C461.4,114.5,463.1,123.6,371.3,16.6L371.3,16.6z"/>
	<path class="st0" d="M546.4,16.6C408.7,120,386.6,119.7,691,16.6h-0.4c-313.1,103.7-294.1,89.3-57.4,71.9
		c-239.4,17.6-234.3,22.9-28.7-29.7c-205.7,52.7-114.7,21.6-416,141.9c301.4-120.3,301.5-120.3-1,0.1c302.6-120.4,302.6-120.4-0.1,0
		c302.8-120.3,302.8-120.3-0.7-0.3C490.3,80.5,494.2,84.5,168.7,182c325.6-97.5,325.6-97.4-0.1-0.6c325.7-96.8,325.7-96.7,0.6-0.5
		c324.9-96.2,233.9-65.1,416.2-142C407.3,114,408.1,120.9,546.4,16.6L546.4,16.6z"/>
</g>
<g>
	<path class="st0" d="M529.7,49.7c51.9,161,53.4,143.2-54.7,44.6c113.2,103.4,104.3,104.3,49.3-5.3c55,109.6,39.4,56.8,71.5,241.4
		c-32.1-184.6-32.2-184.6,0.5,0.4c-32.7-185.1-32.7-185.1,0.1,0c-32.9-185.2-32.9-185.2,0.8,0.1c-33.7-185.2-40.5-184.5,30.7-3.2
		c-71.2-181.4-71.3-181.4,0.8-0.3c-72.1-181-72.1-181,0.2-0.5c-72.3-180.4-56.7-127.6-71.5-241.5c14.8,114,6,114.9,49.7-5.4
		c-41.8,114.8-29.7,131.1-77.9-30.4C529.2,49.7,529.7,49.7,529.7,49.7z"/>
	<path class="st0" d="M806.2,199.4c-296.2-29.1-268.8-32-95.1,31.1c-177.7-64.5-179.1-59.3,8-29.2c-187.1-30.1-97.2-22-410.9-37
		c313.8,15,313.8,15.1-0.8-0.3c314.6,15.4,314.6,15.4-0.1-0.1c314.7,15.5,314.7,15.5-0.1-0.4c314.9,16,313.8,20,4.7-18.2
		c309.1,38.2,309,38.2,0.5-0.5c308.5,38.7,308.4,38.7,0.9-0.1c307.5,38.8,217.6,30.7,411.1,37.1c-193.6-6.4-195-1.1,8-29.4
		c-198.6,27.7-223,19.9,73.8,47.1V199.4z"/>
</g>
<g>
	<path class="st0" d="M495.7,461.4C322.1,358.1,375.5,384.1,615,444.6c-281.5-71.2-285.8-79.7-86.4,16.7h0
		c-190.7-92-117.1-48.2-412.5-257.2c310.5,219.6,310.6,219.7-1.3-0.3c312,220,312,220-0.2,0c312.2,220,312.3,220-1.1,0.3
		C427,423.8,434.6,419.5,78.9,223.8c355.8,195.7,355.8,195.6-0.6,0.7c356.4,194.8,356.3,194.7,0.5,0.8
		c319.7,174.3,273.7,143.8,395.6,236.1h0c-111.1-84-117.3-90.9-54.4,0h-0.7c-58-81.9-60-86.7,81.4,0H495.7z"/>
	<path class="st0" d="M264.1,461.4c145.5-90.4,147.9-87.3-165.8,0h3.3c353.8-94.3,310.5-78.2,13-71.1
		c321.2-7.7,315.4-15.1,32.4,41.3c283-56.4,156.3-21.2,579.2-161.1c-423,139.9-423.1,139.9,1.4,0c-424.5,139.9-424.5,139.9,0.2,0
		c-424.8,139.9-424.8,139.8,0.8,0.5C302.8,410.3,298.3,404.7,749,296.6c-450.8,108-450.7,107.9,0.1,0.8
		c-450.8,107.1-450.7,107-0.9,0.6c-449.7,106.4-322.9,71.1-579.5,161.2c229.3-80.5,249.1-95,95,2.2H264.1z"/>
</g>
<g>
	<path class="st0" d="M496.6,466.8c-153.4-91.4-89.1-63.2,154.7-2.2C365.6,393,345.8,381,525.6,466.8h-0.2
		C361.7,389,414.3,418.2,115.1,208c334.1,234.7,334.2,234.8-1.4-0.3c335.7,235.1,335.7,235.1-0.2,0c336,235.1,336.1,235.1-1.1,0.3
		c336.3,234,345.4,230.1-33.5,23l0,0c377.7,206.3,377.9,206.3,0,1.1l0,0c377.9,205.1,377.7,205,0,0.5l0,0
		c319.9,173.2,295.5,155,400.6,234.3h-0.1c-92.6-69.6-100-74.6-48.2,0h-1c-47.5-67.1-44.1-70.5,72.5,0H496.6z"/>
	<path class="st0" d="M301.6,466.8c119.5-74.6,113.1-72.5-144.3,0h6.4c309.6-83,250.9-67.1-49.2-59.5c344.2-8.9,338-16.8,35,44.2
		c303-61.1,167.4-23,619.7-173.9c-452.4,150.9-452.6,150.9,1.5-0.1c-454.1,150.9-454.1,150.9,0.2,0.1
		c-454.4,150.8-454.5,150.8,0.9,0.5c-455.4,150.2-460.3,144.2,22.1,27.4c-482.4,116.7-482.4,116.6,0.1,0.9
		c-482.4,115.7-482.4,115.6-1,0.6C337.3,416,434.8,387.7,213.3,466.8h0c194.4-69.4,214.6-80.7,87.4,0L301.6,466.8L301.6,466.8z"/>
</g>
<g>
	<path class="st0" d="M233.7,176.3C345.5,341.5,318,292.6,359.4,399.5c-41.4-106.9-33.2-108.5-45.9,9.2c12.9-119-5.1-128.2,96.9,50
		c-104-177.8-108.6-164,25-74.4c-132.1-88.7-124-90.3-45.5,9.1c-78.4-99.4-51-50.6-125.6-223.1c74.7,172.5,74.8,172.5-0.6-0.4
		c75.4,172.9,75.4,172.9-0.1,0c75.5,173,75.6,173-0.7,0c76.4,173,82.6,171.7-28.4,5.6c111.1,166.2,111.1,166.1-0.6,0.3
		C345.5,341.6,345.6,341.5,233.7,176.3z"/>
	<path class="st0" d="M576.8,322.9c-301.1-11.2-213.8-11-399-0.9c185.2-10.1,185.3-15.2-0.6,28.6c187.7-44.3,208.3-37.1-110.7-38.7
		c318.9,2.9,298.1,9.8,112.2-37.1c184,46.4,184.1,41.4-0.6,28.4c184.7,13,97.5,12.8,398.7,0.9c-301.3,11.8-301.4,11.8,0.8,0.2
		c-302.2,11.6-302.2,11.6,0.1,0.1c-302.3,11.5-302.3,11.5,0.2,0.4c-302.6,11-302.5,7.2-0.1,17.6c-302.4-10.5-302.4-10.5-0.3,0.5
		C275.6,311.7,275.7,311.6,576.8,322.9z"/>
</g>
<g>
	<path class="st0" d="M804.1,345.7c-259.5,8.1-213.2,4.6,0-53.1v0c-243.1,66.3-244.4,61.6,0,39.2v0
		c-244.5,22.5-138.2,19.5-594.7,10.1c477.4,9.8,477.5,9.8-1.2,0.3c478.8,9.4,478.8,9.4-0.1,0.1c478.9,9.3,479,9.2-0.3,0.7
		c479.3,8.5,479,2.4,1.7,27.9c477.3-25.5,477.2-25.6,0.6,0.7c476.5-26.4,476.4-26.4,1.3,0.3c453.2-25.5,348.5-24,592.9-14.7l0,0
		c-242.3-9.2-243.6-13.8,0,37.8v0.1c-214.3-44.8-256.8-45.9,0-51.2L804.1,345.7L804.1,345.7z"/>
	<path class="st0" d="M628.2,456.1c-16.5-116-12-132.8-78.9,0h3.5c76.5-143,55-112.1-100.7,0h0c179.6-128.9,174.9-134.3,76.6,0h0
		c96.2-131.1,65.5-73.3,163.8-334.7c-103.4,274.9-103.5,275,0.9-0.6c-104.4,275.6-104.4,275.6,0.2-0.1
		c-104.7,275.7-104.8,275.7,1.2,0c-106,275.7-116,274,45.3,7.9c-161.4,266-161.5,266,1.1,0.5c-162.6,265.4-162.6,265.3,0.1,0.8
		C589.2,377,613.5,325.2,571.4,456.1h0c40.8-126.5,36.5-130.7,56.5,0H628.2z"/>
</g>
<g>
	<path class="st0" d="M614,34.6c14.9,144.2,8.9,118.3-85.2,0h0.1c108.2,134.9,100.7,135.8,63,0h0c37.9,135.8,32.2,76.8,20.7,331.3
		c12-266.4,12-266.4,0.6,0.7c11.4-267.2,11.3-267.2,0.1,0.1c11.1-267.3,11.1-267.3,1.1,0.2c9.9-267.5,0.1-267.2,44.7-1.2
		c-44.7-266-44.8-266,1.2-0.3c-46-265.6-46.1-265.6,0.4-0.7c-44.3-252.3-41.2-194.4-28.3-330.1l0,0c-12.8,134.4-20.1,135.3,60.2,0
		h0.1c-69.7,119-71.2,142.4-81.7,0L614,34.6L614,34.6z"/>
	<path class="st0" d="M787.7,131.7c-179.9,9.7-205.9,7.8,0,42.8v-2c-221.2-39.9-174.6-28.4,0,54.2v0c-200.3-95.3-208.3-93,0-41.2v0
		c-203.7-50.9-116.2-35-532.8-87.3c442.1,55.5,442.2,55.6-1-0.5c443.2,56.1,443.2,56.1-0.1-0.1c443.3,56.2,443.3,56.3-0.1-0.6
		c443.4,57,440.6,62.5,12.4-25.4c428.2,88,428.1,88,0.8-0.6c427.2,88.6,427.1,88.7,1.3-0.1c394.4,82.2,315.7,69.9,519.5,91.6v0
		c-196.5-21-202.7-18.9,0-30.7V131.7z"/>
</g>
<g>
	<path class="st2" d="M576.5,9.1c50.3,69.9,30.4,61.7-67,12l1.1-0.2c112.6,56.4,118.2,57.5,50.5-9l0.4-0.1
		c74.3,72.3,64.3,69.3,205.9,315.8c-178.6-311.1-178.7-311.1,1.1,0.6c-180-311.7-180-311.7,0.2,0C588.5,16.5,588.4,16.5,770.2,328
		C588.2,16.6,576.8,20.7,822.3,309c-245.6-288.2-245.7-288.2,1.1-0.8c-246.9-287.2-246.9-287.2,0-1C630.8,84,626.6,87.4,585.8,7.5
		l0.2,0c34.4,66.9,38.7,67.7,37.8-6.8l1.1-0.2c1.3,65.4-4.7,72.7-53.1,9.5L576.5,9.1z"/>
	<path class="st2" d="M791.4-5.4C607.1,68,576,77.7,800.2,43.8l-0.5-2.7c-227.3,32.9-191,32.8,9.1,51.1l0-0.3
		c-227-21.9-227.9-20.3-6.7-37.6l0-0.1c-225.4,17.3-149.8,8.1-652.3,106.9c564-110.9,564.1-110.9-1.5-0.1
		c565.7-110.7,565.7-110.7-0.2-0.1c565.9-110.6,566-110.5-0.5-0.7c566.5-109.7,567.3-102.3-3.7-34c571-68.1,571-68.1,0.5-1
		c570.3-67,570.2-66.9,1.4-0.6C651.1,65.7,577.8,78.9,797.9,31l0,0c-213.7,46.4-214.6,48-6.4-36L791.4-5.4z"/>
</g>
<g>
	<path class="st0" d="M457.4,38.6c-361.8,172.2-361.7,172.1-0.9,0h0C170.1,175.6,173.9,177,57.8,216v-0.1
		c99.5-33.6,104.3-37.1,0-22.3V193c92.5-13.4,98.1-9.9,0,32.7v-3.2c122-51.7,94.8-30.6,0,58.1v-0.4c108.5-103.2,118.6-110.4,0-46.3
		v-0.2c116.4-63.5,98.4-51.9,470.4-186.6C75.5,211,75.5,211.1,529,46.4c-453.5,164.8-453.5,164.8,0-0.1
		c-453.6,165-453.6,165-0.4-0.7C90,206,82.3,216.3,459.4,38.6h0.1C95.5,210.7,95.3,210.8,457.4,38.6L457.4,38.6z"/>
	<path class="st0" d="M77.7,38.6c91.1,187.4,78.2,160.6,105,0h-0.1c-31.3,181.9-20.6,175.6-75,0l0,0c55.7,180.1,14.6,99.7,202.8,388
		c-190.8-292.3-190.7-292.4-0.1,0.9c-190.5-293.3-190.5-293.3-0.1,0.1C119.7,134.1,119.8,134,309,428
		c-189.1-294-178.1-295.9-50.3,9.1C131,132,131.2,132,257.3,437c-126-304.9-125.9-304.9-1-0.7C133.7,137.8,174.7,215.7,57.8,50.2
		c99.7,141.1,122.9,160.3,0,69.7v0.7c107.4,80.4,105.5,76.5,22.9-82L77.7,38.6z"/>
</g>
<g>
	<path class="st0" d="M775,274.8c-193.6,15.8-218.1,25,0-47.6v1.2c-225.4,78.4-185.9,65.7-50.7-38.1
		c-152.5,117-157.9,111.5,30.1,30.7c-188,80.8-93.1,49.1-433.9,144.9c340.9-95.8,341-95.8-0.7,0.5c341.6-96.4,341.6-96.4,0,0.1
		c341.7-96.5,341.7-96.5,0.2,0.5c341.5-97.1,337.5-101.3,18.4,19.2c319-120.5,318.9-120.6,0.8,0.4c317.9-121,317.9-121,1.1-0.1
		c316.7-120.9,221.7-89.2,434.2-145C570.8,295,557.3,292.1,775,274.8L775,274.8L775,274.8z"/>
	<path class="st0" d="M658.6,461.4c-66.4-217.6-48.7-201.9-100.4-59c52.1-144.4,41.5-143.2,59.2-6.5c-17.7-136.8,3-73.6-94.5-288.6
		c97.6,215.1,97.5,215.1,0.2-0.6c97.3,215.8,97.3,215.8,0.1-0.1c97.1,215.9,97.1,215.9,0.8-0.3c96.2,216.2,88.2,217.1,36.7-4.2
		c51.4,221.3,51.3,221.3,1,0.1c50.1,221.1,50.1,221.1,0.6,0.5c49.5,220.5,28.8,157.3,94.6,288.8c-65.8-131.5-76.5-130.3,59.6-6.5
		c-134.9-122.6-127.9-141-58,76.2H658.6z"/>
</g>
<g>
	<path class="st0" d="M142.2,461.4c31.1-185.4,28-155.1,103.3,0h-0.1c-86.6-176.4-75.5-174.1-75.2,0h0
		c-0.4-176.1-14.9-97.8,82.4-401.6c-100,312.1-99.9,312.2-0.4-0.9c-99.5,313.1-99.5,313.1-0.1-0.1c-99.2,313.2-99.1,313.3-1.2-0.3
		c-97.8,313.6-86.3,314.4-53-3.6c-33.1,318.1-33,318-1.5,0.2c-31.4,317.7-31.3,317.7-0.7,0.8c-30,310.3-13.3,229.2-78.3,405.5l0,0
		c61.9-168,75.9-174.9-59.6-27.3v-0.2c117.1-129.2,123.3-150.8,87.6,27.5H142.2z"/>
	<path class="st0" d="M57.8,319.4c112.2,4.3,121.8,1.4,0-33.4v3c139.8,39.2,113.7,24.2,0-48.6v0.4c129.6,84.3,136.6,88.2,0,37.5v0.2
		C196.4,330.3,172,320,587.3,415c-502.3-114.9-502.4-114.9,1,0.7C84.8,300,84.8,300,588.4,415.8c-503.5-115.8-503.5-115.9-0.1,0.8
		C84.9,299.8,89.8,293.6,565.5,445C89.9,293.5,90,293.5,564.3,445.6c-474.2-152.2-474.1-152.2-1.5,0
		c-380.3-122.4-363.2-120.9-505-150.2v0.1c122.2,25.4,126.6,27.8,0,23.3V319.4z"/>
</g>
<g>
	<path class="st3" d="M244,526.2c-51.9-145.6-33.5-115.7,94.8,11.4l-0.2,0c-148.2-145.5-146.5-150.2-71.9-8.6l-0.1,0
		C192.6,389.5,213,441.5,145,137.9c74.8,333.7,74.9,333.8-0.8-0.8C220,471.8,220,471.8,144,137c76.1,334.8,76.2,334.8-1.3-0.2
		c77.6,335,88.6,334.2-50.4,3.4c139.1,330.8,139.2,330.8-1.2,0.4c140.5,330.3,140.5,330.2-0.3,0.9
		c125.8,294.2,113.5,248.8,136.6,382.6l0,0c-22.2-127.3-20.4-130.8-53.1-6.4l-0.5-0.1c27.7-110.8,29.1-125.6,74.4,8.9L244,526.2z"/>
	<path class="st3" d="M3,440.6C222.7,418.5,263.4,421,9.7,385l-0.3,2.4c256,39.1,212.7,29.1,6.9-57.5l0,0.1
		c233.9,99.4,235.6,95.5-5.1,42.4l0,0c241.7,53.6,141.9,38,628.7,85.1c-520.3-50.3-520.4-50.4,1.3,0.5c-521.7-51-521.7-51,0.1,0.1
		c-521.9-51.2-521.9-51.2,0.3,0.8c-522.2-52.1-520.9-59.2-5.6,32.2c-515.3-91.5-515.2-91.6-0.7,0.8c-514.4-92.4-514.3-92.4-1.4,0.2
		c-478.8-86.4-380-73.6-625.9-92.5l0,0c242.8,18.8,244.4,14.9-4.9,41L3,440.6z"/>
</g>
<g>
	<path class="st4" d="M413.2,12C548,90.6,499.1,72.3,295.7,33l0.1,0c236.7,45.1,249.8,52.8,93.9-16.8l0.2,0
		c146.7,65,102.2,41.8,377.6,236.2C456.1,32.5,456,32.5,768.8,252.6c-312.9-220.1-312.9-220.1,0.2,0c-313.2-220-313.3-220,1.1-0.4
		C455.6,32.6,447.8,38.2,805.8,226.5c-358.1-188.2-358.1-188.1,0.6-0.9c-358.7-187.1-358.7-187.1-0.5-0.8
		C502.6,67.1,526.2,84.8,427.7,9.4l0.1,0c87.9,67,93.6,70.8,43.7-7.8l0.8-0.2c45.6,70.2,44.6,75.9-64.2,11.5L413.2,12z"/>
	<path class="st4" d="M621.7-25.3C470.9,92,470.3,87.4,799.9-45.2l-0.1-0.8c-375.2,146.4-333,123.8-26.6,86.7
		C445.8,80.3,451.5,88.2,741.1-3.2c-289.5,91.4-159.7,39.1-593.5,239c433.9-199.9,434-199.9-1.4,0.2c435.5-200,435.5-200-0.2,0
		c435.7-200,435.8-199.9-0.8-0.5C581.9,36,586.3,41.9,124.9,208.3c461.5-166.2,461.5-166.2,0-0.9c461.5-165.2,461.4-165.1,0.9-0.8
		C586.1,42.3,456.2,94.6,719.6-32.5c-235.1,113.5-255.7,132-97.3,7.2L621.7-25.3z"/>
</g>
<g>
	<path class="st5" d="M514.8,31.1c120,118,86.8,91.4-106.1,19l0,0c222.9,83.6,221.3,91,81.6-14.6l0,0
		c135.1,101.9,86.7,54,263.6,276.6c-185.5-233.5-185.6-233.5,1,0.4c-186.7-233.9-186.7-233.9,0.2,0c-187-233.9-187.1-233.9,1.1-0.2
		C567.8,78.7,558.8,82.5,797.5,294.8c-238.9-212.3-238.9-212.2,0.9-0.7c-239.8-211.4-239.8-211.4-0.1-0.8
		C575,97.2,613.8,139.3,533.3,27.8l0,0c77.2,106.8,75.2,112.2,54.5-9.7l0.3-0.1c19.7,108.3,27.8,121.5-76.9,13.7L514.8,31.1z"/>
	<path class="st5" d="M864.6,63.8c-347.5,68.7-295.9,55.9-22.1,64.9c-302.1-9.8-300.2-2.2-10.7-42.5
		C542.3,126.5,676.5,98.6,218,213.7c458.6-115.2,458.7-115.2-1.3,0c460.1-115.1,460.1-115.1-0.2-0.1c460.3-115,460.4-115-0.5-0.5
		c460.9-114.4,462.5-108.6-7-26.4c469.5-82.2,469.5-82.1,0.3-0.8c469.1-81.2,469-81.2,1.1-0.5c467.7-80.6,333.4-52.7,614.1-127.7
		c-280.7,75-278.8,82.7-10.8-42.9c-242.8,113.8-295.6,122.2,51,50L864.6,63.8z"/>
</g>
<g>
	<path class="st6" d="M553.6,34.9c-446.1,147.6-446,147.5-1.3,0l0,0C183.5,157.4,210.4,152.3,60,184.8v-0.1
		c134.7-29.2,140.1-31.3,0-24.5v-0.5c124.6-6.5,135.7-4.6,0,35.2V192c155.9-45.8,124.2-29.2,0,52.4v-0.3
		c141.9-94.6,150.7-98.2,0-40.6v-0.1C208.9,146.1,171,160,587.3,60.6c-488.5,116.6-488.6,116.6,1-0.7
		c-489.6,117.4-489.6,117.4,0.1-0.1c-489.7,117.5-489.7,117.6-0.2-0.7c-486.4,117.7-484.4,124.2-31.8-24.2h0
		C107.3,182.4,106.9,182.6,553.6,34.9L553.6,34.9z"/>
	<path class="st6" d="M130,34.9c63.5,150.4,72.3,150.3-69.9,7V42c123.3,125.5,134.1,152.3,95.3-7.1h-3.6
		c33.4,157.3,32.4,133.4,92.1,0h-0.2c-69.1,151.2-61.6,148.9-66.7,0h0c4.9,151.6-8.5,88.6,95.5,370.6
		c-109.9-298-109.8-298.1-0.4,0.8c-109.4-299-109.4-299-0.1,0.1c-109.2-299.1-109.1-299.1-1.1,0.3c-107.8-299.5-96.5-300.4-51.8,4.2
		c-44.5-304.6-44.4-304.5-1.5-0.2c-42.8-304.3-42.7-304.2-0.8-0.7C176.7,120.6,194.1,186.6,130,34.9L130,34.9z"/>
</g>
<g>
	<path class="st0" d="M586.5,136c-296.4-19.4-212.1-10.6-385.1-40c173,29.4,170.3,34.7,15-29.4C373.2,131.3,396.9,126,88.5,94.9
		c309,29.8,292.7,20.6,87.9,49.7c202.8-28.8,200.1-23.6,14.9-29.2c185.2,5.6,101-3.1,384.9,40c-284-43.1-284.1-43.1,0.9-0.1
		c-285-43-285-43,0.1,0c-285.1-42.9-285.2-42.9,0.5-0.4c-285.7-42.4-287.8-38.5,9.5-18.1c-297.3-20.3-297.3-20.3-0.1-0.5
		C290,116.5,290,116.6,586.5,136z"/>
	<path class="st0" d="M482.3-5.1c-179,155.4-170.8,139.3,1.3,63.5c-175.8,77.5-168.8,80-38.9-14.1
		c-129.9,94.1-76.8,46.8-242.9,216.3C368,91,368.1,91,201.1,260.9c167.1-169.9,167.1-169.9-0.1,0c167.3-170,167.3-170-0.7-0.1
		c168.1-169.9,173.4-168-24.3-8.6c197.8-159.3,197.8-159.3-0.4-0.4C373.7,93,373.7,93,175.7,251.3
		c198-158.2,144.8-110.9,243.1-216.5c-98.2,105.6-91.2,108.1-39.2-14.2c-50.9,119.7-73.5,130.7,103.1-25.9
		C482.7-5.2,482.3-5.1,482.3-5.1z"/>
</g>
<g>
	<path class="st7" d="M427.5,508.3C274.3,378,316.8,409,540.7,495.6c-261.1-101-259.5-108.9-83.4,12.7h0
		c-170.5-117.5-105.5-61.4-340.6-303.9c243.8,251.4,243.9,251.4-1.2-0.5c245.2,251.9,245.2,251.9-0.2,0
		c245.5,251.9,245.6,251.9-1.1,0.2C361,455.7,369.7,452.2,74.4,220.2c295.4,231.9,295.5,231.8-0.8,0.7
		c296.2,231.1,296.2,231,0.3,0.8C348.1,435,300.5,391,406.2,508.3h0c-99.2-109.9-100.5-117.2-57,0h-0.4c-40.4-105-47.3-114.8,82.8,0
		H427.5z"/>
	<path class="st7" d="M120.2,508.3c233.4-107.3,281.1-110.7-95-48v0.8c380.4-59.4,333.7-47.5,36.9-70.5
		c319.4,24.7,315.8,16.7,20.2,44.7c295.6-28,160.5-5.5,618-103c-457.7,97.6-457.8,97.5,1.4,0.1c-459.3,97.4-459.3,97.4,0.2,0.1
		c-459.5,97.3-459.6,97.3,0.7,0.6c-460.3,96.6-463.1,90.5,12.9,27.7c-476.1,62.8-476,62.7-0.2,0.8c-475.8,61.8-475.7,61.8-1.1,0.5
		c-474.5,61.2-339.2,38.7-618.4,103C373.4,401.1,371.3,392.8,120.2,508.3L120.2,508.3z"/>
</g>
<g>
	<path class="st8" d="M692.7,21.2c-21.2,171.2-18,141.7-99.7,0h0c93.6,161.6,81.4,160,73,0l0,0c8.6,161.2,19.7,87.2-56.2,354.5
		c76.7-270.4,76.6-270.4,0.4,0.7c76.1-271.2,76.1-271.2,0.1,0.1c76-271.3,75.9-271.4,1.1,0.3c74.7-271.6,64.1-272.2,48.4,2.3
		c15.5-274.5,15.4-274.5,1.3-0.2c14-274.2,13.9-274.1,0.6-0.7c13.2-271.5,1.2-195.6,54.8-357l0,0c-53.9,162.4-66.8,160.7,79.6,0.1
		c-127.7,140-133.7,174.4-106.2-0.1H692.7z"/>
	<path class="st8" d="M835.5,150.4c-176.3-4-197.2-6,0,41.9v-2.2c-220.1-55.8-169.2-38.8,0,59.8v0c-194.9-114.1-207.2-114,0-46.2v0
		c-199.6-65.6-115-43.7-546.7-129c462.6,91.4,462.6,91.4-1-0.6c463.6,92,463.6,92-0.1-0.1c463.7,92.2,463.7,92.2,0.1-0.7
		c463.6,93,459.3,98.4,19.4-24.8c439.9,123.3,439.8,123.3,1-0.5c438.6,123.9,438.5,123.9,1.4,0c397.5,112.7,325.9,96.7,525.9,132.2
		v0c-189.6-33.7-197.8-33.2,0-29.5V150.4z"/>
</g>
<g>
	<path class="st0" d="M57.8,223.7c282.6-57.6,254.5-57.6,100.9,21.8c157.5-81.3,160.4-76.3-16.2-28.1
		c176.6-48.2,89.9-31.3,396.1-77.1c-306.2,45.8-306.2,45.8,0.7-0.3c-307,46.2-307,46.2,0.1-0.1c-307,46.3-307,46.3,0-0.5
		c-307,46.8-304.9,50.7-9.8-17.5c-295,68.2-295,68.2-0.6-0.4c-294.3,68.7-294.2,68.7-0.9,0c-293.3,68.7-206.6,51.8-396.3,77.2
		c189.7-25.3,192.6-20.3-16.3-28.3c203.9,7.9,226.2-2.2-57.7,53.5L57.8,223.7L57.8,223.7z"/>
	<path class="st0" d="M287.3,38.6c-5.8,175.2-14.2,159.3,66.4,48.9C271,200.9,280,201,303.3,87.1c-23.4,113.9-22.8,60.1-2.3,245.9
		c-20.5-185.8-20.5-185.9-0.3,0.5c-20.1-186.4-20.1-186.4-0.1,0.1c-20-186.5-19.9-186.5-0.7,0.1c-19.1-186.6-12.3-186.6-31.3-0.1
		c19.1-186.5,19.2-186.5-0.8-0.2c20-186.2,20.1-186.2-0.3-0.5c20.4-185.7,19.9-131.8,2.3-246.1c17.6,114.2,26.7,114.3-50.7-0.4
		c75.4,111.7,66.3,127.5,68.6-47.8L287.3,38.6L287.3,38.6z"/>
</g>
<g>
	<path class="st9" d="M564.1,51.6c55.9,99.2,38.3,83.5-76,13.6l0.3-0.1C620,144.3,619.5,146.6,545.2,55l0.1,0
		c75.3,92.1,54.6,60.5,146,293.8c-103-262.9-103.1-263,0.9,0.5c-104.1-263.5-104.1-263.5,0.2,0C588.1,85.7,588,85.7,693.6,349.2
		C587.9,85.8,577.9,88.7,739.5,335.9c-161.8-247.1-161.8-247.1,1.1-0.6c-163-246.4-163-246.3,0.1-0.8
		C597.5,119,610.3,149.2,577.7,49.2l0,0c31.3,95.3,30.7,97.3,47.1-8.4l0.5-0.1c-13.3,93.6-13.9,106.5-65.3,11.7L564.1,51.6z"/>
	<path class="st9" d="M773.4,72.1c-181.8,58.3-212.2,64.4,7.7,43.2l-0.4-2.1c-228.4,19.9-186.2,19.6,8.7,48.6l0-0.1
		c-222.2-33.8-225.6-30.6-6.5-36.3l0,0c-218.4,5.4-131.8-1.6-578.8,59.9c482.8-66.4,482.9-66.4-1.2-0.2
		c484.2-66.2,484.2-66.2-0.1-0.1c484.4-66.1,484.4-66-0.3-0.6c484.7-65.4,484.3-59.2,1.9-28.1c482.5-31.1,482.4-31,0.6-0.8
		c481.7-30.1,481.6-30.1,1.3-0.4C647,127.9,565.5,137,779.1,103.6l0,0C571.1,136,568.2,139,773.4,72.2L773.4,72.1z"/>
</g>
<g>
	<path class="st0" d="M681.3,38.6c-46.4,176.6-38.2,147.7-96,0h0c66.1,168.1,53.9,164.7,69.7,0l0,0c-16,167,6.6,89.9-104.3,354.8
		c111.1-265.4,111-265.5,0.3,0.8c110.7-266.3,110.7-266.3,0.1,0.1c110.5-266.4,110.4-266.4,1,0.3c109.3-266.8,99.4-267.8,45.2,4.6
		c54.1-272.4,54-272.4,1.3-0.2c52.6-272.1,52.5-272.1,0.7-0.6c51.8-271.4,29-193.5,104.4-355.9C628.7,204,615.3,203.5,775,51.7l0,0
		c-139.8,133-148.7,164.8-96-13.1H681.3z"/>
	<path class="st0" d="M775,178.4c-141.7-10.6-155.6-11.3,0,38.6v-2.5c-179-59-136.3-39.6,0,59.8v0c-157-115.1-169.4-117.5,0-46.7
		v-0.1c-161.8-68-98.9-46.1-483.2-148.7c422.4,112.8,422.4,112.8-0.8-0.6c423.3,113.5,423.3,113.5,0-0.1
		c423.3,113.6,423.3,113.7,0.2-0.7C714.2,191.8,709.4,197,313,53.6c396.4,143.5,396.3,143.5,1-0.5c395.2,144,395.1,144,1.3,0.1
		C662.2,180,611.9,165.9,775,205.6v0c-151.2-36.9-158.6-37.9,0-26.8V178.4z"/>
</g>
<g>
	<path class="st0" d="M76.8,95.8c211.3-17.2,176.3-9.4,0,49v-0.2c200.2-67.4,203.1-66.4,0-36.4v-0.1C282.2,77.4,213,84.7,690.6,69.6
		c-537.1,16.9-537.1,17,1.3-0.4c-538.5,17.5-538.5,17.5,0.1-0.1c-538.7,17.6-538.8,17.7,0.3-0.8c-539,18.5-537.6,25.3-6.6-31.1
		c-531,56.6-530.9,56.6-0.8-0.8c-530,57.5-529.9,57.5-1.5-0.2C217.2,87.1,282.7,84.2,76.8,86.6v0c197.7-2.4,200.3-1.4,0-32.1v-0.3
		c177.5,26.3,204.4,28.8,0,44.2V95.8z"/>
	<path class="st0" d="M214.4,9.5c22.1,75.6,28.3,84.4,58.9,0h-4.6c-31.7,89.5-16.2,75.9,69.4,0h-0.8c-98.9,86.2-101.6,88-51.8,0
		h-0.3c-52.9,92.2-41.5,75.2-99.3,335.7c69.7-314.4,69.8-314.5-0.9,0.7c70.7-315.2,70.7-315.2-0.2,0.1c71-315.3,71.1-315.3-1.3,0.1
		c72.5-315.4,83.9-314.1-52.2-6.2c136.3-307.8,136.3-307.7-1.3-0.5c137.7-307.2,137.8-307.1-0.3-0.9
		C242.9,87.8,242.6,102.6,257.7,9.5h-0.1c-14,83.9-16.2,85.4-42.3,0H214.4z"/>
</g>
<g>
	<path class="st0" d="M177.2,486c-6.1-178.2-3.8-145.4,100.7,0h0c-119.8-166.2-108-166.4-74.4,0l0,0c-33.8-166.5-32.9-89.9-0.1-374
		c-33.3,288.6-33.3,288.7-0.5-0.8c-32.7,289.5-32.7,289.5-0.1-0.1c-32.5,289.6-32.4,289.6-1.1-0.2c-31.1,289.8-20.5,289.8-48.6,0.1
		c28.2,289.7,28.3,289.7-1.3,0.3c29.7,289.3,29.8,289.3-0.5,0.8c29.8,283.8,29.9,207.4,3,373.9l0,0c26.8-166.1,38.7-166.3-74.1,0h0
		c98.3-145.6,99.4-177.7,99.8,0L177.2,486z"/>
	<path class="st0" d="M24.9,360.6c161.6-4.5,181.6-4.5,0-40.5v2.4c197.9,40.7,158.1,27.7,0-52.9v0.1c180.7,93.1,188.5,93,0,40.3v0.1
		c185.2,52.1,116.6,36.8,546.1,101.8c-475.3-72-475.3-72,1.1,0.5c-476.4-72.6-476.4-72.6,0.1,0.1c-476.5-72.8-476.6-72.8,0,0.7
		C95.7,339.7,99,333.8,556.8,440.5c-457.8-106.8-457.7-106.8-0.9,0.6c-456.6-107.5-456.5-107.5-1.4,0.1
		c-403.2-95.3-343.5-85.3-529.6-109.6v0c175.9,23.1,181.6,22.8,0,28.7V360.6z"/>
</g>
<g>
	<path class="st0" d="M203.7,293.6c323.7,53,231.8,34.5,420.4,85C435.5,328,438.6,322.6,607,408.7c-170.1-87-196.1-83.9,140.5-16.9
		c-337.3-65.7-319.7-53.9-95-63.3c-222.4,9.2-219.4,3.8-17,30C433,332.4,524.9,351,215.4,273.6c309.7,77.4,309.8,77.4-1,0
		c310.8,77.3,310.8,77.3-0.1,0c310.9,77.3,311,77.2-0.5,0.4c311.5,76.8,313.9,72.7-10.8,18.6c324.7,54.1,324.7,54.1,0.1,0.6
		C527.6,346.7,527.6,346.6,203.7,293.6z"/>
	<path class="st0" d="M309.2,461.4c204.7-153,196.8-136.7,5.3-72.7c194-64.8,186.4-68.3,42.2,19.4c144.2-87.7,85-42.3,270.5-207.7
		c-185.5,165.4-185.6,165.4,0.8-0.3c-186.5,165.7-186.5,165.7,0.1,0c-186.7,165.7-186.8,165.7,0.8,0.2
		c-187.6,165.5-193.4,162.9,26.4,12c-219.9,150.9-219.9,150.9,0.5,0.5C435.5,363,435.5,363,655.6,213.2
		C435.6,362.9,494.8,317.5,385,421c109.8-103.5,102.2-107.1,42.5,19.6c58.8-125,83.7-133.5-118.5,20.7H309.2z"/>
</g>
<g>
	<path class="st10" d="M85.9,151.8c293.2-9.9,258.1-12.7,60.8,44.9c210-61.3,210.4-55.1-2.6-34.6c213-20.5,112-18,461.7-11.1
		c-349.8-6.9-349.8-6.9,0.9-0.3c-350.8-6.6-350.8-6.6,0.1-0.1c-350.9-6.5-350.9-6.5,0.3-0.5c-351.2-5.9-350.9-1.2-1.3-21.5
		c-349.5,20.3-349.5,20.4-0.4-0.6c-349,21-348.9,21-0.9-0.2c-347.9,21.2-246.9,18.8-462,11.1c215.1,7.7,215.6,13.9-2.6-34.9
		c205,45.9,239.5,41.1-53.9,48.2L85.9,151.8L85.9,151.8z"/>
	<path class="st10" d="M295.1,38.6c18.2,118.8,7.5,139.3,73.1,0h-1.8c-71.3,141.5-59.7,116.3,70.1,17.9
		c-147,111.5-137.4,113.3-53.4-10c-84.1,123.3-55.6,63.1-130.3,275.4c74.8-212.4,74.8-212.4-0.6,0.5c75.5-212.9,75.5-212.9-0.1,0
		c75.7-213,75.8-213-0.9,0c76.7-213,84-211.7-33.2-6.1c117.3-205.6,117.3-205.6-0.8-0.4c118.2-205.1,118.2-205.1-0.1-0.6
		C335.3,111,306.8,171.3,347.4,39.8C307.6,168.5,316,173,295.1,38.6L295.1,38.6z"/>
</g>
<g>
	<path class="st11" d="M323.8-7.3C84,271,84.3,270.8,323.1-7.3l0,0C105.7,246,149.4,204.5,15.8,312.8v0
		c117.9-95.8,132.9-104.8,0-43.1v-0.6c121.6-57.4,121.9-54.5,0,68.8v-4.2c145.3-153,113.9-114,73.9,59.2
		c48.3-208.3,61.1-203.7-71.7-25.7C150.7,189.2,73.2,267.8,372.5,7.9C73.1,267.9,73.1,268,372.8,7C73.2,268,73.2,268,372.7,6.9
		C73.2,268.1,73.2,268.1,371.9,6.3C74.2,267.4,83,271.7,325.4-7.3l0,0C83.9,270.9,84,270.9,323.8-7.3L323.8-7.3z"/>
	<path class="st11" d="M15.8,194.1c115.9,37.8,120.2,35.6,0-50.4v4C167.7,259,126.1,218.8,44.3,61.1
		c96.8,186.4,113.4,194.6-28.5,64.6v0.1c132.2,121.6,73,77,412,286.8C61.9,186.1,61.9,186,428.3,413.3
		C62,185.9,62,185.9,428.2,413.4C62,185.9,62,185.8,427.6,414.1C62.1,185.8,70.7,181.3,388.3,434.5
		c-317.5-253.2-317.3-253.2-1.4,0.3c-315.8-253.5-315.7-253.5-1.3-0.4C113.9,215.7,150.2,238.1,15.8,160.5v0.1
		c117.9,68.3,128.3,74,0,32.9V194.1z"/>
</g>
<g>
	<path class="st0" d="M315.3,461.4c-70.8-158.6-55-126.1,97.2-5.8c-175.3-138.8-165-142-71.9,5.8l0,0
		c-92.2-146.3-62.9-76.4-137.5-333.7c75.4,259.9,75.5,260-0.8-0.6c76.3,260.6,76.3,260.6-0.2-0.1c76.5,260.7,76.6,260.7-1.1-0.1
		c77.8,260.7,87.2,259.4-43,6.2c130.3,253.1,130.4,253.1-1,0.4c131.5,252.6,131.5,252.5-0.2,0.7c128.4,245.5,102.4,181.1,137.6,327
		l0,0c-34.5-142.5-26.1-146.8-61.5,0H233c30.4-129.7,22.4-151.7,85,0H315.3z"/>
	<path class="st0" d="M57.8,384.1c227.6-40.9,273.9-39.1,0-52.6v1.5c280,16.9,224.6,13,0-56.7l0,0c257.7,80,260.9,73.5,0,42.3l0,0
		c258.9,31,137.6,24.8,580,28.4c-447.2-3.7-447.3-3.7,1.1,0.3c-448.5-4.1-448.5-4.1,0.1,0.1c-448.7-4.3-448.7-4.3,0.3,0.6
		c-449-5-448.1-10.7-3.7,26c-444.4-36.8-444.3-36.8-0.6,0.7c-443.6-37.5-443.5-37.5-1.2,0.2c-435.2-37.2-317.4-31.5-576-29.5l0,0
		C314,343.4,317.1,337.2,57.8,384.1L57.8,384.1z"/>
</g>
<g>
	<path class="st12" d="M41.9,172.4c299-54.1,263.7-52.5,86.4,33.8c187.1-91,190-85-16-33.7c206-51.3,105.5-34.1,459.2-78.4
		c-353.8,44.3-353.9,44.3,0.8-0.4c-354.7,44.8-354.7,44.8,0.1-0.1c-354.8,44.9-354.8,44.9,0-0.5c-354.9,45.5-352.7,50.1-9.7-21
		c-343.1,71.1-343,71.2-0.6-0.5c-342.3,71.7-342.2,71.7-1-0.1c-341.1,71.8-240.6,54.6-459.5,78.5c219-23.9,221.9-17.8-16.1-33.9
		c225.6,15.3,256.9,5.2-43.6,56.7L41.9,172.4L41.9,172.4z"/>
	<path class="st12" d="M291.3-13.8c-20.4,185.1-24.7,163.2,73.7,39.7c-104.5,131.2-94.2,131.6-57.4-2.1
		c-36.8,133.7-31.4,70.2-24.4,290.1c-7-220-7-220-0.4,0.6c-6.5-220.6-6.5-220.6-0.1,0.1c-6.3-220.7-6.2-220.7-0.9,0.1
		c-5.3-220.8,2.5-220.6-35.7-1.1c38.3-219.5,38.4-219.4-0.9-0.3c39.4-219.1,39.4-219.1-0.3-0.6c39.8-218.4,34.4-154.9,24.4-290.3
		c10,135.3,20.4,135.7-57.9-2.1C285,150,276.4,171.5,292.1-13.8L291.3-13.8L291.3-13.8z"/>
</g>
<g>
	<path class="st13" d="M0.3,72.4c304.8,11.1,251.2,9.2,0,62.4l0,0c286.7-60.9,284.3-53,0-45.7l0,0c286-7.3,153.5-13.5,621.7,29.9
		c-471.3-43.6-471.4-43.6,1.3-0.3c-472.7-43.3-472.7-43.3,0.1-0.1c-472.9-43.1-473-43.1,0.5-0.7C150.4,75.5,149.6,82,627.3,88.2
		c-477.8-6.1-477.7-6-0.4-0.8c-477.2-5.2-477.1-5.1-1.2-0.4C151.1,82.3,286.6,88.8,0.3,57.5l0,0c287,31.3,285.4,39.7,3-48.4
		c246,76.8,305.3,79.8-3,64.9V72.4z"/>
	<path class="st13" d="M226.5,7.4c-3.6,78.5-1.2,86.4,57.6,0h-4.4c-66.6,96.9-43.2,77.8,80.6,0h-0.4C216.6,96.2,213,100.8,298,7.4
		h-0.2c-84.9,92.5-62.9,66-195.8,312c153.9-284.6,153.9-284.6-1,0.6c155-285.2,155-285.2-0.2,0c155.3-285.3,155.3-285.3-1.2-0.1
		C256.3,34.7,265.8,37.2,56.2,308.3c209.7-271.1,209.7-271-1-0.6C266,37.4,266,37.5,55.3,306.9C233,79.7,222.7,101.1,267.7,7.4h-0.1
		c-41.2,85.2-43.4,88.3-40.4,0H226.5z"/>
</g>
<g>
	<path class="st14" d="M821,190.6c-112.3,70.3-78,33.1,0-92v0.2c-90.3,146.8-107.4,164.1,0,77.3v0.3
		c-98.3,80.1-86.9,67.6-435.9,258.3c428.7-234.3,428.7-234.4-0.6,0.9c429.3-235.4,429.3-235.4,0,0.1
		c429.2-235.6,429.2-235.6,0.7,0.7c428.4-236.4,418.8-241.3,44,22.3c374.7-263.6,374.6-263.6,1.6,0.3
		c372.8-263.9,372.6-263.9,1.5-0.4C716.5,256.9,715.5,252.2,821,197.9v0.2c-79.5,41.1-84.5,46.4,0,23.4v0.7
		c-74.8,20.1-77.1,14.6,0-35.7V190.6z"/>
	<path class="st14" d="M470.3,8.7c325.5,277.2,325.9,277.6,0.9,0l0,0c324.5,277.3,324.6,277.4,0.2,0l0,0
		c324,277.2,324.2,277.4,1.7,0h0c316.2,272.2,311.7,280.5,64.7,0h0c241.7,275.4,241.7,275.4,1.7,0h0c240,275.5,239.7,275.3,0.8,0h0
		C736.2,235,722.4,226.4,821,304.4v-0.1c-81.4-64.7-89.7-73.1,0-33.1v-0.9c-81.7-36.5-81.4-28.6,0,53.6v-5.8
		c-114-116.3-82.8-66.4-48.7,101.4C731.1,217.3,715.1,203.2,821,347v-0.1C724.7,215.3,766.3,260.7,470.3,8.7L470.3,8.7z"/>
</g>
<g>
	<path class="st0" d="M353,38.6c130.7,63.8,60,41.2-168.7,0.3c269.1,48.3,300.6,59.8,142.9-0.3h0.4C466.3,91,433,78,735.2,249.5
		c-356.1-202-356.2-202,1.3,0.2c-357.6-202.3-357.6-202.3,0.2,0c-357.9-202.2-358-202.2,1-0.4c-359.1-201.8-366-197,31.3-22.1
		c-397.4-174.7-397.4-174.7,0.4-0.8c-397.8-173.8-397.8-173.7-0.6-0.7C454.1,88.5,457.8,94.1,366.3,38.6h0.2
		c73.3,44.2,81.9,47.4,39.2,0h1.1c38.2,42.4,30.4,43.6-60.2,0H353z"/>
	<path class="st0" d="M485.5,38.6c-56.3,44.8-46.4,45,79,0h-8C383,99.9,454.2,83,701.5,61C404.8,87.5,386,95.6,597.1,38.6H597
		C402.2,90.9,471.4,67.8,104.8,222.5c401.9-169.6,402-169.6-1.4,0.1c403.4-169.7,403.4-169.7-0.2,0C506.9,52.9,507,53,102.3,222.1
		C507.1,53,512.7,58.4,76.7,197.6c436.1-139.1,436.1-139-0.2-0.8c436.2-138.1,436.2-138.1,0.8-0.7C437.9,82.3,416.2,93,536.2,38.6
		h-0.2c-99.1,44.7-111,49.2-49.4,0H485.5z"/>
</g>
<g>
	<path class="st0" d="M788.7,412.5c-355.5-60-311.6-48.4-31-65.9C455.3,365.5,459,358.1,737,388c-277.9-29.9-151.2-7.2-579.3-103.8
		c428.3,96.7,428.4,96.7-1.3,0.1c429.7,96.6,429.7,96.6-0.2,0.1c430,96.5,430,96.5-0.7,0.5c430.7,95.9,433.6,90.3-13.2,25.6
		c446.9,64.6,446.8,64.5,0.1,0.8c446.6,63.7,446.6,63.6,1,0.5c445.5,63.1,318.6,40.4,579.7,103.9c-257.6-62.6-257.4-70.8-30.3,37.1
		h0c-211.2-100.1-252.4-103.4,95.9-40.9V412.5z"/>
	<path class="st0" d="M482.6,452.7c42.3-97.9,49.2-106.7-79.7,0h3.9C558.2,332,517.4,360.2,302.1,438c251.4-91,248.9-98,75.5,14.6h0
		c168.6-109.4,103.2-56.3,335.3-279.9c-239.4,230.6-239.5,230.6,1.1-0.4c-240.6,231.1-240.7,231.1,0.2,0
		c-240.9,231.1-241,231.1,1.1,0.2c-242.2,230.8-250.3,227.4,37,15.5c-287.3,211.9-287.4,211.8,0.7,0.7
		c-288.1,211.1-288.1,211-0.3,0.7C485.2,384.8,532.9,343.6,427.5,452.7h0c98.8-102.1,100.4-109.2,54.7,0H482.6z"/>
</g>
<g>
	<path class="st15" d="M798.1,379.5c-265.8,5.5-219.6,2.2,0-56.1v0.1c-250,67-250.7,62.3,0,41.3v0c-251.5,21.1-143.7,19-618.2,3.6
		c498.7,16.2,498.8,16.2-1.3,0.4c500.1,15.8,500.2,15.8-0.1,0.1c500.3,15.6,500.4,15.6-0.4,0.7c500.8,14.8,500.6,8.2,0.9,30.1
		c499.7-22,499.6-22.1,0.6,0.8c499-22.9,498.9-22.9,1.3,0.3c472.8-22.1,365.9-21.8,617.3-9.1l0,0c-249.5-12.6-250.3-17.4,0,40.6v0.1
		c-220.2-50.4-264.2-52.3,0-54.9L798.1,379.5L798.1,379.5z"/>
	<path class="st15" d="M613.1,490.1c-12.4-117.8-9-134-78.7,0h3.8c79.7-145.1,56.5-114.1-102,0h0c182.9-130.9,179.7-136.7,77.7,0h0
		c99.8-133.4,68.2-76.6,178-354.3c-117.1,295.9-117.2,296,0.9-0.7c-118.2,296.7-118.2,296.7,0.2-0.1c-118.4,296.7-118.5,296.8,1.2,0
		c-119.9,296.7-130.2,294.8,47.1,9.1c-177.4,285.6-177.5,285.6,1.1,0.6c-178.6,284.9-178.7,284.9,0.1,0.9
		C578.1,407,602,356.6,556.6,490.1h0c43.8-128.2,40.7-132.5,56.2,0H613.1z"/>
</g>
<g>
	<path class="st16" d="M423.4,507c-97.9-86-61.5-66.1,103.1,0h-0.3c-191.2-75.8-200.7-82.6-81.4,0h-0.2
		c-115.5-79.4-85.8-57.5-299.4-281.7c248.6,260.9,248.7,260.9-1.2-0.5c250,261.4,250,261.4-0.2,0c250.3,261.4,250.4,261.4-1.2,0.2
		c251.3,260.8,261,257.7-41.2,17.2l0,0c301.6,239.8,301.9,240,0,1.3l0,0c301.8,238.4,301.7,238.3,0,0.6l0,0
		C351.1,441,339.3,425.9,410.4,507h-0.1c-62.8-71.3-67.5-74.9-41.9,0h-0.9c-23.6-66.8-20.3-71.7,61.2,0L423.4,507L423.4,507z"/>
	<path class="st16" d="M209.2,507c173.3-72.3,186.9-73.9-108-29.6v1.5c327.7-45.4,277.7-37.9,0-61.5v0c315.4,27.2,305.9,19.8,0,44.3
		l0,0c312.1-25,169.2-3.6,655.5-98c-486.9,94.4-487,94.4,1.4,0.1c-488.5,94.3-488.5,94.3,0.2,0.1c-488.7,94.2-488.8,94.1,0.7,0.6
		c-489.5,93.4-492.3,87.2,12.7,28.6c-505,58.5-504.9,58.4-0.2,0.8c-504.7,57.5-504.6,57.5-1.2,0.5c-503.3,57-359.6,35.5-656.8,98.1
		c266.9-56.2,291.2-68.6,95,14.4L209.2,507L209.2,507z"/>
</g>
<g>
	<path class="st0" d="M444.6,350.5c147.7-137,101.1-98.9,213.2-174c-112.1,75.1-118.6,72.4,36.1,15.1
		c-156.3,57.9-158.3,70.6,11-68.9c-167.7,140.2-147.9,134.9-106.8,28.8c-40.8,105-47.2,102.3,35.8,15
		c-83,87.3-36.4,49.3-213.1,173.9c176.7-124.7,176.7-124.7-0.2,0.5c176.9-125.2,176.9-125.2,0,0.1c176.9-125.3,176.8-125.3,0.4,0.3
		c176.4-125.7,171.6-127.7,22.1,9.4c149.4-137.2,149.3-137.2,0.8,0.1C592.4,213.5,592.3,213.5,444.6,350.5z"/>
	<path class="st0" d="M445.5,122.5c146.6,137.4,100.3,99.2,211.7,174.6c-111.5-75.4-118-72.7,36.2-15
		c-155.8-58.3-157.7-71.1,10.4,69c-166.6-140.7-146.8-135.3-106.5-29.1C557.5,216.8,551,219.5,633.3,307
		c-82.3-87.6-36-49.4-211.6-174.5c175.7,125.2,175.7,125.2-0.2-0.5c175.9,125.7,175.9,125.7,0-0.1c175.8,125.8,175.8,125.8,0.4-0.3
		c175.3,126.2,170.5,128.2,22.2-9.4c148.2,137.6,148.2,137.6,0.8-0.1C592.2,259.9,592.2,259.9,445.5,122.5z"/>
</g>
<g>
	<path class="st0" d="M312.5,521.1c436.2-146.9,436.1-146.9,1.2,0l0,0c360.6-121.9,334.3-117,481.4-149.2v0.1
		c-131.7,29.1-137,31.1,0,24.5v0.5c-121.8,6.4-132.6,4.4,0.1-35.2v2.9c-152.5,45.5-121.5,29.1,0.1-52.4v0.3
		c-138.8,94.4-147.4,98-0.1,40.6v0.1c-145.6,57.1-108.5,43.2-515.6,142c477.6-115.9,477.7-116-1,0.7
		c478.7-116.7,478.7-116.7-0.1,0.1c478.7-116.9,478.7-116.9,0.2,0.7c475.6-117,473.6-123.6,31.1,24.3h0
		C748.9,374.2,749.4,374,312.5,521.1L312.5,521.1z"/>
	<path class="st0" d="M726.6,521.7c-61.8-150.5-70.4-150.4,68.4-6.9v-0.1c-120.4-125.6-130.8-152.5-93.1,6.9l3.5,0
		c-32.4-157.3-31.5-133.5-90-0.1h0.2c67.7-151.1,60.4-148.8,65.2,0.1h0c-4.5-151.6,8.4-88.6-92.8-370.7
		c107,298.2,106.9,298.2,0.4-0.8c106.5,299.1,106.5,299.1,0.1-0.1c106.3,299.2,106.2,299.3,1.1-0.3c105,299.6,93.9,300.5,50.7-4.1
		c43,304.6,42.9,304.6,1.4,0.2c41.4,304.3,41.3,304.3,0.7,0.7C681,436,664.1,370,726.6,521.7L726.6,521.7z"/>
</g>
<g>
	<path class="st0" d="M785.5,331.2c-108.3,44.2-90,28.5-4.7-76.9l0,0.3c-96.9,121.5-99.2,120.8,3.5,57.5l0,0.1
		c-103.3,64.2-68.4,47.3-318.2,111.5c281.4-72.4,281.4-72.5-0.6,0.8c282.1-73.3,282.1-73.3-0.1,0.2c282.2-73.6,282.2-73.7,0,1.2
		c282.2-75,280.4-85.2,8.1,47c272.3-132.4,272.3-132.5,0.5,1.1c271.7-133.7,271.6-133.7,0.8,0.2C712.5,356.8,680,366.1,786.3,345.1
		v0c-101.2,20.2-103.2,19.4,2.9,47.7l0,0.5c-94.1-23.8-107.2-25.9-4-66.1L785.5,331.2z"/>
	<path class="st0" d="M739.3,536.5c-37.7-186.9-40.2-217.6-45.1,2.8l2.2-0.1c7.2-228.7,2.4-186.9-50.8,3.1l0.1,0
		c61.4-216.5,58.6-220.2,37.9-2.3h0c20.9-217.1,17.6-130.5,8.7-580.6c9.6,486.2,9.5,486.3,0.3-1.2c9.2,487.5,9.2,487.5,0.1-0.1
		c9,487.7,9,487.7,0.7-0.3c8.2,488,2,486.9,28.5,5c-26.6,481.8-26.6,481.8,0.7,0.7c-27.4,481-27.5,480.9,0.3,1.3
		c-25.5,440.2-24.9,358.4-16.6,573.8h0c-8-209.8-10.7-213.1,32.8-2L739.3,536.5z"/>
</g>
</svg>
