<?xml version="1.0" encoding="utf-8"?>
<!-- Generator: Adobe Illustrator 23.0.1, SVG Export Plug-In . SVG Version: 6.00 Build 0)  -->
<svg version="1.1" id="Layer_1" xmlns="http://www.w3.org/2000/svg" xmlns:xlink="http://www.w3.org/1999/xlink" x="0px" y="0px"
	 viewBox="0 0 1024 600" style="enable-background:new 0 0 1024 600;" xml:space="preserve">
<style type="text/css">
	.st0{fill:#060606;}
	.st1{fill:#050505;}
	.st2{fill:#080808;}
	.st3{fill:#222222;}
	.st4{fill:#2B2C2C;}
	.st5{fill:#1A1A1A;}
	.st6{fill:#EFEEED;}
	.st7{fill:#B3B3B3;}
	.st8{fill:#0A0A0A;}
	.st9{fill:#636362;}
	.st10{fill:#0C0C0C;}
	.st11{fill:#FFFFFF;}
	.st12{fill:#FBFAFA;}
	.st13{fill:#F5F4F4;}
	.st14{fill:#F0EFEF;}
	.st15{fill:#F1F0EF;}
	.st16{fill:#EFEEEE;}
	.st17{fill:#F1EFEF;}
	.st18{fill:#EDEBEB;}
	.st19{fill:#F0EFEE;}
	.st20{fill:#F3F2F1;}
	.st21{fill:#DFDEDE;}
	.st22{fill:#EEEDED;}
	.st23{fill:#E5E4E3;}
	.st24{fill:#E6E5E5;}
	.st25{fill:#DBD9D9;}
	.st26{fill:#EDEDEC;}
	.st27{fill:#E1E1E0;}
	.st28{fill:#E2E1E0;}
	.st29{fill:#E6E5E4;}
	.st30{fill:#E9E8E7;}
	.st31{fill:#D7D6D6;}
	.st32{fill:#EDECEC;}
	.st33{fill:#F5F5F5;}
	.st34{fill:#EAE9E8;}
	.st35{fill:#191919;}
	.st36{fill:#0F0F0F;}
	.st37{fill:#E3E2E2;}
	.st38{fill:#DBDAD9;}
	.st39{fill:#DFDEDD;}
	.st40{fill:#CECCCC;}
	.st41{fill:#E1DFDF;}
	.st42{fill:#434343;}
	.st43{fill:#F8F8F7;}
	.st44{fill:#4D4D4D;}
	.st45{fill:#DDDBDB;}
	.st46{fill:#DEDCDC;}
	.st47{fill:#D4D3D2;}
	.st48{fill:#232323;}
	.st49{fill:#E0DEDE;}
	.st50{fill:#D9D8D7;}
	.st51{fill:#D0CFCF;}
	.st52{fill:#E5E4E4;}
	.st53{fill:#C2C2C2;}
	.st54{fill:#272828;}
	.st55{fill:#313232;}
	.st56{fill:#282829;}
	.st57{fill:#E2E0E0;}
	.st58{fill:#E9E8E8;}
	.st59{fill:#323232;}
	.st60{fill:#D1D0D0;}
	.st61{fill:#EAE8E8;}
	.st62{fill:#C2C0C0;}
	.st63{fill:#B3B2B2;}
	.st64{fill:#CFCFCE;}
	.st65{fill:#AEAEAE;}
	.st66{fill:#989797;}
	.st67{fill:#949494;}
	.st68{fill:#DADAD9;}
	.st69{fill:#ABABAB;}
	.st70{fill:#D4D2D2;}
	.st71{fill:#CCCBCA;}
	.st72{fill:#969595;}
	.st73{fill:#3C3C3C;}
	.st74{fill:#929292;}
	.st75{fill:#F4F3F3;}
	.st76{fill:#DBDBDA;}
	.st77{fill:#CCCBCB;}
	.st78{fill:#DDDCDC;}
	.st79{fill:#FCFCFB;}
	.st80{fill:#FCFBFB;}
	.st81{fill:#F8F7F7;}
	.st82{fill:#505151;}
	.st83{fill:#F6F5F5;}
	.st84{fill:#E1E0E0;}
	.st85{fill:#C4C4C4;}
	.st86{fill:#1E1E1E;}
	.st87{fill:#D2D2D2;}
	.st88{fill:#252626;}
	.st89{fill:#282828;}
	.st90{fill:#E8E6E6;}
	.st91{fill:#D5D4D3;}
	.st92{fill:#C0BFBF;}
	.st93{fill:#2B2C2B;}
	.st94{fill:#C1C1C0;}
	.st95{fill:#ECEAEA;}
	.st96{fill:#EBEAEA;}
	.st97{fill:#DCDBDA;}
	.st98{fill:#636363;}
	.st99{fill:#FDFCFC;}
	.st100{fill:#FEFEFE;}
	.st101{fill:#E8E7E7;}
	.st102{fill:#DAD9D9;}
	.st103{fill:#C9C8C7;}
	.st104{fill:#DBDADA;}
	.st105{fill:#121212;}
	.st106{fill:#1D1E1E;}
	.st107{fill:#656565;}
	.st108{fill:#1B1B1B;}
	.st109{fill:#090909;}
	.st110{fill:#858585;}
	.st111{fill:#9F9E9E;}
	.st112{fill:#A8A8A8;}
	.st113{fill:#B4B3B3;}
	.st114{fill:#111111;}
	.st115{fill:#171718;}
	.st116{fill:#5C5B5A;}
	.st117{fill:#F0F0EF;}
	.st118{fill:#DEDDDD;}
	.st119{fill:#EDECEB;}
	.st120{fill:#050606;}
	.st121{fill:#0B0B0B;}
	.st122{fill:#161616;}
	.st123{fill:#404141;}
	.st124{fill:#ACACAC;}
	.st125{fill:#FCFCFC;}
	.st126{fill:#FDFDFD;}
	.st127{fill:#FBFBFA;}
	.st128{fill:#FAFAF9;}
	.st129{fill:#202020;}
	.st130{fill:#E1E1E1;}
	.st131{fill:#E5E3E3;}
	.st132{fill:#D4D4D3;}
	.st133{fill:#C6C5C5;}
	.st134{fill:#B1B1B1;}
	.st135{fill:#E3E2E1;}
	.st136{fill:#C5C4C4;}
	.st137{fill:#373737;}
	.st138{fill:#E7E6E5;}
	.st139{fill:#2E2F2F;}
	.st140{fill:#D8D8D7;}
	.st141{fill:#3A3A39;}
	.st142{fill:#303030;}
	.st143{fill:#131313;}
	.st144{fill:#0D0D0D;}
	.st145{fill:#151515;}
	.st146{fill:#0D0C0C;}
	.st147{fill:#F7F7F6;}
	.st148{fill:#EEEDEC;}
	.st149{fill:#D9D7D7;}
	.st150{fill:#5B5A5A;}
	.st151{fill:#5D5D5D;}
	.st152{fill:#EBEAE9;}
	.st153{fill:#101010;}
	.st154{fill:#0B0C0C;}
	.st155{fill:#FDFDFC;}
	.st156{fill:#F2F1F1;}
	.st157{fill:#F7F6F6;}
	.st158{fill:#F7F6F5;}
	.st159{fill:#F3F2F2;}
	.st160{fill:#F6F5F4;}
	.st161{fill:#F1F0F0;}
	.st162{fill:#F4F3F2;}
	.st163{fill:#C7C5C5;}
	.st164{fill:#D6D5D4;}
	.st165{fill:#CAC9C9;}
	.st166{fill:#222323;}
	.st167{fill:#161717;}
	.st168{fill:#DAD9D8;}
	.st169{fill:#E7E5E5;}
	.st170{fill:#E2E0DF;}
	.st171{fill:#D9D8D8;}
	.st172{fill:#CAC8C8;}
	.st173{fill:#C9C7C7;}
	.st174{fill:#E0DFDF;}
	.st175{fill:#E4E3E3;}
	.st176{fill:#E7E5E4;}
	.st177{fill:#E6E4E4;}
	.st178{fill:#C9C8C8;}
	.st179{fill:#F8F7F6;}
	.st180{fill:#E9E7E7;}
	.st181{fill:#EEEDEE;}
	.st182{fill:#0A0A0B;}
	.st183{fill:#8E8D8D;}
	.st184{fill:#D3D2D1;}
	.st185{fill:#393A3A;}
	.st186{fill:#4D4E4D;}
	.st187{fill:#C6C6C6;}
	.st188{fill:#ECEBEB;}
	.st189{fill:#CECDCD;}
	.st190{fill:#404040;}
	.st191{fill:#B9B8B8;}
	.st192{fill:#CFCECD;}
	.st193{fill:#C4C3C3;}
	.st194{fill:#979797;}
	.st195{fill:#ABA9A9;}
	.st196{fill:#D5D4D4;}
	.st197{fill:#B6B4B4;}
	.st198{fill:#292A2A;}
	.st199{fill:#3B3C3C;}
	.st200{fill:#060707;}
	.st201{fill:#0A0B0B;}
	.st202{fill:#424343;}
	.st203{fill:#3D3E3E;}
	.st204{fill:#A9A8A8;}
	.st205{fill:#D6D4D4;}
	.st206{fill:#FAF9F9;}
	.st207{fill:#F4F2F2;}
	.st208{fill:#F9F8F7;}
	.st209{fill:#E2E1E1;}
	.st210{fill:#202121;}
	.st211{fill:#F5F4F3;}
	.st212{fill:#272727;}
	.st213{fill:#9B9A9A;}
	.st214{fill:#BFBEBE;}
	.st215{fill:#262626;}
	.st216{fill:#828181;}
	.st217{fill:#C3C2C2;}
	.st218{fill:#B5B5B5;}
	.st219{fill:#AEAFAF;}
	.st220{fill:#E3E1E1;}
	.st221{fill:#C0BEBE;}
	.st222{fill:#BBBABA;}
	.st223{fill:#232424;}
	.st224{fill:#D7D5D5;}
	.st225{fill:#292929;}
	.st226{fill:#444444;}
	.st227{fill:#1B1C1C;}
	.st228{fill:#0E0E0E;}
	.st229{fill:#0F1010;}
	.st230{fill:#2F3030;}
	.st231{fill:#111212;}
	.st232{fill:#181818;}
	.st233{fill:#111112;}
	.st234{fill:#121313;}
	.st235{fill:#141414;}
	.st236{fill:#191A1A;}
	.st237{fill:#0D0E0E;}
	.st238{fill:#181919;}
	.st239{fill:#1C1C1C;}
	.st240{fill:#0E0F0F;}
	.st241{fill:#1E1F1F;}
	.st242{fill:#171717;}
	.st243{fill:#1E1E1D;}
	.st244{fill:#131414;}
	.st245{fill:#333333;}
	.st246{fill:#212222;}
	.st247{fill:#3A3B3B;}
	.st248{fill:#525352;}
	.st249{fill:#2A2B2A;}
	.st250{fill:#FAFAFA;}
	.st251{fill:#EFEDED;}
	.st252{fill:#0C0D0D;}
	.st253{fill:#0A0B0A;}
	.st254{fill:#161515;}
	.st255{fill:#232425;}
	.st256{fill:#F6F6F5;}
	.st257{fill:#FEFEFD;}
	.st258{fill:#262727;}
	.st259{fill:#1D1D1D;}
	.st260{fill:#171818;}
	.st261{fill:#414040;}
	.st262{fill:#282929;}
	.st263{fill:#1A1B1B;}
	.st264{fill:#141515;}
	.st265{fill:#2D2D2D;}
	.st266{fill:#343535;}
	.st267{fill:#3C3D3D;}
	.st268{fill:#2F2F30;}
	.st269{fill:#1B1B1C;}
	.st270{fill:#313131;}
	.st271{fill:#3F4040;}
	.st272{fill:#111010;}
	.st273{fill:#101111;}
	.st274{fill:#1C1D1D;}
	.st275{fill:#242525;}
	.st276{fill:#CFCDCD;}
	.st277{fill:#323333;}
	.st278{fill:#CFCDCC;}
	.st279{fill:#D7D7D7;}
	.st280{fill:#303131;}
	.st281{fill:#B0AFAF;}
	.st282{fill:#CDCDCD;}
	.st283{fill:#242424;}
	.st284{fill:#121111;}
	.st285{fill:#1F1F1F;}
	.st286{fill:#2E2D2D;}
	.st287{fill:#F9F8F8;}
	.st288{fill:#191A19;}
	.st289{fill:#070808;}
	.st290{fill:#1A1A1B;}
	.st291{fill:#525252;}
	.st292{fill:#C5C3C3;}
	.st293{fill:#2C2C2C;}
	.st294{fill:#D8D7D7;}
	.st295{fill:#ECECEB;}
	.st296{fill:#D5D3D3;}
	.st297{fill:#BDBBBB;}
	.st298{fill:#BEBDBC;}
	.st299{fill:#FFFFFE;}
	.st300{fill:#F9F9F9;}
	.st301{fill:#F2F2F1;}
	.st302{fill:#DCDBDB;}
	.st303{fill:#B8B6B6;}
	.st304{fill:#EAE9E9;}
	.st305{fill:#7B7A7A;}
	.st306{fill:#252525;}
	.st307{fill:#D7D6D5;}
	.st308{fill:#A3A3A3;}
	.st309{fill:#D4D3D3;}
	.st310{fill:#424242;}
	.st311{fill:#313231;}
	.st312{fill:#585757;}
	.st313{fill:#1C1C1D;}
	.st314{fill:#434243;}
	.st315{fill:#343434;}
	.st316{fill:#1F2020;}
	.st317{fill:#E1E0DF;}
	.st318{fill:#2F2F2F;}
	.st319{fill:#171817;}
	.st320{fill:#101110;}
	.st321{fill:#151616;}
	.st322{fill:#EBE9E9;}
	.st323{fill:#ECEBEA;}
	.st324{fill:#F3F3F2;}
	.st325{fill:#D2D2D1;}
	.st326{fill:#E4E2E2;}
	.st327{fill:#E4E3E2;}
	.st328{fill:#E7E6E6;}
	.st329{fill:#CECDCC;}
	.st330{fill:#E4E4E4;}
	.st331{fill:#C4C3C2;}
	.st332{fill:#D6D5D5;}
	.st333{fill:#070707;}
	.st334{fill:#3F3E3D;}
	.st335{fill:#B7B5B5;}
	.st336{fill:#ACABAB;}
	.st337{fill:#080909;}
	.st338{fill:#3A3A3A;}
	.st339{fill:#010101;}
	.st340{fill:#6E6E6E;}
	.st341{fill:#C7C5C4;}
	.st342{fill:#BCBBBB;}
	.st343{fill:#FFFEFE;}
	.st344{fill:#F4F4F3;}
	.st345{fill:#D8D8D8;}
	.st346{fill:#818081;}
	.st347{fill:#2D2E2E;}
	.st348{fill:#9E9E9E;}
	.st349{fill:#282928;}
	.st350{fill:#2A2B2B;}
	.st351{fill:#040404;}
	.st352{fill:none;}
	.st353{fill:#2C2D2D;}
	.st354{fill:#474747;}
	.st355{fill:#3F3F3F;}
	.st356{fill:#EEECEC;}
	.st357{fill:#D7D7D6;}
	.st358{fill:#E7E7E7;}
	.st359{fill:#616161;}
	.st360{fill:#EAEAE9;}
	.st361{fill:#A9A9A9;}
	.st362{fill:#FBF9F9;}
	.st363{fill:#E0E0E0;}
	.st364{fill:#A4A4A4;}
	.st365{fill:#D5D5D5;}
	.st366{fill:#E6E6E6;}
	.st367{fill:#3E3E3E;}
	.st368{fill:#DDDCDB;}
	.st369{fill:#A0A0A0;}
	.st370{fill:#E8E7E6;}
	.st371{fill:#E4E4E3;}
	.st372{fill:#3E3F3F;}
	.st373{fill:#848383;}
	.st374{fill:#D2D1D1;}
	.st375{fill:#DFDFDE;}
	.st376{fill:#B7B6B6;}
	.st377{fill:#D1D0CF;}
	.st378{fill:#A7A7A6;}
	.st379{fill:#8D8E8E;}
	.st380{fill:#757575;}
	.st381{fill:#C2C1C1;}
	.st382{fill:#C8C8C7;}
	.st383{fill:#ABAAAA;}
	.st384{fill:#CBCAC9;}
	.st385{fill:#C6C6C5;}
	.st386{fill:#A7A6A7;}
	.st387{fill:#888888;}
	.st388{fill:#F0EEEE;}
	.st389{fill:#AEADAD;}
	.st390{fill:#292A29;}
	.st391{fill:#CCCCCC;}
	.st392{fill:#D3D2D2;}
	.st393{fill:#EFEFEF;}
	.st394{fill:#3C3D3C;}
	.st395{fill:#C8C7C8;}
	.st396{fill:#1D1D1E;}
	.st397{fill:#AAAAAA;}
	.st398{fill:#F9F9F8;}
	.st399{fill:#F2F1F0;}
	.st400{fill:#DAD8D8;}
	.st401{fill:#D0CFCE;}
	.st402{fill:#ECECEC;}
	.st403{fill:#676766;}
	.st404{fill:#BBBABB;}
	.st405{fill:#565655;}
	.st406{fill:#C8C6C6;}
	.st407{fill:#E0DFDE;}
	.st408{fill:#8C8C8C;}
	.st409{fill:#6F6E6F;}
	.st410{fill:#BAB9B9;}
	.st411{fill:#EEEEEE;}
	.st412{fill:#C7C7C7;}
	.st413{fill:#8A898A;}
	.st414{fill:#505050;}
	.st415{fill:#B5B3B3;}
	.st416{clip-path:url(#SVGID_2_);}
	.st417{clip-path:url(#SVGID_4_);}
	.st418{clip-path:url(#SVGID_6_);}
	.st419{fill:#CFCECE;}
	.st420{fill:#383939;}
	.st421{fill:#DEDEDE;}
	.st422{clip-path:url(#SVGID_8_);}
	.st423{clip-path:url(#SVGID_10_);}
	.st424{fill:#0B0C0B;}
	.st425{fill:#C7C6C6;}
	.st426{fill:#1E1E1F;}
	.st427{fill:#F8F8F8;}
	.st428{clip-path:url(#SVGID_12_);}
	.st429{clip-path:url(#SVGID_14_);}
	.st430{clip-path:url(#SVGID_16_);}
	.st431{clip-path:url(#SVGID_18_);}
	.st432{fill:#969696;}
	.st433{fill:#353636;}
	.st434{fill:#0E0E0F;}
	.st435{fill:#484948;}
	.st436{fill:#0D0E0D;}
	.st437{fill:#111211;}
	.st438{fill:#242425;}
	.st439{fill:#343534;}
	.st440{fill:#4A4B4B;}
	.st441{fill:#414242;}
	.st442{fill:#B4B4B4;}
	.st443{fill:#FBFBFB;}
	.st444{fill:#FEFDFD;}
	.st445{fill:#666666;}
	.st446{fill:#565756;}
	.st447{clip-path:url(#SVGID_20_);}
	.st448{clip-path:url(#SVGID_22_);}
</style>
<path class="st11" d="M4.87,598.33c-0.77-2.97-2.03-5.91-2.21-8.92c-0.35-5.83-0.1-11.69-0.1-18.16c3.77,0.63,7.04,1.17,11.14,1.85
	c-1.39,4.64-2.71,9.08-4.03,13.51C8.06,590.52,6.47,594.43,4.87,598.33z"/>
<g>
	<defs>
		<rect id="SVGID_5_" x="-0.51" width="1022.35" height="603.09"/>
	</defs>
	<clipPath id="SVGID_2_">
		<use xlink:href="#SVGID_5_"  style="overflow:visible;"/>
	</clipPath>
	<g class="st416">
		<path d="M760.1,320.69c-13.61-12.09-27.18-24.15-40.75-36.2c0.39-0.48,0.79-0.95,1.18-1.43c12.3,10.58,24.6,21.15,37,31.82
			c0-13.91,0.02-27-0.01-40.08c-0.01-4.88,0.02-9.77-0.2-14.64c-1.2-26.51-2.67-53.01-3.66-79.53c-0.52-13.9-0.25-27.83-0.36-41.75
			c-0.14-18.88-0.39-37.76-0.41-56.64c-0.01-7.3,0.24-14.61,0.77-21.89c1.48-20.54,3.16-41.06,4.76-61.59
			c0.44-5.64,0.76-11.28,1.37-16.9c0.2-1.81,1.17-3.54,2.15-6.35c-1.64,23.45-2.69,45.52-4.81,67.48
			c-4.28,44.26-2.08,88.6-2.05,132.9c0.01,21.38,3.24,42.74,4.43,64.15c0.69,12.38,0.23,24.83,0.25,37.24
			c0.02,12.98,0.01,25.96,0.01,39.62c10.32-4.99,15.47-15.48,13.82-24.94c-0.97-5.54-1.28-11.22-1.58-16.85
			c-1.3-24.29-3.11-48.57-3.57-72.87c-0.56-29.69-0.66-59.43,0.33-89.1c0.96-28.9,3.72-57.74,5.31-86.63
			c0.43-7.79-0.6-15.65-0.74-23.48c-0.15-8.32-0.03-16.65,1.08-24.93c0,19.5,0.29,39-0.11,58.48c-0.23,11.28-2.16,22.53-2.31,33.81
			c-0.64,47.19-1.47,94.38-1.04,141.56c0.22,23.85,4.51,47.7,4.04,71.5c-0.32,16.04,5.31,25.81,18.03,34.08
			c8.52,5.54,15.73,13.11,24.86,20.9c-0.32-4.92-0.71-8.17-0.72-11.42c-0.04-41.6-0.43-83.21,0.14-124.8
			c0.32-23.03,2.69-46.02,3.33-69.06c0.41-14.79-1.04-29.62-0.97-44.43c0.14-30.7,0.64-61.39,1.22-92.08
			c0.12-6.51,1.19-13.01,1.83-19.51c0.59,0.06,1.18,0.12,1.77,0.19c-0.43,4.4-1.18,8.79-1.22,13.19
			c-0.49,52.55-0.68,105.1-1.36,157.65c-0.28,21.5-1.81,42.97-2.29,64.47c-0.65,28.98-1.08,57.96-1.15,86.95
			c-0.05,18.88,0.73,37.76,1.07,56.63c0.09,5.21-0.24,10.43,0.02,15.62c0.09,1.74,1.41,3.43,2.16,5.14
			c0.64-0.17,1.27-0.34,1.91-0.51c-0.42-8.63-0.89-17.25-1.22-25.88c-0.22-5.69-0.52-11.39-0.29-17.07
			c0.55-13.35,1.89-26.68,1.96-40.02c0.06-11.29-1.42-22.57-1.83-33.87c-0.38-10.32-0.29-20.66-0.32-30.99
			c-0.05-18.11-0.52-36.24,0.08-54.34c0.68-20.23,2.39-40.42,3.56-60.64c0.23-3.98,0.03-7.99,0.03-13.39
			c15.16,9.78,29.22,18.86,44.72,28.86c-4.17-49.47-3.85-98.41,0.54-147.34c0,6.09,0.13,12.18-0.03,18.27
			c-0.17,6.26-0.71,12.51-0.9,18.77c-0.21,6.7-0.26,13.41-0.27,20.12c-0.04,15.44-0.36,30.89,0.06,46.31
			c1.04,38.71,2.45,77.41,3.67,116.12c0.45,14.42,0.67,28.84,1.18,43.26c1.15,32.85,2.81,65.7,3.47,98.56
			c0.44,21.95-0.63,43.93-0.74,65.89c-0.05,9.93,0.74,19.87,0.87,29.8c0.16,12.62,0.26,25.25-0.06,37.86
			c-0.14,5.76,0.92,9.72,6.1,13.65c11.83,8.99,22.72,19.22,34.04,28.89c1.31,1.12,2.91,1.91,5.71,3.71
			c-0.63-9.29-1.51-17.26-1.65-25.24c-0.26-14.45,0.06-28.9-0.11-43.35c-0.19-16.24-0.83-32.47-0.95-48.71
			c-0.21-28.23-0.42-56.47-0.12-84.7c0.14-13.57,1.96-27.13,2.1-40.7c0.18-16.24-1.39-32.52-0.8-48.73
			c0.77-21.2,2.92-42.35,4.47-63.53c0.04-0.61,0.05-1.22,0.07-1.83c0.87-25.12,1.8-50.24,2.53-75.36c0.12-4.14-0.66-8.31-1.08-13.14
			c31.71,13.22,62.79,26.17,93.87,39.12c-0.25,0.64-0.5,1.28-0.76,1.93c-30.07-12.34-60.13-24.69-90.8-37.28
			c0,15.71,0.42,30.47-0.09,45.2c-0.89,25.52-1.18,51.15-3.94,76.49c-2.56,23.54-1.48,46.94-1.79,70.41
			c-0.33,24.75-1.73,49.49-2.41,74.24c-0.18,6.43,0.78,12.89,0.82,19.34c0.13,22.19-0.04,44.38,0.15,66.56
			c0.09,10.7,0.95,21.39,1.04,32.09c0.18,19.62,0.05,39.24,0.05,58.58c32.96,26.64,65.15,52.66,97.35,78.69
			c-0.14,0.25-0.29,0.49-0.43,0.74c-6.59-4.52-13.5-8.64-19.7-13.64c-18.61-14.99-36.98-30.28-55.37-45.54
			c-18.01-14.95-35.91-30.02-53.88-45.02c-1.55-1.29-3.14-2.57-4.85-3.63c-9.41-5.84-13.26-13.71-12.17-25.2
			c1.17-12.3-0.12-24.82,0.38-37.21c0.39-9.74-2.27-16.93-10.83-22.67c-14.99-10.06-29.4-21-43.78-31.94
			c-2.14-1.63-3.75-5.21-3.91-7.99c-0.49-8.72,0.02-17.5-0.32-26.24c-0.09-2.23-1.32-5.02-2.98-6.48
			c-10.16-8.9-20.68-17.38-30.89-26.22c-7.17-6.21-8.54-6.26-14.78,1.05c-1.71,2-3.25,4.16-5.07,6.04
			C762.53,319.92,761.23,320.16,760.1,320.69z M874.68,415.96c0.75-13.5,2.03-25.45,1.92-37.38c-0.16-17.65-1.45-35.28-2.02-52.92
			c-0.93-29.22-1.87-58.45-2.43-87.68c-0.64-33.49-0.87-66.98-1.28-100.48c0-0.41,0.13-0.88-0.03-1.21
			c-0.81-1.74-1.24-4.11-2.62-5.05c-13.07-8.83-26.31-17.42-39.65-26.17c-1.03,10.4-2.39,20.02-2.84,29.67
			c-0.75,16.02-1,32.06-1.29,48.09c-0.17,9.47,0.08,18.95-0.07,28.42c-0.1,5.88-1.02,11.77-0.86,17.63
			c0.55,20.48,1.74,40.94,2.06,61.42c0.37,23.7,0.9,47.46-0.26,71.11c-0.64,13.1,3.02,21.53,14.35,28.46
			C851.58,397.15,862.21,406.52,874.68,415.96z"/>
		<path d="M718.34,281.6c-0.45-2.42-1.1-4.81-1.31-7.25c-0.23-2.62-0.02-5.28-0.05-7.92c-0.4-27.6-0.64-27.3-22.48-44.81
			c-9.95-7.98-18.82-17.33-27.91-26.35c-1.46-1.45-1.83-4.35-2.05-6.65c-0.33-3.41-0.34-6.91-0.02-10.32
			c0.36-3.77-1.01-6.07-3.97-8.48c-9.4-7.67-18.48-15.73-27.53-23.81c-1.34-1.2-2.46-3.24-2.65-5.01
			c-0.69-6.24-0.83-12.53-1.41-18.78c-0.13-1.36-0.87-3.12-1.91-3.86c-7.38-5.23-14.63-10.75-22.5-15.13
			c-5.4-3-7.52-7.06-7.13-12.55c0.28-3.95-1.71-5.74-4.51-7.53c-5.76-3.68-11.24-7.84-17.21-11.14c-4.41-2.44-6.02-5.63-5.27-10.33
			c0.86-5.42-1.44-8.28-6.22-11.26c-12.06-7.49-23.51-15.99-35.07-24.27c-1.24-0.89-2.25-2.99-2.27-4.53
			c-0.06-7.26,0.29-14.52,0.45-21.79c0.14-6.1,0.21-12.19,0.36-18.29c0.04-1.54,0.24-3.08,0.37-4.62c0.54-0.01,1.09-0.02,1.63-0.03
			c0,3.92,0.07,7.84-0.01,11.75c-0.24,10.71-0.62,21.41-0.72,32.12c-0.01,1.28,1.04,3.03,2.14,3.8
			c11.82,8.29,23.73,16.44,35.66,24.56c0.75,0.51,1.86,0.5,3.28,0.85c0-24.33,0-48.27,0-72.2c0.54-0.06,1.07-0.11,1.61-0.17
			c0.39,1.82,1.14,3.64,1.09,5.45c-0.2,8.57-0.95,17.15-0.89,25.71c0.12,18.29,0.57,36.57,1.05,54.85c0.04,1.59,0.83,3.75,2.01,4.62
			c6.92,5.1,14.07,9.89,22.65,15.82c-3.26-36.92-0.54-72.09,3.3-107.2c0.59,0.01,1.17,0.02,1.76,0.04
			c-0.21,4.17-0.27,8.36-0.66,12.51c-1.09,11.67-2.97,23.3-3.34,34.99c-0.57,18.04-0.25,36.11-0.09,54.16
			c0.05,5.21,0.65,10.45,1.42,15.61c0.27,1.82,1.36,4.09,2.81,5.07c8.28,5.62,16.78,10.91,24.84,16.08
			c0.67-45.52,1.34-91.38,2.02-137.23c0.54,0,1.08,0.01,1.62,0.01c0,10.83,0.1,21.67-0.05,32.5c-0.07,5.05-0.9,10.1-0.92,15.15
			c-0.1,27.47-0.16,54.95,0,82.42c0.05,9.12,0.62,18.24,1.33,27.34c0.35,4.47,1.37,8.41,5.77,11.67
			c7.91,5.85,14.88,12.95,22.3,19.46c1.14,1.01,2.58,1.67,4.84,3.1c-4.53-65.02-2.13-128.89,2.87-192.98
			c0.22,1.48,0.69,2.97,0.62,4.43c-0.74,14.15-1.95,28.28-2.29,42.44c-0.68,28.24-1.16,56.5-1.21,84.75
			c-0.03,21.32,0.69,42.64,1.21,63.96c0.14,5.86,0.61,11.73,1.25,17.56c0.17,1.61,1.13,3.45,2.31,4.57
			c14.02,13.34,28.14,26.57,42.28,39.79c0.95,0.89,2.28,1.37,4.29,2.54c0-24.31,0.12-47.74-0.06-71.17
			c-0.07-8.71-0.97-17.41-1.22-26.13c-0.71-25.19-1.27-50.39-1.91-75.58c-0.44-17.45-1.12-34.89-1.31-52.35
			c-0.12-10.76,0.47-21.52,0.79-32.28c0.02-0.84,0.4-1.67,0.61-2.5c0.58,0.04,1.15,0.08,1.73,0.12c0,7.52,0,15.04,0,22.56
			c0,17.85-0.15,35.7,0.05,53.55c0.26,23.78,0.46,47.57,1.29,71.34c0.71,20.23,2.68,40.43,3.29,60.66
			c0.39,12.96-0.92,25.97-1.02,38.96c-0.07,9.08,0.75,18.16,0.91,27.24c0.17,10.06,0.04,20.13,0.04,30.2
			C718.81,281.49,718.58,281.55,718.34,281.6z"/>
		<path class="st11" d="M122.1,385.28c-4.45,5.64-8.91,11.29-13.36,16.93c-4.89,7.84-10,15.56-14.6,23.56
			c-2.89,5.02-6.01,7.6-12.03,4.95c-3.41-1.51-7.25-2.06-12.13-3.38c1.41-3.38,2.46-6.74,4.14-9.74c2.16-3.85,4.75-7.47,7.29-11.1
			c8.18-11.72,16.31-23.49,24.76-35.01c1.1-1.49,4.11-2.63,5.96-2.32c5.05,0.85,9.95,2.56,14.95,3.94
			C125.36,377.27,123.73,381.28,122.1,385.28z"/>
		<path d="M70.9,708.65c9.66-18.94,19.56-37.76,28.92-56.84c14.65-29.87,28.89-59.93,43.4-89.87c6.25-12.89,12.93-25.58,19.05-38.54
			c5.84-12.37,10.66-25.25,16.88-37.42c21.46-41.97,43.13-83.84,65.11-125.54c13.7-25.99,27.7-51.84,42.26-77.35
			c14.52-25.42,29.86-50.37,44.95-75.47c7.45-12.4,15.15-24.66,22.7-37c0.62-1.01,1-2.16,1.49-3.25c0.65,0.54,1.3,1.08,1.95,1.63
			c-3.61,6.01-7.2,12.04-10.84,18.03c-9.16,15.1-18.5,30.1-27.49,45.31c-13.69,23.16-27.54,46.24-40.59,69.77
			c-17.66,31.84-34.67,64.03-51.85,96.14c-12.71,23.76-25.65,47.42-37.71,71.52c-8.89,17.77-16.29,36.28-24.79,54.25
			c-12.29,26-24.84,51.87-37.52,77.69c-13.57,27.62-27.4,55.11-41.15,82.64c-4.24,8.49-8.55,16.95-12.84,25.42
			C72.19,709.41,71.54,709.03,70.9,708.65z"/>
		<path d="M353.13,160.68c-4.15,6.43-8.35,12.84-12.45,19.3c-13.02,20.52-26.1,41-38.96,61.61c-9.45,15.14-18.7,30.42-27.87,45.73
			c-5.58,9.31-10.77,18.87-16.3,28.21c-9.22,15.58-19.02,30.82-27.76,46.66c-15.84,28.71-31.29,57.64-46.49,86.7
			c-15.3,29.24-30.45,58.56-45.01,88.17c-11.18,22.73-21.03,46.11-32.03,68.93c-13.43,27.85-27.35,55.47-41.27,83.08
			c-3.23,6.4-7.3,12.38-11.09,18.49c-0.56,0.91-1.67,1.49-2.88,2.51c11.78-22.66,23.71-44.41,34.53-66.7
			c17.75-36.58,34.39-73.7,52.24-110.22c14.76-30.22,30.62-59.89,45.93-89.85c5.78-11.32,10.96-22.96,17.1-34.07
			c13.88-25.12,27.98-50.13,42.38-74.95c13.34-23,27.12-45.75,40.84-68.53c15.15-25.13,30.29-50.26,45.77-75.19
			c6.26-10.08,13.36-19.63,20.15-29.37c0.46-0.66,1.49-0.91,2.26-1.35C352.52,160.12,352.82,160.4,353.13,160.68z"/>
		<path class="st11" d="M138.04,313.67c6.04-8.91,12.08-17.82,18.11-26.73c3.12-4.12,6.45-8.09,9.32-12.38
			c5.09-7.6,12.42-9.74,21.45-5.67c-0.34,0.88-0.57,1.84-1.05,2.64c-11.88,19.58-23.7,39.19-35.81,58.62
			c-1,1.61-4.01,2.95-5.96,2.79c-4.46-0.36-8.83-1.73-13.55-2.76C133.15,324.45,135.59,319.06,138.04,313.67z"/>
		<path d="M427.12,307.96c-8.98-15.08-13.95-31.53-15.34-48.87c-1.12-14.02-0.97-28.14-1.37-42.21
			c-0.29-10.21-0.39-20.42-0.96-30.61c-0.13-2.24-1.87-4.4-2.72-6.26c1.83,0.32,4.51,0.8,7.45,1.32c-3.68,5.06,2.2,1.94,3.23,3.64
			c-11.15,5.47-1.73,14.62-4.82,21.68c0.54,0.06,1.08,0.13,1.62,0.19c0-1.16,0-2.31,0-3.47c0.34-0.21,0.68-0.41,1.02-0.62
			c1.11,1.78,2.22,3.56,3.42,5.48c-1.93,0.58-3.61,1.08-6.56,1.97c0.74,20.49,1.5,41.36,2.31,63.5c5.23-0.46,9.17-0.55,13.01-1.21
			c9.15-1.56,11.06-0.44,13.52,8.48c3.89,14.1,7.81,28.19,11.73,42.29c0.05,0.2,0.17,0.38,0.19,0.58
			c2.35,18.63,2.28,18.77-16.11,19.26c-31.88,0.84-63.77,1.6-95.66,2.38c-2.22,0.05-4.45,0.01-7.06,0.01
			c-1.29-11.32-2.09-22.09,4.17-32.43c5.59-9.25,10.09-19.15,15.28-28.65c1.12-2.06,3.13-3.64,4.73-5.44
			c0.58,0.24,1.16,0.49,1.74,0.73c0.31,4.36,0.63,8.73,0.94,13.09c-0.76,0.06-1.51,0.11-2.27,0.17c-0.36-3.09-0.71-6.18-1.07-9.27
			c-0.4-0.23-0.81-0.47-1.21-0.7c-7.11,13.81-14.23,27.62-22.19,43.07c5-0.26,8.08-0.37,11.16-0.59c1.6-0.12,3.19-0.64,4.79-0.66
			c30.3-0.44,60.59-0.86,90.89-1.24c8.99-0.11,9.46-0.27,7.26-8.64c-3.51-13.32-7.55-26.5-11.27-39.4c-6.87,0-13.4,0-20.24,0
			c0.98,3.61,1.72,6.33,2.44,8.97c2.25-0.43,4.47-0.86,6.69-1.28c0.09,0.35,0.18,0.71,0.28,1.06c-1.94,0.85-3.87,1.7-6.77,2.97
			c2.85,5.29,5.67,9.98,7.89,14.94c0.72,1.61-0.14,3.93-0.28,5.93L427.12,307.96z M449.7,324.52c-3.11,0.63-5.04,1.33-6.99,1.36
			c-29.81,0.47-59.62,0.79-89.43,1.31c-6.17,0.11-12.34,0.88-18.67,1.35c0.62,5.22,1.16,9.76,1.79,15.06
			c37.81-0.72,75.25-1.43,113.3-2.15C449.7,335.16,449.7,330.23,449.7,324.52z"/>
		<path d="M0.77,286.68C103.8,177.54,212.4,74.31,327.09-22.51c-10.28,9.8-20.48,19.68-30.87,29.37c-6.5,6.06-13.2,11.91-19.94,17.7
			c-10.7,9.21-21.71,18.07-32.23,27.48c-15.22,13.62-30.22,27.5-45.15,41.44c-20.91,19.51-41.84,39.01-62.46,58.82
			c-20.85,20.03-41.5,40.28-61.95,60.73c-21.06,21.07-41.74,42.52-62.66,63.73C8.36,280.28,4.47,283.39,0.77,286.68z"/>
		<path d="M316.45-21.85c-15.1,13.58-30.14,27.21-45.3,40.73c-18.35,16.36-36.93,32.46-55.13,48.97
			c-14.35,13.03-28.33,26.48-42.4,39.81c-16.7,15.83-33.25,31.82-50.01,47.59c-14.43,13.58-29.41,26.6-43.54,40.49
			c-19.53,19.21-38.34,39.16-57.77,58.47c-6.78,6.74-14.49,12.53-22.05,18.47C102.39,170.95,206,70.78,315.28-23.35
			C315.67-22.85,316.06-22.35,316.45-21.85z"/>
		<path d="M452.45,141.54c3.27-4.9,5.55-8.39,7.89-11.82c7.13-10.43,9.8-21.72,6.94-34.21c-0.53-2.3-0.93-4.95-0.31-7.13
			c3.98-14.04,3.25-27.31-5.17-39.74c-1.11-1.64-1.1-4.05-1.67-6.4c8.7,9.53,10.62,20.86,11.11,32.66c0.04,1.01,0.24,2.03,0.17,3.04
			c-0.78,12.31-1.76,24.62-2.34,36.94c-0.42,9.15-7.32,14.89-11,22.31c-3.04,6.12-5.01,12.65-3.32,19.36
			c2,7.93,0.32,15.13-4.4,21.03c-5.31,6.63-12.04,12.11-17.92,18.3c-3.89,4.09-7.39,8.55-11.06,12.84
			c-0.61-0.54-1.22-1.08-1.83-1.62c6.03-6.39,11.19-14.07,18.3-18.86c11.18-7.53,17.33-22.41,14.09-35.52
			c-1.28-5.16,0.42-11.09-2.14-16.52c-0.74-1.58,0.43-4.06,0.8-6.69c-0.86-0.72-2.39-1.99-4.93-4.1c3.09,0.89,5.03,1.46,7.17,2.07
			c7.41-9.04,9.32-20.05,10.06-31.31c1.06-16.21-0.77-32.12-5.6-47.72c-1.28-4.14-1.95-8.86-1.39-13.11
			c1.41-10.83-5.2-17.08-11.94-23.53c-5.07-4.86-10.24-9.64-14.92-14.86c-1.82-2.04-2.41-5.18-3.19-6.96
			c10.32,11.08,21.01,22.55,31.42,33.71c-0.45-10.92-4.43-20.74-12.81-26.42c-4.2-2.85-7.54-7.07-10.94-10.95
			c-1.1-1.25-1.17-3.41-1.03-5.51c3.3,7.94,10.47,11.73,16.23,17.1c7.91,7.36,11.58,17.2,10.9,28.58
			c-0.48,7.98-0.04,16.08,0.78,24.05c1.3,12.77,4.43,25.45,4.63,38.21c0.23,15.03-1.68,30.05-11.74,42.71
			C451.76,133.37,452.72,137.25,452.45,141.54z"/>
		<path d="M308.94-23.27c-7,6.45-12.66,12.15-18.81,17.26c-28.5,23.68-57.06,47.22-83.04,73.8c-15.09,15.44-31.97,29.13-47.99,43.66
			c-10.34,9.37-20.46,18.97-30.92,28.2c-10.39,9.16-21.21,17.84-31.61,26.99c-10.02,8.81-19.79,17.9-29.57,26.97
			c-11.25,10.43-22.74,20.64-33.47,31.59c-9.97,10.16-19.11,21.14-28.55,31.82c-1.44,1.62-2.52,3.56-3.77,5.35
			c-0.57-0.33-1.13-0.67-1.7-1c0.89-1.78,1.4-3.92,2.71-5.28c18.95-19.58,37.36-39.73,57.2-58.36
			c22.03-20.68,45.48-39.84,68.13-59.87c14.11-12.48,27.99-25.21,41.77-38.05c26.31-24.51,52.17-49.51,78.81-73.65
			c18.66-16.91,38.29-32.74,57.52-49.01C305.99-23.14,306.68-23,308.94-23.27z"/>
		<path d="M18.02-22.46c1.55,18.29,3.11,36.57,4.75,55.91c8.75-4.65,17.41-9.1,25.87-13.92c1.05-0.6,1.39-3.12,1.4-4.75
			C50.15,2.58,50.1-9.61,51.2-21.91c0.43,4.55,1.06,9.09,1.25,13.65c0.22,5.28,0.05,10.58,0.05,15.86c0,11.72,0,11.72,7.42,22.24
			C77.74,18.71,95.67,7.59,113.44-3.78c1.44-0.92,2.35-3.54,2.5-5.45c0.36-4.55,0.12-9.15,1.54-14.03c0.53,1.36,1.07,2.72,1.67,4.25
			c2.82-1.54,5.6-3.07,8.38-4.6c0.3,0.5,0.6,1,0.91,1.49c-1.14,0.89-2.18,1.95-3.43,2.64c-4.42,2.45-7.23,5.95-6.47,11.17
			c0.55,3.82-1.07,6.04-4.03,7.84C97.34,9.91,80.21,20.31,63.05,30.68c-1.19,0.72-2.53,1.17-3.8,1.75c-0.33-0.23-0.77-0.4-0.98-0.71
			c-6.49-9.96-7.61-10.09-17.73-3.84c-4.95,3.06-10.39,5.34-15.35,8.41c-1.43,0.88-2.67,3.23-2.72,4.95
			C22.3,46.69,23,52.16,22.82,57.6c-0.07,2.18-0.96,4.95-2.48,6.37C14.17,69.74,7.62,75.08,1.21,80.58
			c-0.45-0.33-0.89-0.66-1.34-0.99c0.81-1.48,1.29-3.31,2.48-4.36c3.88-3.42,8.06-6.48,12.04-9.79c3.49-2.9,6.19-6.09,5.89-11.24
			c-0.78-13.53-1.12-27.09-1.85-40.62c-0.64-11.88-1.57-23.75-2.37-35.63C16.72-22.18,17.37-22.32,18.02-22.46z"/>
		<path class="st11" d="M269.6,151.38c-3.95,5.22-7.9,10.45-11.85,15.67c-1.9,2.15-3.8,4.31-5.58,6.33
			c-4.78-3.78-9.37-7.41-14.05-11.11c2.73-4.25,5.11-8.11,7.64-11.87c2.54-3.77,4.7-9.76,8-10.52c3.58-0.82,8.14,3.76,12.54,5.1
			C270.16,146.16,270.23,148.37,269.6,151.38z"/>
		<path d="M359.25,12.91c5.49-12.89,14.19-21.71,28.67-24.3c3.55-0.64,6.8-3.81,9.84-6.25c3.75-3.02,7.41-5.67,12.39-3.14
			c0.75,0.38,1.07,1.61,1.93,2.99c-10.75-3.37-20.41,4.79-19.63,16.11c5.13-0.63,10.23-1.55,15.38-1.83
			c6.75-0.37,9.55,4.67,12.14,10.02c-4.27-7.46-11.19-7.93-18.12-6.55c-6.56,1.31-13.56,2.69-19.16,6.06
			c-11.12,6.7-13.54,10.32-22.67,25.01c1.84-9.53,7.26-15.23,12.68-20.55c3.92-3.84,9.45-6.02,13.55-9.73
			c2.45-2.22,3.51-5.96,5.84-10.17c-14.06,2.31-25.21,7.79-28.77,19.98c-3.15,10.81-6.95,19.77-14.58,28.47
			c-5.26,6-7.93,16.02-5.5,25.41c0.34,1.33,0.92,2.76,1.82,3.76c3.47,3.84,4.76,7.44,2.64,12.95c-1.18,3.07,0.4,8.08,2.29,11.3
			c7.16,12.23,3.35,24.99,3.03,37.61c0-5.85,0.38-11.73-0.11-17.54c-0.45-5.35-1.14-10.89-3.01-15.86
			c-2.34-6.23-5.54-11.81-3.32-19.02c0.67-2.18-1.93-5.46-3.24-8.14c-5.26-10.73-0.65-30.51,8.9-37.87
			c6.28-4.84,7.25-11.7,7.19-18.94C359.39,12.71,359.25,12.91,359.25,12.91z"/>
		<path class="st11" d="M298,108.61c-1.99,2.41-3.98,4.81-5.97,7.22c-2.55,2.38-5.11,4.76-7.59,7.07c-2.83-1.6-5.7-3.39-8.72-4.88
			c-4.35-2.15-3.93-4.79-1.43-8.18c2.04-2.77,3.68-5.82,5.5-8.75l-0.2,0.23c0.56-0.19,1.28-0.22,1.67-0.59
			c6.5-6.26,6.49-6.26,14.31-1.42c1.64,1.02,3.33,1.96,4.98,2.93C299.59,104.64,298.79,106.63,298,108.61z"/>
		<path d="M371.65,302.33c1.59-4.45,3.19-8.89,4.78-13.34c-0.45-0.58-0.91-1.16-1.36-1.74c-3.77,2.08-7.55,4.16-10.7,5.89
			c0.18-5.15,2.75-7.06,12.61-7.78c0.27-2.07,0.54-4.21,0.91-7.14c-6.41,0-12.71,0-19.02,0c-0.05-0.5-0.1-0.99-0.15-1.49
			c6.3-0.52,12.6-1.05,19.95-1.66c1.1-6.43,2.86-13.61,3.48-20.9c1.21-14.09,1.27-28.28,2.79-42.33c1.03-9.53-4.19-14.85-10.53-19.9
			c-2.48-1.98-5.41-3.42-8.19-5.01c-5.17-2.95-7.51-8.19-6.4-14.58c0.36,0.15,1.03,0.32,1.02,0.45
			c-0.49,8.42,5.39,11.68,11.56,15.25c4.39,2.54,8.04,6.33,12.33,9.81c0.46-5.82,0.93-11.87,1.4-17.93c0.34,0,0.67,0.01,1.01,0.01
			c0,5.03,0.18,10.06-0.03,15.08c-0.72,16.58-1.02,33.2-2.57,49.7c-1.34,14.37-4.1,28.61-6.35,42.89
			c-0.59,3.75-1.39,7.51-2.51,11.13c-0.5,1.61-2.05,2.9-3.12,4.34C372.26,302.85,371.95,302.59,371.65,302.33z"/>
		<path d="M122.1,385.28c1.63-4,3.27-8,4.97-12.18c-4.99-1.38-9.9-3.09-14.95-3.94c-1.85-0.31-4.87,0.83-5.96,2.32
			c-8.45,11.53-16.58,23.29-24.76,35.01c-2.53,3.63-5.13,7.25-7.29,11.1c-1.68,3-2.73,6.35-4.14,9.74
			c4.88,1.32,8.71,1.87,12.13,3.38c6.02,2.66,9.14,0.08,12.03-4.95c4.61-8,9.71-15.72,14.6-23.56c-3.47,6.73-6.73,13.57-10.47,20.14
			c-2.74,4.82-6.11,9.29-8.73,13.21c-8.13-2.44-15.14-4.54-23.01-6.89c2.65-5.33,4.85-10.94,8.02-15.93
			c7.87-12.36,16.18-24.45,24.35-36.62c1.23-1.83,2.61-3.58,4.06-5.25c2.92-3.38,6.07-5.16,11-3.54c4.89,1.6,10.17,2.02,17.3,3.33
			C127.84,376.12,124.97,380.7,122.1,385.28z"/>
		<path d="M880.16,159.57c0.58-9.75,0.98-18.81,1.86-27.83c0.1-1.05,3.17-2.91,4.37-2.59c9.99,2.69,19.9,5.73,29.75,8.91
			c1.06,0.34,2.32,2.21,2.3,3.35c-0.17,9.67-0.62,19.34-1.03,30.11C904.46,167.36,892.62,163.56,880.16,159.57z M884.28,132.23
			c0,8.56-0.11,15.99,0.12,23.41c0.04,1.15,1.42,2.9,2.54,3.28c9,3,18.08,5.74,28.25,8.9c0-9.66,0-18.26,0-27.16
			C905.47,138.01,895.23,135.21,884.28,132.23z"/>
		<path class="st11" d="M329.73,59.86c-0.27,0.33-0.53,0.66-0.8,0.99c-1.04,0.24-2.56,0.12-3.04,0.76
			c-3.07,4.17-5.72,8.66-8.86,12.77c-4.42,5.8-9.23,5.91-15.66,0.3c4.28-6.57,8.61-13.21,12.02-18.44c5.53,0,9.78-0.2,13.99,0.16
			C328.26,56.47,328.95,58.65,329.73,59.86z"/>
		<path d="M138.04,313.67c-2.44,5.39-4.89,10.78-7.49,16.51c4.72,1.03,9.09,2.39,13.55,2.76c1.94,0.16,4.95-1.18,5.96-2.79
			c12.11-19.43,23.94-39.04,35.81-58.62c0.49-0.8,0.71-1.77,1.05-2.64c-9.03-4.07-16.37-1.93-21.45,5.67
			c-2.87,4.29-6.2,8.26-9.32,12.38c3.99-6.72,7.94-13.46,12-20.14c0.48-0.79,1.55-1.75,2.33-1.74c6.29,0.04,12.58,0.3,18.87,0.49
			c0.33,0.73,0.66,1.45,0.98,2.18c-3.58,5.91-7.15,11.82-10.74,17.72c-9.49,15.55-19.13,31.01-28.41,46.69
			c-2.9,4.89-6.37,5.49-11.14,3.58c-4.03-1.6-8.14-2.99-13.09-4.79C130.85,324.86,134.44,319.26,138.04,313.67z"/>
		<path d="M781.68,119.92c4.73,2.4,9.47,4.79,14.19,7.21c1.96,1,3.84,2.14,5.82,3.09c10.65,5.13,10.61,5.11,9.36,16.63
			c-0.26,2.37-0.04,4.8-0.04,7.44c-7.01,2.28-11.36-3.36-16.86-4.73c-1.27-0.32-2.3-1.53-3.49-2.24c-3.71-2.23-9.83-3.75-10.68-6.76
			c-1.69-6.03-0.5-12.87-0.5-19.37C780.21,120.76,780.95,120.34,781.68,119.92z M807.97,151.71c0.62-4.19,1.55-7.75,1.49-11.3
			c-0.03-1.65-1.76-3.49-3.12-4.83c-1.05-1.04-2.75-1.41-4.13-2.13c-6.12-3.17-12.24-6.36-18.98-9.86
			c-0.25,4.49,0.33,8.17-0.82,11.18c-1.46,3.82,0.14,5.19,2.96,6.5C792.77,144.7,800.18,148.11,807.97,151.71z"/>
		<path d="M66.5,479.44c-4.2,7.53-7.54,14.04-11.35,20.24c-5.58,9.08-11.53,17.93-17.28,26.91c-3.25,5.08-6.29,10.3-9.7,15.26
			c-0.66,0.97-2.77,1.74-3.92,1.45c-6.55-1.66-13.01-3.67-19.28-6.67c5.99,1.2,11.96,2.52,17.98,3.52c1.45,0.24,3.9-0.04,4.51-0.98
			c11.1-17.24,22.01-34.6,32.9-51.98c0.93-1.49,1.43-3.25,2.38-5.47c-9.24-2.21-18.15-7.78-25.74,2.8c1.16-5.6,3.9-9.15,10.08-8.28
			C52.81,477.05,58.52,478.11,66.5,479.44z"/>
		<path d="M329.73,59.86c-0.78-1.21-1.48-3.38-2.35-3.46c-4.2-0.37-8.45-0.16-13.99-0.16c-3.41,5.23-7.74,11.87-12.02,18.44
			c6.43,5.61,11.24,5.5,15.66-0.3c3.14-4.11,5.8-8.6,8.86-12.77c0.48-0.65,2-0.53,3.04-0.76c-4.18,6.74-8.36,13.47-13.02,20.97
			c-3.29-0.55-7.5-0.9-11.49-2.01c-4.18-1.16-5.26-4.49-3.09-8.05c3.86-6.3,8.11-12.38,12.36-18.43c0.71-1.01,2.34-2.15,3.4-2.02
			c5.39,0.65,10.74,1.7,17.69,2.88C332.6,56.63,331.16,58.24,329.73,59.86z"/>
		<path d="M721.87,87.46c8.3,2.93,15.04,5.25,21.71,7.75c0.95,0.35,2.13,1.58,2.21,2.49c0.34,4.17,0.68,8.4,0.32,12.54
			c-0.28,3.25-1.26,5.76-5.87,3.17c-4.27-2.4-9.33-3.47-14.11-4.85c-2.81-0.81-4.56-1.81-4.34-5.26
			C722.1,98.38,721.87,93.42,721.87,87.46z M743.27,97.79c-6.13-1.92-12.38-3.88-18.93-5.93c0,3.99-0.35,7.27,0.14,10.42
			c0.26,1.64,1.72,3.89,3.15,4.41c5,1.79,10.23,2.94,15.63,4.41C743.27,106.78,743.27,102.73,743.27,97.79z"/>
		<path d="M269.6,151.38c0.63-3.02,0.56-5.22-3.31-6.4c-4.4-1.34-8.96-5.92-12.54-5.1c-3.3,0.76-5.46,6.75-8,10.52
			c-2.53,3.76-4.91,7.61-7.64,11.87c4.68,3.7,9.27,7.33,14.05,11.11c1.78-2.02,3.68-4.17,5.58-6.33c-1.72,3.46-3.43,6.91-5.2,10.47
			c-5.42-4.63-10.13-8.28-14.29-12.47c-1.02-1.03-1-4.29-0.14-5.76c4.17-7.13,8.66-14.09,13.39-20.87c0.73-1.05,3.63-1.63,4.92-1.06
			c4.92,2.15,9.84,4.51,14.28,7.49C273.95,147.04,272.38,149.6,269.6,151.38z"/>
		<path d="M356.61,18.13c-0.67,2.21-1.33,4.43-2,6.64c-0.25-0.61-0.51-1.22-0.76-1.83c-7.02,0.62-14.03,1.24-22.25,1.97
			c3.14-6.66,6.18-13.12,9.08-19.27c6.07,1.45,11.57,2.66,16.98,4.18c0.76,0.21,1.06,2.03,1.58,3.08c0.01-0.01,0.15-0.21,0.16-0.23
			c-0.98,1.88-1.98,3.77-2.97,5.66c0.95-12.23-9.98-5.89-14.55-10.35c-2.67,5.4-4.92,9.96-7.18,14.54
			c7.06-0.79,13.59-1.46,20.1-2.33C355.49,20.12,356.01,18.86,356.61,18.13z"/>
		<path d="M368.9,43.69c0.32,7.15-3.03,15.38-8.67,22.63c-3.13,4.02-3.75,7.85-3.03,12.83c0.92,6.36,0.47,12.92,0.66,19.39
			c0.33,11.18,0.71,22.37,1.05,33.28c-0.66-2.65-2.02-5.77-2.13-8.93c-0.31-9.02,0.03-18.06-0.17-27.08
			c-0.16-7.24-0.98-14.48-1.04-21.72c-0.02-2.67,0.9-5.55,2.07-8.01C361.5,58,365.67,50.05,368.9,43.69z"/>
		<path d="M201.58,218.52c5.28-7.95,10.53-15.91,15.85-23.83c1.21-1.8,2.67-3.45,4.24-5.45c2.94,0.76,6.01,1.45,9.02,2.36
			c7.1,2.17,7.79,3.31,4.23,9.42c-2.58,4.42-5.98,8.36-9.02,12.51l0.12,0.11c3.01-5.88,6.02-11.76,9.03-17.63
			c-9.72-5.08-13.01-4.2-18.88,3.79c-4.68,6.37-9.79,12.43-14.71,18.62L201.58,218.52z"/>
		<path d="M225.91,213.53c-6.08,9.64-12.07,19.35-18.4,28.82c-0.67,1-3.55,1.27-5.08,0.8c-4.36-1.34-8.56-3.24-13.22-5.08
			c1.07-8.26,6.93-13.78,12.37-19.55c0,0-0.12-0.1-0.12-0.1c-3.38,5.68-6.75,11.36-10.11,17c12.5,8.33,13.98,8.02,21.12-3.95
			c0.93-1.55,1.75-3.19,2.85-4.6c3.51-4.46,7.12-8.83,10.7-13.24L225.91,213.53z"/>
		<path d="M647.97,42.42c2.55,1.27,4.83,2.4,7.11,3.54c4.71,2.36,7.03,7.63,4.99,12.21c-0.53,1.2-2.36,2.5-3.66,2.57
			c-5.25,0.29-10.8-6.42-9.87-11.6C646.91,47.02,647.43,44.93,647.97,42.42z M648.38,53.64c2.96,1.79,5.55,3.35,8.4,5.07
			c1.48-6.52-0.98-10.17-7.09-12.14C649.21,49.13,648.78,51.45,648.38,53.64z"/>
		<path d="M2.41,533.95c9.85-14.75,19.69-29.49,29.54-44.24c0.45,0.3,0.91,0.59,1.36,0.89c-9.79,14.74-19.58,29.48-29.36,44.22
			C3.44,534.52,2.92,534.24,2.41,533.95z"/>
		<path d="M279.79,101.09c-1.82,2.93-3.46,5.99-5.5,8.75c-2.5,3.39-2.93,6.03,1.43,8.18c3.02,1.49,5.89,3.28,8.72,4.88
			c2.48-2.31,5.04-4.69,7.59-7.07c-1.95,3.62-3.9,7.24-5.9,10.95c-4.67-2.7-9.01-4.67-12.68-7.52c-2.25-1.75-5.07-4.41-1.97-8.04
			C274.31,107.9,277.02,104.47,279.79,101.09z"/>
		<path d="M410.42,85.23c0-3.89,0.65-7.94-0.22-11.62c-0.61-2.55-2.99-6.17-5.14-6.61c-9.01-1.87-8.62-8.27-8.01-14.78
			c0.42-4.42,1.56-8.78,3.53-12.94c-0.81,5.3-1.81,10.57-2.37,15.9c-0.43,4.13,0.83,7.17,5.53,8.64
			C411.7,66.33,415.17,74.6,410.42,85.23z"/>
		<path d="M431.61,136.81c1.67,11.24,0.4,14.27-8.67,19.03c-5.02,2.64-4.06,7.48-5.1,11.57c-0.51,2.01-0.26,4.21-0.38,6.83
			c-3.44-5.38-1.32-17.28,4.36-19.94C429.75,150.6,431.55,144.49,431.61,136.81z"/>
		<path d="M370.15,111.67c-6.49-10.94-3.66-22.26,5.41-27.97c2.01-1.27,2.85-4.39,4.06-6.39c0.73,4.45,0.11,8.26-5.87,9.96
			c-4.59,1.31-6.89,9.14-5.5,16.33C368.69,105.87,369.3,108.09,370.15,111.67z"/>
		<path d="M372.01,44.36c1.39-5.08,2.21-10.42,4.34-15.18c2-4.48,5.37-8.35,9.42-12.24c-0.16,1.54,0.24,4.02-0.55,4.49
			c-9.01,5.33-9.11,14.73-10.98,23.34C373.48,44.64,372.75,44.5,372.01,44.36z"/>
		<path d="M372.36,168.32c-0.75-6.57-1.87-13.13-2.03-19.71c-0.04-1.92,2.27-4.56,4.2-5.72c3.31-1.99,7.17-3.08,10.8-4.55
			c0.25,0.51,0.51,1.03,0.76,1.54c-2.57,1.19-5.06,2.59-7.71,3.53c-6.65,2.36-8.22,4.92-6.83,11.67c0.49,2.35,0.76,4.75,1.27,7.1
			c0.42,1.96,1.04,3.89,1.58,5.83C373.73,168.11,373.04,168.22,372.36,168.32z"/>
		<path d="M298,108.61c0.8-1.98,1.59-3.97,2.55-6.37c-1.65-0.97-3.34-1.91-4.98-2.93c-7.82-4.85-7.81-4.84-14.31,1.42
			c-0.39,0.37-1.1,0.4-1.67,0.59c2.34-3.33,4.68-6.65,6.91-9.83c6.02,3.65,11.33,6.87,17.36,10.52
			C301.55,104.62,299.77,106.62,298,108.61z"/>
		<path d="M426.96,308.11c5.09,0,10.19,0,14.24,0c-2.01,4.1-3.99,8.15-5.97,12.2c-0.48-0.11-0.95-0.21-1.43-0.32
			c0.29-2.66,0.58-5.32,0.86-7.88c-2.53-1.41-5.02-2.79-7.52-4.16C427.12,307.96,426.96,308.11,426.96,308.11z"/>
		<path d="M365.2,321.99c2.73-4.64,5.04-8.57,7.46-12.69c1.24,0.45,3.11,1.13,5.45,1.97C373.41,314.72,371.96,322.05,365.2,321.99z"
			/>
		<path d="M360.12,297.46c-4.67,8.8-9.34,17.6-14.01,26.4c-0.6-0.32-1.21-0.64-1.81-0.97c4.67-8.8,9.34-17.6,14-26.4
			C358.91,296.82,359.51,297.14,360.12,297.46z"/>
		<path d="M362.77,155.01c-2.7-10.43,3.44-21.1,8.36-32.05C368.17,134.31,365.21,145.66,362.77,155.01z"/>
		<path d="M396.11,322.83c-1.72-3.59-3.45-7.17-5.5-11.44c-5.6-0.49-3.7,6.27-7.01,9.78c0-2.77-0.74-5.22,0.15-6.29
			c1.89-2.25,4.64-3.78,7.04-5.61c1.23,1.95,2.59,3.83,3.66,5.86c1.15,2.2,2.04,4.53,3.04,6.81
			C397.03,322.24,396.57,322.53,396.11,322.83z"/>
		<path d="M393.06,223.4c-2.25,8.26,9.06,14.84,2.96,23.4C399.09,238.39,387.73,231.94,393.06,223.4z"/>
		<path d="M417.43,114.86c-8.3,3.67-15.9,6.05-14.84,16.15C398.36,121.57,402.66,116.75,417.43,114.86z"/>
		<path d="M418.62,34.14c0.1,1.12,0.43,2.28,0.25,3.36c-1.01,6.03,1.33,10.01,6.96,12.35c4.18,1.74,6.29,4.81,5.44,8.06
			c-2.92-2.43-6.5-5-9.55-8.09c-1.77-1.79-3.27-4.3-3.83-6.72c-0.65-2.84-0.15-5.94-0.15-8.93
			C418.04,34.16,418.33,34.15,418.62,34.14z"/>
		<path d="M357.05,37c-0.41,9.18-0.81,18.37-1.17,26.32c-0.69-2.72-2.62-6.72-2.49-10.65c0.17-5.21,1.93-10.36,3.01-15.54
			C356.62,37.09,356.83,37.04,357.05,37z"/>
		<path d="M395.7,107.57c-7.56-5.45-7.89-13.17-9.55-20.3c0.64-0.19,1.28-0.37,1.92-0.56c0.85,3.25,1.45,6.59,2.6,9.73
			C391.92,99.89,393.67,103.16,395.7,107.57z"/>
		<path d="M447.9,41.45c-13.8-7.51-14.53-8.63-11.8-17.92C434.24,33.41,442.09,36.66,447.9,41.45z"/>
		<path d="M394.02,265.35c0.62,5.58,1.23,11.16,1.85,16.75c-0.64,0.08-1.29,0.15-1.93,0.23c-0.68-5.57-1.36-11.15-2.04-16.72
			C392.61,265.52,393.31,265.44,394.02,265.35z"/>
		<path d="M386.73,148.76c8.41,3.75,9.59,6.13,8.29,17.03C392.56,158.88,394.86,151.22,386.73,148.76z"/>
		<path d="M370.86,296.28c-4.06,3.36-7.96,6.6-11.87,9.84C359.69,300.92,364.34,297.12,370.86,296.28z"/>
		<path class="st11" d="M449.7,324.52c0,5.71,0,10.64,0,16.93c-38.05,0.72-75.49,1.43-113.3,2.15c-0.63-5.3-1.17-9.83-1.79-15.06
			c6.34-0.48,12.5-1.24,18.67-1.35c29.81-0.52,59.62-0.84,89.43-1.31C444.66,325.85,446.6,325.14,449.7,324.52z"/>
		<path class="st11" d="M884.28,132.23c10.95,2.99,21.19,5.78,30.91,8.43c0,8.9,0,17.49,0,27.16c-10.16-3.16-19.25-5.9-28.25-8.9
			c-1.13-0.38-2.51-2.13-2.54-3.28C884.17,148.22,884.28,140.79,884.28,132.23z"/>
		<path class="st11" d="M807.97,151.71c-7.79-3.6-15.2-7.01-22.6-10.44c-2.82-1.31-4.43-2.68-2.96-6.5
			c1.15-3.01,0.57-6.69,0.82-11.18c6.75,3.51,12.86,6.69,18.98,9.86c1.38,0.72,3.08,1.09,4.13,2.13c1.36,1.34,3.09,3.18,3.12,4.83
			C809.52,143.96,808.59,147.52,807.97,151.71z"/>
		<path class="st11" d="M743.27,97.79c0,4.94,0,8.98,0,13.3c-5.4-1.47-10.63-2.62-15.63-4.41c-1.44-0.52-2.89-2.76-3.15-4.41
			c-0.5-3.15-0.14-6.43-0.14-10.42C730.89,93.91,737.14,95.87,743.27,97.79z"/>
		<path class="st11" d="M356.61,18.13c-0.6,0.72-1.12,1.99-1.8,2.08c-6.51,0.87-13.04,1.54-20.1,2.33
			c2.26-4.58,4.52-9.14,7.18-14.54c4.58,4.46,15.51-1.88,14.55,10.35C356.43,18.36,356.61,18.13,356.61,18.13z"/>
		<path class="st11" d="M226.03,213.64c-3.58,4.4-7.19,8.78-10.7,13.24c-1.11,1.41-1.93,3.05-2.85,4.6
			c-7.14,11.97-8.62,12.28-21.12,3.95c3.36-5.65,6.74-11.33,10.11-17c4.92-6.2,10.02-12.25,14.71-18.62
			c5.87-7.98,9.17-8.87,18.88-3.79C232.05,201.88,229.04,207.76,226.03,213.64z"/>
		<path class="st11" d="M648.38,53.64c0.4-2.18,0.83-4.5,1.31-7.07c6.11,1.97,8.57,5.62,7.09,12.14
			C653.93,56.99,651.33,55.42,648.38,53.64z"/>
		<path class="st419" d="M609.31,341.09c-0.9,1.27-1.54,2.86-3.38,2.96c-0.12,0.01-0.32-1.44-0.48-2.21c0,0-0.1,0.04-0.1,0.04
			C606.65,341.53,607.58,339.29,609.31,341.09z"/>
		<path class="st161" d="M606.92,364.36c-0.58-2.06-0.74-4-0.01-6.46C607.72,360.42,607.5,362.44,606.92,364.36z"/>
		<path class="st420" d="M609.31,341.09c-1.55-0.89-2.43,1.59-3.96,0.79c0.94-1.56,1.78-3.32,4.1-1.92
			C609.41,340.34,609.36,340.72,609.31,341.09z"/>
		<path class="st113" d="M606.04,376.35c1.75,1.12,1.39,2.67,1.43,4.88C605.67,379.46,606.98,377.56,606.04,376.35z"/>
		<path class="st421" d="M613.78,292.17c1.07,1.31,0.61,2.65,0.4,4.31C613.05,294.89,613.61,293.53,613.78,292.17z"/>
	</g>
</g>
</svg>
