<?xml version="1.0" encoding="utf-8"?>
<!-- Generator: Adobe Illustrator 23.0.3, SVG Export Plug-In . SVG Version: 6.00 Build 0)  -->
<svg version="1.1" id="Capa_1" xmlns="http://www.w3.org/2000/svg" xmlns:xlink="http://www.w3.org/1999/xlink" x="0px" y="0px"
	 viewBox="0 0 842 493" style="enable-background:new 0 0 842 493;" xml:space="preserve">
<style type="text/css">
	.st0{fill:#FFFFFF;}
</style>
<g>
	<path class="st0" d="M2.6,318.25c0-104.4,0-208.8,0-313.2c17.28-0.16,34.56-0.31,51.84-0.47c6.96-0.06,13.91-0.17,20.87-0.16
		c2.63,0,5.27,0.26,7.99,0.41c-0.57,3.25-1.16,5.98-1.51,8.75c-1.19,9.49-3.85,18.62-6.62,27.73c-2.31,7.6-4.71,15.18-6.11,23.04
		c-0.65,3.63-1.49,7.24-2.52,10.79c-1.31,4.5-2.95,8.91-4.35,13.39c-3.6,11.55-7.19,23.1-10.71,34.68
		c-3.19,10.49-6.56,20.93-9.35,31.53c-2.34,8.87-3.95,17.93-5.9,26.9c-1.31,6.02-2.6,12.04-4,18.04c-2.31,9.92-4.7,19.83-7.07,29.74
		c-2.34,9.81-4.69,19.61-7.02,29.42c-1.94,8.17-3.78,16.37-5.83,24.52c-1.81,7.16-3.84,14.27-5.81,21.39
		C5.23,309.25,3.9,313.75,2.6,318.25z"/>
	<path class="st0" d="M2.6,386.28c0-20.66,0-41.31,0-61.97c0.22-0.5,0.52-0.99,0.66-1.51c2.29-8.43,4.57-16.86,6.84-25.3
		c1.95-7.25,4.08-14.45,5.8-21.75c4.31-18.32,8.41-36.69,12.65-55.02c2.07-8.95,4.39-17.84,6.39-26.8
		c2.22-9.94,4.05-19.96,6.34-29.89c1.89-8.17,4.08-16.28,6.37-24.36c2.07-7.32,4.47-14.54,6.7-21.82
		c3.37-11.03,6.72-22.06,10.06-33.1c2.43-8.03,5.16-15.92,6.86-24.21c2.15-10.51,5.64-20.74,8.4-31.12
		c1.18-4.43,2.04-8.94,2.94-13.44c0.74-3.71,1.32-7.44,2-11.33c5.44,0.05,10.51-0.34,15.96,0.23c-1.28,5.41-2.33,10.44-3.66,15.39
		c-2.12,7.89-4.42,15.72-6.65,23.58c-1.19,4.2-2.5,8.37-3.53,12.6c-1.83,7.5-3.36,15.08-5.25,22.56c-2.36,9.33-5.3,18.53-7.38,27.93
		c-3.6,16.32-8.29,32.33-13.06,48.32c-1.54,5.15-3.45,10.19-4.85,15.38c-1.8,6.69-3.11,13.52-4.9,20.22
		c-2.78,10.38-5.78,20.71-8.7,31.05c-1.76,6.25-3.67,12.46-5.3,18.74c-3.01,11.59-5.88,23.22-8.8,34.83
		c-1.8,7.17-3.76,14.31-5.36,21.52c-3.15,14.21-6.12,28.46-9.14,42.7c-1.19,5.58-2.19,11.21-3.5,16.76
		c-2.12,8.94-4.42,17.83-6.69,26.73C3.53,384.27,3,385.26,2.6,386.28z"/>
	<path d="M2.6,386.28c0.4-1.02,0.92-2.01,1.19-3.06c2.27-8.9,4.57-17.8,6.69-26.73c1.32-5.55,2.32-11.18,3.5-16.76
		c3.02-14.24,5.99-28.49,9.14-42.7c1.6-7.22,3.56-14.35,5.36-21.52c2.92-11.61,5.79-23.24,8.8-34.83c1.63-6.28,3.54-12.49,5.3-18.74
		c2.92-10.35,5.92-20.67,8.7-31.05c1.79-6.7,3.1-13.52,4.9-20.22c1.4-5.19,3.31-10.23,4.85-15.38c4.78-15.99,9.47-32,13.06-48.32
		c2.07-9.39,5.02-18.59,7.38-27.93c1.89-7.48,3.42-15.06,5.25-22.56c1.03-4.24,2.34-8.41,3.53-12.6c2.22-7.86,4.53-15.69,6.65-23.58
		c1.33-4.95,2.39-9.98,3.66-15.39C95.11,4.32,90.04,4.72,84.6,4.66c-0.68,3.88-1.26,7.62-2,11.33c-0.9,4.5-1.76,9.01-2.94,13.44
		c-2.76,10.39-6.24,20.62-8.4,31.12c-1.7,8.29-4.44,16.19-6.86,24.21c-3.34,11.04-6.69,22.07-10.06,33.1
		c-2.22,7.28-4.62,14.5-6.7,21.82c-2.29,8.07-4.48,16.18-6.37,24.36c-2.29,9.92-4.12,19.95-6.34,29.89c-2,8.96-4.32,17.85-6.39,26.8
		c-4.24,18.34-8.34,36.7-12.65,55.02c-1.72,7.3-3.85,14.5-5.8,21.75c-2.27,8.43-4.55,16.87-6.84,25.3
		c-0.14,0.52-0.44,1.01-0.66,1.51c0-2.02,0-4.04,0-6.06c1.3-4.5,2.63-9,3.88-13.51c1.97-7.12,4-14.23,5.81-21.39
		c2.06-8.14,3.89-16.34,5.83-24.52c2.33-9.81,4.68-19.61,7.02-29.42c2.36-9.91,4.75-19.82,7.07-29.74c1.4-6,2.69-12.02,4-18.04
		c1.95-8.97,3.57-18.03,5.9-26.9c2.79-10.6,6.16-21.04,9.35-31.53c3.52-11.57,7.11-23.13,10.71-34.68c1.4-4.48,3.04-8.89,4.35-13.39
		c1.03-3.54,1.87-7.16,2.52-10.79c1.41-7.85,3.8-15.43,6.11-23.04c2.77-9.11,5.43-18.24,6.62-27.73c0.35-2.77,0.94-5.5,1.51-8.75
		c-2.72-0.15-5.35-0.41-7.99-0.41c-6.96-0.01-13.91,0.1-20.87,0.16C37.16,4.74,19.88,4.89,2.6,5.05c0-0.56,0-1.12,0-2.02
		c0.54,0,1.11,0,1.68,0c279.07,0,558.15,0,837.22,0c0.79,0,1.57,0.04,2.36-0.01c1.33-0.07,0.4,0.93,0.67,1.36
		c-10.04,0-20.09,0-30.69,0c1.78,5.79,3.45,11.1,5.03,16.42c1.63,5.46,3.14,10.95,4.77,16.41c1.6,5.34,2.96,10.79,5.03,15.95
		c2.08,5.18,3.01,10.79,5.77,16.36c1.96-2.73,3.5-4.89,5.06-7.04c1.67-2.31,3.35-4.61,5.03-6.92c0,1.35,0,2.69,0,4.04
		c-1.34,2.15-2.72,4.27-3.99,6.46c-0.77,1.33-1.13,2.96-3.08,3.17c-0.37,0.04-0.76,0.45-1.02,0.79
		c-4.47,5.73-8.96,11.45-13.33,17.26c-0.59,0.79-0.82,2.12-0.67,3.13c0.25,1.74,0.86,3.44,1.42,5.12
		c3.25,9.73,7.09,19.26,8.01,29.68c0.61,6.88,2,13.7,3.16,20.52c1.16,6.83,2.48,13.64,3.73,20.46c1.17,6.38,2.26,12.77,3.55,19.13
		c0.53,2.59,1.48,5.1,2.23,7.65c0,2.92,0,5.84,0,8.76c-1.35-4.61-2.83-9.19-4.02-13.84c-2.59-10.11-4.15-20.4-5.71-30.71
		c-1.66-11.07-3.8-22.08-6.13-33.03c-1.96-9.19-4.51-18.26-6.79-27.38c-0.46-1.84-0.99-3.68-1.31-5.54
		c-0.31-1.79-0.18-3.49,1.06-5.08c3.17-4.06,6.14-8.28,9.33-12.32c1.19-1.5,1.33-2.5,0.52-4.42c-2.03-4.84-3.61-9.88-5.11-14.91
		c-4.81-16.08-9.49-32.2-14.25-48.31c-0.15-0.52-0.52-0.98-1.02-1.91C664.19,4.58,517.09,4.9,370.07,5.22
		c-0.27,0.61-0.54,0.92-0.5,1.19c0.79,5.49-1.04,10.63-2.07,15.87c-0.84,4.29-1.73,8.56-2.61,12.84
		c-1.19,5.81-2.36,11.63-3.62,17.43c-1.16,5.36-2.4,10.7-3.65,16.03c-0.14,0.59-0.57,1.11-0.86,1.66l0.07,0.07
		c0.76-4.18,1.47-8.37,2.31-12.53c2.39-11.96,4.83-23.92,7.26-35.88c0.67-3.29,1.53-6.54,2.01-9.86c0.29-2.01,0.03-4.1,0.02-5.97
		c-0.77-0.36-1.06-0.59-1.37-0.63c-6.86-0.99-6.88-0.83-8.41,5.8c-1.28,5.56-3.03,11-4.45,16.53c-0.67,2.59-1.03,5.25-1.57,7.87
		c-0.2,0.98-0.55,1.93-0.76,2.91c-0.16,0.75-0.38,1.54-0.27,2.27c1.8,11.66,2.41,23.4,2.74,35.17c0.06,2.13,0.02,2.16-1.53,3.61
		c0.22-8.12,0.52-16.24-0.72-24.33c-0.72-4.73-1.29-9.49-1.92-14.24c-0.03-0.2,0.04-0.43,0.09-0.63c2.35-9.42,4.71-18.84,7.06-28.26
		c0.53-2.14,1-4.29,1.63-6.99c-2.75,0-5.17-0.04-7.59,0.02c-1.2,0.03-1.92,0.8-1.83,1.97c0.12,1.52,0.01,3.33,0.8,4.47
		c1.7,2.47,0.82,4.49-0.06,6.95c-0.36-0.43-0.62-0.61-0.59-0.71c0.81-2.99-0.33-5.55-1.52-8.2c-0.56-1.25-0.42-2.81-0.62-4.41
		c-0.55-0.08-1.31-0.27-2.07-0.27c-8.64-0.07-17.28-0.12-25.92-0.17c-0.9,0-1.79,0.08-2.69,0.08c-1.33,0-1.35,0.87-1.26,1.83l0.03,0
		c-0.18-0.75-0.37-1.49-0.49-1.98c-3.29,0-6.35,0-9.27,0c0.62,3.41,1.19,6.52,1.75,9.63c-2.5-2.55-3.61-5.67-4.24-9.46
		c-8.21-0.18-16.47-0.07-24.69-0.64c-7.96-0.55-15.91,0.65-23.89-0.12c0.7,4.08-0.54,7.93-1.82,11.81
		c-1.02-1.21-0.31-2.42-0.11-3.62c0.22-1.32,0.48-2.64,0.58-3.97c0.1-1.3,0.02-2.62,0.02-4.29c-6.44-0.17-12.66-0.47-18.88-0.48
		c-17.84-0.02-35.68,0.05-53.53,0.15c-3.9,0.02-7.79,0.43-11.69,0.44c-7.22,0.02-14.44-0.18-21.66-0.16
		c-4.25,0.01-8.5,0.37-12.76,0.41c-10.14,0.1-20.28,0.1-30.42,0.16c-0.87,0.01-1.74,0.17-2.32,0.23
		c-2.24,8.51-4.33,16.75-6.59,24.93c-1.93,7-4.24,13.91-6.06,20.93c-1.86,7.15-3.28,14.42-5.01,21.61
		c-0.95,3.91-2.26,7.73-3.23,11.64c-3.66,14.78-7.16,29.6-10.9,44.36c-1.48,5.86-3.46,11.59-5.18,17.39
		c-2.61,8.8-5.32,17.57-7.75,26.42c-3.02,11.01-5.69,22.11-8.69,33.13c-3.76,13.83-7.79,27.59-11.52,41.43
		c-2.53,9.41-4.82,18.88-7.05,28.36c-3.64,15.48-7.17,31-10.7,46.51c-1.77,7.76-3.5,15.53-5.16,23.31
		c-0.98,4.59-1.65,9.25-2.72,13.83c-1.29,5.56-2.91,11.04-4.27,16.58c-1.28,5.21-2.4,10.46-3.63,15.69
		c-0.28,1.18-0.76,2.3-1.15,3.45C2.6,391.67,2.6,388.97,2.6,386.28z"/>
	<path class="st0" d="M844.54,192.97c-0.76-2.55-1.71-5.05-2.23-7.65c-1.29-6.35-2.38-12.75-3.55-19.13
		c-1.25-6.82-2.56-13.63-3.73-20.46c-1.16-6.82-2.55-13.64-3.16-20.52c-0.92-10.42-4.76-19.95-8.01-29.68
		c-0.56-1.68-1.17-3.38-1.42-5.12c-0.14-1,0.08-2.34,0.67-3.13c4.36-5.81,8.86-11.53,13.33-17.26c0.26-0.33,0.65-0.75,1.02-0.79
		c1.95-0.21,2.31-1.84,3.08-3.17c1.28-2.18,2.66-4.31,3.99-6.46C844.54,104.06,844.54,148.51,844.54,192.97z"/>
	<path class="st0" d="M844.54,55.57c-1.68,2.31-3.36,4.61-5.03,6.92c-1.56,2.15-3.1,4.31-5.06,7.04
		c-2.75-5.57-3.69-11.18-5.77-16.36c-2.07-5.16-3.43-10.61-5.03-15.95c-1.63-5.46-3.15-10.95-4.77-16.41
		c-1.59-5.33-3.26-10.63-5.03-16.42c10.6,0,20.65,0,30.69,0C844.54,21.44,844.54,38.5,844.54,55.57z"/>
	<path d="M191.97,40.21c0.12,0.91,0.54,1.37,1.54,1.34c7.15-0.23,14.3-0.62,21.44-0.59c14.79,0.05,29.57,0.41,44.36,0.47
		c4.13,0.02,8.26-0.73,12.4-0.8c8.4-0.14,16.8,0,25.2-0.08c11.66-0.11,23.31-0.33,34.97-0.46c5.35-0.06,10.7-0.01,16.11,0.43
		c-0.66,0.15-1.32,0.43-1.98,0.43c-5.04,0-10.09-0.19-15.13-0.08c-8.39,0.19-16.78,0.71-25.18,0.79
		c-8.51,0.09-17.03-0.29-25.54-0.27c-6.16,0.01-12.31,0.4-18.47,0.5c-7.84,0.13-15.68,0.27-23.52,0.19
		c-8.63-0.09-17.25-0.54-25.87-0.6c-5.81-0.04-11.63,0.27-17.44,0.51c-2.08,0.09-3.25,1.41-3.44,3.84c-0.23,3-0.38,6.02-0.43,9.03
		c-0.08,5.83-0.07,11.66-0.09,17.49c0,1.01,0.01,2.02,0.05,3.03c0.23,6.15,0.76,6.66,6.72,6.74c4.37,0.06,8.74,0.23,13.12,0.25
		c2.57,0.01,5.13-0.18,7.7-0.27c0.63-0.02,1.26,0,1.89,0c0,0.22,0,0.45,0,0.67c-8.49,0.06-16.98,0.15-25.47,0.17
		c-3.84,0.01-4.84-0.85-4.89-4.71c-0.1-7.96-0.01-15.92,0.01-23.87c0.01-2.35-0.19-4.74,0.14-7.05c0.34-2.38,1.22-4.68,1.86-7.01
		L191.97,40.21z"/>
	<path d="M291.77,80.49c19.22,0,38.43,0,57.76,0c-1.18,0.19-2.34,0.52-3.5,0.56c-7.38,0.23-14.77,0.52-22.15,0.57
		c-10.52,0.07-21.05-0.04-31.57-0.09c-0.19,0-0.38-0.18-0.57-0.28C291.75,80.99,291.76,80.74,291.77,80.49z"/>
	<path d="M288.83,81.42c-14.7,0.37-29.39,0.75-44.09,1.12c0-0.14-0.01-0.29-0.01-0.43c14.72-0.45,29.45-0.91,44.17-1.36
		C288.88,80.97,288.85,81.2,288.83,81.42z"/>
	<path d="M284.3,20.19c-0.28-3.55-0.67-7.1-0.81-10.66c-0.09-2.37,0.09-2.41,1.71-3.3c0.23,2.68,0.65,5.52,0.65,8.36
		c0,1.91-0.6,3.82-0.94,5.73C284.71,20.28,284.51,20.24,284.3,20.19z"/>
	<path d="M267.55,16.12c-0.56,1.37-1.13,2.74-1.88,4.59c-0.1-1.01-0.21-1.67-0.21-2.33c-0.01-3-0.03-5.99,0.05-8.99
		c0.02-0.83,0.35-1.65,0.53-2.47c0.25,0.01,0.5,0.02,0.75,0.02c0.25,3.08,0.5,6.16,0.75,9.25L267.55,16.12z"/>
	<path d="M195.02,27.03c1.28-4.71,2.53-9.43,3.87-14.13c0.22-0.77,0.86-1.43,1.31-2.14l-0.05-0.07c-1.23,4.47-2.42,8.95-3.73,13.4
		c-0.29,1.01-0.97,1.9-1.46,2.86C194.97,26.96,195.02,27.03,195.02,27.03z"/>
	<path d="M324.63,17.84c0.58-0.89,1.04-1.91,1.77-2.64c0.46-0.46,1.38-0.74,2.04-0.66c4.03,0.51,4.03,0.55,6.58-2.64
		c-0.66,2.67-2.62,4.76-4.81,4.1c-2.68-0.8-3.89,0.34-4.99,2.48C325.02,18.27,324.82,18.05,324.63,17.84z"/>
	<path d="M240.82,82.67c-4.55,0-9.11,0-13.66,0c0-0.14,0-0.29,0-0.43c4.55,0,9.11,0,13.66,0C240.82,82.38,240.82,82.53,240.82,82.67
		z"/>
	<path d="M315.6,6.7c-2.6,1.42-2.87,4.01-3.2,6.54c-0.11,0.86-0.02,1.75-0.02,2.99c-2.27-1.43-1.6-3.29-1.17-4.8
		c0.64-2.22,1.4-4.59,4.41-4.72C315.63,6.7,315.6,6.7,315.6,6.7z"/>
	<path d="M302.09,22.66c0.39-2.33,2.5-3,3.96-4.47c1.75,0.69,3.43,1.35,5.12,2.02c-0.02,0.12-0.05,0.24-0.07,0.36
		c-1.7-0.31-3.5-1.12-5.05-0.78C304.59,20.1,303.4,21.65,302.09,22.66z"/>
	<path d="M300.37,23.41c-1,0.62-1.93,1.4-3,1.84c-3.74,1.52-3.76,1.47-5.84,4.28c0.18-2.66,1.51-3.84,3.6-4.52
		c1.67-0.54,3.28-1.28,4.91-1.93C300.15,23.18,300.26,23.29,300.37,23.41z"/>
	<path d="M192.04,40.28c0.64-3.13,1.25-6.27,1.93-9.39c0.28-1.3,0.71-2.56,1.06-3.85c-0.01-0.01-0.06-0.08-0.07-0.09
		c-0.34,4.56-1.08,9.04-3,13.25C191.97,40.21,192.04,40.28,192.04,40.28z"/>
	<path d="M265.17,30.09c-1.11-0.08-2.32,0.1-3.32-0.28c-2.46-0.93-4.9-1.28-7.46-0.66l0.08,0.07c1.37-1.83,3.12-1.93,5.09-1.16
		c1.84,0.72,3.7,1.4,5.55,2.1C265.11,30.18,265.17,30.09,265.17,30.09z"/>
	<path d="M223.99,28.18c1.41-0.9,2.54-1.63,4.07-2.61c-0.15,0.87-0.06,1.59-0.36,1.87C226.71,28.35,225.66,29.46,223.99,28.18z"/>
	<path d="M323.3,28.23c1.87,2.12,2.14,3.9,1.08,6.61C323.98,32.39,323.69,30.64,323.3,28.23z"/>
	<path d="M233.86,23.37c-1.64-0.56-3.29-1.12-4.93-1.68c0.08-0.22,0.16-0.45,0.24-0.67c1.63,0.59,3.27,1.18,4.9,1.77
		C234,22.98,233.93,23.17,233.86,23.37z"/>
	<path d="M337.95,30.83c-0.73-1.86-0.22-3.15,1.93-4.39C339.07,28.3,338.51,29.57,337.95,30.83z"/>
	<path d="M222.42,18.82c1.29,0,2.57,0,3.86,0c0,0.1,0,0.2,0,0.29c-1.34,0-2.67,0-4.01,0C222.32,19.02,222.37,18.92,222.42,18.82z"/>
	<path d="M200.2,10.76c0.12-1.5,0.25-3,0.37-4.5c0.25,0.04,0.5,0.08,0.74,0.12c-0.39,1.43-0.79,2.86-1.17,4.3
		C200.15,10.69,200.2,10.76,200.2,10.76z"/>
	<path d="M239.53,14.81c0.41-1.24,0.82-2.48,1.23-3.72c0.21,0.07,0.43,0.13,0.64,0.2c-0.41,1.24-0.83,2.48-1.24,3.72
		C239.95,14.93,239.74,14.87,239.53,14.81z"/>
	<path d="M265.11,30.18c0.7-0.37,1.4-0.74,2.69-1.43c-0.3,1.25-0.49,2.02-0.72,2.98c-0.76-0.66-1.33-1.15-1.9-1.64
		C265.17,30.09,265.11,30.18,265.11,30.18z"/>
	<path d="M356.76,70.24c-0.12,1.36-0.24,2.72-0.36,4.08c-0.83-1.52-0.66-2.87,0.43-4.02C356.83,70.31,356.76,70.24,356.76,70.24z"/>
	<path d="M223.12,32.09c-0.58,0.74-1.09,1.38-1.6,2.02c-0.15-0.09-0.3-0.19-0.45-0.28c0.39-0.71,0.77-1.42,1.18-2.12
		C222.26,31.7,222.55,31.85,223.12,32.09z"/>
	<path d="M340.86,17.96c0.27-1.12,0.53-2.24,0.8-3.36c0.21,0.04,0.42,0.08,0.63,0.13c-0.22,1.17-0.43,2.35-0.65,3.52
		C341.38,18.15,341.12,18.06,340.86,17.96z"/>
	<path d="M267.53,16.19c0.16,1.28,0.31,2.56,0.47,3.84c-0.15,0.01-0.31,0.03-0.46,0.04c0-1.31,0-2.62,0.01-3.94
		C267.55,16.12,267.53,16.19,267.53,16.19z"/>
	<path d="M219,10.09c-0.48-0.25-0.96-0.5-1.44-0.75c0.09-0.18,0.18-0.36,0.27-0.54c0.5,0.21,1,0.43,1.5,0.64
		C219.23,9.66,219.11,9.87,219,10.09z"/>
	<path d="M254.39,29.16c-0.36,0.79-0.72,1.59-1.08,2.38c-0.2-0.12-0.41-0.24-0.61-0.36c0.59-0.65,1.18-1.29,1.77-1.94
		C254.47,29.23,254.39,29.16,254.39,29.16z"/>
</g>
</svg>
