<?xml version="1.0" encoding="utf-8"?>
<!-- Generator: Adobe Illustrator 23.0.3, SVG Export Plug-In . SVG Version: 6.00 Build 0)  -->
<svg version="1.1" id="Capa_1" xmlns="http://www.w3.org/2000/svg" xmlns:xlink="http://www.w3.org/1999/xlink" x="0px" y="0px"
	 viewBox="0 0 842 493" style="enable-background:new 0 0 842 493;" xml:space="preserve">
<style type="text/css">
	.st0{fill:#FFFFFF;}
</style>
<g>
	<path d="M144.87,91.45c3.16-6.71,6.33-13.42,9.47-20.14c5.23-11.21,10.02-22.6,14.23-34.24c2.91-8.03,6.27-15.89,9.35-23.85
		c1.54-3.98,2.91-8.03,4.33-12.06c0.17-0.5,0.16-1.06,0.28-1.95c-1.31,0-2.41,0-3.52,0c-59.3,0-118.6,0-177.9,0.02
		c-1.01,0-2.02,0.1-3.03,0.15c0.11-0.23,0.21-0.64,0.34-0.65c0.9-0.06,1.8-0.03,2.7-0.03c279.92,0,559.83,0,839.75,0.04
		c0.99,0,2.29-0.78,3.05,0.63c-10.93,0.02-21.85,0.08-32.78,0.07c-53.11-0.07-106.22-0.15-159.32-0.23c-1.23,0-2.45,0-4.01,0
		c0.33,1.11,0.47,1.86,0.76,2.54c5.37,12.16,10.56,24.4,16.19,36.44c4.44,9.47,9.38,18.71,14.2,28.01
		c6.31,12.2,12.73,24.35,19.08,36.53c2.5,4.79,4.96,9.6,7.42,14.41c0.3,0.58,0.72,1.19,0.74,1.79c0.19,4.94,0.29,9.88,0.43,14.82
		c0.06,2.21-1.59,2.07-3.5,2.08c1.05,24.91,0.81,49.66,1.68,74.55c1.35,0.12,2.22,0.24,3.09,0.27c10.02,0.36,20.03,0.71,30.05,1.04
		c1.24,0.04,2.48,0.01,3.71-0.08c2.1-0.16,3.58,0.53,4.74,2.44c5.73,9.44,11.19,19.02,15.86,29.04
		c7.27,15.64,15.52,30.76,24.3,45.59c8.54,14.44,17.01,28.93,25.46,43.43c5.9,10.12,11.62,20.33,17.58,30.41
		c3.61,6.11,7.52,12.03,11.27,18.05c1.06,1.7,2.04,3.46,3.05,5.19c0,1.35,0,2.71,0,4.06c-0.75-0.79-1.67-1.47-2.22-2.39
		c-5.3-8.9-10.59-17.8-15.79-26.76c-7.19-12.36-14.28-24.78-21.46-37.16c-5.48-9.44-11.07-18.82-16.52-28.28
		c-6.19-10.73-12.28-21.51-18.4-32.28c-5.4-9.5-10.28-19.23-14.57-29.31c-2.76-6.49-6.75-12.45-10.29-18.6
		c-0.37-0.65-1.39-1.24-2.15-1.29c-7.19-0.5-14.38-1.24-21.57-1.21c-15.1,0.07-30.2,0.58-45.29,0.87c-8.9,0.17-17.81,0.35-26.71,0.4
		c-5.07,0.03-10.14-0.24-15.21-0.26c-13.75-0.07-27.5-0.15-41.25-0.08c-12.62,0.06-25.25,0.31-37.87,0.46
		c-21.75,0.26-43.51,0.36-65.25,0.82c-17.57,0.37-35.13,1.18-52.7,1.79c-9.91,0.34-19.82,0.67-29.73,0.96
		c-12.05,0.36-24.09,0.65-36.14,1.02c-2.58,0.08-5.16,0.49-7.74,0.56c-4.73,0.12-9.46,0.12-14.18,0.13
		c-10.6,0.02-21.2-0.15-31.79,0.08c-10.02,0.22-20.02,0.82-30.03,1.31c-2.91,0.14-5.81,0.51-8.71,0.77
		c-0.02-0.22-0.04-0.43-0.06-0.65c5.66-0.42,11.32-0.93,16.98-1.25c5.96-0.33,11.93-0.54,17.9-0.7c5.86-0.15,11.72-0.13,17.58-0.27
		c5.83-0.14,11.66-0.4,17.77-0.61c0.14-4.76,0.48-9.35,0.38-13.93c-0.25-11.82-0.71-23.64-1.04-35.46
		c-0.23-7.99-0.39-15.98-0.6-23.98c-0.01-0.54-0.19-1.09-0.3-1.68c-0.51-0.1-0.94-0.27-1.37-0.27c-7.09-0.03-14.17-0.06-21.26-0.04
		c-8.23,0.02-16.45,0-24.68,0.15c-8.1,0.15-16.2,0.42-24.3,0.74c-9.77,0.38-19.54,0.87-29.32,1.3c-0.67,0.03-1.35-0.07-2.69-0.16
		c34.96-1.8,69.25-3.68,103.88-3.44c1.1-5.11,0.51-10.06,1.2-15.38c-2.57-0.13-4.88-0.39-7.19-0.35c-5.52,0.1-11.04,0.32-16.55,0.54
		c-8.1,0.31-16.2,0.75-24.31,0.96c-5.95,0.15-11.9,0.03-17.87-0.08c21.83-0.92,43.67-1.83,65.51-2.75c0.23-0.91,0.46-1.43,0.48-1.96
		c0.31-7.09,0.57-14.18,0.91-21.26c0.13-2.58,0.45-5.16,0.68-7.74c0.4-4.37,0.74-8.74,1.22-13.1c0.58-5.3,1.73-10.46,4.61-15.04
		c4.29-6.84,10.63-10.64,18.57-11.33c5.08-0.44,8.61-2.61,10.97-7.04c0.98-1.84,2.25-3.53,3.4-5.32c-1.74-1.44-3.32-1.06-4.85-0.86
		c-3.65,0.46-7.2,0.26-10.47-1.66c-0.36-0.21-0.64-0.55-0.77-1.31c0.64,0.15,1.35,0.18,1.92,0.47c2.51,1.29,5.19,1.59,7.9,1.15
		c4.75-0.76,9.44-0.02,14.12,0.53c4.44,0.53,8.73,0.68,12.83-1.52c0.96-0.51,2.14-0.63,3.24-0.83c1.66-0.3,3.45-0.24,4.99-0.84
		c2.96-1.15,5.6-0.99,8.4,0.54c0.92,0.51,2.5,0.39,3.55-0.02c3.99-1.55,7.51-0.55,11.41,0.78c4.8,1.64,9.92,1.55,14.58-1.25
		c2.66-1.6,2.89-1.57,5.26,0.45c1.55,1.32,5.44,0.77,7.33-1.06c0.61-0.59,1.16-1.25,2.24-2.44c-0.17,1.43-0.25,2.14-0.4,3.43
		c0.7-0.85,1.39-1.31,1.5-1.88c0.35-1.87,0.7-3.78,0.66-5.67c-0.1-4.39-0.26-8.8-0.71-13.16c-0.3-2.89-1.14-5.72-1.71-8.58
		c-0.31-1.54-0.6-3.08-0.82-4.63c-0.16-1.09-0.19-2.2-0.3-3.51c-1.87,0-3.48,0-5.19,0c-0.09,1.34-0.17,2.51-0.27,4.02
		c-2.02-0.95-1.25-2.71-1.88-4.07c-6.53,0-13.14,0-20.19,0c0.33,0.97,0.38,1.95,0.9,2.47c1.56,1.55,1.71,3.42,1.34,5.33
		c-0.5,2.56-1.25,5.08-1.89,7.62c-0.3-0.05-0.6-0.1-0.9-0.15c0.12-1.01,0.17-2.02,0.36-3.01c0.28-1.43,0.66-2.84,1.01-4.26
		c0.43-1.75,0.16-3.28-1.02-4.74c-0.75-0.94-1.19-2.13-1.83-3.31c-2.66,0-5.34,0-8.23,0c-0.5,2.18-0.56,4.68-3.47,6
		c0.29-2.23,2.71-3.58,1.37-5.93c-3.06,0-6.29,0-9.45,0c-1.32,1.58-0.62,3.99-2.82,5.18c0.23-1.68,0.47-3.36,0.72-5.15
		c-2.67,0-5.18,0-8.29,0c1.41,1.67,1.55,3.12,1.1,4.76c-0.86,3.19-0.17,6.22,1.34,9.12c0.46,0.88,0.8,1.88,0.95,2.86
		c0.19,1.29-0.16,2.43-1.94,2.96c-0.81-6.65-3.18-12.87-2.43-19.72c-1.81,0-3.22,0-4.63,0c-0.69,1.93-1.34,3.76-1.99,5.59
		c-0.27-0.08-0.54-0.16-0.81-0.24c0.37-1.68,0.74-3.36,1.17-5.32c-2.15,0-4.1,0-6.41,0c-0.47,6.13,0.49,12.7-4.28,18.07
		c-1-1.49-0.46-2.43,0.2-3.37c1.71-2.43,2.04-5.15,1.82-8.05c-0.16-2.11-0.03-4.25-0.03-6.64c-1.58,0-3.2,0-5.06,0
		c-1.46,4.15,0.13,8.76-1.82,12.91c0-4.19,0-8.38,0-12.88c-1.67,0-3.49,0-5.52,0c-2.51,11.15-3.31,22.61-5.2,33.87
		c-0.31-0.02-0.63-0.05-0.94-0.07c-0.08-0.58-0.28-1.16-0.23-1.73c0.38-4.15,0.78-8.29,1.23-12.43c0.07-0.64,0.43-1.24,0.55-1.87
		c0.24-1.28,0.75-2.63,0.55-3.85c-0.41-2.57,0.04-4.92,0.96-7.26c0.12-0.31,0.34-0.59,0.46-0.9c2.02-5.01,0.76-6.62-4.63-6.08
		c-1.4,0.14-2.19,0.88-2.28,2.02c-0.15,1.99-0.05,4.01,0.1,6.01c0.27,3.7,0.67,7.39,0.96,11.09c0.03,0.33-0.35,0.69-1.11,0.99
		c-0.81-6.61-1.63-13.22-2.46-19.93c-1.68,0-3,0-4.66,0c-0.96,4.5-1.78,9.02-1.82,13.6c-0.04,5.51,0.33,11.03,0.48,16.55
		c0.04,1.47,0.51,3.03-0.71,4.38c-0.9-5.72-1-11.47-0.8-17.2c0.2-5.7,0.79-11.38,1.22-17.19c-0.6,0-1.49,0-2.62,0
		c0.54,2.1,1.94,4.04-0.7,5.98c0-2.2,0-4.01,0-5.75c-2.23-1.07-2.72,0.13-2.87,1.61c-0.53,5.04-1.34,10.08-1.43,15.14
		c-0.11,6.41,0.37,12.83,0.62,19.25c0.06,1.62,0.58,3.06,2.16,4.41c1.5-0.97,3.03-1.86,4.44-2.91c2.64-1.97,5.36-2.68,8.42-1.03
		c-0.4,1.33-1.41,1.1-2.24,0.88c-2.19-0.59-3.95,0.21-5.67,1.45c-1.18,0.85-2.41,1.7-3.74,2.27c-2.01,0.87-3.88-0.07-4.47-2.18
		c-0.42-1.51-0.85-3.07-0.89-4.62c-0.18-6.19-0.42-12.4-0.22-18.58c0.15-4.6,0.94-9.18,1.44-13.76c0.07-0.66,0.08-1.32,0.13-2.16
		c-0.85-0.09-1.61-0.23-2.37-0.23c-49.39-0.03-98.78-0.04-148.17-0.06c-5.64,0-11.28-0.02-16.91,0.01
		c-2.87,0.01-2.85,0.06-3.89,2.71c-3.94,10.05-7.95,20.08-11.84,30.16c-2.1,5.45-3.86,11.03-6.05,16.44
		c-2.4,5.94-5.13,11.75-7.71,17.62c-2.36,5.35-4.68,10.72-7.09,16.04c-1.07,2.36-2.22,4.68-3.51,6.92
		C146.64,90.03,145.65,90.68,144.87,91.45z M433.95,38.56c2.53,3.68,5.44,7.05,8.23,10.73c6.37-0.49,12.76-1,19.15-1.48
		c5.58-0.42,10.93,0.57,16.26,2.28c4.19,1.34,6.57,4.03,7.9,8.01c2.51,7.52,3.79,15.27,4.42,23.14c0.14,1.8,0.2,3.6,0.33,5.4
		c0.42,5.83,0.75,11.66,1.32,17.47c0.59,6.02,1.43,12.01,2.18,18.17c1.35,0,2.23,0,3.12,0c9.12,0,18.24-0.02,27.37-0.01
		c4.96,0.01,9.92,0.23,14.87,0.08c12.5-0.4,24.99-0.98,37.48-1.44c9.57-0.35,19.13-0.73,28.7-0.92c9-0.18,18-0.12,26.99-0.21
		c4.62-0.04,9.24-0.09,13.85-0.29c9-0.38,17.99-0.95,26.99-1.29c8.89-0.34,17.78-0.5,26.67-0.77c1.05-0.03,2.1-0.3,3.41-0.5
		c-0.76-1.71-1.29-3.07-1.96-4.36c-1.45-2.8-3.01-5.54-4.45-8.35c-5.16-10.01-10.27-20.05-15.43-30.06
		c-5.72-11.1-11.68-22.09-17.16-33.32c-4.69-9.6-8.85-19.46-13.25-29.21c-1.85-4.09-3.72-8.17-5.58-12.25c-58.36,0-116.47,0-175.1,0
		c0.36,2.21,0.56,4.18,1.03,6.09c0.4,1.63,1.45,3.16,1.59,4.79c0.6,7.06,1.05,14.14,1.39,21.23c0.19,4.07-1.95,6.77-5.63,8.05
		c-0.97-0.37-2.14-0.92-2.87-0.57c-2.45,1.18-4.78,0.73-7.17,0.02c0-0.59,0-1.17,0-1.78c-1.27,0.47-2.45,0.76-3.48,1.33
		c-3.23,1.75-6.67,1.65-10.19,1.58c-2.41-0.05-4.67-0.13-6.82-1.42C437.01,38.07,435.74,37.25,433.95,38.56z M351.43,218.06
		c1.36,0,2.25,0.03,3.13,0c6.4-0.25,12.81-0.52,19.21-0.76c6.98-0.26,13.96-0.48,20.94-0.74c16.21-0.6,32.41-1.26,48.62-1.81
		c16.88-0.58,33.77-1.07,50.66-1.61c1.52-0.05,3.04-0.19,4.58-0.29c-0.29-5.28-0.46-10.1-0.83-14.92
		c-0.41-5.28-1.02-10.53-1.49-15.8c-0.82-9.08-1.32-18.19-2.47-27.23c-2.06-16.22-2.89-32.53-3.95-48.83
		c-0.41-6.29-0.98-12.57-1.6-18.84c-0.35-3.58-1.21-7.12-1.4-10.69c-0.3-5.83-2.06-11.27-4.11-16.6c-2.09-5.44-6.01-8.98-12.18-9.12
		c-6.18-0.14-12.37-0.15-18.56-0.14c-2.48,0-4.95,0.14-7.43,0.3c-8.99,0.56-17.98,1.19-26.98,1.73c-13.27,0.79-26.58,1.1-39.8,2.42
		c-12.73,1.27-21.37,7.87-23.92,21.39c-0.4,2.09-0.64,4.22-0.88,6.34c-1.38,12.08-2.69,24.16-2.87,36.34c-0.14,9-0.69,18-0.7,27
		c-0.01,12.94-0.49,25.89,0.46,38.84c0.67,9.09,0.49,18.24,0.77,27.36C350.68,214.13,351.11,215.88,351.43,218.06z M687.89,135.99
		c-2.5,0-4.29-0.03-6.07,0c-13.52,0.27-27.03,0.64-40.55,0.82c-15.44,0.2-30.88,0.12-46.31,0.38c-10.7,0.18-21.4,0.76-32.1,1.12
		c-4.84,0.16-9.68,0.2-14.51,0.35c-7.66,0.23-15.31,0.61-22.97,0.75c-9.01,0.17-18.02,0.13-27.03,0.23
		c-1.16,0.01-2.31,0.36-3.31,0.53c0.89,12.45,1.5,24.49,2.68,36.47c1.19,12.04,2.08,24.14,4.12,36.18c1.2,0.05,2.09,0.13,2.97,0.12
		c16.9-0.17,33.81-0.31,50.71-0.53c15.89-0.21,31.78-0.68,47.67-0.72c18.71-0.05,37.41,0.34,56.12,0.35
		c9.01,0,18.02-0.45,27.04-0.72c0.64-0.02,1.28-0.24,2.18-0.41C688.31,186.08,688.1,161.36,687.89,135.99z M494.7,138.18
		c5.6,0,11,0.03,16.4-0.01c7.09-0.05,14.19-0.03,21.28-0.26c6.75-0.22,13.49-0.8,20.24-1.09c6.98-0.3,13.96-0.45,20.94-0.63
		c10.47-0.28,20.94-0.57,31.41-0.77c5.63-0.1,11.26,0.08,16.89-0.02c9.91-0.17,19.81-0.51,29.72-0.68
		c12.39-0.22,24.77-0.3,37.16-0.51c5.15-0.09,10.3-0.36,15.61-0.56c0-5.01,0-9.55,0-14.37c-1.17,0-2.04-0.01-2.91,0
		c-8,0.13-15.99,0.25-23.99,0.41c-5.85,0.12-11.71,0.23-17.56,0.49c-10.91,0.48-21.81,1.14-32.72,1.55
		c-5.5,0.21-11.03-0.06-16.53,0.09c-21.51,0.58-43.01,1.23-64.51,1.86c-3.26,0.1-6.53,0.37-9.79,0.36
		c-10.7-0.05-21.39-0.24-32.09-0.3c-3.35-0.02-6.7,0.19-10.28,0.31C493.45,128.92,493.76,133.43,494.7,138.18z M703.09,210.52
		c0.62-6.07-1.13-72.3-1.84-74.35c-3.84,0-7.6,0-11.3,0c-0.17,0.72-0.31,1.04-0.31,1.36c-0.02,8.22-0.03,16.45-0.04,24.67
		c-0.01,9.68-0.02,19.37-0.02,29.05c0,5.29,0,10.59,0.08,15.88c0.02,1.29,0.37,2.57,0.59,4.04
		C694.69,210.95,698.81,210.74,703.09,210.52z M431.45,38.46c-2.8,1.24-5.53,0.76-8.2-0.84c-0.7-0.42-1.78-0.49-2.61-0.33
		c-3.52,0.68-7.17,1.09-10.46,2.4c-4.37,1.73-8.76,1.82-13.26,1.57c-1.46-0.08-2.92-0.27-4.37-0.46c-1.26-0.16-2.03,0.21-2.68,1.44
		c-1.16,2.17-2.6,4.2-3.95,6.26c-0.7,1.08-1.47,2.12-2.3,3.32c5.36,0.96,48.13-1.31,55.49-2.9
		C436.53,45.41,434.06,42.03,431.45,38.46z"/>
	<path d="M-1.92,412.14c1.34-2.59,2.77-5.13,3.99-7.77c4.78-10.31,9.53-20.63,14.22-30.98c4.78-10.55,9.55-21.11,14.18-31.73
		c7.06-16.21,15.32-31.82,23.46-47.5c4.4-8.49,9.09-16.84,13.53-25.31c4.43-8.47,8.73-17.01,13.02-25.56
		c2.17-4.32,4.17-8.72,6.32-13.05c0.59-1.2,1.41-2.28,1.99-3.2c14.95-0.89,29.64-1.77,44.52-2.66c0.12-0.92,0.32-1.66,0.3-2.39
		c-0.25-11.25-0.51-22.5-0.82-33.76c-0.18-6.64-0.53-13.28-0.63-19.92c-0.07-4.38,0.21-8.77,0.23-13.15
		c0.01-2.12-0.2-4.23-0.31-6.43c-1.2-0.27-2.16-0.48-3.16-0.7c-0.18-0.3-0.48-0.58-0.49-0.86c-0.05-2.47-0.12-4.94-0.04-7.41
		c0.09-2.7,0.27-5.4,0.53-8.08c0.09-0.98,0.43-1.97,0.8-2.89c2.66-6.8,5.32-13.59,8.06-20.36c2.32-5.72,4.76-11.4,7.14-17.09
		c-0.56,2.27-0.92,4.62-1.71,6.8c-2.85,7.82-5.82,15.6-8.79,23.37c-0.8,2.1-1.78,4.14-2.65,6.22c-0.29,0.69-0.5,1.41-0.82,2.33
		c0.77,0.17,1.29,0.4,1.8,0.37c10.24-0.48,20.47-1.15,30.71-1.46c9.24-0.28,18.49-0.19,27.73-0.22c8-0.03,16.01,0.11,24.01-0.02
		c5.12-0.09,10.23-0.55,15.35-0.84c0.01,0.28,0.02,0.55,0.03,0.83c-11.48,0.16-22.97,0.25-34.45,0.5c-12.5,0.28-25,1.14-37.5,0.95
		c-8.96-0.14-17.76,1.06-26.64,1.52c-0.44,0.02-0.87,0.16-1.72,0.31c-0.19,4.84-1.32,9.66-0.28,14.91c1.54,0.15,3.1,0.52,4.62,0.41
		c14.72-1,29.45-0.5,44.19-0.45c13.62,0.05,27.25-0.71,40.88-1.09c2.13-0.06,4.26-0.01,6.4,0.43c-12.95,0.4-25.89,0.92-38.84,1.18
		c-12.93,0.25-25.86,0.24-39.19,0.35c0.53,25.32,1.76,50.25,2.63,75.56c34.51,0.77,68.88-0.61,103.26-0.83
		c-4.54,0.11-9.07,0.19-13.61,0.33c-5.63,0.17-11.25,0.4-16.88,0.6c-6.75,0.24-13.51,0.55-20.26,0.67
		c-17.58,0.31-35.18,0.24-52.75,0.89c-16.32,0.61-32.62,1.98-48.92,2.97c-2.92,0.18-5.86,0.25-8.79,0.17
		c-1.94-0.05-3.07,0.64-3.97,2.4c-7.88,15.58-15.85,31.11-23.79,46.66c-9.43,18.45-18.91,36.88-28.24,55.38
		c-2.53,5.02-4.6,10.27-6.92,15.4c-9.44,20.8-18.32,41.86-28.61,62.27c-1.1,2.19-2.09,4.44-3.12,6.66
		C-1.92,415.3-1.92,413.72-1.92,412.14z M148.89,223.35c0-1.62,0.02-2.83,0-4.04c-0.21-10.36-0.33-20.72-0.67-31.07
		c-0.28-8.43-0.83-16.86-1.28-25.28c-0.26-4.92-0.56-9.84-0.84-14.7c-2.72-0.5-9.94,0-12.02,0.78c-1.21,9.61,0.29,68.92,2,75.15
		C140.09,223.92,144.2,223.66,148.89,223.35z"/>
	<path d="M444.81,25.18c-0.5-1.02-0.48-1.67,0.7-2.42c2.86-1.81,3.6-4.6,3.15-7.88c-0.36-2.65-0.52-5.33-0.72-8
		c-0.04-0.54,0.03-1.16,0.26-1.64c0.78-1.66,1.65-3.27,2.67-5.28c0.25,0.82,0.66,1.43,0.54,1.9c-1.19,4.55-0.77,9.11-0.33,13.69
		C451.38,18.61,447.7,24.22,444.81,25.18z"/>
	<path d="M399.36,37.39c0.23-1.28,0.41-2.58,0.72-3.85c0.44-1.86,0.95-3.7,1.46-5.54c0.51-1.82,0.65-3.51-0.95-4.97
		c-0.45-0.41-0.74-1.2-0.75-1.82c-0.08-3.09-0.03-6.18-0.03-9.67c0.52,0.6,1.11,0.97,1.19,1.43c0.26,1.43,0.52,2.91,0.42,4.34
		c-0.15,2.25-0.57,4.42,1.24,6.34c0.51,0.54,0.61,1.75,0.47,2.58c-0.58,3.43-1.31,6.83-2.05,10.22c-0.1,0.47-0.59,0.85-0.9,1.27
		C399.91,37.61,399.64,37.5,399.36,37.39z"/>
	<path d="M423.16,8.97c0.56,2.68,1.27,5.59,1.73,8.54c0.16,1.03,0.04,2.37-0.51,3.19c-1.41,2.06-3.15,3.9-4.84,5.94
		c-1.05-1.3-0.25-2.22,0.45-2.73c3.78-2.8,3.9-6.27,2.64-10.44C421.72,10.45,422.06,10.35,423.16,8.97z"/>
	<path d="M459.52,8.02c-0.03,0.43,0.03,0.88-0.09,1.28c-1.04,3.5-0.72,6.86,0.74,10.2c0.73,1.67,1.64,3.54-0.03,5.14
		c-0.6-2.01-1.38-3.96-1.72-5.97c-0.44-2.63-0.64-5.32-0.7-8c-0.02-0.98,0.63-1.98,0.97-2.97C458.96,7.81,459.24,7.91,459.52,8.02z"
		/>
	<path d="M432.81,21.83c0,0.8-0.02,1.6,0.01,2.4c0.03,0.78-0.11,1.68,0.22,2.33c1.62,3.26,0.1,5.56-2.13,7.72
		c-0.48,0.46-0.89,0.99-1.9,2.14c0-1.35-0.2-2.07,0.05-2.58c0.28-0.56,0.96-0.91,1.47-1.36c1.49-1.31,2.05-2.75,1.35-4.8
		C431.22,25.74,430.84,23.63,432.81,21.83z"/>
	<path d="M408.62,35.65c0.31-1.13,0.56-2.29,0.94-3.4c0.62-1.8,1.35-3.51,0.82-5.53c-0.38-1.45,0.5-2.49,1.96-3.53
		c0.14,4.74,0.27,9.09-2.73,12.73C409.27,35.83,408.95,35.74,408.62,35.65z"/>
	<path d="M391.61,20.92c0,1.99,0.24,3.77-0.05,5.45c-0.55,3.15-1.39,6.26-2.19,9.37c-0.08,0.29-0.67,0.46-1.68,1.1
		c0.36-1.56,0.37-2.58,0.82-3.35c1.48-2.52,1.74-5.25,1.82-8.07C390.38,23.82,390.3,22.07,391.61,20.92z"/>
	<path d="M381.9,33.18c-1.6-3.57-0.38-11.76,2.13-13.9C383.32,23.92,382.62,28.48,381.9,33.18z"/>
	<path d="M466.75,21.96c3.18,3.8,2.52,7.85-1.4,10.43c-0.18-2.14,1.61-3.49,1.8-5.24C467.34,25.46,466.91,23.7,466.75,21.96z"/>
	<path d="M369.09,20.6c1.98,4.59,1.75,9.11-0.58,11.67C368.7,28.41,368.89,24.62,369.09,20.6z"/>
	<path d="M271.99,221.78c-4.93,0.23-9.87,0.46-14.8,0.69c-0.01-0.25-0.02-0.51-0.03-0.76c4.94,0,9.88,0,14.82,0
		C271.98,221.73,271.98,221.75,271.99,221.78z"/>
	<path d="M437.41,17.54c-2.22-1.23-2.84-5.31-1.06-9.2c0.18,1.51,0.37,3.02,0.55,4.53C437.07,14.39,437.23,15.92,437.41,17.54z"/>
	<path d="M265.12,127.47c4.46,0,8.92,0,13.38,0c0,0.08,0,0.15,0,0.23c-4.49,0-8.99,0-13.48,0
		C265.06,127.62,265.09,127.54,265.12,127.47z"/>
	<path d="M452.52,26.69c-0.3,2.2-0.6,4.49-0.89,6.66C449.29,31.36,449.64,28.45,452.52,26.69z"/>
	<path d="M239.93,127.56c3.74,0,7.49,0,11.23,0c0,0.08,0,0.17,0,0.25c-3.74,0-7.49,0-11.23,0
		C239.94,127.73,239.94,127.65,239.93,127.56z"/>
	<path d="M441.26,30.03c0.4,1.83,1.55,3.74-0.8,5.6c0-2.1,0-3.89,0-5.67C440.72,29.98,440.99,30.01,441.26,30.03z"/>
	<path d="M238.87,145.26c-2.67,0-5.33,0-8,0c0-0.03,0-0.06,0-0.1c2.67,0,5.33,0,8,0C238.87,145.19,238.87,145.23,238.87,145.26z"/>
	<path d="M358.86,20.39c-1.08-2.61-0.94-5.2,0-7.75C358.86,15.22,358.86,17.8,358.86,20.39z"/>
	<path d="M462.85,24.59c1.39,0.15,2.01,0.22,2.93,0.32c-0.34,0.85-0.58,1.66-1.01,2.36c-0.14,0.23-1.09,0.29-1.11,0.23
		C463.37,26.67,463.17,25.82,462.85,24.59z"/>
	<path d="M425.81,29.34c0.05,1.4,1.45,2.84-0.69,4.67c-0.15-1.87-0.26-3.26-0.38-4.65C425.1,29.35,425.45,29.35,425.81,29.34z"/>
	<path d="M358.23,34.35c-0.25-0.93-0.5-1.86-0.94-3.47c1.96,1.18,1.49,2.38,1.8,3.32C358.81,34.24,358.52,34.29,358.23,34.35z"/>
</g>
</svg>
