<?xml version="1.0" encoding="utf-8"?>
<!-- Generator: Adobe Illustrator 23.0.1, SVG Export Plug-In . SVG Version: 6.00 Build 0)  -->
<svg version="1.1" id="Layer_1" xmlns="http://www.w3.org/2000/svg" xmlns:xlink="http://www.w3.org/1999/xlink" x="0px" y="0px"
	 viewBox="0 0 1024 600" style="enable-background:new 0 0 1024 600;" xml:space="preserve">
<style type="text/css">
	.st0{fill:#060606;}
	.st1{fill:#050505;}
	.st2{fill:#080808;}
	.st3{fill:#222222;}
	.st4{fill:#2B2C2C;}
	.st5{fill:#1A1A1A;}
	.st6{fill:#EFEEED;}
	.st7{fill:#B3B3B3;}
	.st8{fill:#0A0A0A;}
	.st9{fill:#636362;}
	.st10{fill:#0C0C0C;}
	.st11{fill:#FFFFFF;}
	.st12{fill:#FBFAFA;}
	.st13{fill:#F5F4F4;}
	.st14{fill:#F0EFEF;}
	.st15{fill:#F1F0EF;}
	.st16{fill:#EFEEEE;}
	.st17{fill:#F1EFEF;}
	.st18{fill:#EDEBEB;}
	.st19{fill:#F0EFEE;}
	.st20{fill:#F3F2F1;}
	.st21{fill:#DFDEDE;}
	.st22{fill:#EEEDED;}
	.st23{fill:#E5E4E3;}
	.st24{fill:#E6E5E5;}
	.st25{fill:#DBD9D9;}
	.st26{fill:#EDEDEC;}
	.st27{fill:#E1E1E0;}
	.st28{fill:#E2E1E0;}
	.st29{fill:#E6E5E4;}
	.st30{fill:#E9E8E7;}
	.st31{fill:#D7D6D6;}
	.st32{fill:#EDECEC;}
	.st33{fill:#F5F5F5;}
	.st34{fill:#EAE9E8;}
	.st35{fill:#191919;}
	.st36{fill:#0F0F0F;}
	.st37{fill:#E3E2E2;}
	.st38{fill:#DBDAD9;}
	.st39{fill:#DFDEDD;}
	.st40{fill:#CECCCC;}
	.st41{fill:#E1DFDF;}
	.st42{fill:#434343;}
	.st43{fill:#F8F8F7;}
	.st44{fill:#4D4D4D;}
	.st45{fill:#DDDBDB;}
	.st46{fill:#DEDCDC;}
	.st47{fill:#D4D3D2;}
	.st48{fill:#232323;}
	.st49{fill:#E0DEDE;}
	.st50{fill:#D9D8D7;}
	.st51{fill:#D0CFCF;}
	.st52{fill:#E5E4E4;}
	.st53{fill:#C2C2C2;}
	.st54{fill:#272828;}
	.st55{fill:#313232;}
	.st56{fill:#282829;}
	.st57{fill:#E2E0E0;}
	.st58{fill:#E9E8E8;}
	.st59{fill:#323232;}
	.st60{fill:#D1D0D0;}
	.st61{fill:#EAE8E8;}
	.st62{fill:#C2C0C0;}
	.st63{fill:#B3B2B2;}
	.st64{fill:#CFCFCE;}
	.st65{fill:#AEAEAE;}
	.st66{fill:#989797;}
	.st67{fill:#949494;}
	.st68{fill:#DADAD9;}
	.st69{fill:#ABABAB;}
	.st70{fill:#D4D2D2;}
	.st71{fill:#CCCBCA;}
	.st72{fill:#969595;}
	.st73{fill:#3C3C3C;}
	.st74{fill:#929292;}
	.st75{fill:#F4F3F3;}
	.st76{fill:#DBDBDA;}
	.st77{fill:#CCCBCB;}
	.st78{fill:#DDDCDC;}
	.st79{fill:#FCFCFB;}
	.st80{fill:#FCFBFB;}
	.st81{fill:#F8F7F7;}
	.st82{fill:#505151;}
	.st83{fill:#F6F5F5;}
	.st84{fill:#E1E0E0;}
	.st85{fill:#C4C4C4;}
	.st86{fill:#1E1E1E;}
	.st87{fill:#D2D2D2;}
	.st88{fill:#252626;}
	.st89{fill:#282828;}
	.st90{fill:#E8E6E6;}
	.st91{fill:#D5D4D3;}
	.st92{fill:#C0BFBF;}
	.st93{fill:#2B2C2B;}
	.st94{fill:#C1C1C0;}
	.st95{fill:#ECEAEA;}
	.st96{fill:#EBEAEA;}
	.st97{fill:#DCDBDA;}
	.st98{fill:#636363;}
	.st99{fill:#FDFCFC;}
	.st100{fill:#FEFEFE;}
	.st101{fill:#E8E7E7;}
	.st102{fill:#DAD9D9;}
	.st103{fill:#C9C8C7;}
	.st104{fill:#DBDADA;}
	.st105{fill:#121212;}
	.st106{fill:#1D1E1E;}
	.st107{fill:#656565;}
	.st108{fill:#1B1B1B;}
	.st109{fill:#090909;}
	.st110{fill:#858585;}
	.st111{fill:#9F9E9E;}
	.st112{fill:#A8A8A8;}
	.st113{fill:#B4B3B3;}
	.st114{fill:#111111;}
	.st115{fill:#171718;}
	.st116{fill:#5C5B5A;}
	.st117{fill:#F0F0EF;}
	.st118{fill:#DEDDDD;}
	.st119{fill:#EDECEB;}
	.st120{fill:#050606;}
	.st121{fill:#0B0B0B;}
	.st122{fill:#161616;}
	.st123{fill:#404141;}
	.st124{fill:#ACACAC;}
	.st125{fill:#FCFCFC;}
	.st126{fill:#FDFDFD;}
	.st127{fill:#FBFBFA;}
	.st128{fill:#FAFAF9;}
	.st129{fill:#202020;}
	.st130{fill:#E1E1E1;}
	.st131{fill:#E5E3E3;}
	.st132{fill:#D4D4D3;}
	.st133{fill:#C6C5C5;}
	.st134{fill:#B1B1B1;}
	.st135{fill:#E3E2E1;}
	.st136{fill:#C5C4C4;}
	.st137{fill:#373737;}
	.st138{fill:#E7E6E5;}
	.st139{fill:#2E2F2F;}
	.st140{fill:#D8D8D7;}
	.st141{fill:#3A3A39;}
	.st142{fill:#303030;}
	.st143{fill:#131313;}
	.st144{fill:#0D0D0D;}
	.st145{fill:#151515;}
	.st146{fill:#0D0C0C;}
	.st147{fill:#F7F7F6;}
	.st148{fill:#EEEDEC;}
	.st149{fill:#D9D7D7;}
	.st150{fill:#5B5A5A;}
	.st151{fill:#5D5D5D;}
	.st152{fill:#EBEAE9;}
	.st153{fill:#101010;}
	.st154{fill:#0B0C0C;}
	.st155{fill:#FDFDFC;}
	.st156{fill:#F2F1F1;}
	.st157{fill:#F7F6F6;}
	.st158{fill:#F7F6F5;}
	.st159{fill:#F3F2F2;}
	.st160{fill:#F6F5F4;}
	.st161{fill:#F1F0F0;}
	.st162{fill:#F4F3F2;}
	.st163{fill:#C7C5C5;}
	.st164{fill:#D6D5D4;}
	.st165{fill:#CAC9C9;}
	.st166{fill:#222323;}
	.st167{fill:#161717;}
	.st168{fill:#DAD9D8;}
	.st169{fill:#E7E5E5;}
	.st170{fill:#E2E0DF;}
	.st171{fill:#D9D8D8;}
	.st172{fill:#CAC8C8;}
	.st173{fill:#C9C7C7;}
	.st174{fill:#E0DFDF;}
	.st175{fill:#E4E3E3;}
	.st176{fill:#E7E5E4;}
	.st177{fill:#E6E4E4;}
	.st178{fill:#C9C8C8;}
	.st179{fill:#F8F7F6;}
	.st180{fill:#E9E7E7;}
	.st181{fill:#EEEDEE;}
	.st182{fill:#0A0A0B;}
	.st183{fill:#8E8D8D;}
	.st184{fill:#D3D2D1;}
	.st185{fill:#393A3A;}
	.st186{fill:#4D4E4D;}
	.st187{fill:#C6C6C6;}
	.st188{fill:#ECEBEB;}
	.st189{fill:#CECDCD;}
	.st190{fill:#404040;}
	.st191{fill:#B9B8B8;}
	.st192{fill:#CFCECD;}
	.st193{fill:#C4C3C3;}
	.st194{fill:#979797;}
	.st195{fill:#ABA9A9;}
	.st196{fill:#D5D4D4;}
	.st197{fill:#B6B4B4;}
	.st198{fill:#292A2A;}
	.st199{fill:#3B3C3C;}
	.st200{fill:#060707;}
	.st201{fill:#0A0B0B;}
	.st202{fill:#424343;}
	.st203{fill:#3D3E3E;}
	.st204{fill:#A9A8A8;}
	.st205{fill:#D6D4D4;}
	.st206{fill:#FAF9F9;}
	.st207{fill:#F4F2F2;}
	.st208{fill:#F9F8F7;}
	.st209{fill:#E2E1E1;}
	.st210{fill:#202121;}
	.st211{fill:#F5F4F3;}
	.st212{fill:#272727;}
	.st213{fill:#9B9A9A;}
	.st214{fill:#BFBEBE;}
	.st215{fill:#262626;}
	.st216{fill:#828181;}
	.st217{fill:#C3C2C2;}
	.st218{fill:#B5B5B5;}
	.st219{fill:#AEAFAF;}
	.st220{fill:#E3E1E1;}
	.st221{fill:#C0BEBE;}
	.st222{fill:#BBBABA;}
	.st223{fill:#232424;}
	.st224{fill:#D7D5D5;}
	.st225{fill:#292929;}
	.st226{fill:#444444;}
	.st227{fill:#1B1C1C;}
	.st228{fill:#0E0E0E;}
	.st229{fill:#0F1010;}
	.st230{fill:#2F3030;}
	.st231{fill:#111212;}
	.st232{fill:#181818;}
	.st233{fill:#111112;}
	.st234{fill:#121313;}
	.st235{fill:#141414;}
	.st236{fill:#191A1A;}
	.st237{fill:#0D0E0E;}
	.st238{fill:#181919;}
	.st239{fill:#1C1C1C;}
	.st240{fill:#0E0F0F;}
	.st241{fill:#1E1F1F;}
	.st242{fill:#171717;}
	.st243{fill:#1E1E1D;}
	.st244{fill:#131414;}
	.st245{fill:#333333;}
	.st246{fill:#212222;}
	.st247{fill:#3A3B3B;}
	.st248{fill:#525352;}
	.st249{fill:#2A2B2A;}
	.st250{fill:#FAFAFA;}
	.st251{fill:#EFEDED;}
	.st252{fill:#0C0D0D;}
	.st253{fill:#0A0B0A;}
	.st254{fill:#161515;}
	.st255{fill:#232425;}
	.st256{fill:#F6F6F5;}
	.st257{fill:#FEFEFD;}
	.st258{fill:#262727;}
	.st259{fill:#1D1D1D;}
	.st260{fill:#171818;}
	.st261{fill:#414040;}
	.st262{fill:#282929;}
	.st263{fill:#1A1B1B;}
	.st264{fill:#141515;}
	.st265{fill:#2D2D2D;}
	.st266{fill:#343535;}
	.st267{fill:#3C3D3D;}
	.st268{fill:#2F2F30;}
	.st269{fill:#1B1B1C;}
	.st270{fill:#313131;}
	.st271{fill:#3F4040;}
	.st272{fill:#111010;}
	.st273{fill:#101111;}
	.st274{fill:#1C1D1D;}
	.st275{fill:#242525;}
	.st276{fill:#CFCDCD;}
	.st277{fill:#323333;}
	.st278{fill:#CFCDCC;}
	.st279{fill:#D7D7D7;}
	.st280{fill:#303131;}
	.st281{fill:#B0AFAF;}
	.st282{fill:#CDCDCD;}
	.st283{fill:#242424;}
	.st284{fill:#121111;}
	.st285{fill:#1F1F1F;}
	.st286{fill:#2E2D2D;}
	.st287{fill:#F9F8F8;}
	.st288{fill:#191A19;}
	.st289{fill:#070808;}
	.st290{fill:#1A1A1B;}
	.st291{fill:#525252;}
	.st292{fill:#C5C3C3;}
	.st293{fill:#2C2C2C;}
	.st294{fill:#D8D7D7;}
	.st295{fill:#ECECEB;}
	.st296{fill:#D5D3D3;}
	.st297{fill:#BDBBBB;}
	.st298{fill:#BEBDBC;}
	.st299{fill:#FFFFFE;}
	.st300{fill:#F9F9F9;}
	.st301{fill:#F2F2F1;}
	.st302{fill:#DCDBDB;}
	.st303{fill:#B8B6B6;}
	.st304{fill:#EAE9E9;}
	.st305{fill:#7B7A7A;}
	.st306{fill:#252525;}
	.st307{fill:#D7D6D5;}
	.st308{fill:#A3A3A3;}
	.st309{fill:#D4D3D3;}
	.st310{fill:#424242;}
	.st311{fill:#313231;}
	.st312{fill:#585757;}
	.st313{fill:#1C1C1D;}
	.st314{fill:#434243;}
	.st315{fill:#343434;}
	.st316{fill:#1F2020;}
	.st317{fill:#E1E0DF;}
	.st318{fill:#2F2F2F;}
	.st319{fill:#171817;}
	.st320{fill:#101110;}
	.st321{fill:#151616;}
	.st322{fill:#EBE9E9;}
	.st323{fill:#ECEBEA;}
	.st324{fill:#F3F3F2;}
	.st325{fill:#D2D2D1;}
	.st326{fill:#E4E2E2;}
	.st327{fill:#E4E3E2;}
	.st328{fill:#E7E6E6;}
	.st329{fill:#CECDCC;}
	.st330{fill:#E4E4E4;}
	.st331{fill:#C4C3C2;}
	.st332{fill:#D6D5D5;}
	.st333{fill:#070707;}
	.st334{fill:#3F3E3D;}
	.st335{fill:#B7B5B5;}
	.st336{fill:#ACABAB;}
	.st337{fill:#080909;}
	.st338{fill:#3A3A3A;}
	.st339{fill:#010101;}
	.st340{fill:#6E6E6E;}
	.st341{fill:#C7C5C4;}
	.st342{fill:#BCBBBB;}
	.st343{fill:#FFFEFE;}
	.st344{fill:#F4F4F3;}
	.st345{fill:#D8D8D8;}
	.st346{fill:#818081;}
	.st347{fill:#2D2E2E;}
	.st348{fill:#9E9E9E;}
	.st349{fill:#282928;}
	.st350{fill:#2A2B2B;}
	.st351{fill:#040404;}
	.st352{fill:none;}
	.st353{fill:#2C2D2D;}
	.st354{fill:#474747;}
	.st355{fill:#3F3F3F;}
	.st356{fill:#EEECEC;}
	.st357{fill:#D7D7D6;}
	.st358{fill:#E7E7E7;}
	.st359{fill:#616161;}
	.st360{fill:#EAEAE9;}
	.st361{fill:#A9A9A9;}
	.st362{fill:#FBF9F9;}
	.st363{fill:#E0E0E0;}
	.st364{fill:#A4A4A4;}
	.st365{fill:#D5D5D5;}
	.st366{fill:#E6E6E6;}
	.st367{fill:#3E3E3E;}
	.st368{fill:#DDDCDB;}
	.st369{fill:#A0A0A0;}
	.st370{fill:#E8E7E6;}
	.st371{fill:#E4E4E3;}
	.st372{fill:#3E3F3F;}
	.st373{fill:#848383;}
	.st374{fill:#D2D1D1;}
	.st375{fill:#DFDFDE;}
	.st376{fill:#B7B6B6;}
	.st377{fill:#D1D0CF;}
	.st378{fill:#A7A7A6;}
	.st379{fill:#8D8E8E;}
	.st380{fill:#757575;}
	.st381{fill:#C2C1C1;}
	.st382{fill:#C8C8C7;}
	.st383{fill:#ABAAAA;}
	.st384{fill:#CBCAC9;}
	.st385{fill:#C6C6C5;}
	.st386{fill:#A7A6A7;}
	.st387{fill:#888888;}
	.st388{fill:#F0EEEE;}
	.st389{fill:#AEADAD;}
	.st390{fill:#292A29;}
	.st391{fill:#CCCCCC;}
	.st392{fill:#D3D2D2;}
	.st393{fill:#EFEFEF;}
	.st394{fill:#3C3D3C;}
	.st395{fill:#C8C7C8;}
	.st396{fill:#1D1D1E;}
	.st397{fill:#AAAAAA;}
	.st398{fill:#F9F9F8;}
	.st399{fill:#F2F1F0;}
	.st400{fill:#DAD8D8;}
	.st401{fill:#D0CFCE;}
	.st402{fill:#ECECEC;}
	.st403{fill:#676766;}
	.st404{fill:#BBBABB;}
	.st405{fill:#565655;}
	.st406{fill:#C8C6C6;}
	.st407{fill:#E0DFDE;}
	.st408{fill:#8C8C8C;}
	.st409{fill:#6F6E6F;}
	.st410{fill:#BAB9B9;}
	.st411{fill:#EEEEEE;}
	.st412{fill:#C7C7C7;}
	.st413{fill:#8A898A;}
	.st414{fill:#505050;}
	.st415{fill:#B5B3B3;}
	.st416{clip-path:url(#SVGID_2_);}
	.st417{clip-path:url(#SVGID_4_);}
	.st418{clip-path:url(#SVGID_6_);}
	.st419{fill:#CFCECE;}
	.st420{fill:#383939;}
	.st421{fill:#DEDEDE;}
	.st422{clip-path:url(#SVGID_8_);}
	.st423{clip-path:url(#SVGID_10_);}
	.st424{fill:#0B0C0B;}
	.st425{fill:#C7C6C6;}
	.st426{fill:#1E1E1F;}
	.st427{fill:#F8F8F8;}
	.st428{clip-path:url(#SVGID_12_);}
	.st429{clip-path:url(#SVGID_14_);}
	.st430{clip-path:url(#SVGID_16_);}
	.st431{clip-path:url(#SVGID_18_);}
	.st432{fill:#969696;}
	.st433{fill:#353636;}
	.st434{fill:#0E0E0F;}
	.st435{fill:#484948;}
	.st436{fill:#0D0E0D;}
	.st437{fill:#111211;}
	.st438{fill:#242425;}
	.st439{fill:#343534;}
	.st440{fill:#4A4B4B;}
	.st441{fill:#414242;}
	.st442{fill:#B4B4B4;}
	.st443{fill:#FBFBFB;}
	.st444{fill:#FEFDFD;}
	.st445{fill:#666666;}
	.st446{fill:#565756;}
	.st447{clip-path:url(#SVGID_20_);}
	.st448{clip-path:url(#SVGID_22_);}
</style>
<g>
	<defs>
		<rect id="SVGID_11_" y="2.01" width="1024" height="595.32"/>
	</defs>
	<clipPath id="SVGID_2_">
		<use xlink:href="#SVGID_11_"  style="overflow:visible;"/>
	</clipPath>
	<g class="st416">
		<path d="M1024,492.17c-5.58-0.06-11.16-0.06-16.73-0.17c-16.4-0.33-32.81-1.17-49.2-0.95c-19.17,0.26-38.33,1.44-57.49,2.21
			c-0.57,0.02-1.15-0.15-1.72-0.99c8.92,0,17.85,0,26.77,0c0-0.7,0-1.41,0-2.11c-41.08-1.46-82.17,1.05-123.26,1.07
			c-40.82,0.02-81.64,0.7-122.48,1.87c1.71,0.13,3.41,0.25,5.12,0.38c-0.03,0.42-0.05,0.84-0.08,1.26
			c-4.47-0.48-8.95-1.49-13.4-1.34c-17.75,0.58-35.49,1.52-53.23,2.34c-8.48,0.4-16.94,1.06-25.42,1.23
			c-28.37,0.54-56.74,0.74-85.1,1.39c-24.49,0.56-48.97,1.73-73.46,2.32c-24.63,0.59-49.28,1.24-73.91,1.06
			c-22.23-0.17-44.45-2.15-66.66-1.98c-18.25,0.14-34.16,5.73-47.85,19.95c-22.51,23.39-43.83,47.6-63.05,73.7
			c-11.12,15.1-21.68,30.62-33.13,45.46c-14.25,18.48-29.15,36.46-43.78,54.65c-2.89,3.59-5.66,7.3-8.83,10.62
			c-2.01,2.1-4.67,3.57-7.03,5.32c-0.4-0.48-0.8-0.95-1.19-1.43c11.41-13.34,23.08-26.46,34.15-40.09
			c10.37-12.76,20.3-25.9,30.03-39.16c11.63-15.86,22.84-32.03,34.23-48.08c2.49-3.51,4.62-7.34,7.48-10.49
			c2.26-2.49,5.86-3.77,8.06-6.29c5.8-6.65,12.77-12.97,16.21-20.77c2.93-6.64,8.91-8.48,12.88-13.1c4.39-5.12,9.9-9.27,14.83-13.94
			c2.2-2.08,3.85-4.86,6.29-6.53c4.74-3.24,9.54-7.13,14.9-8.57c9.23-2.47,18.89-3.44,28.42-4.65c3.1-0.39,6.35,0.67,9.53,0.68
			c60.48,0.05,120.97,0.27,181.45-0.09c21.42-0.13,42.83-1.73,64.25-2.59c9.9-0.4,19.81-0.43,29.7-0.98
			c26.59-1.5,53.16-3.46,79.77-4.69c14.18-0.65,28.41-0.04,42.62-0.24c16.14-0.23,32.27-0.87,48.4-1.08
			c15.54-0.21,31.07-0.05,46.61-0.19c4.77-0.05,9.56-0.97,14.31-0.8c9.76,0.35,19.52,1.76,29.26,1.65
			c16.18-0.18,32.35-1.88,48.52-1.74c23.68,0.2,47.35,1.6,71.03,2.21c12.7,0.33,25.41,0.08,38.12,0.08c8.03,0,16.07-0.03,24.1-0.04
			C1024,489.74,1024,490.96,1024,492.17z"/>
		<path d="M889.46,66.51c2.09,0.13,4.98,1.22,6.15,0.24c8.04-6.71,15.85-13.72,23.43-20.96c1.87-1.78,3.54-4.73,3.65-7.22
			c0.41-9.82,0.17-19.67,0.17-29.47c-45.15,1.17-88.49,2.29-132.54,3.43c-0.71,31,1.16,62.09-2.58,92.91c0-30.79,0-61.58,0-92.56
			c-10.29,0-20.21,0-30.13,0c-0.06-0.36-0.12-0.72-0.18-1.08c1.31-0.23,2.63-0.65,3.94-0.67c24.52-0.44,49.04-0.79,73.56-1.26
			c15.96-0.31,31.91-0.72,47.86-1.23c11.01-0.35,22.03-0.65,32.99-1.58c4.27-0.36,8.57-2.03,12.56-3.77
			c15.77-6.84,31.43-13.95,47.15-20.94c0.68-0.3,1.48-0.34,2.77,0.73c-7.5,3.53-14.93,7.2-22.5,10.56
			c-8.94,3.97-17.96,7.78-27.03,11.45c-3.64,1.47-4.32,3.87-4.37,7.54c-0.19,13.89-0.88,27.76-1.18,41.65
			c-0.15,6.96,0.21,13.93,0.22,20.9c0,2.76-0.43,5.51-0.49,8.27c-0.84,37.68-1.56,75.37-2.49,113.05
			c-0.62,24.89-1.62,49.77-2.24,74.65c-0.14,5.63,0.83,11.28,0.83,16.92c0,5.01-0.89,10.02-0.95,15.03
			c-0.14,13.58,0.35,27.17-0.17,40.73c-0.51,13.24,3.92,24.08,12.7,33.8c10.26,11.37,19.79,23.41,30.01,34.83
			c7.31,8.17,15.23,15.8,22.87,23.68c0.53-0.26,1.05-0.51,1.58-0.77c0-12.25,0-24.5,0-36.74c0-5.68-0.08-11.37,0.01-17.05
			c0.37-23.48,0.93-46.97,1.16-70.45c0.2-20.58-0.11-41.17,0.09-61.75c0.18-17.73,1.14-35.45,1.09-53.18
			c-0.07-25.9-0.95-51.81-1.02-77.71c-0.02-7.36,1.55-14.72,2.42-22.08c0.33-2.79,1.04-5.56,1.08-8.35
			c0.48-33.84,0.95-67.68,1.14-101.52c0.02-4.01,2.64-4.14,4.83-4.52c2.93-0.52,6.03-0.13,9.27-0.13c0,10.76,0.03,21.2-0.03,31.65
			c-0.01,1.8-0.55,3.6-0.59,5.4c-0.64,27.75-1.03,55.51-1.93,83.25c-0.58,17.69-1.97,35.35-2.85,53.03
			c-0.26,5.26,0.09,10.54-0.03,15.81c-0.33,14.38-0.78,28.76-1.12,43.14c-0.05,1.97,0.22,3.96,0.4,6.86
			c1.73-0.91,3.07-1.24,3.88-2.09c3.92-4.12,6.69-4.11,7.85,1.13c0.91,4.12,0.27,9.19-1.4,13.1c-1.75,4.09-5.96,2.5-10.83-3.59
			c0,8.89-0.15,17.79,0.04,26.67c0.17,7.88,0.88,15.74,1.07,23.61c0.5,20.54,1.17,41.07,1.16,61.61c-0.01,21.4-0.7,42.8-1.15,64.2
			c-0.18,8.41-0.32,16.83-0.9,25.22c-0.19,2.79-1.43,7.66-2.67,7.82c-4.08,0.52-9.79,0.86-12.35-1.49
			c-11.88-10.88-23.26-22.36-34.13-34.25c-9.5-10.39-18.41-21.38-26.91-32.6c-2.95-3.9-5.19-9.2-5.56-14.03
			c-1.07-14.37-1.44-28.83-1.37-43.24c0.13-28.78,0.62-57.55,1.2-86.33c0.26-12.71,1.1-25.41,1.68-38.12
			c-0.52-0.03-1.04-0.06-1.56-0.09c0,3.56,0,7.11,0,10.58c-5.77,0.51-8.01-3.31-6.87-10.34c1.06-6.53,2.31-13.04,2.87-19.61
			c0.27-3.19-0.83-6.5-1.37-10.14c6.13,0.25,6.97-3.91,6.47-9.38c-0.47-5.14,0.62-10.1-2.35-15.32c-3.1-5.46-6.14-8.17-12.6-7.75
			c-6.43,0.42-12.94-0.56-19.4-0.45c-1.89,0.03-4.22,1.28-5.51,2.72c-1.84,2.05-3.08,4.73-4.29,7.27c-2.64,5.52-6.67,7.8-13.66,5.71
			c1.38-2.69,2.62-5.25,3.99-7.75c1.46-2.65,3.03-5.24,4.81-8.29c-6.65-1.01-7.82,10.93-16.51,5.61c1.55-2.47,3.14-4.99,4.91-7.81
			c-7.36-2.17-4.63-8.81-5.42-14.39c-32.67,0-64.98,0-98.39,0c0,3.47,0.05,6.21-0.01,8.95c-0.39,17.63-1.3,35.27-1.09,52.9
			c0.41,34.41,1.59,68.8,2.13,103.21c0.16,10.49-1.24,21.01-1.01,31.5c0.31,14.52,1.69,29.01,2.2,43.54
			c0.2,5.81-0.52,11.69-1.26,17.48c-0.16,1.27-2.03,2.86-3.44,3.31c-1.85,0.59-4.01,0.23-6.04,0.23
			c-83.42,0-166.85-0.11-250.27,0.06c-33.02,0.07-66.05,0.28-99.05,1.33c-21.33,0.68-42.59,3.47-63.93,4.41
			c-17.71,0.78-35.5-0.2-53.22,0.42c-19.96,0.7-39.9,2.29-59.84,3.61c-1.23,0.08-2.65,0.91-3.56,1.82
			c-11.38,11.27-23.02,22.31-33.93,34.01c-12.4,13.3-23.85,27.47-36.23,40.78c-14.99,16.12-30.79,31.48-45.77,47.62
			c-17.18,18.51-34.02,37.34-50.65,56.34c-13.42,15.32-26.31,31.09-39.44,46.67c-2.85,3.39-5.68,6.8-9.28,9.8
			c0.2-0.76,0.19-1.69,0.64-2.24c11.05-13.63,21.97-27.39,33.3-40.79C45.38,560.65,56.88,547.13,69,534.2
			c19.39-20.7,39.67-40.57,58.89-61.43c15.59-16.91,29.9-35,45.32-52.08c8.48-9.39,18.07-17.78,27.14-26.63
			c4.47-4.37,9.19-8.53,13.2-13.29c1.45-1.72,1.65-4.91,1.62-7.42c-0.28-31.63-0.76-63.26-1.07-94.9
			c-0.22-22.72-0.15-45.45-0.37-68.17c-0.17-17.22,0.86-34.62-1.21-51.63c-4.4-36.17-3.32-72.39-3.18-108.6
			c0.08-19.83,1.47-39.66,2.38-59.49c0.12-2.52,0.96-5.01,2.71-7.38c-0.54,7.54-1.36,15.07-1.56,22.62
			c-0.87,32.82-2.07,65.64-2.09,98.46c-0.01,17.33,2.42,34.65,3.24,52c0.76,16.19,1.02,32.4,1.2,48.61
			c0.52,46.05,0.9,92.1,1.29,138.15c0.1,11.28,0.01,22.57,0.01,34.7c34.44-1.68,68.6-3.34,103.56-5.04c0.34-2.52,1.15-5.65,1.1-8.77
			c-0.29-20.68-0.68-41.36-1.19-62.03c-0.75-30.12-1.49-60.25-2.48-90.36c-1.07-32.57-2.62-65.13-3.58-97.71
			c-0.45-15.41-0.29-30.85,0.09-46.26c0.34-14.1,1.22-28.2,2.25-42.27c0.12-1.57,2.66-4.06,4.3-4.24
			c7.41-0.84,14.89-1.21,22.35-1.37c23.7-0.51,47.4-1.04,71.1-1.18c11.3-0.07,22.62,1.12,33.92,1.06
			c23.27-0.14,46.54-0.71,69.81-1.16c3.96-0.08,8.06-1.15,11.85-0.45c9.11,1.68,10.66,4.02,10.82,13.56
			c0.04,2.21-0.02,4.42,0.02,6.62c0.4,24.09,0.77,48.18,1.23,72.27c0.34,17.62,0.98,35.23,1.18,52.85
			c0.29,25.29,0.23,50.58,0.45,75.86c0.09,10.51,0.81,21.03,0.72,31.54c-0.14,16.27-1.2,32.55-0.97,48.81
			c0.13,9.36,2.3,18.67,3.02,28.05c0.5,6.59,0.1,13.24,0.1,20.73c69.24,0,137.25,0,205.65,0c2.87-10.57,1.95-20.8,1.28-31
			c-1.68-25.24-1.03-50.45-0.22-75.72c0.74-22.85-1-45.76-1.27-68.65c-0.25-21.09,0.07-42.19,0.02-63.28
			c-0.04-19-0.51-38.01-0.28-57.01c0.18-15.16,1.04-30.31,1.75-45.46c0.19-4.14,0.91-8.26,1.38-12.4c0.51,0.04,1.03,0.08,1.54,0.11
			c-0.54,7.95-1.02,15.91-1.64,23.86c-1.1,14.04-2.23,27.99-0.07,42.14c1.26,8.26,0.23,16.88,0.23,25.91c32.03,0,64.41,0,97.13,0
			c0.6-7.44,1.59-15.02,1.73-22.62c0.29-15.38,2.58-14.83,17.99-16.89c5.96-0.8,12.08-0.46,18.13-0.64L889.46,66.51z M540.5,282.7
			c0-33.27,0.32-65.89-0.09-98.49c-0.41-32.58-1.64-65.16-2.3-97.74c-0.28-13.8-0.05-27.6-0.05-41.4c0-1.93,0-3.86,0-6.47
			c-34.97-1.39-69.05-2.74-103.12-4.09c0.01-0.36,0.03-0.73,0.04-1.09c34.22,1.23,68.43,2.47,102.65,3.7
			c1.5-14.08-0.47-17.52-8.79-15.51c2.02,0.45,4.13,0.92,6.25,1.39c-0.08,0.21-0.16,0.41-0.24,0.62
			c-70.88,0.82-141.76,1.64-212.63,2.46c-0.01-0.8-0.03-1.61-0.04-2.41c41.48-0.96,83,0.11,124.48-0.86
			c-42.44-4.28-84.89-0.56-127.57-0.63c-0.52,5.34-1.24,10.45-1.48,15.57c-0.9,19.22-1.99,38.44-2.38,57.67
			c-0.84,40.92,2.1,81.69,4.51,122.52c2.02,34.33,2.01,68.79,2.64,103.2c0.31,17.13,0.05,34.26,0.05,52.11
			c3.92,0.22,7.07,0.69,10.19,0.53c27.21-1.46,54.4-3.14,81.61-4.52c8.07-0.41,16.19-0.06,24.3-0.06c-0.21-4.17-0.4-7.9-0.63-12.53
			c-36.06,0-71.88,0-107.71,0c0-0.4,0.01-0.79,0.01-1.19c35.89,0,71.79,0,107.07,0c0-10.2,0-19.89,0-29.65
			c-2.11-0.38-3.57-0.64-6.21-1.11c2.69-0.52,4.17-0.8,6.08-1.17c-1.02-19.47-2.02-38.61-3.02-57.73c-2.63-0.16-5.03-0.32-7.44-0.47
			c-0.01-0.19-0.01-0.37-0.02-0.56c2.51-0.21,5.02-0.42,7.83-0.65c-0.57-6.48-1.1-12.6-1.69-19.27c-7.81,0-15.44,0-23.06,0
			c0-0.42,0-0.83,0-1.25c7.33,0,14.66,0,22.36,0c0-2.68,0.11-4.69-0.02-6.68c-0.78-12.3-2.07-24.59-2.33-36.9
			c-0.67-31.96-1.03-63.93-1.27-95.9c-0.19-26-0.04-52.01-0.04-78.02c0.62-0.1,1.24-0.2,1.86-0.3c0.58,2.73,1.6,5.46,1.66,8.2
			c0.21,9.67,0.08,19.36,0.08,29.03c0,32.82,0.03,65.65-0.03,98.47c-0.01,5.24-0.9,10.52-0.56,15.73
			c1.23,18.9,2.86,37.76,4.22,56.65c1.06,14.7,1.97,29.41,2.94,44.09C472.68,279.57,506.86,281.15,540.5,282.7z M443.91,369.51
			c33.34-0.62,66.63-1.23,100.02-1.85c-1.45-20.47-2.86-40.31-4.29-60.56c-31.54,0-63.44,0-95.64,0
			c32.12-3.98,64.13-2.08,96.56-2.42c0-6.09,0-12.65,0-20.57c-34-1.58-68.06-3.17-102.23-4.76
			C440.24,310.27,442.04,339.37,443.91,369.51z M920.89,121.77c-6.39-0.48-10.52-0.92-14.66-1.07c-13.12-0.47-26.27-0.51-39.37-1.36
			c-8.93-0.59-11.34-3.2-10.91-11.46c0.4-7.86,0.62-15.73,1.3-23.56c0.61-7.01,5.06-12.18,11.13-12.18
			c14.31,0,28.63,0.61,42.94,0.94c3.05,0.07,6.11,0.01,9.17,0.01c-0.03-0.85-0.05-1.7-0.08-2.55c-17.89-0.33-35.79-0.97-53.68-0.82
			c-7.35,0.06-10.58,3.53-10.81,9.17c-0.48,11.65-0.57,23.32-1.36,34.95c-0.34,4.98,1.93,6.97,6.07,7.93
			c2.53,0.59,5.1,1.23,7.68,1.34c15.92,0.68,31.85,1.27,47.78,1.7C917.25,124.84,918.46,123.36,920.89,121.77z M921.07,47.35
			c-7.6,6.84-14.98,13.48-22.95,20.65c8.22,0,15.57,0,22.95,0C921.07,61.14,921.07,54.64,921.07,47.35z M994.34,246.41
			c0.26,0.04,0.53,0.08,0.79,0.12c0-13.38,0-26.75,0-40.13c-0.39,0-0.77-0.01-1.16-0.01c0.24,5.25,0.49,10.5,0.79,16.9
			c-1.44-2.25-2.32-3.62-2.68-4.2C992.79,227.71,993.56,237.06,994.34,246.41z M1006.32,233.53c0.47-0.48,0.95-0.96,1.42-1.44
			c0-4.54,0-9.07,0-13.58c-3.35,2.25-6.01,4.05-9.39,6.31C1000.73,227.42,1003.52,230.48,1006.32,233.53z M862.62,140.33
			c10.4-0.54,10.37-9.49,15.55-14.86C867.63,125.65,867.91,134.83,862.62,140.33z M995.21,348.91c-0.7,0.16-1.4,0.33-2.1,0.49
			c0.49,5.58,0.97,11.16,1.51,17.35c-1.1-2.03-1.96-3.63-3.21-5.93c1.14,6.86,2.14,12.84,3.13,18.81c0.23-0.04,0.45-0.09,0.68-0.13
			C995.21,369.3,995.21,359.11,995.21,348.91z M1000.47,62.88c0.4,0.09,0.79,0.18,1.19,0.27c0-16.88,0-33.77,0-50.65
			c-0.4,0-0.79,0-1.19,0.01C1000.47,29.3,1000.47,46.09,1000.47,62.88z M998.85,100.71c0.71-0.21,1.43-0.41,2.14-0.62
			c0-7.99,0-15.98,0-25.01c-3.63,6.14,1.12,12.83-4.53,17.65C995.61,93.46,997.97,97.96,998.85,100.71z M912.9,196.94
			c0.67,0.06,1.34,0.11,2.01,0.17c0.73-9.01,1.47-18.01,2.2-27.02c-0.72-0.06-1.44-0.12-2.16-0.18
			C914.27,178.91,913.59,187.93,912.9,196.94z M461.56,21.05c0.04,0.2,0.07,0.41,0.1,0.61c14.09,0,28.19,0,42.28,0
			c0-0.2,0-0.41-0.01-0.61C489.81,21.05,475.69,21.05,461.56,21.05z M998.95,112.37c-0.37-0.01-0.74-0.02-1.11-0.02
			c0,7.69,0,15.37,0,23.06c0.37,0.01,0.74,0.01,1.11,0.02C998.95,127.74,998.95,120.06,998.95,112.37z M996.24,416.1
			c0.21,0,0.42,0.01,0.63,0.01c0-10.26,0-20.53,0-30.79c-0.21,0-0.42,0-0.63,0C996.24,395.58,996.24,405.84,996.24,416.1z
			 M993.97,193.44c0.79,0.01,1.58,0.02,2.37,0.03c-0.56-5.8-1.12-11.6-1.68-17.4c-0.23,0.05-0.46,0.09-0.68,0.14
			C993.97,181.96,993.97,187.7,993.97,193.44z"/>
		<path d="M71.13,352.88c-0.77-7.73-2.05-15.45-2.22-23.2c-0.89-41.7-1.83-83.4-2.09-125.1c-0.18-29.78,0.61-59.58,1.18-89.36
			c0.12-5.99,0.69-11.21,7.43-15.3c15.76-9.58,30.55-20.76,45.77-31.23c11.23-7.73,22.48-15.44,33.84-22.98
			c3.1-2.06,6.51-3.8,9.99-5.1c3.44-1.28,5.42,0.19,5.17,4.15c-0.46,7.27-1.11,14.54-1.14,21.81c-0.13,32.05-0.09,64.09-0.08,96.14
			c0.01,31.17,0.06,62.34,0.09,93.5c0,0.61-0.15,1.27,0.04,1.82c5.35,15.08-3.63,24.1-13.7,32.74
			c-14.85,12.73-29.23,26.04-44.56,38.15c-11.71,9.25-24.58,17.03-36.94,25.47C72.98,353.89,72.06,353.39,71.13,352.88z
			 M77.24,343.95c2.78-1.81,4-2.48,5.08-3.32c16.94-13.24,34.05-26.27,50.71-39.85c9.31-7.58,17.9-16.04,26.72-24.2
			c0.95-0.88,1.78-2.37,1.85-3.62c0.5-8.86,1.06-17.74,1.05-26.61c-0.01-9.64-1.05-19.28-0.85-28.91
			c0.47-22.39,1.91-44.78,2.03-67.17c0.16-28.94-0.55-57.88-0.93-86.82c-0.06-4.2-0.36-8.4-0.59-13.37
			C153.99,55.82,146,61.4,137.94,66.9c-19.06,13.01-38.18,25.92-57.15,39.05c-1.56,1.08-2.83,3.48-3.06,5.4
			c-0.65,5.58-0.74,11.23-0.97,16.86c-0.89,21.42-2.12,42.83-2.5,64.25c-0.28,15.52,0.71,31.06,0.9,46.6
			c0.32,27.15,0.37,54.3,0.72,81.45C75.97,327.92,76.71,335.32,77.24,343.95z M166.58,129.8c-0.17-0.06-0.34-0.11-0.51-0.17
			c-0.62,14.55-1.65,29.11-1.79,43.67c-0.3,32.06-0.24,64.11-0.07,96.17c0.02,4.71-1.45,8.21-4.79,11.17
			c-6.16,5.45-12.19,11.05-18.54,16.27c-15.7,12.9-31.46,25.72-47.37,38.36c-5.38,4.27-11.26,7.91-18.42,12.89
			c-0.83-15.56-2.06-28.99-2.17-42.44c-0.34-40.57-0.57-81.15-0.2-121.72c0.22-24.48,1.58-48.96,2.63-73.43
			c0.08-1.91,1.33-4.3,2.81-5.52c4.66-3.82,9.61-7.32,14.6-10.71c12.12-8.24,24.41-16.25,36.49-24.55
			c11.31-7.77,22.45-15.79,33.66-23.7c0.67,0.42,1.33,0.84,2,1.27c0,15.94,0,31.88,0,47.82c0.67-0.01,1.33-0.01,2-0.02
			c0-17.33,0-34.65,0-52.85c-6.36,3.37-13.01,6.17-18.89,10.14c-24.6,16.6-48.99,33.52-73.36,50.46c-1.43,1-2.82,3.05-2.97,4.72
			c-0.7,7.44-1.12,14.92-1.31,22.4c-0.8,30.15-1.58,60.3-2.17,90.45c-0.26,13.18-0.43,26.38,0.07,39.55
			c0.67,17.75,2.1,35.47,3.07,53.21c0.57,10.39,0.99,20.8,1.28,31.21c0.18,6.63,3.64,5.86,7.39,3.28
			c11.27-7.74,22.85-15.15,33.45-23.75c14.6-11.85,28.3-24.79,42.59-37.04c8.53-7.31,14.84-15.14,10.94-27.36
			c-0.65-2.04-0.36-4.41-0.36-6.63C166.58,211.91,166.58,170.86,166.58,129.8z"/>
		<path d="M204.05,663.56c-1.6-21.47,2.59-40.96,19.45-56.06c13.69-12.27,27.1-24.85,40.86-37.04c6.26-5.55,9.18-12.01,8.23-20.34
			c-0.3-2.6-0.05-5.26-0.05-8.13c4.25,5.48,3.49,19.06-1.86,24.31c-7.63,7.48-15.89,14.31-23.68,21.63
			c-6.64,6.25-13.06,12.74-19.43,19.26c-4.73,4.84-10.06,9.38-13.67,14.99c-6.99,10.82-9.76,23.14-9.63,36.06
			C204.3,660.01,204.13,661.79,204.05,663.56z"/>
		<path d="M984.94,227.8c-0.05,0.6,0.14,1.38-0.17,1.76c-3.09,3.73-8.43,4.74-10.65,10.02c-1.02,2.42-7.67-1.25-8.35-5.72
			c-0.6-3.96-0.84-8.27,0.16-12.06c0.62-2.36,3.63-5.18,5.98-5.63c1.7-0.32,4.29,2.72,6.09,4.63c2.07,2.19,3.7,4.79,5.52,7.22
			C983.99,227.95,984.47,227.88,984.94,227.8z M980.56,229.2c-1.24-1.97-2.89-4.8-4.77-7.46c-0.95-1.35-2.18-3.02-3.58-3.37
			c-0.92-0.23-3.36,1.64-3.39,2.61c-0.13,4.89-0.2,9.9,0.76,14.66c0.52,2.6,2.81,2.83,4.8,0.05
			C976.26,233.07,978.85,230.96,980.56,229.2z"/>
		<path d="M889.52,66.6c-0.91-12.91-9.3-32.62-16.62-36.04c3.27-1.78,5.64-3.07,7.68-4.19c1.05,4.45,1.59,7.95,2.71,11.26
			c2.82,8.29,6.04,16.45,8.74,24.78c0.39,1.19,3.41,6.03-2.57,4.11C889.46,66.51,889.52,66.6,889.52,66.6z"/>
		<path d="M788.52,571.29c13.87-7.82,28.31-8.4,43.17-3.68C816.92,564.67,802.61,566.8,788.52,571.29z"/>
		<path d="M733.06,590.97c0-0.2-0.06-0.55,0.02-0.59c14.2-6.88,27.77-15.35,44.13-16.55c-4.89,1.35-9.96,2.24-14.62,4.14
			c-7.77,3.18-15.26,7.06-22.91,10.53c-2.15,0.98-4.48,1.57-6.72,2.34L733.06,590.97z"/>
		<path d="M781.86,45.44c2.21,2.9,4.72,5.05,4.34,5.92c-1,2.25-3.27,3.93-5.04,5.84c-1.8-1.72-4.81-3.3-5.02-5.19
			C775.97,50.42,779.06,48.47,781.86,45.44z"/>
		<path d="M996.38,595.68c-9.87-6.9-18.26,3.02-28.83,1.49c5.5-1.75,10.42-2.53,14.51-4.82
			C987.97,589.03,991.93,592.36,996.38,595.68z"/>
		<path d="M857.81,577.05c11.43,0.99,16.41,4.57,20.7,14.73C873.4,584.38,867.01,578.76,857.81,577.05z"/>
		<path d="M732.95,590.85c-6.91,2.6-13.83,5.2-20.74,7.8c-0.21-0.67-0.41-1.34-0.62-2.01c7.15-1.89,14.31-3.78,21.46-5.67
			C733.06,590.97,732.95,590.85,732.95,590.85z"/>
		<path class="st11" d="M540.5,282.7c-33.64-1.56-67.82-3.14-101.88-4.71c-0.97-14.68-1.88-29.4-2.94-44.09
			c-1.37-18.89-3-37.76-4.22-56.65c-0.34-5.21,0.55-10.48,0.56-15.73c0.06-32.82,0.03-65.65,0.03-98.47
			c0-9.68,0.12-19.36-0.08-29.03c-0.06-2.75-1.08-5.47-1.66-8.2c-0.62,0.1-1.24,0.2-1.86,0.3c0,26.01-0.16,52.01,0.04,78.02
			c0.24,31.97,0.59,63.94,1.27,95.9c0.26,12.31,1.55,24.6,2.33,36.9c0.13,1.99,0.02,4,0.02,6.68c-7.7,0-15.03,0-22.36,0
			c0,0.42,0,0.83,0,1.25c7.62,0,15.25,0,23.06,0c0.58,6.66,1.12,12.79,1.69,19.27c-2.8,0.23-5.32,0.44-7.83,0.65
			c0.01,0.19,0.01,0.37,0.02,0.56c2.41,0.15,4.81,0.3,7.44,0.47c1,19.13,2,38.26,3.02,57.73c-1.9,0.37-3.39,0.65-6.08,1.17
			c2.64,0.47,4.1,0.74,6.21,1.11c0,9.76,0,19.45,0,29.65c-35.28,0-71.17,0-107.07,0c0,0.4-0.01,0.79-0.01,1.19
			c35.82,0,71.65,0,107.71,0c0.23,4.63,0.42,8.36,0.63,12.53c-8.11,0-16.22-0.35-24.3,0.06c-27.21,1.38-54.41,3.06-81.61,4.52
			c-3.12,0.17-6.27-0.3-10.19-0.53c0-17.85,0.26-34.98-0.05-52.11c-0.63-34.41-0.62-68.87-2.64-103.2
			c-2.4-40.82-5.35-81.6-4.51-122.52c0.39-19.23,1.48-38.45,2.38-57.67c0.24-5.13,0.96-10.23,1.48-15.57
			c42.67,0.07,85.13-3.65,127.57,0.63c-41.48,0.97-83-0.1-124.48,0.86c0.01,0.8,0.03,1.61,0.04,2.41
			c70.88-0.82,141.76-1.64,212.63-2.46c0.08-0.21,0.16-0.41,0.24-0.62c-2.12-0.47-4.24-0.94-6.25-1.39
			c8.32-2.01,10.28,1.44,8.79,15.51c-34.22-1.23-68.43-2.47-102.65-3.7c-0.01,0.36-0.03,0.73-0.04,1.09
			c34.07,1.35,68.15,2.7,103.12,4.09c0,2.61,0,4.54,0,6.47c0,13.8-0.24,27.61,0.05,41.4c0.67,32.58,1.9,65.15,2.3,97.74
			C540.82,216.82,540.5,249.43,540.5,282.7z M496.36,242.2c-16.46,0.55-32.91,1.1-49.37,1.64c16.34-0.31,32.64-0.31,48.94-0.34
			c0.32,0,0.64-0.44,0.96-0.67c13.21,0,26.42,0,39.63,0c0-0.21-0.01-0.42-0.01-0.63C523.13,242.2,509.74,242.2,496.36,242.2z
			 M327.77,199.28c0,0.07,0,0.13,0.01,0.2c26.95,0.62,53.9,1.23,80.35,1.83c3.06,8.63-3.38,18.8,7.19,26.59c0-13.88,0-26.29,0-38.79
			c-5.72,0.61-5.72,0.61-7.1,10.16C381.39,199.28,354.58,199.28,327.77,199.28z M535.67,124.49c0.01-0.33,0.02-0.66,0.03-0.98
			c-32,0-64.01,0-96.01,0c-0.01,0.33-0.02,0.66-0.03,0.98C471.66,124.49,503.67,124.49,535.67,124.49z M452.81,184.34
			c-0.67-0.34-1.33-0.69-2-1.03c-1.37,1.81-3.83,3.56-3.92,5.43c-0.49,9.69-0.56,19.42-0.3,29.13c0.05,1.73,2.31,3.4,3.55,5.1
			c1.19-2.05,3.33-4.07,3.4-6.16c0.21-5.81-0.53-11.65-0.7-17.49C452.7,194.33,452.81,189.33,452.81,184.34z M320.1,35.3
			c0.06,0.46,0.12,0.91,0.18,1.37c35.08-0.83,70.15-1.65,105.23-2.48c-0.01-0.53-0.03-1.05-0.04-1.58
			C390.35,33.51,355.23,34.4,320.1,35.3z M444.88,144.11c-0.02,0.08-0.03,0.16-0.05,0.24c29.89,0.7,59.78,1.39,89.67,2.09
			c0.02-0.78,0.04-1.55,0.06-2.33C504.66,144.11,474.77,144.11,444.88,144.11z M431.8,338.38c-0.06-0.4-0.13-0.8-0.19-1.2
			c-33.08,0-66.16,0-99.25,0c0,0.4,0,0.8,0,1.2C365.52,338.38,398.66,338.38,431.8,338.38z M424.54,61.33c0-0.36,0-0.71,0-1.07
			c-33.72,0-67.45,0-101.17,0c0,0.36,0,0.71,0,1.07C357.09,61.33,390.82,61.33,424.54,61.33z M320.15,103.41c0,0.39,0,0.77,0,1.16
			c34,0,68.01,0,102.01,0c0-0.39,0-0.77,0-1.16C388.16,103.41,354.16,103.41,320.15,103.41z M324.94,176.93
			c35.25,1.3,68.85,2.55,102.45,3.79C393.87,176.57,360.2,176.33,324.94,176.93z M533.65,261.98c-0.02-0.32-0.04-0.64-0.06-0.96
			c-29.57,0-59.13,0-88.7,0c22.28,2.05,44.61,2.89,66.95,3.13C519.1,264.22,526.38,262.74,533.65,261.98z M437.69,103.36
			c-0.01,0.26-0.01,0.52-0.02,0.77c31.36,0,62.72,0,94.09,0c0-0.26,0.01-0.52,0.01-0.77C500.41,103.36,469.05,103.36,437.69,103.36z
			 M422.02,303.88c-30.38-0.3-60.67-1.38-90.79,2.8C361.5,305.75,391.76,304.81,422.02,303.88z M425.8,47.88
			c0-0.28,0-0.56-0.01-0.84c-33.96,0-67.92,0-101.88,0c0,0.28,0.01,0.56,0.01,0.84C357.88,47.88,391.84,47.88,425.8,47.88z
			 M420.72,160.67c0.01-0.44,0.02-0.88,0.04-1.32c-31.31-0.92-62.63-1.84-93.94-2.77c-0.01,0.44-0.02,0.87-0.04,1.31
			C358.09,158.82,389.41,159.75,420.72,160.67z M526.71,83.22c0.01-0.21,0.02-0.42,0.02-0.63c-29.86,0-59.72,0-89.58,0
			c-0.01,0.21-0.01,0.42-0.02,0.63C466.99,83.22,496.85,83.22,526.71,83.22z M324.25,73.78c0.1,0.33,0.19,0.66,0.29,0.99
			c32.92,0,65.84,0,98.75,0c0-0.33,0.01-0.66,0.01-0.99C390.29,73.78,357.27,73.78,324.25,73.78z M439.69,49.06
			c0.03-0.27,0.06-0.54,0.08-0.82c31.03,0.7,62.07,1.39,93.1,2.09c0-0.42,0.01-0.85,0.01-1.27
			C501.82,49.06,470.76,49.06,439.69,49.06z M323.9,89.34c0,0.18,0,0.35,0,0.53c32.57,0,65.14,0,97.71,0c0-0.18,0-0.35,0-0.53
			C389.04,89.34,356.47,89.34,323.9,89.34z M327.08,261.51c31.76,0.83,63.43,1.66,95.1,2.49
			C390.52,261.7,358.87,259.22,327.08,261.51z M411.04,139.15c0-0.36,0-0.72,0-1.08c-28.54,0-57.09,0-85.63,0c0,0.36,0,0.72,0,1.08
			C353.95,139.15,382.5,139.15,411.04,139.15z M403.96,243.46c0.03-0.46,0.05-0.91,0.08-1.37c-23.41,0.67-46.83,1.34-70.24,2.02
			c0.01,0.51,0.03,1.03,0.04,1.54C357.21,244.92,380.59,244.19,403.96,243.46z M521.5,66.18c-0.01-0.28-0.02-0.56-0.03-0.83
			c-28.39,0-56.78,0-85.17,0c0,0.28-0.01,0.56-0.01,0.83C464.69,66.18,493.1,66.18,521.5,66.18z M328.58,223.29
			c0.05,0.4,0.1,0.8,0.15,1.2c22.93,0,45.86,0,68.8,0c0-0.4,0-0.8,0-1.2C374.54,223.29,351.56,223.29,328.58,223.29z M521.58,162.88
			c-0.06-0.26-0.11-0.51-0.17-0.77c-28.45,0-56.9,0-85.35,0c0,0.26-0.01,0.51-0.01,0.77C464.56,162.88,493.07,162.88,521.58,162.88z
			 M338.54,319.86c-0.11,0.47-0.22,0.93-0.33,1.4c23.88,0.68,47.75,1.37,71.63,2.05c0.01-0.39,0.03-0.78,0.04-1.17
			C386.09,321.37,362.32,320.62,338.54,319.86z M513.55,195.24c0.01-0.29,0.01-0.58,0.02-0.87c-18.57,0-37.15,0-55.72,0
			c0,0.29,0,0.58,0,0.87C476.41,195.24,494.98,195.24,513.55,195.24z M502.41,225.72c0-0.29,0-0.57,0-0.86c-21.01,0-42.02,0-63.03,0
			c0,0.29,0,0.57,0.01,0.86C460.39,225.72,481.4,225.72,502.41,225.72z M519.44,212.22c-18.51-1.05-37.02-1.98-55.45,0
			C482.47,212.22,500.95,212.22,519.44,212.22z M491.24,176.37c-0.1-0.2-0.2-0.39-0.3-0.59c-18.74,0-37.47,0-56.21,0
			c0,0.2,0,0.39,0,0.59C453.57,176.37,472.4,176.37,491.24,176.37z M373.88,288.12c-0.02-0.26-0.04-0.52-0.06-0.78
			c-13.79,0-27.59,0-41.38,0c0.01,0.26,0.01,0.52,0.02,0.78C346.26,288.12,360.07,288.12,373.88,288.12z M358.54,119.91
			c-0.05-0.24-0.1-0.48-0.15-0.72c-11.7,0-23.41,0-35.11,0c-0.02,0.24-0.03,0.48-0.05,0.72C335,119.91,346.77,119.91,358.54,119.91z
			"/>
		<path class="st11" d="M443.91,369.51c-1.87-30.14-3.67-59.24-5.59-90.15c34.17,1.59,68.24,3.18,102.23,4.76
			c0,7.91,0,14.48,0,20.57c-32.43,0.35-64.43-1.55-96.56,2.42c32.2,0,64.11,0,95.64,0c1.43,20.24,2.84,40.09,4.29,60.56
			C510.54,368.28,477.25,368.89,443.91,369.51z M538.85,345.24c-28.88-2.02-57.99-4.07-88.4,0
			C480.8,345.24,509.82,345.24,538.85,345.24z M456.63,360.34c0,0.23,0,0.47,0,0.7c26.87,0,53.73,0,80.6,0
			c0.01-0.23,0.01-0.47,0.02-0.7C510.38,360.34,483.51,360.34,456.63,360.34z M473.7,328.72c0,0.16,0.01,0.32,0.01,0.48
			c20.51,0,41.02,0,61.54,0c-0.01-0.16-0.02-0.32-0.03-0.48C514.72,328.72,494.21,328.72,473.7,328.72z"/>
		<path class="st11" d="M920.89,121.77c-2.43,1.59-3.63,3.07-4.8,3.04c-15.93-0.43-31.86-1.02-47.78-1.7
			c-2.57-0.11-5.15-0.75-7.68-1.34c-4.14-0.96-6.41-2.95-6.07-7.93c0.79-11.63,0.88-23.3,1.36-34.95c0.23-5.64,3.46-9.11,10.81-9.17
			c17.89-0.15,35.79,0.5,53.68,0.82c0.03,0.85,0.05,1.7,0.08,2.55c-3.06,0-6.11,0.06-9.17-0.01c-14.31-0.33-28.63-0.94-42.94-0.94
			c-6.07,0-10.52,5.17-11.13,12.18c-0.68,7.83-0.9,15.71-1.3,23.56c-0.43,8.27,1.98,10.88,10.91,11.46
			c13.1,0.86,26.25,0.89,39.37,1.36C910.37,120.85,914.5,121.29,920.89,121.77z"/>
		<path class="st11" d="M921.07,47.35c0,7.29,0,13.79,0,20.65c-7.37,0-14.72,0-22.95,0C906.09,60.82,913.47,54.19,921.07,47.35z"/>
		<path class="st11" d="M994.34,246.41c-0.78-9.35-1.55-18.7-2.27-27.3c0.37,0.57,1.24,1.94,2.68,4.2
			c-0.3-6.41-0.54-11.66-0.79-16.9c0.39,0,0.77,0.01,1.16,0.01c0,13.38,0,26.75,0,40.13C994.87,246.49,994.6,246.45,994.34,246.41z"
			/>
		<path class="st11" d="M1006.32,233.53c-2.79-3.05-5.59-6.11-7.96-8.7c3.37-2.27,6.04-4.06,9.39-6.31c0,4.51,0,9.04,0,13.58
			C1007.27,232.57,1006.79,233.05,1006.32,233.53z"/>
		<path class="st11" d="M862.62,140.33c5.28-5.5,5.01-14.68,15.55-14.86C872.99,130.84,873.03,139.78,862.62,140.33z"/>
		<path class="st11" d="M995.21,348.91c0,10.19,0,20.39,0,30.58c-0.23,0.04-0.45,0.09-0.68,0.13c-0.99-5.97-1.99-11.95-3.13-18.81
			c1.25,2.31,2.11,3.9,3.21,5.93c-0.54-6.19-1.03-11.77-1.51-17.35C993.8,349.24,994.51,349.08,995.21,348.91z"/>
		<path class="st11" d="M998.85,100.71c-0.88-2.75-3.24-7.25-2.39-7.98c5.65-4.82,0.89-11.51,4.53-17.65c0,9.04,0,17.03,0,25.01
			C1000.28,100.3,999.56,100.5,998.85,100.71z"/>
		<path class="st11" d="M912.9,196.94c0.68-9.01,1.36-18.03,2.05-27.04c0.72,0.06,1.44,0.12,2.16,0.18
			c-0.73,9.01-1.47,18.01-2.2,27.02C914.24,197.05,913.57,197,912.9,196.94z"/>
		<path class="st11" d="M461.56,21.05c14.13,0,28.25,0,42.38,0c0,0.2,0,0.41,0.01,0.61c-14.09,0-28.19,0-42.28,0
			C461.63,21.46,461.59,21.25,461.56,21.05z"/>
		<path class="st11" d="M998.95,112.37c0,7.68,0,15.37,0,23.05c-0.37-0.01-0.74-0.01-1.11-0.02c0-7.69,0-15.37,0-23.06
			C998.21,112.36,998.58,112.36,998.95,112.37z"/>
		<path class="st11" d="M996.24,416.1c0-10.26,0-20.52,0-30.78c0.21,0,0.42,0,0.63,0c0,10.26,0,20.53,0,30.79
			C996.66,416.11,996.45,416.11,996.24,416.1z"/>
		<path class="st11" d="M993.97,193.44c0-5.74,0-11.48,0-17.23c0.23-0.05,0.46-0.09,0.68-0.14c0.56,5.8,1.12,11.6,1.68,17.4
			C995.55,193.46,994.76,193.45,993.97,193.44z"/>
		<path class="st11" d="M77.24,343.95c-0.52-8.63-1.27-16.03-1.36-23.43c-0.35-27.15-0.4-54.3-0.72-81.45
			c-0.18-15.54-1.18-31.08-0.9-46.6c0.38-21.43,1.61-42.84,2.5-64.25c0.23-5.63,0.32-11.28,0.97-16.86c0.22-1.92,1.5-4.33,3.06-5.4
			c18.97-13.13,38.09-26.04,57.15-39.05c8.06-5.5,16.06-11.08,24.38-16.83c0.23,4.97,0.54,9.17,0.59,13.37
			c0.38,28.94,1.1,57.88,0.93,86.82c-0.13,22.39-1.57,44.77-2.03,67.17c-0.2,9.63,0.84,19.27,0.85,28.91
			c0,8.87-0.56,17.75-1.05,26.61c-0.07,1.25-0.9,2.75-1.85,3.62c-8.82,8.16-17.41,16.62-26.72,24.2
			c-16.67,13.58-33.77,26.61-50.71,39.85C81.24,341.47,80.02,342.14,77.24,343.95z M99.86,142.11c-0.46-0.23-0.92-0.46-1.38-0.69
			c-6.16,11.85-12.32,23.69-18.49,35.54c0.53,0.26,1.06,0.52,1.58,0.79C87.67,165.87,93.76,153.99,99.86,142.11z M93.02,195.09
			c0.4,0.2,0.8,0.39,1.2,0.59c3.42-6.84,6.84-13.69,10.27-20.53c-0.44-0.21-0.87-0.43-1.31-0.64
			C99.79,181.37,96.4,188.23,93.02,195.09z"/>
		<path class="st11" d="M166.58,129.8c0,41.05,0,82.1,0.01,123.16c0,2.22-0.29,4.59,0.36,6.63c3.9,12.22-2.41,20.06-10.94,27.36
			c-14.29,12.24-27.99,25.19-42.59,37.04c-10.59,8.6-22.17,16.01-33.45,23.75c-3.75,2.57-7.21,3.35-7.39-3.28
			c-0.28-10.41-0.71-20.81-1.28-31.21c-0.97-17.74-2.4-35.46-3.07-53.21c-0.5-13.16-0.32-26.37-0.07-39.55
			c0.59-30.15,1.37-60.3,2.17-90.45c0.2-7.47,0.62-14.95,1.31-22.4c0.16-1.68,1.54-3.73,2.97-4.72
			C99.01,85.99,123.4,69.07,148,52.46c5.88-3.97,12.53-6.77,18.89-10.14c0,18.2,0,35.53,0,52.85c-0.67,0.01-1.33,0.01-2,0.02
			c0-15.94,0-31.88,0-47.82c-0.67-0.42-1.33-0.84-2-1.27c-11.21,7.91-22.35,15.93-33.66,23.7c-12.08,8.3-24.37,16.31-36.49,24.55
			c-4.99,3.39-9.94,6.89-14.6,10.71c-1.48,1.22-2.73,3.61-2.81,5.52c-1.05,24.47-2.41,48.94-2.63,73.43
			c-0.37,40.57-0.14,81.14,0.2,121.72c0.11,13.44,1.34,26.87,2.17,42.44c7.16-4.98,13.05-8.62,18.42-12.89
			c15.91-12.64,31.68-25.46,47.37-38.36c6.35-5.22,12.38-10.82,18.54-16.27c3.35-2.96,4.82-6.46,4.79-11.17
			c-0.17-32.06-0.23-64.12,0.07-96.17c0.14-14.56,1.17-29.11,1.79-43.67C166.24,129.69,166.41,129.75,166.58,129.8z"/>
		<path class="st11" d="M980.56,229.2c-1.71,1.75-4.3,3.87-6.17,6.49c-1.99,2.78-4.27,2.55-4.8-0.05
			c-0.96-4.76-0.89-9.77-0.76-14.66c0.03-0.97,2.47-2.83,3.39-2.61c1.39,0.34,2.62,2.01,3.58,3.37
			C977.67,224.4,979.31,227.23,980.56,229.2z"/>
		<path d="M327.77,199.28c26.81,0,53.63,0,80.45,0c1.38-9.55,1.38-9.55,7.1-10.16c0,12.5,0,24.91,0,38.79
			c-10.57-7.79-4.14-17.96-7.19-26.59c-26.45-0.6-53.4-1.22-80.35-1.83C327.77,199.41,327.77,199.35,327.77,199.28z M413.09,192.6
			c-2.9,7.51-2.11,25.37,0,28.23C413.09,211.9,413.09,202.25,413.09,192.6z"/>
		<path d="M535.67,124.49c-32,0-64.01,0-96.01,0c0.01-0.33,0.02-0.66,0.03-0.98c32,0,64.01,0,96.01,0
			C535.69,123.83,535.68,124.16,535.67,124.49z"/>
		<path d="M452.81,184.34c0,4.99-0.12,9.99,0.03,14.97c0.17,5.83,0.91,11.68,0.7,17.49c-0.08,2.09-2.21,4.11-3.4,6.16
			c-1.24-1.7-3.51-3.37-3.55-5.1c-0.26-9.7-0.19-19.43,0.3-29.13c0.09-1.87,2.55-3.62,3.92-5.43
			C451.48,183.65,452.15,184,452.81,184.34z M450.68,187.17c-0.37,0.01-0.74,0.03-1.11,0.04c0,10.69,0,21.37,0,32.06
			c0.37-0.03,0.74-0.05,1.11-0.08C450.68,208.52,450.68,197.85,450.68,187.17z"/>
		<path d="M320.1,35.3c35.12-0.9,70.25-1.79,105.37-2.69c0.01,0.53,0.03,1.05,0.04,1.58c-35.08,0.83-70.15,1.65-105.23,2.48
			C320.22,36.21,320.16,35.76,320.1,35.3z"/>
		<path d="M444.88,144.11c29.89,0,59.78,0,89.67,0c-0.02,0.78-0.04,1.55-0.06,2.33c-29.89-0.7-59.78-1.39-89.67-2.09
			C444.85,144.27,444.87,144.19,444.88,144.11z"/>
		<path d="M431.8,338.38c-33.14,0-66.29,0-99.43,0c0-0.4,0-0.8,0-1.2c33.08,0,66.16,0,99.25,0
			C431.68,337.59,431.74,337.98,431.8,338.38z"/>
		<path d="M424.54,61.33c-33.72,0-67.45,0-101.17,0c0-0.36,0-0.71,0-1.07c33.72,0,67.45,0,101.17,0
			C424.54,60.61,424.54,60.97,424.54,61.33z"/>
		<ellipse cx="371.16" cy="103.99" rx="72.14" ry="0.82"/>
		<path d="M324.94,176.93c35.26-0.6,68.93-0.35,102.45,3.79C393.79,179.47,360.19,178.23,324.94,176.93z"/>
		<path d="M533.65,261.98c-7.27,0.77-14.55,2.24-21.81,2.17c-22.34-0.24-44.67-1.08-66.95-3.13c29.57,0,59.13,0,88.7,0
			C533.61,261.34,533.63,261.66,533.65,261.98z"/>
		<path d="M437.69,103.36c31.36,0,62.72,0,94.08,0c0,0.26-0.01,0.52-0.01,0.77c-31.36,0-62.72,0-94.09,0
			C437.68,103.87,437.68,103.62,437.69,103.36z"/>
		<path d="M422.02,303.88c-30.26,0.93-60.52,1.87-90.79,2.8C361.36,302.5,391.64,303.58,422.02,303.88z"/>
		<path d="M425.8,47.88c-33.96,0-67.92,0-101.88,0c0-0.28-0.01-0.56-0.01-0.84c33.96,0,67.92,0,101.88,0
			C425.79,47.32,425.8,47.6,425.8,47.88z"/>
		<path d="M420.72,160.67c-31.31-0.92-62.63-1.85-93.94-2.77c0.01-0.44,0.02-0.87,0.04-1.31c31.31,0.92,62.63,1.84,93.94,2.77
			C420.74,159.79,420.73,160.23,420.72,160.67z"/>
		<path d="M526.71,83.22c-29.86,0-59.72,0-89.58,0c0.01-0.21,0.01-0.42,0.02-0.63c29.86,0,59.72,0,89.58,0
			C526.73,82.8,526.72,83.01,526.71,83.22z"/>
		<path d="M324.25,73.78c33.02,0,66.04,0,99.06,0c0,0.33-0.01,0.66-0.01,0.99c-32.92,0-65.84,0-98.75,0
			C324.44,74.44,324.34,74.11,324.25,73.78z"/>
		<path d="M439.69,49.06c31.06,0,62.13,0,93.19,0c0,0.42-0.01,0.85-0.01,1.27c-31.03-0.7-62.07-1.39-93.1-2.09
			C439.75,48.51,439.72,48.78,439.69,49.06z"/>
		<ellipse cx="372.75" cy="89.61" rx="69.09" ry="0.37"/>
		<path d="M327.08,261.51c31.79-2.29,63.44,0.19,95.1,2.49C390.51,263.18,358.84,262.35,327.08,261.51z"/>
		<ellipse cx="368.22" cy="138.61" rx="60.55" ry="0.76"/>
		<path d="M403.96,243.46c-23.38,0.73-46.75,1.46-70.13,2.18c-0.01-0.51-0.03-1.03-0.04-1.54c23.41-0.67,46.83-1.34,70.24-2.02
			C404.02,242.55,403.99,243.01,403.96,243.46z"/>
		<path d="M521.5,66.18c-28.4,0-56.81,0-85.21,0c0-0.28,0.01-0.56,0.01-0.83c28.39,0,56.78,0,85.17,0
			C521.48,65.62,521.49,65.9,521.5,66.18z"/>
		<path d="M328.58,223.29c22.98,0,45.96,0,68.95,0c0,0.4,0,0.8,0,1.2c-22.93,0-45.86,0-68.8,0
			C328.68,224.09,328.63,223.69,328.58,223.29z"/>
		<path d="M521.58,162.88c-28.51,0-57.02,0-85.53,0c0-0.26,0.01-0.51,0.01-0.77c28.45,0,56.9,0,85.35,0
			C521.46,162.37,521.52,162.63,521.58,162.88z"/>
		<path d="M338.54,319.86c23.78,0.76,47.56,1.52,71.33,2.28c-0.01,0.39-0.03,0.78-0.04,1.17c-23.88-0.68-47.75-1.37-71.63-2.05
			C338.31,320.79,338.43,320.32,338.54,319.86z"/>
		<path d="M513.55,195.24c-18.57,0-37.13,0-55.7,0c0-0.29,0-0.58,0-0.87c18.57,0,37.15,0,55.72,0
			C513.56,194.66,513.55,194.95,513.55,195.24z"/>
		<path d="M502.41,225.72c-21.01,0-42.02,0-63.03,0c0-0.29,0-0.57-0.01-0.86c21.01,0,42.02,0,63.03,0
			C502.41,225.15,502.41,225.43,502.41,225.72z"/>
		<path d="M519.44,212.22c-18.48,0-36.97,0-55.45,0C482.42,210.24,500.93,211.17,519.44,212.22z"/>
		<path d="M491.24,176.37c-18.84,0-37.67,0-56.51,0c0-0.2,0-0.39,0-0.59c18.74,0,37.47,0,56.21,0
			C491.04,175.98,491.14,176.17,491.24,176.37z"/>
		<path d="M496.89,242.82c-0.32,0.23-0.64,0.67-0.96,0.67c-16.3,0.03-32.6,0.03-48.94,0.34c16.46-0.55,32.91-1.1,49.37-1.64
			C496.54,242.41,496.72,242.62,496.89,242.82z"/>
		<path d="M373.88,288.12c-13.81,0-27.62,0-41.43,0c-0.01-0.26-0.01-0.52-0.02-0.78c13.79,0,27.59,0,41.38,0
			C373.84,287.59,373.86,287.86,373.88,288.12z"/>
		<path d="M496.36,242.2c13.38,0,26.77,0,40.15,0c0,0.21,0.01,0.42,0.01,0.63c-13.21,0-26.42,0-39.63,0
			C496.72,242.62,496.54,242.41,496.36,242.2z"/>
		<path d="M358.54,119.91c-11.77,0-23.54,0-35.31,0c0.02-0.24,0.03-0.48,0.05-0.72c11.7,0,23.41,0,35.11,0
			C358.44,119.43,358.49,119.67,358.54,119.91z"/>
		<path d="M538.85,345.24c-29.03,0-58.05,0-88.4,0C480.86,341.18,509.96,343.22,538.85,345.24z"/>
		<path d="M456.63,360.34c26.87,0,53.74,0,80.61,0c-0.01,0.23-0.01,0.47-0.02,0.7c-26.87,0-53.73,0-80.6,0
			C456.64,360.8,456.64,360.57,456.63,360.34z"/>
		<path d="M473.7,328.72c20.51,0,41.01,0,61.52,0c0.01,0.16,0.02,0.32,0.03,0.48c-20.51,0-41.02,0-61.54,0
			C473.71,329.05,473.71,328.89,473.7,328.72z"/>
		<path d="M99.86,142.11c-6.09,11.88-12.19,23.76-18.28,35.63c-0.53-0.26-1.06-0.52-1.58-0.79c6.16-11.85,12.32-23.69,18.49-35.54
			C98.94,141.65,99.4,141.88,99.86,142.11z"/>
		<path d="M93.02,195.09c3.39-6.86,6.77-13.72,10.16-20.59c0.44,0.21,0.87,0.43,1.31,0.64c-3.42,6.84-6.84,13.69-10.27,20.53
			C93.82,195.48,93.42,195.29,93.02,195.09z"/>
		<path class="st11" d="M413.09,192.6c0,9.65,0,19.29,0,28.23C410.98,217.97,410.2,200.11,413.09,192.6z"/>
		<path class="st11" d="M450.68,187.17c0,10.68,0,21.35,0,32.03c-0.37,0.03-0.74,0.05-1.11,0.08c0-10.69,0-21.37,0-32.06
			C449.94,187.2,450.31,187.18,450.68,187.17z"/>
	</g>
</g>
</svg>
