<?xml version="1.0" encoding="utf-8"?>
<!-- Generator: Adobe Illustrator 23.0.3, SVG Export Plug-In . SVG Version: 6.00 Build 0)  -->
<svg version="1.1" id="Capa_1" xmlns="http://www.w3.org/2000/svg" xmlns:xlink="http://www.w3.org/1999/xlink" x="0px" y="0px"
	 viewBox="0 0 842 493" style="enable-background:new 0 0 842 493;" xml:space="preserve">
<style type="text/css">
	.st0{fill:#FFFFFF;}
</style>
<g>
	<path class="st0" d="M232.39,491.39c-22.9,0-45.8,0-68.71,0c3.96-0.61,7.91-1.38,11.89-1.77c4.01-0.39,8.06-0.46,12.1-0.57
		c11.31-0.32,22.56-2.06,33.92-1.51c1.56,0.08,3.14-0.09,4.7-0.27c0.5-0.06,0.95-0.56,1.52-0.91c-0.42-0.35-0.59-0.6-0.75-0.6
		c-5.38,0.09-10.77,0.1-16.14,0.35c-6.94,0.32-13.88,0.79-20.81,1.26c-9.05,0.62-18.1,1.31-27.15,1.94
		c-3.78,0.26-7.57,0.47-11.36,0.65c-1.02,0.05-1.39,0.51-1.38,1.45c-1.12,0-2.25,0-3.37,0c0.45-8.46,0.9-16.92,1.34-25.34
		c1.74,0,3.08,0.08,4.41-0.01c7.71-0.52,15.43-1.02,23.13-1.63c9.5-0.75,18.99-1.55,28.49-2.4c8.37-0.75,16.72-1.65,25.09-2.4
		c5.69-0.51,11.4-0.86,17.1-1.28c1.27-0.09,2.61-0.03,3.69-1.74c-2.05,0.1-3.69,0.14-5.32,0.26c-5.03,0.35-10.08,0.59-15.09,1.11
		c-9.03,0.94-18.03,2.15-27.06,3.05c-7.03,0.7-14.08,1.13-21.13,1.64c-9.84,0.7-19.69,1.36-29.53,2.02
		c-1.18,0.08-2.38,0.01-3.83,0.01c0-5.36-0.09-10.29,0.02-15.21c0.18-8.07,0.51-16.14,0.75-24.21c0.17-5.61,0.28-11.22,0.43-16.83
		c0.22-7.95,0.8-15.88,0.35-23.87c-0.36-6.32,0.23-12.69,0.4-19.33c8.21,0,15.94,0.24,23.65-0.06c9.63-0.37,19.23-1.27,28.86-1.76
		c5.15-0.26,10.31-0.16,15.47-0.22c8.86-0.11,17.73-0.22,26.59-0.34c0.7-0.01,1.4-0.09,2.1-0.14c-1.46-1.23-3.08-1.2-4.74-1.2
		c-10.32,0.02-20.63-0.02-30.95,0c-1.68,0-3.36,0.13-5.04,0.24c-8.06,0.56-16.1,1.28-24.17,1.68c-8.5,0.43-17.02,0.6-25.53,0.82
		c-1.97,0.05-3.95-0.13-6.07-0.21c0-3.57,0-6.74,0-9.58c34.57-4.36,69.05-5.33,103.52-7.78c0.09,0.75,0.19,1.18,0.19,1.61
		c0.24,16.61,0.52,33.21,0.69,49.82c0.11,11,0.11,21.99,0.06,32.99c-0.01,2.68-0.58,5.35-0.6,8.02c-0.01,2.67,0.46,5.34,0.52,8.02
		c0.25,11.55,0.43,23.11,0.61,34.66c0.01,0.63-0.23,1.26-0.39,2.1c-1.24,0-2.34-0.01-3.44,0c-3.14,0.03-6.28,0.04-9.42,0.15
		c-0.56,0.02-1.1,0.52-1.64,0.79c0.07,0.21,0.14,0.42,0.22,0.64c4.84,0,9.68,0,14.73,0c0,2.11,0,4.01,0,5.9c-5.39,0-10.78,0-16.17,0
		c0.13-1.67,0.3-3.33,0.37-5.01c0.17-4.12,0.34-8.25,0.4-12.38c0.02-1.16,0.03-2.55-1.79-2.68c-2.36-0.16-3.74,0.56-4.19,2.41
		c-0.18,0.75-0.19,1.55-0.26,2.33C233.23,481.18,232.81,486.28,232.39,491.39z M226.82,474.83c-0.06-0.24-0.12-0.49-0.19-0.73
		c-1.58,0.14-3.17,0.39-4.75,0.41c-3.7,0.05-7.41-0.17-11.1,0c-6.93,0.33-13.85,0.96-20.78,1.29c-8.17,0.38-16.36,0.49-24.53,0.88
		c-4.58,0.22-9.14,0.75-13.71,1.21c-0.5,0.05-0.96,0.49-1.44,0.75c1.59,0.46,3.03,0.53,4.46,0.45c8.61-0.46,17.22-0.98,25.84-1.42
		c4.92-0.25,9.85-0.4,14.78-0.6c6.37-0.26,12.75-0.53,19.12-0.76c2.8-0.1,5.61,0.04,8.39-0.2
		C224.24,476,225.52,475.28,226.82,474.83z M150.82,401.38c0.04,0.33,0.09,0.65,0.13,0.98c1.12-0.08,2.24-0.12,3.36-0.24
		c8.58-0.94,17.14-2.17,25.74-2.79c16.43-1.18,32.93-1.46,49.29-3.68c5.71-0.77,11.41-1.72,17.11-2.59
		c-0.03-0.28-0.07-0.56-0.1-0.84c-3.74,0.39-7.49,0.75-11.22,1.19c-8.9,1.04-17.78,2.24-26.7,3.13c-5,0.5-10.06,0.36-15.07,0.76
		c-12.85,1.02-25.69,2.17-38.54,3.3C153.47,400.73,152.15,401.11,150.82,401.38z M151.9,418.13c6.77,0.56,79.7-7.46,84.66-9.87
		c-1.84-0.13-3.68-0.13-5.5,0.1c-5.67,0.72-11.33,1.55-16.99,2.3c-5.44,0.72-10.88,1.46-16.33,2.1c-7.68,0.89-15.36,1.78-23.05,2.51
		c-6.25,0.59-12.52,0.91-18.77,1.45C154.58,416.84,153.02,416.7,151.9,418.13z M242.86,375.68c-0.88-0.53-1.14-0.83-1.36-0.81
		c-29.63,3.29-59.46,4.43-89.04,8.31c-0.25,0.03-0.47,0.34-1.4,1.06c1.87,0,3,0.11,4.11-0.02c4.34-0.48,8.68-0.99,13.01-1.58
		c14.24-1.94,28.55-2.92,42.88-3.81c8.17-0.5,16.32-1.33,24.47-2.08C237.78,376.56,240,376.11,242.86,375.68z M243.85,427.65
		c-0.37-0.43-0.49-0.71-0.61-0.7c-29.72,0.41-59.2,4.53-88.88,5.58c-0.76,0.03-1.52,0.3-2.27,0.48c-0.08,0.02-0.19,0.12-0.21,0.21
		c-0.03,0.1,0.03,0.22,0.12,0.8c1.07,0,2.25,0.08,3.42-0.01c5.58-0.46,11.16-1.03,16.74-1.46c6.37-0.49,12.76-0.86,19.13-1.32
		c10.39-0.75,20.78-1.61,31.18-2.27c6.49-0.41,13-0.55,19.5-0.83C242.54,428.07,243.11,427.83,243.85,427.65z M246.39,440.53
		c-1.48,0.37-2.53,0.81-3.61,0.89c-6.37,0.43-12.75,0.66-19.11,1.17c-11.94,0.97-23.89,1.88-35.78,3.21
		c-10.26,1.15-20.51,1.98-30.83,1.92c-0.44,0-0.88,0.18-1.32,0.28c0,0.25,0.01,0.49,0.01,0.74c1.03,0.1,2.07,0.34,3.1,0.29
		c3.91-0.18,7.83-0.35,11.73-0.71c12.27-1.13,24.53-2.36,36.8-3.52c4.68-0.44,9.37-0.96,14.06-1.2c7.28-0.37,14.56-0.56,21.84-0.77
		C244.76,442.79,245.87,442.44,246.39,440.53z M251.47,470.62c-3.31-0.85-6.57-1.04-10.3,0.18
		C244.02,471.89,248.92,471.83,251.47,470.62z"/>
	<path class="st0" d="M358.36,491.39c-26.49,0-52.99,0-79.48,0c0.08-0.21,0.21-0.42,0.22-0.63c0.52-6.37,1.03-12.73,1.51-19.1
		c0.03-0.44-0.05-0.9-0.17-1.33c-0.52-1.83-2.19-2.66-4.6-2.33c-1.78,0.24-2.28,0.84-2.39,2.99c-0.12,2.35-0.16,4.71-0.32,7.05
		c-0.3,4.45-0.66,8.9-1,13.36c-5.16,0-10.33,0-15.49,0c0.13-1.22,0.28-2.43,0.37-3.65c0.19-2.38,0.42-2.75,2.77-2.89
		c2.8-0.16,5.61-0.09,8.41-0.18c0.75-0.03,1.49-0.31,2.24-0.47c-0.03-0.31-0.06-0.61-0.1-0.92c-4.33-0.48-8.71,0.35-13.46,0.07
		c0-24.78,0-49.38,0-74.38c2.65,0,5.22-0.05,7.78,0.01c12.92,0.28,25.75-1.11,38.61-2.03c11.96-0.85,23.92-1.77,35.88-2.63
		c2.68-0.19,5.37-0.27,8.05-0.49c0.67-0.06,1.3-0.47,1.95-0.72c-5.57-0.06-11.03,0.14-16.49,0.48c-4.47,0.28-8.94,0.76-13.41,1.12
		c-6.59,0.53-13.21,0.84-19.78,1.59c-13.85,1.59-27.74,1.8-41.66,1.6c-0.42-0.01-0.83-0.18-1.5-0.33c-0.2-20.33-0.4-40.59-0.6-61.03
		c33.43-2.94,66.53-3.59,99.64-3.49c0.15,0.84,0.28,1.27,0.3,1.72c0.4,10.87,0.85,21.74,1.17,32.61
		c0.36,12.22,0.63,24.45,0.88,36.67c0.18,8.86,0.29,17.72,0.35,26.58c0.08,12.67,0.07,25.35,0.13,38.02
		C358.2,482.89,358.29,487.14,358.36,491.39z M349.99,416.59c-2.5,0-4.81-0.11-7.11,0.02c-12.99,0.7-25.98,1.36-38.95,2.22
		c-6.25,0.41-12.5,1.08-18.72,1.85c-7.99,1-15.96,2.21-23.93,3.37c-0.64,0.09-1.22,0.56-1.83,0.85c0.07,0.26,0.13,0.52,0.2,0.78
		c2.42-0.22,4.86-0.34,7.26-0.69c6.32-0.92,12.59-2.25,18.94-2.87c12.05-1.17,24.13-2.04,36.21-2.88
		c8.28-0.57,16.58-0.86,24.86-1.33C347.93,417.86,349.22,418.29,349.99,416.59z M355.78,451.68c-0.02-0.25-0.03-0.51-0.05-0.76
		c-5.35-1.28-89.2,3.56-94.81,5.67c29-1.5,57.97-3.75,87.01-4.39C350.55,452.13,353.16,451.85,355.78,451.68z M260.74,440.43
		c0.01,0.33,0.02,0.66,0.02,0.99c0.92,0,1.85,0.07,2.76-0.01c9.49-0.84,18.96-1.8,28.45-2.54c9.6-0.75,19.23-1.21,28.83-1.96
		c6.47-0.5,12.93-1.26,19.39-1.94c2.44-0.26,4.89-0.6,7.31-1.02c0.58-0.1,1.06-0.7,1.59-1.07c-1.54-0.09-2.81,0.31-4.1,0.44
		c-7.47,0.76-14.93,1.56-22.41,2.13c-13.18,1.01-26.38,1.83-39.57,2.8c-6.48,0.47-12.94,1.08-19.41,1.66
		C262.64,439.99,261.7,440.25,260.74,440.43z M351.5,354.48c-0.03-0.24-0.06-0.47-0.09-0.71c-2.28,0.25-4.55,0.6-6.84,0.74
		c-10.96,0.7-21.92,1.33-32.88,2.01c-4.58,0.28-9.2,0.37-13.73,1.02c-11.77,1.68-23.63,1.99-35.45,2.9c-1,0.08-2.01,0.15-3,0.34
		c-0.49,0.1-0.93,0.46-1.39,0.7c1.49,0.32,2.81,0.17,4.13,0.07c12.84-1.02,25.68-2.13,38.53-3.03c13.08-0.92,26.17-1.61,39.25-2.48
		C343.89,355.79,347.78,355.58,351.5,354.48z M352.66,371.21c0.01-0.33,0.01-0.67,0.02-1c-7.15,0.26-14.31,0.43-21.46,0.81
		c-10.52,0.56-21.03,1.3-31.54,1.89c-4.36,0.25-8.74,0.15-13.09,0.53c-6.58,0.57-13.13,1.43-19.7,2.13
		c-2.9,0.31-5.82,0.52-8.73,0.78c0,0.23-0.01,0.45-0.01,0.68c1.47,0.04,2.97,0.25,4.42,0.09c4.45-0.5,8.86-1.37,13.32-1.71
		c9.95-0.76,19.91-1.36,29.87-1.88c14-0.72,28-1.31,42-1.96C349.39,371.5,351.02,371.34,352.66,371.21z M284.34,468.1
		c0.59,0.07,1.18,0.22,1.77,0.19c8.5-0.45,16.99-0.9,25.48-1.39c11.74-0.67,23.47-1.37,35.21-2.05c2.12-0.12,4.25-0.22,6.37-0.42
		c0.4-0.04,0.77-0.47,1.39-0.87C351.28,462.82,288.93,466.42,284.34,468.1z M353.04,479.2c-0.03-0.42-0.06-0.84-0.1-1.26
		c-11.57,0.43-23.15,0.85-34.72,1.28c-18.13,0.67-32.21,2.01-34.82,3.59c1.73,0,2.91,0.08,4.08-0.01
		c8.59-0.68,17.17-1.65,25.78-2.05c11.41-0.53,22.84-0.59,34.27-0.92C349.37,479.78,351.21,479.42,353.04,479.2z M347.43,390.91
		c-8.24-0.59-81.17,1.65-88.74,4.59c1.31,0.08,2.13,0.24,2.93,0.17c3.35-0.28,6.69-0.66,10.04-0.96c5.92-0.53,11.83-1.27,17.75-1.5
		c18.27-0.7,36.55-1.2,54.83-1.81C345.31,391.37,346.37,391.08,347.43,390.91z M258.64,468.37c2.37,1.65,8.01,1.12,10.31-0.62
		C265.18,467.98,261.91,468.17,258.64,468.37z"/>
	<path d="M842,136.4c-1.03,2.45-2.28,4.83-3.04,7.36c-3.84,12.65-7.53,25.34-11.33,38c-2.28,7.61-4.51,15.25-7.03,22.78
		c-2.41,7.22-5.15,14.33-7.78,21.48c-1.2,3.25-2.59,6.44-3.73,9.72c-1.35,3.89-1.04,7.98-0.96,11.98c0.15,7.06,0.56,14.12,0.9,21.18
		c0.19,3.91,0.56,7.81,0.68,11.73c0.28,9.19,0.37,18.39,0.7,27.57c0.34,9.41,0.85,18.81,1.32,28.22c0.39,7.94,1.06,15.88,1.19,23.83
		c0.2,12.67,0.03,25.35,0.08,38.02c0.02,3.92,0.29,7.84,0.38,11.77c0.44,19.29,0.9,38.59,1.26,57.88c0.11,5.82-0.1,11.64-0.07,17.46
		c0.01,2,0.32,4,0.5,6.01c-0.9,0-1.8,0-2.69,0c0.03-10.43,0.67-20.91-0.07-31.29c-1.05-14.58-0.33-29.15-0.93-43.71
		c-0.47-11.54-0.45-23.11-0.55-34.66c-0.08-8.97,0.19-17.94-0.08-26.91c-0.28-9.19-1.05-18.36-1.55-27.54
		c-0.34-6.16-0.65-12.32-0.84-18.49c-0.28-9.19-0.35-18.38-0.68-27.56c-0.43-11.98-1.01-23.96-1.59-35.94
		c-0.08-1.65-0.49-3.28-0.75-4.98c-0.78-0.1-1.32-0.23-1.86-0.23c-8.64,0.04-17.29,0-25.93,0.2c-4.37,0.1-8.72,0.68-13.08,0.98
		c-4.47,0.3-8.94,0.66-13.42,0.75c-17.17,0.36-34.33,0.69-51.5,0.89c-11.89,0.14-23.77,0.02-35.66,0.08
		c-5.72,0.03-11.44,0.36-17.16,0.27c-11.89-0.17-23.77-0.48-35.65-0.83c-17.83-0.51-35.66-1.2-53.49-1.63
		c-14.46-0.35-28.93-0.52-43.4-0.63c-13.69-0.1-27.39-0.1-41.08,0.02c-4.48,0.04-8.95,0.53-13.42,0.9
		c-16.44,1.36-32.92,1.67-49.4,1.76c-5.25,0.03-10.51,0.62-15.76,0.65c-17.16,0.12-34.32,0.08-51.48,0.14
		c-19.07,0.06-38.15,0.06-57.22,0.29c-10.54,0.12-21.08,0.47-31.6,1.06c-9.06,0.51-18.1,1.58-27.15,2.3
		c-4.91,0.39-9.84,0.63-14.77,0.86c-11.21,0.52-22.42,1.01-33.63,1.49c-12.43,0.52-24.85,1.08-37.28,1.49
		c-6.16,0.2-12.32,0.09-18.48,0.12c-10.65,0.06-21.3,0.13-31.95,0.2c-10.43,0.07-20.86,0.14-31.29,0.19c-3.79,0.02-7.58,0-11.66,0
		c-0.25,2.81-0.55,5.33-0.69,7.86c-0.57,10.3-1.14,20.6-1.63,30.91c-0.41,8.74-0.85,17.48-1.01,26.22
		c-0.14,7.85-0.44,15.76,0.31,23.55c0.97,10.09,0.37,20.17,0.83,30.24c0.45,9.75,1.17,19.48,1.61,29.23
		c0.46,10.2,0.99,20.4,1.01,30.61c0.03,13-0.32,26-0.7,39c-0.22,7.38-0.82,14.75-1.25,22.13c-0.45,0-0.9,0-1.35,0
		c0.19-9.52,0.48-19.04,0.54-28.56c0.1-13.9,0.19-27.81-0.01-41.71c-0.2-13.68-0.73-27.35-1.19-41.03
		c-0.46-13.45-1.1-26.89-1.52-40.34c-0.28-8.85-0.51-17.72-0.38-26.58c0.11-7.84,0.78-15.67,1.16-23.51
		c0.27-5.71,0.46-11.43,0.71-17.14c0.28-6.27,0.58-12.54,0.87-18.81c0.02-0.45-0.09-0.98,0.11-1.33c1.37-2.4,0.27-4.4-0.77-6.55
		c-4.4-9.06-8.72-18.16-13-27.28c-4.8-10.23-9.55-20.48-14.27-30.75c-3.32-7.22-6.55-14.48-9.8-21.73c-1.88-4.18-3.68-8.4-5.6-12.56
		c-0.49-1.06-1.31-1.97-1.98-2.96c0-1.8,0-3.59,0-5.39c1.52,2.94,3.19,5.82,4.54,8.85c4.82,10.84,9.48,21.76,14.31,32.59
		c4.06,9.1,8.21,18.15,12.44,27.17c3.09,6.59,6.4,13.08,9.56,19.63c1.99,4.13,3.89,8.31,5.86,12.46c0.57,1.21,1.21,2.39,1.93,3.8
		c3.26,0,6.49,0.02,9.73,0c7.27-0.06,14.55-0.1,21.82-0.25c8.18-0.17,16.35-0.56,24.53-0.64c7.39-0.07,14.78,0.17,22.17,0.26
		c1.45,0.02,2.91-0.03,4.36-0.06c5.81-0.08,11.63-0.12,17.44-0.26c9.64-0.24,19.28-0.45,28.92-0.85c15.91-0.67,31.81-1.42,47.7-2.26
		c5.59-0.3,11.16-1.11,16.75-1.45c9.74-0.59,19.48-1.16,29.22-1.45c12.67-0.38,25.34-0.33,38.01-0.72
		c11.32-0.35,22.63-1.05,33.95-1.56c2.8-0.13,5.61-0.14,8.41-0.18c13.01-0.21,26.02-0.48,39.03-0.6c13.57-0.13,27.15,0,40.72-0.21
		c11.89-0.18,23.77-0.81,35.66-1c13.45-0.22,26.91-0.2,40.37-0.27c7.63-0.04,15.26-0.13,22.89-0.02c7.5,0.11,15,0.51,22.5,0.68
		c6.96,0.16,13.92,0.07,20.87,0.28c13.67,0.42,27.35,0.92,41.02,1.47c15.7,0.63,31.39,1.05,47.1,0.65
		c12.9-0.33,25.8-0.31,38.71-0.42c19.85-0.18,39.71,0.01,59.54-1.25c9.85-0.63,19.7-1.27,29.56-1.72c3.79-0.17,7.61,0.18,11.42,0.27
		c1.57,0.04,3.13,0.01,4.98,0.01c1.33-3.48,2.68-6.88,3.95-10.32c2.95-7.98,6.01-15.93,8.74-23.99c2.48-7.32,4.65-14.75,6.86-22.15
		c3.82-12.77,7.63-25.54,11.31-38.35c1.61-5.59,2.91-11.28,4.38-16.91c0.13-0.51,0.48-0.96,0.73-1.44
		C842,128.77,842,132.59,842,136.4z M415.32,242.08c-0.02-0.37-0.04-0.74-0.05-1.12c-12.7,0.41-25.4,0.82-38.1,1.23
		c0.01,0.27,0.01,0.54,0.02,0.81C389.9,242.69,402.61,242.38,415.32,242.08z M357.13,241.99c0-0.1,0-0.2,0-0.31
		c-4.26,0-8.52,0-12.78,0c0,0.1,0,0.2,0,0.31C348.61,241.99,352.87,241.99,357.13,241.99z"/>
	<path d="M750.39,491.39c0.04-4.48,0.03-8.97,0.12-13.45c0.12-6.5,0.35-12.99,0.46-19.49c0.07-4.25-0.05-8.51,0.05-12.75
		c0.28-12.45,0.8-24.89,0.9-37.34c0.09-11.76-0.3-23.53-0.34-35.3c-0.04-14.24,0.1-28.49,0.1-42.73c0-3.68-0.1-7.38-1.5-11.15
		c-5.58,2.73-11.02,5.34-16.42,8.04c-7.11,3.55-14.15,7.23-21.29,10.71c-2.34,1.14-3.2,2.65-3.01,5.27
		c0.51,7.16,0.91,14.33,1.09,21.5c0.19,7.27,0.16,14.55,0.07,21.82c-0.09,7.4-0.55,14.8-0.54,22.2c0.02,9.98,0.34,19.96,0.56,29.93
		c0.21,9.75,0.42,19.5,0.72,29.25c0.14,4.59,0.57,9.17,0.72,13.76c0.1,3.25-0.05,6.5-0.08,9.75c-0.67,0-1.35,0-2.02,0
		c0.62-7.74-0.03-15.45-0.41-23.17c-0.37-7.39-0.24-14.81-0.41-22.21c-0.11-4.71-0.49-9.41-0.55-14.11
		c-0.12-9.98-0.25-19.96-0.13-29.94c0.1-8.63,0.76-17.26,0.77-25.88c0.01-6.95-0.57-13.89-0.91-20.84
		c-0.22-4.48-0.48-8.96-0.75-13.43c-0.04-0.66-0.2-1.31-0.37-2.4c-12.99,0-25.95,0-39.17,0c0.32,1.48,0.11,3.07,2.08,4.37
		c2.28,1.51,1.93,5-0.24,7.03c-3.03,2.83-7.34,2.35-9.72-1.08c-0.19-0.27-0.42-0.52-0.78-0.98c-0.95,0.24-1.99,0.51-3.31,0.85
		c-0.52-1.16-1.08-2.35-1.57-3.56c-0.25-0.62-0.34-1.3-0.57-1.93c-2.11-5.83-7.46-7.22-12.01-2.96c-1.85,1.73-3.3,3.9-4.91,5.88
		c-0.71,0.87-1.33,1.82-2.07,2.65c-1.9,2.13-2.71,2.3-5.5,1.3c-1.17,0.7-2.25,1.6-3.48,2c-1.33,0.43-2.86,0.67-4.22,0.46
		c-0.91-0.14-2.03-1.04-2.41-1.89c-0.54-1.2,0.11-2.47,1.33-3.1c1.36-0.7,2.81-1.23,4.3-1.87c-0.25-2.63-0.18-2.76,2.48-3.94
		c1.7-0.75,3.4-1.49,5.38-2.35c-1.43-1.48-2.82-1.02-4.03-0.95c-10.07,0.58-20.14,1.22-30.21,1.85c-1.88,0.12-3.76,0.27-5.9,0.42
		c0,1.35-0.01,2.44,0,3.53c0.02,2.8,0.31,5.63,0.02,8.4c-1.48,14.31-1.4,28.66-1.53,43.02c-0.07,8.07-0.29,16.14-0.29,24.2
		c0,8.19,0.15,16.38,0.3,24.56c0.25,13.8,0.55,27.59,0.83,41.38c0.03,1.57,0.07,3.14,0.11,4.71c-0.67,0-1.35,0-2.02,0
		c-0.16-13.91-0.31-27.81-0.49-41.72c-0.12-9.2-0.39-18.39-0.41-27.58c-0.03-12.34-0.03-24.68,0.25-37.02
		c0.22-9.74,0.9-19.47,1.33-29.21c0.15-3.36,0.17-6.72,0.23-10.08c0.03-1.67,0.01-3.35,0.01-5.26c0.66-0.21,1.36-0.6,2.07-0.64
		c12.08-0.78,24.15-1.73,36.23-2.21c11.2-0.44,22.42-0.51,33.63-0.48c13.45,0.04,26.9,0.33,40.35,0.59
		c3.49,0.07,6.67-0.26,9.92-2.06c8.22-4.57,16.68-8.7,25.1-12.92c4.2-2.1,8.37-4.36,12.79-5.85c2.26-0.76,5.04-0.12,7.55,0.21
		c0.5,0.06,1.11,1.57,1.15,2.44c0.17,4.15,0.17,8.3,0.23,12.45c0.16,11.33,0.39,22.65,0.47,33.98c0.09,12.67,0.09,25.34,0.06,38.01
		c-0.02,7.96-0.1,15.92-0.26,23.88c-0.09,4.59-0.53,9.17-0.6,13.76c-0.14,9.85-0.11,19.7-0.22,29.55
		c-0.06,5.49-0.27,10.98-0.39,16.47c-0.03,1.23,0.06,2.47,0.09,3.7C756.23,491.39,753.31,491.39,750.39,491.39z M626.64,344.72
		c2.28,3.6,2.36,3.68,5.75,5.43c1.2-1.36,2.48-2.8,3.72-4.2C632.32,341.62,630.78,341.47,626.64,344.72z M657.26,347.83
		c3.72-1.8,6.89-3.19,8.72-6.56c-4.37-2.98-6.74,1.3-10.35,2.3C656.22,345.1,656.7,346.37,657.26,347.83z M664.98,350.6
		c2.75,0.35,4.5-0.8,4.96-2.91c0.37-1.71-0.74-2.92-3.2-3.49c0.3,1.15,0.59,2.3,0.82,3.18C666.67,348.5,665.9,349.46,664.98,350.6z
		 M637.33,343.84c1.45-1.55,2.6-2.79,4.24-4.54c-3.04,0.09-5.51-1.03-7.36,1.85C635.2,341.99,636.08,342.76,637.33,343.84z
		 M653.56,338.84c1.7,3.5,2.44,3.53,6.25,0.29C657.54,339.03,655.76,338.95,653.56,338.84z M621.29,350.89
		c1.48,1.14,2.7,1.46,4.48,0.57c-1.35-0.87-2.36-1.53-3.51-2.27C621.93,349.78,621.66,350.24,621.29,350.89z M662.59,346.99
		c-0.25,0.05-0.5,0.1-0.75,0.15c-0.04,1.41-0.04,1.41,1.72,2.78C663.14,348.63,662.87,347.81,662.59,346.99z"/>
	<path d="M358.36,491.39c-0.06-4.25-0.16-8.5-0.18-12.75c-0.05-12.67-0.05-25.35-0.13-38.02c-0.06-8.86-0.17-17.72-0.35-26.58
		c-0.24-12.23-0.52-24.45-0.88-36.67c-0.32-10.87-0.76-21.74-1.17-32.61c-0.02-0.44-0.15-0.88-0.3-1.72
		c-33.11-0.1-66.21,0.55-99.64,3.49c0.2,20.44,0.4,40.69,0.6,61.03c0.67,0.16,1.09,0.33,1.5,0.33c13.91,0.2,27.8-0.01,41.66-1.6
		c6.57-0.76,13.18-1.06,19.78-1.59c4.47-0.36,8.93-0.83,13.41-1.12c5.45-0.34,10.91-0.54,16.49-0.48c-0.65,0.25-1.29,0.67-1.95,0.72
		c-2.68,0.22-5.37,0.3-8.05,0.49c-11.96,0.87-23.92,1.78-35.88,2.63c-12.86,0.92-25.69,2.31-38.61,2.03
		c-2.56-0.06-5.13-0.01-7.78-0.01c0,25,0,49.6,0,74.38c4.74,0.28,9.13-0.55,13.46-0.07c0.03,0.31,0.06,0.61,0.1,0.92
		c-0.75,0.16-1.49,0.44-2.24,0.47c-2.8,0.1-5.61,0.02-8.41,0.18c-2.35,0.14-2.58,0.51-2.77,2.89c-0.1,1.22-0.25,2.43-0.37,3.65
		c-0.45,0-0.9,0-1.35,0c0-1.89,0-3.78,0-5.9c-5.05,0-9.89,0-14.73,0c-0.07-0.21-0.14-0.42-0.22-0.64c0.55-0.28,1.09-0.77,1.64-0.79
		c3.14-0.12,6.28-0.12,9.42-0.15c1.1-0.01,2.2,0,3.44,0c0.16-0.84,0.4-1.47,0.39-2.1c-0.18-11.55-0.36-23.11-0.61-34.66
		c-0.06-2.67-0.54-5.34-0.52-8.02c0.01-2.68,0.58-5.35,0.6-8.02c0.05-11,0.06-21.99-0.06-32.99c-0.17-16.61-0.45-33.21-0.69-49.82
		c-0.01-0.43-0.1-0.87-0.19-1.61c-34.47,2.45-68.95,3.42-103.52,7.78c0,2.83,0,6.01,0,9.58c2.12,0.08,4.1,0.26,6.07,0.21
		c8.51-0.22,17.03-0.39,25.53-0.82c8.06-0.41,16.11-1.12,24.17-1.68c1.68-0.12,3.36-0.24,5.04-0.24c10.32-0.01,20.63,0.02,30.95,0
		c1.66,0,3.29-0.03,4.74,1.2c-0.7,0.05-1.4,0.13-2.1,0.14c-8.86,0.12-17.73,0.23-26.59,0.34c-5.16,0.06-10.32-0.04-15.47,0.22
		c-9.62,0.49-19.23,1.39-28.86,1.76c-7.71,0.3-15.44,0.06-23.65,0.06c-0.17,6.63-0.76,13.01-0.4,19.33
		c0.46,7.99-0.13,15.92-0.35,23.87c-0.15,5.61-0.27,11.22-0.43,16.83c-0.24,8.07-0.57,16.14-0.75,24.21
		c-0.11,4.92-0.02,9.85-0.02,15.21c1.45,0,2.65,0.07,3.83-0.01c9.85-0.66,19.69-1.32,29.53-2.02c7.05-0.5,14.1-0.93,21.13-1.64
		c9.03-0.9,18.03-2.12,27.06-3.05c5.02-0.52,10.06-0.76,15.09-1.11c1.63-0.11,3.27-0.16,5.32-0.26c-1.08,1.71-2.42,1.64-3.69,1.74
		c-5.7,0.42-11.41,0.78-17.1,1.28c-8.37,0.75-16.72,1.65-25.09,2.4c-9.49,0.85-18.99,1.65-28.49,2.4
		c-7.71,0.61-15.42,1.11-23.13,1.63c-1.33,0.09-2.67,0.01-4.41,0.01c-0.45,8.42-0.89,16.88-1.34,25.34c-0.67,0-1.35,0-2.02,0
		c0.17-0.87,0.44-1.74,0.48-2.62c0.41-9.08,0.88-18.15,1.13-27.23c0.14-5.03-0.2-10.08-0.13-15.12c0.09-6.28,0.41-12.55,0.6-18.82
		c0.32-10.65,0.67-21.31,0.89-31.96c0.09-4.48-0.22-8.97-0.16-13.45c0.11-8.75,0.35-17.49,0.54-26.24c0.05-2.37,0.87-3.42,3.04-3.61
		c14.07-1.22,28.14-2.47,42.21-3.56c9.84-0.76,19.69-1.32,29.54-1.92c4.48-0.27,8.97-0.33,13.45-0.61
		c19.7-1.22,39.38-2.8,59.09-3.64c19.05-0.81,38.13-0.89,57.2-1.28c3.87-0.08,4.37,0.51,4.48,4.43c0.34,11.21,0.74,22.42,1.1,33.63
		c0.48,14.69,1.1,29.37,1.37,44.06c0.18,9.98-0.19,19.97-0.21,29.95c-0.01,7.74,0.08,15.47,0.25,23.21
		c0.11,4.93,0.43,9.85,0.66,14.78C359.7,491.39,359.03,491.39,358.36,491.39z"/>
	<path d="M796.63-9.96c-5.77-0.03-11.55-0.08-17.32-0.08c-100.64,0.02-201.27,0.05-301.91,0.08c-1.06,0-2.11,0-3.73,0
		c2.01,2.11,3.79,3.73,5.25,5.6c1.67,2.13,3.08,4.46,4.53,6.76c0.62,0.99,0.97,2.14,1.57,3.15c4.33,7.41,6.17,15.55,7.04,23.97
		c0.14,1.36,0.23,2.73,0.41,4.09c0.93,7.02-0.11,13.8-2.13,20.53c-2.6,8.66-6.3,16.81-10.87,24.59
		c-5.65,9.62-13.39,16.98-23.57,21.66c-4.79,2.2-9.46,4.78-14.77,5.5c-5.42,0.74-10.87,1.35-16.33,1.73
		c-6.93,0.49-13.88,0.66-20.82-0.08c-6.05-0.65-11.79-2.38-17.6-4.17c-6.59-2.03-11.48-6.61-17.31-9.71
		c-4.1-2.17-7.22-5.56-10.63-8.65c-3.71-3.35-6.51-7.22-8.99-11.4c-1.48-2.5-2.64-5.22-3.72-7.93c-3.9-9.78-5.65-19.89-4.41-30.43
		c0.86-7.23,3.07-14.08,5.56-20.88c2.38-6.5,5.9-12.32,10-17.82c1.57-2.11,3.46-3.98,5.31-6.07c-0.97-0.79-2.06-0.47-3.03-0.47
		c-31.62-0.04-63.24-0.06-94.86-0.06c-57.66,0.01-115.32,0.03-172.98,0.05c-9.69,0-19.38,0.02-29.07,0.03
		c0.1-0.2,0.19-0.55,0.3-0.56c0.78-0.05,1.57-0.03,2.35-0.03c243.03,0,486.07,0,729.1,0.04C794.84-10.51,795.97-11.19,796.63-9.96z
		 M418.27-9.96c0-0.01,0-0.02,0-0.03c-16.74,0-33.47,0.03-50.2-0.04c-2.02-0.01-3.57,0.44-4.83,2.06c-2.57,3.32-5.52,6.39-7.77,9.91
		c-7.27,11.34-12.33,23.5-12.44,37.25c-0.03,3.91-0.32,7.87,0.16,11.73c1.06,8.36,4.43,15.93,8.83,23.08
		c2.34,3.81,5.7,6.89,7.64,10.97c0.26,0.55,0.92,0.98,1.48,1.32c4.9,3.01,9.74,6.12,14.74,8.95c8.18,4.63,16.46,9.1,26.16,9.62
		c5.07,0.27,10.15,0.81,15.2,0.64c6.15-0.2,12.3-0.84,18.4-1.63c7.79-1.02,15.35-2.96,22.1-7.26c1.65-1.05,3.2-2.33,4.98-3.07
		c3.97-1.65,6.52-4.89,9.35-7.83c3.42-3.55,5.7-7.91,8.02-12.19c4.14-7.64,8.1-15.33,9.69-24.05c1.66-9.1,1.66-18.07-0.82-26.99
		c-0.83-3.01-1.77-5.99-2.68-8.97c-0.48-1.58-0.67-3.35-1.54-4.69c-3.65-5.65-7.06-11.47-11.6-16.52c-1.41-1.57-2.79-2.32-4.99-2.31
		C451.54-9.91,434.9-9.96,418.27-9.96z"/>
	<path d="M150.21,491.39c-0.01-0.93,0.36-1.4,1.38-1.45c3.79-0.18,7.57-0.39,11.36-0.65c9.05-0.63,18.1-1.32,27.15-1.94
		c6.93-0.47,13.87-0.95,20.81-1.26c5.37-0.25,10.76-0.26,16.14-0.35c0.16,0,0.33,0.25,0.75,0.6c-0.57,0.36-1.02,0.85-1.52,0.91
		c-1.56,0.19-3.14,0.35-4.7,0.27c-11.35-0.55-22.6,1.2-33.92,1.51c-4.03,0.11-8.08,0.18-12.1,0.57c-3.98,0.39-7.93,1.16-11.89,1.77
		C159.19,491.39,154.7,491.39,150.21,491.39z"/>
	<path d="M272.13,491.39c0.34-4.45,0.69-8.9,1-13.36c0.16-2.35,0.2-4.7,0.32-7.05c0.11-2.14,0.61-2.74,2.39-2.99
		c2.4-0.33,4.08,0.51,4.6,2.33c0.12,0.43,0.2,0.89,0.17,1.33c-0.49,6.37-1,12.74-1.51,19.1c-0.02,0.21-0.15,0.42-0.22,0.63
		c-0.45,0-0.9,0-1.35,0c0.76-6.9,1.06-13.81,0.46-20.73c-2.82-0.06-2.99,0.05-3.11,2.62c-0.27,6.03-0.48,12.07-0.72,18.1
		C273.48,491.39,272.81,491.39,272.13,491.39z"/>
	<path d="M232.39,491.39c0.42-5.11,0.84-10.21,1.27-15.32c0.07-0.78,0.08-1.58,0.26-2.33c0.45-1.85,1.82-2.57,4.19-2.41
		c1.82,0.12,1.8,1.52,1.79,2.68c-0.05,4.13-0.23,8.25-0.4,12.38c-0.07,1.67-0.24,3.34-0.37,5.01c-0.45,0-0.9,0-1.35,0
		c0.2-3.46,0.46-6.92,0.57-10.39c0.08-2.41,0.45-4.86-0.36-7.17c-1.32-0.38-2.23-0.14-2.5,1.12c-0.21,0.98-0.31,1.99-0.32,2.99
		c-0.06,4.48-0.06,8.96-0.09,13.45C234.19,491.39,233.29,491.39,232.39,491.39z"/>
	<path class="st0" d="M274.16,491.39c0.24-6.03,0.45-12.07,0.72-18.1c0.12-2.58,0.29-2.68,3.11-2.62c0.6,6.92,0.3,13.83-0.46,20.73
		C276.4,491.39,275.28,491.39,274.16,491.39z"/>
	<path class="st0" d="M235.09,491.39c0.02-4.48,0.03-8.96,0.09-13.45c0.01-1,0.11-2.02,0.32-2.99c0.27-1.26,1.18-1.5,2.5-1.12
		c0.81,2.31,0.44,4.76,0.36,7.17c-0.11,3.46-0.37,6.93-0.57,10.39C236.88,491.39,235.98,491.39,235.09,491.39z"/>
	<path d="M226.82,474.83c-1.3,0.44-2.57,1.17-3.9,1.28c-2.78,0.23-5.6,0.1-8.39,0.2c-6.38,0.23-12.75,0.5-19.12,0.76
		c-4.93,0.2-9.86,0.35-14.78,0.6c-8.61,0.44-17.23,0.96-25.84,1.42c-1.43,0.08-2.87,0.01-4.46-0.45c0.48-0.26,0.94-0.7,1.44-0.75
		c4.57-0.45,9.13-0.99,13.71-1.21c8.17-0.39,16.36-0.49,24.53-0.88c6.93-0.32,13.85-0.96,20.78-1.29c3.69-0.18,7.4,0.04,11.1,0
		c1.59-0.02,3.17-0.27,4.75-0.41C226.69,474.35,226.75,474.59,226.82,474.83z"/>
	<path d="M150.82,401.38c1.33-0.26,2.65-0.65,4-0.77c12.84-1.14,25.68-2.28,38.54-3.3c5.01-0.4,10.07-0.26,15.07-0.76
		c8.92-0.89,17.8-2.09,26.7-3.13c3.74-0.44,7.48-0.79,11.22-1.19c0.03,0.28,0.07,0.56,0.1,0.84c-5.7,0.87-11.39,1.81-17.11,2.59
		c-16.35,2.22-32.86,2.5-49.29,3.68c-8.6,0.62-17.16,1.85-25.74,2.79c-1.12,0.12-2.24,0.16-3.36,0.24
		C150.9,402.03,150.86,401.7,150.82,401.38z"/>
	<path d="M151.9,418.13c1.12-1.43,2.68-1.29,4.01-1.41c6.25-0.54,12.52-0.85,18.77-1.45c7.7-0.73,15.38-1.62,23.05-2.51
		c5.45-0.63,10.89-1.37,16.33-2.1c5.67-0.75,11.32-1.58,16.99-2.3c1.82-0.23,3.67-0.23,5.5-0.1
		C231.6,410.67,158.66,418.69,151.9,418.13z"/>
	<path d="M242.86,375.68c-2.86,0.43-5.08,0.88-7.32,1.08c-8.15,0.75-16.3,1.57-24.47,2.08c-14.33,0.88-28.65,1.87-42.88,3.81
		c-4.33,0.59-8.67,1.1-13.01,1.58c-1.11,0.12-2.24,0.02-4.11,0.02c0.93-0.72,1.15-1.03,1.4-1.06c29.57-3.89,59.41-5.02,89.04-8.31
		C241.73,374.85,241.98,375.14,242.86,375.68z"/>
	<path d="M243.85,427.65c-0.75,0.18-1.31,0.42-1.89,0.45c-6.5,0.29-13.01,0.42-19.5,0.83c-10.4,0.66-20.79,1.52-31.18,2.27
		c-6.38,0.46-12.76,0.83-19.13,1.32c-5.58,0.43-11.16,1-16.74,1.46c-1.16,0.1-2.34,0.01-3.42,0.01c-0.1-0.58-0.15-0.7-0.12-0.8
		c0.02-0.08,0.12-0.19,0.21-0.21c0.76-0.17,1.51-0.45,2.27-0.48c29.68-1.05,59.17-5.17,88.88-5.58
		C243.36,426.94,243.49,427.22,243.85,427.65z"/>
	<path d="M246.39,440.53c-0.53,1.91-1.63,2.26-3.12,2.3c-7.28,0.2-14.57,0.39-21.84,0.77c-4.7,0.24-9.38,0.75-14.06,1.2
		c-12.27,1.17-24.53,2.39-36.8,3.52c-3.9,0.36-7.82,0.53-11.73,0.71c-1.03,0.05-2.06-0.19-3.1-0.29c0-0.25-0.01-0.49-0.01-0.74
		c0.44-0.1,0.88-0.28,1.32-0.28c10.32,0.06,20.57-0.78,30.83-1.92c11.9-1.33,23.85-2.24,35.78-3.21c6.36-0.52,12.74-0.74,19.11-1.17
		C243.86,441.34,244.92,440.9,246.39,440.53z"/>
	<path d="M251.47,470.62c-2.55,1.2-7.44,1.27-10.3,0.18C244.89,469.58,248.15,469.78,251.47,470.62z"/>
	<path d="M349.99,416.59c-0.76,1.7-2.05,1.27-3.06,1.33c-8.29,0.47-16.58,0.76-24.86,1.33c-12.08,0.84-24.16,1.71-36.21,2.88
		c-6.35,0.62-12.62,1.94-18.94,2.87c-2.4,0.35-4.84,0.47-7.26,0.69c-0.07-0.26-0.13-0.52-0.2-0.78c0.61-0.29,1.19-0.76,1.83-0.85
		c7.97-1.17,15.93-2.38,23.93-3.37c6.22-0.78,12.47-1.44,18.72-1.85c12.98-0.85,25.97-1.52,38.95-2.22
		C345.18,416.49,347.49,416.59,349.99,416.59z"/>
	<path d="M355.78,451.68c-2.62,0.18-5.23,0.45-7.85,0.51c-29.04,0.65-58.01,2.89-87.01,4.39c5.61-2.1,89.46-6.94,94.81-5.67
		C355.75,451.17,355.76,451.42,355.78,451.68z"/>
	<path d="M260.74,440.43c0.95-0.18,1.9-0.43,2.86-0.52c6.47-0.58,12.94-1.18,19.41-1.66c13.19-0.97,26.38-1.79,39.57-2.8
		c7.48-0.57,14.95-1.38,22.41-2.13c1.29-0.13,2.56-0.54,4.1-0.44c-0.53,0.37-1.02,0.97-1.59,1.07c-2.42,0.43-4.86,0.76-7.31,1.02
		c-6.46,0.69-12.92,1.44-19.39,1.94c-9.6,0.75-19.23,1.21-28.83,1.96c-9.49,0.74-18.97,1.7-28.45,2.54
		c-0.91,0.08-1.84,0.01-2.76,0.01C260.76,441.09,260.75,440.76,260.74,440.43z"/>
	<path d="M351.5,354.48c-3.73,1.09-7.61,1.3-11.46,1.56c-13.08,0.86-26.17,1.55-39.25,2.48c-12.85,0.91-25.69,2.01-38.53,3.03
		c-1.32,0.11-2.64,0.25-4.13-0.07c0.46-0.24,0.9-0.6,1.39-0.7c0.99-0.19,2-0.26,3-0.34c11.82-0.92,23.69-1.23,35.45-2.9
		c4.53-0.65,9.15-0.73,13.73-1.02c10.96-0.68,21.92-1.31,32.88-2.01c2.29-0.15,4.56-0.49,6.84-0.74
		C351.45,354.01,351.48,354.25,351.5,354.48z"/>
	<path d="M352.66,371.21c-1.64,0.12-3.27,0.29-4.91,0.37c-14,0.66-28,1.24-42,1.96c-9.96,0.52-19.92,1.12-29.87,1.88
		c-4.46,0.34-8.87,1.2-13.32,1.71c-1.45,0.16-2.94-0.05-4.42-0.09c0-0.23,0.01-0.45,0.01-0.68c2.91-0.26,5.83-0.47,8.73-0.78
		c6.57-0.7,13.12-1.56,19.7-2.13c4.35-0.38,8.73-0.28,13.09-0.53c10.52-0.6,21.03-1.34,31.54-1.89c7.15-0.38,14.31-0.55,21.46-0.81
		C352.67,370.54,352.67,370.88,352.66,371.21z"/>
	<path d="M284.34,468.1c4.58-1.68,66.94-5.28,70.21-4.54c-0.62,0.4-0.98,0.83-1.39,0.87c-2.12,0.19-4.24,0.29-6.37,0.42
		c-11.74,0.69-23.47,1.38-35.21,2.05c-8.49,0.49-16.99,0.94-25.48,1.39C285.53,468.32,284.93,468.17,284.34,468.1z"/>
	<path d="M353.04,479.2c-1.84,0.22-3.67,0.59-5.51,0.64c-11.42,0.33-22.85,0.39-34.27,0.92c-8.61,0.4-17.19,1.36-25.78,2.05
		c-1.17,0.09-2.35,0.01-4.08,0.01c2.61-1.59,16.7-2.92,34.82-3.59c11.57-0.43,23.15-0.85,34.72-1.28
		C352.98,478.36,353.01,478.78,353.04,479.2z"/>
	<path d="M347.43,390.91c-1.06,0.17-2.12,0.46-3.18,0.5c-18.28,0.61-36.55,1.1-54.83,1.81c-5.93,0.23-11.84,0.97-17.75,1.5
		c-3.35,0.3-6.69,0.67-10.04,0.96c-0.8,0.07-1.62-0.08-2.93-0.17C266.26,392.55,339.19,390.31,347.43,390.91z"/>
	<path d="M258.64,468.37c3.27-0.2,6.53-0.4,10.31-0.62C266.66,469.49,261.01,470.02,258.64,468.37z"/>
	<path class="st0" d="M415.32,242.08c-12.71,0.31-25.42,0.61-38.13,0.92c-0.01-0.27-0.01-0.54-0.02-0.81
		c12.7-0.41,25.4-0.82,38.1-1.23C415.28,241.33,415.3,241.71,415.32,242.08z"/>
	<path class="st0" d="M357.13,241.99c-4.26,0-8.52,0-12.78,0c0-0.1,0-0.2,0-0.31c4.26,0,8.52,0,12.78,0
		C357.13,241.78,357.13,241.89,357.13,241.99z"/>
	<path class="st0" d="M626.64,344.72c4.14-3.25,5.68-3.1,9.47,1.23c-1.24,1.4-2.51,2.84-3.72,4.2
		C628.99,348.4,628.92,348.32,626.64,344.72z"/>
	<path class="st0" d="M657.26,347.83c-0.56-1.46-1.05-2.73-1.63-4.26c3.61-1,5.99-5.28,10.35-2.3
		C664.15,344.65,660.99,346.04,657.26,347.83z"/>
	<path class="st0" d="M664.98,350.6c0.92-1.14,1.69-2.11,2.59-3.22c-0.23-0.88-0.53-2.03-0.82-3.18c2.46,0.57,3.57,1.78,3.2,3.49
		C669.48,349.81,667.73,350.96,664.98,350.6z"/>
	<path class="st0" d="M637.33,343.84c-1.25-1.08-2.14-1.84-3.12-2.69c1.85-2.88,4.32-1.76,7.36-1.85
		C639.94,341.04,638.78,342.28,637.33,343.84z"/>
	<path class="st0" d="M653.56,338.84c2.2,0.1,3.99,0.19,6.25,0.29C656,342.37,655.26,342.34,653.56,338.84z"/>
	<path class="st0" d="M621.29,350.89c0.37-0.65,0.63-1.11,0.97-1.7c1.14,0.74,2.16,1.4,3.51,2.27
		C623.99,352.35,622.78,352.02,621.29,350.89z"/>
	<path class="st0" d="M662.59,346.99c0.27,0.82,0.54,1.64,0.97,2.93c-1.76-1.37-1.76-1.37-1.72-2.78
		C662.1,347.09,662.35,347.04,662.59,346.99z"/>
	<path class="st0" d="M418.27-9.96c16.64,0,33.27,0.05,49.91-0.06c2.21-0.01,3.58,0.74,4.99,2.31c4.54,5.05,7.95,10.87,11.6,16.52
		c0.86,1.34,1.06,3.11,1.54,4.69c0.91,2.99,1.84,5.97,2.68,8.97c2.48,8.93,2.48,17.9,0.82,26.99c-1.59,8.72-5.55,16.41-9.69,24.05
		c-2.32,4.29-4.6,8.64-8.02,12.19c-2.83,2.94-5.38,6.18-9.35,7.83c-1.78,0.74-3.33,2.02-4.98,3.07c-6.75,4.3-14.31,6.24-22.1,7.26
		c-6.1,0.8-12.26,1.43-18.4,1.63c-5.05,0.17-10.13-0.37-15.2-0.64c-9.7-0.52-17.98-4.98-26.16-9.62c-5-2.83-9.84-5.94-14.74-8.95
		c-0.56-0.35-1.22-0.77-1.48-1.32c-1.95-4.08-5.3-7.16-7.64-10.97c-4.4-7.16-7.78-14.72-8.83-23.08c-0.49-3.85-0.19-7.81-0.16-11.73
		c0.11-13.76,5.17-25.91,12.44-37.25c2.25-3.52,5.2-6.59,7.77-9.91c1.26-1.62,2.81-2.07,4.83-2.06c16.73,0.07,33.47,0.04,50.2,0.04
		C418.27-9.98,418.27-9.97,418.27-9.96z M437.03,33.79c-2.87-1.64-5.33-3.18-7.92-4.48c-4.94-2.48-11.37-0.78-14.73,4.21
		c-0.82,1.22-1.57,2.48-2.42,3.67c-2.03,2.84-2.77,5.91-2.28,9.41c0.66,4.7,3,7.98,7.5,9.55c1.37,0.48,2.83,0.69,4.27,0.94
		c1.7,0.3,3.41,0.5,5.28,0.77c-0.17,1.3-0.28,2.36-0.46,3.4c-0.2,1.16,0.21,1.88,1.35,2.22c6.45,1.91,13,3.19,19.59,1.11
		c3.28-1.04,5.98-0.69,8.73,1.13c1.25,0.83,2.66,1.43,4.05,2.17c3.34-5.27,5.54-10.64,7.5-16.47c-1.54-0.83-2.96-1.64-4.42-2.36
		c-1.31-0.64-2.7-1.13-4-1.8c-0.57-0.29-1.11-0.78-1.45-1.31c-1-1.56-1.98-3.14-2.81-4.8c-2.46-4.94-6.45-8.56-10.46-12.14
		c-1.92-1.71-3.48-1.37-4.87,0.75C438.59,31.14,437.77,32.57,437.03,33.79z M372.97,26.59c-3.62,0.95-6.82,1.78-10.03,2.62
		c-0.91,0.24-1.69,0.64-1.54,1.78c0.19,1.45,0.26,2.94,0.67,4.33c0.9,3.09,1.96,6.14,3.01,9.18c0.42,1.22,1.28,1.96,2.68,1.78
		c1.74-0.23,3.51-0.31,5.2-0.75c2.02-0.52,3.92-1.17,5.57,0.75c0.16,0.19,0.55,0.18,0.83,0.25c5.65,1.37,11.38,1.91,17.18,1.52
		c0.53-0.04,1.03-0.43,1.36-0.58c-0.37-2.35-0.72-4.53-1.1-6.91c1.3,0,2.26,0.04,3.22-0.01c5.96-0.27,10.87-3.69,12.67-9.2
		c0.96-2.93,1.19-5.92,0.41-8.97c-1.38-5.39-4.54-9.14-10.06-10.29c-5.13-1.07-9.4,0.81-12.73,4.83c-0.36,0.43-0.71,0.86-1.13,1.39
		c-0.85-1.29-1.58-2.44-2.35-3.56c-1.63-2.39-2.22-2.47-4.28-0.47C378.75,17.98,375.35,22,372.97,26.59z"/>
	<path d="M437.03,33.79c0.74-1.22,1.56-2.65,2.46-4.03c1.38-2.12,2.95-2.46,4.87-0.75c4.01,3.58,8,7.2,10.46,12.14
		c0.83,1.66,1.81,3.24,2.81,4.8c0.34,0.53,0.89,1.02,1.45,1.31c1.3,0.67,2.69,1.15,4,1.8c1.47,0.72,2.88,1.53,4.42,2.36
		c-1.96,5.83-4.16,11.2-7.5,16.47c-1.39-0.74-2.8-1.34-4.05-2.17c-2.75-1.82-5.46-2.16-8.73-1.13c-6.58,2.08-13.14,0.8-19.59-1.11
		c-1.14-0.34-1.55-1.06-1.35-2.22c0.18-1.05,0.29-2.11,0.46-3.4c-1.87-0.27-3.58-0.47-5.28-0.77c-1.44-0.25-2.9-0.47-4.27-0.94
		c-4.51-1.57-6.85-4.84-7.5-9.55c-0.49-3.5,0.25-6.57,2.28-9.41c0.85-1.19,1.6-2.46,2.42-3.67c3.36-4.99,9.78-6.69,14.73-4.21
		C431.69,30.61,434.15,32.16,437.03,33.79z M450.71,61.58c1.96-5.04,3.75-9.66,5.58-14.36c-3.24-6.95-7.75-13.14-14.23-17.69
		c-5.72,4.72-14.63,24.86-14.3,32.31C435.45,63.5,443.16,64.96,450.71,61.58z M435.66,36.38c-2.17-2.95-4.82-4.45-7.86-5.47
		c-4.84-1.62-9.11-0.39-12.16,3.71c-1.04,1.41-2.02,2.88-2.9,4.39c-1.88,3.2-2.23,6.62-1.06,10.14c0.24,0.72,0.58,1.54,1.13,1.98
		c3.96,3.16,8.51,4.66,13.58,4.4c1.27-0.07,1.77-1.02,1-2.03c-1.51-1.98-2.73-4.29-5.21-5.46c-0.38,0.2-0.74,0.35-1.05,0.56
		c-1.45,0.94-2.95,0.92-4.47,0.25c-1.22-0.54-2.12-2.06-1.78-3.04c0.53-1.49,1.84-1.27,2.96-1.08c1.08,0.18,2.13,0.61,3.21,0.93
		c0.42-1.68-0.92-1.7-1.63-2.2c-2.08-1.46-2.1-2.09,0.3-4.21c1.06,1.27,2.12,2.52,3.25,3.88c1.05-1.05,1.3-1.92,0.31-2.88
		c-0.48-0.47-1.15-0.78-1.53-1.31c-0.77-1.08-0.42-3.03,0.59-3.35c1.43-0.45,1.86,0.63,2.23,1.69c0.13,0.37,0.13,0.81,0.35,1.11
		c0.22,0.3,0.64,0.46,1.25,0.86c0.16-1.91-2-3.51,0.14-5.18c0.91,1.43,1.53,3.01,2.65,4.02c1.17,1.04,2.83,1.54,4.42,2.34
		C434.24,38.94,434.94,37.67,435.66,36.38z M452.69,61.93c2.52,1.35,4.63,2.48,6.95,3.73c1.66-4.62,5.12-8.41,5.98-13.63
		c-2.62-1.11-5.15-2.18-7.72-3.27C455.59,53.16,454.08,57.43,452.69,61.93z M428.17,39.66c-2.15,1.2-2.1,1.23-3.07,3.25
		c-0.31,0.64-0.93,1.23-1.55,1.6c-1.24,0.74-1.03,1.66-0.28,2.39c1.64,1.61,3.43,3.08,5.11,4.56c1.26-2.87,2.68-6.11,4.17-9.51
		C430.97,41.13,429.52,40.37,428.17,39.66z M420.33,47.21c-1.34-0.6-2.43-1.59-4.07-1.05C417.8,48.22,418.12,48.3,420.33,47.21z"/>
	<path d="M372.97,26.59c2.38-4.58,5.77-8.61,9.58-12.3c2.06-2,2.65-1.93,4.28,0.47c0.77,1.13,1.5,2.28,2.35,3.56
		c0.43-0.53,0.78-0.96,1.13-1.39c3.33-4.02,7.6-5.9,12.73-4.83c5.52,1.15,8.68,4.91,10.06,10.29c0.78,3.05,0.55,6.04-0.41,8.97
		c-1.8,5.51-6.71,8.93-12.67,9.2c-0.96,0.04-1.92,0.01-3.22,0.01c0.38,2.38,0.72,4.55,1.1,6.91c-0.34,0.15-0.84,0.55-1.36,0.58
		c-5.8,0.39-11.53-0.15-17.18-1.52c-0.28-0.07-0.67-0.07-0.83-0.25c-1.65-1.93-3.55-1.28-5.57-0.75c-1.68,0.44-3.46,0.52-5.2,0.75
		c-1.4,0.18-2.26-0.56-2.68-1.78c-1.05-3.05-2.1-6.09-3.01-9.18c-0.41-1.39-0.48-2.88-0.67-4.33c-0.15-1.14,0.63-1.54,1.54-1.78
		C366.15,28.36,369.35,27.53,372.97,26.59z M384.4,13.87c-3.12,3.7-5.8,6.9-8.49,10.08c-1.94,2.3-2.81,4.54-1.22,7.61
		c1.47,2.84,1.94,6.1,2.15,9.35c0.06,0.98,0.42,2.27,1.12,2.8c1.2,0.91,2.72,1.57,4.2,1.92c2.56,0.6,5.18,1.03,7.79,1.26
		c1.99,0.18,4.06,0.33,5.86-0.55C395.54,34.41,390.47,24.38,384.4,13.87z M396.58,38.61c4.23,1.22,8.33,0.34,11.44-2.46
		c4.3-3.87,5.28-10.46,2.52-16.18c-1.79-3.71-6.6-7.47-12.06-6.41c-3.51,0.68-6.4,2.23-8.08,5.64c-0.82,1.66,0.33,2.59,1.05,3.66
		c0.75,1.12,1.92,0.78,2.93,0.44c1.42-0.48,1.78-1.48,1.62-2.99c-0.25-2.34,0.31-3.26,1.95-3.67c0.57-0.14,1.38,0,1.83,0.34
		c0.28,0.21,0.26,1.11,0.08,1.59c-0.39,1.01-0.97,1.95-1.55,3.06c1.94,0.36,2.57-2.74,4.55-1.15c-0.14,1.64-4.18,2.06-1.58,4.42
		c1.34-0.29,2.56-0.56,4.24-0.92c-0.5,1.15-0.75,1.73-1,2.29c0.73,0.29,1.41,0.57,2.05,0.82c-0.01,1.25-1.59,2.16-0.26,3.38
		c0.16,0.14-0.33,1.2-0.71,1.67c-0.47,0.57-1.2,0.9-1.72,1.44c-0.88,0.92-1.64,0.78-2.5-0.03c-1.55-1.44-2.23-1.55-3.54-0.17
		C395.6,35.71,395.4,35.01,396.58,38.61z M375.62,43.39c-0.78-5.28-1.92-10.12-3.9-15.03c-2.82,0.75-5.4,1.43-8.27,2.19
		c1.06,4.91,2.05,9.51,3.1,14.37C369.68,44.39,372.52,43.91,375.62,43.39z M402.47,30.23c-1.17-2.24-2.11-4.22-3.22-6.1
		c-0.9-1.51-1.65-1.64-3.12-0.81c-1.16,0.65-2.29,1.34-3.58,2.1c0.87,2.53,1.7,4.96,2.44,7.14
		C397.56,31.76,399.83,31.05,402.47,30.23z M397.37,20.02c1.03-0.6,1.39-1.26,1-2.49C397.04,18.07,396.93,18.84,397.37,20.02z"/>
	<path class="st0" d="M450.71,61.58c-7.55,3.38-15.25,1.92-22.95,0.27c-0.33-7.45,8.58-27.59,14.3-32.31
		c6.48,4.54,10.99,10.73,14.23,17.69C454.46,51.92,452.67,56.54,450.71,61.58z M447.41,60.74c-1.92-0.33-3.84-0.53-5.73,0.44
		C443.61,61.73,445.53,62.15,447.41,60.74z M448.05,57.32c-2.18-1.68-2.29,1.35-3.75,1.17c0.02,0.21,0.05,0.42,0.07,0.63
		c0.98,0.11,1.96,0.22,2.88,0.32C447.59,58.56,447.82,57.95,448.05,57.32z"/>
	<path class="st0" d="M435.66,36.38c-0.72,1.3-1.42,2.56-2.26,4.06c-1.59-0.81-3.26-1.3-4.42-2.34c-1.13-1.01-1.75-2.59-2.65-4.02
		c-2.14,1.67,0.01,3.28-0.14,5.18c-0.61-0.4-1.03-0.56-1.25-0.86c-0.22-0.29-0.22-0.74-0.35-1.11c-0.37-1.06-0.8-2.14-2.23-1.69
		c-1.01,0.32-1.36,2.27-0.59,3.35c0.38,0.53,1.05,0.84,1.53,1.31c0.99,0.95,0.73,1.83-0.31,2.88c-1.14-1.35-2.19-2.61-3.25-3.88
		c-2.4,2.12-2.38,2.75-0.3,4.21c0.71,0.5,2.04,0.52,1.63,2.2c-1.08-0.32-2.12-0.75-3.21-0.93c-1.13-0.19-2.44-0.42-2.96,1.08
		c-0.35,0.98,0.56,2.5,1.78,3.04c1.52,0.67,3.02,0.69,4.47-0.25c0.32-0.21,0.67-0.36,1.05-0.56c2.48,1.16,3.69,3.47,5.21,5.46
		c0.77,1.01,0.27,1.96-1,2.03c-5.07,0.26-9.62-1.23-13.58-4.4c-0.56-0.44-0.9-1.27-1.13-1.98c-1.16-3.53-0.81-6.94,1.06-10.14
		c0.89-1.51,1.86-2.98,2.9-4.39c3.05-4.1,7.32-5.33,12.16-3.71C430.84,31.93,433.49,33.43,435.66,36.38z"/>
	<path class="st0" d="M452.69,61.93c1.39-4.5,2.9-8.77,5.21-13.17c2.57,1.09,5.1,2.16,7.72,3.27c-0.85,5.21-4.32,9-5.98,13.63
		C457.31,64.41,455.21,63.28,452.69,61.93z M458.54,53.76c0.6-0.96,1.47-1.8,0.92-3.22C457.96,51.41,458.3,52.64,458.54,53.76z
		 M459.86,54.22c0.27,0.08,0.55,0.17,0.82,0.25c0.24-0.65,0.48-1.3,0.72-1.95c-0.23-0.09-0.46-0.18-0.7-0.27
		C460.43,52.91,460.14,53.56,459.86,54.22z M463.62,53.38c-0.2-0.09-0.4-0.19-0.6-0.28c-0.28,0.61-0.55,1.21-0.83,1.82
		c0.19,0.09,0.38,0.18,0.57,0.26C463.05,54.58,463.34,53.98,463.62,53.38z"/>
	<path class="st0" d="M428.17,39.66c1.35,0.71,2.8,1.47,4.38,2.29c-1.49,3.4-2.91,6.64-4.17,9.51c-1.68-1.48-3.46-2.95-5.11-4.56
		c-0.75-0.73-0.96-1.66,0.28-2.39c0.62-0.37,1.24-0.96,1.55-1.6C426.07,40.89,426.01,40.86,428.17,39.66z"/>
	<path class="st0" d="M420.33,47.21c-2.21,1.1-2.53,1.01-4.07-1.05C417.89,45.62,418.98,46.61,420.33,47.21z"/>
	<path class="st0" d="M384.4,13.87c6.06,10.51,11.13,20.54,11.42,32.49c-1.8,0.88-3.88,0.73-5.86,0.55
		c-2.62-0.24-5.24-0.66-7.79-1.26c-1.48-0.35-3-1.01-4.2-1.92c-0.7-0.53-1.06-1.82-1.12-2.8c-0.21-3.25-0.68-6.52-2.15-9.35
		c-1.59-3.08-0.72-5.32,1.22-7.61C378.61,20.77,381.29,17.57,384.4,13.87z M385.59,41.75c-1.85-1.35-2.23-1.47-4.08-1.36
		C382.78,41.63,382.78,41.63,385.59,41.75z M383.3,44.47c-0.55-1.85-1.56-2.29-4.09-2.03C380.82,43.24,382.06,43.86,383.3,44.47z
		 M385.92,39.11c-0.02-0.21-0.03-0.42-0.05-0.62c-0.89-0.17-1.8-0.53-2.92,0.62C384.21,39.11,385.06,39.11,385.92,39.11z"/>
	<path class="st0" d="M396.58,38.61c-1.18-3.6-0.98-2.89,1.27-5.26c1.31-1.38,1.99-1.26,3.54,0.17c0.87,0.81,1.62,0.95,2.5,0.03
		c0.51-0.54,1.25-0.87,1.72-1.44c0.39-0.47,0.87-1.52,0.71-1.67c-1.33-1.22,0.25-2.13,0.26-3.38c-0.64-0.26-1.32-0.53-2.05-0.82
		c0.24-0.56,0.5-1.14,1-2.29c-1.68,0.36-2.9,0.63-4.24,0.92c-2.6-2.35,1.44-2.78,1.58-4.42c-1.97-1.59-2.6,1.51-4.55,1.15
		c0.58-1.11,1.16-2.04,1.55-3.06c0.18-0.48,0.21-1.38-0.08-1.59c-0.45-0.34-1.27-0.48-1.83-0.34c-1.64,0.41-2.19,1.33-1.95,3.67
		c0.16,1.51-0.21,2.51-1.62,2.99c-1.02,0.34-2.18,0.68-2.93-0.44c-0.72-1.07-1.86-2-1.05-3.66c1.68-3.4,4.57-4.95,8.08-5.64
		c5.46-1.06,10.27,2.7,12.06,6.41c2.76,5.72,1.78,12.31-2.52,16.18C404.91,38.94,400.81,39.83,396.58,38.61z"/>
	<path class="st0" d="M375.62,43.39c-3.1,0.52-5.94,1-9.07,1.53c-1.05-4.86-2.04-9.46-3.1-14.37c2.87-0.76,5.45-1.44,8.27-2.19
		C373.7,33.26,374.84,38.11,375.62,43.39z M365.39,34.54c0.28-0.04,0.57-0.08,0.85-0.12c-0.17-0.95-0.33-1.9-0.5-2.85
		c-0.25,0.03-0.49,0.07-0.74,0.1C365.13,32.64,365.26,33.59,365.39,34.54z M367.69,31.35c-0.16,0.39-0.36,0.63-0.31,0.82
		c0.05,0.22,0.32,0.38,0.49,0.57c0.12-0.21,0.34-0.42,0.32-0.62C368.17,31.91,367.94,31.71,367.69,31.35z"/>
	<path class="st0" d="M402.47,30.23c-2.64,0.82-4.91,1.53-7.48,2.33c-0.75-2.18-1.58-4.6-2.44-7.14c1.28-0.76,2.42-1.45,3.58-2.1
		c1.47-0.82,2.22-0.7,3.12,0.81C400.36,26.01,401.3,27.99,402.47,30.23z"/>
	<path class="st0" d="M397.37,20.02c-0.44-1.18-0.34-1.94,1-2.49C398.77,18.75,398.41,19.42,397.37,20.02z"/>
	<path d="M447.41,60.74c-1.88,1.4-3.8,0.98-5.73,0.44C443.57,60.21,445.49,60.41,447.41,60.74z"/>
	<path d="M448.05,57.32c-0.23,0.63-0.46,1.24-0.79,2.13c-0.92-0.1-1.9-0.21-2.88-0.32c-0.02-0.21-0.05-0.42-0.07-0.63
		C445.76,58.67,445.87,55.64,448.05,57.32z"/>
	<path d="M458.54,53.76c-0.23-1.12-0.57-2.35,0.92-3.22C460,51.96,459.13,52.8,458.54,53.76z"/>
	<path d="M459.86,63.22c0.28-0.66,0.57-1.31,0.85-1.97c0.23,0.09,0.46,0.18,0.7,0.27c-0.24,0.65-0.48,1.3-0.72,1.95
		C460.41,63.39,460.13,63.31,459.86,63.22z"/>
	<path d="M463.62,62.38c-0.29,0.6-0.58,1.2-0.86,1.8c-0.19-0.09-0.38-0.18-0.57-0.26c0.28-0.61,0.55-1.21,0.83-1.82
		C463.22,62.2,463.42,62.29,463.62,62.38z"/>
	<path d="M385.59,41.75c-2.81-0.11-2.81-0.11-4.08-1.36C383.36,40.28,383.74,40.39,385.59,41.75z"/>
	<path d="M383.3,44.47c-1.24-0.61-2.47-1.23-4.09-2.03C381.73,42.17,382.75,42.62,383.3,44.47z"/>
	<path d="M385.92,39.11c-0.86,0-1.71,0-2.97,0c1.12-1.16,2.04-0.79,2.92-0.62C385.88,38.69,385.9,38.9,385.92,39.11z"/>
	<path d="M365.39,34.54c-0.13-0.95-0.26-1.91-0.39-2.86c0.25-0.03,0.49-0.07,0.74-0.1c0.17,0.95,0.33,1.9,0.5,2.85
		C365.95,34.46,365.67,34.5,365.39,34.54z"/>
	<path d="M367.69,31.35c0.25,0.36,0.48,0.55,0.5,0.77c0.02,0.2-0.21,0.41-0.32,0.62c-0.17-0.19-0.43-0.35-0.49-0.57
		C367.33,31.98,367.53,31.74,367.69,31.35z"/>
</g>
</svg>
