<?xml version="1.0" encoding="utf-8"?>
<!-- Generator: Adobe Illustrator 23.0.1, SVG Export Plug-In . SVG Version: 6.00 Build 0)  -->
<svg version="1.1" id="Layer_1" xmlns="http://www.w3.org/2000/svg" xmlns:xlink="http://www.w3.org/1999/xlink" x="0px" y="0px"
	 viewBox="0 0 1024 600" style="enable-background:new 0 0 1024 600;" xml:space="preserve">
<style type="text/css">
	.st0{fill:#060606;}
	.st1{fill:#050505;}
	.st2{fill:#080808;}
	.st3{fill:#222222;}
	.st4{fill:#2B2C2C;}
	.st5{fill:#1A1A1A;}
	.st6{fill:#EFEEED;}
	.st7{fill:#B3B3B3;}
	.st8{fill:#0A0A0A;}
	.st9{fill:#636362;}
	.st10{fill:#0C0C0C;}
	.st11{fill:#FFFFFF;}
	.st12{fill:#FBFAFA;}
	.st13{fill:#F5F4F4;}
	.st14{fill:#F0EFEF;}
	.st15{fill:#F1F0EF;}
	.st16{fill:#EFEEEE;}
	.st17{fill:#F1EFEF;}
	.st18{fill:#EDEBEB;}
	.st19{fill:#F0EFEE;}
	.st20{fill:#F3F2F1;}
	.st21{fill:#DFDEDE;}
	.st22{fill:#EEEDED;}
	.st23{fill:#E5E4E3;}
	.st24{fill:#E6E5E5;}
	.st25{fill:#DBD9D9;}
	.st26{fill:#EDEDEC;}
	.st27{fill:#E1E1E0;}
	.st28{fill:#E2E1E0;}
	.st29{fill:#E6E5E4;}
	.st30{fill:#E9E8E7;}
	.st31{fill:#D7D6D6;}
	.st32{fill:#EDECEC;}
	.st33{fill:#F5F5F5;}
	.st34{fill:#EAE9E8;}
	.st35{fill:#191919;}
	.st36{fill:#0F0F0F;}
	.st37{fill:#E3E2E2;}
	.st38{fill:#DBDAD9;}
	.st39{fill:#DFDEDD;}
	.st40{fill:#CECCCC;}
	.st41{fill:#E1DFDF;}
	.st42{fill:#434343;}
	.st43{fill:#F8F8F7;}
	.st44{fill:#4D4D4D;}
	.st45{fill:#DDDBDB;}
	.st46{fill:#DEDCDC;}
	.st47{fill:#D4D3D2;}
	.st48{fill:#232323;}
	.st49{fill:#E0DEDE;}
	.st50{fill:#D9D8D7;}
	.st51{fill:#D0CFCF;}
	.st52{fill:#E5E4E4;}
	.st53{fill:#C2C2C2;}
	.st54{fill:#272828;}
	.st55{fill:#313232;}
	.st56{fill:#282829;}
	.st57{fill:#E2E0E0;}
	.st58{fill:#E9E8E8;}
	.st59{fill:#323232;}
	.st60{fill:#D1D0D0;}
	.st61{fill:#EAE8E8;}
	.st62{fill:#C2C0C0;}
	.st63{fill:#B3B2B2;}
	.st64{fill:#CFCFCE;}
	.st65{fill:#AEAEAE;}
	.st66{fill:#989797;}
	.st67{fill:#949494;}
	.st68{fill:#DADAD9;}
	.st69{fill:#ABABAB;}
	.st70{fill:#D4D2D2;}
	.st71{fill:#CCCBCA;}
	.st72{fill:#969595;}
	.st73{fill:#3C3C3C;}
	.st74{fill:#929292;}
	.st75{fill:#F4F3F3;}
	.st76{fill:#DBDBDA;}
	.st77{fill:#CCCBCB;}
	.st78{fill:#DDDCDC;}
	.st79{fill:#FCFCFB;}
	.st80{fill:#FCFBFB;}
	.st81{fill:#F8F7F7;}
	.st82{fill:#505151;}
	.st83{fill:#F6F5F5;}
	.st84{fill:#E1E0E0;}
	.st85{fill:#C4C4C4;}
	.st86{fill:#1E1E1E;}
	.st87{fill:#D2D2D2;}
	.st88{fill:#252626;}
	.st89{fill:#282828;}
	.st90{fill:#E8E6E6;}
	.st91{fill:#D5D4D3;}
	.st92{fill:#C0BFBF;}
	.st93{fill:#2B2C2B;}
	.st94{fill:#C1C1C0;}
	.st95{fill:#ECEAEA;}
	.st96{fill:#EBEAEA;}
	.st97{fill:#DCDBDA;}
	.st98{fill:#636363;}
	.st99{fill:#FDFCFC;}
	.st100{fill:#FEFEFE;}
	.st101{fill:#E8E7E7;}
	.st102{fill:#DAD9D9;}
	.st103{fill:#C9C8C7;}
	.st104{fill:#DBDADA;}
	.st105{fill:#121212;}
	.st106{fill:#1D1E1E;}
	.st107{fill:#656565;}
	.st108{fill:#1B1B1B;}
	.st109{fill:#090909;}
	.st110{fill:#858585;}
	.st111{fill:#9F9E9E;}
	.st112{fill:#A8A8A8;}
	.st113{fill:#B4B3B3;}
	.st114{fill:#111111;}
	.st115{fill:#171718;}
	.st116{fill:#5C5B5A;}
	.st117{fill:#F0F0EF;}
	.st118{fill:#DEDDDD;}
	.st119{fill:#EDECEB;}
	.st120{fill:#050606;}
	.st121{fill:#0B0B0B;}
	.st122{fill:#161616;}
	.st123{fill:#404141;}
	.st124{fill:#ACACAC;}
	.st125{fill:#FCFCFC;}
	.st126{fill:#FDFDFD;}
	.st127{fill:#FBFBFA;}
	.st128{fill:#FAFAF9;}
	.st129{fill:#202020;}
	.st130{fill:#E1E1E1;}
	.st131{fill:#E5E3E3;}
	.st132{fill:#D4D4D3;}
	.st133{fill:#C6C5C5;}
	.st134{fill:#B1B1B1;}
	.st135{fill:#E3E2E1;}
	.st136{fill:#C5C4C4;}
	.st137{fill:#373737;}
	.st138{fill:#E7E6E5;}
	.st139{fill:#2E2F2F;}
	.st140{fill:#D8D8D7;}
	.st141{fill:#3A3A39;}
	.st142{fill:#303030;}
	.st143{fill:#131313;}
	.st144{fill:#0D0D0D;}
	.st145{fill:#151515;}
	.st146{fill:#0D0C0C;}
	.st147{fill:#F7F7F6;}
	.st148{fill:#EEEDEC;}
	.st149{fill:#D9D7D7;}
	.st150{fill:#5B5A5A;}
	.st151{fill:#5D5D5D;}
	.st152{fill:#EBEAE9;}
	.st153{fill:#101010;}
	.st154{fill:#0B0C0C;}
	.st155{fill:#FDFDFC;}
	.st156{fill:#F2F1F1;}
	.st157{fill:#F7F6F6;}
	.st158{fill:#F7F6F5;}
	.st159{fill:#F3F2F2;}
	.st160{fill:#F6F5F4;}
	.st161{fill:#F1F0F0;}
	.st162{fill:#F4F3F2;}
	.st163{fill:#C7C5C5;}
	.st164{fill:#D6D5D4;}
	.st165{fill:#CAC9C9;}
	.st166{fill:#222323;}
	.st167{fill:#161717;}
	.st168{fill:#DAD9D8;}
	.st169{fill:#E7E5E5;}
	.st170{fill:#E2E0DF;}
	.st171{fill:#D9D8D8;}
	.st172{fill:#CAC8C8;}
	.st173{fill:#C9C7C7;}
	.st174{fill:#E0DFDF;}
	.st175{fill:#E4E3E3;}
	.st176{fill:#E7E5E4;}
	.st177{fill:#E6E4E4;}
	.st178{fill:#C9C8C8;}
	.st179{fill:#F8F7F6;}
	.st180{fill:#E9E7E7;}
	.st181{fill:#EEEDEE;}
	.st182{fill:#0A0A0B;}
	.st183{fill:#8E8D8D;}
	.st184{fill:#D3D2D1;}
	.st185{fill:#393A3A;}
	.st186{fill:#4D4E4D;}
	.st187{fill:#C6C6C6;}
	.st188{fill:#ECEBEB;}
	.st189{fill:#CECDCD;}
	.st190{fill:#404040;}
	.st191{fill:#B9B8B8;}
	.st192{fill:#CFCECD;}
	.st193{fill:#C4C3C3;}
	.st194{fill:#979797;}
	.st195{fill:#ABA9A9;}
	.st196{fill:#D5D4D4;}
	.st197{fill:#B6B4B4;}
	.st198{fill:#292A2A;}
	.st199{fill:#3B3C3C;}
	.st200{fill:#060707;}
	.st201{fill:#0A0B0B;}
	.st202{fill:#424343;}
	.st203{fill:#3D3E3E;}
	.st204{fill:#A9A8A8;}
	.st205{fill:#D6D4D4;}
	.st206{fill:#FAF9F9;}
	.st207{fill:#F4F2F2;}
	.st208{fill:#F9F8F7;}
	.st209{fill:#E2E1E1;}
	.st210{fill:#202121;}
	.st211{fill:#F5F4F3;}
	.st212{fill:#272727;}
	.st213{fill:#9B9A9A;}
	.st214{fill:#BFBEBE;}
	.st215{fill:#262626;}
	.st216{fill:#828181;}
	.st217{fill:#C3C2C2;}
	.st218{fill:#B5B5B5;}
	.st219{fill:#AEAFAF;}
	.st220{fill:#E3E1E1;}
	.st221{fill:#C0BEBE;}
	.st222{fill:#BBBABA;}
	.st223{fill:#232424;}
	.st224{fill:#D7D5D5;}
	.st225{fill:#292929;}
	.st226{fill:#444444;}
	.st227{fill:#1B1C1C;}
	.st228{fill:#0E0E0E;}
	.st229{fill:#0F1010;}
	.st230{fill:#2F3030;}
	.st231{fill:#111212;}
	.st232{fill:#181818;}
	.st233{fill:#111112;}
	.st234{fill:#121313;}
	.st235{fill:#141414;}
	.st236{fill:#191A1A;}
	.st237{fill:#0D0E0E;}
	.st238{fill:#181919;}
	.st239{fill:#1C1C1C;}
	.st240{fill:#0E0F0F;}
	.st241{fill:#1E1F1F;}
	.st242{fill:#171717;}
	.st243{fill:#1E1E1D;}
	.st244{fill:#131414;}
	.st245{fill:#333333;}
	.st246{fill:#212222;}
	.st247{fill:#3A3B3B;}
	.st248{fill:#525352;}
	.st249{fill:#2A2B2A;}
	.st250{fill:#FAFAFA;}
	.st251{fill:#EFEDED;}
	.st252{fill:#0C0D0D;}
	.st253{fill:#0A0B0A;}
	.st254{fill:#161515;}
	.st255{fill:#232425;}
	.st256{fill:#F6F6F5;}
	.st257{fill:#FEFEFD;}
	.st258{fill:#262727;}
	.st259{fill:#1D1D1D;}
	.st260{fill:#171818;}
	.st261{fill:#414040;}
	.st262{fill:#282929;}
	.st263{fill:#1A1B1B;}
	.st264{fill:#141515;}
	.st265{fill:#2D2D2D;}
	.st266{fill:#343535;}
	.st267{fill:#3C3D3D;}
	.st268{fill:#2F2F30;}
	.st269{fill:#1B1B1C;}
	.st270{fill:#313131;}
	.st271{fill:#3F4040;}
	.st272{fill:#111010;}
	.st273{fill:#101111;}
	.st274{fill:#1C1D1D;}
	.st275{fill:#242525;}
	.st276{fill:#CFCDCD;}
	.st277{fill:#323333;}
	.st278{fill:#CFCDCC;}
	.st279{fill:#D7D7D7;}
	.st280{fill:#303131;}
	.st281{fill:#B0AFAF;}
	.st282{fill:#CDCDCD;}
	.st283{fill:#242424;}
	.st284{fill:#121111;}
	.st285{fill:#1F1F1F;}
	.st286{fill:#2E2D2D;}
	.st287{fill:#F9F8F8;}
	.st288{fill:#191A19;}
	.st289{fill:#070808;}
	.st290{fill:#1A1A1B;}
	.st291{fill:#525252;}
	.st292{fill:#C5C3C3;}
	.st293{fill:#2C2C2C;}
	.st294{fill:#D8D7D7;}
	.st295{fill:#ECECEB;}
	.st296{fill:#D5D3D3;}
	.st297{fill:#BDBBBB;}
	.st298{fill:#BEBDBC;}
	.st299{fill:#FFFFFE;}
	.st300{fill:#F9F9F9;}
	.st301{fill:#F2F2F1;}
	.st302{fill:#DCDBDB;}
	.st303{fill:#B8B6B6;}
	.st304{fill:#EAE9E9;}
	.st305{fill:#7B7A7A;}
	.st306{fill:#252525;}
	.st307{fill:#D7D6D5;}
	.st308{fill:#A3A3A3;}
	.st309{fill:#D4D3D3;}
	.st310{fill:#424242;}
	.st311{fill:#313231;}
	.st312{fill:#585757;}
	.st313{fill:#1C1C1D;}
	.st314{fill:#434243;}
	.st315{fill:#343434;}
	.st316{fill:#1F2020;}
	.st317{fill:#E1E0DF;}
	.st318{fill:#2F2F2F;}
	.st319{fill:#171817;}
	.st320{fill:#101110;}
	.st321{fill:#151616;}
	.st322{fill:#EBE9E9;}
	.st323{fill:#ECEBEA;}
	.st324{fill:#F3F3F2;}
	.st325{fill:#D2D2D1;}
	.st326{fill:#E4E2E2;}
	.st327{fill:#E4E3E2;}
	.st328{fill:#E7E6E6;}
	.st329{fill:#CECDCC;}
	.st330{fill:#E4E4E4;}
	.st331{fill:#C4C3C2;}
	.st332{fill:#D6D5D5;}
	.st333{fill:#070707;}
	.st334{fill:#3F3E3D;}
	.st335{fill:#B7B5B5;}
	.st336{fill:#ACABAB;}
	.st337{fill:#080909;}
	.st338{fill:#3A3A3A;}
	.st339{fill:#010101;}
	.st340{fill:#6E6E6E;}
	.st341{fill:#C7C5C4;}
	.st342{fill:#BCBBBB;}
	.st343{fill:#FFFEFE;}
	.st344{fill:#F4F4F3;}
	.st345{fill:#D8D8D8;}
	.st346{fill:#818081;}
	.st347{fill:#2D2E2E;}
	.st348{fill:#9E9E9E;}
	.st349{fill:#282928;}
	.st350{fill:#2A2B2B;}
	.st351{fill:#040404;}
	.st352{fill:none;}
	.st353{fill:#2C2D2D;}
	.st354{fill:#474747;}
	.st355{fill:#3F3F3F;}
	.st356{fill:#EEECEC;}
	.st357{fill:#D7D7D6;}
	.st358{fill:#E7E7E7;}
	.st359{fill:#616161;}
	.st360{fill:#EAEAE9;}
	.st361{fill:#A9A9A9;}
	.st362{fill:#FBF9F9;}
	.st363{fill:#E0E0E0;}
	.st364{fill:#A4A4A4;}
	.st365{fill:#D5D5D5;}
	.st366{fill:#E6E6E6;}
	.st367{fill:#3E3E3E;}
	.st368{fill:#DDDCDB;}
	.st369{fill:#A0A0A0;}
	.st370{fill:#E8E7E6;}
	.st371{fill:#E4E4E3;}
	.st372{fill:#3E3F3F;}
	.st373{fill:#848383;}
	.st374{fill:#D2D1D1;}
	.st375{fill:#DFDFDE;}
	.st376{fill:#B7B6B6;}
	.st377{fill:#D1D0CF;}
	.st378{fill:#A7A7A6;}
	.st379{fill:#8D8E8E;}
	.st380{fill:#757575;}
	.st381{fill:#C2C1C1;}
	.st382{fill:#C8C8C7;}
	.st383{fill:#ABAAAA;}
	.st384{fill:#CBCAC9;}
	.st385{fill:#C6C6C5;}
	.st386{fill:#A7A6A7;}
	.st387{fill:#888888;}
	.st388{fill:#F0EEEE;}
	.st389{fill:#AEADAD;}
	.st390{fill:#292A29;}
	.st391{fill:#CCCCCC;}
	.st392{fill:#D3D2D2;}
	.st393{fill:#EFEFEF;}
	.st394{fill:#3C3D3C;}
	.st395{fill:#C8C7C8;}
	.st396{fill:#1D1D1E;}
	.st397{fill:#AAAAAA;}
	.st398{fill:#F9F9F8;}
	.st399{fill:#F2F1F0;}
	.st400{fill:#DAD8D8;}
	.st401{fill:#D0CFCE;}
	.st402{fill:#ECECEC;}
	.st403{fill:#676766;}
	.st404{fill:#BBBABB;}
	.st405{fill:#565655;}
	.st406{fill:#C8C6C6;}
	.st407{fill:#E0DFDE;}
	.st408{fill:#8C8C8C;}
	.st409{fill:#6F6E6F;}
	.st410{fill:#BAB9B9;}
	.st411{fill:#EEEEEE;}
	.st412{fill:#C7C7C7;}
	.st413{fill:#8A898A;}
	.st414{fill:#505050;}
	.st415{fill:#B5B3B3;}
	.st416{clip-path:url(#SVGID_2_);}
	.st417{clip-path:url(#SVGID_4_);}
	.st418{clip-path:url(#SVGID_6_);}
	.st419{fill:#CFCECE;}
	.st420{fill:#383939;}
	.st421{fill:#DEDEDE;}
	.st422{clip-path:url(#SVGID_8_);}
	.st423{clip-path:url(#SVGID_10_);}
	.st424{fill:#0B0C0B;}
	.st425{fill:#C7C6C6;}
	.st426{fill:#1E1E1F;}
	.st427{fill:#F8F8F8;}
	.st428{clip-path:url(#SVGID_12_);}
	.st429{clip-path:url(#SVGID_14_);}
	.st430{clip-path:url(#SVGID_16_);}
	.st431{clip-path:url(#SVGID_18_);}
	.st432{fill:#969696;}
	.st433{fill:#353636;}
	.st434{fill:#0E0E0F;}
	.st435{fill:#484948;}
	.st436{fill:#0D0E0D;}
	.st437{fill:#111211;}
	.st438{fill:#242425;}
	.st439{fill:#343534;}
	.st440{fill:#4A4B4B;}
	.st441{fill:#414242;}
	.st442{fill:#B4B4B4;}
	.st443{fill:#FBFBFB;}
	.st444{fill:#FEFDFD;}
	.st445{fill:#666666;}
	.st446{fill:#565756;}
	.st447{clip-path:url(#SVGID_20_);}
	.st448{clip-path:url(#SVGID_22_);}
</style>
<path class="st161" d="M1017.25,354.91c0.02,2.48-8.68,10.41-10.9,10.41c-1.98,0-2.81-0.91-1.82-2.54c2.35-3.86,5.58-6.89,9.63-8.96
	C1015.68,353.06,1016.66,353.77,1017.25,354.91z"/>
<path class="st156" d="M999.32,374.35c4.37-0.68,7.51-0.82,11.37-0.02C1006.8,377.28,1003.66,376.9,999.32,374.35z"/>
<g>
	<defs>
		<rect id="SVGID_17_" x="-1.02" y="-4.59" width="1025.02" height="604.59"/>
	</defs>
	<clipPath id="SVGID_2_">
		<use xlink:href="#SVGID_17_"  style="overflow:visible;"/>
	</clipPath>
	<g class="st416">
		<path class="st11" d="M1026.17-21.9c0,68.4,0,136.79,0,205.19c-2.39,2.15-5.35,1.62-8.15,1.62c-22.37,0.04-44.75,0.36-67.11-0.09
			c-18.11-0.36-36.17,0.69-54.19,1.6c-20.73,1.05-41.39,0.77-62.11,0.47c-11.11-0.16-22.31,0.57-33.24,3.09
			c-4.41,1.02-7.36,3.79-7.92,8.24c-1.93,15.29-4.91,30.4-6.41,45.77c-1.52,15.65-0.7,31.27-1.05,46.9
			c-0.18,7.79-1.06,8.76-8.86,8.81c-9.33,0.06-18.67,0.12-27.99-0.49c-2.13-0.14-3.91-1-5.74-1.86
			c-18.01-8.48-35.03-18.85-52.76-27.87c-24.06-12.24-47.57-25.5-71.47-38.05c-24.27-12.73-47.78-26.91-71.98-39.83
			c-6.62-3.53-13.21-7.14-19.86-10.62c-5.65-2.96-6.13-5.06-1.48-9.49c5.6-5.34,12.31-9.29,18.41-14.02
			c4.65-3.61,9.31-7.21,14.02-10.73c12.61-8.55,24.27-18.44,37.12-26.67c3.56-3.28,7.99-5.42,11.43-8.85
			c2.53-2.04,5.16-3.94,7.79-5.85c2.95-2.15,5.57-2.79,6.91,3.89c6.31-17.72,21.25-24.51,33.1-34.42c4.33-3.62,6.51-2.94,8.69,2.27
			c3.29,7.87,5.59,16.1,8.34,24.17c0.62,1.83,0.51,4.09,3.27,5.45c4.29-8.13,7.55-16.58,10.78-25.04c1.52-3.98,2.72-8.11,5.12-11.68
			c3.32-4.92,6.46-4.86,9.84,0.03c6.72,9.73,10.61,20.96,16.38,31.2c1.62,2.87,3.32,5.53,5.54,7.91c0.62,0.82,0.88,1.78,1.11,2.95
			c5.12-8.39,6.22-18.27,10.83-26.71c0.83-1.53,1.61-3.09,2.26-4.71c0.11-0.29,0.19-0.48,0.23-0.57c4.45-10.2,9.64-12.17,19.91-7.54
			c2.43,1.1,3.45,3.32,4.4,5.6c5.94,14.21,13.64,27.73,16.91,44.21c4.88-8.97,8.02-17.38,11.11-25.79c2.6-7.07,5.5-14.01,8.62-20.85
			c4.07-8.91,9.64-9.45,15.22-1.5c4.55,6.49,8.54,13.3,12.1,20.43c4.6,9.22,11.28,17.21,16.83,27.41
			c0.75-16.14,5.03-30.47,5.48-45.3c0.07-2.26,0.8-4.4,1.21-6.59c0.39-2.13,1.3-3.7,3.75-4.21c2.49-0.52,3.6,0.87,5.03,2.46
			c10.31,11.48,20.29,23.25,30.45,34.85c0.65,0.74,1.31,1.57,2.87,1.83c1.51-6.6,2.71-13.31,2.91-20.06
			c0.29-9.81,2.65-19.28,4.17-28.87c0.9-5.69,10.26-8.68,15.44-5.2c12.83,8.62,24.75,18.46,36.91,27.97
			c1.72,1.35,3.11,3.22,5.95,3.21c1.01-6.07-2.36-11.35-2.98-17.1c-1.05-9.85-0.14-19.89-3.06-29.62c-1.18-3.95,4.87-8.69,9.31-7.24
			c18.52,6.03,36.93,12.41,54.51,20.55c-5.74-12.93-13.7-25.18-18.02-39.17c-1.47-4.76-1.46-7.93,2.69-11.12
			c8.04-6.18,15.34-13.3,23.69-19.11C1023.56-21.39,1024.51-22.61,1026.17-21.9z"/>
		<path class="st11" d="M1026.17,185.74c0,54.96,0,109.92,0,164.89c-5.48,3.77-11.9,1.95-17.79,2.48
			c-9.87,0.89-19.86,1.49-29.78,1.55c-36.97,0.2-73.94,0.17-110.91,0.12c-20.69-0.03-41.35-0.81-61.85-3.76
			c-11.6-1.67-20.22-6.93-21.19-22.25c-0.7-11.02-0.12-21.78,0.79-32.66c0.4-4.86,0.26-9.77,0.08-14.65
			c-1.02-27.94,3.18-55.41,7.45-82.87c0.83-5.32,4.33-7.82,9.34-9.13c11.17-2.9,22.53-2.64,33.89-2.57
			c16.89,0.11,33.86,1.11,50.65-0.16c43.87-3.31,87.76-1.75,131.65-2.19C1021.09,184.52,1023.84,183.91,1026.17,185.74z"/>
		<path class="st11" d="M-1.02,313.98c0-80.61,0-161.22,0-241.83c6.18-0.31,11.71,2.72,17.7,3.48c2.43,0.31,3.74,2.26,4.38,4.59
			c3.24,11.76,7.39,23.24,11.21,34.82c1.64,4.98,0.55,10.66,3.94,15.12c1-0.04,1.62-0.63,1.93-1.34
			c5.43-12.5,12.69-24.09,17.88-36.71c2.67-6.5,2.64-5.72,10.99-5.15c5.24,0.36,5.71,4.41,5.59,8.51
			c-0.39,13.29,3.26,26.18,3.95,39.36c0.05,1.04,0.64,1.91,1.73,2.98c3.48-2.63,4.95-6.69,6.95-10.28
			c5.05-9.05,9.33-18.54,14.77-27.37c1.79-2.9,2.76-6.96,7.78-6.39c4.8,0.54,6.2,3.9,7.5,7.69c4.42,12.88,8.6,25.84,13.02,38.72
			c0.46,1.34,1.06,2.64,1.62,3.95c0.54,1.26,0.83,2.99,2.72,2.71c1.49-0.21,1.39-1.8,1.85-2.87c4.13-9.55,6.21-19.77,9.55-29.57
			c1.57-4.62,3.46-9.13,4.78-13.83c0.77-2.74,2.51-3.79,5.34-4.01c10.59-0.81,11.24-0.47,16.21,8.92
			c4.29,8.09,9.52,15.62,14.19,23.49c2.06,3.47,4.06,6.94,5.42,11.87c3.58-5.16,4.18-10.14,5.32-14.88
			c2.14-8.87,3.61-17.92,7.4-26.33c1.94-2.47,2.36-6.02,5.44-7.68c4.99-2.46,8.13-1.19,11.74,3.45
			c8.67,11.14,14.97,23.64,22.37,35.82c2.07-5.31,2.02-10.85,2.95-16.19c1.25-7.2,3.04-8.2,8.97-3.69
			c11,8.36,21.7,17.11,31.91,26.43c4.14,3.78,3.99,5.59-1.04,8.04c-9.87,4.8-20.1,8.88-29.86,13.86
			c-19.37,9.89-39.71,17.62-59.15,27.33c-8.71,4.35-17.59,8.39-26.43,12.49c-3.97,1.84-6.6,4.46-8.01,8.59
			c-7.54,21.96-11.12,44.32-8.69,67.66c1.03,9.87,3.76,19.09,6.86,28.3c1.57,4.66-0.04,6.2-4.52,6.68
			c-9.52,1.01-19.06,0.51-28.58,0.85c-21.12,0.77-42.24,1.16-63.38,1.32c-18.66,0.15-37.28,2.12-55.95,2.31
			C4.48,315.22,1.62,315.34-1.02,313.98z"/>
		<path class="st11" d="M-1.02,665.74c0-42.34,0-84.68,0-127.02c1.04-14.25,1.04-28.5,0-42.75c0-1.63,0-3.26,0-4.89
			c8.71-2.08,17.62-1.94,26.47-2.27c3.4-0.13,3.43,2.12,1.9,4.54c-0.66,1.03-1.56,1.87-2.34,2.81
			c-10.39,12.39-14.75,27.11-14.39,42.82c0.51,22.05-2.92,43.69-4.78,65.51c-1.09,12.75-0.76,25.64-0.08,38.43
			c0.62,11.65,8.36,15.91,18.91,11.03c2.69-1.24,4.9-1.23,7.48,0.11c4.74,2.47,9.67,1.99,13.94-0.85c3.96-2.63,7.52-2.46,11.43-0.43
			c1.44,0.75,2.95,1.31,4.63,1.42c5.66,0.38,9.18-2.69,9.67-8.34c1.05-12.2-0.79-24.3-1.19-36.44c-0.58-17.83-0.31-35.69,1.99-53.46
			c1.3-10.07,2.14-20.2,1.58-30.38c-0.19-3.53-1.44-6.72-3.28-9.71c-3.72-6.08-6.66-12.58-9.75-18.98c-2.75-5.71-2.2-6.39,4.37-6.38
			c12.8,0.01,25.6-0.08,38.41,0.5c4.27,0.19,6.11,1.59,6.72,5.9c1.72,12.09,1.19,24.3,2.26,36.43c0.48,5.48,1,10.92,2.39,16.22
			c1.88,7.16,5.57,10.58,12.81,10.77c11.14,0.29,22.3,0.38,33.43-0.94c9.06-1.07,18.3,0.37,27.34-1.55
			c6.97-1.48,14.15-0.83,21.18-1.91c3.68-0.56,5.44-2.25,6.21-6.17c1.85-9.4,2.13-18.93,3.22-28.39c0.98-8.45,2.35-16.88,2.66-25.4
			c0.12-3.41,2.23-4.41,5.21-4.64c15.99-1.27,32.04-1.21,48.05-2.05c10.53-0.55,21.03-1.36,31.6-0.72c4.44,0.27,6.36,1.24,6.54,6.25
			c0.3,8.39,4.23,16.03,6.66,23.97c0.83,2.71,3.32,3.37,5.87,3.54c2.64,0.17,5.29,0.03,7.93,0.14c4.43,0.18,6.48,2.11,4.9,6.68
			c-2.99,6.68-7.86,12.34-10.52,19.2c-3.05,4.89-5.41,10.16-8.39,15.09c-1.25,3.22-3.22,6.07-4.71,9.18
			c-10.82,18.07-20.65,36.72-32.57,54.14c-3.75,5.48-6.68,11.56-9.53,17.6c-3.51,6.17-6.48,12.62-10.04,18.76
			c-2.14,3.68-4.86,5.64-9.5,4.53c-3.53-0.84-7.28-0.15-10.92-0.41c-1.58-0.11-3.55-0.02-4.17-1.82c-0.65-1.89,1.09-2.85,2.37-3.79
			c1.47-1.08,2.91-2.24,4.43-3.19c10.3-6.45,10.55-16.84,10.93-27.2c0.16-4.46-0.15-8.93,0.23-13.38c0.16-1.82-0.08-4.16,1.02-5.3
			c6.03-6.21,1.39-11.29-1.36-16.61c-5.5-6.02-13.15-8.14-20.3-11.17c-2.66-1.77-5.75-2.55-8.67-3.72
			c-4.31-2.35-8.78-4.33-13.39-6.02c-2.17-1.01-4.42-1.79-6.68-2.56c-4.19-2.78-8.26-2.65-12.37,0.26
			c-5.29,3.75-11.15,6.55-16.85,9.59c-3.12,1.67-4.98,3.56-4.2,7.61c1.05,5.42-0.38,10.97-1.22,16.23
			c-1.52,9.48,1.34,18.91-0.74,28.33c-0.66,2.97-1.52,7.22,3.67,8.06c2.18,0.92,4.31,1.94,6.56,2.69c1.59,0.69,3.11,1.52,4.71,2.18
			c4.47,1.85,8.98,3.63,13.56,5.19c1.7,0.94,3.37,1.97,5.28,2.5c1.9,0.7,3.82,1.34,5.69,2.11c3.51,2.2,8.69,2.03,10.16,7.14
			c-0.65,0.95-1.62,1.37-2.7,1.62c-8.35,1.2-16.54-1.11-24.87-1.06c-46.47,0.29-92.93,0.07-139.4,0.11
			c-15.81,0.01-31.47,3.15-47.32,2.44C4.31,667.32,1.37,667.87-1.02,665.74z"/>
		<path class="st200" d="M-1.02,313.98c38.18-0.13,76.29-2.58,114.47-3.16c14.73-0.23,29.65,1.18,44.33-1.62
			c0.6-0.11,1.18-0.29,2.06-0.52c-7.8-17.65-10.5-36.2-9.34-55.22c0.88-14.33,3.47-28.47,7.88-42.18
			c2.12-6.59,5.34-11.68,12.87-14.43c10.72-3.92,20.65-9.96,31.06-14.8c11.48-5.35,23.18-10.24,34.68-15.56
			c17.22-7.97,34.34-16.14,51.83-24.39c-13.2-11.44-26.33-22.57-40.56-33.27c-3.23,9.18-1.58,19.33-6.06,28.74
			c-6.06-16.89-16.24-30.5-25.79-44.47c-2.61-3.82-5.72,0-8.6,0.02c-10.1,3.14-20.65,3.45-31.01,4.92c-7.28,1.03-7.48,1.01-3.6,7.56
			c5.48,9.24,10.85,18.55,17.37,27.94c2.3-5.32,3.14-10.66,4.31-15.81c1.44-6.36,3.47-12.53,5.14-18.81
			c0.56-2.11,1.1-5.32,3.72-4.48c2.41,0.78,1.02,3.75,0.45,5.81c-3.97,8.06-5.25,16.91-7.22,25.52c-1.45,6.35-3.22,12.49-6.38,20.06
			c-3.26-9.19-7.43-16.39-12-23.41c-4.44-6.81-8.43-13.94-12.27-21.11c-1.46-2.73-3.24-3.26-6.1-3.63c-6.9-0.88-9.89,1.41-11.7,8.51
			c-3.47,13.6-8.46,26.81-12.74,40.21c-0.54,1.7-1.69,3.42-2.97,3.53c-1.99,0.17-3.32-1.74-3.99-3.61
			c-3.02-8.39-6.02-16.79-8.89-25.23c-2.49-7.32-5.19-14.6-6.99-22.09c-0.88-3.64-3.41-3.38-5.62-4.27
			c-3.1-1.24-3.02,1.86-3.97,3.24c-7.77,11.34-12.84,24.19-19.99,35.88c-1.56,2.56-2.33,7.33-5.74,6.53
			c-3.68-0.87-2.63-5.51-2.95-8.81c-1.28-13.42-4.4-26.67-3.68-40.28c0.14-2.67-1.8-3.65-4.07-3.17c-3.05,0.63-7.26-2.98-9.04,2.45
			c-4.85,14.76-13.55,27.71-19.81,41.81c-0.43,0.97-0.97,1.73-2.17,2.03c-2.48-2.77-3.16-6.57-3.55-9.84
			c-1.92-15.77-10-29.72-12.89-45.17c-0.56-2.97-3.56-3.29-6.14-3.54c-4.97-0.49-9.67-1.99-14.33-3.68c0-0.81,0-1.63,0-2.44
			c15.66,4.12,31.09,9.16,47.03,12.17c11.71,2.21,23.47,4.18,35.22,6.13c11.23,1.86,22.5,3.42,33.72,5.32
			c16.62,2.83,33.35,2.5,50.03,1.36c13.64-0.93,27.2-2.88,40.82-4.16c5.77-0.54,11.17-3.3,17.18-2.49c0.21-2.51-2.87-2.84-2.91-4.97
			l-0.14,0.11c9.32,6.54,18.83,1.04,27.67-0.7c15.3-3,30.17-8.26,45.15-12.78c9.61-2.9,19.12-6.17,28.6-9.25
			c-0.02-1.81-1.18-2.28-2.2-2.89c-13.69-8.15-27.83-15.52-41.68-23.37c-15.51-8.78-31.78-16.04-47.15-25.16
			c-17.77-10.55-35.44-21.27-53.03-32.11c-0.49-0.67-0.45-1.3,0.12-1.9c11.82,7.04,23.7,13.98,35.45,21.14
			c16.97,10.34,34.3,19.92,52.09,28.83c19.16,9.59,37.53,20.79,56.25,31.27c2.75,1.54,5.11,2.76,8.81,1.42
			c17.02-6.13,33.9-12.87,48.43-23.56c24.24-17.84,49.53-34.4,71.43-55.26c5.06-4.82,9.51-10.25,13.01-16.36
			c0.72-1.26,1.29-2.49,2.9-2.69c0.24,0.28,0.67,0.7,0.62,0.76c-4.16,5.36-2.18,9,2.51,13.15C481.83-14.85,496-5.17,510.15,4.59
			c9.19,6.34,18.35,12.74,27.38,19.3c7.21,5.24,14.22,6.02,22.62,2.1c11.12-5.2,22.84-9.13,34.33-13.54c0.89-0.34,2-0.1,3.01-0.13
			c1.14-0.65,1.23,0.02,1.15,0.91c-15.1,5.79-30.21,11.58-45.95,17.62c16.61,7.19,33.05,12.42,49.6,17.25
			c18.36,5.35,37.36,7.8,56.03,11.77c4.84,1.03,9.87,3.51,14.8,0.05c1.12-0.56,1.26,0.13,1.24,0.99c-1.22,2.64,1.04,2.59,2.34,2.62
			c15.55,0.37,30.84,3.56,46.43,3.87c10.65,0.21,21.31,1.23,31.87,3.2c4.72,0.88,9.75,0.47,14.61,0.16
			c9.87-0.62,19.71-1.61,29.57-2.34c2.96-0.22,5.98,0.02,8.35-2.3c0.31-0.3,0.15-1.47,1.09-0.69c4.85,4.03,9.98,0.66,15.01,0.67
			c12.77,0.04,25.48-1.05,38.08-2.72c7.21-0.95,14.33-3.47,21.17-6.11c23.69-9.17,47.79-17.35,70.52-28.9
			c8.95-4.55,16.47-11.14,24.83-16.51c16.16-10.36,30.28-23.36,45.18-35.34c0.89-0.72,1.74-0.91,2.76-0.86c0,0.81,0,1.63,0,2.44
			c-9.79,6.31-17.85,14.77-27.16,21.66c-3.29,2.44-3.25,4.83-1.93,8.67c4.97,14.53,12.78,27.65,19.61,41.25
			c0.68,1.37,1.68,2.81,0.44,3.74c-1.62,1.21-2.38-0.68-3.06-1.82c-2.26-3.81-6.62-4.21-10.05-5.59
			c-14.96-6.01-30.16-11.41-45.3-16.96c-2.44-0.89-7.64,3.5-6.97,6.09c3.89,14.95,0.93,30.92,6.83,45.55
			c0.65,1.62,0.85,3.21-0.73,4.37c-1.64,1.2-2.57-0.39-3.62-1.19c-11.89-9.05-23.76-18.12-35.64-27.19
			c-2.22-1.69-4.48-3.33-6.68-5.05c-3.1-2.41-6.03-1.04-8.81,0.51c-2.38,1.33-3.61,3-4.21,6.3c-2.45,13.47-3.09,27.14-5.3,40.61
			c-0.52,3.15-0.08,6.38-1.01,10.42c-7.1-5.15-11.41-12.01-16.73-17.83c-7.1-7.76-13.87-15.83-20.62-23.9
			c-1.18-1.41-2.14-0.26-3.18-0.43c-1.79-0.29-1.63,1.12-1.78,2.36c-1.18,9.79-2.17,19.62-3.71,29.35
			c-1.31,8.31-3.16,16.54-2.28,25.85c-5.97-2.6-6.78-8.44-9.79-12.39c-9.45-12.39-14.53-27.5-24.37-39.69
			c-3.32-4.1-6.46-3.9-9.14,0.87c-6.64,11.83-10.1,24.99-15.43,37.37c-2.2,5.11-4.55,10.17-7.49,15.17
			c-3.25-17.59-12.18-32.67-18.71-48.68c-1.15-2.82-2.94-3.38-5.59-4.36c-9.03-3.36-13.63,0.38-16.17,8.59
			c-1.17,0.08-1.52-0.72-1.76-1.63c-0.48-2.55,1.81-4.46,1.68-7.14c-10.8-1.63-21.63-1.76-33.11-2.29
			c6.22,11.29,10.79,22.76,17.24,33.29c1.13,1.84,3.03,3.48,1.86,6.04c-0.52,0.43-1.04,0.43-1.54-0.02
			c-6.26-5.08-8.79-12.59-11.99-19.47c-3.5-7.52-7.86-14.55-11.62-21.9c-1.37-2.68-3.94-1.82-5.65,0.82
			c-4.15,6.41-5.57,13.92-8.59,20.78c-2.54,5.78-5.1,11.55-7.65,17.33c-1.27,2.89-2.6,3.57-3.88,0.03
			c-2.67-7.42-5.4-14.82-7.94-22.28c-4.49-13.17-4.41-13.15-15.2-4.75c-4.54,3.53-9.25,6.84-13.85,10.3
			c-4.78,3.6-7.47,8.76-10.24,13.86c-1.33,2.45-2.74,4.87-5.37,6.31c-1.29-1.92-0.78-3.96-0.96-6.19
			c-4.65,1.58-7.72,5.41-11.81,7.59c-1.29,0.42-1.57-0.42-1.74-1.39c1.2-3.62,4.63-4.96,7.33-7c2.25-1.69,4.27-3.49,3.27-6.55
			c-4.06-12.32-2.57-25.45-5.62-37.91c-0.28-1.14-0.1-2.48-1.73-3.26c-6.6,6.18-11.72,13.76-17.64,20.63
			c-4.38,5.09-9.42,9.57-13.45,14.97c-1.19,1.6-2.85,3.31-5.14,2.44c-2.32-0.88-2.21-3.3-2.14-5.27
			c0.49-15.01-1.01-29.95-1.31-45.87c-6.49,4.96-11.97,10.24-17.52,15.4c-5.36,4.99-10.47,10.24-15.59,15.47
			c-2.09,2.13-4.29,4.94-7.81,3.32c-3.61-1.67-2.39-5.02-2.24-8.05c0.32-6.74,2.12-13.25,2.75-19.93c0.62-6.62-0.58-7.47-6.53-5.07
			c-8.28,3.35-16.8,6.22-23.56,12.5c-1.97,1.83-4.25,3.18-7.19,1.81c-1.6-0.75-3.2-0.1-4.71,0.54
			c-30.13,12.82-60.67,24.66-90.3,38.66c-0.55,0.26-1.02,0.63-1.41,1.8c2.72,2.68,6.4,4.43,9.77,6.45
			c30.33,18.23,60.38,36.94,91.49,53.85c5.89,3.2,11.4,7.03,17.47,9.99c4.82,2.35,8.63,2.33,12.8-1.23
			c7.27-6.21,15.17-11.64,22.66-17.58c2.85-2.26,5.6-4.76,9.46-5.25c0.64,0.09,1.15,0.41,1.52,0.94
			c-9.36,8.7-20.16,15.53-30.17,23.39c-0.96,0.75-1.95,1.46-2.87,2.25c-5.01,4.29-4.75,4.19,0.94,7.11
			c12.03,6.17,23.77,12.9,35.71,19.25c25.81,13.73,50.97,28.62,77,41.96c25.81,13.23,51.23,27.24,76.77,40.99
			c8.54,4.6,17.1,9.18,25.62,13.79c5.15,2.79,10.21,1.56,15.23,2.15c7.23,0.84,14.63,0.14,21.95,0.41c3.29,0.12,4.17-1.04,4.11-4.16
			c-0.17-8.54,0.01-17.09-0.06-25.64c-0.14-19.18,1.89-38.09,5.84-56.88c0.93-4.42,0.5-9.25,1.55-13.76
			c1.24-5.31,4.57-8.42,10.14-9.63c16.97-3.67,34.12-2.12,51.22-2.42c57.69-1.01,115.37-3.47,173.09-2.39c0,0.81,0,1.63,0,2.44
			c-31.31,0-62.65-0.87-93.93,0.22c-38.52,1.34-77.02,2.57-115.57,2.34c-5.88-0.03-11.76,1.53-17.37,3.59
			c-3.46,1.27-4.66,4.15-5.17,7.44c-3.07,19.66-5.97,39.34-7.13,59.22c-0.46,7.91-0.41,15.87-0.16,23.79
			c0.51,16.28-2.39,32.5-0.19,48.83c1.12,8.32,4.79,14.17,12.68,16.73c9.5,3.09,19.48,3.12,29.23,3.73
			c40.68,2.55,81.44,1.56,122.16,1.12c11.3-0.12,22.62,1.16,33.82,0.12c13.87-1.3,27.75-1.54,41.63-2.25c0,0.81,0,1.63,0,2.44
			c-6.66,3.66-0.41,7.33,0,10.99c0,1.63,0,3.26,0,4.89c-2.95,0.49-3.9-1.9-4.87-3.75c-2.1-4-4.11-3.8-6.64-0.46
			c-1.11,1.46-2.64,2.54-4.34,3.28c-3.03,1.32-6.08,1.48-8.43-1.13c-2.21-2.45-0.69-4.93,0.66-7.26c0.6-1.03,1.75-1.7,2-3.7
			c-11.77,0.02-23.46-0.03-35.14,0.04c-1.05,0.01-2.39,0.23-2.47,1.31c-0.29,3.9,0.28,7.81,2.36,11.13c1.6,2.54,4.6,2.8,7.16,1.79
			c5.07-1.98,9.79-0.95,14.87,0.18c7.01,1.56,14.15-0.54,21.18-1.2c5.59-0.52,10.02,0.4,13.66,4.65c0,2.85,0,5.7,0,8.55
			c-6.97-3.85-14.11-3.14-21.86-2.56c-7.17,0.54-14.41,0.21-21.69,1.42c-11.35,1.89-20.21-4.15-23.86-15.21
			c-2.6-7.9-4.69-9.12-12.81-8.98c-23.4,0.39-46.81,0.44-70.2-0.04c-7.28-0.15-14.58-1.17-21.91-0.99c-5.6,0.14-6.06,0.91-3.76,6.15
			c1.39,3.17,3.34,6.09,4.35,9.41c1.32,4.35-0.49,7.17-4.86,6.85c-12.34-0.91-12.83,0.2-16.5-11.1c-2.43-7.47-3.13-7.55-8.76-1.67
			c-1.28,1.34-2.57,2.64-4.42,3.12c-2.47,0.64-4.94,0.69-6.88-1.22c-2.17-2.14-1.02-4.48-0.07-6.78c0.77-1.86,2.61-3.11,3.03-5.62
			c-5.82-0.95-11.58-1.92-17.21-3.45c-7.91-2.15-13.13-7.21-15.45-14.97c-0.92-3.1-1.97-5.12-5.59-5.14
			c-9.14-0.03-18.28-0.32-27.21,1.42c-0.84,1.28-0.1,2.12,0.55,2.81c6.17,6.51,11.09,14.11,17.3,20.52
			c9.36,9.67,18.06,19.87,26.46,30.35c2.8,3.5,6.06,4.93,10.49,5.01c38.23,0.65,76.5,2.49,114.68,0.81
			c24.99-1.1,49.45,2.31,74.15,3.75c7.91,0.46,15.77,1.76,23.73,1.55c3.09-0.08,6.15,0.17,8.31,2.89c0,0.41,0,0.81,0,1.22
			c-19.83-2.36-39.84-1.75-59.7-4.45c-13.06-1.78-26.39-2.1-39.88-0.86c-15.27,1.4-30.83,0.87-46.29-0.16
			c-9.65-0.65-19.4-0.57-29.13,0.21c-5.99,0.48-12.08-0.69-18.14-0.79c-9.15-0.16-18.33,0.32-27.47-0.16
			c-5.97-0.31-7.09,2.51-6.26,7.28c2.96,17.02,2.17,34.19,2.08,51.32c-0.05,9.48-0.69,18.95-1.06,28.43
			c-0.48,12.19,1.24,24.24,2.02,36.35c0.64,9.92,0.7,19.98-0.27,29.86c-0.49,5.03,1.99,10.05-0.4,14.92
			c-0.65,1.33,0.8,3.52-1.27,4.15c-2.02,0.62-3.31-1.07-4.58-2.35c-7.73-7.78-15.42-15.61-23.18-23.37
			c-9.42-9.42-18.96-18.72-27.71-28.78c-0.91-1.05-2.18-1.81-2.21-3.46c-0.13-7.86,0.24-15.78-0.57-23.57
			c-1.35-12.89-0.13-25.82-1.24-38.75c-0.73-8.47-3.92-17.45,0.47-26.01c0.34-0.66,0.22-1.6,0.21-2.4
			c-0.41-21.88,1.17-43.81-1.54-67.14c-4.79,11.37-11.57,19.84-19.48,27.38c-16.49,15.73-35.71,25.34-58.79,27.53
			c-8.1,0.77-16.34,2.74-24.29,1.78c-13.14-1.58-26.97-0.45-39.14-6.87c-7.64-4.03-13.51-10.67-20.28-16.01
			c-12.14-9.57-24.64-18.67-36.62-28.43c-9.79-7.97-19.1-16.55-28.52-24.97c-9.27-8.29-18.44-16.68-27.56-25.12
			c-1.63-1.51-3.17-2.19-5.41-1.89c-15.73,2.09-31.41,1.57-47.03-1.17c-1.39-0.24-2.84-0.18-4.26-0.16
			c-24.13,0.29-48.19,2.68-72.34,2.4c-4.39-0.05-6.47,3.72-9.36,5.9c-7.71,5.82-14.95,12.25-22.41,18.39
			c-0.39,0.32-1.16,0.19-1.76,0.26l-0.4-0.4c6.14-7.63,14.81-12.33,21.87-18.91c1.74-1.62,3.76-2.95,5.76-4.5
			c-0.67-1.66-2.32-0.66-3.48-0.7c-27.63-0.92-55.23,0.75-82.82,1.46c-30.33,0.79-60.67,1.71-91,2.66
			c-10.24,0.32-20.47,1.87-30.69,1.83c-31.19-0.12-62.34,1.71-93.54,1.61c-13.89-0.04-27.86,1.6-41.81,2.19
			c-2.68,0.11-5.21-0.24-7.67-1.25C-1.02,314.8-1.02,314.39-1.02,313.98z"/>
		<path class="st11" d="M1026.17,400.7c-6.8-2.56-14.05-1.6-20.99-1.93c-22.86-1.07-45.54-6.44-68.35-5.07
			c-28.82,1.73-57.57,0.24-86.34,0.56c-16.38,0.18-32.85-0.86-49.29-0.84c-2.28,0-3.86-0.72-5.16-2.44
			c-9.96-13.22-21.39-25.17-32.39-37.5c-6.22-6.98-11.93-14.42-18.06-21.89c11.53-1.24,22.82-2.31,34.26-1.32
			c3.13,0.27,4.74,0.43,4.57,4.21c-0.27,5.93,7.33,14.89,15.94,16.19c6.66,1.01,13.17,3.05,20.63,2.39
			c-2.47,3.05-4.68,5.37-6.37,8.01c-1.02,1.6-3.68,3.66-1.23,5.6c2.44,1.93,5.67,2.05,8.17-0.36c2.01-1.95,3.75-4.19,5.52-6.37
			c2.72-3.36,4.52-2.24,5.86,1.13c0.36,0.91,0.49,1.91,0.69,2.88c1.76,8.44,5.56,14.34,15.56,13.35c1.67-0.17,3.28,0.04,4.32-1.37
			c0.97-1.32,0-2.5-0.54-3.85c-2.29-5.8-6.19-10.93-7.49-17.31c14.07-1.76,27.75,1.08,41.51,0.87c19.11-0.3,38.23,0,57.35-0.14
			c12.49-0.09,12.66-0.29,16.23,11.71c2.99,10.07,13.97,14.13,22.46,12.38c6.69-1.38,13.17-3.17,20-0.92
			c1.46,0.48,3.68,0.7,4.78-0.06c7.58-5.28,12.99-1.15,18.32,3.8C1026.17,388.49,1026.17,394.59,1026.17,400.7z"/>
		<path class="st0" d="M-1.02,665.74c48.25-2.35,96.53-3.17,144.82-2.3c11.34,0.2,22.64-0.05,33.96-0.19
			c14.02-0.17,28.01,0.22,41.97,1.54c1.64,0.4,3.41-0.13,3.91,0.12c-0.11-0.05-1.74,0.04-2.45-1.44c-3.61-1.76-7.21-3.51-10.82-5.27
			c-0.1-1.26,0.76-1.64,1.75-1.9c4.84,0.08,8.7,3.09,13.11,4.48c4.14,1.31,6.21,0.88,6.86-4.14c1.6-12.43,3.67-24.78,3.54-37.4
			c-0.05-4.88-1.37-7.84-6.17-9.69c-6.03-2.33-12.1-4.6-17.96-7.38c-1.81-0.86-3.86-1.33-5.01-3.22c-0.36-1.08,0.12-1.8,1-2.34
			c1.82-0.76,3.68-0.49,5.28,0.41c6.93,3.88,14.89,5.3,21.82,9.12c5.17,2.85,10.81,3.3,16.43,3.79c5.54,0.48,7.8-2.75,5.9-7.96
			c-0.76-2.09-1.95-4.06-0.9-6.38c0.2-0.23,0.41-0.45,0.62-0.68c4.55,0.76,2.3,5.55,4.68,7.86c2.52,2.44,3.89,5.43-1.05,7.66
			c-2.69,1.22-2.29,4.71-2.2,7.11c0.32,9.33-0.64,18.57-1.17,27.85c-0.19,3.37-1.01,5.89-4,8.08c-4.68,3.43-8.05,8.51-13.59,11.47
			c6.24,1.18,12.53,0.66,18.71,1.36c2.7,0.3,3.48-3.47,4.73-5.59c3.31-5.61,6.36-11.37,9.51-17.08c0.5-0.38,1.03-0.43,1.58-0.12
			c0.18,5.55-2.92,9.91-5.34,14.5c-1.95,3.69-4.42,7.16-5.03,12.82c8.93-13.39,15.88-26.38,23.12-39.2
			c11.48-20.32,24.34-39.8,36.27-59.84c12.67-21.28,23.47-43.6,35.87-65.03c1.46-2.53,1.76-5.37,2.1-8.2
			c0.2-1.65-0.73-2.13-2.17-2.11c-0.56-0.17-0.95-0.51-1.2-1.03c-1.85-5.28-6.22-2.11-9.39-2.63c-3.32-0.55-2.12,2.63-2.64,4.31
			c-1.94,6.23-2.63,12.66-2.94,19.15c-0.08,1.62-0.15,3.27-1.5,4.47c-0.88,0.3-1.75,0.29-2.61-0.08c-2.7-4.45-1.23-9.08-0.41-13.59
			c0.73-4.04,0.69-6.63-4.74-6.09c-3.57,0.36-7.18-1.01-10.87-0.95c-3.37,0.06-5.12,1.03-3.85,4.72c0.39,1.15,0.59,2.36,0.85,3.55
			c2.49,11.04,2.5,11.04,13.75,11.84c1.82,0.13,3.65,0.26,5.4,0.84c1.24,0.2,2.53-0.18,3.74,0.33c2.43,4.57-0.78,7.27-3.36,10.19
			c-1.09,0.21-1.95,0.14-1.57-1.35c2.13-4.54,1.6-6.8-4.31-6.19c-3.94,0.41-8.12,0.85-11.98-1.02c-4.39-2.13-2.98-6.87-4.44-10.29
			c-2.16-5.08-3.43-10.54-4.89-15.9c-0.59-2.16-0.49-4.44,1-6.61c-15.51-1.09-30.83-0.77-46.19,0.76
			c-7.26,0.72-14.64,0.12-21.96,0.35c-6.06,0.19-12.11,0.92-18.16,1c-2.88,0.04-2.85,1.81-2.89,3.53
			c-0.4,16.19-3.14,32.15-4.6,48.24c-0.27,2.99-0.61,6.01-1.31,8.92c-1.23,5.18-6.21,5.1-9.69,5.14
			c-14.62,0.16-29.03,2.77-43.69,2.94c-11.82,0.14-23.68,1.72-35.55,0.99c-10.21-0.63-14.9-5.57-16.08-15.72
			c-1.5-12.86-2.39-25.76-2.54-38.71c-0.05-4.23-0.92-8.45-1.04-12.69c-0.07-2.35-1.15-2.44-2.99-2.61
			c-14.99-1.4-30.02-1.16-45.97-1.11c4.15,8.12,7.83,15.97,12.13,23.46c2.37,4.11,3.67,8.14,3.85,12.89
			c0.57,15.23-2.71,30.16-3.21,45.26c-0.49,14.94-1.47,29.9,0.29,44.9c1.22,10.38,1.16,20.95,0.31,31.41
			c-0.46,5.7-8.8,8.92-15.16,5.92c-4.37-2.06-7.62-3.23-12.44,0.45c-4.05,3.09-10.35,3.56-15.25-0.38c-1.74-1.4-2.84-1.5-4.62-0.12
			C15.14,663.31,4.38,655,4.03,643.38c-0.64-21.43-0.7-42.85,3.16-64.17c1.41-7.82,2.24-16.02,1.59-24.17
			c-1.01-12.8,1.17-25.43,2.33-38.12c0.3-3.27,2.29-5.5,3.86-7.84c4.09-6.09,6.99-13.03,13.26-18.54
			c-10.26-2.18-19.74,1.41-29.25,0.54c0-0.81,0-1.63,0-2.44c9.57,0.51,19.06-0.92,28.6-1.21c5.27-0.16,4.69-5.17,6.68-8.02
			c0.39-0.56,0.1-1.59,0.13-2.4c0.16-4.55-1.28-10.34,0.99-13.28c1.94-2.52,8.26-0.5,12.44-2.55c2.2-1.08,5.72,3.94,4.77,7.5
			c-2.04,7.58,2,13.3,5.15,19.36c0.74,1.43,2.02,1.73,3.57,1.72c15.63-0.04,31.26-0.02,46.7-0.02c-0.66-12.4-2.37-24.65,1.32-36.23
			c2.6-8.16,8.57-14.83,15.83-19.87c6.67-4.63,13.4-9.17,20.06-13.8c2.15-1.5,2.89-3.62,2.83-6.31c-0.16-7.11-0.1-14.23-0.02-21.35
			c0.03-2.34-1.02-4.17-1.87-6.23c-0.85-2.06-3.11-5.86,2.3-6.03c0.79-0.03,1.96-0.05,1.84-1.01c-0.41-3.23,1.29-5.1,3.98-5.9
			c4.02-1.19,8.43,0.46,12.48-1.35c0.27-0.12,1.67,1.28,1.83,2.11c0.68,3.63,1.71,6.47,6.23,6.89c1.56,0.14,2.59,2.01,1.36,4.28
			c-2.2,4.09-1.74,8.38-0.31,12.73c0.81,2.45,1.44,5.13,1.37,7.68c-0.29,11.56,6.51,18,15.94,22.51
			c13.2,6.31,22.25,15.65,24.57,30.78c1.02,6.66,3.16,13.16,5.07,19.66c0.33,1.11,0.84,2.16,0.93,3.38c0.63,8.42,0.65,8.29,9.02,8.2
			c15.01-0.16,30.01-1.12,45.01-1.59c10.5-0.33,21.1-1.56,31.51-0.64c12.42,1.09,24.88,0.82,37.28,2.09c5.85,0.6,11.49-1.21,17.66-2
			c0,18.68-0.01,37.4,0,56.11c0.02,25.83-0.21,51.67,0.17,77.5c0.26,17.79,2.5,35.51,2.21,53.34c-0.2,11.8-0.02,11.76,11.73,11.76
			c37.02,0,74.05,0.02,111.07,0.06c1.41,0,2.82,0.21,4.23,0.32l0,0.56c-1.41,0.11-2.82,0.32-4.23,0.32
			c-150.18,0-300.35-0.01-450.53-0.03c-1.58,0-3.17-0.15-6.01-0.3c1.81-0.53,2.37-0.83,2.93-0.84c36.76-0.52,73.54-0.51,110.28-1.68
			c29.81-0.95,59.56,1.66,89.34,0.35c1.84-0.08,4.99,1.48,5.08-2.21c0.07-2.91-1.79-3.83-4.81-3.9
			c-39.55-0.94-79.09-3.94-118.66-2.18c-11.46,0.51-22.88-0.75-34.41,0.66c-7.4,0.91-15.23,0.28-22.86,0.21
			c-20.31-0.19-40.45,2.99-60.75,2.59c0-1.22,0-2.44,0-3.66c1.62-1.46,3.62-1.89,5.68-1.82c9.96,0.3,19.98,0.2,29.85-0.47
			c27.41-1.85,54.89,0.34,82.29-2.28c13.11-1.25,26.4-0.08,39.56,0.69c6.97,0.41,13.77-0.04,20.66-0.38
			c13.43-0.66,26.82,0.85,40.19,1.67c11.6,0.71,23.17,0.43,34.75,0.6c1.67,0.03,4.31,0.47,4.36-1.99c0.06-2.86-2.82-2.47-4.68-2.54
			c-8.12-0.31-16.24-0.51-24.36-0.96c-11.56-0.65-23.09-1.74-34.71-1.68c-48.01,0.24-96.02-0.01-144.03,0.11
			c-13.62,0.03-27.19,1.9-40.83,1.2c-3.02-0.16-6.16,0.31-8.73-1.91C-1.02,666.55-1.02,666.15-1.02,665.74z"/>
		<path class="st100" d="M1026.17,373.83c-8.55-5.61-17.54-2.45-26.47-1.43c-3.95,0.45-8.14,1.08-11.79-1.12
			c-2.55-1.54-4.96-1.32-7.54-0.61c-12.29,3.39-13.4,1.12-14.92-8.85c-0.36-2.39-0.57-4.8-0.87-7.36c14.32,0,28.92,0,43.8,0
			c0.01,1.99-1.88,2.63-2.92,3.85c-2.01,2.34-5.39,5.11-2.82,8.01c2.97,3.37,6.69,0.99,9.63-1.41c2.47-2.01,3.49-5.45,6.53-6.95
			c2.84,3.52,3.6,8.25,7.36,10.98C1026.17,370.57,1026.17,372.2,1026.17,373.83z"/>
		<path class="st10" d="M265.63,382.53c-14.87,11.64-32,12.22-49.64,10.06c-22.93-2.81-35.59-19.05-47.3-36.45
			c-1.43-2.13-2.65-4.4-3.96-6.61c0.51-0.64,1.07-0.69,1.69-0.16c7.44,10.4,14.39,21.08,24.44,29.45
			c9.84,8.19,21.14,11.26,33.43,12.11c13.28,0.92,25.86-1.28,37.39-8.3c0.61-0.37,1.58-0.17,2.38-0.23
			C264.63,381.85,265.15,381.89,265.63,382.53z"/>
		<path class="st242" d="M295.85,354.48c-7.4,7.78-14.5,15.88-23.13,22.4c-0.61-0.57-0.66-1.19-0.16-1.86
			c6.06-5.88,12.1-11.79,18.2-17.62c1.57-1.5,3.34-2.77,5.02-4.15c0.45,0.25,0.61,0.52,0.48,0.8
			C296.13,354.34,295.99,354.48,295.85,354.48z"/>
		<path class="st227" d="M166.4,349.37c-0.56,0.05-1.13,0.11-1.69,0.16c-4.37-5-7.28-10.83-9.48-17.04c-0.5-0.6-0.45-1.14,0.16-1.63
			C160.16,336.38,162.09,343.58,166.4,349.37z"/>
		<path class="st252" d="M295.85,354.48c-0.02-0.41-0.04-0.82-0.06-1.24c5.26-4.55,10.53-9.1,15.79-13.65
			c0.55-0.56,1.05-0.52,1.52,0.11C308.18,345.6,302.3,350.37,295.85,354.48z"/>
		<path class="st353" d="M272.56,375.02c0.05,0.62,0.11,1.24,0.16,1.86c-2.5,1.72-3.67,5.09-7.09,5.65
			c-0.53-0.05-1.05-0.09-1.58-0.14C266.89,379.93,269.72,377.48,272.56,375.02z"/>
		<path class="st274" d="M322.76,331.21c-1.03,3.05-4.09,4.02-6.16,6.01c-0.69,0.5-1.3,0.42-1.84-0.24c2.17-2.51,4.35-5,7.61-6.17
			C322.37,330.8,322.76,331.21,322.76,331.21z"/>
		<path class="st109" d="M152.7,327.89c-1.52-2.45-3.03-4.91-5.25-8.5c4.37,1.63,5.02,4.12,5.43,6.79
			C153.45,326.82,153.39,327.39,152.7,327.89z"/>
		<path class="st318" d="M152.7,327.89c0.06-0.57,0.12-1.14,0.18-1.71c1.44,1.24,2.79,2.52,2.52,4.68
			c-0.05,0.54-0.11,1.08-0.16,1.63C153.81,331.28,152.81,329.83,152.7,327.89z"/>
		<path class="st433" d="M314.76,336.97c0.61,0.08,1.23,0.16,1.84,0.24c-0.97,1.1-1.35,3.04-3.5,2.49
			c-0.51-0.04-1.01-0.07-1.52-0.11C312.5,338.55,312.82,336.78,314.76,336.97z"/>
		<path class="st121" d="M687.86,48.99c24.54-18.35,49.38-36.26,75.24-52.71c12.91-8.21,25.74-16.61,39.11-24.01
			c6.27-3.47,7.42-6.56,3.09-11.97c1.46-0.42,2.32-1.07,3.59,0.76c3.5,5.03,5.09,4.75,8.6-0.72c0.07-0.1,0.39-0.16,0.5-0.09
			c0.3,0.2,0.56,0.47,0.83,0.72c0.71,0.68,1.32,1.41,1.28,2.48c0.97-0.84-0.15-1.72,0.07-2.58c4.62-3.07,3.94,2.11,5.19,3.66
			c1.67,2.06-0.25,2.51-2.1,2.71c-17.68,1.95-30.39,13.93-44.81,22.41c-17.08,10.05-34.02,20.38-49.77,32.46
			c-11.58,8.88-24.4,16.03-35.43,25.67c-1.17,1.03-2.72,1.63-4.09,2.43C687.84,50.75,687.61,50.12,687.86,48.99z"/>
		<path class="st36" d="M598.65,13.22c-0.38-0.3-0.77-0.6-1.15-0.91c11.98-5.75,24.98-8.69,37.36-13.35
			c8.07-3.04,16.55-5.01,24.84-7.46c1.27-0.72,1.32,0.03,1.2,0.99C640.15-0.59,619.4,6.31,598.65,13.22z"/>
		<path class="st144" d="M118.69-9.7c0.32-0.39,0.64-0.78,0.96-1.17c10.78,10.94,21.56,21.88,32.33,32.82
			c-0.46,0.63-0.96,0.66-1.5,0.11C139.11,12.24,128.73,1.43,118.69-9.7z"/>
		<path class="st434" d="M216.38,80.7c-9.97-8.42-20.38-16.36-29.23-26.05c0.06-0.77,0.15-1.5,1.21-0.85
			c9.56,9.19,20.46,16.92,29.3,26.88C217.24,81.23,216.81,81.21,216.38,80.7z"/>
		<path class="st260" d="M188.35,53.81c-0.4,0.28-0.81,0.57-1.21,0.85c-8.69-6.61-16.41-14.31-24.49-21.61
			c-0.56-0.53-0.53-1.02,0.08-1.49c5.4,2.11,8.25,7.34,12.89,10.51C180.35,45.28,184.15,49.84,188.35,53.81z"/>
		<path class="st227" d="M687.86,48.99c0.43,0.4,0.86,0.81,1.3,1.21c-4.93,3.57-9.86,7.13-14.79,10.7
			c-0.41-0.33-0.83-0.66-1.24-0.99C677.38,55.37,682.76,52.37,687.86,48.99z"/>
		<path class="st54" d="M162.74,31.56c-0.03,0.5-0.05,0.99-0.08,1.49c-4.06-3.66-8.12-7.33-12.18-10.99c0.5-0.03,1-0.07,1.5-0.11
			C156.75,23.82,159.31,28.18,162.74,31.56z"/>
		<path class="st306" d="M216.38,80.7c0.43-0.01,0.85-0.01,1.28-0.02c1.81-0.13,3.15,0.18,2.28,2.49c0,0,0.14-0.11,0.14-0.11
			C217.86,83.82,217.3,81.98,216.38,80.7z"/>
		<path class="st153" d="M560.09,146.87c-0.57-0.07-1.14-0.15-1.71-0.22c-0.53-1.79,0.84-2.66,1.92-3.42
			c10.62-7.45,20.3-16.19,31.41-22.96c1.04-0.64,2.12-1.2,3.42-1.09c0.92,0.33,1.64,0.77,1.17,1.93
			c-10.5,7.76-20.98,15.55-31.53,23.26C563.36,145.42,561.66,146.05,560.09,146.87z"/>
		<path class="st238" d="M721.97,110.04c0.52-0.05,1.04-0.11,1.55-0.16c1.63-8.08,4.87-15.56,8.49-22.9c0.69-1.4,1.49-2.9,3.47-2.84
			c0.55,0.51,0.58,1.04,0.09,1.61c-3.49,8.03-5.07,16.79-9.37,24.5c-0.7,1.26-0.09,3.64-2.45,3.57
			C720.96,113.74,724.05,110.62,721.97,110.04z"/>
		<path class="st230" d="M596.3,121.12c-0.46-0.46-0.91-0.92-1.37-1.38c1.95-5.1,5.85-7.68,11.06-8.56
			c0.41,0.42,0.83,0.85,1.24,1.27C604.17,116.08,599.79,118.04,596.3,121.12z"/>
		<path class="st435" d="M735.57,85.75c-0.1-0.65-0.2-1.3-0.3-1.95c-0.74-1.57-1-2.94,1.34-3.24c0.33,0.41,0.66,0.82,0.99,1.23
			C736.74,83.01,737.3,84.96,735.57,85.75z"/>
		<path class="st100" d="M204.2,100.24c-0.32-1.97,0.65-4.03-1.14-7.31c-4.08,15.62-7.87,30.14-11.83,45.32
			c-4.72-7.64-9.26-14.97-13.77-22.31c-2.9-4.73-5.78-9.48-8.63-14.24c-1.41-2.37-1.92-4.53,1.89-4.91
			c12.37-1.24,24.74-2.44,37.12-3.66C206.62,95.5,205.41,97.87,204.2,100.24z"/>
		<path class="st126" d="M250.59,562.15c0.31,0.88,2.36,1.23,1.48,2.09c-1.41,1.38-4.04,1.84-5.46,0.9
			c-5.21-3.42-8.65-8.67-12.46-13.47c-1.2-1.51,1.48-2.02,1.84-3.3c3.81,0.51,3.74,4.34,5.49,6.24c-2-4.32-5.04-8.39-7.34-12.89
			c-1.83-3.58-0.64-5.45,3.21-5.65c5.87-0.31,11.74-0.1,17.6-1.09c3.26-0.55,5.2,1.19,4.05,4.68c-1.37,4.18-1.28,8.44-1.02,12.67
			c0.33,5.37-1.39,8.7-7.18,9.01c-0.13,0.01-0.36,0.15-0.37,0.24C250.42,561.76,250.53,561.95,250.59,562.15z"/>
		<path class="st144" d="M280.65,532.6c-2.66,0.73-4.17-0.68-5.65-3.38c-4.24-7.76-5.36-16.67-9.45-24.49
			c-1.61-3.08,0.42-5.75,3.37-7.54c4.5-2.72,24.43-1.92,28.5,1.32c1.22,0.97,1.52,2.64,0.9,3.82c-4.05,7.65-2.45,15.9-2.34,23.86
			c0.07,4.85-1.72,5.91-5.83,5.86C287.12,532,284.08,532.38,280.65,532.6z"/>
		<path class="st36" d="M283.39,552.35c4.35-1.95,7.36,2.41,11.46,2.43c1.55,0,2.64,2.14,2.17,3.84c-2.58,9.3-3.36,18.89-4.72,28.38
			c-0.36,2.54-0.64,4.05-3.49,2.02c-0.5-0.36-1.57,0.02-2.37,0.12c-9.79,1.33-9.9,1.37-13.27-7.33c-2.58-6.67-4.6-13.55-7.3-20.17
			c-1.49-3.64-0.05-5.94,2.9-6.61C273.58,553.93,278.12,551.13,283.39,552.35z"/>
		<path class="st121" d="M101.57,570.47c3.8,0,6.26-0.18,8.68,0.04c5.87,0.52,9.4,5.16,7.43,10.56c-2.5,6.84-0.26,14.11-2.6,20.91
			c-1.04,3.01-0.96,6.81-5.64,6.34c-4.93-0.49-11.64,5.22-14.01-4.35c-2.23-9.05-5.09-17.92-9.35-26.3
			c-1.7-3.34,0.81-4.97,3.66-5.98C94.04,570.16,98.49,570.43,101.57,570.47z"/>
		<path class="st436" d="M250.59,562.15c-1.12-0.18-2.24-0.35-4.34-0.68c10.2-1.75,10.34-1.75,10.29-11.4
			c-0.02-4.53,1.26-8.78,1.95-13.78c-8.06,0.6-16.07,1.57-24.56,1.14c2.84,8.48,9.1,15.06,11.39,23.49
			c-4.36-3.35-5.82-8.69-9.34-12.54c-1.27-4.26-3.86-7.85-6.29-11.43c-2.05-3.03-1.19-4.85,1.51-6.32
			c9.08-4.96,18.54-3.74,27.89-1.16c1.88,0.52,3.3,2.45,2.27,5.39c-2,5.69-2.36,11.69-2.24,17.75
			C259.27,560.92,259.14,560.93,250.59,562.15z"/>
		<path class="st36" d="M146.96,620.56c-4.94,1.26-8.5-0.43-10.3-6.94c-1.94-7.01-5.12-13.72-8.18-20.37
			c-1.46-3.16-0.74-4.55,2.22-5.74c4.48-1.8,9.1-1.25,13.71-1.25c2.84,0,5.67,0.01,8.51,0.1c6.3,0.21,9.74,3.55,8.31,9.42
			c-1.44,5.92-1.67,11.88-1.88,17.8c-0.2,5.58-2.23,7.81-7.71,7C150.44,620.41,149.21,620.56,146.96,620.56z"/>
		<path class="st10" d="M176.01,643.79c-4.63,0.41-6.64-1.42-6.13-6.31c1.46-14.17-0.37-28.53,2.33-42.65
			c0.23-1.18,0.49-2.61,0.04-3.61c-2.93-6.58,1.5-8.71,6.18-11.12c5.45-2.8,10.83-5.82,15.96-9.16c4.93-3.21,9.37-3.38,13.81,0.61
			c-0.34,0.48-0.8,0.82-1.35,1.02c-5.33-1.04-9.88,0.84-14.24,3.69c-4.06,2.66-8.27,5.06-12.67,6.84c-0.47,2.41,2.53,2.05,2.51,3.84
			c-0.33,0.97-1.08,1.46-1.98,1.8c-2.5,0.48-3.74,1.79-3.96,4.51c-1.01,12.69-3,25.3-2.48,38.12c0.16,3.98,0.62,7.63,3.31,10.72
			C177.64,643.23,177.54,644.08,176.01,643.79z"/>
		<path class="st114" d="M273.94,643.8c-0.56-0.06-1.12-0.12-1.68-0.18c3.89-10.59,10.83-19.45,16.51-29.03
			c8.48-14.3,16.98-28.6,25.46-42.89c0.58-0.37,1.08-0.29,1.51,0.24c0.95,3.38-1.18,5.88-2.62,8.46
			c-11.68,20.97-24.73,41.12-36.85,61.83C275.75,643.14,275.16,643.94,273.94,643.8z"/>
		<path class="st437" d="M236.09,583.37c7.17,3.29,15.6,4.32,20.55,11.55c0,0,0.13-0.09,0.13-0.09c-0.6,0.58-1.4,1.07-2.14,0.7
			c-6.51-3.24-13.44-5.71-19.11-10.46C235.4,584.4,235.6,583.83,236.09,583.37z"/>
		<path class="st108" d="M337.29,530.12c0.28,0.42,0.55,0.83,0.83,1.25c0.51,0.37,0.95,0.98,0.66,1.49
			c-3.16,5.58-4.99,12.07-10.73,15.92c-0.25-0.17-0.5-0.34-0.74-0.51C328.87,541.25,333.47,535.9,337.29,530.12z"/>
		<path class="st36" d="M318.99,563.16c2.59-5.07,4.31-10.62,8.32-14.89c0.16,0.2,0.35,0.37,0.58,0.49
			c0.63,6.74-3.52,11.24-7.43,15.84C319.43,564.66,318.59,564.54,318.99,563.16z"/>
		<path class="st0" d="M214.21,573.77c4.9,1.22,9.35,3.36,13.36,6.41c-0.38,0.46-0.86,0.78-1.44,0.95
			c-4.83-0.42-8.82-2.62-12.34-5.83C213.6,574.7,213.74,574.19,214.21,573.77z"/>
		<path class="st88" d="M318.99,563.16c0.33,0.4,0.66,0.79,0.98,1.19c0.87,3.8-0.52,6.31-4.27,7.47c-0.49-0.04-0.99-0.08-1.48-0.11
			C315.82,568.86,317.4,566.01,318.99,563.16z"/>
		<path class="st438" d="M226.04,580.29c0.51-0.04,1.02-0.08,1.53-0.12c3.29-0.13,6.03,1.19,8.52,3.19
			c-0.05,0.49-0.09,0.97-0.14,1.46C231.63,585.53,228.24,584.22,226.04,580.29z"/>
		<path class="st215" d="M206.67,571.68c0.52-0.04,1.03-0.09,1.55-0.13c2.34-0.18,4.23,0.84,6,2.22c-0.07,0.3-0.25,0.52-0.53,0.65
			C210.56,575.5,207.84,575.57,206.67,571.68z"/>
		<path class="st11" d="M371.57,291.87c-4.93,1.8-8.64,5.46-12.7,8.55c-3.28,2.49-6.55,4.04-10.89,3.88
			c-8.74-0.32-17.5-0.22-26.25-0.05c-12.12,0.22-24.2,1.39-36.29,1.97c-6.72,0.32-13.54,0.49-20.28,0.31
			c-20.13-0.54-40.2,1.97-60.31,1.26c-12.22-0.43-43.84,2.57-56.02,2.74c-5.86,0.08-7.8-2.91-9.34-7.24
			c-6.26-17.58,7.29-27.56,7.53-55.4c1.32-13.37,10.29-26.63,15.22-39.4c3.17-8.2,10.55-9.7,16.89-12.94
			c18.67-9.54,37.93-17.82,57.05-26.39c15.72-7.05,31.17-14.69,46.74-22.05c6.82-3.22,10.63-2.62,15.34,2.75
			c9.84,11.21,21.44,20.45,32.98,29.77c5.17,1.27,8.51,5.27,12.17,8.6c4.62,4.19,9.33,8.27,14.02,12.38
			c4.77,3.43,9.26,7.21,13.8,10.93c15.7,13.76,32.69,25.95,48.5,39.57c2.28,3.77-1.1,5.08-3.14,6.68
			c-10.52,8.27-21.09,16.48-31.79,24.52c-2.44,1.83-4.76,3.79-6.95,5.9c-0.41,0.38-0.86,0.7-1.32,1.01
			c-1.42,0.8-2.68,1.87-4.17,2.55C372.11,291.79,371.84,291.83,371.57,291.87z"/>
		<path class="st11" d="M510.9,184.58c0.2-0.04,0.48-0.02,0.58-0.14c6.7-7.97,13.74-4.69,20.85-0.7
			c26.16,14.7,52.2,29.61,78.52,44.01c23.33,12.76,47.22,24.51,70.39,37.53c15.17,8.53,31.33,15.22,45.86,24.94
			c3.78,2.53,8.58,3.44,13.53,7.73c-13.18,0.5-24.76,0.86-36.33,1.39c-22.45,1.03-44.98,0.18-67.36,1.54
			c-16.8,1.02-33.66,1.34-50.37,1.43c-20.21,0.11-40.5-0.65-60.74-0.34c-12.57,0.2-25.18,0.64-37.75,1.39
			c-5.31,0.32-7.33-3.86-10.34-6.22c-17.7-13.88-34.99-28.28-52.44-42.49c-0.87-0.71-1.3-1.47-1.12-2.56
			c3.4-5.84,9.26-9.06,14.31-13.03c21.84-17.2,43.84-34.19,66.07-50.89C506.54,186.69,508.77,185.75,510.9,184.58z"/>
		<path class="st11" d="M486.6,305.74c11.06-0.55,20.99-1.4,30.93-1.46c31.93-0.18,63.9,0.91,95.78-0.36
			c28.59-1.14,57.18-1.54,85.75-2.57c12.89-0.46,25.91,0.38,38.79-1.7c6.74-1.09,12.66,4.98,13.45,12.87
			c0.28,2.82,0.41,5.75-0.04,8.52c-0.64,3.88-0.49,8.57-7.03,7.79c-2.76-0.33-4.66,1.24-4.08,5.28c2.24,15.59-6.48,27-15.77,37.86
			c-9.83,11.5-21.7,20.64-35.52,26.76c-8.74,3.87-18.4,5.19-27.82,6.77c-15.91,2.68-31.78,0.93-47.65-1.04
			c-10.04-1.25-18.07-6.27-25.33-12.65c-13.36-11.75-27.72-22.23-41.84-32.99c-9.17-6.99-17.21-15.18-25.9-22.67
			C509.15,326.52,498.4,316.41,486.6,305.74z"/>
		<path class="st11" d="M423.94,250.24c-0.79,0.48-1.57,0.97-2.36,1.45c-0.9-0.06-1.59-0.55-2.24-1.12
			c-16.24-12.63-32.63-25.06-48.12-38.63c-4.65-3.58-9.06-7.45-13.73-11.01c-8.65-7.11-17-14.56-25.1-22.29
			c-12.63-11.53-25.6-22.7-38.05-35.53c7.07-3.08,13.97-5.9,20.72-9.05c23.35-10.89,47.32-20.44,70.15-32.45
			c2.42-1.28,3.68-0.82,5.83,0.54c33.97,21.47,68.78,41.54,103.53,61.71c7.59,4.4,15.46,8.2,23.5,12.64
			c-2.69,3.52-6.69,5.26-9.79,8.03c-0.78,2.81-3.32,4.05-5.35,5.56c-25.19,18.66-49.98,37.82-74.32,57.57
			C427.21,248.79,425.94,250.16,423.94,250.24z"/>
		<path class="st11" d="M605.99,111.18c-3.69,2.85-7.38,5.71-11.06,8.56c-12.71,8.25-24.6,17.62-36.55,26.91
			c-11.63,8.61-23.37,17.06-34.79,25.94c-2.62,2.04-4.16,1.85-6.79,0.51c-20.73-10.54-40.95-22.01-60.65-34.31
			c-17.67-11.03-36.35-20.36-53.51-32.24c-3.7-2.56-7.72-4.66-12.3-7.39c8.09-3.84,15.5-7.69,23.17-10.94
			c24.55-10.42,49.18-20.61,73.79-30.9c1.84-0.77,3.47-2.96,5.32,0.56c1.27,2.43,2.78-0.31,3.67-1.18
			c8.56-8.28,19.8-11.31,30.32-15.77c3.25-1.38,3.76-0.05,3.79,2.87c0.09,9.32-2.59,18.28-3.36,27.49
			c-0.17,2.05-1.12,4.16,1.15,5.41c2.31,1.27,3.66-0.6,5.07-2.06c10.45-10.82,21.37-21.15,32.62-31.14c1.51-1.34,3.4-3.34,4.91-2.59
			c2.15,1.05,0.49,3.5,0.17,5.39c-1.05,6.29,0.37,12.5,0.7,18.75c0.5,9.52,0.13,19.09,0.13,28.62c2.94,0.96,3.74-1.45,4.91-2.81
			c10.35-12.04,20.59-24.17,30.89-36.25c0.61-0.71,0.89-2.04,2.17-1.78c1.54,0.31,1.36,1.67,1.51,2.87
			c0.95,7.74,3.53,15.27,3.28,23.16c-0.18,5.7,0.67,11.3,2.64,16.5c1.64,4.32,1.36,7.01-2.78,9.42
			C611.38,106.55,608.78,109.02,605.99,111.18z"/>
		<path class="st11" d="M401.81,79.16c-2.93-18.11-2.11-36.46-2.24-54.78c-0.02-3.4,0.56-3.67,4.16-2.78
			c15.32,3.78,29.71,9.92,44.45,16.59c1.05-5.51-2.03-9.62-3.31-13.92c-2.91-9.8-4.62-19.76-6.1-29.81
			c-0.23-1.57,0.11-2.76,1.42-3.67c7.55-5.27,13.58-12.11,18.99-19.4c2.06-2.78,2.49-0.99,3.82,0.18
			c6.92,6.05,13.69,12.29,21.29,17.52c2.55,1.75,3.04,4.25,3.54,7.56c1.91,12.55-0.33,25.35,3.03,37.85c1.43,5.32,0.9,11.41,0.13,17
			c-0.58,4.21-5.71,4.36-8.77,5.65c-30.45,12.82-61.29,24.7-90.93,39.38c-1.92,0.95-3.51,1.2-5.35,0
			c-8.68-5.62-17.34-11.3-26.15-16.7c-1.95-1.2-3.01-2.23-2.96-4.6c0.14-7.32,0.32-14.66,0.06-21.98c-0.16-4.47,3.02-5.61,5.9-7.34
			c3.19-1.92,3.7,1.43,5.19,2.62c11.2,8.96,20.82,19.59,30.97,29.67C399.68,78.92,400.34,79.67,401.81,79.16z"/>
		<path class="st11" d="M743.33,334.01c6.19,7.79,13.78,14.18,19.29,22.58c3.85,5.86,9.81,10.29,14.5,15.65
			c6.19,7.08,12.09,14.42,18.04,21.71c0.72,0.88,1.34,2.19,1.32,3.29c-0.41,17.11,3.5,34.08,2.28,51.14
			c-1.04,14.62-1.06,29.21-0.87,43.81c0.14,10.91,2.09,21.83,1.9,32.72c-0.23,12.91-0.82,25.84-0.8,40.03
			c-9.57-10.2-18.47-19.53-27.87-28.37c-7.76-7.3-15.1-15.03-22.77-22.43c-2.03-1.96-3.07-3.96-3.12-6.84
			c-0.3-17.05-0.21-34.14-1.43-51.13c-0.59-8.21-0.32-16.51-1.87-24.7c-0.98-5.18,2.06-10.1,1.95-15.51
			c-0.32-15.65,0.83-31.36-0.1-46.96C743.09,357.43,743.07,345.89,743.33,334.01z"/>
		<path class="st11" d="M356.33,103.7c0-7.36,0-14.72,0-23.35c10.21,6.45,19.45,12.29,29.28,18.5
			c-16.63,8.94-33.21,16.36-49.97,23.41c-12.47,5.24-24.83,10.77-37.16,16.36c-4.39,1.99-7.52,2.35-11.78-1.44
			c-10.65-9.47-22.04-18.13-33.35-26.83c-2.96-2.28-4.59-4.21-4.16-8.31c0.43-4.18,1.75-8.21,1.56-12.53
			c-0.25-5.86,4.87-6.55,8.92-8.32c3.98-1.73,5.42,1.39,7.53,3.34c11.74,10.81,20.66,24.15,31.7,35.6c1.43,1.49,2.41,2.58,4.21,2.04
			c2.21-0.66,1.15-2.77,1.16-4.19c0.13-14.03,0.21-28.06,0.15-42.09c-0.02-4.99,1.03-8.91,6.85-9.66c1.27-0.16,2.15,0.08,3.29,0.84
			c13.74,9.19,26.47,19.55,37.77,31.65c1.36,1.45,2.61,2.86,2.07,5.36C355.05,103.97,355.69,103.83,356.33,103.7z"/>
		<path class="st11" d="M422.77,254.98c19.51,16.04,39.02,32.09,59.96,49.31c-14.46-0.43-27.35,1.2-40.03-1.47
			c-8.62-1.82-17.19-0.77-25.71-0.53c-19.4,0.56-38.78,2.21-59.22,1.87c4.35-5.21,11.21-6.49,13.8-12.29c0,0-0.16,0.2-0.16,0.2
			c1.72-1.23,3.54-2.31,5.06-3.8l-0.17,0.15c13.25-10.38,26.7-20.49,40.04-30.74C418.2,256.25,419.88,254.09,422.77,254.98z"/>
		<path class="st11" d="M529.23,21.35c-9.12,9.1-18.06,17.9-26.82,26.88c-1.56,1.6-3.54,1.67-5.26,2.59
			c-2.64,1.41-3.53,0.29-3.53-2.5c-0.03-16.72-2.67-33.26-3.61-49.91C489.94-2.75,490-3.91,490-6.22
			C503.55,3.3,516.29,12.26,529.23,21.35z"/>
		<path class="st100" d="M841.39,116.64c-11.82-14.48-18.9-31.51-29.95-46.69c11.06-0.93,21.47-1.72,31.87-2.73
			c3.78-0.37,4.88,0.74,4.43,4.65c-1.33,11.73-2.84,23.43-4.66,35.1C842.58,110.13,840.44,113.03,841.39,116.64z"/>
		<path class="st100" d="M857.72,66.32c12.23-1.85,23.54-5.98,34.71-10.32c4.31-1.67,4.66-0.22,4.23,3.03
			c-1.28,9.7-2.35,19.45-4.26,29.03c-1.02,5.11,0.87,10.61-2.62,15.82C879.17,91.45,868.61,79.08,857.72,66.32z"/>
		<path class="st100" d="M912.45,48.85c11.43-4.86,22.43-9.53,33.42-14.23c1.81-0.77,3.31-1.9,3.58,1.61
			c0.29,3.73,2.15,7.41,2.08,11.09c-0.22,11.09,0.71,21.99,4.67,34.34C940.72,70.06,926.71,59.54,912.45,48.85z"/>
		<path class="st100" d="M799.8,70.76c-8.49,16.43-12.44,33.37-21.11,49.1c-3.73-14.49-9.41-27.43-16.01-40.03
			c-2.88-5.49-2.11-6.14,3.98-6.51C777.3,72.67,787.93,71.69,799.8,70.76z"/>
		<path class="st11" d="M301.93,118.92c-13.22-12.51-22.48-27.07-35.31-38.61c10.28-5.45,21.98-5.13,32.08-10.04
			c3.03-1.47,3.58-0.7,3.44,3.12C301.62,88.15,301.93,102.93,301.93,118.92z"/>
		<path class="st100" d="M747.89,299.64c11.52-1.46,22.35,1.57,33.3,0.9c3.01-0.18,3.1,1.5,3.16,3.77
			c0.18,6.83-1.93,13.64-0.12,20.51c0.68,2.58-0.93,2.65-3.12,2.69c-8.28,0.15-16.61-0.92-24.85,0.86
			c-2.18,0.47-4.58,0.03-3.59-2.93C755.79,316.06,753.05,307.86,747.89,299.64z"/>
		<path class="st343" d="M131.56,146.51c-5.54-16.37-11.09-32.74-16.98-50.14c11.08,1.14,21.46,1.62,31.85,1.55
			c3.51-0.02,1.57,3.18,1.18,4.42c-2.08,6.6-5.09,12.95-6.79,19.63C138.72,130.23,135.2,137.98,131.56,146.51z"/>
		<path class="st299" d="M647.49,60.28c-4.2,7.34-8.59,14.05-11.98,21.23c-3.47,7.32-6.76,14.49-14.58,18.12
			c-3.73-9.25-3.99-19.34-4.98-29.23c-0.44-4.37-1.97-8.58-1.5-13.12c0.29-2.78,0.09-3.74,3.65-2.87
			C627.57,56.73,637.23,58.28,647.49,60.28z"/>
		<path class="st100" d="M960.3,27.61c10.98-7.81,21.34-15.18,32.36-23.02c5,12.75,10.52,25.14,16.97,37.08
			c0.59,1.09,1.25,2.36,0.07,3.26c-1.01,0.77-2.17,0.22-3.32-0.41c-8.71-4.81-18.33-7.41-27.53-11
			C973.14,31.28,967.15,29.76,960.3,27.61z"/>
		<path class="st343" d="M36.34,128.7c-2.45-15.79-9.24-30.18-13.29-45.34c-0.76-2.84-1.16-4.75,2.29-3.77
			c9.19,2.6,18.59,4.15,27.87,6.28c2.18,0.5,3.49,1,2.24,4.6C50.71,104.02,42.53,115.73,36.34,128.7z"/>
		<path class="st100" d="M574.54,88.44c1.69-15.68-3.06-31.15-0.7-46.88c11.45,3.25,21.37,8.08,32.76,10.44
			C596.38,64.97,585.86,76.86,574.54,88.44z"/>
		<path class="st343" d="M736.61,80.55c-1.47,0.66-1.29,1.99-1.34,3.24c-3.7,5.84-5.93,12.37-8.19,18.8
			c-0.93,2.65-1.88,5.09-3.56,7.28c-8.66-12.89-14.08-27.5-22.22-41.19c13.39,0.85,26.26,1.67,39.42,2.5
			C739.89,74.53,736.92,77.01,736.61,80.55z"/>
		<path class="st100" d="M445.56,34.05c-13.66-5.5-25.72-10.9-38.74-13.5c-1.87-0.37-3.35-1.32-0.41-3.84
			c8.48-7.24,17.79-13.3,26.58-20.08c3.54-2.73,4.13-0.43,4.44,2.3C438.74,10.38,440.59,21.7,445.56,34.05z"/>
		<path class="st100" d="M396.9,23.55c1.06,16.8-1.18,33.06,1.85,50.27c-7.92-7.43-15.04-14.11-22.16-20.8
			c-2.29-2.15-4.51-4.37-6.87-6.43c-2.74-2.39-2.18-3.59,1.01-5.06C380.25,37.18,387.88,29.99,396.9,23.55z"/>
		<path class="st100" d="M102.33,94.3c-7.98,14.51-15.66,28.49-23.34,42.47c-2.43-15.63-6.98-30.87-5.18-47.13
			C83.3,91.19,92.79,92.74,102.33,94.3z"/>
		<path class="st100" d="M529.28,74.77c1.24-11.24,2.22-21.38,3.56-31.48c0.37-2.8,1.72-4.81,4.69-6.82
			c10.94-7.41,19.66-0.38,29.61,2.94C553.88,50.61,541.81,62.31,529.28,74.77z"/>
		<path class="st100" d="M690.6,67.72c-5.7,12.27-8.41,25.6-16.21,37.64c-5-10.84-7.86-21.68-11.63-32.18
			c-1.13-3.16,5.69-8.8,10.18-8.3C678.7,65.53,684.41,66.7,690.6,67.72z"/>
		<path class="st126" d="M315.76,65.79c6.44-4.18,11.36-4.76,16.92-0.35c5.11,4.05,10.98,7.21,16.74,10.34
			c3.76,2.04,5.52,4.5,5.06,8.88c-0.39,3.72-0.08,7.51-0.78,11.77C343.24,83.64,329.66,74.87,315.76,65.79z"/>
		<path class="st155" d="M243.15,102.57c2.73,3.11,3.06,6.45,1.92,10.47c-1.36,4.77-1.93,9.76-3.06,15.79
			c-8.06-13.06-14.78-25.7-23.44-37.11c5.66-3.56,9.83-2.15,13.36,2.63c0.92,1.24,2.03,2.61,3.96,2.34
			c3.06,0.71,4.58,3.44,6.86,5.19C242.9,102.1,243.02,102.33,243.15,102.57z"/>
		<path class="st126" d="M355.49,50.11c-1.82,8.69-0.71,16.95-1.27,26.02c-8.63-5.3-16.79-10.32-25.18-15.47
			C337.85,57.14,346.2,53.82,355.49,50.11z"/>
		<path class="st80" d="M635.13,87.04c4.14-7.4,8.46-14.7,12.32-22.24c1.34-2.63,2.58-3.97,5.67-3.72c2.64,0.22,3.81,1.47,4.72,3.77
			c1.15,2.89,1.37,5.91-0.98,7.77c-6.79,5.36-13.92,10.29-20.91,15.39C635.67,87.69,635.4,87.37,635.13,87.04z"/>
		<path class="st228" d="M423.94,250.24c27.39-22.85,56-44.11,84.35-65.73c0.87,0.02,1.74,0.04,2.61,0.06
			c-8.2,8.11-18.09,14.09-27.06,21.23c-19.4,15.44-39.62,29.84-58.49,45.97c-0.28,0.24-0.77,0.22-1.16,0.32
			C424.1,251.48,424.02,250.86,423.94,250.24z"/>
		<path class="st127" d="M235.96,95.28c-2.35-2.05-4.71-4.1-7.9-6.89c7.73-0.44,14.3-2.03,20.9-4.04c1.62,6.39-2.25,11.87-2.24,17.9
			c0.01,2.58-2.39-0.57-3.57,0.32c0,0,0.2,0.19,0.2,0.19C240.69,100.46,237.78,98.41,235.96,95.28z"/>
		<path class="st443" d="M845.57,373.6c-4.95,1.01-7.13-0.48-7.66-5.23c-0.34-2.99-2.57-5.72-3.21-8.72
			c-0.35-1.63-3.26-3.87-0.48-5.06c2.14-0.91,6.02-1.55,7.33,0.53c3.36,5.32,6.52,11,8.31,16.97
			C850.85,375.41,846.56,372.82,845.57,373.6z"/>
		<path class="st81" d="M510.61,44.07c6.69-6.7,12.88-12.99,19.23-19.11c0.54-0.52,1.57-1.9,2.9-0.96c1.13,0.79,0.09,1.71,0.14,2.53
			c0.51,8.1-3.3,12.54-11.15,13.91C518.11,41.07,515.2,43.98,510.61,44.07z"/>
		<path class="st252" d="M422.77,254.98c-8.39,4.56-15.27,11.21-23.01,16.65c-7.86,5.53-14.67,12.54-23.45,16.78
			c6.06-7.89,14.95-12.35,22.45-18.5c6.1-4.99,12.4-9.73,18.66-14.53c1.26-0.97,2.87-1.63,1.58-3.64c0.17-0.72,0.63-1.12,1.35-1.25
			c0.41,0.4,0.82,0.79,1.23,1.19C421.98,252.79,422.37,253.88,422.77,254.98z"/>
		<path class="st143" d="M332.39,178.64c9.49,6.13,17.02,14.6,25.71,21.68c0.27,1.19-0.01,1.81-1.37,1.34
			c-8.49-7.35-16.98-14.71-25.47-22.06C331.64,179.28,332.02,178.96,332.39,178.64z"/>
		<path class="st16" d="M830.06,354.85c-4.08,3.8-7.49,6.97-10.89,10.16c-0.87,0.82-1.53,1.73-3.02,0.78
			c-2.11-1.34-0.26-2.88,0.17-3.36C819.64,358.71,821.84,353.01,830.06,354.85z"/>
		<path class="st75" d="M546.64,31.71c-5.32-0.35-8.33,3.05-12.37,3.23c-0.92-2.96-0.77-7.57,1.26-8.2
			C538.86,25.7,541.99,29.26,546.64,31.71z"/>
		<path class="st15" d="M989.18,375.53c-6.27,0.51-12.71,4.19-19-0.8C980.34,372.48,983.3,372.55,989.18,375.53z"/>
		<path class="st159" d="M666.59,63.85c-1.34,1.74-2.47,3.59-4.67,4.32C660.16,63.44,660.16,63.44,666.59,63.85z"/>
		<path class="st396" d="M235.96,95.28c2.55,2.41,6.06,3.87,7.39,7.49c-3.9-0.29-5.28-3.67-7.45-6.08
			C235.92,96.21,235.94,95.74,235.96,95.28z"/>
		<path class="st192" d="M625.15,99.55c-0.48,3.16-1.43,5.12-3.9,6.13C619.94,102.23,622.52,101.33,625.15,99.55z"/>
		<path class="st377" d="M961.66,357.21c2.12,2.19,2.79,4.54,1.88,7.61C961.51,362.52,960.7,360.2,961.66,357.21z"/>
		<path class="st11" d="M346.62,539.37c-0.46,13.94,1.42,27.75,1.05,41.7c-0.81,31.09-0.71,62.21-0.48,93.31
			c0.09,12.14,0.68,12.42-10.77,11.71c-22.33-1.38-44.67-0.49-67-0.89c-2.17-0.04-5.19,1.51-6.44-1.25
			c-1.17-2.6,0.98-4.58,2.38-6.87c7.04-11.59,13.53-23.51,20.38-35.22c10.21-17.47,20.67-34.79,30.8-52.31
			C326.26,572.75,337.8,557.01,346.62,539.37z"/>
		<path class="st11" d="M144.84,517.96c-9.24-0.87-18.59,1.32-27.82-1.17c-3.51-0.94-4.75-2.53-4.52-6.21
			c0.68-11.16-3.2-21.99-2.51-33.24c0.23-3.73,0.96-4.79,4.75-4.65c11.56,0.43,23.07,1.68,34.68,1.38
			c21.32-0.56,42.41-2.35,62.98-8.47c1.41-0.42,4.22-2.52,5.11,1.29c2.81,11.96,4.22,23.9,3.23,36.33
			c-0.62,7.77-6.21,7.49-10.48,8.44C188.74,516.43,166.94,518.82,144.84,517.96z"/>
		<path class="st11" d="M150.72,389.1c6.07,0.73,11.69,1.41,17.23-0.23c3.07-0.91,4.23-0.55,4.49,3.08
			c0.47,6.81,0.89,13.77,2.7,20.29c2.63,9.48,9.82,15.39,18.69,19.1c12.51,5.24,18.12,15.62,21.24,27.93
			c0.67,2.65-1.02,3.06-3.19,3.95c-11.48,4.71-23.73,5.33-35.75,7.05c-19.42,2.78-38.96,0.95-58.45,1.06
			c-7.45,0.04-8.15-1.06-7.5-8.45c1.23-13.83,9.93-22.84,20.57-30.32c5.18-3.64,10.69-6.74,15.7-10.7
			c3.65-2.88,5.16-6.38,4.59-10.36C149.99,403.98,150.42,396.54,150.72,389.1z"/>
		<path class="st11" d="M195.5,556.75c-14.87,2.24-30.27,1.4-45.51,3.61c-7.77,1.12-15.83,0.44-23.75,0.26
			c-3.35-0.08-5.89-2.27-7.49-5.14c-3.06-5.48-5.01-11.31-4.96-17.69c0.03-3.86,0.21-7.74-0.06-11.58c-0.52-7.3-0.59-7.7,6.94-6.9
			c12.55,1.34,25.13,1.51,37.68,0.99c19.65-0.81,39.27-2.4,58.28-7.92c3.15-0.91,3.81,0.02,3.29,2.59
			c-2.24,11.12-2.91,22.39-3.68,33.67c-0.26,3.83-3.31,6.39-6.66,6.93C205.07,556.29,200.56,558.01,195.5,556.75z"/>
		<path class="st11" d="M69.91,591.96c-0.48,12.53,0.34,24.05,1.05,35.6c0.37,5.95,1.36,11.84,0.24,17.96
			c-1.28,7.02-4.59,9.67-11.48,7.38c-1.89-0.63-3.65-1.6-5.49-2.39c-2.38-1.02-4.33-1.07-6.52,1.06c-5.28,5.15-9.79,5.61-15.49,1.4
			c-3.11-2.3-4.49-3.86-8.3,0.05c-6.19,6.33-16.6,1.32-17.22-8.82c-0.99-16.14-1.26-32.4,0.85-48.55c0.43-3.33,2.17-1.53,3.86-1.2
			C30.73,598.3,50,599.29,69.91,591.96z"/>
		<path class="st11" d="M187.17,647.37c-1.16-1.9-3.55-0.99-5.01-2.21c-1.63-0.8-3.25-1.6-4.88-2.39c-3.78-0.79-4.87-2.99-4.91-6.9
			c-0.15-16.18,1.44-32.24,2.88-48.25c1.78,0,3.71,0,5.65,0c3.24,0.56,6.41,1.41,9.45,2.67c1.82,1.06,3.67,2.07,5.81,2.37
			c0.52,0.14,1.02,0.33,1.51,0.55c2.85,1.96,6.72,2.08,9.02,5.03c8.7,3.78,17.25,8.01,26.18,11.13c3.58,1.25,4.18,2.8,4.32,5.93
			c0.55,13.01-1.21,25.81-3.17,38.6c-0.06,0.39-0.29,0.76-0.36,1.16c-0.58,3.13,0.92,8.36-1.76,8.96
			c-3.27,0.74-7.37-1.77-11.01-3.15c-3.12-1.18-5.92-3.16-9.3-3.71c-1.18-1.86-3.49-1.09-5-2.16c-1.71-1.64-4.12-1.46-6.11-2.37
			C196.04,650.86,191.61,649.11,187.17,647.37z"/>
		<path class="st11" d="M37.11,546.04c-7.69,0.25-15.22-0.93-22.78-2.18c-2.66-0.44-3.07-1.28-3.13-3.62
			c-0.39-16.46,4.12-31.12,14.78-43.96c3.75-4.51,8.18-8.77,9.75-14.87c0.52-2.02,11.59-5.85,13.44-4.89
			c0.45,0.23,0.92,0.76,1.03,1.23c2.81,11.83,11.1,20.86,16.24,31.51c4.05,8.38,8.53,16.28,7.19,26.17
			c-0.44,3.28-1.27,4.9-4.49,5.81C58.65,544.19,48.06,546.21,37.11,546.04z"/>
		<path class="st11" d="M10.93,545.03c21.44,5.95,41.7,2.7,61.98-2.44c1.14,1.31,0.7,3.03,0.41,4.5
			c-2.57,12.71-3.61,25.55-3.43,38.48c0.04,3.05-0.78,4.72-3.79,5.63c-18.66,5.63-37.27,4.97-55.96,0.16
			c-2.16-0.56-2.62-1.08-2.29-3.06C10.18,574.19,12.39,560.06,10.93,545.03z"/>
		<path class="st11" d="M361.92,511.35c0,37.42-0.41,73.03,0.16,108.62c0.32,20.29,2.36,40.56,2.06,60.89
			c-0.04,2.51,1.23,6.75-3.61,5.37c-3.31-0.95-8.74,4.38-10.02-4.09c-1.86-12.34-1.5-24.53-1.13-36.89
			c0.61-20.33-0.26-40.71,0.47-61.03c0.39-10.97,0.55-21.94-0.49-32.76c-1.33-13.81,2.52-25.61,10.47-36.5
			C360.26,514.36,360.58,513.67,361.92,511.35z"/>
		<path class="st11" d="M206.67,571.68c2.14,1.41,4.29,2.82,7.01,2.74c3.79,2.66,7.94,4.56,12.36,5.88c3.3,1.51,6.61,3.02,9.91,4.53
			c6.94,3.34,13.87,6.67,20.81,10.01c-0.56,2.53,0.37,4.54,1.65,6.76c1.12,1.95,3.05,4.47,0.39,6.89c-2.38,2.17-4.57,3.81-8.41,3.31
			c-13.64-1.76-25.49-8.39-37.97-13.29c-1.52-0.6-2.89-1.34-4.56-1.18c-3.87-0.73-7.53-2.11-11.11-3.73l0.18,0.14
			c-1.58-1.16-3.77-0.9-5.26-2.26c-3.05-1.86-6.96-2.02-9.57-4.76c-1.87-0.61-3.74-1.22-7.19-2.34c9.36-4.97,17.59-9.53,26.04-13.64
			C202.37,570.06,204.74,571.32,206.67,571.68z"/>
		<path class="st126" d="M315.71,571.82c2.79-1.71,2.95-4.92,4.27-7.47c2.94-5.04,6.34-9.85,7.91-15.59
			c3.41-5.79,6.82-11.59,10.23-17.38c1.6-3.15,3.84-6.01,4.45-9.62c3.97-9.56,8.86-18.53,16.45-25.79c0.63-0.99,1.26-1.98,2.41-3.78
			c1.93,6.13,1.07,10.67-1.11,14.67c-12.29,22.53-24.52,45.11-37.34,67.34c-8.97,15.55-19.03,30.46-28.27,45.85
			c-6.45,10.75-12.54,21.72-18.37,32.81c-3.82,7.28-9.48,13.38-12.49,21.73c-2.37-4.73-1.68-8.23,0.56-12.07
			c3.52-6.04,6.39-12.45,9.53-18.71c12.23-20.62,24.49-41.22,36.65-61.87C312.5,578.68,314.01,575.2,315.71,571.82z"/>
		<path class="st100" d="M338.3,521.53c-4.98,0.03-9.95,0-14.93,0.1c-1.72,0.04-1.61-1.19-2.16-2.23
			c-3.07-5.72-3.25-12.32-5.69-18.24c-1.13-2.73,1.13-2.62,3.06-2.79c5.53-0.47,11.12,1.99,16.3,0.96c6.28-1.25,6.3,0.44,4.97,5.44
			c-1.35,5.06-1.8,10.34-1.2,15.62c0.35,0.38,0.41,0.67,0.2,0.88C338.66,521.44,338.49,521.53,338.3,521.53z"/>
		<path class="st300" d="M341.06,520.36c-0.31-8.05-0.03-16.02,3.34-23.54c0.92-2.05-1.14-3.29-1.2-5.4c5.4,0,10.75,0,16.34,0
			c-0.66,1.39-1.37,2.87-2.08,4.36c-4.35,8.19-9.52,15.88-14.4,23.75C342.61,520.27,341.97,520.68,341.06,520.36z"/>
		<path class="st287" d="M328.42,497.07c-4.35,0.78-8.66-0.54-13.02-1.19c-0.83-0.12-1.97-1.02-2.18-1.77
			c-0.3-1.1,0.87-1.48,1.87-1.88c7.76-3.07,15.49-3.06,23.21,0.1c1.32,0.54,3.04,1.2,2.53,2.78c-0.3,0.91-2.08,1.77-3.26,1.87
			C334.58,497.24,331.56,497.07,328.42,497.07z"/>
		<path class="st12" d="M160.9,374.1c5.16-0.86,6.65,0.74,6.72,4.75c0.11,6.24-5.19,5.01-8.12,5.39c-2.56,0.34-7.16,0.14-6.68-5.31
			C153.41,372.25,158.87,375.18,160.9,374.1z"/>
		<path class="st228" d="M341.06,520.36c6.18-7.72,9.81-17.14,16.41-24.58c0.52,0.06,1.03,0.11,1.55,0.17
			c-5.48,8.6-10.96,17.19-16.45,25.79c-1.42-0.07-2.85-0.15-4.27-0.22c-0.05-0.42,0.07-0.8,0.34-1.13
			C339.45,520.38,340.25,520.37,341.06,520.36z"/>
		<path class="st19" d="M154.19,386c7.07,1.57,13.25-2.42,19.88-3.57c-6.4,5.81-13.45,7.42-21.31,3.65
			C153.21,385.58,153.69,385.56,154.19,386z"/>
		<path class="st210" d="M196.76,593.61c4.07,0.15,7.7,1.6,11.11,3.73c-0.39,0.3-0.78,0.59-1.18,0.89
			C203.21,597.04,199.28,596.83,196.76,593.61z"/>
		<path class="st104" d="M154.19,386c-0.48,0.03-0.95,0.05-1.43,0.08c-0.79-0.02-1.78,0.25-2.33-0.12
			c-1.25-0.84-2.31-1.96-3.35-3.07c-0.09-0.1,0.52-1.28,0.88-1.32c1.71-0.19,2.68,0.98,3.67,2.2
			C152.34,384.63,153.33,385.27,154.19,386z"/>
		<path class="st100" d="M281.25,505.74c12.47,0,12.47,0,12.08,12.8c-0.01,0.41,0,0.81,0,1.22c-0.11,11.19,2.23,10.18-11.09,10.47
			c-2.95,0.06-4.57-1.13-5.54-3.6c-2.11-5.39-4.22-10.79-6.19-16.23c-1.09-3.02-1.15-5.43,3.41-4.72
			C276.32,506.05,278.81,505.74,281.25,505.74z"/>
		<path class="st206" d="M267.91,501.55c2.16-3.44,5.65-4.36,9.34-4.41c5.63-0.08,11.1,1.28,16.56,2.52
			c1.11,0.25,1.85,0.8,1.86,1.98c0.01,0.94-0.61,1.61-1.48,1.51c-7.78-0.86-15.47,3.42-23.31,0.34
			C269.69,503.04,268.71,502.52,267.91,501.55z"/>
		<path class="st444" d="M282.86,587.59c-3.15,0.64-5.19-0.78-6.27-3.49c-2.21-5.53-4.37-11.09-6.28-16.73
			c-0.67-1.99-0.35-3.02,2.74-3.52c5.96-0.97,12.09,0.47,17.9-1.69c2.61-0.97,2.55,1.13,2.36,2.74c-0.77,6.36-1.36,12.76-2.58,19.04
			C289.9,588.21,285.63,586.71,282.86,587.59z"/>
		<path class="st81" d="M280.34,561.92c-2.04,0-3.06,0.05-4.07-0.01c-3.08-0.17-7.73,1.16-8.07-2.94c-0.27-3.22,4.56-3.54,7.29-4.06
			c5.59-1.06,11.17,0.34,16.62,1.74c0.74,0.19,2.26,0.28,2.15,1.66c-0.1,1.33-1.14,2.12-2.39,2.29
			C287.7,561.16,283.63,562.77,280.34,561.92z"/>
		<path class="st126" d="M89.49,578.15c8.98,2.03,17.73,0.1,27.49-0.65c-3.94,8.44-3.02,16.61-4.17,24.49
			c-0.8,5.48-4.72,4.22-7.44,4.86c-2.29,0.54-5.01,1.55-6.85-2.99C95.17,595.58,94.45,586.38,89.49,578.15z"/>
		<path class="st399" d="M115.96,575.55c-9.27,2.34-17.21,1.15-25.1,1.02c-0.91-0.02-1.74-0.54-1.54-1.39
			c0.15-0.65,0.95-1.38,1.63-1.64c6.33-2.44,12.74-2.97,19.2-0.42C111.66,573.7,113.15,574.36,115.96,575.55z"/>
		<path class="st287" d="M229.83,534.63c9.15-7.24,19.7-7.6,30.34-1.56C249.95,536.51,240.67,534.81,229.83,534.63z"/>
		<path class="st125" d="M149.43,593.83c8.53-0.24,8.51-0.24,8.32,8.39c-0.06,2.64-0.09,5.27-0.01,7.91
			c0.15,4.98-1.37,8.74-7.07,8.63c-4.67-0.09-9.98,1.63-11.51-6.1c-1.24-6.29-4.6-12.15-7.03-18.24c1.98-1.35,4.06-0.27,5.97-0.66
			C141.89,592.89,145.65,594.22,149.43,593.83z"/>
		<path class="st287" d="M139.35,592.67c-2.75-0.53-6,0.54-8.39-3.07c8.34-3.18,16.52-2.6,24.75-0.94c1.02,0.2,2.24,0.59,1.86,1.78
			c-0.24,0.74-1.4,1.57-2.24,1.68c-2.79,0.36-5.63,0.4-8.44,0.57C144.37,594.03,141.86,594.04,139.35,592.67z"/>
		<path class="st446" d="M139.35,592.67c2.51,0.01,5.02,0.01,7.54,0.02c0.85,0.38,1.7,0.76,2.55,1.13
			c-3.78,1.42-7.56,1.5-11.32-0.06C138.52,593.4,138.93,593.04,139.35,592.67z"/>
		<path class="st315" d="M182.1,586.73c3.69,0.66,6.82,2.59,9.96,4.47c-0.52,0.59-1.09,0.65-1.71,0.17
			c-3.57-0.19-6.61-1.72-9.45-3.76C181.3,587.31,181.7,587.02,182.1,586.73z"/>
		<path class="st200" d="M420.35,250.5c-0.45,0.42-0.9,0.83-1.35,1.25c-14.9-11.92-29.8-23.84-44.68-35.79
			c-1.4-1.13-2.65-2.45-3.97-3.68c0.01-0.81,0.11-1.51,1.2-0.91C387.82,224.41,404.08,237.46,420.35,250.5z"/>
		<path class="st246" d="M371.55,211.37c-0.4,0.3-0.8,0.61-1.2,0.91c-4.54-3.54-9.08-7.08-13.62-10.61
			c0.46-0.45,0.91-0.89,1.37-1.34C362.58,204.01,367.07,207.69,371.55,211.37z"/>
		<path class="st235" d="M376.47,288.26c-0.31,3.1-2.58,3.6-5.06,3.8C372.47,289.96,373.68,288.06,376.47,288.26z"/>
		<path class="st11" d="M759.05,383.59c3.05,0.43,5.54,3.5,9.14,1.69c1.12-0.57,2.71,0.75,2.84,1.73
			c1.02,7.83,9.42,10.57,11.86,17.48c0.75,2.13,2.28,3.81,0.45,5.98c-1.85,1.28-1.41,3.25-1.42,5.02
			c-0.08,15.04-0.79,30.12-0.4,45.11c0.51,19.26-0.82,38.54,0.88,57.77c0.16,1.84,1.37,4.55-0.96,5.53
			c-2.05,0.87-3.53-1.52-5.11-2.67c-4.1-2.98-7.81-6.47-12.21-9.11c-5.7-3.42-7.97-8.9-7.84-15.38c0.46-22.78-2.21-45.51-1.19-68.29
			c0.59-13.21,0.51-26.43,0.59-39.64c0.01-2.38-0.54-5.79,3.65-2.78c6.65,5.19,11.3,12.36,17.74,18.35
			c-5.67-5.69-10.4-11.69-15.84-17.03C760.37,386.18,757.66,386.06,759.05,383.59z"/>
		<path class="st109" d="M761.21,387.25c-1.87,0.81-2.7-1.49-4.97-1.5c0,6.03,0,12.01,0,18c0,14.84-0.19,29.67,0.05,44.51
			c0.28,17.03,0.86,34.06,1.49,51.08c0.14,3.8,1.13,7.27,4.77,9.82c6.41,4.5,12.44,9.53,19.54,15.04
			c-1.9-15.25-1.42-29.56-1.43-43.86c-0.01-22.36-0.04-44.71,0.1-67.06c0.01-0.98-2.14-5.48,2.55-2.8
			c-0.61,17.86-1.47,35.83-0.83,53.56c0.71,19.8-1.71,39.72,1.71,59.43c0.2,1.16,0.37,2.34-0.8,3.33c-1.6,1.35-1.94-0.44-2.8-0.95
			c-8.32-4.96-15.29-11.8-23.43-17.09c-2.15-1.4-1.52-7.14-2.04-10.9c-0.19-1.39-0.06-2.82-0.03-4.24
			c0.55-22.75-2.62-45.46-1.07-68.2c0.9-13.2,0.96-26.37,0.88-39.57c-0.02-3.6,1.05-4.64,4.13-2.24c0.06,1.61,2.64,1.85,2.05,3.8
			L761.21,387.25z"/>
		<path class="st54" d="M190.35,591.36c0.57-0.06,1.14-0.11,1.71-0.17c2.04,0.05,3.88,0.48,4.87,2.55
			C194.35,594.04,191.91,593.91,190.35,591.36z"/>
		<path class="st260" d="M761.1,387.39c6.44,2.84,9.36,9.37,14.33,13.79c1.96,1.74,4.58,3.48,5.48,7.16c-3.39-0.56-5-2.82-6.33-4.68
			c-4.11-5.77-10.6-9.59-13.37-16.41C761.21,387.25,761.1,387.39,761.1,387.39z"/>
	</g>
</g>
</svg>
