<?xml version="1.0" encoding="utf-8"?>
<!-- Generator: Adobe Illustrator 23.0.3, SVG Export Plug-In . SVG Version: 6.00 Build 0)  -->
<svg version="1.1" id="Layer_1" xmlns="http://www.w3.org/2000/svg" xmlns:xlink="http://www.w3.org/1999/xlink" x="0px" y="0px"
	 viewBox="0 0 1024 600" style="enable-background:new 0 0 1024 600;" xml:space="preserve">
<style type="text/css">
	.st0{fill:#FFFFFF;}
	.st1{clip-path:url(#SVGID_2_);}
	.st2{clip-path:url(#SVGID_4_);}
	.st3{fill:#060606;}
	.st4{fill:#262727;}
</style>
<path class="st0" d="M547.2,569.8c-3.3,17.9-8.7,34-8.7,34l73.5,7.7l58.9-3.2l18-2l-1.6-58.5l-1.1-21.6l-1.3-35.9h-54.8l-35.2,15.5
	l-31.9-6.7l-4.8,20.8"/>
<g>
	<g>
		<g>
			<defs>
				<rect id="SVGID_1_" x="-1044" y="0" width="1024" height="600"/>
			</defs>
			<clipPath id="SVGID_2_">
				<use xlink:href="#SVGID_1_"  style="overflow:visible;"/>
			</clipPath>
			<g class="st1">
				<g>
					<g>
						<defs>
							<rect id="SVGID_3_" x="-1053.7" y="-60.3" width="1041" height="740.2"/>
						</defs>
						<clipPath id="SVGID_4_">
							<use xlink:href="#SVGID_3_"  style="overflow:visible;"/>
						</clipPath>
						<g class="st2">
							<path class="st3" d="M32.1,842.4c-8.7-6.8-17.8-13.3-25.9-20.7c-8.1-7.3-18.2-11.2-26.9-17.6C-39,790.4-58,777.7-76.2,763.9
								c-22.3-16.8-43.9-34.7-66.3-51.3c-13.1-9.8-27.5-18-41-27.2c-22.6-15.4-42.6-34.4-65.2-49.8c-12.7-8.7-24.9-18.2-38.3-26
								c-1.6-0.9-3-2.2-4.3-3.5c-10.7-10.5-22.6-19.3-35-27.8c-8-5.5-15.2-12.4-22.4-18.9c-12.4-11.1-25.2-21.7-37.7-32.6
								c-3.6-3.1-6.6-7-9.5-10.8c-3.7-4.8-8.8-6-14.4-6.2c-14.3-0.4-28.6,2-42.8,1.7c-13.5-0.3-27,1-40.6,0
								c-14.6-1.1-29.7-2.3-44.5,0.5c-5,0.9-9.6-1-14.5-1.2c-18-0.7-35.9,1.7-53.9,1.2c-23.2-0.6-46.4-1.7-69.5-4.8
								c-6.3-0.9-10.7,2.8-15.5,5.7c-11.8,7.3-21.6,17.3-33.3,24.7c-15.8,10.1-30.5,21.8-45.6,32.8c-0.8-0.9-0.7-1.8-0.1-2.6
								c8.4-7.3,17.6-13.5,26.6-20.2c10.4-7.7,21.6-14.2,31.1-23.3c5.7-5.4,12.6-9.8,19.6-13.3c8.5-4.2,9.2-11.1,7.7-18.4
								c-1.4-7.1-1-14.3-1.3-21.3c-0.3-7.7-1.5-15.3-1.1-23.1c0.5-9.8,0.8-19.7-0.1-29.4c-1.2-12.2-2.3-24.5-2.2-36.7
								c0.1-12.5-0.6-25-1-37.5c-0.4-15.2,1-30.5,0.9-45.7c0-13.1-0.8-26.2-2.1-39.3c-2.3-24.5-1.1-49.1-0.1-73.7
								c0.5-11-0.9-21.9-0.4-32.9c0.2-4.1,1.2-8.1,1-12.5c-0.3-6.3-4.1-8.9-7.8-11.8c-13.7-10.6-26.6-22.1-39.6-33.5
								c-11-9.7-23.7-17.4-34.8-26.9c-8.2-7-17-13.1-25-20.4C-811.1,37-823.5,26.6-835.7,16c-0.7-0.6-1.2-1.6-1.8-2.3
								c-0.7-0.8-0.8-1.5,0-2.3c14.3,10.3,27.7,21.5,40.9,33.1c3.7,3.6,7.4,7.2,10.8,11c0.2,0.3,0.5,0.6,0.9,0.8
								c-0.3-0.1-0.5-0.4-0.7-0.6c0-1,0.3-1.5,1.3-1.1c6.8,2,10,8.6,15.3,12.5c12.7,9.6,24.5,20.4,37,30.3
								c8.5,6.8,16,14.5,24.2,21.7c4.7,4.2,9.7,8,14.5,12.1c1.2,1.1,2.4,1.3,3.9,1.3c13.8-0.5,27.6,0.4,41.4-0.9
								c8.7-0.9,17.5,0.1,26.2-0.4c29.9-1.4,59.7,1.1,89.6,1.5c12.8,0.1,25.6,0.8,38.5,0.2c15.5-0.7,31-0.5,46.5-1.4
								c5.7-0.3,11.6-0.9,17.4-0.2c8.9,1,17.8-3.1,26.7-0.4c0.9,0.3,2.5-1.2,3.6-2.1c18-15.5,38.9-26.9,57.9-40.8
								c1.2-0.4,1.5,0.1,1.2,1.2c-20.1,15.5-42.1,28.3-61.7,44.5c-1.9,1.5-2.7,2.7-2.5,4.9c1.8,23.1,0.4,46.3,1.4,69.4
								c0.8,18.4,2.3,36.8,2.3,55.2c0,21,0.5,42-0.3,63c-0.4,8.9,0.7,17.8,0,26.6c-1,13.1,0.5,26,1.8,38.9
								c1.3,13.6,1.6,27.2,0.7,40.7c-1.4,20.1-0.5,40.1-0.8,60.2c-0.1,5.5-0.1,11.3,1.4,16.5c1.5,5.3,6.6,8.8,10.5,12.4
								c14.8,13.8,30.2,27,45.6,40c5.2,4.4,11.4,7.6,17.1,11.5c9.6,6.7,17.3,15.5,26.1,23.1c12,10.2,24.9,18.8,38.6,26.4
								c12.2,6.8,21.6,17.3,32.6,25.6c19,14.3,37,29.7,57.3,42.5c22.4,14.1,44.7,28.7,64,47.2c7,6.7,15.3,12.2,23.5,17.5
								c4.9,3.2,8.9,7.3,13.7,10.6c20,13.7,39.7,27.8,60,41.2C5.8,816.9,19,829.2,33,840.5c0.4,0.3,0.5,1.1,0.7,1.7
								C33.3,842.8,32.8,842.9,32.1,842.4z"/>
						</g>
					</g>
				</g>
			</g>
		</g>
	</g>
</g>
<path class="st0" d="M561.9,500.2c-5,25.5-14.7,69.6-14.7,69.6l92.9-3.3h47.6l-3.2-82.1l-10.9-53.1l-92.7-32l-14.7,84.2L561.9,500.2
	z"/>
<g>
	<path class="st0" d="M538.9,116l7.4,224.1c0,0,23.1,23.6,30.1,35.2c15.2,25.5-13.2,121.2-13.2,121.2l-0.6,5.9l122.5-3.1
		c0,0-11.7-51.9-13-123c-0.8-40.6,9.6-77,12.4-115.5c0.6-9.1-3.7-18.7-4.6-29.1c-1.3-15.3-0.3-32.6-3.9-45.3
		c-2.2-7.5-8.3-12.6-12.8-15c-3.9-2.1-5.1-4.7-5.3-7c-5.2-10.2-16.3-11.8-20.4-15.6c-4.1-3.8,0.4-9.1-13.7-13.4
		c-19.4-5.8-43.4-10.9-43.4-10.9L538.9,116z"/>
	<path class="st0" d="M558.2,370.7c0,0-197.7,28.5-205.7,0.6c-6.1-21.3-33.3-191.4-25.8-339.8c0.4-9.1,219.3-7.7,219.3-7.7
		L558.2,370.7z"/>
	<path d="M540.6,338.5c7.2,2.4,11.7,8.2,16.9,13.1c5.2,4.9,10,10.1,14.5,15.7c3.8,4.7,5.8,10.3,6.1,16.5c-2.7-8-5.9-15.6-12.6-22.2
		c-1.6,9.9-7.6,16.1-15.4,20.2c-4,2.1-8.9,3.2-13.5,3.5c-13.3,0.7-26.5,0.7-39.8,1.1c-19.8,0.5-39.6,1-59.5,1.8
		c-15,0.6-30,1.4-45,2.8c-10.1,1-19.9,0.8-30-2c-14.3-4-18.4-14.7-19.9-27.6c-1.7-15.2-3.8-30.3-5.2-45.5
		c-1.5-15.7-2.5-31.4-3.8-47.1c-1.2-15.7-2.3-31.4-3.5-47.2c-0.6-8.9-1.3-17.8-1.9-26.7c-1.3-19.7-2.3-39.5-3.5-59.3
		c-0.6-11.3-1.3-22.6-1.9-33.9c-0.4-6.5-0.9-13.1-0.9-19.6c0.1-11.9,0-23.9,1-35.8c0.6-8,4-15.4,10-21.3c4.8-4.8,11.6-4,17.6-4.7
		c16.1-1.5,32.3-2.7,48.4-3.6c11.1-0.6,22.3-0.8,33.5-1.1c22.5-0.6,45-1.1,67.5-1.7c9.8-0.3,19.5-0.6,29.4-0.9
		c11.3-0.3,19.5,8.6,20.3,18.9c1.1,14.9,1.3,29.8,1.9,44.7c0.5,12.4,1,24.7,1.6,37c0.2,3.4,4.3,6.2,7.8,6.4c3.3,0.2,6.5,1.1,9.9,1.8
		c7.4,1.7,14.9,3.5,22.3,5.1c10.3,2.2,20.8,4.1,31,6.6c6.7,1.7,11.3,6.4,13.5,13c1,2.8,2.7,3.8,5.3,4.8c4.6,1.9,9.2,4,12.9,7.3
		c2.3,2.1,3,6.1,4.8,10.4c6.4,2.5,12.7,7,16.1,15.3c2.5,6,1.6,11.9,2,17.9c0.4,7.4,0.4,14.7,1.4,22c1.2,8.3,3.5,16.5,4.7,24.8
		c0.5,3.7-0.5,7.6-0.7,11.5c-0.2,4.6,0.5,9.2-0.1,13.6c-1.6,11.2-3.9,22.3-5.8,33.5c-0.9,5.5-1.8,11-2.2,16.6
		c-1.1,14.8-2.2,29.7-2.6,44.6c-0.3,9.9,0.4,19.8,0.7,29.7c0.3,7.7,0.5,15.5,0.9,23.2c0.7,15.5,2.3,30.8,6.5,45.9
		c2.9,10.2,4.3,20.7,3.2,31.4c-0.8-6.9-1.3-13.9-2.5-20.7c-1.6-9.1-3.9-18.1-5.6-27.3c-1.1-5.9-2-12-2.2-18
		c-1.1-19-2.7-38.1-2.5-57.1c0.1-17.5,1.5-35.1,3.4-52.5c1.7-15.2,4.9-30.2,7.4-45.3c0.3-1.9,0.5-3.9,0.5-5.7
		c0.1-7.2,0.6-14.3-0.1-21.3c-0.9-8.3-3.3-16.5-4.2-24.8c-1.1-10.5-1.9-21-1.8-31.5s-6.5-21.2-17.8-24.7c-0.7,3.5-1.3,7-2.1,10.5
		c-2-7,3.1-14.8-2.7-20.5c-3.9-3.9-9.5-6-14.5-9.1c-1.1,5-2,8.9-2.8,12.7c-0.4-0.1-0.7-0.1-1.1-0.2c-0.2-0.4-0.6-0.8-0.5-1.1
		c4.3-15.2-2.1-24.3-17.3-29c-14.9-4.6-30.5-5-45.2-9.5c-3.7-1.1-7.4-2.3-11-3.5c-0.2,0.4-0.4,0.7-0.5,1.2c3,2.3,5.8,4.7,8.8,6.9
		c5,3.9,10.1,7.6,15.2,11.4c1.3,1,2.5,2.2,3.9,2.8c9.8,4.8,17.1,19.3,15.6,30c-0.7,5.2-0.6,10.6-0.9,15.8c-0.1,1.1-0.4,2.2-1.4,3.1
		c0-6.2-0.8-12.5,0.2-18.6c1.8-11.3-4.3-23-14.3-28c-4.6-2.2-8.1-6.7-12.3-10c-7.5-5.8-15.2-11.4-22.9-17.1
		c-0.4,0.2-0.8,0.4-1.3,0.6c0,2.4-0.1,4.8,0,7.3c0.5,13.1,1.2,26.2,1.8,39.2c0.5,11.9,1.2,23.8,1.7,35.6c0.1,2.1-0.1,4.1,0,6.2
		c0.9,20.3,1.7,40.4,2.9,60.7c0.4,8.1-3.8,8.1-8.9,6.4c-15-4.8-28.8-12.2-40.7-22.6c-1.9-1.6-2.9-4.3-4.3-6.5l0,0
		c8.6,6.4,16.9,13.3,25.8,18.9c5.8,3.7,12.8,5.7,19.7,8.8c1.1-43.1-3-85.4-4.3-128.1c-15.8,0.5-31,1.1-46.3,1.6
		c-7.9,0.3-15.8,0.6-23.7,1c-13.1,0.5-26.2,0.8-39.2,1.9c-30.8,2.6-61.8,2.9-92.7,2.7c-3.7,0-7.4,0.7-12,1.3
		c0.5,7.7,1.2,15.5,1.8,23.3c0.4,3.7,1,7.4,1.3,11c0.9,12.9,1.8,25.7,2.6,38.7c0.3,3.7-0.1,7.4,0.2,11.2c1,13.9,2.2,27.8,3.2,41.7
		c0.4,6.5,0.7,13,1.3,19.5c0.8,9.8,1.7,19.5,2.7,30c3.7,0,7.3,0,10.8,0c14.7,0,29.4,0.1,44.1-0.1c10.4-0.1,20.9-0.6,31.3-1
		c2.3-0.1,4.8-0.5,7.1-0.6c13-0.4,25.9-0.4,38.9-1c10-0.4,20.2-1.3,30.2-1.6c4.7-0.1,9.2,0.7,14.1,0.4c-3.7-2.5-7.6-4.8-11.1-7.6
		c-12.5-10.3-26.8-18.6-37.3-31.2c-3-3.7-5-8.3-6.9-12.7c-2.4-5.5-4.2-11.2-6.4-17.1c-3.9,4-7.6,7.4-10.7,11.4
		c-2.6,3.3-5,2.4-7.4,0.5c-10.7-8.3-21.3-16.6-31.7-25c-6.7-5.5-9-16.2-5.9-25.6c3-9.4,10.9-14.2,19.6-14.6c4.8-0.3,9.6,2.9,15,4.6
		c3.5-5.3,8.9-9.5,16.9-8.6c4.5,0.4,9,1.2,13.4,2.2c-14,1.3-22.2,8.5-21.5,19.6c-0.3-1.9-0.9-3.9-0.5-5.7c1.2-6.3,6.1-9.7,11.2-13.4
		c-4.5-2.1-8.5-1.2-11.7,1.1c-3.2,2.2-5.6,5.6-8.4,8.4c-3.8-4.5-9.2-7.4-15.2-6.6c-7.6,0.9-13.6,5-16.8,12.6
		c-3.5,8.4-2.3,16.9,3.7,22.7c9.1,8.9,19.5,16.3,29.5,24c6.7,5.1,7,4.8,12.3-1.3c0.7-0.8,1.6-1.3,2.3-2.1c5.1-5,5.2-5.6,2.2-11.9
		c-0.9-2-2.2-3.9-3-5.9c-2.6-7.2-6.4-14-5.6-22c2.9,16.8,12.6,30.8,18.7,46.3c1.6,4.2,3,8.5,4.6,12.7c0.5,1.4,1.6,2.8,2.9,4.9
		c3.9-3.9,7.3-7.4,10.8-10.8c0.2,0.2,0.4,0.4,0.6,0.5c-3.1,3.6-6.3,7.2-10.2,11.7c7.1,6,14.3,12.5,22,18.5
		c13.8,10.9,28,21.3,41.9,31.9C539.6,336.7,540.1,337.6,540.6,338.5c-1.8-1.2-3.7-2.4-5.8-3.8c-0.4,2.8-0.9,5.4-1.4,8.6
		c2.8-1.3,4.8-2.2,6.8-3c1.4,1.3,2.6,2.3,3.9,3.4c0.2-0.4,0.4-0.9,0.3-1C543.2,341.4,541.9,339.9,540.6,338.5z M368.9,383.7
		c-7.5-1-14.9-3.2-17.8-10.7c-2.7-7.2-3.7-15.2-4.8-22.9c-1.3-10-2.1-20.1-3-30c-1.2-12.6-2.2-25.2-3.4-37.8
		c-0.5-6.6-1.1-13.4-1.6-20c-0.6-6.8-1.5-13.5-1.9-20.4c-0.5-11-0.4-22.1-1.2-33.1c-1.3-18.5-3-36.9-4.2-55.5
		c-1.2-17.5-2.2-35.1-2.5-52.6c-0.4-19-0.4-38-0.1-57c0.1-9.6,8.3-18.1,17.4-19c10.9-1,21.8-2.1,32.7-2.6
		c16.8-0.8,33.6-1.3,50.4-1.8c9.6-0.3,19.1-0.1,28.7-0.4c6.6-0.3,13.4-1.3,20-1.3c9.7-0.3,19.5-0.2,29.1,0c8,0.1,16.1,0,24,1.1
		c5.6,0.7,11.5,2.6,12.8,9.5c1.3,6.4,3,12.7,3.2,19.1c0.7,21.8,0.6,43.6,1.1,65.4c0.4,26.1,1,52.1,1.8,78.2
		c0.5,15.6,2,31.1,2.5,46.7c0.4,11.5,0.1,22.9,0.1,34.8c2-0.4,3.5-0.5,5.3-0.8c-0.9-14.8-1.9-29.2-2.5-43.7
		c-1.1-23.5-2-47.1-2.7-70.6c-0.5-16.3-0.4-32.6-1-49c-0.4-11.1-1.3-22.2-1.7-33.4c-0.4-13.7-0.6-27.4-1-41.2
		c-0.1-8.9-6.6-17.8-14.8-19.5c-4.6-1-9.4-1.3-14.2-1.2c-11.1,0.4-22.2,1.3-33.3,1.6c-23,0.7-45.9,1.2-68.8,1.9
		c-10,0.3-19.8,0.9-29.8,1.5c-13.8,0.9-27.5,2-41.3,2.9c-8.4,0.5-14.6,3.8-18.4,12c-2.7,5.9-3.2,12-3.6,18.1
		c-1.3,21.9-1.1,43.8,0.7,65.6c1.3,16.6,2.6,33.2,3.6,49.8c1.3,22.2,2.4,44.2,3.7,66.4c0.4,5.8,0.7,11.6,1.2,17.3
		c1.1,14.5,2.2,29,3.3,43.5c0.6,7.9,1.2,15.7,2,23.5c1,10,2.1,20.1,3.5,30c1.2,8.2,2.7,16.2,4.5,24.3c0.9,4.2,2.9,8.3,7,10.3
		c4.5,2.2,9.1,5.1,13.9,5.6c9.1,0.9,18.3,0.5,27.4,0.2c15.4-0.6,30.9-2,46.4-2.5c31.6-1.1,63-2,94.6-2.8
		c11.6-0.3,23.1-8.8,26.9-19.8c1.3-4,0-5.7-3.5-7.2c-0.1,0.9-0.2,1.4-0.2,2.1c-0.6,11.6-7.1,18.7-18.7,20.3
		c-6.5,0.9-12.9,1.7-19.5,1.9c-12.8,0.4-25.6,0.4-38.5,0.4c-9.1,0-18.2-0.6-27.3-0.2c-14.7,0.7-29.2,2.5-43.9,3.1
		c-13,0.5-26,0.2-39,0.1c-1.3,0-2.8-0.5-4.2-0.8c17.6-0.4,35.2-0.7,52.7-1.3c17.8-0.6,35.7-1.8,53.4-2.2c16.1-0.4,32.2,0.2,48.2-0.2
		c6.6-0.2,13.3-1.2,19.7-2.7c6.8-1.6,12.4-5.3,14.3-13.5c-28.1,0-55.6,0-83.1,0c-0.4-4-0.7-7.8-1.3-11.4c-0.6-3.7-1.4-7.4-5.6-8.8
		c-7.4-2.4-15-2.3-22.2-0.4c-6.8,1.9-9,7.6-9,14.3c0,6.5-0.9,8.3-5.6,8.9c-9.1,1.2-18.2,2.2-27.4,2.7c-11.9,0.6-23.9,0.6-35.8,1
		c-4.9,0.2-9.9,0.9-14.8,1.3c-0.2,0.5-0.4,1-0.4,1.5c1.9,1.7,3.6,3.7,5.7,5C361.4,380.1,365.1,381.8,368.9,383.7z M546.2,113.5
		c-8.3,0-16.2,0-24.1,0c-5.6,0-11.3-0.1-16.9,0.2c-14.3,0.7-28.5,1.7-42.7,2.4c-7.4,0.4-14.9,0.6-22.3,0.9
		c-20.6,0.9-41.3,1.8-61.9,2.7c-1.2,0.1-2.4,0.1-3.6,0.2c-13.4,0.8-26.7,1.7-40,2.5c-0.6,0-1.3-0.4-1.8-0.5
		c3.6-1.3,7.2-1.9,10.8-2.1c14.4-0.7,28.9-1.2,43.2-1.9c16.8-0.8,33.5-1.9,50.3-2.6c21-1,42-1.9,63-2.7c14-0.5,28-0.7,42-0.8
		c3.5,0,4.2-1.3,4.2-4.5c-0.2-10.2-0.1-20.5-0.1-30.8c0-3.4-0.7-5.5-5-5.3c-16.9,0.8-33.9,1.3-50.8,1.9c-10.7,0.4-21.4,0.4-32.1,0.8
		c-19.3,0.8-38.6,2.2-57.8,2.8c-19.5,0.6-39.1,0.6-58.6,1c-2.5,0.1-5,0.8-7.5,0.6c-5.2-0.4-5.4,2.6-5.2,6.4
		c1,19.3,1.9,38.7,2.9,57.9c0.2,2.8,0.5,5.6,0.8,8.6c6.6-0.4,12.8-0.8,19-1c10.1-0.2,20.2,0.2,30.3-0.1c16.5-0.4,33-1.1,49.5-1.8
		c11.7-0.5,23.4-1.3,35.2-1.9c6.1-0.4,12.2-0.7,18.3-1c10.9-0.5,21.7-1.3,32.6-1.6c9.4-0.4,18.8-0.3,28.5-0.4
		C546.2,132.9,546.2,123.1,546.2,113.5z M330.2,76.9c2.4,0,4.7,0.1,6.8,0c10.7-0.5,21.3-1.3,32-1.7c23.7-1,47.3-1.9,70.9-2.7
		c14.4-0.4,28.9-0.6,43.3-0.9c15.5-0.4,31-0.5,46.5-1c5.3-0.2,10.5-0.9,15.6-1.4c0-5.5,0.3-10.2-0.1-15c-0.6-8-1.4-16.1-2.8-24
		c-0.4-2.3-2.8-5.3-4.9-6.1c-4.8-1.8-9.9-3.4-14.9-3.4c-18.7-0.1-37.6,0.4-56.3,0.7c-20.5,0.4-41.1,1.1-61.7,1.8
		c-19,0.7-38,1.7-57,2.7c-8.8,0.4-17.2,8.3-17.5,16.9C329.9,53.9,330.2,65.1,330.2,76.9z M350.3,369.8c7-0.5,12.7-1.1,18.6-1.3
		c18.4-1,36.9-1.4,55.2-3c8.2-0.6,10.4,0.5,10.3-10.2c-0.1-5.6,3-10.2,8.3-12.8c7.4-3.6,15.2-2.2,22.8-1.3c5.9,0.7,8.7,5.5,9.2,11.4
		c0.3,3,0.8,6.1,1.3,9.3c27.4,0,54.7,0,82.7,0c-0.4-3.1,0.2-6.5-1.3-8.5c-2.8-3.7-6.7-6.4-10.6-9.9c-0.4,1.8-0.5,3-1,5.5
		c-3.7-6.4-8.2-6.6-13.9-2.7c0.4-2.6,0.4-4,0.7-5.4c1.6-7.2-1.6-12.8-8.8-13.5c-9.1-0.8-18.1-1.1-27.2-0.9
		c-7.4,0.1-14.8,1.3-22.2,1.5c-13.7,0.4-27.4,0.6-41.2,1c-0.9,0-1.8,0.1-2.7,0.1c-15.3,0.3-30.8,0.5-46.1,0.7
		c-12.6,0.1-25.1,0.1-38.7,0.1C347.3,343.8,348.8,356.5,350.3,369.8z"/>
	<path d="M561.9,500.2c9.1-37.5,15.9-75.2,17.4-113.9c0.3,5.8,1.3,11.7,0.7,17.4c-1.6,15.4-3.7,30.8-6.1,46.1
		c-1.5,9.4-4.1,18.7-6.3,28.1c-1.4,6.2-2.9,12.4-4.4,18.6C563,497.7,562.3,499,561.9,500.2z"/>
	<path d="M457.6,214.4c3.1-1.5,9.5-0.7,13,2.2c5.4,4.6,8.5,10.5,10.7,17c1.3,4.1-1.9,10.8-3.6,9.5c-3.9-2.9-6.8,0.4-10.1,0.2
		c-0.1-0.4-0.2-0.9-0.3-1.3c2.8-0.7,5.6-2,8.3-1.9c4.4,0.1,5.5-2.6,4.1-5.3c-3-6-6.1-12.3-10.7-16.9
		C466.5,215.2,461,215.4,457.6,214.4z"/>
	<path d="M614.7,416.1c-2.2-3.9-4-8-6.6-11.5c-2.3-3.1-5.3-6.1-8.4-8.4c-5.6-4-11.7-7.4-17.3-11.3c-1.7-1.2-2.4-3.7-3.1-6
		c4.9,8.2,13.2,11.6,21.1,15.4c4.3,2.2,7.4,5.1,9.4,9.5c1.3,3,3.6,5.8,5.4,8.7c0.5,0.8,0.9,1.6,1.3,2.5
		C615.9,415.3,615.3,415.7,614.7,416.1z"/>
	<path d="M505,245.5c-1.8-3.1-3.8-6.2-5.4-9.4c-6.8-13.2-14.4-25.6-27.4-33.8C489.9,211.5,498,228,505,245.5L505,245.5z"/>
	<path d="M454.7,216.6c-2.6,3.6-2.3,7.4-0.9,11.3c1.6,4.4,3.2,8.9,5.4,13c1,1.8,3.4,2.9,5.1,4.3c-1.6,1.8-4.1,1.8-5.6-1.5
		c-2.8-6.6-5.4-13.4-7.4-20.2c-0.6-2.2,1.2-4.9,1.9-7.5C453.8,216.1,454.3,216.3,454.7,216.6z"/>
	<path d="M637.9,169.4c-0.4,6.4-0.9,12.6-1.3,19c-0.5,0-1.1-0.1-1.6-0.1c0.4-6.4,0.8-12.6,1.3-19
		C636.8,169.4,637.3,169.4,637.9,169.4z"/>
	<path d="M604.3,240.4c0-6,0-12,0-17.9c2.8,5.8,0,12,1.7,17.8C605.5,240.3,604.8,240.4,604.3,240.4z"/>
	<path d="M632.6,224.4c0.9-6.4,1.8-12.8,2.7-19.2c0.4,0.1,0.9,0.1,1.3,0.2c-0.9,6.4-1.7,12.8-2.5,19.2
		C633.6,224.5,633.2,224.5,632.6,224.4z"/>
	<path d="M584.2,390.4c2.4,4.8,10,4.7,10.4,11.2c-3.9-3.5-7.6-6.9-11.5-10.3C583.6,391,583.9,390.7,584.2,390.4z"/>
	<path d="M657.3,205.4c-0.5,4.6-1.1,9.1-1.6,13.7c-0.4,0-0.6-0.1-1-0.1c0.4-4.6,0.6-9.1,1-13.7C656.1,205.3,656.8,205.3,657.3,205.4
		z"/>
	<path class="st0" d="M546.2,113.5c0,9.5,0,19.4,0,30.2c-9.7,0.1-19.1,0.1-28.5,0.4c-10.9,0.4-21.7,1-32.6,1.6
		c-6.1,0.4-12.2,0.6-18.3,1c-11.7,0.6-23.4,1.3-35.2,1.9c-16.5,0.7-33,1.3-49.5,1.8c-10,0.3-20.2-0.1-30.3,0.1
		c-6.2,0.1-12.4,0.6-19,1c-0.3-3.1-0.7-5.9-0.8-8.6c-1-19.3-1.9-38.7-2.9-57.9c-0.2-3.8,0-6.8,5.2-6.4c2.5,0.2,5-0.6,7.5-0.6
		c19.5-0.4,39.1-0.4,58.6-1c19.3-0.6,38.6-2,57.8-2.8c10.7-0.4,21.3-0.4,32.1-0.8c16.9-0.5,33.9-1.1,50.8-1.9c4.3-0.2,5,1.9,5,5.3
		c0,10.3-0.1,20.5,0.1,30.8c0.1,3.2-0.7,4.5-4.2,4.5c-14,0.1-28,0.4-42,0.8c-21,0.7-42,1.7-63,2.7c-16.8,0.8-33.5,1.9-50.3,2.6
		c-14.4,0.7-28.9,1.2-43.2,1.9c-3.6,0.2-7.2,0.8-10.8,2.1c0.6,0.2,1.3,0.5,1.8,0.5c13.4-0.8,26.7-1.7,40-2.5
		c1.2-0.1,2.4-0.1,3.6-0.2c20.6-0.9,41.3-1.8,61.9-2.7c7.4-0.4,14.9-0.5,22.3-0.9c14.3-0.8,28.5-1.7,42.7-2.4
		c5.6-0.3,11.2-0.2,16.9-0.2C530,113.5,537.8,113.5,546.2,113.5z M353.2,83.1c-11.7-0.9-20.2,10.6-16.8,20.3
		c3.2,9.1,10,18.8,22.4,12.2c0.8-0.4,2.2,0.6,3.3,0.6c2.6-0.1,5.6,0.4,7.5-0.9c2.2-1.5,2.3-4.5,0.4-7.2c-0.6-0.9-0.4-2.5-0.4-3.8
		c0.3-3.1,1.8-6.5,0.9-9.3C368.4,87.4,361.3,83.1,353.2,83.1z M438.5,112.6c10-0.5,15-7.2,16.1-17.8c1-9.9-6.6-16.9-17.3-17
		c-9.1-0.1-17.5,8.1-17.1,17.4C420.4,105.4,428.8,111.9,438.5,112.6z M396.4,115.3c9.7,0.5,16.5-8.2,17.1-18.2
		c0.5-8.6-9.7-17-16.1-16.9c-10.8,0.3-18.7,7.4-18.8,17.5C378.5,107.5,386.5,115.3,396.4,115.3z M479.7,110
		c10.9,0.4,15.6-8,15.9-15.4c0.4-10.5-6.4-17.4-16.2-17.8c-9.1-0.3-16.5,7-16.4,16C462.9,104,468.8,110,479.7,110z M537.3,92.6
		c0.1-10.9-6.3-18.5-15.8-18.5c-9.3,0-17.4,7.8-17.5,16.9c-0.1,10.1,6.3,16.8,15.6,17.2C531.8,108.9,538.6,102.1,537.3,92.6z
		 M354.3,148.5c6.8,0,10.9-4,10.9-10.6c-0.1-5.9-5.1-11.1-11.1-10.9c-7,0.3-11.5,3.1-11.4,10.9C342.8,144,347.6,148.5,354.3,148.5z"
		/>
	<path class="st0" d="M330.2,76.9c0-11.7-0.3-23,0.1-34.2c0.3-8.7,8.7-16.5,17.5-16.9c19-0.9,38-2,57-2.7
		c20.5-0.8,41.1-1.3,61.7-1.8c18.7-0.4,37.6-0.9,56.3-0.7c5,0,10.1,1.6,14.9,3.5c2.2,0.8,4.6,3.8,4.9,6.1c1.4,7.9,2.2,16,2.8,24
		c0.4,4.8,0.1,9.5,0.1,15c-5.1,0.4-10.3,1.3-15.6,1.4c-15.5,0.4-31,0.7-46.5,1c-14.4,0.3-28.9,0.4-43.3,0.9
		c-23.7,0.8-47.4,1.7-70.9,2.7c-10.7,0.4-21.3,1.2-32,1.7C334.8,77,332.6,76.9,330.2,76.9z M486.7,45.4c0.5-3.2,1.2-6,1.5-8.9
		c0.1-0.8-0.4-2.4-0.7-2.5c-2.4-0.4-5.2-1-7.4-0.3c-2.2,0.7-4.1,2.8-5.7,4.6c-1.7,2-2.9,4.5-4.3,6.7c-0.5,0.8-1.3,1.5-1.9,2.2
		c0.4-3.4,2.2-6.4,1.9-9.1c-0.6-5.7-5.4-0.7-8.1-2.2c0.4-3.1-1.4-4.9-4.5-3.9c-3.1,1.2-2.1,3.6-0.9,5.9c0.4,0.7,0.4,2.1-0.1,2.7
		c-1.6,2.5-3.6,4.9-5.4,7.4c-0.4-0.2-0.6-0.4-1-0.5c0.6-3.6,1.3-7.1,2-10.9c-1.7,0.1-3,0.6-3.6,0.2c-3.4-3-6.2-0.7-8.1,1.4
		c-1.9,2.2-2.4,5.6-3.7,8.3c-0.7,1.6-1.8,3-2.7,4.5c-0.4-0.3-1-0.5-1.4-0.8c0.7-3.3,1.3-6.7,1.8-9.1c-2.3-1.1-4.1-2.2-6.1-2.7
		c-1.3-0.4-3-0.4-4.2,0.2c-3.6,1.8-5.6,6.7-5.2,10.9c0.1,1-1.1,2.1-1.6,3.1c-0.4-0.3-1-0.5-1.4-0.8c1.2-5.7-1.5-12.6,4.9-16.6
		c-0.6-1.4-1.3-3-1.9-4.6c-0.4-1.1-0.5-2.2-0.7-3.3c-0.8,0.7-1.7,1.4-2.3,2.3c-1.4,2-2.8,4-4.4,6.4c0.4,0.3,1.7,1.1,3.3,2.1
		c-1.4,3.7-2.8,7.3-4.4,11.2c-1.7-2.2-2.5-3.9-3.8-4.9c-1.6-1.3-4-2-2.4-5c0.2-0.4-1.5-1.8-2.4-2.8c-0.9,0.8-2.2,1.5-2.6,2.5
		c-0.4,1,0.2,2.4-0.2,3.5c-1.3,3.9-2.9,7.8-4.3,11.7c-0.4-0.2-1-0.4-1.4-0.5c0.1-1.3,0.2-2.6,0.4-3.9c0.2-1,0.5-2,0.7-3
		c0.7-3.7-1.6-5.9-4.8-4.5c-2.2,1-4.1,3-5.7,4.3c-1.6-4.3,2.3-10.5-1.3-16.7c-2.8,2.5-4.9,4.5-7.1,6.5c0.1,0.4,0.3,0.7,0.4,1
		c1.8-0.3,3.5-0.4,5.8-0.8c-3.4,7,1.8,16.1-7.2,21.2c0.4,0.4,0.8,0.9,1.3,1.3c2.4-1.3,4.8-2.5,7.4-3.9c-0.1-0.1,0.5,0.6,1.3,1.4
		c3.7-3.7,1.2-10.4,8.1-13c-0.4,2.8-0.9,5-0.8,7.3c0.1,2,0.9,3.9,1.3,5.8c1.4-1.2,3.3-2.1,4.4-3.5c1.9-2.6,3.3-5.5,5.7-9.5
		c1.7,2.9,3.7,4.8,3.9,7.1c0.5,4.2-3.9,2.6-6.1,3.7c2.9,3.9,4.8,4,7.2,0.6c1.5-2.2,3.2-4.3,4.4-5.8c1.3,2.2,2.2,4.5,3.7,6
		c0.4,0.4,3-1.6,5-2.6c2.2,1.6,5,2.5,7.6-0.5c0.3-0.4,1-0.4,1.5-0.4c2.6-0.3,5.2-0.4,8.9-0.8c1.8,2.2,4.9,1.1,8.4-0.7
		c-1.4,1.9-3.1,3.2-4.7,4.8c-2.1,2.1-4.2,4.2-5.9,6.5c-1.7,2.2-1.8,4.8,1,6.5c3,1.9,5.9,1.2,7.6-1.6c1.4-2.3,2-5.2,2.8-7.8
		c0.8-2.4,1.1-5.3,2.4-7.4c2.2-3.3,5-6.3,8.1-9c2.2-2,5-3.2,7.5-4.8c0.3,0.4,0.6,0.7,0.9,1.2c-0.9,2-2.1,3.9-2.7,5.9
		c-0.4,1.3-0.1,3-0.2,4.4c1.5-0.2,3.2,0.1,4.5-0.6c1.3-0.7,2.2-2.3,3.4-3.7c3,3.5,6.1,4,9.5,1.4c0.4-0.3,1.3-0.5,1.3-0.5
		c2.2,4.6,4.1,0.8,6.2-0.4c0.6,0.7,1.3,1.4,1.6,1.8c2.4-4,4.8-8,7.2-11.9c0.4,0.3,0.8,0.4,1.3,0.7c-0.8,2.2-1.9,4.3-2.4,6.5
		c-0.4,1.6-0.2,3.3,0,4.9c0,0.2,1.8,0.5,1.9,0.4c0.6-1.4,1.2-2.9,1.6-4.4c0.8-3.3,2-6.3,6.5-7.7c-0.7,3.5-1.5,6.2-1.6,8.9
		c-0.1,3.5,2.8,4.3,5.8,5.2c-0.1-1.1-0.1-1.8-0.2-2.4c-0.4-3-0.8-5.9-1.2-8.9c-0.2-1.6,0.3-4.1-0.5-4.7c-1.3-0.9-3.5-0.4-5.4-0.6
		c-3.4-0.3-6.9-0.9-9.2,2.6c0,0-0.2-0.1-0.4-0.2c0.3-1.2,0.5-2.3,1-4.7C489.2,34.7,491.3,41.9,486.7,45.4z M350.4,60.7
		c0,0.1,0,0.2,0,0.3c4.4-0.4,8.9-0.7,13.2-1.3c4.3-0.6,6.2-3.7,5.9-9.3c-0.2-4.8-2.7-8.3-6.6-8.3c-3.1,0-4.4-1.6-5.6-4
		c-0.6-1.3-2.3-3-3.5-3c-2.2,0.1-5.9,0.9-6.2,2.1c-1,4.3-4.4,4.5-7.4,5.8c-1.5,0.7-3.3,2.2-3.6,3.7c-0.5,2.7-0.4,5.6,0,8.4
		c0.7,3.9,3,6.4,7.4,5.8C346.2,60.5,348.3,60.7,350.4,60.7z"/>
	<path class="st0" d="M350.3,369.8c-1.5-13.2-3-25.9-4.7-40c13.5,0,26.1,0,38.7-0.1c15.3-0.2,30.8-0.4,46.1-0.7
		c0.9,0,1.8-0.1,2.7-0.1c13.7-0.3,27.4-0.4,41.2-1c7.4-0.3,14.8-1.4,22.2-1.5c9.1-0.1,18.2,0.1,27.2,0.9c7.2,0.6,10.4,6.4,8.8,13.5
		c-0.3,1.3-0.4,2.8-0.7,5.4c5.7-3.9,10.2-3.6,13.9,2.7c0.4-2.4,0.7-3.7,1-5.5c3.9,3.5,7.8,6.2,10.6,9.9c1.4,1.9,0.9,5.4,1.3,8.5
		c-28.1,0-55.3,0-82.7,0c-0.4-3.2-1-6.3-1.3-9.3c-0.5-5.9-3.3-10.8-9.2-11.4c-7.5-0.9-15.4-2.2-22.8,1.3c-5.2,2.5-8.3,7.2-8.3,12.8
		c0.1,10.9-2.1,9.6-10.3,10.2c-18.4,1.5-36.8,2-55.2,3C363.1,368.7,357.3,369.2,350.3,369.8z M400.9,335c2.6,3.9,4.7,6.5,6.4,9.4
		c1.3,2.4,2.3,5,3.4,7.6c1.7-2.3,3.4-4.6,5-6.9c2.3-3.4,4.6-6.8,7.5-11.3C414.9,334.2,408.1,334.6,400.9,335z M362.7,353.2
		c1.9-1.5,3.3-2.6,4.6-3.8c1.4-1.3,2.8-2.7,4.1-4c3.2-3.3,4-8.4,1.7-10.8s-5.9-1.7-9.8,1.7c-0.2,0.2-0.4,0.2-0.7,0.3
		c-2.2-1.6-5-3.5-6.8-2.8c-1.9,0.8-3.8,3.9-3.9,6.2c-0.2,2.2,1.3,4.8,2.9,6.6C357.1,349.1,360,350.9,362.7,353.2z M398.6,348.7
		c-0.9-1.3-1.9-2.4-2.6-3.7c-0.6-1.2-1.3-2.5-1.3-3.8c0.1-5.3-2.2-8-7.6-8.2c-4.1-0.1-6.7,2.2-8.9,5.6c-2.1,3.2-1.3,5.9,0.5,8.6
		c2,2.9,4.7,4.7,8.3,4C390.8,350.5,394.4,349.6,398.6,348.7z"/>
	<path class="st0" d="M368.7,383.6c1.3,0.3,2.8,0.8,4.1,0.8c13,0.1,26,0.4,39-0.1c14.7-0.6,29.2-2.4,43.9-3.1
		c9.1-0.4,18.2,0.2,27.3,0.2c12.8,0,25.6,0,38.5-0.4c6.5-0.2,13-1.1,19.5-1.9c11.7-1.6,18.1-8.7,18.7-20.3c0-0.5,0.1-1.2,0.2-2.1
		c3.5,1.4,4.9,3.1,3.5,7.2c-3.8,11-15.3,19.5-26.9,19.8c-31.6,0.8-63,1.7-94.6,2.8c-15.4,0.5-30.9,1.9-46.4,2.5
		c-9.1,0.4-18.4,0.7-27.4-0.2c-4.8-0.4-9.4-3.4-13.9-5.6c-4.1-2.1-6.1-6.1-7-10.3c-1.8-8.1-3.3-16.1-4.5-24.3c-1.4-10-2.5-20-3.5-30
		c-0.8-7.8-1.3-15.7-2-23.5c-1.2-14.5-2.2-29-3.3-43.5c-0.4-5.7-0.8-11.6-1.2-17.3c-1.3-22.2-2.3-44.3-3.7-66.4
		c-1-16.6-2.2-33.2-3.6-49.8c-1.8-21.9-2.1-43.8-0.7-65.6c0.4-6.1,0.9-12.2,3.6-18.1c3.7-8.3,10-11.5,18.4-12
		c13.8-0.9,27.5-2,41.3-2.9c9.9-0.6,19.8-1.3,29.8-1.5c23-0.7,45.9-1.2,68.8-1.9c11.1-0.4,22.2-1.3,33.3-1.6
		c4.8-0.2,9.6,0.2,14.2,1.2c8.2,1.8,14.6,10.7,14.9,19.4c0.4,13.7,0.4,27.4,1,41.2c0.4,11.1,1.3,22.2,1.7,33.4
		c0.4,16.3,0.4,32.6,1,49c0.7,23.6,1.6,47.1,2.7,70.6c0.6,14.4,1.7,29,2.5,43.7c-1.8,0.3-3.3,0.5-5.3,0.8c0-11.8,0.4-23.3-0.1-34.8
		c-0.5-15.6-2.1-31.1-2.5-46.7c-0.9-26.1-1.3-52.1-1.8-78.2c-0.4-21.8-0.4-43.6-1.1-65.4c-0.2-6.5-2-12.8-3.2-19.1
		c-1.4-6.9-7.3-8.8-12.8-9.5c-7.9-1-16-0.9-24-1.1c-9.7-0.2-19.5-0.3-29.1,0c-6.6,0.2-13.3,1.2-20,1.3c-9.6,0.4-19.1,0.2-28.7,0.4
		c-16.9,0.4-33.6,1-50.4,1.8c-10.9,0.5-21.9,1.6-32.7,2.6c-9.1,0.8-17.3,9.3-17.4,19c-0.3,19-0.4,38,0.1,57
		c0.4,17.6,1.4,35.1,2.5,52.6c1.2,18.5,3,36.9,4.2,55.5c0.7,11,0.6,22.1,1.2,33.1c0.4,6.8,1.3,13.5,1.9,20.4
		c0.5,6.6,1.1,13.4,1.6,20c1.1,12.6,2.2,25.2,3.4,37.8c0.9,10,1.6,20.1,3,30c1.1,7.7,2.1,15.7,4.8,22.9c2.8,7.4,10.2,9.7,17.8,10.7
		C368.9,383.7,368.7,383.6,368.7,383.6z"/>
	<path class="st0" d="M368.9,383.7c-3.8-1.9-7.6-3.6-11.2-5.8c-2.2-1.3-3.9-3.3-5.7-5c0.2-0.5,0.4-1,0.4-1.5
		c4.9-0.4,9.9-1.2,14.8-1.3c11.9-0.4,23.9-0.4,35.8-1c9.1-0.4,18.3-1.6,27.4-2.7c4.7-0.5,5.6-2.3,5.6-8.9c0-6.6,2.2-12.4,9-14.3
		c7.3-2.1,14.9-2.2,22.2,0.4c4.1,1.3,4.9,5.1,5.6,8.8c0.6,3.7,0.9,7.4,1.3,11.4c27.5,0,55.2,0,83.1,0c-2,8.1-7.5,11.8-14.3,13.5
		c-6.5,1.5-13.1,2.6-19.7,2.7c-16.1,0.4-32.2-0.2-48.2,0.2c-17.8,0.4-35.7,1.6-53.4,2.2c-17.6,0.6-35.2,0.9-52.7,1.3
		C368.7,383.6,368.9,383.7,368.9,383.7z M454.3,374.6c9.6,0.9,15.1-6,15.8-12.9c0.9-9.3-6.6-15.7-14.9-15.8
		c-9.2-0.1-15.4,4.8-15.6,12.5C439.3,368.6,444.5,374.4,454.3,374.6z"/>
	<path class="st0" d="M447.7,220.4c-0.7,8,3,14.9,5.6,22c0.7,2.1,2.1,3.9,3,5.9c3,6.3,2.9,7-2.2,11.9c-0.7,0.7-1.6,1.3-2.3,2.1
		c-5.3,6.1-5.6,6.5-12.3,1.3c-10.1-7.7-20.5-15.2-29.5-24c-6-5.8-7.2-14.3-3.7-22.7c3.1-7.6,9.1-11.7,16.8-12.6
		c6-0.7,11.5,2.2,15.2,6.6c2.8-2.9,5.2-6.3,8.4-8.4s7.3-3,11.7-1.1c-5.2,3.6-10.1,7-11.2,13.4C446.9,216.6,447.6,218.6,447.7,220.4
		C447.8,220.6,447.7,220.4,447.7,220.4z"/>
	<path class="st0" d="M540.6,338.5c1.3,1.4,2.5,3,3.8,4.5c0.1,0.1-0.2,0.5-0.3,1c-1.3-1.1-2.4-2.2-3.9-3.4c-2,0.9-4,1.8-6.8,3
		c0.5-3.2,1-5.9,1.4-8.6c2.2,1.3,4,2.6,5.9,3.8L540.6,338.5z"/>
	<path d="M353.2,83.1c8.1,0,15.2,4.3,17.6,11.8c0.9,2.7-0.6,6.2-0.9,9.3c-0.1,1.3-0.3,2.9,0.4,3.8c1.8,2.7,1.6,5.7-0.4,7.2
		c-1.8,1.3-4.9,0.8-7.5,0.9c-1.1,0.1-2.5-1-3.3-0.6c-12.4,6.6-19.3-3-22.4-12.2C333,93.7,341.5,82.2,353.2,83.1z M353.5,84.9
		c-10-1.2-14.7,5.5-16.1,11.2c-1.5,6.6,4.6,17.9,10.9,19.5c2.8,0.7,6.4-0.4,9.2-1.4c1.2-0.4,1.3-3.1,2.2-4.5c1.1-1.6,2.4-3.6,4-4.1
		c4.8-1.4,7.6-6.5,5-10.9C365.3,89.1,361.1,83.8,353.5,84.9z M368,110.8c-0.9,1-2,2.3-3.6,4.2c-0.4-2.6-0.8-4.6-1.2-6.6
		c-0.9,1.1-2,3-1.4,4.1c0.5,1.3,2.6,2.4,4,2.5c1.2,0.1,3.4-1.4,3.5-2.4c0.3-1.7-0.8-3.6-1.3-5.5c-0.6,0.3-1.3,0.5-1.9,0.8
		C366.7,109.1,367.4,110,368,110.8z"/>
	<path d="M438.5,112.6c-9.7-0.8-18.1-7.3-18.4-17.5c-0.3-9.3,8.1-17.5,17.1-17.4c10.6,0.1,18.2,7.2,17.3,17
		C453.4,105.5,448.5,112.1,438.5,112.6z M452.4,93.3c-0.7-9.6-6.3-14.7-15.6-13.6c-10.2,1.2-15.1,5.8-14.4,18
		c0.3,5.8,8.8,14.5,18.2,13.4C446.3,110.2,453.3,103.6,452.4,93.3z"/>
	<path d="M396.4,115.3c-10,0-17.9-7.9-17.8-17.6c0.1-10.1,8.1-17.2,18.8-17.5c6.5-0.2,16.6,8.3,16.1,16.9
		C412.9,107.2,406.1,116,396.4,115.3z M397,113.6c8.3,1.7,14.9-9.5,14.8-16.3c-0.1-8.6-7.2-15.4-16.5-15.4c-7.7,0-14.8,7.4-15,15.5
		C380.1,106.4,387.8,114.2,397,113.6z"/>
	<path d="M479.7,110c-10.9,0-16.8-6-16.9-17.2c0-9,7.3-16.2,16.4-16c9.9,0.3,16.6,7.3,16.2,17.8C495.3,102.1,490.6,110.5,479.7,110z
		 M479.6,108.2c9.4,1.4,14.4-7.8,14.7-14.2c0.3-8-7.4-16.9-14.2-16.1c-8.1,0.8-14.8,5.7-15.2,12.9C464.5,103,469,108.2,479.6,108.2z
		"/>
	<path d="M537.3,92.6c1.3,9.3-5.5,16.2-17.6,15.6c-9.3-0.4-15.7-7-15.6-17.2c0.1-9.1,8.2-16.9,17.5-16.9
		C530.9,74.2,537.3,81.7,537.3,92.6z M505.7,91.3c0.3,8.4,5.7,15.7,16.1,15.9c8.5,0.2,14.4-6,14.6-14.8c0.2-8.3-7.2-17.5-14.8-16.9
		C513.7,75.9,505.8,81.4,505.7,91.3z"/>
	<path d="M354.3,148.5c-6.6,0-11.6-4.5-11.7-10.6c-0.1-7.7,4.4-10.6,11.4-10.9c6-0.3,11,4.9,11.1,10.9
		C365.2,144.6,361.1,148.6,354.3,148.5z M354.1,129c-5.8,0-9.6,3.2-9.6,8.1c0,5,4.9,10,9.9,10.1c4.9,0.1,8.9-3.9,9-9
		C363.4,132.9,359.4,129,354.1,129z"/>
	<path d="M486.7,45.4c4.7-3.5,2.4-10.7,8.6-14.2c-0.4,2.3-0.7,3.5-1,4.7c0.3,0.1,0.4,0.2,0.4,0.2c2.3-3.6,5.8-2.9,9.2-2.6
		c1.8,0.1,4-0.3,5.4,0.6c0.8,0.5,0.4,3,0.5,4.7c0.4,3,0.8,5.9,1.2,8.9c0.1,0.7,0.1,1.3,0.2,2.4c-3-1-5.9-1.7-5.8-5.2
		c0.1-2.7,1-5.4,1.6-8.9c-4.6,1.4-5.7,4.4-6.6,7.7c-0.4,1.5-0.9,3-1.6,4.4c-0.1,0.2-1.9-0.2-1.9-0.4c-0.2-1.6-0.4-3.4,0-4.9
		c0.5-2.2,1.6-4.3,2.4-6.5c-0.4-0.3-0.8-0.4-1.3-0.7c-2.4,3.9-4.8,7.9-7.2,11.9c-0.4-0.4-1-1.1-1.6-1.8c-2.1,1.3-3.9,4.9-6.2,0.4
		c0,0-0.9,0.3-1.3,0.5c-3.4,2.6-6.5,2.1-9.5-1.4c-1.2,1.3-2.1,3-3.4,3.7c-1.3,0.7-3,0.4-4.5,0.6c0-1.4-0.3-3,0.2-4.4
		c0.6-2.1,1.8-3.9,2.7-5.9c-0.3-0.4-0.6-0.7-0.9-1.2c-2.5,1.6-5.4,2.9-7.5,4.8c-3,2.7-5.7,5.6-8.1,9c-1.4,2.1-1.6,4.8-2.4,7.4
		c-0.9,2.6-1.3,5.5-2.8,7.8c-1.7,2.8-4.7,3.5-7.6,1.6c-2.8-1.7-2.7-4.3-1-6.5c1.8-2.3,3.9-4.4,5.9-6.5c1.5-1.5,3.2-2.9,4.7-4.8
		c-3.4,1.8-6.6,3-8.4,0.7c-3.6,0.4-6.3,0.5-8.9,0.8c-0.5,0.1-1.3,0.1-1.5,0.4c-2.7,3-5.4,2.2-7.6,0.5c-2,1.1-4.7,3-5,2.6
		c-1.6-1.6-2.5-3.9-3.7-6c-1.2,1.5-2.9,3.6-4.4,5.8c-2.2,3.4-4.3,3.3-7.2-0.6c2.2-1,6.6,0.5,6.1-3.7c-0.3-2.2-2.2-4.2-3.9-7.1
		c-2.3,4-3.9,7-5.7,9.5c-1.1,1.4-2.9,2.3-4.4,3.5c-0.4-2-1.3-3.9-1.3-5.8c-0.1-2.2,0.4-4.4,0.8-7.3c-7,2.6-4.5,9.3-8.1,13
		c-0.7-0.8-1.3-1.5-1.3-1.4c-2.6,1.3-5,2.6-7.4,3.9c-0.4-0.4-0.8-0.9-1.3-1.3c9-5.1,3.9-14.2,7.2-21.2c-2.3,0.3-4.1,0.5-5.8,0.8
		c-0.1-0.4-0.3-0.7-0.4-1c2.2-2,4.3-3.9,7.1-6.5c3.7,6.1-0.3,12.3,1.3,16.7c1.6-1.3,3.5-3.3,5.7-4.3c3.3-1.4,5.6,0.8,4.8,4.5
		c-0.2,1-0.5,2-0.7,3c-0.2,1.3-0.3,2.6-0.4,3.9c0.4,0.2,1,0.4,1.4,0.5c1.4-3.9,3-7.7,4.3-11.7c0.4-1.1-0.3-2.5,0.2-3.5
		c0.4-1.1,1.7-1.7,2.6-2.5c0.9,1,2.6,2.3,2.4,2.8c-1.6,3,0.9,3.7,2.4,5c1.3,1.1,2.1,2.7,3.8,4.9c1.5-3.9,2.9-7.5,4.4-11.2
		c-1.6-1.1-2.9-1.8-3.3-2.1c1.6-2.3,3-4.4,4.4-6.4c0.6-0.9,1.6-1.5,2.3-2.3c0.3,1.1,0.4,2.2,0.7,3.3c0.5,1.6,1.3,3.1,1.9,4.6
		c-6.5,3.9-3.9,10.9-4.9,16.6c0.4,0.3,1,0.5,1.4,0.8c0.5-1.1,1.7-2.2,1.6-3.1c-0.4-4.2,1.6-9.1,5.2-10.9c1.2-0.6,3-0.5,4.2-0.2
		c2,0.5,3.7,1.6,6.1,2.7c-0.4,2.3-1.2,5.7-1.8,9.1c0.4,0.3,1,0.5,1.4,0.8c0.9-1.5,2-2.9,2.7-4.5c1.3-2.8,1.8-6.1,3.7-8.3
		c1.8-2.2,4.7-4.5,8.1-1.4c0.4,0.4,1.8-0.1,3.6-0.2c-0.7,3.7-1.3,7.3-2,10.9c0.4,0.2,0.6,0.4,1,0.5c1.8-2.4,3.7-4.8,5.4-7.4
		c0.4-0.6,0.4-2,0.1-2.7c-1.3-2.3-2.2-4.8,0.9-5.9c3-1.1,4.8,0.7,4.5,3.9c2.8,1.6,7.4-3.5,8.1,2.2c0.4,2.7-1.6,5.6-1.9,9.1
		c0.6-0.7,1.3-1.4,1.9-2.2c1.4-2.2,2.6-4.8,4.3-6.7c1.6-1.9,3.6-3.9,5.7-4.6c2.2-0.7,4.9-0.1,7.4,0.3c0.4,0.1,0.8,1.6,0.7,2.5
		C487.8,39.4,487.3,42.2,486.7,45.4z M439.6,47c0.5,0.5,1.6,2.4,3,2.8c2.1,0.6,5.3-4.3,4.9-7.8c-0.1-1.3-1.4-3.3-2.6-3.6
		C442.5,37.9,439.5,42.2,439.6,47z M430.1,46.3c-1.9-2.2-3.1-3.8-4.5-5.3c-1.4,2.2-3.3,4.2-3.9,6.6c-0.4,1.3,1.8,3,2.8,4.7
		C426.2,50.4,427.8,48.6,430.1,46.3z M475.1,45.3c5.6,0,9-3.4,8.2-6.8c-0.2-0.7-3-1.6-3-1.5C478.6,39.4,477.1,42,475.1,45.3z
		 M439.6,65.2c0.5,0.3,1,0.6,1.5,0.9c4.1-1.3,4.4-4.8,3.7-9.1C443,59.8,441.3,62.5,439.6,65.2z"/>
	<path d="M350.4,60.7c-2.1,0-4.2-0.2-6.3,0c-4.5,0.4-6.7-2-7.4-5.8c-0.5-2.8-0.6-5.7,0-8.4c0.3-1.4,2.2-3,3.6-3.7
		c3-1.3,6.4-1.5,7.4-5.8c0.3-1.2,4-2.1,6.2-2.1c1.2,0,2.9,1.7,3.5,3c1.3,2.4,2.3,4,5.6,4c3.9,0,6.5,3.5,6.6,8.3
		c0.2,5.6-1.6,8.7-5.9,9.3c-4.4,0.6-8.8,0.9-13.2,1.3C350.4,60.9,350.4,60.8,350.4,60.7z M351.7,58.9c0,0.2,0,0.3,0.1,0.4
		c3.9-0.5,8-0.7,11.8-1.6c3.5-0.9,4.8-3.9,4.2-7.3c-0.5-3.3-1.7-6.6-5.8-6.7c-3-0.1-4.5-1.4-5.7-3.9c-0.7-1.3-2.3-3.3-3.2-3.1
		c-1.6,0.3-3.6,1.6-4.3,3c-1.3,2.5-2.5,3.9-5.6,4c-4.1,0.4-5.7,3.3-4.8,7.4c1.8,7.4,2.2,7.8,10,7.8
		C349.6,58.9,350.6,58.9,351.7,58.9z"/>
	<path d="M400.9,335c7.2-0.4,14-0.7,22.3-1.2c-3,4.5-5.2,7.9-7.5,11.3c-1.6,2.3-3.3,4.6-5,6.9c-1.2-2.5-2.1-5.2-3.4-7.6
		C405.6,341.5,403.5,338.8,400.9,335z M404.5,336.5c4.5,5.7,7.7,5.6,11.8,0C412.6,336.5,408.7,336.5,404.5,336.5z M417.2,340.2
		c-8.8,3.7-8.8,3.7-5.9,8.9c1-1.4,2-2.9,2.9-4.3C415.3,343.2,416.2,341.7,417.2,340.2z"/>
	<path d="M362.7,353.2c-2.7-2.2-5.6-4-7.8-6.5c-1.5-1.8-3-4.5-2.9-6.6c0.2-2.2,2.1-5.4,3.9-6.2c1.8-0.7,4.7,1.2,6.8,2.8
		c0.3-0.1,0.5-0.1,0.7-0.3c3.9-3.4,7.4-4,9.8-1.7c2.3,2.3,1.5,7.4-1.7,10.8c-1.3,1.3-2.7,2.8-4.1,4
		C366,350.6,364.6,351.6,362.7,353.2z M362.5,340.2c-0.8-1.3-1.1-2.2-1.6-2.5c-1.3-1-2.8-2.3-4.1-2.3c-0.9,0-2.2,2.1-2.6,3.3
		c-1.3,3.5,4.8,11.5,8.6,11.7c0.4,0,1,0,1.3-0.3c2.9-3.1,5.9-6.1,8.3-9.5c0.7-1-0.2-4.5-1-4.8c-1.7-0.5-3.9,0-5.7,0.7
		C364.4,337,363.7,338.6,362.5,340.2z"/>
	<path d="M398.6,348.7c-4.2,0.9-7.8,1.9-11.6,2.5c-3.7,0.7-6.3-1.2-8.3-4c-1.9-2.7-2.6-5.4-0.5-8.6c2.2-3.4,4.8-5.6,8.9-5.6
		c5.4,0.2,7.7,2.9,7.6,8.2c0,1.3,0.6,2.6,1.3,3.8C396.7,346.3,397.7,347.3,398.6,348.7z M394.1,347.3c-0.4-2.5-0.7-4.8-1.3-7.2
		c-0.3-1.4-0.4-3.4-1.4-4c-2.8-1.8-5.9-2.5-9-0.2c-3.2,2.5-4.5,6.5-2.9,9.4c1.7,3.2,5.9,4.9,9.1,3.8
		C390.8,348.4,392.8,347.8,394.1,347.3z"/>
	<path d="M454.3,374.6c-9.8-0.3-15-6-14.7-16.3c0.2-7.7,6.4-12.6,15.6-12.5c8.3,0.1,15.8,6.5,14.9,15.8
		C469.4,368.7,463.9,375.6,454.3,374.6z M454.2,348.5c-8.3-0.8-12.1,3.5-12.3,11.2c-0.1,7.1,4.8,13.8,14.1,13.3
		c6.7-0.4,12.2-5.7,12.3-12.5C468.4,353.7,463,347.4,454.2,348.5z"/>
	<path class="st0" d="M353.5,84.9c7.7-1.2,11.9,4.1,15.4,10c2.6,4.3-0.3,9.4-5,10.9c-1.6,0.4-3,2.5-4,4.1c-1,1.4-1.2,4.1-2.2,4.5
		c-3,1.1-6.5,2.2-9.2,1.4c-6.3-1.6-12.4-13-10.9-19.5C338.8,90.4,343.5,83.8,353.5,84.9z"/>
	<path class="st0" d="M368,110.8c-0.6-1-1.3-1.9-1.9-2.8c0.6-0.3,1.3-0.5,1.9-0.8c0.5,1.8,1.5,3.7,1.3,5.5c-0.1,1-2.3,2.5-3.5,2.4
		c-1.4-0.1-3.5-1.3-4-2.5c-0.5-1.2,0.5-3,1.4-4.1c0.4,2,0.7,3.9,1.2,6.6C366,113.2,367.1,111.9,368,110.8z"/>
	<path class="st0" d="M452.4,93.3c0.9,10.4-6.1,17-11.7,17.7c-9.4,1.2-17.9-7.5-18.2-13.4c-0.6-12.2,4.1-16.9,14.4-18
		C446.1,78.6,451.8,83.6,452.4,93.3z"/>
	<path class="st0" d="M397,113.6c-9.1,0.5-16.9-7.3-16.7-16.3c0.2-8.1,7.2-15.5,15-15.5c9.3,0,16.5,6.8,16.5,15.4
		C411.9,104.1,405.3,115.3,397,113.6z"/>
	<path class="st0" d="M479.6,108.2c-10.6,0-15.1-5.2-14.6-17.4c0.3-7.3,7.1-12.1,15.2-12.9c6.8-0.7,14.4,8.2,14.2,16.1
		C494,100.4,489.1,109.7,479.6,108.2z"/>
	<path class="st0" d="M505.7,91.3c0.3-9.9,8.1-15.4,16-16c7.6-0.5,15,8.7,14.8,16.9c-0.2,8.8-6.1,15-14.6,14.8
		C511.4,107,505.9,99.7,505.7,91.3z"/>
	<path class="st0" d="M354.1,129c5.3,0,9.3,4,9.2,9.1c-0.1,5.1-4,9.1-9,9c-4.9-0.1-9.9-5-9.9-10.1
		C344.5,132.1,348.3,128.9,354.1,129z"/>
	<path class="st0" d="M439.6,47c0-4.8,3-9.1,5.4-8.5c1.2,0.3,2.4,2.2,2.6,3.6c0.4,3.4-2.9,8.3-4.9,7.8
		C441.2,49.3,440.1,47.5,439.6,47z"/>
	<path class="st0" d="M430.1,46.3c-2.2,2.4-3.9,4.2-5.6,6c-1-1.5-3.1-3.4-2.8-4.7c0.6-2.4,2.6-4.4,3.9-6.6
		C426.9,42.5,428.3,44,430.1,46.3z"/>
	<path class="st0" d="M475.1,45.3c2-3.4,3.4-5.9,5.1-8.3c0.1-0.2,2.9,0.7,3,1.5C484.1,41.9,480.7,45.3,475.1,45.3z"/>
	<path class="st0" d="M439.6,65.2c1.7-2.7,3.4-5.4,5.2-8.1c0.7,4.1,0.4,7.7-3.7,9.1C440.5,65.8,440.1,65.5,439.6,65.2z"/>
	<path class="st0" d="M351.7,58.9c-1.1,0-2.1,0-3.1,0c-8,0-8.3-0.3-10-7.8c-1-4,0.6-7,4.8-7.4c3-0.3,4.3-1.5,5.6-4
		c0.7-1.4,2.7-2.8,4.3-3c0.9-0.2,2.5,1.8,3.2,3.1c1.3,2.5,2.7,3.9,5.7,3.9c4,0.1,5.2,3.4,5.8,6.7c0.6,3.5-0.7,6.5-4.2,7.3
		c-3.9,1-7.9,1.1-11.8,1.6C351.7,59.2,351.7,59.1,351.7,58.9z M358,51c-0.1-3-3-5.8-5.9-5.5c-2.7,0.4-4.8,1.6-4.8,4.8
		c0,2.9,2.9,5.6,5.8,5.4C355.9,55.3,358.4,54.4,358,51z"/>
	<path class="st0" d="M404.5,336.5c4.2,0,8.1,0,11.8,0C412.2,342,408.9,342.2,404.5,336.5z"/>
	<path class="st0" d="M417.2,340.2c-1,1.5-2,3-3,4.6c-1,1.4-1.9,2.9-2.9,4.3C408.4,343.8,408.4,343.8,417.2,340.2z"/>
	<path class="st0" d="M362.5,340.2c1.3-1.6,1.9-3.2,3-3.7c1.8-0.7,4-1.3,5.7-0.7c0.8,0.3,1.7,3.8,1,4.8c-2.4,3.4-5.5,6.5-8.3,9.5
		c-0.3,0.3-0.8,0.3-1.3,0.3c-3.8-0.1-9.9-8.2-8.6-11.7c0.4-1.3,1.7-3.3,2.6-3.3c1.3,0,2.9,1.3,4.1,2.3
		C361.5,338.1,361.6,338.9,362.5,340.2z"/>
	<path class="st0" d="M394.1,347.3c-1.3,0.4-3.3,1.1-5.4,1.8c-3.1,1.2-7.4-0.5-9.1-3.8c-1.6-2.9-0.4-6.8,2.9-9.4
		c3-2.3,6.2-1.7,9,0.2c1,0.6,1.2,2.6,1.4,4C393.4,342.5,393.7,344.9,394.1,347.3z"/>
	<path class="st0" d="M454.2,348.5c8.8-1.2,14.3,5.2,14.1,12c-0.2,6.7-5.6,12-12.3,12.5c-9.4,0.6-14.3-6.1-14.1-13.3
		C442.1,352.1,445.9,347.7,454.2,348.5z"/>
	<path d="M358,51c0.4,3.4-2.1,4.3-4.9,4.6c-3,0.4-5.8-2.5-5.8-5.4c0-3.2,2.2-4.4,4.8-4.8C354.9,45.2,357.9,48,358,51z M357.1,51.6
		c-0.1-0.8-0.1-1.6-0.2-2.3c-2.2-0.5-4.4-1.3-6.6-1.6c-0.4-0.1-1.5,1.9-1.3,2.3c0.8,1.4,2,3.4,3.2,3.6
		C353.8,53.8,355.5,52.3,357.1,51.6z"/>
	<path class="st0" d="M357.1,51.6c-1.6,0.7-3.3,2.2-4.8,2.1c-1.3-0.2-2.4-2.2-3.2-3.6c-0.3-0.4,1-2.4,1.3-2.3c2.2,0.4,4.4,1,6.6,1.6
		C357.1,50,357.1,50.8,357.1,51.6z"/>
</g>
<path class="st4" d="M567.2,479.1c-0.8,3.4-4,19.5-5.7,26.5c-1,4.3-2,8.4-2.6,11.1c-0.1,0.5-13,59.1-13.1,59.5
	c-0.4-0.1,0,0.5-0.6,0.4c0.1-0.4,12.7-59.6,12.8-60.2c0.8-3.4,1.7-9,3.3-14.5c1.8-6.4,3.3-20.4,5-23.3
	C566.8,479,567,478.6,567.2,479.1z"/>
<path class="st4" d="M685.1,483.8c0,3.5,0.9,19.9,1.1,27.1c0.1,4.5,0.2,8.7,0.2,11.4c0,0.5,2.2,60.5,2.2,60.8
	c-0.4,0,0.1,0.5-0.4,0.5c0-0.4-2.6-60.9-2.7-61.5c-0.1-3.5-0.6-9.1-0.4-14.8c0.1-6.6-1.8-20.5-1-23.8
	C684.6,483.8,684.8,483.4,685.1,483.8z"/>
<path class="st4" d="M688.3,572.5c0.1,3.5,0.7,19.9,0.9,27.1c0.1,4.4,0.2,8.6,0.3,11.3c0,0.5,1.9,60.3,1.9,60.7
	c-0.2,0,0,0.5-0.2,0.5c0-0.4-2.1-60.8-2.1-61.4c-0.1-3.5-0.4-9.1-0.4-14.8c-0.1-6.6-1.1-20.6-0.8-23.7
	C688.1,572.5,688.1,572.1,688.3,572.5z"/>
<path class="st4" d="M546.4,573.7c-0.9,3.4-4.9,19.2-6.8,26.2c-1.1,4.3-2.2,8.3-2.9,11c-0.1,0.5-15.2,58.4-15.3,58.8
	c-0.1,0-0.1,0.5-0.2,0.4c0.1-0.4,15.2-58.9,15.3-59.4c0.9-3.4,2.2-8.9,3.7-14.3c1.8-6.3,4.9-20,5.9-23
	C546.3,573.6,546.4,573.2,546.4,573.7z"/>
</svg>
