<?xml version="1.0" encoding="utf-8"?>
<!-- Generator: Adobe Illustrator 23.0.3, SVG Export Plug-In . SVG Version: 6.00 Build 0)  -->
<svg version="1.1" id="Capa_1" xmlns="http://www.w3.org/2000/svg" xmlns:xlink="http://www.w3.org/1999/xlink" x="0px" y="0px"
	 viewBox="0 0 842 493" style="enable-background:new 0 0 842 493;" xml:space="preserve">
<style type="text/css">
	.st0{fill:#FFFFFF;}
</style>
<path class="st0" d="M396.22,491.39c-19.36,0-38.72,0-58.09,0c0.33-0.88,0.57-1.78,0.99-2.62c4.54-8.97,9.15-17.91,13.67-26.89
	c1.8-3.59,3.42-7.23,5.27-11.15c5.26,0.22,10.52,0.46,15.78,0.64c5.17,0.17,10.34,0.38,15.52,0.35c5.13-0.03,10.24,1.19,15.4,0.2
	c-15.21-1.69-30.56-1.29-46.22-2.35c5.19-11.99,10.28-23.72,15.44-35.64c10.36-0.2,20.5-0.39,30.64-0.59
	c-0.76-0.41-1.53-0.5-2.29-0.5c-7.53,0.04-15.06,0.1-22.59,0.13c-1.62,0.01-3.23-0.08-5.31-0.13c5.6-11.78,10.99-23.12,16.51-34.73
	c7.09,0.43,14.17,0.86,21.24,1.29c0.01-0.15,0.03-0.29,0.04-0.44c-6.83-0.56-13.66-1.12-20.79-1.7c0.44-1.14,0.74-2.01,1.12-2.86
	c2.65-5.99,5.24-12,8.01-17.95c1.03-2.21,2.49-4.29,3.71-6.35c2.29,0,4.12,0,5.95,0c-0.77-0.46-1.54-0.54-2.31-0.61
	c-0.75-0.07-1.49-0.13-2.46-0.22c0.21-0.84,0.37-1.48,0.55-2.23c-2.67,2.35-3.08,2.53-6.08,2.44c-5.73-0.18-11.46-0.35-17.19-0.6
	c-1.39-0.06-2.77-0.42-4.59-0.71c0.72-1.15,1.18-1.96,1.72-2.73c3.02-4.23,6.08-8.44,9.09-12.67c1.59-2.24,3.04-4.54,4.68-6.75
	c0.93-1.24,1.94-2.57,4.14-2.42c1.82,0.09,3.64,0.17,5.46,0.26c0-0.21-0.01-0.41-0.01-0.62c-1.82,0.12-3.63,0.24-5.45,0.36
	c-0.87-1.48,0.11-2.62,0.99-3.79c1.63-2.17,3.26-4.34,4.89-6.52c1.66-1.17,2.85-2.61,3.58-4.31c-1.4,1.32-3.36,2.34-3.51,4.36
	c-0.43,0.23-1,0.39-1.27,0.71c-1.78,2.13-3.57,4.27-5.22,6.47c-1.1,1.46-2.46,2.31-4.62,2.28c-4.72-0.07-9.44-0.08-14.16-0.11
	l0.11,0.06c-3.01-0.14-6.03-0.27-9.04-0.44c-1.05-0.06-2.29,0.29-3.08-0.87c0.31-0.43,0.59-0.92,0.98-1.35
	c2.36-2.59,4.75-5.15,7.13-7.73c4.88-5.3,9.49-10.78,15.21-15.54c1.33-1.1,2.61-1.51,4.43-1.46c3.27,0.08,6.54-0.03,9.82-0.05
	c0-0.19,0-0.38,0-0.56c-3.73-0.1-7.53,0.58-11.34-0.36c1.02-1.78,1.95-3.41,2.88-5.03c1.24-1.14,2.59-2.2,3.68-3.42
	c1.58-1.76,2.97-3.64,4.43-5.47c1.77-1.47,1.77-1.47,2.06-3.21c-1.08,1.16-2.25,1.88-1.99,3.26c-1.84,1.74-3.77,3.42-5.49,5.24
	c-1.05,1.11-1.78,2.41-2.66,3.63c-1.05,1.02-2.38,1.93-3.09,3.09c-1.14,1.86-2.82,2.43-5.18,2.4c-5.03-0.06-10.05-0.02-12.81-0.02
	c2.99,0.1,8.25,0.28,13.5,0.49c0.36,0.01,0.7,0.3,1.09,0.48c-0.29,0.38-0.43,0.64-0.66,0.84c-7.98,6.83-14.3,14.74-21.28,22.23
	c-2.33,2.51-4.81,4.02-8.75,3.48c-0.8-0.11-1.64-0.02-2.46-0.02c0,0.04,0,0.07,0,0.11c2.14,0.09,4.29,0.18,6.78,0.28
	c-0.49,0.75-0.65,1.09-0.92,1.37c-6.47,6.76-13.03,13.47-19.36,20.31c-1.85,2-4.07,2.77-6.89,2.75c-9.1-0.07-18.21-0.18-27.31-0.26
	c-1.95-0.02-3.91,0-6.14,0c12.17,1.42,24.14,0.61,36.55,0.77c-0.58,0.85-0.79,1.26-1.11,1.61c-7.7,8.32-15.42,16.63-23.09,24.97
	c-0.71,0.77-1.48,0.99-2.57,1.01c-6.39,0.11-12.78,0.31-19.17,0.39c-6.63,0.08-13.27,0.05-19.9,0.08c-0.47,0-0.94,0.08-1.41,0.13
	c0.37,0.48,0.75,0.63,1.14,0.64c3.26,0.07,6.53,0.23,9.78,0.14c8.76-0.23,17.52-0.58,26.29-0.85c1.27-0.04,2.66-0.28,3.89,0.68
	c-0.38,0.52-0.69,1-1.06,1.44c-6.15,7.3-12.27,14.62-18.47,21.88c-3.1,3.63-6.36,7.17-9.52,10.77c-0.7,0.8-1.48,1.28-2.77,1.26
	c-8.64-0.13-17.29-0.21-25.93-0.29c-0.13,0-0.27,0.25-0.54,0.52c0.5,1.08,1.77,0.9,2.77,0.91c4.83,0.04,9.66,0.01,14.49,0.01
	c2.97,0,5.94,0,9.65,0c-6.45,6.82-12.69,12.98-18.76,19.25c-6.08,6.28-11.68,12.88-17.83,19.71c-22.79-0.28-46.18-0.11-69.5,1.84
	c22.72-0.61,45.43-1.31,68.79-0.57c-1.69,2.11-2.9,3.84-4.36,5.43c-5.36,5.83-10.72,11.66-16.24,17.4
	c-4.32,4.49-8.88,8.83-13.3,13.27c-0.61,0.61-0.99,1.38-1.48,2.08c-27.92,0-55.83,0-83.75,0c0.21-0.41,0.3-0.92,0.65-1.22
	c3.35-2.88,6.67-5.77,10.13-8.55c4.58-3.69,9.34-7.23,13.9-10.93c8.4-6.83,16.59-13.83,25.07-20.59
	c7.68-6.11,15.67-11.95,23.46-17.97c4.59-3.54,9.07-7.17,13.54-10.72c4.46,1.61,8.71,2.74,13.52,2.13
	c4.82-0.62,8.54-2.56,11.42-5.31c1.55,0.25,2.75,0.58,3.96,0.61c1.2,0.02,2.77,0.08,3.53-0.48c2.51-1.84,4.92-3.84,6.14-6.51
	c0.75-1.64,0.01-2.84-2.06-3.53c-1.01-0.34-2.12-0.49-3.5-0.8c0.18-1.03,0.36-2.01,0.51-2.99c0.43-2.83,1.02-5.65,1.18-8.49
	c0.08-1.35,0.25-2.42,1.36-3.52c3.59-3.56,6.93-7.29,10.52-10.85c5.97-5.91,11.96-11.8,18.11-17.58
	c6.68-6.26,13.52-12.4,20.36-18.55c10.02-9.02,20.11-17.98,30.14-26.99c9.11-8.19,18.14-16.45,27.26-24.64
	c4.56-4.09,9.24-8.1,13.88-12.14c4.56-3.97,9.13-7.92,13.68-11.9c7.95-6.94,15.87-13.89,23.83-20.83c0.39-0.34,0.96-0.55,1.69-0.95
	c0.07,1.05,0.16,1.79,0.16,2.52c0.03,6.48-0.1,12.96,0.11,19.44c0.29,8.8,0.78,17.59,1.29,26.39c0.43,7.4,0.93,14.81,1.56,22.2
	c0.89,10.44,2.04,20.87,2.86,31.32c0.93,11.84,1.56,23.69,2.4,35.53c0.88,12.33,0.7,24.64-0.09,36.97
	c-0.37,5.83-0.5,11.68-0.51,17.51c-0.01,7.88,0.24,15.75,0.3,23.63c0.07,9.27,0.05,18.54,0.07,27.81c-5.85,0-11.71,0-17.56,0
	c1.3-4.21,2.58-8.43,3.9-12.64c2.47-7.88,5.03-15.74,7.42-23.63c1.5-4.94,2.78-9.92,4.11-14.88c0.21-0.77,0.18-1.58,0.27-2.37
	c-0.9,0.7-1.32,1.51-1.57,2.35c-1.34,4.59-2.59,9.2-3.95,13.78c-1.68,5.66-3.41,11.31-5.15,16.96
	C400.5,477.78,398.35,484.58,396.22,491.39z M359.32,293.84c-0.01,0.18-0.03,0.36-0.04,0.54c2.92,0.53,5.9,0.32,8.89-0.01
	C365.22,294.2,362.27,294.02,359.32,293.84z M396.74,277.91c0.03,0.04,0.06,0.09,0.09,0.13c1.3,0,2.6,0,3.9,0c0-0.04,0-0.09,0-0.13
	C399.39,277.91,398.06,277.91,396.74,277.91z M389.36,277.1c-0.03,0.14-0.07,0.28-0.1,0.42c1.22,0,2.43,0,3.65,0
	c0-0.1,0-0.2-0.01-0.29C391.72,277.18,390.54,277.14,389.36,277.1z M343.79,321.94c0,0.01,0,0.02,0,0.03c0.7,0,1.41,0,2.11,0
	c0-0.01,0-0.02,0-0.03C345.2,321.94,344.49,321.94,343.79,321.94z M330.27,321.33c-0.01,0.06-0.01,0.11-0.02,0.17
	c0.41,0.05,0.82,0.14,1.23,0.15c0.32,0,0.64-0.09,0.96-0.14c-0.02-0.06-0.04-0.11-0.06-0.17
	C331.68,321.33,330.98,321.33,330.27,321.33z M409.42,343.45c-0.12-0.07-0.24-0.13-0.36-0.2c-0.32,0.38-0.63,0.76-0.95,1.14
	c0.12,0.07,0.24,0.14,0.36,0.2C408.79,344.21,409.11,343.83,409.42,343.45z M385.46,276.94c-0.03-0.08-0.06-0.17-0.09-0.25
	c-0.49,0.03-0.98,0.06-1.46,0.09c0,0.05,0.01,0.11,0.01,0.16C384.43,276.94,384.95,276.94,385.46,276.94z M339.62,322.07
	c0.04-0.08,0.08-0.17,0.12-0.25c-0.51,0-1.02,0-1.53,0c0,0.06-0.01,0.11-0.01,0.17C338.67,322.02,339.14,322.05,339.62,322.07z"/>
<path d="M-2.28,173.63c5.37-3.19,10.81-6.31,16.1-9.58c14.01-8.67,28.04-17.33,41.9-26.15c10.76-6.85,21.4-13.84,31.9-20.96
	c6.75-4.58,13.16-9.51,19.66-14.34c0.67-0.5,0.99-1.36,1.31-2.1c0.21-0.51,0.19-1.1,0.18-1.65c-0.27-11.49-0.51-22.98-0.83-34.46
	c-0.19-7.04-0.36-14.08-0.78-21.11c-0.83-13.87-1.83-27.74-2.75-41.61c-0.04-0.55,0.02-1.1,0.03-1.66c0.9,0,1.8,0,2.7,0
	c0.36,9.63,0.76,19.27,1.08,28.9c0.16,4.82,0.08,9.64,0.28,14.46c0.29,7.13,0.83,14.25,1.1,21.38c0.37,9.72,0.56,19.45,0.9,29.17
	c0.08,2.39,0.44,4.78,0.69,7.43c3.63,0.19,7.06,0.48,10.5,0.52c16.65,0.18,33.3,0.43,49.95,0.39c11.24-0.03,22.48-0.65,33.72-0.74
	c12.14-0.1,24.29,0.2,36.43,0.14c7.18-0.04,14.37-0.47,21.55-0.67c4.05-0.11,8.1-0.09,12.15-0.18c8.32-0.18,16.63-0.43,24.95-0.6
	c3.6-0.07,7.2,0.02,10.8-0.03c14.62-0.18,29.24-0.38,43.85-0.57c14.29-0.19,28.57-0.51,42.86-0.54c10.34-0.02,20.68,0.5,31.02,0.47
	c9.67-0.03,19.35-0.23,28.99-0.78c21.55-1.23,43.12-2.09,64.73-2.05c16.42,0.03,32.84,0.18,49.25,0.37
	c16.54,0.19,33.07,0.59,49.6,0.7c6.51,0.04,13.02-0.55,19.54-0.71c7.08-0.18,14.2,0.12,21.24-0.36c11.33-0.77,22.7-0.11,34.04-1.2
	c9.13-0.88,18.4-0.77,27.61-1.11c0.77-0.03,1.53-0.11,2.52-0.19c0.17-0.88,0.42-1.68,0.46-2.49c0.44-8.8,1.02-17.6,1.23-26.4
	c0.29-12.14,0.27-24.28,0.43-36.42c0.09-6.67,0.24-13.35,0.48-20.02c0.11-2.96,0.51-5.91,0.78-8.86c0.68,0,1.35,0,2.03,0
	c-0.39,6.01-0.93,12.02-1.12,18.03c-0.27,8.71-0.22,17.42-0.42,26.13c-0.23,10.19-0.48,20.37-0.91,30.55
	c-0.34,8.04-1.3,16.08-1.38,24.12c-0.09,9.16,0.51,18.33,0.8,27.49c0.16,5,0.29,10,0.42,15c0.23,8.89,0.62,17.78,0.61,26.67
	c-0.01,7.96-0.49,15.93-0.75,23.89c-0.08,2.41-0.16,4.82-0.16,7.22c0,9.17,0.03,18.33,0.06,27.5c0.04,14.83,0.01,29.65,0.17,44.48
	c0.13,12.14,0.43,24.28,0.78,36.41c0.24,8.24,0.86,16.48,1.01,24.72c0.18,10,0.17,20.01,0.04,30.01
	c-0.19,14.27,0.08,28.53,0.51,42.8c0.23,7.59,0.21,15.2,0.1,22.79c-0.08,4.9-0.72,9.8-0.79,14.71c-0.11,7.96-0.32,15.91,0.64,23.88
	c0.61,5.05,0.28,10.18,0.35,15.28c0.04,3.24,0.04,6.47,0.05,9.71c-0.45,0-0.9,0-1.35,0c-0.22-7.32-0.44-14.63-0.67-21.95
	c-0.26-8.43-0.73-16.85-0.74-25.28c-0.01-7.13,0.77-14.26,0.75-21.4c-0.03-12.61-0.53-25.22-0.59-37.82
	c-0.04-10.66,0.49-21.32,0.38-31.98c-0.16-14.46-0.72-28.91-1.05-43.37c-0.24-10.48-0.37-20.95-0.58-31.43
	c-0.25-12.61-0.68-25.21-0.77-37.82c-0.07-10.19,0.26-20.39,0.4-30.58c0.02-1.76,0.12-3.53-0.02-5.28
	c-0.7-8.44,0.24-16.86,0.53-25.29c0.18-5.37,0.18-10.75,0.06-16.13c-0.27-12.14-0.63-24.28-1.01-36.43
	c-0.27-8.52-0.64-17.04-0.95-25.56c-0.06-1.73-0.01-3.47-0.01-5.36c-4.32,0-8.35-0.19-12.35,0.03c-17.06,0.96-34.12,1.8-51.22,2.1
	c-9.66,0.17-19.31,0.8-28.97,0.98c-11.36,0.21-22.73,0.26-34.09,0.19c-10.91-0.06-21.81-0.39-32.72-0.55
	c-16.42-0.23-32.84-0.56-49.27-0.55c-10.79,0.01-21.58,0.5-32.36,0.84c-8.65,0.27-17.3,0.64-25.95,0.94
	c-9.1,0.31-18.2,0.75-27.3,0.84c-6.97,0.07-13.94-0.3-20.92-0.47c-0.89-0.02-1.77,0-2.85,0c-0.19,0.67-0.48,1.27-0.5,1.87
	c-0.27,10-1.08,20.03-0.6,30.01c0.5,10.48,0.5,20.95,0.34,31.42c-0.15,9.55-0.83,19.09-0.83,28.63c0,8.89,0.19,17.8,1,26.66
	c1.73,18.98,0.92,37.98,1.27,56.98c0.2,10.74,1.03,21.48,1.74,32.21c0.67,10.08,1.5,20.16,2.39,30.23c0.74,8.5,1.8,16.99,2.46,25.49
	c0.71,9.16,1.01,18.33,1.7,27.49c0.89,11.78-0.24,23.53-0.48,35.29c-0.25,12.04,0.04,24.09,0.09,36.13
	c0.04,9.08,0.07,18.17,0.12,27.25c0,0.55,0.11,1.09,0.17,1.64c-0.68,0-1.35,0-2.03,0c-0.02-9.27,0-18.54-0.07-27.81
	c-0.06-7.88-0.31-15.75-0.3-23.63c0.01-5.84,0.14-11.68,0.51-17.51c0.78-12.33,0.97-24.64,0.09-36.97
	c-0.85-11.84-1.48-23.69-2.4-35.53c-0.82-10.45-1.97-20.88-2.86-31.32c-0.63-7.39-1.13-14.8-1.56-22.2
	c-0.51-8.79-1-17.59-1.29-26.39c-0.21-6.47-0.07-12.96-0.11-19.44c0-0.73-0.09-1.47-0.16-2.52c-0.73,0.4-1.3,0.61-1.69,0.95
	c-7.95,6.93-15.88,13.89-23.83,20.83c-4.55,3.97-9.12,7.93-13.68,11.9c-4.63,4.04-9.32,8.04-13.88,12.14
	c-9.12,8.19-18.15,16.44-27.26,24.64c-10.02,9.02-20.12,17.98-30.14,26.99c-6.83,6.15-13.68,12.29-20.36,18.55
	c-6.16,5.77-12.15,11.67-18.11,17.58c-3.59,3.56-6.94,7.29-10.52,10.85c-1.1,1.1-1.28,2.16-1.36,3.52
	c-0.17,2.84-0.76,5.66-1.18,8.49c-0.15,0.98-0.33,1.96-0.51,2.99c1.38,0.31,2.49,0.46,3.5,0.8c2.08,0.69,2.81,1.89,2.06,3.53
	c-1.22,2.68-3.63,4.68-6.14,6.51c-0.76,0.56-2.34,0.51-3.53,0.48c-1.21-0.02-2.41-0.35-3.96-0.61c-2.88,2.75-6.6,4.7-11.42,5.31
	c-4.81,0.62-9.05-0.52-13.52-2.13c-4.47,3.54-8.95,7.18-13.54,10.72c-7.8,6.01-15.78,11.86-23.46,17.97
	c-8.49,6.75-16.68,13.75-25.07,20.59c-4.56,3.71-9.32,7.25-13.9,10.93c-3.46,2.78-6.78,5.68-10.13,8.55
	c-0.35,0.3-0.44,0.81-0.65,1.22c-0.68,0-1.35,0-2.03,0c0.49-0.68,0.83-1.47,1.48-2.01c5.62-4.67,11.29-9.3,16.97-13.93
	c6.8-5.54,13.54-11.12,20.45-16.56c11.54-9.09,23.21-18.07,34.78-27.13c2.44-1.91,4.71-3.98,7.08-5.96c2.28-1.9,4.58-3.77,7.12-5.86
	c-2.96-6.15-1.86-12.86-1.94-19.49c-0.04-3.06-0.12-6.12-0.02-9.18c0.17-5.18,0.56-10.37,0.66-15.55c0.06-2.93-0.47-5.86-0.37-8.78
	c0.05-1.4,0.65-2.93,1.52-4.14c1.31-1.81,2.89-3.55,4.69-5.04c3.65-3,7.36-5.99,11.38-8.65c3.69-2.43,8.19-2.39,12.54-1.33
	c2.26,0.55,3.65,1.92,4.94,3.78c2.07,3.01,1.72,6.09,1.87,9.18c0.19,3.97,0.03,7.96,0.02,11.94c0,6.18,0,12.37,0,19.05
	c2.71-1.92,4.26-4.01,5.93-5.98c0.31-0.37,0.06-1.07,0.03-1.62c-0.32-5.65-0.85-11.29-0.94-16.94c-0.16-10.94-0.08-21.88-0.09-32.83
	c-0.01-10.75,0.05-21.5-0.05-32.24c-0.11-11.4-0.46-22.8-0.55-34.2c-0.16-20.12-0.21-40.24-0.31-60.36c-0.01-2.6-0.11-5.2,0.05-7.79
	c0.07-1.12,0.69-2.22,1.1-3.47c5.18,1.45,9.92,2.83,14.71,4.1c11.43,3.02,22.9,5.95,34.33,8.99c2.41,0.64,4.7,1.57,6.8,2.27
	c0,4.33-0.07,8.2,0.01,12.07c0.19,8.52,0.69,17.05,0.64,25.57c-0.05,11.03-0.66,22.05-0.75,33.08c-0.08,9.64,0.12,19.28,0.43,28.91
	c0.21,6.3,0.84,12.58,1.3,18.87c0.04,0.61,0.26,1.2,0.49,2.28c2.04-1.77,3.76-3.2,5.39-4.68c8.23-7.49,16.34-15.06,24.67-22.47
	c8.86-7.89,17.9-15.64,26.93-23.4c1.27-1.09,1.83-2.15,1.78-3.67c-0.28-8.34-0.58-16.68-0.61-25.02
	c-0.04-10.93,0.17-21.87,0.29-32.81c0-0.27,0.16-0.53,0.34-1.07c0.82,0.09,1.72,0.04,2.46,0.3c5.17,1.78,10.34,3.59,15.44,5.51
	c0.75,0.28,1.46,1.17,1.62,1.86c0.41,1.81,0.66,3.67,0.69,5.51c0.15,8.7,0.2,17.41,0.31,26.12c0.01,0.9,0.15,1.79,0.27,3.22
	c1.07-0.86,1.7-1.33,2.27-1.83c4.76-4.19,9.44-8.46,14.32-12.56c1.47-1.24,2.17-2.51,2.08-4.16c-0.4-7.59-0.8-15.18-1.2-22.77
	c-0.16-3.05-0.3-6.11-0.46-9.16c-0.14-2.78-0.36-5.56-0.43-8.34c-0.06-2.48-1.25-4.09-4.2-5.07c-6.97-2.33-13.81-4.91-20.72-7.36
	c-12.99-4.61-25.92-9.35-39.02-13.75c-13.1-4.4-26.34-8.52-39.58-12.61c-11.14-3.44-22.44-6.54-33.57-10.02
	c-7.66-2.39-15.13-5.19-22.71-7.77c-13.18-4.49-26.35-9.01-39.57-13.43c-17.19-5.74-34.11-11.94-50.74-18.7
	c-6.65-2.7-13.48-5.11-19.98-8.03c-4.7-2.11-9.49-3.21-14.8-3.05c-3.12,0.09-6.25,0.02-9.54,0.02c-0.11,0.33-0.31,0.67-0.33,1.01
	c-0.65,8.79-1.52,17.56-1.44,26.38c0.03,3.33-0.58,6.65-0.82,9.98c-0.19,2.68-0.56,5.38-0.35,8.05c0.88,11.42-0.5,22.78-1.1,34.16
	c-0.38,7.12-0.23,14.27,0,21.4c0.27,8.24,0.97,16.47,1.35,24.71c0.12,2.59-0.19,5.18-0.25,7.78c-0.2,8.8-0.42,17.6-0.55,26.41
	c-0.18,12.51-0.3,25.03-0.42,37.54c-0.11,11.77-0.12,23.54-0.31,35.3c-0.22,13.26,1.14,26.48,1.44,39.73
	c0.27,11.96,0.14,23.92,0.22,35.88c0.08,12.89,0.23,25.77,0.25,38.66c0.01,9.09-0.04,18.18-0.27,27.26
	c-0.11,4.63-0.67,9.25-1.03,13.87c-0.68,0-1.35,0-2.03,0c0.16-1.56,0.41-3.12,0.47-4.68c0.36-10.56,0.86-21.13,0.97-31.69
	c0.1-9.35-0.32-18.71-0.39-28.06c-0.04-6.21,0.19-12.42,0.22-18.63c0.04-7.51,0.1-15.02-0.05-22.53c-0.2-9.73-0.79-19.45-0.87-29.18
	c-0.17-22.53-0.16-45.06-0.14-67.58c0.01-5.28,0.49-10.56,0.5-15.84c0.01-9.17-0.24-18.34-0.24-27.52c0-3.52,0.56-7.04,0.5-10.55
	c-0.13-7.4-0.5-14.81-0.77-22.21c-0.09-2.41-0.27-4.82-0.27-7.23c0-8.99-0.02-17.98,0.14-26.97c0.07-3.79,0.72-7.58,0.83-11.38
	c0.16-5.83,0.13-11.66,0.08-17.5c-0.03-4.36-0.18-8.7,0.88-13.01c0.27-1.08,0.19-2.21,0.24-3.33c0.41-7.68,0.83-15.35,1.2-23.03
	c0.1-2.11,0.02-4.23,0.02-6.68c-0.68,0.37-1.13,0.56-1.51,0.83c-6.55,4.66-12.94,9.47-19.66,13.95
	c-10.74,7.17-21.62,14.21-32.57,21.16c-18.09,11.47-36.28,22.83-54.44,34.22c-0.8,0.5-1.68,0.9-2.53,1.35
	C-2.28,174.74-2.28,174.18-2.28,173.63z M405.83,100.04c-3.54,0-7.23-0.03-10.92,0c-10.44,0.09-20.89,0.15-31.33,0.32
	c-10.79,0.17-21.58,0.53-32.38,0.67c-19.22,0.25-38.44,0.39-57.66,0.6c-4.92,0.05-9.85,0.17-14.77,0.35
	c-4.71,0.17-9.41,0.63-14.12,0.68c-14.17,0.14-28.35,0.06-42.52,0.22c-21.93,0.25-43.85,0.63-65.78,0.97
	c-0.6,0.01-1.2,0.12-1.8,0.18c3.38,2.04,6.85,3.66,10.45,5.07c10.85,4.25,21.71,8.51,32.66,12.6c10.62,3.97,21.31,7.81,32.04,11.59
	c8.57,3.02,17.24,5.83,25.83,8.8c7.66,2.64,15.19,5.54,22.93,8.02c14,4.5,28.1,8.81,42.19,13.13c8.42,2.58,16.97,4.87,25.31,7.59
	c12,3.92,23.86,8.12,35.77,12.22c10.88,3.74,21.76,7.49,32.62,11.28c3.48,1.22,6.87,2.59,10.31,3.9c0.33-9.89,0.81-19.52,0.92-29.15
	c0.15-13.81,0-27.62,0.04-41.43C405.63,118.6,405.75,109.53,405.83,100.04z M251.49,197.77c0,2.19,0,4.04,0,5.88
	c-0.02,8.61-0.05,17.22-0.05,25.83c0,10.47-0.05,20.94,0.08,31.4c0.15,11.96,0.57,23.91,0.69,35.87c0.1,9.27-0.19,18.53-0.1,27.8
	c0.06,6.94,0.4,13.89,0.7,20.83c0.24,5.65,0.69,11.29,0.87,16.93c0.12,3.89-0.11,7.78-0.08,11.67c0.02,3,0.19,6.01,0.32,9.43
	c0.78-0.58,1.13-0.78,1.4-1.04c5.76-5.56,11.38-11.22,17.28-16.68c10.7-9.89,21.53-19.67,32.38-29.44c1.56-1.4,2.31-2.79,2.18-4.7
	c-0.64-9.06-1.36-18.12-1.68-27.19c-0.31-8.52-0.22-17.04-0.18-25.56c0.02-4.81,0.3-9.63,0.43-14.44c0.1-3.71,0.13-7.41,0.21-11.12
	c0.1-4.54,0.42-9.08,0.3-13.61c-0.2-7.78-0.66-15.56-1.02-23.34c-0.06-1.37-0.13-2.73-0.21-4.25
	C287.2,207.3,269.62,202.61,251.49,197.77z M244.1,354.87c-0.4-0.04-0.79-0.08-1.19-0.12c-0.3,1.11-0.79,2.2-0.85,3.32
	c-0.12,2.25-0.55,4.24-3.59,5.07c-1.16,0.31-2.28,0.74-3.38,1.17c-0.66,0.26-1.42,0.53-1.86,0.98c-4.34,4.39-10.05,5.62-16.58,4.98
	c-1.76-0.17-3.5-0.51-5.38-0.8c-0.25,4.4-0.63,8.72-0.71,13.04c-0.14,7.51-0.11,15.02-0.1,22.53c0,3.06-0.06,6.12,0.21,9.16
	c0.41,4.71,2.77,6.94,8.37,7.65c5.55,0.71,10.81,0.05,14.8-3.69c0.56-0.53,1.23-1.27,1.2-1.9c-0.12-2.76-0.46-5.51-0.76-8.26
	c-0.27-2.49-0.74-4.97-0.84-7.46c-0.38-9.81,0.28-19.64-1.13-29.43c-0.09-0.64,0.21-1.32,0.33-1.98c0.68,0.31,0.87,0.61,0.89,0.92
	c0.47,5.81,1.02,11.62,1.34,17.44c0.33,5.92,0.19,11.86,0.71,17.77c0.25,2.84,1.19,5.64,0.84,8.54c-0.03,0.27,0.33,0.57,0.67,1.1
	c1.95-2.08,3.7-3.95,5.04-5.38c0.5-2.05,0.75-3.67,1.3-5.22c0.93-2.6,1.41-5.2,1.33-7.93c-0.23-7.22-0.34-14.44-0.39-21.66
	c-0.02-2.77,0.42-5.55,0.37-8.32C244.67,362.56,244.33,358.71,244.1,354.87z M368.73,220.66c-0.3,19.58-0.26,38.72,0.54,58.33
	c1.02-0.75,1.54-1.09,1.99-1.48c4.96-4.29,9.88-8.61,14.87-12.87c1.04-0.89,1.28-1.85,1.24-3.02c-0.25-8.14-0.4-16.28-0.68-24.43
	c-0.12-3.5-0.48-7-0.73-10.58C380.39,224.41,374.92,222.4,368.73,220.66z M218.39,369.08c4.6,0.04,7.76-0.95,10.76-2.24
	c1.05-0.45,2.19-1.22,2.64-2.08c1.08-2.06,3.08-3.37,4.9-4.87c2.06-1.7,4.21-3.37,5.1-5.78c0.86-2.36,0.1-4.11-2.66-4.98
	c-4.2-1.32-8.37-1.16-12.19,1.03c-5.12,2.94-9.28,6.72-13.22,10.66c-1.19,1.19-2.09,2.64-2.82,4.08c-0.77,1.52-0.14,2.59,1.7,3.04
	C214.85,368.49,217.17,368.85,218.39,369.08z M238.29,416.93c1.88,0.43,3.83,1.2,5.38,0.01c1.84-1.42,3.37-3.17,4.79-4.91
	c0.88-1.09,0.19-2.2-1.34-2.56c-1.19-0.28-2.46-0.41-3.38,0.55c-1.78,1.88-3.56,3.75-5.29,5.66
	C238.23,415.93,238.35,416.37,238.29,416.93z M239.91,359.18c-1.44,1.13-2.88,2.26-4.65,3.65
	C239.14,362.11,239.72,361.62,239.91,359.18z"/>
<path class="st0" d="M278.02,491.39c-22.51,0-45.03,0-67.54,0c0.4-0.62,0.71-1.31,1.23-1.86c2.17-2.24,4.47-4.39,6.59-6.65
	c8.78-9.37,17.53-18.77,26.22-28.2c0.99-1.07,1.98-1.68,3.61-1.59c1.12,0.06,2.25-0.02,3.37,0c8.2,0.12,16.4,0.38,24.6,0.33
	c8.2-0.05,16.39-0.4,24.59-0.61c0.43-0.01,0.85,0.06,1.54,0.11c-0.33,0.72-0.53,1.33-0.87,1.88c-5.11,8.03-10.24,16.05-15.36,24.08
	C283.35,483.05,280.69,487.22,278.02,491.39z"/>
<path class="st0" d="M336.79,491.39c-19.14,0-38.27,0-57.41,0c8.43-12.95,16.86-25.9,25.23-38.76c12.27-1.54,46.93-2.48,51.62-1.38
	c-0.36,0.96-0.64,1.95-1.1,2.88c-4.83,9.67-9.7,19.32-14.51,28.99C339.25,485.85,338.06,488.63,336.79,491.39z"/>
<path d="M336.79,491.39c1.27-2.76,2.47-5.54,3.82-8.27c4.81-9.67,9.69-19.33,14.51-28.99c0.46-0.93,0.74-1.92,1.1-2.88
	c-4.68-1.1-39.34-0.17-51.62,1.38c-8.37,12.86-16.8,25.81-25.23,38.76c-0.45,0-0.9,0-1.35,0c2.66-4.17,5.33-8.34,7.99-12.51
	c5.12-8.02,10.25-16.05,15.36-24.08c0.35-0.54,0.54-1.15,0.87-1.88c-0.68-0.05-1.11-0.12-1.54-0.11c-8.2,0.21-16.39,0.56-24.59,0.61
	c-8.2,0.05-16.4-0.21-24.6-0.33c-1.12-0.02-2.25,0.06-3.37,0c-1.63-0.08-2.63,0.53-3.61,1.59c-8.69,9.43-17.44,18.82-26.22,28.2
	c-2.12,2.27-4.43,4.41-6.59,6.65c-0.53,0.54-0.83,1.23-1.23,1.86c-0.68,0-1.35,0-2.03,0c0.49-0.7,0.87-1.46,1.48-2.08
	c4.41-4.44,8.97-8.78,13.3-13.27c5.51-5.73,10.88-11.57,16.24-17.4c1.46-1.58,2.68-3.32,4.36-5.43
	c-23.36-0.74-46.07-0.04-68.79,0.57c23.32-1.95,46.71-2.12,69.5-1.84c6.15-6.83,11.75-13.43,17.83-19.71
	c6.07-6.27,12.3-12.44,18.76-19.25c-3.71,0-6.68,0-9.65,0c-4.83,0-9.66,0.04-14.49-0.01c-0.99-0.01-2.26,0.17-2.77-0.91
	c0.26-0.26,0.4-0.52,0.54-0.52c8.64,0.08,17.29,0.16,25.93,0.29c1.29,0.02,2.07-0.46,2.77-1.26c3.16-3.6,6.42-7.14,9.52-10.77
	c6.2-7.27,12.32-14.58,18.47-21.88c0.37-0.44,0.68-0.92,1.06-1.44c-1.23-0.96-2.62-0.72-3.89-0.68c-8.76,0.27-17.52,0.62-26.29,0.85
	c-3.26,0.09-6.52-0.07-9.78-0.14c-0.39-0.01-0.77-0.16-1.14-0.64c0.47-0.04,0.94-0.13,1.41-0.13c6.63-0.03,13.27,0,19.9-0.08
	c6.39-0.08,12.78-0.28,19.17-0.39c1.09-0.02,1.86-0.24,2.57-1.01c7.67-8.34,15.4-16.64,23.09-24.97c0.32-0.35,0.53-0.76,1.11-1.61
	c-12.4-0.16-24.38,0.66-36.55-0.77c2.24,0,4.19-0.02,6.14,0c9.1,0.09,18.21,0.2,27.31,0.26c2.82,0.02,5.04-0.75,6.89-2.75
	c6.33-6.85,12.9-13.55,19.36-20.31c0.26-0.28,0.42-0.62,0.92-1.37c-2.49-0.1-4.64-0.19-6.78-0.28c0-0.04,0-0.07,0-0.11
	c0.82,0,1.66-0.09,2.46,0.02c3.94,0.54,6.41-0.97,8.75-3.48c6.97-7.48,13.29-15.4,21.28-22.23c0.23-0.19,0.36-0.46,0.66-0.84
	c-0.39-0.18-0.74-0.47-1.09-0.48c-5.26-0.21-10.52-0.38-13.5-0.49c2.76,0,7.79-0.04,12.81,0.02c2.36,0.03,4.04-0.54,5.18-2.4
	c0.71-1.16,2.04-2.07,3.09-3.09l-0.04-0.03c-0.93,1.62-1.86,3.24-2.88,5.03c3.81,0.94,7.61,0.25,11.34,0.36c0,0.19,0,0.38,0,0.56
	c-3.27,0.03-6.55,0.13-9.82,0.05c-1.82-0.05-3.1,0.36-4.43,1.46c-5.72,4.76-10.33,10.23-15.21,15.54c-2.37,2.58-4.76,5.15-7.13,7.73
	c-0.39,0.43-0.67,0.92-0.98,1.35c0.79,1.16,2.03,0.81,3.08,0.87c3.01,0.17,6.02,0.3,9.04,0.44c-2.81-0.06-5.62-0.2-8.43-0.17
	c-6.03,0.06-4.46-0.71-8.64,3.49c-4.2,4.22-8.28,8.54-12.36,12.84c-2.33,2.46-4.57,4.98-6.94,7.58c0.67,0.23,1.15,0.39,2.38,0.8
	c-3.4-0.13-4.71,1.49-6.14,3.01c-6.33,6.73-12.71,13.43-19.01,20.19c-1.32,1.42-2.84,2.79-3.58,4.9
	c13.98,0.33,27.63,0.65,41.17,0.98c7.02-8.84,12.74-17.92,18.74-27.33c-3.02-0.31-5.45-0.6-7.89-0.8c-2.57-0.21-5.15-0.3-7.72-0.49
	c-2.32-0.17-4.73,0.33-6.92-0.93c7.69,0.44,15.37,0.89,23.11,1.33c5.77-8.23,11.87-16.14,17.46-24.88c-4.04,0-7.4,0.06-10.76-0.03
	c-1.53-0.04-3.05-0.36-4.58-0.55c4.72,0.03,9.44,0.04,14.16,0.11c2.16,0.03,3.52-0.82,4.62-2.28c1.65-2.2,3.44-4.34,5.22-6.47
	c0.27-0.32,0.84-0.48,1.27-0.71l-0.07-0.05c-1.63,2.17-3.26,4.34-4.89,6.51c-0.88,1.17-1.86,2.31-0.99,3.79l0.01,0
	c-2.2-0.15-3.21,1.18-4.14,2.42c-1.65,2.21-3.09,4.51-4.68,6.75c-3.01,4.23-6.07,8.44-9.09,12.67c-0.55,0.77-1,1.58-1.72,2.73
	c1.82,0.29,3.2,0.65,4.59,0.71c5.73,0.25,11.46,0.42,17.19,0.6c3,0.09,3.41-0.09,6.08-2.44c-0.18,0.74-0.34,1.38-0.55,2.23
	c0.97,0.08,1.72,0.15,2.46,0.22c0.77,0.07,1.54,0.15,2.31,0.61c-1.83,0-3.66,0-5.95,0c-1.22,2.06-2.68,4.14-3.71,6.35
	c-2.77,5.95-5.36,11.96-8.01,17.95c-0.38,0.85-0.68,1.72-1.12,2.86c7.13,0.58,13.96,1.14,20.79,1.7c-0.01,0.15-0.03,0.29-0.04,0.44
	c-7.07-0.43-14.14-0.86-21.24-1.29c-5.52,11.62-10.91,22.96-16.51,34.73c2.08,0.05,3.7,0.14,5.31,0.13
	c7.53-0.03,15.06-0.1,22.59-0.13c0.77,0,1.53,0.09,2.29,0.5c-10.14,0.19-20.28,0.39-30.64,0.59c-5.16,11.92-10.25,23.65-15.44,35.64
	c15.66,1.06,31.02,0.66,46.22,2.35c-5.15,0.99-10.26-0.23-15.4-0.2c-5.17,0.03-10.35-0.18-15.52-0.35
	c-5.26-0.17-10.52-0.42-15.78-0.64c-1.84,3.91-3.46,7.56-5.27,11.15c-4.52,8.98-9.12,17.92-13.67,26.89
	c-0.43,0.84-0.67,1.75-0.99,2.62C337.69,491.39,337.24,491.39,336.79,491.39z M247.12,451.92c1.63,0,2.72,0,3.8,0
	c4.61,0.02,9.23-0.14,13.83,0.1c11.69,0.61,23.37-0.13,35.05-0.18c2.45-0.01,4.09-0.75,5.27-2.72c5.91-9.89,12.74-19.35,20.25-28.47
	c1.67-2.03,2.94-4.29,4.64-6.81c-15.91-0.73-31.34-1.01-46.9-0.92C271.35,425.88,257.34,437.28,247.12,451.92z M372.47,413.98
	c-2.34-0.07-3.99-0.17-5.65-0.17c-10.9,0.02-21.8,0.09-32.7,0.05c-1.57-0.01-2.53,0.33-3.27,1.43c-1.14,1.7-2.33,3.39-3.61,5.02
	c-6.83,8.71-13.57,17.47-19.24,26.75c-0.74,1.21-1.45,2.43-2.27,3.81c17.38-0.5,34.36-0.99,51.35-1.48
	C362.17,437.68,367.19,426.11,372.47,413.98z M284.51,411.72c1.52,0.07,2.4,0.12,3.29,0.14c12.93,0.29,25.87,0.43,38.78,0.95
	c3.49,0.14,5.27-0.77,6.91-3.13c7.16-10.29,14.5-20.48,21.75-30.73c0.35-0.5,0.43-1.13,0.8-2.17c-2.76,0-5.1,0.05-7.43-0.01
	c-10.35-0.24-20.69-0.47-31.03-0.78c-2.02-0.06-3.23,0.49-4.39,1.9c-7.08,8.58-14.28,17.08-21.47,25.59
	C289.48,406.13,287.15,408.71,284.51,411.72z M389.14,378.24c-3.12-0.33-5.64-0.75-8.18-0.83c-6.52-0.2-13.05-0.17-19.57-0.38
	c-2.32-0.08-3.9,0.46-4.81,2.25c-0.22,0.42-0.56,0.8-0.85,1.2c-7.18,10.16-14.36,20.33-21.52,30.5c-0.36,0.51-0.49,1.13-0.83,1.95
	c13.38,0,26.39,0,39.63,0C378.08,401.32,384.31,390.24,389.14,378.24z M358.91,376.28c1.26,0.1,1.92,0.18,2.58,0.2
	c3.36,0.06,6.72,0.06,10.08,0.17c5.16,0.18,10.31,0.42,15.46,0.66c1.75,0.08,3.13-0.2,3.53-1.85c0.11-0.44,0.46-0.84,0.67-1.27
	c3.79-7.58,6.54-15.51,11.18-22.81c0.19-0.29,0.12-0.7,0.17-1.07c-0.42-0.13-0.71-0.3-1.02-0.31c-7.51-0.23-15.02-0.42-22.52-0.69
	c-1.52-0.06-2.18,0.57-2.82,1.53c-3.81,5.76-7.64,11.52-11.52,17.25C362.91,370.73,361.01,373.32,358.91,376.28z"/>
<path class="st0" d="M842,164.17c0,6.49,0,12.99,0,19.48c-0.55-0.3-1.16-0.54-1.63-0.91c-2.5-1.95-6.07-1.38-8.11,1.65
	c2-0.65,3.65-1.18,4.78-1.55c2,1,3.48,1.74,4.96,2.48c0,4.82,0,9.65,0,14.47c-5.14,0-10.29,0-15.54,0c-0.18-0.88-0.38-1.6-0.48-2.32
	c-1.14-8.57-1.38-17.18-1.32-25.8c0.02-3.61,0.06-7.22,0.12-10.83c0.13-7.59,0.27-15.18,0.41-22.76c0.02-0.8,0.08-1.61,0.13-2.55
	c5.71-0.73,11.2-0.19,16.67-0.29c0,3.52,0,7.05,0,10.57c-1.66-0.01-3.51,0.37-4.94-0.11c-3.07-1.04-4.67,0.41-6.41,1.99
	c0.71,0.12,1.37,0.03,2-0.12c0.81-0.2,1.6-0.6,2.42-0.63c2.31-0.08,4.62-0.02,6.93-0.01c0,5.38,0,10.76,0,16.14
	c-1.16-1.1-2.3-2.22-3.49-3.29c-1.09-0.98-1.75-2.39-3.75-2.66c-1.86,1.02-3.53,2.16-3.52,4.4c1.25-0.92,2.49-1.85,3.93-2.91
	c1.27,1.34,2.35,2.48,3.45,3.62C839.51,163.14,840.27,164.23,842,164.17z"/>
<path class="st0" d="M842,200.9c0,2.41,0,4.82,0,7.23c-8.14,0-16.29,0-24.3,0c-0.47-4.37-1.05-8.5-1.33-12.66
	c-0.52-7.67-1.12-15.34-1.24-23.02c-0.18-11.94-0.07-23.88,0.1-35.81c0.04-2.63,0.84-5.26,1.33-8.1c8.67-0.38,17.05-0.74,25.44-1.1
	c0,2.23,0,4.45,0,6.68c-5.16-0.02-10.33-0.1-15.49-0.03c-2.99,0.04-3.19,0.32-3.14,2.83c0.06,3.24,0.31,6.48,0.23,9.72
	c-0.11,4.62-0.57,9.24-0.64,13.87c-0.09,6.11-0.08,12.22,0.12,18.32c0.24,7.29,0.73,14.58,1.1,21.74c0.86,0.33,1.26,0.62,1.65,0.61
	C831.23,201.11,836.61,201,842,200.9z"/>
<path d="M-2.28,297.17c4.61-3.53,9.17-7.1,13.85-10.57c11.02-8.17,22.12-16.28,33.15-24.45c8.02-5.94,15.99-11.92,23.98-17.89
	c1.08-0.81,2-1.88,3.26-2.4c2.25-0.93,2.36-2.36,2.34-4.13c-0.08-10.29-0.14-20.58-0.04-30.87c0.08-9.35,0.44-18.7,0.52-28.05
	c0.03-3.04-0.44-6.09-0.73-9.64c-1.28,0.71-2.28,1.19-3.18,1.78c-13.76,8.95-27.52,17.89-41.23,26.89
	c-10.11,6.64-20.14,13.35-30.21,20.02c-0.51,0.34-1.13,0.56-1.71,0.83c0-0.56,0-1.11,0-1.67c1.38-0.74,2.85-1.39,4.12-2.24
	c7.37-5.01,14.58-10.17,22.04-15.08c7.98-5.25,16.19-10.28,24.27-15.42c2.31-1.47,4.54-3.02,6.83-4.52
	c5.45-3.57,10.89-7.15,16.38-10.67c1.09-0.7,2.4-1.15,3.95-1.88c0.24,1.07,0.5,1.68,0.5,2.28c-0.06,13.16-0.16,26.32-0.25,39.47
	c-0.01,1.85-0.1,3.71-0.07,5.56c0.13,8.15,0.28,16.3,0.44,24.44c0.02,1.23-0.1,2.27-1.41,3.22c-4.74,3.41-9.3,6.97-14,10.41
	c-6.14,4.49-12.37,8.88-18.52,13.36c-8.76,6.38-17.51,12.77-26.19,19.22c-5.09,3.78-10.03,7.71-15.09,11.53
	c-0.86,0.65-2,1.06-3.01,1.58C-2.28,297.91-2.28,297.54-2.28,297.17z"/>
<path d="M842,127.44c-8.38,0.36-16.77,0.73-25.44,1.1c-0.49,2.84-1.29,5.47-1.33,8.1c-0.17,11.94-0.28,23.88-0.1,35.81
	c0.12,7.68,0.72,15.35,1.24,23.02c0.28,4.15,0.86,8.29,1.33,12.66c8.01,0,16.16,0,24.3,0c0,0.37,0,0.74,0,1.11
	c-8.41,0-16.82,0-25.43,0c-0.26-0.9-0.7-1.85-0.79-2.83c-1.06-11.26-2.58-22.5-2.46-33.83c0.09-9.45-0.2-18.9-0.17-28.35
	c0.01-4.62,0.15-9.26,1.56-13.8c1.02-3.28,1.1-3.37,5.1-3.55c7.4-0.33,14.79-0.74,22.19-1.12C842,126.33,842,126.88,842,127.44z"/>
<path d="M842,200.9c-5.39,0.1-10.77,0.21-16.16,0.28c-0.39,0.01-0.79-0.28-1.65-0.61c-0.37-7.16-0.86-14.45-1.1-21.74
	c-0.2-6.1-0.21-12.22-0.12-18.32c0.07-4.62,0.53-9.24,0.64-13.87c0.08-3.24-0.17-6.48-0.23-9.72c-0.05-2.51,0.15-2.79,3.14-2.83
	c5.16-0.07,10.33,0.01,15.49,0.03c0,0.37,0,0.74,0,1.11c-5.47,0.11-10.97-0.44-16.67,0.29c-0.05,0.94-0.12,1.74-0.13,2.55
	c-0.14,7.59-0.29,15.18-0.41,22.76c-0.06,3.61-0.1,7.22-0.12,10.83c-0.06,8.62,0.18,17.22,1.32,25.8c0.1,0.73,0.29,1.44,0.48,2.32
	c5.25,0,10.4,0,15.54,0C842,200.15,842,200.53,842,200.9z"/>
<path d="M396.22,491.39c2.13-6.81,4.27-13.61,6.38-20.42c1.75-5.65,3.48-11.3,5.15-16.96c1.36-4.59,2.61-9.19,3.95-13.78
	c0.25-0.84,0.67-1.65,1.57-2.35c-0.08,0.79-0.06,1.6-0.27,2.37c-1.33,4.97-2.61,9.95-4.11,14.88c-2.39,7.89-4.95,15.75-7.42,23.63
	c-1.32,4.21-2.6,8.43-3.9,12.64C397.12,491.39,396.67,491.39,396.22,491.39z"/>
<path d="M842,164.17c-1.73,0.06-2.49-1.03-3.38-1.96c-1.09-1.14-2.18-2.29-3.45-3.62c-1.44,1.07-2.69,1.99-3.93,2.91
	c-0.01-2.24,1.66-3.38,3.52-4.4c2,0.26,2.66,1.67,3.75,2.66c1.19,1.07,2.33,2.19,3.49,3.29C842,163.43,842,163.8,842,164.17z"/>
<path d="M842,146.92c-2.31-0.01-4.63-0.07-6.93,0.01c-0.82,0.03-1.6,0.44-2.42,0.63c-0.63,0.15-1.29,0.25-2,0.12
	c1.75-1.59,3.34-3.03,6.41-1.99c1.43,0.48,3.28,0.1,4.94,0.11C842,146.17,842,146.55,842,146.92z"/>
<path d="M842,185.31c-1.48-0.74-2.96-1.48-4.96-2.48c-1.13,0.36-2.78,0.9-4.78,1.55c2.04-3.02,5.61-3.6,8.11-1.65
	c0.47,0.37,1.08,0.61,1.63,0.91C842,184.2,842,184.76,842,185.31z"/>
<path d="M686.43,218.18c-7.87,0.11-15.39,0.28-22.91,0.29c-8.21,0.01-16.42-0.18-24.63-0.21c-21.94-0.08-43.88-0.17-65.82-0.16
	c-6.3,0-12.59,0.43-18.89,0.5c-12.26,0.12-24.52,0.04-36.78,0.18c-12.15,0.14-24.29,0.54-36.43,0.65
	c-8.43,0.08-16.86-0.15-25.3-0.22c-2.47-0.02-4.95,0.1-7.42,0.05c-3.2-0.07-3.47-0.28-3.48-2.92c-0.03-5.65,0.12-11.3,0-16.95
	c-0.16-7.41-0.61-14.82-0.72-22.23c-0.07-4.53,0.2-9.07,0.44-13.61c0.25-4.89,0.67-9.78,0.96-14.67c0.1-1.72,0.22-1.94,2.28-1.99
	c11.01-0.32,22.03-0.58,33.05-0.93c9.66-0.31,19.32-0.78,28.98-1.07c9.67-0.29,19.34-0.38,29.01-0.7
	c13.49-0.44,26.97-1.05,40.45-1.51c29.46-1.01,58.94-0.99,88.42-0.74c5.06,0.04,10.12-0.04,15.18-0.04c1.32,0,2.65,0.11,4.37,0.19
	c0,1.46,0.04,2.72-0.01,3.98c-0.32,7.69-0.84,15.37-0.93,23.06c-0.06,5.37,0.19,10.76,0.78,16.11c0.85,7.6,0.6,15.17,0.18,22.76
	c-0.15,2.78-0.23,5.55-0.38,8.33C686.8,216.85,686.6,217.38,686.43,218.18z M445.94,218.04c2.58,0,4.46,0.01,6.34,0
	c2.58-0.02,5.16-0.13,7.74-0.09c7.19,0.11,14.38,0.38,21.56,0.37c5.05-0.01,10.11-0.5,15.16-0.56c19.35-0.25,38.69-0.48,58.04-0.6
	c25.2-0.15,50.4-0.2,75.59-0.25c16.32-0.03,32.63,0.01,48.95,0c1.88,0,3.76-0.15,5.83-0.23c0.13-1.25,0.3-2.25,0.34-3.26
	c0.11-2.86,0.01-5.74,0.27-8.59c0.8-9,0.03-17.96-0.64-26.93c-0.69-9.18-0.4-18.34,0.25-27.51c0.16-2.19,0.02-4.39,0.02-6.72
	c-1.02-0.06-1.89-0.16-2.76-0.16c-3.94-0.01-7.88,0.06-11.81,0.02c-9.56-0.11-19.12-0.31-28.68-0.39c-4.72-0.04-9.44,0.1-14.16,0.18
	c-16.98,0.27-33.96,0.55-50.94,0.83c-3.15,0.05-6.3,0.08-9.45,0.19c-12.81,0.45-25.61,0.98-38.42,1.39
	c-6.4,0.2-12.82,0.12-19.22,0.32c-11.35,0.36-22.69,0.86-34.03,1.25c-8.43,0.29-16.86,0.49-25.29,0.76
	c-1.19,0.04-2.38,0.27-3.18,0.36C444.04,171.66,446.86,194.62,445.94,218.04z"/>
<path d="M470,36.25c-0.05,0.43-0.15,0.85-0.13,1.28c0.29,7.04,0.4,14.08,0.94,21.1c0.52,6.84,1.51,13.65,2.23,20.47
	c0.17,1.57,0.17,3.15,0.13,4.72c-0.05,1.82-1.21,2.75-3.32,2.76c-3.45,0.01-6.89,0-10.75,0c-0.12-1.89-0.38-3.61-0.3-5.31
	c0.38-8.35,0.14-16.68-0.79-25c-0.23-2.03-0.19-4.07-0.29-6.11c-0.21-4.35-0.66-8.7-0.6-13.05c0.11-8.99,0.44-17.98,0.78-26.96
	c0.06-1.61,0.65-3.21,1.01-4.85c3.81-0.16,7.17-0.29,10.53-0.46c2.11-0.1,3.16,0.7,3.92,2.34c3.69,8.05,7.43,16.09,11.38,24.06
	c2.68,5.39,5.83,10.63,8.59,16c1.51,2.95,2.62,6.03,4.41,9.01c-0.3-5.66-0.56-11.32-0.9-16.98c-0.35-5.83-1.01-11.66-1.13-17.49
	c-0.11-5.68-1.36-11.37-0.4-17.2c4.09,0,7.77-0.08,11.44,0.02c3.79,0.1,4.23,0.6,4.38,3.56c0.56,10.64,1.27,21.28,1.72,31.93
	c0.3,7.23,0.3,14.46,0.36,21.69c0.05,6.31,0.01,12.61,0,18.92c0,1.37,0,2.74,0,4.43c-5.87,0-11.32,0-16.69,0
	c-8.61-16.25-17.26-32.58-25.91-48.91C470.4,36.24,470.2,36.25,470,36.25z M496.38,6.17c0.24,5.46,0.38,10.55,0.71,15.63
	c0.77,11.94,1.65,23.88,2.44,35.81c0.06,0.94-0.21,1.89-0.33,2.88c-2.34-0.2-2.53-1.53-3.01-2.6c-2.08-4.69-3.97-9.45-6.24-14.07
	c-2.07-4.2-4.75-8.19-6.81-12.39c-3.74-7.62-7.26-15.32-10.78-23.01c-0.69-1.5-1.65-2.34-3.67-2.22c-2.89,0.18-5.78,0.31-8.8,0.47
	c-0.15,0.96-0.33,1.67-0.35,2.39c-0.13,4.54-0.31,9.08-0.32,13.62c-0.02,9.92-0.17,19.84,0.17,29.75
	c0.36,10.46,1.49,20.91,0.68,31.39c-0.03,0.42,0.29,0.86,0.43,1.23c3.57,0,7,0,10.63,0c0.08-1.2,0.25-2.11,0.19-3.01
	c-0.3-4.07-0.4-8.16-1.07-12.19c-1.97-11.71-1.64-23.49-2.07-35.25c-0.05-1.39-0.12-2.87,0.94-4.75
	c4.91,9.28,9.53,18.03,14.19,26.78c4.73,8.88,9.51,17.74,14.38,26.82c2.16,0.12,4.5,0.34,6.84,0.35c2.11,0.01,4.22-0.19,6.27-0.3
	c1.34-5.27-0.54-72.51-2.18-77.32C504.69,6.17,500.69,6.17,496.38,6.17z"/>
<path d="M290.61,11.91c-0.43,10.11-0.86,20.04-1.29,30.26c3.95,0,7.4,0.03,10.84-0.01c4.93-0.06,9.86-0.17,14.8-0.27
	c1.36-0.03,2.1,0.47,2.2,1.61c0.2,2.12,0.4,4.24,0.65,6.36c0.12,1.03-0.43,1.58-1.61,1.75c-0.89,0.13-1.78,0.27-2.67,0.29
	c-5.17,0.15-10.34,0.22-15.5,0.4c-2.09,0.08-4.17,0.39-6.66,0.63c0,6.42-0.08,12.6,0.06,18.79c0.03,1.43,0.84,2.84,1.37,4.49
	c1.26,0.09,2.45,0.29,3.63,0.25c10.78-0.37,21.55-0.77,32.33-1.17c0.44-0.02,0.89,0,1.62,0c0.35,3.17,0.8,6.27,0.99,9.38
	c0.09,1.51-0.57,1.91-2.88,1.99c-3.14,0.11-6.3,0.1-9.44,0.1c-12.03-0.03-24.06-0.08-36.09-0.11c-3.45-0.01-4.04-0.41-4.54-3.25
	c-0.08-0.46-0.2-0.92-0.18-1.38c0.12-3.59,0.33-7.19,0.37-10.78c0.02-2.03-0.17-4.06-0.35-6.09c-1.12-12.5-0.94-24.98,0.19-37.47
	c0.62-6.83,0.75-13.69,1.1-20.54c0.03-0.56-0.01-1.12,0.08-1.67c0.27-1.75,0.79-2.2,3.02-2.27c5.95-0.17,11.9-0.33,17.86-0.38
	c8.32-0.08,16.64-0.06,24.97-0.08c1.34,0,2.68,0,3.84,0c1.74,2.43,1.93,3.7,1.38,8.59c-2.08,1.21-4.53,0.59-6.81,0.6
	c-9.1,0.05-18.2-0.03-27.3-0.05C294.58,11.9,292.6,11.91,290.61,11.91z M315.34,43.1c-5.5,0-10.64-0.03-15.78,0.01
	c-3.03,0.02-6.07,0.23-9.1,0.23c-2.11,0-2.6-0.41-2.68-2.14c-0.1-2.13-0.32-4.29,0-6.39c1.12-7.29,1.28-14.59,0.75-21.91
	c-0.16-2.21,0.37-2.54,3.1-2.46c3.7,0.11,7.42,0.32,11.12,0.23c7.52-0.18,15.04-0.78,22.55,0.21c1.14,0.15,2.37-0.13,3.44-0.2
	c0-2.22,0-4.12,0-6.35c-15.87,0.07-31.43-0.52-47.22,0.12c-0.13,1.4-0.26,2.49-0.33,3.57c-0.43,6.57-0.97,13.13-1.24,19.7
	c-0.4,9.71-0.74,19.43-0.88,29.15c-0.11,8.04,0.11,16.08,0.19,24.12c0.01,0.64,0.08,1.3,0.25,1.92c0.59,2.21,0.73,2.26,3.54,2.46
	c14.46,1.05,28.95,0.08,43.42,0.34c1.14,0.02,2.29-0.37,3.69-0.61c-0.43-3.04-0.81-5.76-1.21-8.59c-6.42,0.1-12.58,0.05-18.72,0.32
	c-6.25,0.28-12.47,0.71-18.62,0.4c-1.28-3.19-2.1-6.1-1.89-9.24c0.26-3.97,0.12-7.95,0.17-11.93c0.02-1.36,0.1-2.72,0.16-4.26
	c8.89-0.42,17.45-0.83,26.46-1.26C316.11,47.95,315.75,45.7,315.34,43.1z"/>
<path d="M582.93,70.64c1.13,1.22,1.82,1.93,2.46,2.67c3.08,3.48,7.06,5.91,12.12,7.1c6.67,1.56,14.96-1.19,18.16-6.26
	c1.38-2.2,2.31-4.61,3.19-6.99c1.35-3.65-0.31-6.53-3.88-8.75c-1.7-1.06-3.45-2.08-5.18-3.1c-1-0.59-2.02-1.17-2.8-1.62
	c1.1-2.75,1.85-4.88,2.8-6.94c1.04-2.25,1.77-2.38,4.79-2.4c3.94-0.03,8.07-0.28,11.39-2.05c5.8-3.1,6.45-9.37,0.75-13.19
	c-4.04-2.71-8.91-3.38-14.01-2.13c-1.48,0.36-2.94,0.8-4.66,1.28c-0.6-1.7-1.17-3.17-1.64-4.66c-0.4-1.26,0.28-2.23,1.58-2.79
	c1.98-0.85,3.97-1.88,6.11-2.27c3.59-0.65,7.31-1.19,10.97-1.17c9.05,0.04,15.62,4.53,17.63,12.07c1.18,4.43,1.18,8.81-1.68,12.96
	c-2.79,4.06-6.72,6.88-12.19,8.19c-1.07,0.26-2.14,0.5-3.53,0.82c1.09,1.5,2.05,2.82,3,4.13c2.06,2.85,2.85,5.94,3.14,9.25
	c0.5,5.74-1.41,10.87-5.39,15.42c-4.14,4.74-9.43,8.46-16.27,10.39c-5.94,1.68-11.89,1.9-17.68-0.45c-2.92-1.19-5.79-2.46-8.6-3.82
	c-3.87-1.87-5.86-5.03-7.85-8.16c-0.59-0.93-0.07-1.63,0.66-2.24C578.39,74.24,580.49,72.6,582.93,70.64z M609.13,26.52
	c0.98-0.26,1.71-0.45,2.45-0.64c5.31-1.38,10.41-1.11,15.26,1.3c4.19,2.08,6.19,5.23,5.59,9.12c-0.61,3.94-3.37,6.88-8.07,8.15
	c-2.33,0.63-4.83,0.93-7.28,1.11c-5.23,0.38-5.24,0.31-6.79,4.48c-0.17,0.44-0.27,0.9-0.46,1.34c-0.49,1.1-0.2,1.95,1.03,2.63
	c1.58,0.88,3.14,1.8,4.62,2.79c2.46,1.64,4.73,3.36,5.47,6.12c0.64,2.43-0.38,4.62-1.15,6.81c-1.73,4.95-4.65,9.27-10.79,11.41
	c-2.79,0.97-5.65,1.87-8.78,1.49c-6.18-0.75-11.13-3.27-15.11-7.17c-0.76-0.75-1.51-1.52-2.55-2.57c-2,1.57-3.81,2.99-5.39,4.23
	c2.56,6.38,8.65,8.95,14.84,11.54c5.74,2.4,11.65,2.23,17.34,0.61c6.75-1.93,11.89-5.81,15.97-10.68c3.86-4.6,4.83-9.65,4.17-15.08
	c-0.55-4.51-2.57-8.4-6.68-11.49c-0.45-0.34-0.84-0.73-1.33-1.17c0.52-0.22,0.8-0.4,1.11-0.46c0.87-0.16,1.77-0.26,2.65-0.41
	c6.59-1.14,11.97-3.64,14.84-8.98c1.97-3.66,2.01-7.42,0.67-11.16c-2.45-6.81-6.85-10.56-16.1-10.93c-3.94-0.16-8,0.75-11.93,1.45
	c-1.76,0.31-3.34,1.32-5.07,2.04C608.22,23.99,608.66,25.21,609.13,26.52z"/>
<path d="M264.95,63.76c0.53,0.29,1.24,0.59,1.81,1.01c1.23,0.91,3.16,1.77,3.4,2.86c0.4,1.82,0.14,3.93-0.6,5.71
	c-2.6,6.21-8.39,9.95-15.52,12.27c-7.36,2.4-14.33,1.29-21.2-1.84c-10.03-4.56-13.95-11.9-14.8-20.76
	c-0.41-4.32-0.93-8.68-0.72-12.99c0.2-4.13,1.1-8.25,2-12.33c1.17-5.28,2.87-10.45,5.27-15.46c2.72-5.66,6.36-10.82,11.76-15.02
	c3.5-2.72,7.42-4.65,12.6-4.41c8.05,0.37,16.36,5.52,18.63,11.84c0.99,2.75-0.25,3.94-3.51,4.76c-3.97,1.01-6.07,0.06-8.05-2.88
	c-2.65-3.92-8.13-4.35-12.06-1.24c-4.94,3.91-8.61,8.63-10.78,13.92c-3.62,8.82-5.21,17.95-5.28,27.28
	c-0.04,4.61,1.32,8.98,2.54,13.4c1.55,5.61,8.39,7.76,13.65,7.55c4.26-0.17,8.18-1.47,11.09-4.12
	C258.48,70.32,261.52,67.13,264.95,63.76z M265.69,17.76c0.75-1.87,0.17-3.22-0.6-4.61c-2.52-4.56-7-7.09-12.59-8.56
	c-5.16-1.36-9.83-0.57-13.86,2.33c-5.15,3.72-9,8.23-11.57,13.49c-4.15,8.47-6.64,17.27-8.09,26.3c-0.95,5.94-0.17,11.82,0.7,17.72
	c1.3,8.81,6.12,15.53,16.18,19.35c4.82,1.83,9.68,2.66,15.01,1.75c3.55-0.6,6.53-2.02,9.33-3.68c4.4-2.61,7.64-5.97,8.73-10.5
	c0.83-3.42,0.1-4.48-4.38-5.86c-0.65,0.75-1.41,1.52-2.05,2.36c-2.11,2.77-4.66,5.21-7.78,7.25c-4.29,2.81-9.21,4-14.54,3.2
	c-5.39-0.81-9.6-3.1-11.07-7.83c-0.47-1.52-0.94-3.05-1.33-4.58c-1.12-4.46-1.9-8.94-1.21-13.51c0.53-3.49,1.11-6.97,1.62-10.47
	c0.84-5.82,2.42-11.47,5.64-16.73c2.18-3.56,4.72-6.93,8.08-9.85c3.55-3.09,7.87-4.17,11.8-2.34c1.87,0.87,3.62,2.29,4.71,3.8
	c1.15,1.6,2.42,2.01,4.37,1.66C263.78,18.26,264.73,17.99,265.69,17.76z"/>
<path d="M140.95,73.66c7.54,0.69,14.95,0.02,22.32,0.33c7.38,0.31,14.77,0.48,22.66,0.73c-0.33,3.41-0.64,6.66-0.99,10.33
	c-1.08,0.61-2.87,0.58-4.63,0.55c-7.19-0.11-14.38-0.36-21.57-0.36c-9.22,0-18.43,0.15-27.65,0.3c-3.16,0.05-3.58-0.15-3.63-2.68
	c-0.27-12.78-0.37-25.57-0.83-38.34c-0.22-6.1-1.2-12.18-1.61-18.27c-0.36-5.36-0.4-10.74-0.56-16.11
	c-0.04-1.37-0.01-2.74-0.01-4.34c3.9-0.3,7.53-0.58,11.59-0.89c0.24,1.37,0.59,2.52,0.61,3.66c0.09,5.38-0.08,10.76,0.18,16.13
	c0.26,5.17,0.93,10.33,1.44,15.49c0.76,7.83,2.36,15.6,2.02,23.5C140.17,66.92,140.7,70.15,140.95,73.66z M184.09,75.7
	c-3.01,0-5.56,0.04-8.11-0.01c-9.22-0.17-18.44-0.37-27.65-0.55c-2.02-0.04-4.05-0.04-6.08,0.01c-1.76,0.04-2.77-0.6-3.02-2.03
	c-0.13-0.73-0.25-1.47-0.28-2.2c-0.08-2.59-0.07-5.19-0.18-7.78c-0.16-3.79-0.23-7.6-0.63-11.37c-0.72-6.82-1.92-13.62-2.4-20.45
	c-0.52-7.39-0.44-14.81-0.64-22.22c-0.02-0.87-0.15-1.74-0.23-2.7c-3.3,0.26-6.16,0.48-9.01,0.7c0,3.83-0.17,7.35,0.04,10.85
	c0.33,5.46,0.99,10.9,1.37,16.35c0.37,5.36,0.63,10.73,0.83,16.09c0.38,10.28,0.69,20.56,1.03,30.83c0.03,0.9,0.12,1.81,0.18,2.54
	c18.12,0.18,35.94,0.36,53.86,0.54c0.35-1.79,0.72-3.24,0.9-4.71C184.19,78.5,184.09,77.39,184.09,75.7z"/>
<path d="M719.96,61.2c-3.31,2.39-7.37,3.79-11.18,5.53c-5.6,2.55-11.12,5.2-16.75,7.69c-6.13,2.71-12.35,5.26-18.53,7.9
	c-10.17,4.34-20.38,8.62-30.47,13.07c-3.31,1.46-4.15,0.82-5.74-1.22c-1.5-1.93-2.82-3.96-4.26-6.02c1.73-1.65,4-2.22,6.1-2.99
	c9.63-3.53,19.31-6.97,28.9-10.57c5.2-1.95,10.29-4.11,15.39-6.24c4.9-2.04,9.77-4.15,14.63-6.26c0.76-0.33,1.43-0.82,2.73-1.57
	c-2.61-0.2-4.56-0.29-6.49-0.5c-5.01-0.54-10.01-1.1-15-1.71c-0.87-0.11-1.73-0.39-2.54-0.69c-1.9-0.69-2.67-1.97-2.03-3.56
	c0.46-1.14,1.11-2.23,1.74-3.31c0.97-1.68,1.95-2.15,4.26-1.92c6.91,0.7,13.8,1.47,20.71,2.16c3.01,0.3,6.05,0.76,9.05,0.62
	c2.91-0.13,4.38,1.04,5.51,2.85C717.3,56.56,718.5,58.72,719.96,61.2z M706.35,59.05c0.06,0.19,0.13,0.38,0.19,0.56
	c-0.61,0.36-1.18,0.79-1.84,1.08c-6.82,3.01-13.59,6.1-20.5,8.96c-9.22,3.83-18.49,7.57-27.84,11.18
	c-5.07,1.96-10.35,3.54-15.52,5.33c-1.81,0.63-3.58,1.36-5.56,2.11c1.36,2,2.5,3.69,3.66,5.37c0.78,1.13,1.81,1.12,3.13,0.55
	c4.07-1.77,8.19-3.45,12.28-5.18c7.29-3.07,14.59-6.15,21.88-9.23c4.19-1.77,8.43-3.46,12.57-5.32c6.9-3.09,13.73-6.27,20.58-9.43
	c2.71-1.25,5.39-2.54,8.06-3.8c-1.31-2.35-2.43-4.36-3.54-6.36c-0.56-1-1.4-1.55-2.82-1.68c-9.15-0.83-18.29-1.73-27.44-2.61
	c-1.65-0.16-3.3-0.33-5.18-0.52c-0.93,1.92-1.78,3.68-2.79,5.77C685.84,58.84,696.1,58.9,706.35,59.05z"/>
<path d="M397.51,39.55c-0.28,10.91-2.84,21.33-9.28,30.96c-1.3,1.94-2.77,3.81-4.18,5.71c-2.47,3.33-5.95,5.78-10.01,7.67
	c-1.15,0.54-2.49,1.09-3.75,1.1c-3.58,0.05-7.18-0.07-10.75-0.32c-4.45-0.32-8.07-2.31-11.32-4.6c-4.55-3.2-7.77-7.3-8.93-12.14
	c-0.85-3.52-1-7.18-1.09-10.78c-0.15-6.39-0.28-12.79,0.81-19.14c0.63-3.65,1.27-7.3,2.8-10.83c1.88-4.35,3.36-8.83,6.22-12.85
	c3.19-4.47,7.28-8.15,13.26-10.19c7.57-2.57,14.28-1.33,20.32,3.01c0.68,0.49,1.36,0.98,1.95,1.53c4.42,4.15,7.79,8.84,9.87,14.08
	c1.39,3.5,2.47,7.1,3.41,10.71C397.37,35.45,397.31,37.52,397.51,39.55z M339.94,49.64c0,4.54-0.1,9.07,0.02,13.61
	c0.26,9.7,9.22,19.13,21.73,20.7c8.56,1.07,15.1-1.34,19.97-6.81c8.08-9.07,12.78-19.29,13.7-30.56c0.5-6.08,1.11-12.23-1.84-18.11
	c-0.39-0.77-0.8-1.56-0.95-2.37c-1.03-5.69-4.89-10.26-8.58-14.9c-1.82-2.29-4.3-4.09-7.22-5.33c-1.84-0.78-3.95-1.39-6-1.56
	c-7.53-0.62-13.61,1.79-18.28,6.61c-5.69,5.86-8.32,12.87-10.47,19.97C340.18,37.02,339.77,43.33,339.94,49.64z"/>
<path d="M191.66,83.3c3.97,0,7.75,0,11.89,0c0.09-1.21,0.25-2.19,0.22-3.17c-0.16-5-0.6-10-0.5-15c0.11-5.64,0.7-11.27,1.07-16.91
	c0.07-1.02,0.1-2.04,0.12-3.06c0.14-7.12,0.22-14.25,0.43-21.37c0.1-3.24,0.45-6.47,0.68-9.71c0.03-0.46,0.05-0.93,0.02-1.39
	c-0.28-3.73-0.68-4.02-5.18-3.94c-2.34,0.04-4.69,0.01-7.51,0.01c2.24-1.7,4.54-0.96,6.62-1.05c2.1-0.1,4.22-0.02,6.79-0.02
	c0.25,1.97,0.76,3.96,0.72,5.94c-0.16,7.32-0.43,14.63-0.78,21.95c-0.43,8.87-1.01,17.73-1.47,26.59c-0.1,1.94-0.02,3.89,0.04,5.83
	c0.17,5.26,0.37,10.53,0.58,16.2c-5.26,0.18-10.23,0.43-15.57,0.16c-0.1-1.19-0.31-2.27-0.25-3.34c0.34-6.1,0.76-12.19,1.13-18.29
	c0.09-1.39,0.13-2.78,0.16-4.17c0.2-9.81,0.37-19.61,0.59-29.42c0.13-5.74,0.32-11.48,0.51-17.22c0.02-0.71,0.19-1.43,0.78-2.22
	c0.22,0.42,0.64,0.84,0.64,1.26c-0.11,5.84-0.26,11.67-0.45,17.51c-0.24,7.41-0.52,14.81-0.8,22.21
	c-0.27,7.12-0.66,14.24-0.79,21.36C191.29,75.73,190.32,79.43,191.66,83.3z"/>
<path d="M525.83,38.37c12.01-0.1,23.63-0.56,35.34-2.67c1.61,2.38,1.24,4.99,1.33,7.5c0.01,0.41-0.89,0.95-1.51,1.24
	c-0.44,0.21-1.1,0.09-1.66,0.12c-9.31,0.51-18.63,1.01-27.94,1.51c-0.56,0.03-1.12,0.04-1.69,0.03c-3.34-0.03-3.83-0.44-3.88-3.26
	C525.81,41.39,525.83,39.94,525.83,38.37z M560.27,37.73c-11.15,0.79-21.82,1.55-32.79,2.33c0.17,1.53,0.32,2.95,0.47,4.3
	c3.71,0.53,29.59-0.8,32.5-1.65c0.04-0.48,0.16-1.02,0.13-1.56C560.51,39.97,560.37,38.78,560.27,37.73z"/>
<path d="M544.15,8.99c2.5,0.31,5.1,0.14,7.27,1.64c4.63,3.19,5.07,6.77,2.19,11.71c-1.99,3.42-7.76,5.54-12.56,4.73
	c-0.88-0.15-1.73-0.37-2.61-0.51c-3.95-0.66-6.44-3.24-7.05-6.5C530.44,14.93,536.76,8.56,544.15,8.99z M544.92,10.61
	c-5.29-0.17-6.83,0.44-9.63,3.45c-0.34,0.37-0.7,0.72-1,1.11c-2.89,3.76-0.26,9.14,4.98,10.16c0.98,0.19,1.97,0.39,2.97,0.45
	c3.94,0.25,7.84-0.75,9.76-3.71c2.18-3.36,1.93-6.72-0.59-9.35C549.49,10.7,546.88,10.54,544.92,10.61z"/>
<path d="M395.57,289.4c0.87-1.22,1.61-2.53,2.66-3.63c1.72-1.82,3.65-3.5,5.49-5.24l-0.07-0.05c-1.47,1.83-2.86,3.7-4.43,5.47
	c-1.09,1.22-2.45,2.29-3.68,3.42C395.53,289.37,395.57,289.4,395.57,289.4z"/>
<path d="M359.32,293.84c2.95,0.18,5.9,0.35,8.85,0.53c-2.99,0.33-5.97,0.55-8.89,0.01C359.29,294.21,359.3,294.03,359.32,293.84z"/>
<path d="M403.71,313.36c0.15-2.02,2.11-3.03,3.51-4.36c-0.73,1.7-1.92,3.14-3.58,4.31C403.64,313.31,403.71,313.36,403.71,313.36z"
	/>
<path d="M396.74,277.91c1.33,0,2.66,0,3.99,0c0,0.04,0,0.09,0,0.13c-1.3,0-2.6,0-3.9,0C396.8,277.99,396.77,277.95,396.74,277.91z"
	/>
<path d="M397.75,323.61c1.82-0.12,3.63-0.24,5.45-0.36c0,0.21,0.01,0.41,0.01,0.62c-1.82-0.09-3.64-0.17-5.46-0.26
	C397.76,323.61,397.75,323.61,397.75,323.61z"/>
<path d="M403.71,280.52c-0.26-1.38,0.91-2.1,1.99-3.26c-0.29,1.74-0.29,1.74-2.06,3.21C403.64,280.48,403.71,280.52,403.71,280.52z"
	/>
<path d="M389.36,277.1c1.18,0.04,2.36,0.09,3.54,0.13c0,0.1,0,0.2,0.01,0.29c-1.22,0-2.43,0-3.65,0
	C389.29,277.38,389.32,277.24,389.36,277.1z"/>
<path d="M343.79,321.94c0.7,0,1.41,0,2.11,0c0,0.01,0,0.02,0,0.03c-0.7,0-1.41,0-2.11,0C343.79,321.96,343.79,321.95,343.79,321.94z
	"/>
<path d="M330.27,321.33c0.71,0,1.41,0,2.12,0c0.02,0.06,0.04,0.11,0.06,0.17c-0.32,0.05-0.64,0.15-0.96,0.14
	c-0.41-0.01-0.82-0.09-1.23-0.15C330.26,321.44,330.27,321.38,330.27,321.33z"/>
<path d="M409.42,343.45c-0.32,0.38-0.63,0.76-0.95,1.14c-0.12-0.07-0.24-0.14-0.36-0.2c0.32-0.38,0.63-0.76,0.95-1.14
	C409.18,343.31,409.3,343.38,409.42,343.45z"/>
<path d="M385.46,276.94c-0.51,0-1.03,0-1.54,0c0-0.05-0.01-0.11-0.01-0.16c0.49-0.03,0.98-0.06,1.46-0.09
	C385.4,276.77,385.43,276.85,385.46,276.94z"/>
<path d="M339.62,322.07c-0.47-0.03-0.95-0.05-1.42-0.08c0-0.06,0.01-0.11,0.01-0.17c0.51,0,1.02,0,1.53,0
	C339.69,321.9,339.65,321.99,339.62,322.07z"/>
<path class="st0" d="M244.1,354.87c0.23,3.85,0.57,7.69,0.64,11.54c0.05,2.77-0.39,5.55-0.37,8.32c0.05,7.22,0.16,14.44,0.39,21.66
	c0.09,2.73-0.4,5.33-1.33,7.93c-0.55,1.55-0.8,3.17-1.3,5.22c-1.34,1.43-3.09,3.3-5.04,5.38c-0.34-0.53-0.7-0.83-0.67-1.1
	c0.35-2.9-0.59-5.7-0.84-8.54c-0.52-5.91-0.38-11.85-0.71-17.77c-0.32-5.82-0.87-11.63-1.34-17.44c-0.03-0.31-0.22-0.61-0.89-0.92
	c-0.12,0.66-0.43,1.34-0.33,1.98c1.41,9.78,0.75,19.62,1.13,29.43c0.1,2.49,0.57,4.97,0.84,7.46c0.3,2.75,0.64,5.5,0.76,8.26
	c0.03,0.62-0.63,1.37-1.2,1.9c-3.99,3.73-9.25,4.39-14.8,3.69c-5.6-0.71-7.96-2.95-8.37-7.65c-0.27-3.04-0.21-6.11-0.21-9.16
	c0-7.51-0.03-15.02,0.1-22.53c0.08-4.32,0.46-8.64,0.71-13.04c1.88,0.28,3.62,0.63,5.38,0.8c6.53,0.64,12.25-0.59,16.58-4.98
	c0.44-0.45,1.2-0.72,1.86-0.98c1.1-0.43,2.22-0.86,3.38-1.17c3.05-0.83,3.47-2.81,3.59-5.07c0.06-1.11,0.55-2.21,0.85-3.32
	C243.31,354.79,243.71,354.83,244.1,354.87z"/>
<path class="st0" d="M218.39,369.08c-1.22-0.23-3.54-0.59-5.79-1.14c-1.84-0.45-2.47-1.52-1.7-3.04c0.73-1.44,1.63-2.89,2.82-4.08
	c3.94-3.93,8.09-7.72,13.22-10.66c3.81-2.19,7.99-2.35,12.19-1.03c2.76,0.87,3.52,2.62,2.66,4.98c-0.88,2.41-3.04,4.08-5.1,5.78
	c-1.82,1.5-3.82,2.81-4.9,4.87c-0.45,0.86-1.59,1.62-2.64,2.08C226.14,368.13,222.99,369.12,218.39,369.08z"/>
<path class="st0" d="M238.29,416.93c0.06-0.56-0.06-1,0.16-1.24c1.72-1.91,3.5-3.79,5.29-5.66c0.92-0.97,2.19-0.83,3.38-0.55
	c1.54,0.36,2.22,1.47,1.34,2.56c-1.41,1.74-2.94,3.49-4.79,4.91C242.12,418.13,240.17,417.36,238.29,416.93z"/>
<path class="st0" d="M239.92,359.18c-0.2,2.44-0.77,2.94-4.66,3.65C237.03,361.44,238.47,360.31,239.92,359.18z"/>
<path class="st0" d="M247.12,451.92c10.22-14.64,24.23-26.04,35.92-39c15.56-0.1,30.99,0.18,46.9,0.92
	c-1.7,2.52-2.96,4.78-4.64,6.81c-7.51,9.13-14.35,18.58-20.25,28.47c-1.17,1.97-2.82,2.71-5.27,2.72
	c-11.68,0.05-23.35,0.79-35.05,0.18c-4.59-0.24-9.22-0.08-13.83-0.1C249.84,451.91,248.76,451.92,247.12,451.92z"/>
<path class="st0" d="M378.43,322.7c1.52,0.19,3.04,0.52,4.58,0.55c3.36,0.08,6.72,0.03,10.76,0.03
	c-5.59,8.74-11.69,16.65-17.46,24.88c-7.73-0.45-15.42-0.89-23.11-1.33c2.19,1.26,4.6,0.75,6.92,0.93c2.57,0.19,5.15,0.29,7.72,0.49
	c2.44,0.2,4.86,0.49,7.89,0.8c-6,9.41-11.72,18.48-18.74,27.33c-13.54-0.32-27.19-0.64-41.17-0.98c0.74-2.11,2.26-3.48,3.58-4.9
	c6.3-6.75,12.68-13.45,19.01-20.19c1.43-1.52,2.74-3.13,6.14-3.01c-1.23-0.41-1.71-0.58-2.38-0.8c2.37-2.59,4.61-5.12,6.94-7.58
	c4.08-4.3,8.16-8.62,12.36-12.84c4.18-4.2,2.61-3.43,8.64-3.49c2.81-0.03,5.62,0.11,8.43,0.17
	C378.54,322.76,378.43,322.7,378.43,322.7z M349.21,347.17c-0.83-0.13-1.11-0.2-1.4-0.22c-0.31-0.02-0.62-0.01-1.67-0.01
	c1.02,0.14,1.3,0.2,1.59,0.22C348.03,347.19,348.34,347.17,349.21,347.17z"/>
<path class="st0" d="M372.47,413.98c-5.27,12.14-10.3,23.7-15.39,35.41c-16.99,0.49-33.98,0.98-51.35,1.48
	c0.82-1.38,1.53-2.6,2.27-3.81c5.67-9.28,12.41-18.03,19.24-26.75c1.28-1.63,2.47-3.32,3.61-5.02c0.74-1.11,1.7-1.44,3.27-1.43
	c10.9,0.05,21.8-0.03,32.7-0.05C368.47,413.8,370.13,413.9,372.47,413.98z"/>
<path class="st0" d="M284.51,411.72c2.64-3.01,4.97-5.59,7.2-8.23c7.19-8.51,14.39-17.02,21.47-25.59c1.16-1.41,2.37-1.96,4.39-1.9
	c10.34,0.31,20.69,0.55,31.03,0.78c2.33,0.05,4.66,0.01,7.43,0.01c-0.37,1.03-0.44,1.67-0.8,2.17
	c-7.25,10.24-14.59,20.44-21.75,30.73c-1.64,2.36-3.42,3.27-6.91,3.13c-12.91-0.52-25.85-0.66-38.78-0.95
	C286.91,411.84,286.03,411.79,284.51,411.72z"/>
<path class="st0" d="M389.14,378.24c-4.82,12-11.05,23.08-16.12,34.69c-13.24,0-26.25,0-39.63,0c0.34-0.82,0.47-1.44,0.83-1.95
	c7.16-10.17,14.34-20.34,21.52-30.5c0.28-0.4,0.63-0.78,0.85-1.2c0.91-1.78,2.49-2.32,4.81-2.25c6.52,0.21,13.05,0.18,19.57,0.38
	C383.49,377.49,386.01,377.91,389.14,378.24z"/>
<path class="st0" d="M358.91,376.28c2.09-2.95,4-5.55,5.79-8.2c3.88-5.73,7.71-11.49,11.52-17.25c0.64-0.96,1.3-1.59,2.82-1.53
	c7.5,0.27,15.01,0.46,22.52,0.69c0.31,0.01,0.6,0.18,1.02,0.31c-0.05,0.37,0.01,0.78-0.17,1.07c-4.64,7.3-7.39,15.23-11.18,22.81
	c-0.21,0.43-0.56,0.83-0.67,1.27c-0.4,1.66-1.78,1.93-3.53,1.85c-5.15-0.24-10.3-0.48-15.46-0.66c-3.36-0.11-6.72-0.11-10.08-0.17
	C360.83,376.46,360.18,376.38,358.91,376.28z"/>
<path class="st0" d="M496.38,6.17c4.31,0,8.3,0,12.24,0c1.64,4.81,3.52,72.05,2.18,77.32c-2.05,0.11-4.16,0.31-6.27,0.3
	c-2.34-0.02-4.68-0.23-6.84-0.35c-4.87-9.08-9.65-17.95-14.38-26.82c-4.66-8.74-9.28-17.5-14.19-26.78
	c-1.06,1.89-0.99,3.36-0.94,4.75c0.43,11.76,0.1,23.55,2.07,35.25c0.68,4.03,0.77,8.12,1.07,12.19c0.07,0.9-0.1,1.81-0.19,3.01
	c-3.64,0-7.06,0-10.63,0c-0.14-0.37-0.46-0.81-0.43-1.23c0.82-10.48-0.32-20.92-0.68-31.39c-0.34-9.91-0.18-19.83-0.17-29.75
	c0.01-4.54,0.19-9.08,0.32-13.62c0.02-0.72,0.21-1.43,0.35-2.39c3.02-0.16,5.91-0.29,8.8-0.47c2.02-0.12,2.98,0.72,3.67,2.22
	c3.52,7.69,7.04,15.39,10.78,23.01c2.06,4.2,4.74,8.19,6.81,12.39c2.28,4.62,4.16,9.38,6.24,14.07c0.48,1.08,0.67,2.41,3.01,2.6
	c0.12-0.99,0.39-1.95,0.33-2.88c-0.79-11.94-1.67-23.87-2.44-35.81C496.76,16.72,496.62,11.63,496.38,6.17z"/>
<path class="st0" d="M315.34,43.1c0.41,2.6,0.77,4.85,1.19,7.47c-9.01,0.43-17.57,0.84-26.46,1.26c-0.06,1.54-0.14,2.9-0.16,4.26
	c-0.05,3.98,0.09,7.96-0.17,11.93c-0.21,3.13,0.62,6.04,1.89,9.24c6.14,0.31,12.37-0.13,18.62-0.4c6.14-0.27,12.3-0.22,18.72-0.32
	c0.4,2.84,0.78,5.56,1.21,8.59c-1.4,0.24-2.55,0.63-3.69,0.61c-14.47-0.26-28.96,0.71-43.42-0.34c-2.81-0.2-2.95-0.25-3.54-2.46
	c-0.17-0.63-0.24-1.28-0.25-1.92c-0.09-8.04-0.31-16.08-0.19-24.12c0.14-9.72,0.47-19.44,0.88-29.15c0.27-6.57,0.81-13.14,1.24-19.7
	c0.07-1.09,0.2-2.18,0.33-3.57c15.79-0.64,31.35-0.06,47.22-0.12c0,2.24,0,4.14,0,6.35c-1.08,0.07-2.3,0.35-3.44,0.2
	c-7.51-0.98-15.03-0.38-22.55-0.21c-3.7,0.09-7.41-0.12-11.12-0.23c-2.73-0.08-3.26,0.25-3.1,2.46c0.54,7.32,0.37,14.62-0.75,21.91
	c-0.32,2.1-0.11,4.26,0,6.39c0.08,1.72,0.57,2.13,2.68,2.14c3.03,0,6.07-0.2,9.1-0.23C304.7,43.07,309.84,43.1,315.34,43.1z"/>
<path class="st0" d="M609.13,26.52c-0.47-1.32-0.91-2.54-1.48-4.14c1.73-0.72,3.31-1.72,5.07-2.04c3.93-0.7,7.98-1.61,11.93-1.45
	c9.25,0.37,13.66,4.12,16.1,10.93c1.34,3.73,1.29,7.5-0.67,11.16c-2.87,5.34-8.25,7.84-14.84,8.98c-0.88,0.15-1.77,0.25-2.65,0.41
	c-0.31,0.06-0.59,0.24-1.11,0.46c0.5,0.44,0.88,0.84,1.33,1.17c4.11,3.09,6.13,6.98,6.68,11.49c0.66,5.42-0.31,10.47-4.17,15.08
	c-4.08,4.87-9.22,8.75-15.97,10.68c-5.7,1.63-11.61,1.8-17.34-0.61c-6.19-2.59-12.28-5.17-14.84-11.54
	c1.58-1.24,3.39-2.66,5.39-4.23c1.04,1.05,1.78,1.82,2.55,2.57c3.98,3.91,8.93,6.42,15.11,7.17c3.13,0.38,6-0.52,8.78-1.49
	c6.15-2.14,9.06-6.46,10.79-11.41c0.77-2.19,1.79-4.38,1.15-6.81c-0.73-2.76-3.01-4.48-5.47-6.12c-1.48-0.99-3.04-1.91-4.62-2.79
	c-1.23-0.68-1.51-1.52-1.03-2.63c0.19-0.43,0.3-0.89,0.46-1.34c1.55-4.16,1.56-4.09,6.79-4.48c2.45-0.18,4.95-0.48,7.28-1.11
	c4.71-1.27,7.47-4.21,8.07-8.15c0.6-3.89-1.4-7.04-5.59-9.12c-4.84-2.41-9.95-2.67-15.26-1.3
	C610.84,26.07,610.11,26.27,609.13,26.52z"/>
<path class="st0" d="M265.69,17.76c-0.97,0.23-1.91,0.5-2.88,0.67c-1.95,0.35-3.22-0.06-4.37-1.66c-1.09-1.52-2.84-2.94-4.71-3.8
	c-3.93-1.82-8.26-0.75-11.8,2.34c-3.36,2.93-5.9,6.29-8.08,9.85c-3.22,5.26-4.8,10.91-5.64,16.73c-0.51,3.49-1.09,6.98-1.62,10.47
	c-0.69,4.57,0.09,9.05,1.21,13.51c0.39,1.54,0.85,3.06,1.33,4.58c1.47,4.73,5.69,7.02,11.07,7.83c5.33,0.8,10.25-0.39,14.54-3.2
	c3.12-2.04,5.67-4.47,7.78-7.25c0.64-0.84,1.4-1.62,2.05-2.36c4.48,1.38,5.21,2.44,4.38,5.86c-1.09,4.53-4.33,7.9-8.73,10.5
	c-2.81,1.66-5.78,3.08-9.33,3.68c-5.33,0.91-10.19,0.08-15.01-1.75c-10.07-3.82-14.88-10.54-16.18-19.35
	c-0.87-5.9-1.66-11.78-0.7-17.72c1.45-9.03,3.94-17.83,8.09-26.3c2.57-5.25,6.42-9.77,11.57-13.49c4.02-2.9,8.69-3.69,13.86-2.33
	c5.59,1.47,10.07,4,12.59,8.56C265.86,14.54,266.45,15.89,265.69,17.76z"/>
<path class="st0" d="M184.09,75.7c0,1.69,0.11,2.8-0.03,3.89c-0.18,1.47-0.55,2.92-0.9,4.71c-17.92-0.18-35.73-0.36-53.86-0.54
	c-0.05-0.73-0.15-1.63-0.18-2.54c-0.35-10.28-0.65-20.56-1.03-30.83c-0.2-5.37-0.45-10.73-0.83-16.09
	c-0.38-5.45-1.04-10.9-1.37-16.35c-0.21-3.5-0.04-7.02-0.04-10.85c2.85-0.22,5.71-0.44,9.01-0.7c0.09,0.95,0.21,1.82,0.23,2.7
	c0.2,7.41,0.11,14.83,0.64,22.22c0.48,6.83,1.69,13.63,2.4,20.45c0.4,3.78,0.47,7.58,0.63,11.37c0.11,2.59,0.1,5.19,0.18,7.78
	c0.02,0.74,0.15,1.47,0.28,2.2c0.25,1.43,1.25,2.07,3.02,2.03c2.02-0.05,4.05-0.05,6.08-0.01c9.22,0.17,18.44,0.38,27.65,0.55
	C178.52,75.74,181.08,75.7,184.09,75.7z"/>
<path class="st0" d="M706.35,59.05c-10.25-0.14-20.51-0.21-30.67-3.22c1.01-2.08,1.86-3.85,2.79-5.77c1.88,0.19,3.53,0.36,5.18,0.52
	c9.14,0.88,18.29,1.77,27.44,2.61c1.42,0.13,2.26,0.67,2.82,1.68c1.11,2.01,2.23,4.01,3.54,6.36c-2.66,1.26-5.35,2.55-8.06,3.8
	c-6.85,3.16-13.68,6.34-20.58,9.43c-4.14,1.85-8.38,3.55-12.57,5.32c-7.29,3.08-14.59,6.16-21.88,9.23
	c-4.1,1.73-8.21,3.42-12.28,5.18c-1.32,0.57-2.35,0.58-3.13-0.55c-1.16-1.68-2.3-3.37-3.66-5.37c1.98-0.76,3.75-1.49,5.56-2.11
	c5.17-1.79,10.45-3.37,15.52-5.33c9.35-3.61,18.62-7.35,27.84-11.18c6.91-2.87,13.68-5.95,20.5-8.96c0.66-0.29,1.23-0.72,1.84-1.08
	C706.48,59.42,706.42,59.23,706.35,59.05z"/>
<path class="st0" d="M339.94,49.64c-0.17-6.31,0.24-12.62,2.1-18.75c2.15-7.11,4.79-14.11,10.47-19.97
	c4.67-4.82,10.75-7.22,18.28-6.61c2.05,0.17,4.15,0.78,6,1.56c2.92,1.24,5.4,3.05,7.22,5.33c3.69,4.64,7.55,9.21,8.58,14.9
	c0.15,0.81,0.56,1.6,0.95,2.37c2.95,5.87,2.34,12.02,1.84,18.11c-0.92,11.27-5.63,21.49-13.7,30.56
	c-4.87,5.47-11.41,7.89-19.97,6.81c-12.51-1.57-21.47-11-21.73-20.7C339.84,58.71,339.94,54.18,339.94,49.64z M347.52,55.56
	c-0.25,2.42,1.09,6.89,2.81,11.33c1.17,3.01,3.41,5.42,6.12,7.53c1.01,0.79,2.44,1.4,3.79,1.65c6.81,1.26,12.42-1,15.71-6.12
	c0.89-1.39,1.79-2.79,2.86-4.08c4.75-5.76,6.97-12.19,7.2-19.08c0.12-3.51-0.4-7.02-0.46-10.54c-0.06-3.74-0.94-7.34-2.19-10.91
	c-1.36-3.88-4.16-6.81-7.64-9.6c-4.77-3.82-15.3-2.02-18.04,2.3c-2.8,4.42-6.02,8.69-6.83,13.78c-0.25,1.55-0.58,3.1-0.96,4.64
	C348.51,42,347.84,47.61,347.52,55.56z"/>
<path class="st0" d="M560.27,37.73c0.1,1.05,0.24,2.23,0.31,3.42c0.03,0.54-0.09,1.08-0.13,1.56c-2.91,0.85-28.79,2.18-32.5,1.65
	c-0.15-1.35-0.3-2.77-0.47-4.3C538.45,39.28,549.12,38.52,560.27,37.73z"/>
<path class="st0" d="M544.92,10.61c1.97-0.06,4.57,0.1,6.49,2.11c2.51,2.63,2.77,5.99,0.59,9.35c-1.93,2.96-5.82,3.96-9.76,3.71
	c-1-0.06-1.99-0.26-2.97-0.45c-5.24-1.02-7.87-6.4-4.98-10.16c0.3-0.39,0.66-0.74,1-1.11C538.08,11.04,539.63,10.44,544.92,10.61z
	 M538.53,17.16c0.06,1.8,1.72,3.25,3.71,3.24c2.92-0.01,4.43-1.22,4.34-3.48c-0.06-1.69-1.77-2.85-4.14-2.79
	C540.19,14.17,538.48,15.5,538.53,17.16z"/>
<path d="M263.17,297.12c0.21,1.55-0.1,3.34-1.82,4.78c-2.07,1.74-4.82,1.22-5.27-1.15c-0.39-2.08-0.35-4.25-0.16-6.36
	c0.15-1.65,1.79-2.51,3.56-3c1.38-0.38,2.6,0.34,3.26,1.78c0.12,0.26,0.22,0.53,0.24,0.8C263.07,294.9,263.1,295.83,263.17,297.12z
	 M260.66,292.53c-3.02,1.85-4.3,3.94-3.5,6.61c0.23,0.77,1.11,1.86,1.85,1.96c0.74,0.09,2.24-0.76,2.43-1.4
	C262.11,297.42,262.58,295.05,260.66,292.53z"/>
<path d="M371.86,249.98c2.03,0.8,2.26,2.37,2.26,3.92c0,0.5-0.59,1.17-1.15,1.42c-0.33,0.15-1.27-0.27-1.65-0.63
	C369.83,253.28,370.08,251.31,371.86,249.98z M372.51,251.66c-0.32,0.03-0.63,0.05-0.95,0.08c0.16,0.56,0.33,1.12,0.49,1.69
	c0.22-0.04,0.44-0.07,0.65-0.11C372.64,252.76,372.58,252.21,372.51,251.66z"/>
<path d="M349.21,347.17c-0.87,0-1.17,0.02-1.48,0c-0.29-0.02-0.57-0.08-1.59-0.22c1.05,0,1.36-0.02,1.67,0.01
	C348.1,346.98,348.38,347.04,349.21,347.17z"/>
<path d="M347.52,55.56c0.32-7.95,0.99-13.55,2.38-19.1c0.38-1.54,0.71-3.08,0.96-4.64c0.81-5.09,4.03-9.36,6.83-13.78
	c2.74-4.33,13.27-6.12,18.04-2.3c3.48,2.78,6.28,5.72,7.64,9.6c1.25,3.58,2.13,7.17,2.19,10.91c0.05,3.51,0.57,7.03,0.46,10.54
	c-0.23,6.88-2.44,13.31-7.2,19.08c-1.07,1.3-1.97,2.69-2.86,4.08c-3.29,5.12-8.9,7.38-15.71,6.12c-1.36-0.25-2.78-0.87-3.79-1.65
	c-2.71-2.11-4.95-4.52-6.12-7.53C348.61,62.45,347.27,57.98,347.52,55.56z M384.49,42.58c-0.36-3.87-0.41-7.78-1.14-11.6
	c-1.08-5.68-3.45-10.92-9.36-14.59c-3.92-2.44-11.39-1.86-14.29,1.43c-2.77,3.14-4.94,6.6-6.27,10.36
	c-1.98,5.61-2.95,11.39-3.84,17.17c-0.84,5.44-1.1,10.88,0.41,16.29c1.04,3.72,2.39,7.31,5.51,10.28c2.07,1.96,4.44,3.23,7.75,3.4
	c5.32,0.28,8.67-2.02,11.26-5.41c1.61-2.11,3.08-4.29,4.45-6.51c1.17-1.88,2.21-3.83,3.12-5.8
	C384.36,52.76,384.68,47.71,384.49,42.58z"/>
<path d="M538.53,17.16c-0.05-1.66,1.66-2.98,3.91-3.03c2.37-0.05,4.07,1.1,4.14,2.79c0.09,2.26-1.42,3.46-4.34,3.48
	C540.25,20.4,538.59,18.96,538.53,17.16z M544.31,15.86c-1.45,0.13-2.72,0.25-3.99,0.37c0.31,2.41,1.18,3.32,2.79,3.07
	C544.52,19.08,544.84,18.3,544.31,15.86z"/>
<path class="st0" d="M260.66,292.53c1.92,2.52,1.45,4.9,0.77,7.17c-0.19,0.64-1.69,1.5-2.43,1.4c-0.74-0.09-1.62-1.18-1.85-1.96
	C256.35,296.46,257.64,294.38,260.66,292.53z"/>
<path class="st0" d="M372.51,251.66c0.07,0.55,0.13,1.11,0.2,1.66c-0.22,0.04-0.44,0.07-0.65,0.11c-0.16-0.56-0.33-1.12-0.49-1.69
	C371.88,251.71,372.2,251.68,372.51,251.66z"/>
<path class="st0" d="M384.49,42.58c0.19,5.13-0.13,10.18-2.38,15.02c-0.92,1.97-1.96,3.92-3.12,5.8c-1.37,2.22-2.85,4.4-4.45,6.51
	c-2.58,3.39-5.93,5.69-11.26,5.41c-3.31-0.17-5.68-1.44-7.75-3.4c-3.12-2.97-4.47-6.56-5.51-10.28c-1.51-5.41-1.25-10.85-0.41-16.29
	c0.89-5.78,1.86-11.55,3.84-17.17c1.33-3.76,3.5-7.22,6.27-10.36c2.9-3.29,10.37-3.87,14.29-1.43c5.9,3.67,8.28,8.91,9.36,14.59
	C384.07,34.81,384.13,38.71,384.49,42.58z"/>
<path class="st0" d="M544.31,15.86c0.53,2.44,0.21,3.22-1.19,3.43c-1.61,0.25-2.48-0.66-2.79-3.07
	C541.59,16.11,542.87,15.99,544.31,15.86z"/>
</svg>
