<?xml version="1.0" encoding="utf-8"?>
<!-- Generator: Adobe Illustrator 23.0.3, SVG Export Plug-In . SVG Version: 6.00 Build 0)  -->
<svg version="1.1" id="Capa_1" xmlns="http://www.w3.org/2000/svg" xmlns:xlink="http://www.w3.org/1999/xlink" x="0px" y="0px"
	 viewBox="0 0 842 493" style="enable-background:new 0 0 842 493;" xml:space="preserve">
<style type="text/css">
	.st0{fill:#FFFFFF;}
</style>
<path class="st0" d="M251.32,180.31c0.65,5.9,2.31,11.51,4.76,16.91c0.53,1.18,0.78,2.53,0.92,3.83c0.36,3.32,0.55,6.65,0.89,9.97
	c0.13,1.28,0.85,2.59-0.97,3.33c-1.72,0.7-3.35,0.56-4.4-0.88c-0.95-1.3-1.84-2.74-2.37-4.25c-2.59-7.37-2.62-15.03-1.97-22.67
	c0.19-2.21,1.56-4.31,2.39-6.46C250.82,180.16,251.07,180.24,251.32,180.31z"/>
<g>
	<path d="M473.42,491.5c-0.23-1.81-0.5-3.62-0.67-5.44c-0.61-6.49-1.09-13-1.83-19.48c-0.29-2.51-1.26-4.93-1.71-7.43
		c-0.74-4.22-1.27-8.47-1.96-12.69c-0.39-2.4-0.92-4.77-1.41-7.24c-1.63,0.16-2.59,2.05-4.2,1.72c-0.11-0.24-0.22-0.47-0.33-0.71
		c1.34-0.79,2.68-1.58,3.67-2.16c1.45-3.53,2.78-6.77,4.34-10.56c-2.26,1.63-4.04,3.23-6.1,4.3c-2.03,1.06-4.34,1.58-6.7,2.4
		c-0.21-1.34,0.65-1.79,1.3-1.91c4.62-0.84,7.79-4.31,11.64-6.51c2-1.14,3.55-3.33,4.91-5.31c3.63-5.3,7.14-10.69,10.5-16.17
		c1.59-2.59,2.64-5.52,4.11-8.19c1.47-2.67,2.97-5.37,4.82-7.78c4.4-5.71,7.7-11.98,10.54-18.57c1.99-4.63,2.96-9.51,4.24-14.33
		c1.28-4.81,3.16-9.46,4.81-14.17c1.01-2.88,2.37-5.67,3.07-8.62c1.6-6.83,2.89-13.74,4.31-20.61c1.19-5.78,2.05-11.66,3.68-17.32
		c2.22-7.72,4.97-15.29,7.62-22.88c1.56-4.48,2.24-9.1,2.72-13.77c0.25-2.44,0.49-4.88,0.59-7.32c0.05-1.18-0.27-2.37-0.39-3.56
		c-0.06-0.59-0.1-1.19-0.06-1.78c0.07-0.81,0.18-1.63,0.36-2.42c1.38-6-1.51-10.23-5.77-13.84c-1.38-1.17-2.99-2.08-4.45-3.17
		c-0.4-0.3-0.62-0.84-1.03-1.44c3.33,0.14,5.19,1.55,12.83,9.56c1.5-3.49,2.92-6.94,4.46-10.33c2.36-5.19,4.86-10.32,7.18-15.53
		c2.28-5.12,4.42-10.29,6.6-15.45c0.75-1.78,1.44-3.58,2.28-5.67c-8.02-3.07-14.83-7.88-20.9-13.85
		c-13.09,8.93-20.12,21.67-24.79,35.4c2.79,4.29,5.24,8.04,7.87,12.09c-1.79,0.16-2.51-0.79-3.1-1.63c-1.11-1.58-2-3.31-3.06-4.93
		c-0.65-1-1.26-2.17-2.2-2.83c-2.51-1.76-5.09-3.5-7.84-4.84c-1.84-0.89-2.91-2.14-3.58-3.91c-0.54-1.43-1.07-2.86-1.57-4.3
		c-0.38-1.11-0.83-2.1-2.69-2.09c-0.18,1.3-0.51,2.65-0.51,4c0,3.13-0.66,5.99-2.85,8.9c-0.78-2.02,0.81-3.09,0.88-4.47
		c0.08-1.62,0.39-3.23,0.4-4.84c0.01-1.51-0.22-3.03-0.34-4.39c-3.23-1.15-6.42-2.41-9.68-3.42c-3.89-1.2-7.88-2.09-11.77-3.28
		c-2.03-0.62-3.97-1.55-5.9-2.47c-0.42-0.2-0.6-0.93-1.13-1.82c9,2.77,17.37,5.34,26.14,8.04c-2.45-2.44-4.48-4.8-7.8-5.74
		c-3.54-1-7.02-2.04-10.74-2.22c-1.7-0.08-3.56-0.31-4.87-2.09c1.02,0.07,2.06,0.06,3.06,0.23c4.12,0.68,8.28,1.22,12.33,2.22
		c2,0.5,3.89,1.72,5.61,2.93c2.4,1.68,4.61,3.66,6.92,5.53c1.76-6.85,4.82-13.14,7.72-19.48c3.45-7.55,5.69-15.49,7.72-23.5
		c0.41-1.61-0.08-2.97-1.03-4.29c-0.83-1.14-1.63-2.35-2.18-3.65c-0.93-2.19-2.47-3.75-4.53-4.76c-4.57-2.25-9.15-4.5-13.79-6.59
		c-2.97-1.33-6.01-0.95-8.89,0.47c-0.58,0.29-1.01,0.88-1.88,1.68c4.71,0.54,8.04,3.01,11.64,5.03c3.35,1.88,7.08,3.18,10.77,4.31
		c3.28,1,5.68,3.06,8.81,5.58c-1.27,0.12-1.84,0.21-2.42,0.22c-0.18,0-0.39-0.15-0.53-0.29c-3.13-3.05-7.35-3.88-11.21-5.32
		c-3.39-1.26-6.49-2.92-9.5-4.84c-1.2-0.77-2.41-1.59-3.73-2.09c-2.77-1.05-4.86-1.37-5.99,2.23c-1.68,5.35-3.62,10.62-5.41,15.93
		c-2.09,6.18-4.13,12.38-6.2,18.56c-0.98,2.94-1.26,5.96-1.21,9.13c0.78,0.24,1.49,0.47,2.7,0.84c-2.96,1.28-5.37,2.62-7.94,3.35
		c-2.6,0.74-5.53,0.17-8.15,1.87c0.36,0.76,0.92,1.51,1.06,2.34c0.13,0.76-0.2,1.6-0.34,2.43c-1.74-1.71-3.28-3.1-4.67-4.62
		c-1.62-1.78-3.11-3.68-5.1-6.06c-0.27,0-1.3-0.14-2.27,0.02c-3.9,0.67-7.75,0.29-11.53-0.65c-4.5-1.12-8.9-0.4-13.36,0.23
		c-2.41,0.34-4.87,0.31-7.32,0.33c-1.14,0.01-1.14-0.11-2.6-1.7c5.68,1.35,10.94-0.12,16.27-0.54c3.21-0.25,6.52,0.2,9.72,0.74
		c3.37,0.57,6.68,0.49,10.05,0.25c1.29-0.09,2.34-0.68,2.61-1.7c0.2-0.75-0.31-2.03-0.93-2.59c-1.12-1.01-0.67-1.98-0.45-3.03
		c1-4.69,2.18-9.35,2.96-14.07c0.59-3.61,0.49-7.33,1.02-10.95c0.98-6.65,2.23-13.27,3.33-19.91c0.25-1.5,0.25-3.03,0.48-4.53
		c0.66-4.23,1.47-8.44,2.05-12.69c0.85-6.27,1.53-12.56,2.34-18.84c0.23-1.82,0.67-3.61,1-5.42c0.64-3.5,1.25-7.01,1.93-10.51
		c0.25-1.29,0.68-2.54,1.04-3.8c0.05-0.19,0.25-0.39,0.23-0.56c-0.52-4.03,2.17-7.32,2.54-11.18c0.36-3.75,1.14-7.46,1.74-11.19
		c0.11-0.7,0.17-1.43,0.41-2.09c2.2-6.01,2.82-12.31,3.34-18.61c0.14-1.71-0.01-3.47-0.27-5.17c-0.7-4.46-3.61-7.22-7.78-8.05
		c-8.79-1.74-13.41,0.1-18.09,8.2c-1.66,2.87-2.55,6.19-3.66,9.35c-1.66,4.71-3.42,9.4-4.76,14.2c-1.23,4.4-2.23,8.89-1.98,13.55
		c0.1,1.9-0.26,3.82-0.42,5.84c3.15-0.5,6.19-1.3,9.24-1.37c3.23-0.08,6.58,0.17,9.7,0.96c3.01,0.76,5.8,2.38,8.8,3.68
		c-0.48,0.93-0.89,1.7-1.32,2.53c-3.73,0.34-7.34,0.3-10.94-0.79c-5.49-1.66-11.17-2.24-16.96-2.87c-0.36,0.78-0.69,1.38-0.94,2.02
		c-2.43,6.38-5.04,12.7-7.21,19.16c-1.75,5.21-2.88,10.63-4.43,15.91c-1.2,4.09-2.65,8.1-3.95,12.17c-0.27,0.84-0.32,1.74-0.59,3.27
		c1.3-0.7,2.14-0.99,2.76-1.53c2.86-2.52,6.37-3.6,9.91-4.6c0.65-0.19,1.43-0.16,2.1,0c5.25,1.26,10.48,2.65,15.75,3.85
		c3.44,0.79,5.44,3.41,7.74,5.67c0.14,0.14,0.02,0.56,0.02,1.15c-0.68-0.18-1.39-0.14-1.67-0.47c-3.6-4.23-8.27-5.99-13.69-6.48
		c-2.29-0.21-4.54-1.14-6.74-1.94c-2.37-0.86-4.56-0.53-6.83,0.32c-2.59,0.97-4.98,2.22-7.38,4.32c0.79,0.19,1.26,0.46,1.67,0.38
		c5.67-1.06,10.91,0.7,16.16,2.4c2.04,0.66,4.04,1.42,6.11,1.97c3.46,0.92,6.96,1.73,10.51,0.3c0.24-0.09,0.58,0.07,1.2,0.17
		c-0.59,0.53-0.95,1.1-1.41,1.22c-2.28,0.55-4.52,0.92-6.95,0.52c-4.37-0.73-8.48-2.18-12.64-3.58c-4.37-1.47-8.77-2.63-13.47-1.74
		c-0.99,0.19-2.09-0.18-3.27-0.3c-4.13,18.24-6.3,36.97-9.57,55.63c-2.96,0.75-5.52,1.93-4.88,5.91c-1.73-0.55-0.79-2.08-1.72-2.51
		c-1.37-0.93-2.72-1.88-4.11-2.78c-0.92-0.6-1.92-1.65-2.81-1.59c-2.25,0.16-2.71-1.35-3.44-2.81c-0.62-1.25-1.33-2.45-2.12-3.89
		c0.12-0.46,0.58-1.29,0.52-2.08c-0.58-7.42-1.42-14.83-1.83-22.26c-0.21-3.75,0.33-7.53,0.5-11.3c0.09-1.83,0.14-3.67,0.16-5.5
		c0.01-0.99-0.2-1.76-0.89-2.69c-0.86-1.17-0.83-2.99-1.23-4.77c0.59,0.08,1.1,0.15,1.59,0.21c0.15-0.15,0.4-0.26,0.42-0.42
		c0.88-5.04,1.22-10.1,0.67-15.22c-1.05-9.66-1.64-19.31,0.24-28.96c0.64-3.29,0.88-6.67,1.36-9.99c0.15-1.01,0.47-2,0.71-3
		c0.29,0.06,0.58,0.12,0.87,0.18c-0.62,4.21-1.23,8.41-1.88,12.62c-0.81,5.26-1.19,10.52-0.86,15.87
		c0.44,7.33,0.72,14.67,0.83,22.02c0.04,2.62-0.58,5.26-0.95,7.88c-0.15,1.09-0.56,2.1,0.22,3.2c0.35,0.49,0.21,1.38,0.19,2.09
		c-0.16,5.61-0.7,11.24-0.44,16.83c0.37,8.14,1.16,16.28,2.1,24.38c0.29,2.54,1.43,4.99,4.38,6.08c1.47,0.54,2.69,1.8,3.98,2.79
		c1.78,1.37,2.2,1.23,3.99-0.02c3.51-2.45,4.92-5.67,4.77-9.93c-0.09-2.52,0.47-5.07,0.85-7.59c0.87-5.85,1.73-11.69,2.74-17.52
		c0.67-3.91,1.61-7.76,2.38-11.65c0.83-4.2,1.61-8.41,2.41-12.61c0.13-0.7,0.12-1.46,0.4-2.09c3.59-7.98,4.54-16.69,7.07-24.96
		c1.91-6.23,3.78-12.48,5.87-18.66c0.78-2.3,1.95-4.51,3.26-6.57c0.93-1.46,1.25-2.94,1.41-4.57c0.33-3.24,0.79-6.47,1.09-9.72
		c0.45-4.76,2.58-8.99,4.06-13.42c1.1-3.28,2.22-6.56,3.37-9.82c1.7-4.84,3.76-9.46,7.63-13.07c1.32-1.23,2.3-2.82,3.45-4.23
		c0.38-0.47,0.76-0.96,1.23-1.33c1.8-1.41,3.74-2.47,6.16-2.23c1.01,0.1,2.04,0.06,3.06,0.12c6.99,0.44,9.09,3.56,10.09,9.37
		c0.86,4.95,0.54,9.95-0.41,14.88c-1.6,8.31-3.43,16.58-4.9,24.91c-0.9,5.12-1.71,10.23-3.71,15.08c-0.38,0.92-0.38,2-0.57,3
		c-0.6,3.31-1.27,6.61-1.79,9.93c-0.51,3.22-0.9,6.47-1.28,9.71c-1.08,9.32-1.97,18.67-3.24,27.97c-0.59,4.32-1.76,8.58-2.9,12.81
		c-1.35,4.98-1.83,10.04-1.87,15.15c-0.04,5.36-1.33,10.53-2.5,15.69c-0.66,2.92-0.27,5.63,0.32,8.45c0.39,1.87,0.65,3.78,0.73,5.69
		c0.14,3.3,2.17,4.72,5.2,3.71c2.12-0.7,4.35-1.04,6.53-1.56c1.64-0.39,3.27-0.81,4.8-1.19c0.19-7.9,2.67-14.83,4.96-21.79
		c2.68-8.13,5.48-16.22,8.32-24.29c0.46-1.32,1.4-2.46,2.08-3.71c0.53-0.97,1.33-1.96,1.41-2.98c0.35-4.26,2.23-8.03,3.54-11.97
		c1.45-4.35,3.02-8.67,4.66-12.95c1.27-3.32,2.69-6.58,4.1-9.85c1.85-4.29,3.73-8.57,5.66-12.83c0.5-1.1,1.29-2.07,1.83-3.15
		c3.63-7.31,6.68-14.84,8.78-22.76c1.68-6.33,4.17-12.4,8.08-17.68c2.78-3.75,5.97-7.21,9.17-10.62c1.28-1.36,3.25-1.67,5.15-1.51
		c2.14,0.18,4.27,0.43,6.4,0.62c2.47,0.22,4.29,1.47,5.19,3.72c2.2,5.47,3.58,11.15,2.03,17.01c-1.35,5.11-3.3,10.06-4.73,15.15
		c-1.66,5.88-3,11.84-4.55,17.75c-0.83,3.14-1.84,6.24-2.75,9.37c-0.51,1.76-0.94,3.55-1.47,5.3c-0.96,3.2-1.85,6.43-2.97,9.57
		c-3.37,9.49-8.1,18.5-10.09,28.5c-0.59,2.97-1.89,5.8-2.82,8.71c-0.34,1.06-0.79,2.16-0.79,3.25c0,5.1-1.83,9.79-2.98,14.64
		c-1.95,8.21-5.47,15.78-9.05,23.35c-1.26,2.67-2.16,5.51-3.19,8.28c-0.46,1.24-0.32,2.28,0.78,3.3c0.76,0.7,1.32,1.8,1.58,2.82
		c0.89,3.58,2.64,6.31,6.25,7.72c1.27,0.49,2.35,1.47,3.74,2.37c0.27-0.6,0.71-1.35,0.96-2.16c2.31-7.45,6.12-14.11,10.44-20.56
		c2.4-3.58,4.74-7.14,8.2-9.8c0.57-0.43,1.04-1.04,1.67-1.34c3.35-1.58,4.08-4.55,4.35-7.83c0.2-2.44,0.25-4.92,0.74-7.3
		c0.77-3.68,1.75-7.33,2.83-10.93c1.7-5.67,3.72-11.19,7.36-16.03c1.28-1.7,1.39-3.99,1.09-6.18c-0.69-5.05-1.22-10.12-2.04-15.15
		c-1.02-6.32-0.34-12.4,1.94-18.33c1.22-3.18,3.3-5.6,6.37-7.12c2.34-1.16,4.65-1.37,6.97,0.16c0.48,0.31,1.32,0.46,1.82,0.26
		c1.32-0.53,2.26,0.06,3.01,0.89c4.39,4.88,7.85,10.2,7.8,17.11c0,0.6-0.16,1.45,0.17,1.78c2.97,2.98,2.76,6.91,2.96,10.55
		c0.32,5.7,0.09,11.42,0.08,17.14c0,1.93,0.05,3.87-0.06,5.8c-0.06,1-0.15,2.16-0.69,2.94c-1.45,2.1-1.63,4.56-2.38,6.86
		c-2.52,7.75-4.99,15.52-7.81,23.16c-1.23,3.32-3.35,6.29-4.89,9.51c-0.68,1.43-0.94,3.06-1.38,4.61c-0.19,0.68-0.28,1.4-0.56,2.05
		c-3.06,7.12-5.82,14.4-9.33,21.29c-4.03,7.93-7.54,16.06-10.76,24.32c-0.9,2.31-1.02,4.96-1.29,7.48
		c-0.25,2.41-0.17,4.85-0.34,7.27c-0.38,5.29-0.37,10.67-1.36,15.85c-0.97,5.07-2.98,9.94-4.56,14.89
		c-2.26,7.09-4.88,14.08-6.73,21.27c-1.5,5.81-1.9,11.89-3.16,17.76c-2.06,9.55-4.05,19.1-7.88,28.2
		c-2.24,5.31-3.34,11.1-5.05,16.65c-2.88,9.33-6.94,18.05-12.97,25.83c-1.98,2.55-3.65,5.41-5.06,8.32
		c-3.26,6.72-6.98,13.11-11.36,19.18c-3.75,5.2-6.97,10.79-10.32,16.27c-1.2,1.96-1.54,4.2-1.06,6.5
		c1.08,5.19,2.29,10.36,3.23,15.57c0.78,4.31,1.31,8.67,1.82,13.03c0.48,4.15,0.74,8.33,1.2,12.48c0.41,3.74,0.95,7.47,1.43,11.21
		C474.65,491.5,474.04,491.5,473.42,491.5z M525.57,94.24c-0.78-0.78-1.52-1.59-2.35-2.31c-0.84-0.73-1.85-1.28-2.65-2.06
		c-6.33-6.22-13.94-7.36-22.11-5.96c-3.88,7.53-7.49,14.79-10.46,22.41c-3.23,8.27-7.49,20.48-7.07,23.64
		c3.21-1.95,6.43-1.78,9.68-0.23c4.14,1.98,8.34,3.81,12.45,5.84c2.51,1.23,4.68,2.85,5.68,5.71c0.41,1.16,1.36,2.12,2.28,3.49
		c0.85-2.24,1.6-3.92,2.11-5.66c1.05-3.62,1.81-7.33,2.97-10.9c1.39-4.25,3.09-8.41,4.63-12.61c2.28-6.22,4.54-12.44,6.78-18.67
		c0.23-0.65,0.25-1.37,0.35-1.98c-0.88-0.29-1.62-0.53-2.35-0.77L525.57,94.24z M573.41,141.7c1.72-0.93,1.73-2.22,1.72-3.6
		c-0.04-3.98,0.06-7.96-0.02-11.94c-0.1-4.68-0.29-9.37-0.56-14.05c-0.07-1.24-0.59-2.46-0.85-3.5c-1.56-0.34-2.94,1.2-4.09-0.7
		c0.71-0.4,1.34-0.76,1.92-1.09c-0.65-1.23-1.18-2.46-1.92-3.54c-2.34-3.44-4.62-6.94-7.2-10.2c-1.35-1.71-2.93-3.1-1.98-5.45
		c-2.32-1.41-4.49-1.59-6.61-0.37c-2.34,1.36-4.23,3.16-5.19,5.82c-1.76,4.91-2.44,9.88-1.21,15.03c0.47,1.98,0.94,3.99,1.12,6.01
		c0.35,3.95,0.33,7.93,0.78,11.86c0.32,2.8-0.21,5.21-1.71,7.54c-0.94,1.44-1.75,2.99-2.44,4.57c-1.02,2.33-1.95,4.69-2.8,7.09
		c-1.21,3.44-2.62,6.86-3.38,10.41c-1.01,4.75-1.49,9.62-2.17,14.28c4.23,0.33,8.38,1.28,12.21,3.58c3.74,2.25,6.53,5.52,9.38,9
		c0.49-0.82,0.81-1.22,1-1.68c3.35-7.88,6.88-15.7,9.95-23.69c1.7-4.43,2.63-9.16,3.9-13.69c-3.08-1.6-5.61-3.56-8.46-4.25
		c-4.91-1.2-8.74-4.25-13.05-6.46c-0.4-0.2-0.59-0.81-1.19-1.68c5.86,0.86,9.45,5.86,15.04,5.81c-0.9-0.79-1.88-1.45-2.91-2.02
		c-1.6-0.88-3.34-1.56-4.84-2.58c-2.09-1.43-4.19-2.47-6.8-1.99c-0.08,0.02-0.22-0.26-0.47-0.56c1.85-1.09,3.66-1.65,5.66-0.52
		c1.68,0.96,3.25,2.18,5.02,2.9C566.21,134.08,570.32,137.09,573.41,141.7z M527.98,92.92c1.83-5.57,3.99-11.18,4.92-17.16
		c0.66-4.24,1.68-8.36,3.34-12.36c2.47-5.94,4.49-12.04,5.37-18.46c1.23-9-5.02-13.05-10.87-13.87c-2.13-0.3-4.34-0.5-6.28,0.7
		c-3.05,1.88-5.86,4.03-7.96,7.04c-5.1,7.33-7.89,15.6-10.02,24.15c-0.42,1.67-0.98,3.32-1.66,4.9c-1.76,4.12-3.63,8.2-5.42,12.31
		c-0.25,0.58-0.26,1.25-0.43,2.07c0.81-0.1,1.32-0.13,1.81-0.24c5.41-1.28,10.69-0.51,15.36,2.19
		C520.32,86.64,524,89.94,527.98,92.92z M555.1,183.32c-3.91-7-11.3-11.75-16.14-10.9C542.97,177.52,548.59,180.47,555.1,183.32z
		 M432.15,67.58c3.53,0.45,6.77,2.82,10.54,1.21c0.55-0.23,2.33-0.72,2.26,1.23c-0.01,0.17,0.42,0.42,0.69,0.53
		c2.74,1.06,5.54,1.39,8.94,0.83C447.21,67.07,439.89,65.84,432.15,67.58z M563.91,87.45c-2.26,1.46-2.45,2.21-0.87,3.73
		c2.74,2.64,4.99,5.62,6.77,8.97c0.51,0.95,1.13,1.84,1.7,2.76c0.19-0.11,0.38-0.22,0.57-0.33
		C571.32,96.52,568.25,91.66,563.91,87.45z M463.92,15.54c-1.41-4.15-4.94-4.27-8.32-4.69c-3.09-0.38-5.99-0.24-7.97,2.82
		C453.33,12.03,458.67,12.89,463.92,15.54z M537.79,31.16c0.14-0.31,0.28-0.57,0.26-0.58c-0.85-0.49-1.71-0.95-2.56-1.42
		c-0.08,0.17-0.17,0.34-0.25,0.51C536.09,30.17,536.93,30.66,537.79,31.16z"/>
	<path d="M334.24,491.5c-0.12-8.59,0.24-17.17,2.23-25.55c0.79-3.34,2.25-6.56,3.72-9.68c2.71-5.74,3.63-11.87,4.45-18.05
		c0.5-3.72-0.42-7.34-1.35-10.87c-1.45-5.51-3-11.01-7.01-15.42c-2.12-2.33-3.84-5.02-5.93-7.39c-6.33-7.21-10.68-15.62-14.97-24.08
		c-2.86-5.63-5.81-11.21-8.76-16.79c-5.25-9.95-9.09-20.49-12.98-31c-3.64-9.81-6.93-19.76-10.15-29.72
		c-1.74-5.4-4.82-10.07-7.36-15.04c-4.11-8.04-5.81-16.44-4.19-25.46c1.44-8.04,2.43-16.16,2.04-24.35
		c-0.23-4.79-0.82-9.56-1.26-14.33c-0.11-1.22-0.36-2.43-0.36-3.65c0-1.18-0.53-1.99-1.08-3c-1.51-2.79-2.92-5.72-3.76-8.76
		c-1.64-6.02-2.3-12.21-2.22-18.47c0.07-5.22,1.5-10.02,4.07-14.5c0.43-0.75,1.13-1.35,1.94-2.28c0.45,0.75,1.02,1.28,0.94,1.66
		c-1.55,7.06,1.55,13.17,3.8,19.48c0.5,1.41,0.75,2.94,0.95,4.44c0.34,2.62,0.53,5.26,0.82,7.88c0.12,1.11,0.43,2.21,0.49,3.33
		c0.16,3.24-0.66,4.36-3.76,5.36c-0.38,0.12-0.75,0.25-1.68,0.55c1.55,0.43,2.63,0.66,3.66,1.04c1.08,0.39,2.12,0.92,3.35,1.47
		c-0.08,1.35-0.82,1.71-2.18,1.15c-1.17-0.48-2.35-0.93-3.92-1.55c0,1.62-0.17,2.72,0.03,3.76c2.16,11.65,2.19,23.33,0.55,35.04
		c-0.45,3.23-0.85,6.48-1.29,9.71c-0.85,6.29,0.57,12.15,3.25,17.8c2.83,5.98,5.7,11.96,8.36,18.02c1.1,2.51,1.58,5.28,2.53,7.86
		c4.49,12.25,8.82,24.56,13.67,36.67c3.07,7.66,6.83,15.04,10.48,22.45c3.11,6.31,6.63,12.42,9.71,18.74
		c2.67,5.48,6.44,10.15,10.08,14.93c2.72,3.57,5.58,7.03,8.36,10.55c1.92,2.44,3.14,5.22,3.94,8.21c0.31,1.18,0.93,2.28,1.16,3.47
		c0.4,2.06,1.86,2.7,3.6,3.26c2.89,0.93,5.84,1.8,8.58,3.08c4.23,1.97,8.51,3.42,13.25,3.06c4.21-0.32,7.09,2.03,9.67,4.91
		c0.15,0.17,0.06,0.57,0.1,0.96c-1.3,0.62-2.26-0.05-2.96-0.9c-2.32-2.82-5.36-3.35-8.79-3.3c-3.69,0.06-7.23-0.83-10.65-2.35
		c-3.43-1.53-7-2.73-10.51-4.06c-0.18-0.07-0.4-0.01-0.85-0.01c0,0.68-0.07,1.36,0.01,2.02c1.13,8.76-0.69,17.07-4.22,24.99
		c-3.5,7.87-5.26,16.05-5.56,24.6c-0.12,3.37-0.14,6.74-0.21,10.11C335.46,491.5,334.85,491.5,334.24,491.5z M270.13,178.81
		c-0.25-0.08-0.5-0.15-0.75-0.23c-0.83,2.15-2.21,4.26-2.39,6.46c-0.65,7.64-0.62,15.3,1.97,22.67c0.53,1.51,1.42,2.95,2.37,4.25
		c1.05,1.44,2.69,1.58,4.4,0.88c1.82-0.74,1.1-2.05,0.97-3.33c-0.34-3.32-0.53-6.65-0.89-9.97c-0.14-1.3-0.39-2.65-0.92-3.83
		C272.44,190.32,270.79,184.71,270.13,178.81z"/>
	<path d="M339.29,179.21c-0.62,2.02-1.48,4-1.83,6.06c-1.86,10.89-2.55,21.88-2.61,32.93c-0.07,12.45-0.36,24.9-0.46,37.35
		c-0.02,2.75,0.15,5.53,0.57,8.24c0.67,4.32-0.42,8.25-1.85,12.24c-0.92,2.59-1.98,4.91-5.02,6.15c0.65,0.8,1.06,1.47,1.62,1.96
		c1.27,1.13,2.62,2.16,3.91,3.27c0.88,0.76,1.01,2.9,0.25,4.51c-0.71-1.32-1.37-2.54-2.15-3.99c-0.97,1.17-0.72,2.33-0.66,3.33
		c0.21,3.52-0.25,6.92-1.42,10.24c-0.27,0.77-0.41,1.58-0.59,2.38c-0.43,1.86-0.37,3.63,0.79,5.27c0.55,0.77,1.27,1.63,0.17,2.88
		c-1.27-1.68-2.7-3.17-2.44-5.33c0.31-2.62,0.57-5.31,1.38-7.79c1.13-3.43,0.69-6.88,0.73-10.33c0.01-0.83-0.6-1.66-1.02-2.71
		c-2.38,1.87-1.32,5.09-3.55,7.07c-0.2-0.65-0.5-1.11-0.41-1.46c0.46-1.67,0.95-3.34,1.57-4.95c0.69-1.78,0.45-3.52,0.43-5.36
		c-0.05-4.63-2.14-8.41-4.12-12.3c-0.41-0.81-0.72-1.66-1.3-3.04c-1.18,2.06-2.19,3.81-3.3,5.76c-0.73-1.08-0.38-1.98-0.03-2.89
		c0.58-1.52,1.37-3,1.7-4.57c0.36-1.76,0.82-3.75,0.35-5.39c-1.32-4.57-3.09-9.02-4.74-13.66c-2.84,3.06-3.22,7.11-6.12,9.79
		c0.08-0.53,0.07-1.11,0.27-1.59c1.07-2.53,2.22-5.03,3.3-7.56c1.07-2.51,1.27-5.13,0.72-7.79c-1.09-5.29-2.19-10.58-3.31-15.86
		c-0.08-0.39-0.33-0.74-0.71-1.54c-1.59,3.95-2.81,7.73-5.7,10.65c0.77-2.15,1.5-4.32,2.31-6.46c1.9-5.05,2.57-10.29,2.08-15.63
		c-0.56-6.09-1.2-12.19-2.12-18.23c-0.39-2.57-1.31-5.17-2.54-7.46c-1.77-3.31-3.59-6.81-6.2-9.41c-4.88-4.87-10.29-6.67-17-3.75
		c-2.03,0.88-4.16,1.52-6.47,2.34c4.21-5.44,11.48-7.25,17.85-4.69c4.31,1.73,7.34,4.71,10.08,8.5c4.51,6.24,6,13.28,7.12,20.57
		c0.65,4.23,1.55,8.42,2.11,12.66c0.39,2.92,0.38,5.88,0.56,8.83c0.09,1.42,0.09,2.86,0.35,4.25c1.11,5.8,2.24,11.61,3.52,17.38
		c0.42,1.87,1.19,3.7,2.08,5.4c1.81,3.47,3.11,7.07,3.71,10.96c0.67,4.37,2.32,8.44,4.37,12.34c1.38,2.63,2.67,5.28,2.84,8.33
		c0.03,0.59,0.28,1.16,0.53,2.13c3.35-5.04,5.42-9.88,4.74-15.89c-0.66-5.75-0.51-11.6-0.55-17.41c-0.02-3.66,0.37-7.33,0.38-11
		c0.01-4.07-0.21-8.15-0.32-12.23c-0.24-8.68,0.42-17.32,1.6-25.91c0.83-6.05,2.17-12.03,2.81-18.09
		c0.56-5.35,0.71-10.79,0.57-16.17c-0.1-3.95-0.47-7.87-0.18-11.86c0.62-8.44,1.32-16.91,1.13-25.34
		c-0.11-4.67,0.97-9.04,1.42-13.55c0.95-9.47,3.53-18.6,5.68-27.82c1.75-7.54,3.51-15.08,5.39-22.59c1.68-6.7,3.22-13.46,5.39-20.01
		c1.36-4.11,3.75-7.88,5.7-11.8c2.19-4.37,4.31-8.79,6.66-13.07c1.21-2.2,2.73-4.28,4.36-6.2c1.29-1.51,3.05-2.61,4.47-4.02
		c2.34-2.34,5.09-2.4,7.97-1.53c3.99,1.2,7.79,2.7,8.94,7.38c0.1,0.4,0.25,0.79,0.27,1.19c0.27,5.29,0.72,10.57,0.69,15.86
		c-0.01,2.6-0.61,5.31-1.47,7.78c-2.68,7.71-5.59,15.33-8.46,22.97c-0.26,0.7-0.82,1.29-1.74,1.72c0.1-0.49,0.13-1,0.3-1.46
		c3.14-8.62,6.68-17.12,9.32-25.89c1.58-5.25,1.74-10.98-0.76-16.21c-2.17-4.55-5.91-7.28-11.03-7.49c-6.53-0.27-4.94-0.51-9.03,4
		c-3.55,3.92-5.42,8.84-8.23,13.19c-5.24,8.11-8.29,16.99-10.22,26.36c-1.21,5.86-2.48,11.71-3.9,17.51
		c-1.43,5.84-3.12,11.63-4.63,17.45c-2.34,9-3.87,18.15-5.14,27.35c-0.4,2.92-0.51,5.78-0.4,8.76c0.21,5.46-0.49,10.96-0.96,16.43
		c-0.59,6.93-0.57,13.86-0.31,20.81c0.21,5.6-0.05,11.21-0.1,16.81L339.29,179.21z M378.06,8.25c3.12,0.66,6.24-0.5,8.85,1.17
		c2.38,1.52,4.59,3.3,6.99,5.04c-0.2-5.46-4.46-6.67-8.19-7.89C383.31,5.79,380.32,5.38,378.06,8.25z"/>
	<path d="M396.61,371.93c-0.12-0.68-0.35-1.36-0.35-2.03c-0.04-6.23-0.07-12.43,0.73-18.65c1.15-8.94,0.92-17.82-1.35-26.71
		c-1.55-6.09-1.99-12.48-2.83-18.74c-0.56-4.14-0.85-8.32-1.47-12.45c-0.78-5.16-3.55-9.22-7.34-12.73
		c-4.4-4.07-7.73-8.93-9.81-14.57c-1.69-4.59-3.18-9.26-4.78-13.88c-0.47-1.35-1.06-2.66-1.49-4.02c-1.69-5.34-5.28-8.97-9.96-11.87
		c-4.06-2.52-7.95-5.35-11.71-8.31c-2.4-1.89-3.79-4.52-3.33-7.86c1.85,6.1,7.53,8.27,11.86,11.79c1.81,1.47,3.8,2.77,5.84,3.91
		c4.28,2.4,6.64,6.31,8.34,10.62c2.2,5.59,4.2,11.27,6.03,17c1.99,6.19,5.46,11.41,10.07,15.83c4.95,4.75,7.68,10.33,8.32,17.19
		c0.71,7.61,1.76,15.19,2.88,22.75c0.52,3.52,1.67,6.95,2.29,10.46c1.14,6.48,1.17,13.07,0.39,19.54
		c-0.84,6.91-1.25,13.82-1.5,20.76c-0.02,0.67-0.15,1.34-0.23,2.01C397.01,371.96,396.81,371.95,396.61,371.93z"/>
	<path d="M410.08,280.21c0.89,1.13,1.48,1.65,1.78,2.3c2.62,5.61,6.33,10.39,10.53,14.92c2.53,2.73,4.71,5.93,6.45,9.23
		c1.24,2.36,1.96,5.21,2.11,7.89c0.36,6.2,0.65,12.45-0.38,18.64c-0.15,0.9-0.38,1.79-0.67,2.66c-2.21,6.64-1.74,13.32,0.06,19.91
		c1.01,3.71,3.7,6.52,6.11,9.43c2.12,2.56,3.73,5.4,3.8,8.8c0.07,3.17,0.57,6.17,1.41,9.26c0.96,3.54,0.53,7.35-1.38,10.69
		c-1.54,2.71-2.54,5.55-2.79,8.65c-0.13,1.56-0.7,2.87-2.19,3.69c0.8-3.88,0.75-7.89,2.77-11.49c2.39-4.28,3.18-8.75,0.99-13.47
		c-0.48-1.04-0.48-2.41-0.36-3.6c0.44-4.5-1.28-8.29-4.11-11.48c-7.89-8.9-8.95-18.92-5.9-30c1.04-3.78,1.07-7.85,1.38-11.8
		c0.15-1.92-0.29-3.88-0.17-5.81c0.48-7.7-2.92-13.78-7.8-19.28c-2.03-2.29-4.32-4.39-6.01-6.91c-2.14-3.19-3.8-6.71-5.61-10.11
		C409.92,281.96,410.08,281.42,410.08,280.21z"/>
	<path d="M443.12,266.4c-0.6-0.22-1.32-0.32-1.85-0.7c-3-2.11-5.87-4.32-8.18-7.27c-2.39-3.05-5.73-4.82-9.55-5.59
		c-5.49-1.11-10.95-2.33-16.14-4.47c-3.56-1.47-5.93-4.25-7.72-7.53c-1.68-3.07-3.78-5.75-6.35-8.15c-2.59-2.42-4.97-5.03-6.64-8.3
		c-2.35-4.6-6.13-7.51-11.39-8.23c-0.24-0.03-0.44-0.29-0.96-0.64c2.12-0.95,3.91-0.62,5.7,0.06c3.51,1.33,6.02,3.77,7.72,7.06
		c1.61,3.12,3.74,5.82,6.38,8.11c2.73,2.37,4.91,5.19,6.62,8.35c2.18,4.04,5.3,6.66,9.7,8.29c4.92,1.81,10.03,2.52,15.04,3.77
		c3.03,0.75,5.75,2.21,7.77,4.55c2.69,3.11,5.45,6.06,9.03,8.15C443.22,264.4,444.1,264.95,443.12,266.4z"/>
	<path d="M459.53,283.6c1.63,2.51,3.2,5.07,3.99,8.01c0.66,2.45,1.35,4.93,1.63,7.45c0.46,4.05,2.21,7.6,3.77,11.24
		c2.45,5.72,4.61,11.54,5.86,17.66c0.18,0.9,0.51,1.76,0.76,2.64c1.35,4.62,1.57,9.27-0.08,13.84c-1.42,3.93-1.32,7.74,0.18,11.62
		c0.96,2.47,1.65,5.03,2.54,7.53c0.96,2.67,0.92,5.41,0.68,8.16c-0.05,0.53-0.44,1.02-0.97,2.17c-0.39-1.22-0.82-1.87-0.73-2.42
		c0.6-3.59-0.57-6.84-1.67-10.14c-0.93-2.8-1.75-5.63-2.54-8.47c-0.8-2.91,0.13-5.68,0.99-8.39c1.25-3.92,1.02-7.77,0.24-11.76
		c-1.84-9.48-5.64-18.26-9.21-27.14c-0.52-1.31-0.97-2.7-1.13-4.09c-0.64-5.41-1.92-10.61-4.54-15.44
		c-0.35-0.65-0.45-1.43-0.66-2.16C458.94,283.8,459.23,283.7,459.53,283.6z"/>
	<path d="M425.53,207.89c0.46,0.81,1.03,1.58,1.36,2.44c2.46,6.51,6.61,11.61,12.5,15.32c4.44,2.8,9.22,4.72,14.34,5.89
		c5.24,1.19,9.63,3.59,12.56,8.43c1.35,2.23,3.44,4.01,5.18,6.01c1.5,1.72,1.49,1.73,1.93,4.77c-2.82-3.22-5.64-5.67-7.46-8.7
		c-3.29-5.47-8.23-8.01-14.05-9.36c-6.5-1.5-12.4-4.35-17.28-8.75c-4.24-3.82-7.39-8.67-9.47-14.09c-0.2-0.52-0.1-1.16-0.13-1.74
		C425.17,208.03,425.35,207.96,425.53,207.89z"/>
	<path d="M393.6,449.09c0.62-0.75,0.8-1.13,1.11-1.31c3.61-2.17,7.44-3.79,11.68-4.2c2.64-0.25,5.29-0.32,7.92-0.59
		c6.98-0.71,13.91-0.02,20.64,1.64c6.72,1.65,12.9,1.03,18.91-2.27c1-0.55,2.15-0.82,3.24-1.23c0.12,0.22,0.25,0.44,0.37,0.66
		c-0.65,0.55-1.21,1.27-1.95,1.6c-2.22,1.01-4.52,1.86-6.78,2.78c-4.24,1.72-8.67,1.74-12.93,0.62c-11.17-2.93-22.4-2.96-33.66-1.05
		C399.42,446.2,396.89,447.76,393.6,449.09z"/>
	<path d="M497.62,310.05c0.24-3.84,0.76-7.69,0.65-11.51c-0.13-4.61-2.14-8.68-5.12-12.14c-2.44-2.85-5.03-5.6-7.79-8.15
		c-1.98-1.83-3.13-4.02-3.7-6.51c-0.63-2.73-1.71-5.41-1.02-8.44c0.49,1.38,1.02,2.75,1.45,4.16c0.39,1.26,0.59,2.58,0.99,3.84
		c0.8,2.58,2.23,4.67,4.34,6.48c4.81,4.15,9.28,8.68,11.28,14.93C500.58,298.53,500.4,304.38,497.62,310.05z"/>
	<path d="M362.72,327.84c1.87,3.22,2.62,6.81,2.79,10.47c0.44,9.53-1.61,18.64-5.03,27.48c-0.21,0.53-0.51,1.02-0.9,1.79
		c-0.96-1.36-0.32-2.37,0.01-3.36c2.24-6.69,3.7-13.53,4.42-20.56c0.43-4.28-0.5-8.3-1.58-12.35c-0.29-1.09-0.4-2.22-0.6-3.33
		C362.13,327.93,362.43,327.88,362.72,327.84z"/>
	<path d="M404.73,177.39c2.03-2.11,4.16-3.22,6.54-3.55c4.46-0.62,8.84-0.71,13.2,1.18c2.04,0.88,4.57,0.61,6.87,0.95
		c2.5,0.37,5.01,0.74,7.47,1.3c0.77,0.18,1.4,0.96,2.1,1.47c-0.08,0.21-0.17,0.41-0.25,0.62c-0.59-0.09-1.26-0.04-1.76-0.3
		c-2.69-1.46-5.63-1.89-8.59-1.77c-2.81,0.11-5.5-0.19-8.07-1.27c-3.84-1.62-7.84-1.3-11.77-0.81
		C408.65,175.43,406.94,176.52,404.73,177.39z"/>
	<path d="M382.08,173.45c-0.7,1.99-2.18,1.87-3.21,2c-4.31,0.53-8.27,1.83-12.06,3.98c-3.68,2.09-7.76,2.21-11.89,1.56
		c-2.9-0.46-5.81-0.84-8.71-1.31c-1.82-0.3-3.82-0.07-5.42-1.54c0.34-0.23,0.5-0.43,0.64-0.42c3.22,0.37,6.45,0.7,9.66,1.16
		c1.91,0.27,3.77,0.87,5.68,1.11c3.71,0.47,7.28,0.1,10.58-1.96C371.75,175.28,376.87,174.88,382.08,173.45z"/>
	<path d="M379.87,170.67c-0.77,0-1.59,0.17-2.31-0.03c-4.51-1.24-8.73,0.06-12.78,1.68c-4.48,1.8-9.1,2.32-13.77,1.96
		c-3.11-0.23-6.07-0.31-8.99,0.84c-0.45,0.18-0.95,0.24-1.64,0.07c0.38-0.31,0.7-0.74,1.13-0.92c2.78-1.13,5.62-1.63,8.66-1.28
		c5.12,0.59,10.12,0.12,14.95-1.94c4.28-1.83,8.82-2.43,13.47-1.86c0.51,0.06,0.97,0.42,1.46,0.64
		C379.99,170.11,379.93,170.39,379.87,170.67z"/>
	<path d="M343.86,123.45c0.22,0.87,0.71,1.18,1.67,1.39c3.26,0.71,6.44,1.86,9.72,2.43c3.89,0.68,7.85,1.2,11.79,1.28
		c3.61,0.07,7.23-0.56,10.97-0.61c-0.56,0.24-1.09,0.6-1.68,0.72c-5.23,1.07-10.5,1.35-15.82,0.82c-3.25-0.33-6.39-0.91-9.51-2.06
		c-2.81-1.05-5.92-1.32-9.16-1.99c0.74-0.68,1.4-1.3,2.07-1.91L343.86,123.45z"/>
	<path d="M382.02,62.25c-0.7-0.46-1.49-0.81-2.07-1.39c-1.51-1.53-3.3-2.38-5.43-2.48c-4.07-0.18-8.15-0.35-12.22-0.49
		c-1.58-0.05-3.17-0.01-4.84-0.55c0.5-0.23,0.99-0.66,1.5-0.67c4.78-0.13,9.56-0.28,14.34-0.23c3.39,0.04,6.37,1.27,8.66,3.89
		c0.3,0.34,0.45,0.82,0.67,1.24C382.42,61.79,382.22,62.02,382.02,62.25z"/>
	<path d="M378.7,427.98c-9.7,1.9-18.33-1.18-27.13-4.02c0.58-0.12,1.2-0.42,1.75-0.32c3.09,0.55,6.27,0.89,9.22,1.87
		c3.57,1.19,7.08,1.66,10.77,1.1C375.16,426.34,376.87,426.65,378.7,427.98z"/>
	<path d="M352.33,323.81c-0.59-0.27-0.88-0.32-0.91-0.43c-1.22-4.3-2.47-8.56-2.18-13.15c0.14-2.19-0.14-4.45-0.53-6.63
		c-0.39-2.2-1.18-4.32-1.75-6.49c-0.18-0.7-0.21-1.44-0.32-2.17c0.21-0.06,0.42-0.12,0.63-0.18c0.25,0.46,0.58,0.9,0.75,1.39
		c1.73,4.81,3.21,9.61,2.69,14.89c-0.21,2.15,0.64,4.39,0.93,6.61C351.93,319.62,352.09,321.61,352.33,323.81z"/>
	<path d="M355.4,60.56c1.71-1.13,3.53-0.7,5.32-0.26c3.54,0.87,7.09,1.75,10.61,2.68c3.09,0.81,6.19,0.71,9.49-0.04
		c-0.02,1.23-0.71,1.48-1.48,1.69c-3.03,0.83-6.06,0.35-9.05-0.17c-2.59-0.44-5.15-1.13-7.7-1.8
		C360.18,62.02,357.79,61.26,355.4,60.56z"/>
	<path d="M457.66,213.74c-0.23-2.91-0.5-5.42-0.61-7.94c-0.14-3.09-1.46-5.66-3.24-8.08c-1.07-1.45-1.04-1.47-0.84-3.2
		C458.05,196.46,461.26,209.05,457.66,213.74z"/>
	<path d="M508.47,252.64c-0.15-0.93-0.29-1.22-0.22-1.46c0.96-3.19,1.63-6.42,2.03-9.75c0.34-2.83,1.79-5.26,3.82-7.39
		c0.82-0.86,1.01-2.32,1.48-3.51c0.34-0.86-0.28-2.08,0.94-2.66c0.84,1.9,0.64,3.95-0.6,6.19c-0.2,0.35-0.4,0.74-0.7,0.99
		c-2.95,2.42-3.22,5.9-3.83,9.29c-0.34,1.89-0.81,3.77-1.37,5.61C509.78,250.74,509.18,251.43,508.47,252.64z"/>
	<path d="M343.92,123.51c3.22-0.85,6.42-1.82,9.67-2.51c7.78-1.65,15.53-0.47,23.38,0.16c-0.33,1.45-1.24,1.17-1.98,1.12
		c-4.56-0.35-9.13-1.1-13.67-0.99c-4.64,0.12-9.26,1.08-13.88,1.68c-1.19,0.15-2.38,0.33-3.58,0.49
		C343.86,123.45,343.92,123.51,343.92,123.51z"/>
	<path d="M391.41,184.98c1.62-0.14,1.89,1.03,2.23,1.85c2.26,5.39,3.7,10.97,3.49,16.87c-2.19-2.8-1.15-6.35-2.27-9.4
		C393.76,191.29,392.63,188.27,391.41,184.98z"/>
	<path d="M337.46,284.75c1.06,4.25,3.87,7.96,3.57,12.64c-0.12,1.93-0.4,3.77-1.87,5.42c-0.05-0.6-0.26-1.25-0.12-1.81
		c0.94-3.81,0.57-7.37-1.3-10.91c-0.8-1.52-0.81-3.45-1.18-5.2C336.86,284.84,337.16,284.8,337.46,284.75z"/>
	<path d="M536.21,230.14c-1.8-0.63-5.4-3.9-6.36-5.79C533.21,224.75,536.09,227.37,536.21,230.14z"/>
	<path d="M440.9,434.8c1.75,0.11,3.51,0.39,5.24,0.29c1.64-0.1,3.25-0.62,5.45-1.07c-2.47,2.47-7.24,2.89-10.78,1.42
		C440.84,435.23,440.87,435.02,440.9,434.8z"/>
	<path d="M515.56,208.28c1.41,2.06,2.82,4.13,4.48,6.55C516.77,214.15,515.01,211.61,515.56,208.28z"/>
	<path d="M366.84,174.4c3.37-0.72,6.75-1.45,10.12-2.17c0.06,0.25,0.11,0.5,0.17,0.74c-3.35,0.8-6.71,1.59-10.06,2.39
		C366.99,175.04,366.92,174.72,366.84,174.4z"/>
	<path d="M355.91,444.62c-2.79,0.44-5.25-0.62-6.92-2.82C351.66,441.91,353.47,443.16,355.91,444.62z"/>
	<path d="M432.58,122.02c2.52,0.75,5.04,1.51,7.56,2.26c-2.86,0.6-5.36-0.27-7.83-1.31C432.4,122.65,432.49,122.34,432.58,122.02z"
		/>
	<path d="M346.66,176.27c-1.19,0.15-2.37,0.31-3.56,0.46C344.65,175.22,344.65,175.22,346.66,176.27z"/>
	<path d="M339.22,179.31c1.33,0.05,2.61,0.18,3.11,2.11c-1.7-0.11-2.96-0.28-3.04-2.2C339.29,179.21,339.22,179.31,339.22,179.31z"
		/>
	<path d="M369.36,124.36c1.49-0.18,3-0.59,4.42,0.59c-1.43,0-2.86,0-4.29,0C369.44,124.76,369.4,124.56,369.36,124.36z"/>
	<path d="M495.16,137.26c0.33,0.4,0.67,0.8,1,1.19c-0.11,0.11-0.22,0.22-0.33,0.33c-0.38-0.33-0.77-0.66-1.15-0.99
		C494.83,137.61,494.99,137.44,495.16,137.26z"/>
	<path d="M525.52,94.17c0.09,1.84-1.24,1.73-2.28,1.42c-3.38-1.03-6.75-2.11-10.03-3.41c-1.58-0.63-2.91-1.85-4.4-2.72
		c-2.83-1.66-5.79-2.94-9.13-3.17c-0.37-0.03-0.72-0.24-1.58-0.55c0.88-0.43,1.32-0.79,1.8-0.85c3.75-0.48,7.12,0.84,10.03,2.92
		c4.75,3.39,10.04,5.24,15.64,6.44C525.57,94.24,525.52,94.17,525.52,94.17z"/>
</g>
</svg>
