<?xml version="1.0" encoding="utf-8"?>
<!-- Generator: Adobe Illustrator 23.0.3, SVG Export Plug-In . SVG Version: 6.00 Build 0)  -->
<svg version="1.1" id="Layer_1" xmlns="http://www.w3.org/2000/svg" xmlns:xlink="http://www.w3.org/1999/xlink" x="0px" y="0px"
	 viewBox="0 0 1024 600" style="enable-background:new 0 0 1024 600;" xml:space="preserve">
<style type="text/css">
	.st0{fill:#FFFFFF;}
</style>
<g>
	<polyline class="st0" points="493.9,620.8 525.6,563.6 551.1,512.9 594.4,450.5 618.4,401.6 617.9,389.2 596.7,348.9 538.2,244.4 
		513.7,199.3 500.7,189.6 453.1,169.4 422.9,138.4 402,117 398.8,100.3 402.4,92.4 412.9,91.4 429.8,106.6 446.7,120.9 458.1,129.1 
		444.1,107 432.9,91.6 427.1,76.6 421,64 424.6,54.4 430.7,47.5 441.7,46.7 445.8,47.9 452.4,38 466.7,36.2 473.9,36.2 476.1,30 
		483.6,23.5 498.4,23.7 506,14.6 516.4,12.1 528.3,21.2 539.3,40.6 546.2,59.8 551.8,76.6 560.6,111.6 576.1,147.5 593.3,176.7 
		608.7,203.8 634.3,233 660.2,261.7 694.5,299 719.5,324 731.5,339.7 745.3,364.4 755.5,385.7 757.4,401.7 749.7,425.5 727.1,462.6 
		710.4,492.1 693.5,527.5 680.3,555.7 672.3,575 662,601.4 655.1,621.3 	"/>
	<path d="M642.5,623.8c3.1-0.1,6.2-0.3,9.3-0.3c1.8,0,2.7-0.6,3.3-2.2c3.1-8.9,6.1-17.9,9.5-26.7c4.3-11.3,8.7-22.5,13.4-33.6
		c3.5-8.3,7.4-16.5,11.3-24.7c2.7-5.7,5.5-11.3,8.2-16.9c1.1-2.2,2-4.4,3.1-6.6c2.3-4.8,4.7-9.5,7-14.3c2.8-5.9,5.3-12,8.2-17.8
		c3.5-7.2,7.3-14.3,11.1-21.3c2.5-4.6,5.2-9.1,8-13.6c2.6-4.2,5.6-8.2,8.2-12.4c2.4-3.9,4.7-7.8,6.8-11.8c2.3-4.5,4.5-9.2,6.4-13.9
		c2-5.1,1.7-10.3-0.6-15.5c-1.6-3.7-2.6-7.6-3.5-11.6c-1.3-5.8-4-11-6.8-16.1c-3.4-6.2-6.6-12.5-10-18.7
		c-6.6-11.6-14.9-21.8-24.7-30.9c-7.7-7.1-15.4-14.3-21.7-22.8c-6.8-9.2-14.8-17.2-23.2-24.9c-5.9-5.4-10.9-11.8-16.3-17.8
		c-5.9-6.4-11.8-12.8-17.6-19.3c-4.2-4.8-8.2-9.8-12.3-14.5c-3.5-4-7.2-7.7-10.6-11.7c-2.9-3.4-5.7-7-8.1-10.8
		c-2.7-4.3-5-8.9-7.5-13.4c-1.3-2.3-2.9-4.5-4.4-6.8c-2.4-3.7-4.8-7.5-7.2-11.3c-3.7-5.9-7.2-11.9-9.6-18.4c-0.4-1-0.2-2.3-0.2-3.5
		c0-0.4,0-0.8-0.2-1.2c-1-2.1-1.9-4.3-3.2-6.3c-2.3-3.4-3.6-7.2-4.7-11.1c-0.9-3.2-1.7-6.6-3.2-9.5c-3.3-6.8-4.6-14-5.9-21.3
		c-1.7-9.2-3.5-18.4-7-27.1c-2.4-5.9-5.3-11.6-8.1-17.3c-3.2-6.6-6.5-13.1-9.7-19.8c-0.2-0.5,0.1-1.3,0.1-1.9
		c0.5,0.3,1.3,0.4,1.5,0.9c3.2,6.2,6.2,12.4,9.3,18.6c1.7,3.4,3.5,6.8,5,10.3c1.8,4.1,3.6,8.2,5.1,12.5c3.2,9.3,4.7,18.9,6.6,28.5
		c0.9,4.8,2.8,9.4,4.3,14.1c1.2,3.9,2.5,7.8,3.9,11.6c1.9,5.1,4,10.1,5.9,15.2c0.7,2,1.2,4.1,1.9,6c3,7.8,7.3,14.8,11.9,21.8
		c3.9,5.8,7.1,12.1,10.7,18.1c4,6.9,7.9,13.9,13.4,19.6c6.9,7.1,12.9,14.9,19.3,22.4c2.9,3.5,6.2,6.6,9.2,10
		c5.2,5.8,10,11.9,15.4,17.5c6.9,7.3,13.3,15.1,21.1,21.6c4.2,3.5,7.9,7.8,11.3,12.2c7.4,9.6,15.7,18.3,24.2,26.7
		c5.8,5.7,11.4,11.5,16.7,17.7c3,3.4,5.4,7.4,7.7,11.4c4.8,8.4,9.5,16.9,14.1,25.4c1,1.9,1.4,4,2.2,6c0.4,1,1.4,1.7,1.7,2.7
		c1.1,3.5,1.9,7.1,2.9,10.7c0.5,1.7,0.9,3.6,1.7,5.1c3,5.6,2.4,11.3,0.7,16.9c-1.3,4.2-3.3,8.2-5.3,12.2c-2.5,5-5.2,10-8.1,14.9
		c-1.2,2-3.1,3.5-4.3,5.5c-6.2,10.5-12.5,21-18.4,31.7c-2.8,5-4.8,10.4-7.2,15.6c-2.7,5.7-5.4,11.3-8.1,16.9
		c-3.1,6.6-6.1,13.2-9.3,19.8c-1.1,2.3-2.6,4.4-3.7,6.7c-2.8,6-5.4,12-8.1,18c-2.5,5.4-5.3,10.6-7.4,16.1c-4.5,11.5-8.7,23-13,34.6
		c-2.8,7.4-5.5,14.8-8.3,22.1c-0.2,0.6-0.2,1.3-0.3,1.9C651.8,623.8,647.2,623.8,642.5,623.8z"/>
	<path d="M492.8,623.8c0.4-1,0.7-2,1.2-3c4.3-8.1,8.6-16.2,12.9-24.3c4.9-9.2,9.8-18.3,14.5-27.6c1-1.9,1.8-4.1,2.1-6.2
		c0.4-2.9,2.2-5,3.7-7.3c4.5-6.6,8.7-13.3,11.7-20.8c1.9-4.6,4.1-9.1,6.4-13.5c1.1-2.1,3-3.7,4.2-5.7c3.5-5.5,6.9-11.1,10.5-16.5
		c1.3-2,3.1-3.8,4.4-5.8c2.9-4.2,5.7-8.5,8.5-12.8c1-1.5,2-3,3.2-4.4c5.3-6.2,9.3-13.3,13.3-20.3c4.6-8.1,9.1-16.2,13.4-24.5
		c2.3-4.3,4.1-8.8,6.2-13.2c1.2-2.5,2.9-4.9,4-7.5c1.4-3.1,2.5-6.4,3.4-9.7c0.4-1.5,0.3-3.3-0.1-4.8c-1.9-7.2-3.6-14.5-7.4-21.1
		c-3.8-6.8-7.7-13.6-11.7-20.3c-4.2-7.2-8.7-14.3-12.8-21.5c-2.2-3.8-3.7-8.2-6.1-11.8c-4.6-7-7.9-14.7-12-22
		c-5.7-10.1-11.4-20.2-16.9-30.4c-2-3.7-3.3-7.7-5-11.5c-2-4.4-4.2-8.7-6.3-13.1c-2.8-5.8-5.6-11.5-8.4-17.2c-0.4-0.9-1-1.8-1.4-2.7
		c-0.1-0.2-0.1-0.7,0.1-0.8c0.2-0.1,0.7-0.1,0.9,0c0.7,0.7,1.4,1.5,1.8,2.4c4.1,7.9,8.3,15.7,12.1,23.7c2.6,5.4,4.5,11.3,7.2,16.6
		c4.5,8.7,9.5,17.1,14.3,25.6c2,3.5,3.7,7.2,5.6,10.8c3.5,6.4,7.1,12.7,10.6,19.1c1.6,3,2.8,6.3,4.6,9.2c3.2,5.4,6.7,10.6,9.9,16
		c4.5,7.5,8.9,14.9,13.1,22.6c2.1,3.8,3.6,8,5.3,12c0.8,2,1.5,4,2.4,6c0.3,0.6,0.9,1.4,1.5,1.6c2.9,1.1,4.2,3.9,6.2,5.9
		c0.5,0.5,0.5,1.4,0.7,2.1c-0.2,0.2-0.5,0.3-0.7,0.5c-2-2-4.1-3.9-6.1-5.8c0.2,3.4,1,6.7,0.4,9.7c-0.7,3.6-2.4,7.1-4,10.5
		c-2,4.3-4.2,8.4-6.4,12.6c-3.7,7.1-7.3,14.3-11.2,21.3c-4.7,8.5-9.7,16.8-14.6,25.2c-0.5,0.9-1.2,1.6-1.8,2.4
		c-3.8,5.5-7.6,11.1-11.5,16.6c-1.7,2.4-3.7,4.7-5.4,7.1c-1.6,2.2-3,4.5-4.5,6.8c-3.6,5.6-7.4,11.1-11.3,16.6
		c-3.1,4.3-5.3,9.4-7.2,14.4c-2.3,5.8-5.3,11.2-8.6,16.5c-0.9,1.5-2,2.9-2.9,4.4c-1.5,2.4-2.8,4.6-3.4,7.6
		c-0.7,3.9-3.2,7.5-5.1,11.1c-3.3,6.2-6.6,12.4-10,18.5c-5.1,9.3-10.2,18.7-15.3,28c-0.5,0.8-0.8,1.7-1.2,2.5
		C493.6,623.8,493.2,623.8,492.8,623.8z"/>
	<path d="M449.7,124.4c2.4,2.6,4.9,5.1,7.3,7.7c0.2,0.2,0,0.7,0,1.5c-1.1-1.1-1.9-1.9-2.7-2.6c-2-1.6-4.1-2.9-5.9-4.6
		c-3.2-3.2-6-6.9-9.3-9.8c-6-5.3-12.4-10.1-18.6-15.3c-2.2-1.9-4-4.3-6.3-6c-1.8-1.3-4-2-6.1-2.8c-1.8-0.7-3.5,0.1-4.5,1.6
		c-2.1,2.9-3.8,6.1-2.9,9.9c0.7,3.1,1.2,6.2,2.1,9.2c1.7,5.5,4.9,10.1,8.8,14.2c2.6,2.7,5.2,5.6,7.9,8.1c2.6,2.4,5.5,4.5,8.2,6.9
		c1.4,1.3,2.8,2.7,3.9,4.3c5.3,7.3,12.3,12.9,19.3,18.4c5.6,4.4,12,7.1,18.3,10.2c5.8,2.9,11.6,5.8,17.2,9c3.5,2,7.3,2.5,11,3.8
		c2.7,0.9,5.1,2.5,7.7,3.9c0.2,0.1,0.3,0.7,0.6,1.6c-1.3-0.3-2.4-0.3-3.1-0.8c-3-2.2-6.4-3-9.9-3.7c-2.4-0.5-4.7-1.7-7-2.9
		c-9.5-4.7-18.9-9.4-28.3-14.2c-2.2-1.1-4.3-2.6-6.2-4.2c-5.4-4.4-10.7-8.9-15.9-13.5c-1.3-1.2-2.3-2.8-3.5-4.2
		c-2.1-2.4-4-5-6.5-6.9c-6.8-5.3-12.9-11.4-18.3-18c-3.5-4.4-6.4-9.5-7.1-15.4c-0.2-1.4-0.7-2.8-1-4.3c-1-4.9,0.4-9.3,3.5-13
		c2.4-2.9,6.9-3.1,10.5-1c1.5,0.9,2.8,2,4.5,3.3c0.1-0.8,0.4-1.6,0.4-2.4c0-6.9-0.1-13.7,0.1-20.6c0.1-3.7,0.4-7.5,1.3-11
		c1.1-4.4,3.2-8.7,7-11.4c2.2-1.6,5.4-1.9,8.1-2.5c1.4-0.3,3,0,4.5-0.1c0.5,0,1-0.5,1.5-0.9c2.3-1.8,4.3-4.3,6.8-5.1
		c2.7-0.8,4.7-2.5,7-3.8c3.2-1.8,6.7-2.5,10.2-2.8c1.3-0.1,2.3-0.6,3.4-1.5c2.8-2.2,5.9-4,9.2-5.3c2.4-1,4.5-2.2,6.6-3.8
		c3.5-2.6,7.5-3.1,11.8-3c0.7,0,1.6-0.5,2.1-1.1c3.8-4.2,7.9-8,13.5-9.5c4.8-1.2,9-0.1,12.2,3.9c1.8,2.4,3.4,5,5.1,7.4
		c0.2,0.3,0.7,0.4,0.9,0.7c0.3,0.4,0.5,0.9,0.9,1.6c-4.6-1.7-6.2-6-9.1-8.9c-3-3-6.5-3.3-10.1-2.3c-4.4,1.2-7.8,4.1-11.1,7.2
		c-0.9,0.9-1.1,1.8-0.4,2.9c0.2,0.3,0.3,0.9,0.1,1.1c-0.2,0.2-0.8,0.4-1.1,0.3c-6.1-3.1-10.8-0.3-15.7,3.1c-3.8,2.6-6,6-7.1,10.1
		c0.5,1.2,0.9,2.4,1.4,3.6c-0.2,0.1-0.4,0.2-0.6,0.3c-1.1-0.8-2.1-1.6-3.2-2.3c-3.3-2.3-7-2.3-10.9-1.7c-5.8,0.9-10.5,3.7-14.4,7.9
		c-0.9,0.9-1.5,2.1-2.2,3.1c3.4,3.7,4.3,5.6,3.5,8.1c-1.2-1.5-2.3-2.9-3.2-4.3c-1.4-2.1-4.2-3.2-6.6-2.8c-2.3,0.3-4.9-0.1-7,0.8
		c-3.4,1.5-7,3.2-9,6.6c-0.4,0.7-0.6,1.8-0.5,2.7c0.4,3.6,0.5,7.2,1.9,10.6c1.5,3.6,2.4,7.4,3.8,11c0.8,2,2.1,3.7,3.3,5.5
		c4.3,6.8,8.8,13.5,12.3,20.9c1.9,4,5,7.5,7.5,11.2c0.7,1.1,1.4,2.1,2.1,3.2c1.2,1.9,2.5,3.7,3.7,5.6c0.4,0.6,0.4,1.4,0.6,2.1
		c-0.7-0.2-1.6-0.2-2-0.6c-1.5-1.7-2.8-3.5-4.2-5.3C451.2,123.5,450.3,124,449.7,124.4z M421,64c-0.2,0-0.4,0.1-0.6,0.1
		c-0.3,4.8-0.7,9.6-0.9,14.4c-0.2,6-0.2,12-0.3,18c0,0.4,0.2,0.9,0.6,1.2c4.3,3.8,8.6,7.6,12.9,11.4c0.5,0.4,1,0.7,1.7,1.2
		c0.5-3,0.9-5.6,1.5-8.2c0.7-2.9,0.4-5.5-1.4-8c-2-2.9-3.6-6.2-5.7-9c-2.1-2.8-3-5.9-4-9.1C423.5,71.9,422.3,68,421,64z
		 M441.1,115.3c0-1.8-0.4-3.5,0.1-4.8c1.5-4.1-1.3-6.9-2.8-10.1c-1.1,3.5-1.8,7-2.5,10.5c-0.1,0.3,0.2,0.8,0.4,1
		C437.8,113,439.3,114,441.1,115.3z M443.3,110.1c-1.1,4.9-1.9,8.7,6.4,12.2c1.3-0.9,1.5-1.7,0.3-3c-1.3-1.3-2.3-2.8-3.4-4.3
		C445.4,113.5,444.4,111.9,443.3,110.1z M473.9,36.2c0.7-2.1,1.4-4.1,2.2-6.2c-0.4,0-0.8-0.1-0.9,0c-2,1.3-4,2.7-6.2,4.1
		C470.5,34.8,472.1,35.4,473.9,36.2z M444.1,47.5c0.3-1.1,0.5-1.9,0.8-3.1c-1.2,0.9-2,1.5-3.1,2.4C442.7,47,443.3,47.2,444.1,47.5z"
		/>
	<path d="M421.2,109c-0.3,0.6-0.4,1.6-1,2.1c-2.7,2.5-5.6,4.8-8.4,7.2c-1.6,1.3-2.8,0.7-3.7-0.8c-1.7-2.8-3.3-5.7-4.9-8.6
		c-1.3-2.3-0.9-4.8,0.2-7c0.9-1.7,2.2-3.2,3.5-4.7c1.3-1.6,3-1.1,4.4-0.4c1.6,0.8,3.2,1.8,4.3,3.2c2,2.4,3.6,5.1,5.4,7.7
		C421.2,108,421.1,108.4,421.2,109z M419.4,108.8c-0.2-0.7-0.3-1.2-0.6-1.5c-1.8-2.3-3.3-4.8-5.5-6.7c-3.7-3.3-4.7-3-7.7,0.9
		c-1.6,2-2.1,4.3-0.9,6.6c1.4,2.7,3,5.4,4.5,8.1c0.5,0.9,1.2,1.2,2.1,0.4c2.3-2,4.6-4,6.9-6.1C418.8,110,419.1,109.3,419.4,108.8z"
		/>
	<path d="M492,73.1c-2.6-4.5-5.4-9-7.7-13.7c-1.3-2.5-1.8-5.5-3-8.1c-1.1-2.6-2.6-5-3.8-7.5c-0.3-0.5-0.1-1.3-0.1-2
		c0.6,0.3,1.7,0.4,1.9,0.9c2,4.3,3.9,8.6,5.7,12.9c1.6,3.8,2.9,7.8,5.5,11.1c1.1,1.4,1.6,3.2,2.3,4.8c0.2,0.4-0.1,1.1-0.2,1.6
		C492.4,73.2,492.2,73.1,492,73.1z"/>
	<path d="M473.3,106.6c-0.8-1.8-1.5-3.7-2.4-5.4c-2.7-4.9-5.6-9.6-8.3-14.5c-1.4-2.7-2.5-5.6-3.6-8.5c-0.1-0.4,0.3-1,0.5-1.5
		c0.4,0.3,1.1,0.4,1.3,0.9c0.6,1,1.1,2,1.4,3.1c1.4,4.7,4.5,8.5,6.8,12.8c2.1,3.8,3.6,8.1,5.3,12.2c0.1,0.2-0.2,0.7-0.4,1
		C473.8,106.5,473.5,106.5,473.3,106.6z"/>
	<path d="M508.2,193.6c1.1,1,2.3,2,3.3,3.1c3.4,4.1,7.2,7.8,9.1,13c0.9,2.4,2.7,4.5,4,6.8c0.3,0.5,0.6,1.1,0.8,1.6
		c0.1,0.4,0,1,0,1.4c-0.5-0.2-1.2-0.4-1.4-0.7c-2.2-3.9-4.2-8-6.7-11.7c-2.4-3.6-5.4-6.9-8.1-10.3c-0.6-0.8-1.2-1.7-1.8-2.6
		C507.7,194,508,193.8,508.2,193.6z"/>
	<path d="M513.2,54.4c-1.8-10.4-7.5-18.6-11.7-27.5c0.6-0.1,0.8-0.2,0.9-0.1c2.5,3.2,5.1,6.2,6,10.3c0.4,1.7,1.6,3.2,2.5,4.7
		c2,3.5,3.6,7.2,3.1,11.4C513.9,53.4,513.7,53.6,513.2,54.4z"/>
	<path d="M452.4,61.6c2.8,3.4,5.1,6.5,5.9,10.9C455.8,71,452,64,452.4,61.6z"/>
	<path class="st0" d="M421,64c1.2,3.9,2.5,7.9,3.8,11.8c1,3.2,2,6.3,4,9.1c2.1,2.9,3.7,6.1,5.7,9c1.8,2.5,2.1,5.1,1.4,8
		c-0.6,2.6-1,5.3-1.5,8.2c-0.7-0.5-1.3-0.8-1.7-1.2c-4.3-3.8-8.6-7.6-12.9-11.4c-0.3-0.3-0.6-0.8-0.6-1.2c0.1-6,0.1-12,0.3-18
		c0.2-4.8,0.6-9.6,0.9-14.4C420.6,64.1,420.8,64.1,421,64z"/>
	<path class="st0" d="M441.1,115.3c-1.8-1.3-3.3-2.3-4.8-3.4c-0.3-0.2-0.5-0.7-0.4-1c0.7-3.5,1.4-7,2.5-10.5c1.5,3.2,4.3,6,2.8,10.1
		C440.7,111.8,441.1,113.4,441.1,115.3z"/>
	<path class="st0" d="M443.3,110.1c1.1,1.7,2.1,3.4,3.2,5c1.1,1.5,2.1,3,3.4,4.3c1.3,1.3,1,2.1-0.3,3
		C441.4,118.9,442.2,115,443.3,110.1z"/>
	<path class="st0" d="M473.9,36.2c-1.8-0.7-3.4-1.4-5-2.1c2.2-1.4,4.2-2.8,6.2-4.1c0.2-0.1,0.5,0,0.9,0
		C475.3,32.1,474.6,34,473.9,36.2z"/>
	<path class="st0" d="M444.1,47.5c-0.8-0.3-1.4-0.5-2.3-0.8c1.1-0.8,1.9-1.5,3.1-2.4C444.6,45.6,444.3,46.4,444.1,47.5z"/>
	<path class="st0" d="M419.4,108.8c-0.3,0.5-0.5,1.3-1,1.7c-2.3,2.1-4.6,4-6.9,6.1c-0.9,0.8-1.6,0.5-2.1-0.4
		c-1.5-2.7-3.1-5.4-4.5-8.1c-1.2-2.3-0.7-4.6,0.9-6.6c3-3.9,3.9-4.1,7.7-0.9c2.1,1.9,3.7,4.4,5.5,6.7
		C419.1,107.6,419.1,108.1,419.4,108.8z"/>
</g>
</svg>
