<?xml version="1.0" encoding="utf-8"?>
<!-- Generator: Adobe Illustrator 23.0.3, SVG Export Plug-In . SVG Version: 6.00 Build 0)  -->
<svg version="1.1" id="Layer_1" xmlns="http://www.w3.org/2000/svg" xmlns:xlink="http://www.w3.org/1999/xlink" x="0px" y="0px"
	 viewBox="0 0 1024 600" style="enable-background:new 0 0 1024 600;" xml:space="preserve">
<style type="text/css">
	.st0{fill:#FFFFFF;}
	.st1{fill:#0A0A0A;}
	.st2{fill:#0E0E0E;}
	.st3{fill:#101010;}
	.st4{fill:#0F1010;}
	.st5{fill:#0B0C0C;}
	.st6{fill:#1E1E1E;}
	.st7{fill:#191919;}
	.st8{fill:#2F3030;}
	.st9{fill:#F4F3F2;}
	.st10{fill:#F0EFEE;}
	.st11{fill:#F2F1F1;}
	.st12{fill:#111212;}
	.st13{fill:#0F0F0F;}
	.st14{fill:#121212;}
	.st15{fill:#131313;}
	.st16{fill:#0B0B0B;}
	.st17{fill:#181818;}
	.st18{fill:#111112;}
	.st19{fill:#121313;}
	.st20{fill:#141414;}
	.st21{fill:#151515;}
	.st22{fill:#191A1A;}
	.st23{fill:#0D0E0E;}
	.st24{fill:#1B1B1B;}
	.st25{fill:#181919;}
	.st26{fill:#111111;}
	.st27{fill:#161616;}
	.st28{fill:#0D0D0D;}
	.st29{fill:#1C1C1C;}
	.st30{fill:#0E0F0F;}
	.st31{fill:#1B1C1C;}
	.st32{fill:#222222;}
	.st33{fill:#1E1F1F;}
	.st34{fill:#171717;}
	.st35{fill:#1E1E1D;}
	.st36{fill:#131414;}
	.st37{fill:#F5F4F4;}
	.st38{fill:#333333;}
	.st39{fill:#212222;}
	.st40{fill:#3A3B3B;}
	.st41{fill:#525352;}
	.st42{fill:#2A2B2A;}
	.st43{fill:#A8A8A8;}
	.st44{fill:#FDFDFD;}
	.st45{fill:#FAFAFA;}
	.st46{fill:#FCFBFB;}
	.st47{fill:#F8F8F7;}
	.st48{fill:#EDECEB;}
	.st49{fill:#F8F7F7;}
	.st50{fill:#F6F5F5;}
	.st51{fill:#D6D5D4;}
	.st52{fill:#F7F7F6;}
	.st53{fill:#EFEDED;}
	.st54{fill:#F4F3F3;}
	.st55{fill:#0C0C0C;}
	.st56{fill:#080808;}
	.st57{fill:#0C0D0D;}
	.st58{fill:#0A0B0A;}
	.st59{fill:#161515;}
	.st60{fill:#090909;}
	.st61{fill:#232425;}
	.st62{fill:#FEFEFE;}
	.st63{fill:#EDECEC;}
	.st64{fill:#F5F4F3;}
	.st65{fill:#E3E2E2;}
	.st66{fill:#F6F6F5;}
	.st67{clip-path:url(#SVGID_2_);}
</style>
<g>
	<path class="st0" d="M715.9,405.6l7.8-55.5l1.1-32.8l-2.3-25.9l1.1-32.5l-3.5-21.9l-8.7-7.1l-7.7-5.1l-5.9-9.4l-8.6-5.6l-11.1-5.4
		l-1.7-7.8l-8.9-13.8l-13.8-4.2l-62.9-7.1l-14.6-9.5l-7.1-109.5l-8.9-12.1L538.5,28H393.7l-79.4,4.6L293,49l-1.6,54.5l33.1,343.8
		l253.7-3.5l9.3,12.4c0.7-0.9,1.6-1.9,1.6-3.1c0-0.1,0.1-0.1,0.1,0c1.2,1.7,2.3,3.5,3.3,5.4c0.9,1.6,1.8,3.3,2.8,4.9
		c1,1.7,2.1,3.4,3.1,5.1c1,1.6,1.9,3.2,2.5,5c0.1,0.3,0.2,0.7,0.3,1l1.2,1.6l0,0.9c0.4,0.3,0.6,0.8,0.8,1.2c0.5,1.2,0.7,2.6,0.8,3.9
		c0.3,2.6,0.2,5.3,0.2,7.9c0,1.1-0.1,2.3,0,3.4c0.1,2.4,0.5,4.8,0.8,7.2c0.3,2.3,0.5,4.6,0.5,6.9c-0.1,1.9-0.4,3.7-0.9,5.5
		c-0.6,3.5-2,6.8-3.6,10c0.4,7.4,0.2,31.4-15.4,67c-0.2,1-0.5,2-0.7,2.9c-0.5,1.9-1.1,3.6-1.9,5.4c-0.2,0.4-0.3,0.8-0.5,1.2
		l138.8-1.3l-6.8-34l-5.4-45.4l1.3-65.2L715.9,405.6z"/>
	<g>
		<path class="st1" d="M386,54.9c3.6-6.2,9.1-7.5,13.2-3.2c0.7,0.7,1.5,1.3,1.2,2.4c-0.3,1.3-1.6,1.5-2.5,1.6
			c-2.8,0.5-5.6,0.7-8.6,1c2,6.8,7.4,2.1,10.9,3.4c-2.7,2.7-7.6,3.2-11.1,1.2c-0.5-0.3-0.8-1.2-1.5-0.9c-2.3,0.9-2.2,0.9-3-1.6
			c-1-3.2-2.2-6.4-3-9.6c-0.6-2.3-1.1-3.1-2.8-0.8c-0.7,1-1.5,1.9-2.3,2.9c-1.8,2-3.5,5.1-6.1,0.1c-0.7,3-0.2,5.2,0.4,7.4
			c0.3,1.1,0.1,2.5-1.2,2.7c-1.8,0.2-1.1-1.4-1.2-2.3c-0.3-3.4-0.6-6.8-0.9-10.2c-0.1-1.2,0.1-2.3,1.2-2.8c1.4-0.6,1.5,0.9,1.9,1.6
			c1.9,3,3.8,3.8,6.1,0.5c0.6-0.9,1.5-1.6,2.1-2.5c1.9-2.6,3.5-1.3,4.1,0.7C383.8,49.2,384.9,51.9,386,54.9z"/>
		<path class="st2" d="M438.3,52.5c-2.5-2.8-5.5-1.2-8.3-1.8c1.3-2.7,3.6-2.6,5.5-2.2c2.8,0.5,5.5,1.9,6.4,4.9
			c0.7,2.1,2,4.6,0.5,6.5c-1.9,2.3-9.4,3.7-11,2.3c-1.9-1.5-1.4-3.8-1.3-6c0.1-2.5,1.8-3.2,3.7-3.6
			C435.1,52.3,436.5,52.5,438.3,52.5z"/>
		<path class="st3" d="M498.7,53.1c-2-1.9-4-2.4-6.3-2.1c-0.6,0.1-1.8,1.7-2-0.4c-0.1-1.2,0.7-1.2,1.5-1.4c6.2-1.4,12.1,3.6,11.7,10
			c0,0.4,0,0.9-0.2,1.2c-1,1.4-7.9,1.5-10.5,0.5c-1.5-0.6-2.5-1.5-2.2-2.9c0.9-3.3,3.3-4.8,6.7-4.7C497.8,53.4,498,53.2,498.7,53.1z
			"/>
		<path class="st3" d="M468.8,60.3c-5.5,2.4-9,1.6-10.7-3c-1.2-3.2,0.6-5.9,2.9-7.7c2.3-1.8,5-2,7.4,0.3c1,0.9,1.7,1.9,1.3,3.2
			c-0.4,1.3-1.6,1.7-2.8,1.9c-0.7,0.1-1.4,0-2.1,0c-1.6,0.2-4.3-0.7-4.2,1.6c0.1,1.5,2.3,3.3,4.7,3.2
			C466.4,59.8,467.6,59.5,468.8,60.3z"/>
		<path class="st4" d="M412.4,62.5c-0.6-3.3,0-6-1.3-8.3c-0.5-0.9-0.4-2.3-1.8-2.4c-1.4-0.1-2.2,1-2.9,2c-1.3,1.8-1.1,3.9-1,5.9
			c0.1,1.3-0.3,2.5-1.5,2.5c-1.8,0-0.8-1.6-1-2.5c-0.3-1.9,0.1-3.7-0.5-5.7c-0.9-3.3,2.6-2.2,3.9-3.1c3.4-2.5,5.7-1.3,6.9,2.6
			C414.1,55.9,413.8,59.9,412.4,62.5z"/>
		<path class="st5" d="M425.1,49.8c-2.6,0.4-5.3,0.4-7.4,3.1c3.8,0.7,8.7-0.5,9,4.9c0.2,3-2.3,4.9-5.1,5.3c-1.9,0.3-4.6,1.2-5.8-2.7
			c2.4,0.9,4.2,1.4,6.2,0.5c1.7-0.8,2.6-1.5,2.3-3.2c-0.3-1.5-1.1-2.5-3-2.8c-1.8-0.2-4.9,1.6-5.2-2c-0.3-3.8,3.1-3.5,5.4-4.2
			C422.9,48.2,424.2,48,425.1,49.8z"/>
		<path class="st6" d="M480.3,51.6c-4.1-0.5-5,1.5-4.9,4.5c0,1.1,0.1,3.3-1.8,3c-2-0.3-0.4-2-0.4-3c0-1.8-0.7-3.7,1.1-5.3
			C476.2,49.2,477.8,48.6,480.3,51.6z"/>
		<path class="st7" d="M482.9,56.3c0.7-1.3-0.9-3.7,1.2-3.7c2,0,1.3,2.5,1.4,4c0.1,1.2,0.5,3.3-1.4,3.2
			C481.9,59.7,483.6,57.4,482.9,56.3z"/>
		<path class="st8" d="M483.4,46.6c-0.7-1.9-0.9-3.4,0.7-4.5c0.5-0.4,1.4-0.1,1.3,0.3C485.2,43.8,484.7,45.2,483.4,46.6z"/>
		<path class="st0" d="M397.5,54c-3,0.5-5.6-0.1-8.4,1.1c0.3-2.8,2.2-3.7,3.8-3.9C394.5,50.9,396.6,51.4,397.5,54z"/>
		<path class="st9" d="M435.1,60.8c-2.1,0.4-3.7-0.5-3.6-2.8c0-1.9,0.9-4,3.4-3.7c2.7,0.4,4.6,2.8,5,4.8
			C440.2,60.8,437.2,60.8,435.1,60.8z"/>
		<path class="st10" d="M501.2,59.9c-1.9,0-3.4,0-4.8,0c-1.4,0.1-2.4-0.6-3.1-1.6c-0.5-0.7,0.3-1.2,0.8-1.6c1-1,2.3-1.6,3.7-1
			C499.3,56.3,500.4,57.6,501.2,59.9z"/>
		<path class="st11" d="M461.5,53.2c1.4-3.4,3.2-4,6-1C465.3,52.9,463.3,52.1,461.5,53.2z"/>
		<path class="st0" d="M531.2,217.8c-8.1,0-16.3-0.5-24.4,0.1c-20.2,1.4-40.5,1.2-60.7,1.9c-11.3,0.4-22.6,0.2-33.9,1.3
			c-15.4,1.6-30.9,2-46.3,2.8c-9.1,0.5-18.3,0.7-27.4,1.6c-11.8,1.1-23.6,0.9-35.4,2.2c-2.4,0.3-2.2-1.6-2.3-2.5
			c-0.8-4.9-1.4-9.8-1.9-14.8c-1-10.8-1.2-21.7-2-32.6c-1.5-20.2-3.6-40.3-4.4-60.6c-0.6-15.8,0.9-31.6,0.4-47.3
			c-0.1-2,0.7-2.9,2.7-2.7c0.3,0,0.6,0,0.8,0c7.7-0.2,7.7-0.2,8.3,7.5c0.1,0.8,0.1,1.8,0.5,2.4c4.4,6.5,9.7,11.9,17.3,14.5
			c14.6,4.9,23.6,0.1,32-9.3c3-3.3,3.8-8,3.1-12.5c-0.4-2.8,0.8-3.4,3.5-3.6c23.7-1.8,47.5-1.5,71.2-1.8c16.5-0.2,33-1.2,49.5-1.7
			c18.4-0.6,36.8-1,55.2-2c4.8-0.3,9.7,0.7,14.6,1c0.7,0.1,1.4,0.3,2.1,0.3c7.7-0.1,8-0.1,8.2,7.6c0.2,8.2,1.2,16.4,1.1,24.7
			c-0.2,14.4,0.6,28.7,1.5,43.1c0.2,2.7-0.7,5.5-0.7,8.3c-0.1,20.1,0,40.2,0,60.3c0,1.8,0.1,3.5,0.1,5.3c0.1,5.8-0.3,6.3-6.6,6.4
			C548.6,217.9,539.9,217.8,531.2,217.8C531.2,217.8,531.2,217.8,531.2,217.8z"/>
		<path class="st12" d="M398.3,138.6c1.9,2.3,1.5,5.1,2.7,7.4c1.3-2.4,3-4.4,6.2-3.5c1.6,0.4,2.7,1.7,2.7,3.3
			c-0.1,3.7-4,1.6-5.6,3.6c1,1.7,3,2,4.8,2.5c-0.8,1.8-2.5,1.7-3,1.3c-3.1-2.7-5.4-0.5-8.2,0.6c-4,1.6-7,0-7.4-3.4
			c-0.5-5.4,2-7,7.4-4.9c0.3-1.1,0.4-2.2-0.2-3.3C397.1,140.9,397,139.9,398.3,138.6z"/>
		<path class="st13" d="M372.2,133.9c-0.9-2.9-0.1-5.9-0.4-9.1c-1.3,0.3-2.6,0.8-3.8,0.9c-1.4,0.2-2-1.3-3.3-1.9
			c-0.2,1.6-0.3,3.2-0.7,4.7c-0.7,2.9-2.1,5.2-5.6,4.7c-3.7-0.5-4.8-3.7-4.9-6.7c-0.2-5.2,5-8.1,9.5-5.5c1,0.6,1.4,0.5,1.9-0.3
			c1.5-2.5,4.3-1.4,6.4-2c1.4-0.4,2.8,0.9,2.9,2.3c0.5,3.9,0.2,7.9-0.4,11.8C373.8,133.5,373.4,134.1,372.2,133.9z"/>
		<path class="st2" d="M375.2,163.8c0.6-1.9-1.5-3.3-0.2-5.3c3.9,2,1.8,6.7,4.4,10c-0.4-4,0.9-6.5,4.4-6.9c2.1-0.2,4,1.8,3.9,3.5
			c-0.3,3-3.7,1.4-5.4,2.7c1.2,2.6,3.9,1.4,5.7,2.2c-0.7,1.5-2.2,2-3.2,1.4c-3.4-1.9-6.4-0.8-9.8,0c-3.3,0.8-5.1-2.3-5.2-4.5
			C369.5,163.8,372.8,163.8,375.2,163.8z"/>
		<path class="st14" d="M442.4,136.8c1.9,3.5,0.5,6.3,1.5,9c2.8-2.6,4.4-1,5.7,1.7c1.3-2.4,1.9-5.6,5.5-5.3c1.9,0.2,3,1.7,2.7,3.6
			c-0.6,3.5-3.7,0.3-5.2,2c0.6,2.3,2.4,3,5.3,2.7c-1.7,2-3.2,3.4-5.2,1.2c-2.1-2.2-2.9-1.2-2.9,1.6c-2.6-1.8-1.8-4.5-3.2-6
			c-2.2,0.4-1.9,4.7-4.3,3.6c-1.8-0.8-0.3-3.8-0.4-5.8C441.7,142.8,441.4,140.4,442.4,136.8z"/>
		<path class="st15" d="M487.2,195.9c-1.5,3.8-4.2,5.1-7.6,3.5c-1-0.5-1.4-0.8-2.2,0.3c-1.1,1.4-2.6,1.3-4,0.5
			c-1.5-0.9-4.5-0.2-4.4-2.1c0.2-2.4,0.2-5.3,2.1-7.3c0.9-0.9,2.3-1.8,3.2-0.5c1.3,1.9-1.1,1.1-1.6,1.7c-0.6,0.8-0.9,1.8-1.5,3.2
			c2.7-0.4,5,0.3,6.2-2.9c0.8-2.1,5.6-1.9,7.3,0c1,1.1,1.8,2.5,2.6,3.8L487.2,195.9z"/>
		<path class="st16" d="M370.7,194c2.6,3.1,2.6,3.1,8.9,2.7c0.8-1.8-2.3-2-1.4-4.1c3.8,1.1,4.1,4.5,5.1,7.5c1.5,0,1.7-1.4,2.1-2.2
			c0.6-1.7,1.8-1.9,3.3-2c1.7-0.1,2.3,0.9,3,2.3c0.6,1.2,0.9,2.4,0.2,3.5c-0.9,1.5-2.6,1.3-3.8,0.9c-1.9-0.7-3.3-1.7-5.2,0.4
			c-0.9,0.9-3.5-0.2-5.4-0.2c-3.4,0-7.1-0.3-6.3-5.5C371.3,196.3,369.6,195.5,370.7,194z"/>
		<path class="st13" d="M369.5,195.2c0,2,0,3.5,0,5.1c0,5.2,0,5.1-4.9,3.5c-0.6-0.2-1.4-0.1-2.1,0c-5.6,0.9-5.6,0.8-6.6-5
			c-0.6-3.2-0.5-5.4,3.8-5.4c2.1,0,4.3-1.1,7.4-0.1c-3,1.8-6,1-8.7,2.8C362.3,197,365.7,195.4,369.5,195.2z"/>
		<path class="st3" d="M423.1,192c-1-0.1-2-0.3-3-0.4c6-3.8,4.9,3.6,8,5c0.2-2.2,0.3-4.4,2-6c0.6-0.5,1.2-1.4,2.1-0.6
			c0.8,0.7,0.5,1.3-0.4,1.9c-1.2,0.8-1.6,2.1-1.7,3.5c1.1,1.2,2-0.2,3-0.3c1.9-0.3,3.4,0.4,4.2,2c0.7,1.3,0.7,2.7-0.7,3.7
			c-1.6,1.2-3.6,2-4.9,0.6c-2-2.2-3.5-1.3-5.4-0.2c-3.1,1.8-4.8,0.9-5.3-2.4c1.8,0.5,4.5,1.7,5-0.3c0.8-3.2-3.4-2-4.8-3.8
			C420.7,193.2,423.3,193.8,423.1,192z"/>
		<path class="st17" d="M539.4,143.2c1.7-0.4,3.2-0.5,4.1,1.5c1,2,1.7,3.9,0,6.2c-1.4-1.8-0.9-4.1-2.8-5.2c-2.2,1-1.5,4.5-4.7,5
			c-2.8,0.4-5.4,0.5-6.4-2.2c-0.9-2.5-1.7-5.7,0.7-7.8c2.4-2.1,4.6-0.3,6.4,1.5c0.3,0.3,0.6,0.5,1,0.8c1,3.2-2,3-3.9,4.2
			C537.4,147.6,537.4,143.9,539.4,143.2z"/>
		<path class="st18" d="M463.2,184.1c0.6-3.2,0.8-5.6,3.6-5.8c1.2-0.1,2.9-0.7,3.4,0.8c0.7,2.5-1.9,3.8-2.8,5.7
			c1.3,0.1,2.5,0.3,3.9,0.4c-0.4,0.4-0.6,0.7-0.9,0.7c-4.9,0-9.8,0.1-14.7-0.1c-1.7-0.1-2-1.7-2.1-3.1c-0.1-1.8,1-2.9,2.5-3.5
			c1-0.4,2.2-0.3,3.3-0.3c0.2-1.7-2-4.1-0.3-4.5c2.1-0.5,1.6,2.5,2.1,4C461.7,180,462.3,181.5,463.2,184.1z"/>
		<path class="st12" d="M395.5,124c-1.8,1.5-0.1,2.4,0.3,3.4c0.7,1.8,2.3,3.6-0.2,5c-2.4,1.4-5,3.5-8,1c-2-1.6-3.1-3.6-1.3-6.1
			c0.8-1,1.1-2.2,0.5-3.1c-1.5-2.3-0.1-3.6,1.4-4.9c1.3-1.2,2.4-0.6,3.7,0.1C394,120.5,395.3,121.9,395.5,124z"/>
		<path class="st19" d="M406,168.9c1.1-1.8,2.9-3.1,1.8-6.2c3.3,2.8,2,4.8,0.5,6.6c-1.1,1.3-2.5,3.7-4.4,0.5c-0.6-1-0.6,0.1-0.9,0.3
			c-2.6,2.2-6.1,1.9-8.3-0.5c-0.9-1.1-1.2-2,0.1-2.7c1.4-0.9,1.4,0.2,1.7,1.2c0.5,1.5,2.1,1.9,3.3,1.6c1.5-0.3,0.5-1.9,0.8-2.8
			c0.1-0.7-0.1-1.4,0-2.1c0.6-3.4-0.7-4.8-4.3-4.3c-0.8,0.1-2.2,0.7-2.4-0.8c-0.1-1.3,1.2-1.3,2.2-1.4c3.4-0.4,6.7-0.9,7,4.3
			C403.4,164.8,404.2,167.2,406,168.9z"/>
		<path class="st20" d="M498.8,148.6c1.2-0.7,1.6,0.1,2.3,0.2c1.2,0.2,2.5,0.2,2.8-1.1c0.2-1.1-1-1.6-1.9-2
			c-1.2-0.6-3.8-0.4-2.7-2.5c0.7-1.4,2.3-3.9,5-0.8c1.1,1.3,2.3-0.7,2.2-2.4c0-0.9-0.7-2.6,1-2.7c1.6-0.1,1.5,1.4,1.5,2.5
			c0,1.2-0.3,2.7,1.7,2.5c0.1,0,0.3,0.1,0.4,0.1c0.5,0.7-1.6,8.4-2.5,9c-1.6-1.9,1.3-6.1-3.9-6.9c2.3,2.7,2.1,4.7-0.5,6
			C502,151.5,499.9,151.6,498.8,148.6z"/>
		<path class="st14" d="M457.8,195.3c-0.4-2.1,1-1.9,2.3-1.8c1.1,0.1,2.3,0.5,2.7,1.6c0.4,1.3,0.1,2.8-1.2,3.3
			c-2.5,0.9-3.2,2.7-3.1,5.6c-1.9-1.7-3.4-3-4.8-4.3c-1.5-1.3-2.8-1.8-4.2,0.1c-0.4,0.5-0.9,1.5-1.5,1c-0.7-0.5-1.6-2.1-1.5-2.2
			c1.6-1.7,0.5-4.8,2.1-5.7c2-1,3.6,1.1,4.9,2.8c0.4,0.6,1,1,1.5,1.5c0.7-1,1.2-2.6,3-2.1c0.2,0.2,0.3,0.4,0.5,0.7
			C458.2,195.6,458,195.4,457.8,195.3z"/>
		<path class="st21" d="M432.1,170c-3.1-1.3-1.5-3.9-2.4-5.9c-1.6,0.5-3.3,1-5,1.6c-0.9,0.3-2.6,0.9-2.5,1.3c0,1.6,1.7,1.5,3.2,1.8
			c-1.7,2-3.7,1.7-4.6,0.4c-1.2-1.6-3.2-3.5-1-6.1c1.5-1.6,2.8-3.4,5.1-1.9c1.2,0.8,2.5,1.7,3.7,0.9c1.6-1.1-0.1-2.4-0.2-3.7
			c-0.1-0.7-0.5-1.8,0.7-2c0.9-0.2,1.3,0.6,1.5,1.2C431.5,161.7,433.7,165.5,432.1,170z"/>
		<path class="st7" d="M469.6,164.1c1.8-2,3.7-4,6.7-1.9c1.1-2.2-1.1-4.4,0.3-6.5c1.2,0.1,1.3,1,1.5,1.7c0.7,2.4,1.2,4.2,4.6,4.1
			c3.3-0.1,4,3.3,1.4,7.8c-0.1-1.7-0.2-2.9-0.2-4c-0.1-2.2-2.1-1.8-3.1-1.9c-1.8-0.2-1,1.5-0.8,2.4c0.3,1.3,1.2,2.5,0,3.8
			c-1.5-0.4-1.6-1.8-1.6-2.7c-0.1-2.9-2.4-3.3-4.2-3.5c-2.2-0.3-2.5,2-2.7,3.5c-0.4,4.1-1.7,1.2-2.7,0.4
			C467.6,166.1,468.6,165.1,469.6,164.1z"/>
		<path class="st3" d="M355.7,137.4c1.3,1.9,2.1,3.3,2,4.9c-0.1,1.7,0.4,2.4,2.3,2.4c2.3,0,2-1.3,2-2.7c0-1.2,0-2.4,0-3.9
			c3.6,1,2.4,4.1,3.1,6c0.6,1.9,0.1,4.1,1,6.1c0.3,0.6,0.5,1.8-0.8,2c-0.8,0.1-1.3-0.5-1.5-1.2c-0.3-0.9-0.7-1.8-0.8-2.7
			c-0.2-1.9-1.2-2.3-2.8-1.7c-1.3,0.4-2.9,0.4-1.9,2.6c0.7,1.4,0.1,2.7-1.4,2.8c-1.4,0-0.9-1.5-0.9-2.3
			C356.5,145.8,354.2,142.1,355.7,137.4z"/>
		<path class="st14" d="M409.8,131.4c2.1,1.7,3.8,2.3,5.4,0.2c1.4-1.8,0-3.2-0.8-4.5c-1.2-1.9-2.7-0.5-4,0c-3.1,1.3-3.4-0.6-3-2.8
			c0.6-3.5,3.9-4.6,9.4-3.4c-1.8,2.3-5.9-0.4-6.7,3.2c5.2-0.6,6.8,0.3,7.8,5.3c0.6,3.2-2,4.7-4.3,5.7
			C411.6,136,409.9,134.8,409.8,131.4z"/>
		<path class="st22" d="M485.6,144.7c-0.8,0-1.7,0-2.5,0c-2.6-0.1-4.3,0.5-2.9,3.6c0.4,0.9,0.6,2-0.8,2.2c-1.1,0.2-1.5-0.7-1.4-1.6
			c0.3-2.4-4.4-4-1.2-6.9c0.1-0.1-0.2-0.5-0.3-0.7c-1.8-2.4-1.8-2.4,1.7-3c2.1-0.3,4.2-0.4,6.2-0.5c2.9-0.2,1.9,1.4,1.2,2.8
			c0.7,1.2,0.2,2.5,0.4,3.7C485.8,144.3,485.7,144.5,485.6,144.7z"/>
		<path class="st19" d="M502.3,161.3c1.4,4.5-2.9,3.1-4.7,4.3c0.5,1.5,2.3,1.1,2.9,2.2c-0.9,1.3-1.6,1.1-2.9,0.6
			c-0.8-0.3-2.4-3.2-3.4,0.4c-0.3,1.1-1-0.9-1.4-1.5c-0.7-1,0-3-1.3-3.2c-1.8-0.2-1.6,1.7-2.1,3c-0.2,0.6-0.4,1.8-1.6,1.2
			c-1-0.5-0.8-1.3-0.4-2.1c0.4-0.9,0.9-1.7,1.4-2.6c2.2-4,2.7-4,5.4,0.1c0.9-1.5,1.7-3,3.3-3.8c2.1-1,3.3,0.6,4.8,1.5L502.3,161.3z"
			/>
		<path class="st20" d="M438.6,182.8c0.6-0.8,0.8-1.5,0-2.2c-1.8-1.8-1.2-3.4,0.8-4.3c2-0.9,4.3-1.5,5.9,1c0.8,1.2,1.1,2.7,2.1,3.9
			c1.2,1.4,2.3,3.4,0.3,5.2c-1.7,1.5-3.7,2.8-6,1.6C439.8,186.9,438,185.5,438.6,182.8z"/>
		<path class="st21" d="M440.1,144.6c-1.8,0.2-4.2-0.5-4,2.2c0.2,2.8,2.4,3.2,5,3.4c-0.9,0.4-2,1.3-2.7,1.1c-2.7-0.7-5-0.4-7.6,0.4
			c-1.8,0.6-2.9-1-3.5-3.2c-0.5-2.1-1-3.9,0.9-5.2c1.5-1.1,3.5-1.3,4.8,0.4c0.8,1,0.9,1.5,1.8,0.1
			C436.6,141.1,438.5,141.6,440.1,144.6z"/>
		<path class="st23" d="M383,187.1c-5.7,1-6.8,0.5-7.7-4c-0.3-1.4-0.9-1.3-1.9-1.6c-1.7-0.5-1.3,0.8-1.5,1.6
			c-0.3,0.9-0.7,1.8-0.3,2.8c0.4,1.1-0.9,0.7-1.3,1.1c-0.2,0.2-0.8,0-0.8-0.6c0.2-2-0.9-4.2,0.6-6c1.2-1.6,2.5-1.5,4.3-0.6
			c1.8,0.9,2.8-2,4.8-1.7c1.6,0.3,3.5-0.3,3.7,2.2c0.2,2.2-1,3-3,3c-0.8,0-1.7,0.1-2.6,0.2C377.8,186.7,380.9,186,383,187.1z"/>
		<path class="st19" d="M449.4,156.6c2.7,1.4,5.4,4.2,6-0.9c0.1-0.7,0.7-1,1.2-0.8c0.4,0.2,1,0.7,1.1,1.1c0.4,4.2,0.6,8.4,0.9,12.9
			c-3.9-1.6-0.1-9.6-7.4-7.4c-0.6,1.4,0.7,3,0.7,4.8c0,0.9-0.2,1.7-1.3,1.8c-1.2,0.1-1.3-0.8-1.3-1.6
			C449.3,163.4,449.4,160.4,449.4,156.6z"/>
		<path class="st24" d="M421.5,125.6c1.4,0.7,2.3-0.4,3.5,0.1c2,0.7,3.7,1.7,3.8,3.9c0.1,1.7-0.9,2.9-2.7,3.6
			c-2.2,0.9-3.9,0.2-5.2-1.2c-2.7-2.9-1.7-10.2,1.4-12.7c0.8-0.7,1.3-0.7,2.1-0.1c0.9,0.7,0.3,1.3-0.2,1.6
			C422.4,121.9,422.4,123.8,421.5,125.6z"/>
		<path class="st3" d="M402.1,118.4c1.9,1.2,4.6,1.3,3.8,4.7c-0.6,2.6,0.7,5.1,1.2,7.6c0.2,1.3,1,3.3-0.5,3.7
			c-1.8,0.4-1.5-1.7-1.9-3c-0.8-2.8,0.2-7.1-5.3-6.2c-1.5,0.2-2.6-1.8-2.2-3.4C397.8,119.1,400.4,119.6,402.1,118.4z"/>
		<path class="st2" d="M439.3,126.5c0-3.8,2.6-7,5.4-7c2.3,0,5.6,4.1,5.5,6.9c-0.1,3.3-3.2,6.4-6.2,6
			C440.7,131.9,438.8,129.9,439.3,126.5z"/>
		<path class="st25" d="M515.5,144.4c-0.8-1.1-2.3-0.1-2.9-1.3c0-0.2-0.1-0.6,0.1-0.7c2.6-1.9,4.9-0.5,6.7,1.1
			c1.9,1.7,3.2,4.4,2.1,6.7c-0.8,1.6-3.6,0.9-5.5,1.3c-2.2,0.4-3-1.4-3.4-2.9C511.9,146.2,513.3,144.9,515.5,144.4z"/>
		<path class="st26" d="M355,187.6c-1.9-0.3-4,0-4.2-2.8c-0.1-2.7,0.5-4.7,3.6-4.9c2-0.1,4.4,0.1,2.4-3.1c-0.1-0.2,0.3-1,0.5-1
			c0.5,0,1.3,0.1,1.5,0.4c1.3,2.8,2.6,5.7,3.8,8.5c0.4,0.9-0.4,1.5-1.3,1.7C359.2,186.9,357.1,187.2,355,187.6z"/>
		<path class="st27" d="M375.3,125.3c0.8-2.2,1.7-4.6,2.7-7c0.1-0.2,0.8-0.5,0.9-0.4c0.4,0.3,1,0.9,0.9,1.2
			c-0.3,1.5-0.7,2.9-1.3,4.3c-0.4,0.9-1.1,1.9-0.3,2.6c0.8,0.7,2.1,1,2.9-0.1c1.2-1.7,2.4-0.9,2.8,0.3c0.9,2.5-1.5,4.9-0.7,7.6
			c0.1,0.4-1.8-0.5-2-1.5c-0.4-2.4-1.1-4-4.1-3.7C375.2,128.8,375.3,126.9,375.3,125.3z"/>
		<path class="st21" d="M437.3,164.3c-0.9-0.7-2.4,0.3-3-0.9c-0.2-0.3,0.1-1.1,0.5-1.5c1.2-1,2.3-0.3,3.5,0.2c2.9,1.5,4.4,4,5.7,6.9
			c0.2,0.5,0.7,1,0,1.4c-0.6,0.4-1.4,0.5-1.9-0.1c-1-1.2-1.9-1.8-3.5-1.1c-1.4,0.7-3.1,1.3-4.1-0.3c-1.1-1.7,0.8-2.7,1.6-3.8
			C436.4,164.9,436.9,164.6,437.3,164.3z"/>
		<path class="st14" d="M413.8,202.7c-4.1-0.1-5.1-1.5-4.3-5.7c0.2-0.9,0-1.9,0.1-2.9c0.1-2.1,1.8-2.1,3.3-2.4
			c1.4-0.3,2.8,0.4,2.8,1.7c0,1.7,0.9,2.7,1.6,4C419,200.5,417.4,202.8,413.8,202.7z"/>
		<path class="st15" d="M487.3,196.1c-1-2.9,2.1-2.5,3.7-4.1c-1.9-0.2-3.2-0.3-4.6-0.4c3.8-3.2,5.1-2.7,6.9,1.8
			c0.3,0.8,1.5,1.1,2.1,1.8c2,2.1,1.7,4-0.6,5.6c-2.2,1.6-4.3,1.9-6.1-0.5c0.7-1.1,1.1-0.4,1.5-0.3c1.7,0.6,3-0.1,4.1-1.3
			c0.4-0.4,0.5-1,0.1-1.5c-1-1.3-2.4-1.6-4-1.6c-1.1,0-2.2,0.2-3.3,0.3C487.2,195.9,487.3,196.1,487.3,196.1z"/>
		<path class="st7" d="M492,146.8c1.6,1.7,3.3,1.8,5,2.4c-1.9,1.8-3.7,1.9-5.7,0.2c-2.3-1.9-2.3-4.3-1.5-6.8
			c0.8-2.1,2.6-2.5,4.8-2.3c1.9,0.2,3.2,1.1,3.5,2.9c0.3,2.2-1.7,2.1-3.1,2.5C494.1,146,493.2,146.4,492,146.8z"/>
		<path class="st27" d="M469.6,164.1c-0.3,1.1-0.5,2.2-0.8,3.4c-1,1.5-2.8,0.1-4.3,1.2c-1.2,1-3.5,0.9-4.5-1.4c-1-2.6,1-3,2.6-3.7
			c0.5-0.2,0.9-0.4,2.2-1.1c-1.5-0.1-2.1-0.2-2.7-0.3c-0.7-0.1-1.9,0.3-1.8-1c0.1-1.1,1.1-1.7,2.1-1.4c2,0.7,4.4,1.1,5.4,3.4
			C468.3,164.2,468.9,164,469.6,164.1z"/>
		<path class="st14" d="M436.7,130.1c0.8,2.3-0.3,3.4-2.8,3.6c-1,0.1-2.5,1.1-2.9-0.3c-0.6-1.9,1.3-1.2,2.2-1.4
			c1.9-0.6,0.9-2.1,1-3.2c0.2-1.7,0-3.3-1-4.8c0-0.1-0.2-0.2-0.3-0.1c-0.9,0.6-2.1,3.1-2.7,0.5c-0.3-1.5,1.5-3.7,2.8-5.3
			c1-1.2,1.7,0.3,1.9,1.1C435.7,123.4,437,126.5,436.7,130.1z"/>
		<path class="st17" d="M486.4,180.2c0,1.4,0,2.8,0,4.2c-0.1,2.2-1.8,3.5-3.4,3.5c-1.9,0.1-2.6-2.1-3.3-3.7
			c-0.3-0.8,0.2-1.7,1.3-1.7c1.4,0,0.4,0.8,0.4,1.4c0,1.1,0.7,1.9,1.7,1.9c1.1-0.1,1.5-1.2,1.5-2.2c-0.1-2.2-0.3-4.4-0.7-6.6
			c-0.3-1.9-1.5-0.9-2.6-0.7c-0.8,0.2-1.8-0.3-1.8-1.2c-0.1-1.2,1.1-0.9,1.9-1C486.2,173.5,486.4,173.8,486.4,180.2z"/>
		<path class="st28" d="M405.5,200c-2-1,1.1-5.9-3.7-4.7c-0.8,0.2-0.4-1.1-0.4-1.7c-0.1-2.2,1.7-3,3.2-4.4c1.2,3.9,2.5,7.6,3.6,11.4
			c0.2,0.8,0.4,2.2-1.2,2.1c-1.8-0.2-3.9,1-5.4-0.8c-0.5-0.6-0.2-1.6,1-1.7C403.5,200.1,404.5,200.1,405.5,200z"/>
		<path class="st20" d="M378,157.9c-1.3-1.6-1.3-2.8-0.9-3.5c1.7-3.5,0.3-6.4-1.7-9.2c-0.4-0.6-1.5-1.2-0.4-2
			c0.9-0.6,1.6-0.3,2.2,0.9c0.9,1.7,2.2,4.1,3.4,0c0.1-0.3,0.9-0.6,1.4-0.6c0.8,0.1,1,0.9,0.8,1.6
			C381.3,149.3,379.8,153.3,378,157.9z"/>
		<path class="st27" d="M502.4,161.4c0.9-2.7,3.3-1.7,5-1.5c2,0.2,2,1.7,1.2,3.5c-0.7,1.6,2.2,0.9,2,2.6c-1,1.3-2.9-0.2-4.1,1.1
			c0.9,2.6,3.4,1.2,5,2.3c-1.6,1.9-3.4,1.2-5.3,0.7c-2.5-0.6-0.8-3.6-2.9-4.4c-0.4-0.2,0.7-1,1.2-1.4c0.7-0.5,2.3-0.2,1.9-1.7
			c-0.5-1.7-1.7-0.7-2.7-0.5c-0.4,0.1-0.9-0.5-1.4-0.8C502.3,161.3,502.4,161.4,502.4,161.4z"/>
		<path class="st29" d="M370.5,143.8c3.6,0.2,4.3,2.9,4.7,5.4c0.4,2.2-0.9,4-3.3,3.8c-3.3-0.2-4.6-2.7-5.1-5.6
			C366.6,144.8,368.7,144.3,370.5,143.8z"/>
		<path class="st2" d="M430.6,187.4c6.7-1.1,2.6-5.1,2.7-8c-1.3,0.3-1.7,1.9-3.2,1.9c-0.7-3.3,1.5-5.1,3.8-7.4
			c0.8,3.2,1.5,6,2.2,8.8C437.6,188.3,436.6,189.2,430.6,187.4z"/>
		<path class="st3" d="M403.5,182.6c-0.7-3.9,4.7-3.9,4.5-7.4c0-0.1,0.8-0.3,1.2-0.2c0.7,0.3,0.3,0.8,0.1,1.3
			c-0.8,1.9-0.2,3.4,1.3,4.8c1.5,1.5,1.5,4,0.3,5.4c-1,1.1-2.9,1.5-5,0.5C403.8,185.9,403.9,184.2,403.5,182.6z"/>
		<path class="st2" d="M359.6,162.1c2.8,0.9,4.5,3,4.5,5.4c0,2.1-1.7,4.1-4.5,4c-2.6-0.1-4.4-1.5-4.6-4.3
			C354.9,164,357.7,163.4,359.6,162.1z"/>
		<path class="st30" d="M425.8,152.7c-2-1.7-1.9-3.7-2.5-5.4c-0.2-0.6,0.1-1.5-0.9-1.6c-1-0.1-1.5,0.7-1.6,1.6
			c-0.2,0.9,0,1.9-0.2,2.9c-0.1,0.7-0.7,1.2-1.5,1.2c-1,0-1-0.9-0.9-1.5c0.2-1.7-0.9-3.9,0.7-5c1.3-0.8,2.4-3.1,4.6-1.9
			c1.8,0.9,2.2,2.7,2.3,4.5C425.9,149,425.8,150.6,425.8,152.7z"/>
		<path class="st31" d="M520.2,181.4c1.9-0.4,2.3-3.8,4-2.2c2,1.7-1,2.6-1.8,3.8c-1.5,2.3-3.3,4.2-5.1,6.5c-1-0.9-1-1.9-0.4-2.6
			c1.9-1.9,2.3-3.8,0.7-6.1c-0.6-0.8-1.3-2.7,0.5-3c1.9-0.4,0.7,1.7,1.2,2.4C519.7,180.5,520,181,520.2,181.4z"/>
		<path class="st27" d="M506.5,186.7c-3.3,0.4-3.8-2.1-4.1-4.2c-0.4-3.1,2.4-2.5,4.1-2.7c2.7-0.4,3.9,1.6,4,3.7
			C510.7,185.9,508.5,186.4,506.5,186.7z"/>
		<path class="st17" d="M410.1,156.4c4.3,4.3,3.7,9.6,3.3,14.9C410.4,166.8,411.9,161.2,410.1,156.4z"/>
		<path class="st30" d="M350,157.2c1.8,0.5,2.6,0.9,2.6,2.1c0,2.9,0,5.8,0.8,8.6c0.2,0.6,0.5,1.8-0.6,2c-1,0.2-1.5-0.2-2-1.5
			C349.4,164.8,350.5,161.2,350,157.2z"/>
		<path class="st32" d="M491.5,179c2.4,2.5,3.4,4.5,1.7,6.9c-1,1.4-2.8,1.2-4.2,0.4c-1.8-1.1-2.2-2.8-1.8-4.8
			c0.2-0.8,0.8-1.6,1.8-1.4c1,0.2,0.5,1,0.6,1.7c0.2,1.2-0.6,3.4,1.5,3.1c2.2-0.4,0.7-2.1,0.4-3.3C491.4,181,491.5,180.4,491.5,179z
			"/>
		<path class="st30" d="M391.3,180.2c1.1-1.3,2.3-2.4,4.3-2c1.2,0.2,2.5,0.5,2.3,1.8c-0.3,1.6-1.4,0.5-2.2,0.2c-2.1-0.7-2,0.7-1.9,2
			c0.3,3,2.2,3.9,5.4,3.6c-4.3,2.4-7.6,0.1-7.8-5c-0.2-0.1-0.3-0.3-0.2-0.4C391.2,180.3,391.3,180.2,391.3,180.2z"/>
		<path class="st33" d="M391.3,180.2c0,0.2,0,0.4,0,0.6c-0.1,0-0.3-0.1-0.4,0c-1.3,1.2-4.2-1.5-4.5,1.7c-0.2,2.5,2.4,2.4,4.5,3.5
			c-2.8,1-5,1.1-6.1-1.3c-0.7-1.7-0.9-3.9,0.8-5.4C387.8,177.4,389.6,178.8,391.3,180.2z"/>
		<path class="st34" d="M498.1,188.3c-1.5-0.8-2.5-1.6-2.5-3.4c0.1-2.3,0.2-4.7-0.7-7c-0.3-0.6-0.4-1.8,0.6-2.1
			c1.2-0.3,1.8,0.7,1.8,1.7C497.2,181.1,498.7,184.5,498.1,188.3z"/>
		<path class="st35" d="M415.9,182.6c-1.5,1.1-1.1,3.5-3.1,4.4c-1.3-3.6,1.1-5.7,3-7.3c1.2-1.1,1.8,1.5,2.3,2.5
			c0.6,1.1,2.1,2.9,0.6,3.6C416.6,186.6,417.1,183.5,415.9,182.6z"/>
		<path class="st36" d="M468.8,143.6c0,2.3,0.6,4.1-0.9,4.3c-1.8,0.3-1.2-1.8-1.5-2.8c-0.5-1.5-0.5-3.2-1.5-4.6
			c-0.6-0.9-1.1-1.8,0-2.4c1-0.5,1.8,0.3,2.4,1.2C468.4,140.9,468.9,142.8,468.8,143.6z"/>
		<path class="st37" d="M539.4,143.2c-0.9,1.5-1.7,3.1-2.6,4.7c-0.9,1.7-2.5,1-3.7,0.9c-0.9-0.1-1.5-1.2-1.4-2.3
			c0.2-2.2,1.9-1.1,2.9-1.2c1.5-0.2,3.2,0.1,3.1-2.3C538.4,142.8,539,142.1,539.4,143.2z"/>
		<path class="st23" d="M366.2,184.8c0.6,0.8,1,1.5,0,1.8c-0.7,0.3-1.4,0.2-1.9-0.8c-1.3-2.4,0-5.3-1.6-7.6c0-0.1,0.5-0.7,0.7-0.7
			c0.3,0,0.8,0.3,0.9,0.6C365.1,180.4,366.8,182.4,366.2,184.8z"/>
		<path class="st17" d="M349.9,153.4c-1.3-2.6,0.4-5.1-0.6-7.4c-0.2-0.4,0.2-1.1,0.9-1.2c0.9-0.1,1.3,0.6,1.4,1.2
			C352,148.5,352.2,151.1,349.9,153.4z"/>
		<path class="st38" d="M486.4,143.8c2.6,1.2,0.9,3.7,1.6,5.4c0.1,0.3-0.3,1.1-0.6,1.3c-0.9,0.4-1-0.5-1.3-1
			c-0.9-1.5-0.6-3.2-0.5-4.8l-0.1,0C485.8,144.4,485.9,143.9,486.4,143.8z"/>
		<path class="st17" d="M401.1,187c-0.6-3.1-0.6-5.2-1.7-7c-0.4-0.6-0.7-1.4,0.2-1.6c0.9-0.3,1.1,0.4,1.2,1.2
			C401.2,181.6,403.2,183.6,401.1,187z"/>
		<path class="st15" d="M417.6,170.1c-2.2-1.7-3.2-3.1-2.4-5.2c0.1-0.4,0.7-1,1.2-0.5C418.3,165.8,417,167.7,417.6,170.1z"/>
		<path class="st39" d="M500.2,186c-1.3-2.6-0.5-4.9,0-7.3C500.1,181,503,183.3,500.2,186z"/>
		<path class="st40" d="M467.9,150.7c-0.2,0.7-0.7,1.2-1.5,1c-0.7-0.2-1.2-0.7-1.1-1.5c0.1-0.7,0.5-1.4,1.4-1
			C467.3,149.5,467.9,149.9,467.9,150.7z"/>
		<path class="st41" d="M484,157.7c0.7-0.1,1,0.3,1.2,0.8c0.3,0.6,0,1.1-0.6,1.2c-0.8,0.2-1.4-0.1-1.5-0.9
			C482.9,158.3,483.4,158,484,157.7z"/>
		<path class="st42" d="M351.1,137.9c0.6,0.3,1.3,0.6,1.2,1.4c0,0.3-0.8,0.6-1.3,0.7c-0.6,0-0.9-0.5-1-1.1
			C350.1,138.1,350.5,137.9,351.1,137.9z"/>
		<path class="st43" d="M486.4,143.8c-0.1,0.5-0.3,0.9-0.9,0.9c0-1.4,0.1-2.8,0.1-4.2C486.7,141.4,486.5,142.6,486.4,143.8z"/>
		<path class="st44" d="M327.1,129.7c1.4,0.5,3.1-1.1,4.6,0.5c2.6,2.7,4.6,5.8,6.4,9.1c0.8,1.5-0.9,1.5-1.5,1.8
			c-5.3,2.4-12.3,1-16.7-3c-0.7-0.7-1.1-1.2-0.9-2C319.9,132.1,322.9,129.6,327.1,129.7z"/>
		<path class="st45" d="M326.8,121.7c2.2,0,3.8,1.1,3.9,3.3c0,1.9-1.6,2.9-3.5,2.7c-2-0.2-3.8-1.1-3.9-3.4
			C323.1,122,325,121.9,326.8,121.7z"/>
		<path class="st46" d="M399,151.4c-2.3-0.4-4.7,1.8-5.9-1.3c-0.5-1.2-0.9-3.6,0.9-3.9C397.3,145.8,397.5,149,399,151.4z"/>
		<path class="st0" d="M407.9,144.9c-1.8,1.9-3.2,1.5-4.6,1.3C404.3,144.1,405.8,144.6,407.9,144.9z"/>
		<path class="st47" d="M356,127.3c-0.2-3.5,1.8-5.4,3.9-5.7c1.6-0.3,3,2.6,2.6,4c-0.6,2,0.3,5.4-2.9,5.6
			C356.7,131.5,356.2,128.9,356,127.3z"/>
		<path class="st0" d="M371.4,122.1c-1.2,2-2.6,1.7-3.9,1.3c-0.8-0.2-0.7-1.4-0.3-1.7C368.6,120.4,369.6,122.3,371.4,122.1z"/>
		<path class="st0" d="M373.6,165.6c1.5,0.7,2.7,1.8,3.2,3.3c0.3,0.9-0.8,0.9-1.4,0.9c-1.7,0-2.9-1-3.3-2.5
			C371.8,166.6,372.7,166,373.6,165.6z"/>
		<path class="st0" d="M481,193.4c2.7-0.4,3.3,1.5,3.5,3.2c0.2,1.3-1.1,1.9-2.2,1.8c-2.1-0.2-3-1.9-3.3-3.6
			C478.7,192.9,480.4,193.6,481,193.4z"/>
		<path class="st0" d="M473.8,196.8c1.5-0.2,1.9,0.7,2.2,1.6c0.3,0.8-0.4,0.9-0.9,0.9c-1.1-0.2-2.2-0.6-2.3-1.9
			C472.8,196.7,473.6,196.9,473.8,196.8z"/>
		<path class="st0" d="M380.4,200.6c-0.2,1.6-1.3,1.2-2.2,1.2c-1.3,0-2.3-1-2.4-1.9c0-0.7,1.4-1.5,2.5-1.3
			C379.5,198.7,380.4,199.3,380.4,200.6z"/>
		<path class="st48" d="M390.6,201.4c-1.6-1-3.5-0.4-3.5-2.7c0-0.9,0.8-1.6,1.2-1.5C389.9,197.7,390.2,199.2,390.6,201.4z"/>
		<path class="st49" d="M367.5,204.2c-0.5-3-1-4.5-3.1-2.7c-1,0.9-2.4,0.3-3.7,0.4c-1.1,0.1-2.2,0.2-2.2-1.6c0-1.6,0.8-1.8,2.1-1.8
			c0.5,0,1.1-0.1,1.6-0.3C367.9,196.8,368,196.9,367.5,204.2z"/>
		<path class="st0" d="M435.9,198.4c-0.2,1.2-1.1,1.8-2.1,1.6c-1.2-0.1-2.7-0.6-2.8-2c0-0.8,1.3-1.3,2.3-1.3
			C434.7,196.8,435.6,197.1,435.9,198.4z"/>
		<path class="st0" d="M460.3,182.7c0.2,1.8-1.2,1.9-2.1,2c-1.3,0.1-2.7-0.6-2.7-2c0-1.1,1-1.8,2.3-1.9
			C459.3,180.7,460,181.5,460.3,182.7z"/>
		<path class="st0" d="M468,181.2c-0.2,0.7-0.5,1.3-1.4,1.3c-0.7,0-1.1-0.5-0.8-1c0.3-0.5,0.9-1.1,1.4-1.3
			C468.1,179.9,467.9,180.7,468,181.2z"/>
		<path class="st49" d="M392.1,132c-2.8,0.2-4.2-0.2-4.1-2.5c0-2.6,2-2.7,3.7-2.9c2.3-0.3,2.7,1.9,2.9,3.2
			C394.9,132,392.8,131.9,392.1,132z"/>
		<path class="st0" d="M390.4,124.1c-1.1,0.5-1.7-0.1-1.8-1c-0.2-1.8,1.5-1.3,2.4-1.6c0.8-0.3,2.1,0.1,2,1.5
			C392.9,124.9,391,123.1,390.4,124.1z"/>
		<path class="st50" d="M457.8,195.3c1.1-0.4,2.2,0.1,2.3,1c0.1,0.6-1.1,1.3-1.8,2.1c-0.9-1.2-0.4-2.3-0.4-3.3
			C457.9,195.1,457.8,195.3,457.8,195.3z"/>
		<path class="st0" d="M484.4,143c-1.8-0.7-4.2,1.3-5.3-1.5c-0.3-0.6,0.3-0.9,0.9-1C481.8,140.5,484.1,139.6,484.4,143z"/>
		<path class="st51" d="M500.8,162.8c-1.2,0.4-2.1,0.7-3.1,1.1c-0.2-0.4-0.4-0.7-0.3-0.9C498.1,161.6,499,160.9,500.8,162.8z"/>
		<path class="st0" d="M444.4,185.9c-1.5,0-3.4,0.3-3.4-2c0-2.4,2.5-1.6,3.8-2.1c1.5-0.6,2,0.9,2.1,2.3
			C447,186.1,445.7,185.9,444.4,185.9z"/>
		<path class="st0" d="M441.7,177.4c1.3-0.1,1.9,0.2,1.9,1.3c0,1.2-0.7,1.3-1.6,1.3c-0.9,0-2,0-1.9-1
			C440,178.4,441.2,177.8,441.7,177.4z"/>
		<path class="st0" d="M431.1,149.8c-1.9-0.4-2.1-2.1-2.6-3.4c-0.5-1.2,0.5-1.7,1.6-1.7c1.7,0,2.4,0.9,2.4,2.6
			C432.6,148.4,432.4,149.4,431.1,149.8z"/>
		<path class="st0" d="M380.3,180.8c-0.3,0.8-0.9,0.9-1.6,0.9c-0.6,0-1-0.3-0.7-0.9c0.3-0.7,1-0.9,1.7-0.8
			C380.1,180.1,380.5,180.2,380.3,180.8z"/>
		<path class="st0" d="M426.7,129.4c0.1,1.9-1,1.8-2,2c-1.5,0.2-2.5-0.6-2.7-1.9c-0.2-1.4,0.9-1.9,2.1-1.8
			C425.4,127.7,426.3,128.6,426.7,129.4z"/>
		<path class="st0" d="M402.5,122.1c0,0.8-0.4,1.2-1.1,1.4c-1.1,0.3-1.9-0.4-2.3-1.3c-0.1-0.1,0.9-0.9,1.5-1.1
			C401.5,120.8,402.3,121.1,402.5,122.1z"/>
		<path class="st52" d="M447.7,126.2c0,2.3-0.9,4.1-3.2,4.1c-2.4,0-3.7-2-3.5-4.2c0.2-1.9,0.7-4.1,3.2-4.1
			C447.1,122,447.6,124.1,447.7,126.2z"/>
		<path class="st0" d="M519.2,148.7c0,1.4-1.1,1-1.8,1c-1.4,0-2.4-0.8-2.3-2.2c0-1,1-1.1,1.8-1.2
			C518.6,146.3,518.5,147.9,519.2,148.7z"/>
		<path class="st49" d="M360.1,184.6c-1.2,1-2.5,1.3-3.9,1.3c-1.4,0-2.9,0.2-3.5-1.5c-0.3-0.8,0.1-1.5,0.9-2.1
			c1.3-0.9,2.7-1.1,3.9-0.4C358.5,182.6,359.2,183.7,360.1,184.6z"/>
		<path class="st0" d="M413.8,197.2c1.4-0.1,2.5,0.8,2.6,2c0.2,1.3-1.1,1.8-2.3,1.8c-1.4,0-2.5-0.4-2.7-2
			C411.3,197.1,413,197.8,413.8,197.2z"/>
		<path class="st53" d="M414,194.3c-0.1,0.9-0.4,1.3-1,1.1c-0.6-0.2-1.4-0.3-1.4-1.2c0-0.9,0.7-0.7,1.2-0.7
			C413.5,193.4,414.2,193.5,414,194.3z"/>
		<path class="st0" d="M495.6,143.4c-1.2,0.7-2.2,1.1-3.2,0.3c-0.2-0.1-0.1-0.9,0.1-1.1C493.5,141.7,494.4,142.1,495.6,143.4z"/>
		<path class="st0" d="M462.2,166.8c0.9-0.9,1.4-2.6,2.8-1.1c0.2,0.3,0.5,0.9,0.3,1.1C464.4,168,463.3,167.2,462.2,166.8z"/>
		<path class="st49" d="M371.1,146c1.6,0.1,1.6,1.9,2.2,3.2c0.3,0.7-0.4,1.4-1,1.4c-1.8,0-2.5-1.3-2.8-2.9
			C369.3,146.8,369.6,146.1,371.1,146z"/>
		<path class="st0" d="M404.2,181.3c3.2-0.9,5-0.5,5.6,2.1c0.2,1,0.4,2.4-1.3,2.5C405.1,186.1,406,182.8,404.2,181.3z"/>
		<path class="st0" d="M361.9,167.4c0.1,1.7-0.9,2.5-2.3,2.4c-1.7-0.1-2.3-1.6-2.3-2.8c-0.1-1.5,1.2-2.7,2.5-2.5
			C361.1,164.6,362.2,165.8,361.9,167.4z"/>
		<path class="st54" d="M506.9,185c-1.3-0.1-2-0.9-2.1-2.1c0-1.2,0.9-1.2,1.7-1.2c1.3-0.1,1.8,0.5,1.6,1.7
			C508.2,184.2,508.3,185.1,506.9,185z"/>
		<path d="M509.9,298.3c0.5-0.9,1.1-1.8,1.6-2.8c0.6-1.3,1.2-2.7,1.8-4c-1.7-0.2-3.4-0.6-5.1-0.6c-0.8,0-1.5,0.9-2.4,1.5
			c1.6,9.5,6.4,17.1,13.5,23.5c5.8,5.3,11.4,10.9,17.2,16.2c4.8,4.4,10.2,7.6,17.2,6.7c1.5-0.2,3.1,0,4.6-0.1c3-0.2,6.8,0.5,8.9-1
			c1.5-1.1,1-5.2,1.2-7.9c0.7-11.3,1.8-22.7,1.7-34c-0.1-17.8-1-35.7-1.8-53.5c-0.3-6.6-0.9-13.1-1.3-20.1c-2.8,0.2-5.7,0.7-8.7,0.7
			c-22.1,0.4-44.3,0.6-66.4,1c-16.4,0.3-32.9,0.5-49.3,1.2c-22.4,0.9-44.8,2.2-67.2,3.5c-15,0.8-30,1.8-45,2.8
			c-8.8,0.6-17.7,1.2-27.2,1.8c0.4,6,0.7,11.8,1.1,17.5c0.5,5.6,1.1,11.2,1.7,16.9c1.5,14.9,3.1,29.7,4.5,44.6
			c0.5,5.8,0.7,11.6,1,17.4c0.3,6.3,0.7,12.6,0.9,18.9c0.1,3.3,1.5,4.6,4.9,4.3c5-0.5,10.1-0.7,15.2-1c8.9-0.4,17.9-0.6,26.8-1
			c14.9-0.6,29.8-1.1,44.6-1.9c13.3-0.7,26.6-1.8,39.9-2.7c8.2-0.6,16.5-1.1,24.8-1.7c-0.1-2.4-0.2-4.3-0.3-6.3
			c3.2,8.1,4.1,16.9,9.1,23.6c5-4.4,9.7-8.5,14.4-12.5c-0.8,3.7-2.8,6.2-6.1,8.2c-2.2,1.4-4.3,3.8-5.2,6.2c-0.4,1,1.8,3.7,3.4,4.9
			c6.1,4.6,12.3,9,18.7,13.3c7.9,5.4,16.2,10.2,23.9,15.8c13.1,9.5,26.4,18.8,38.8,29.2c8.6,7.1,16.3,15.5,23.7,23.9
			c5.6,6.3,10.8,13,14,21.3c1.5,3.9,7.2,6.2,11.1,9.1c3.3,2.4,6.9,4.4,10,7c5.8,4.8,11.3,9.8,16.9,14.8c1.2,1.1,2.3,2.4,3.4,3.7
			c-0.5,0.5-1,1-1.5,1.5c-7.2-6.7-14.3-13.3-21.5-19.9c-1.8-1.6-3.7-3.1-5.8-4.4c-4.1-2.6-8.3-5-12.4-7.4c1.1,6.9,2.7,14.8,3.7,22.8
			c0.9,7.3-1.3,14-3.3,21c-3.2,11.5-4.9,23.5-6.8,35.3c-1.9,11.9-5.3,23.4-9.7,34.5c-1.4,3.4-2.6,6.9-3.8,10.3
			c-0.4-0.2-0.9-0.3-1.3-0.5c1.7-4.9,3.2-9.8,5.1-14.6c6.2-15.6,7.9-32.2,10.8-48.5c1-5.4,1.6-11,3.8-15.9c3.7-8.5,4-17.1,2.7-26
			c-1-6.8-0.9-13.9-3.2-20.2c-2.8-7.7-7.7-14.6-12.3-21.7c-5.6,14.3-16.9,18.9-30.1,20.3c-6.4,0.7-12.9,0.7-19.3,1
			c-18.4,0.9-36.9,1.8-55.3,2.8c-13.2,0.8-26.3,1.6-39.5,2.7c-11.6,1-23.1,2.5-34.7,3.5c-9,0.8-18.1,1.4-27.1,1.9
			c-10.5,0.7-21.1,2-31.6,1.5c-10.2-0.4-21-2.1-27.4-11.3c-2.9-4.2-3.8-10.2-4.7-15.5c-3.3-17.6-6.3-35.2-9.1-52.9
			c-1.6-10.4-3.1-21-3.9-31.5c-1.3-16.6-1.7-33.3-3-49.9c-1-11.7-3-23.3-4.4-35c-1.1-9.7-2.1-19.5-2.9-29.3
			c-1.4-18.2-1.5-36.6-4-54.6c-3.8-26.5-5.3-53.1-5.4-79.8c-0.1-17.1-1.9-34.2-1.4-51.3c0.3-10.5,3.1-21,5.4-31.4
			c0.6-2.6,3-5.4,5.3-7.1c7.1-5.1,15.3-7.7,23.9-8.4c13.3-1.1,26.7-1.7,40.1-2.1c20.3-0.6,40.7-0.6,61-1.1
			c31.2-0.8,62.4-2.2,93.6-2.4c14.3-0.1,28.8,0.1,42.6,5.3c6.2,2.4,10.6,6.6,12.1,12.7c2.4,9.9,4.5,19.9,5.5,30
			c1.3,12.1,1.5,24.4,1.9,36.6c0.3,8.4,0.2,16.9,0,25.3c-0.1,6.1-0.6,12.3-0.8,18.4c-0.1,3.8,0.6,7.3,4.6,9.3
			c1.6,0.8,2.8,2.4,4.1,3.7c6.9,6.8,15.7,7.1,24.8,7.9c15.2,1.3,30.3,3.9,45.4,6.4c4.7,0.8,9.5,2.1,13.8,4.2
			c5.4,2.7,8.2,8.1,8.9,13.8c0.6,4.1,2.8,5.8,5.9,7.3c4.1,2,8.3,3.9,12.3,6c5.4,2.8,8.6,7.1,7.9,13.3c-1,8.8-2.8,17.4-3.9,26.2
			c-0.6,4.5-0.4,9.2-0.6,13.8c-0.1,1.9,0,3.7,0,5.6c-0.5,0-1,0-1.5,0c-0.2-1.4-0.4-2.8-0.5-4.1c-0.7-10.5,1.7-20.6,3.7-30.9
			c2.5-13.3,2.3-17.4-10.5-23.9c-3.7-1.8-7.3-3.6-11.1-5.4c-1.2,9.8-3.1,19-3.2,28.2c-0.1,9.5-4.1,17.6-6,26.4
			c-0.6-0.1-1.2-0.3-1.8-0.4c1-4.1,2.1-8.3,3.1-12.4c0.6-2.7,1.3-5.3,1.7-8c1.1-7.5,1.7-15.1,3.1-22.6c1.6-9.1,0.4-17.7-3.9-25.7
			c-2.9-5.4-8.1-7.7-13.9-8.6c-16.2-2.5-32.3-4.9-48.5-7.2c-3-0.4-6.1-0.1-9.1-0.1c9.8,9,19.6,17.9,29.4,26.9
			c10.8,9.9,14.5,21.9,11.5,36.2c-1.8,8.5-3.2,17.1-4.8,25.6c-0.1,0.5-0.6,0.9-2.1,1.2c0.9-5.8,1.4-11.8,2.7-17.5
			c1.9-8.5,3.8-17.1,2.1-25.6c-0.9-4.7-3.3-9.8-6.6-13.1c-10.4-10.4-21.3-20.5-32.6-29.9c-7.1-6-15.3-10.6-23-15.8
			c0.5,61.5,1.1,123.5,1.6,185.8c1.9,0.2,3.9,0.4,5.9,0.6c0,0.4,0.1,0.7,0.1,1.1c-1.9,0.3-3.9,1.1-5.7,0.8
			c-5.9-1.1-11.9-2.3-17.7-3.9c-14.6-4.1-27.3-11.1-37.2-22.9c-3.9-4.7-8.3-8.9-12.9-13.8c-0.5,2-0.7,3-1,4.2
			c-0.6-0.4-1.1-0.6-1.2-0.9c-2.4-7.7-4.5-15.5-7.3-23.1c-1.2-3.2-3.8-5.9-6.1-8.5c-4.7-5-9.6-10-14.7-14.6
			c-8.6-7.8-19.9-6.1-28.6,0c1.3-1.5,2.3-3.6,3.9-4.4c10.2-5.3,18.9-4.2,27.4,3.6c5,4.6,9.8,9.4,14.3,14.4c2.8,3.1,4.8,6.9,7.2,10.4
			c2.8-2.3,8.1-3.2,9.5-1C518.1,294.8,512.6,295.9,509.9,298.3z M567.4,220.1c0-2.2,0-3.4,0-4.6c-0.3-13.3-0.8-26.6-0.9-40
			c0-11.7,0.8-23.4,0.8-35.2c0-12.5-0.4-25-0.9-37.4c-0.4-11.8-1.1-23.6-1.9-35.4c-0.1-1.1-1.7-3-2.8-3.1c-6.1-0.6-12.3-1.1-18.4-1
			c-15.9,0.4-31.7,1.2-47.5,1.8c-18.5,0.7-36.9,1.4-55.4,1.8c-24,0.5-48.1,0.7-72.1,1c-2.8,0-5.6,0.7-8.4,1.1
			c0.7,16.4-8.7,24.2-19.2,25.9c-19.5,3.1-32.4-5.9-36.1-25.7c-3.4,0.3-6.4,0.5-9.6,0.7c-0.3,2.6-0.8,5-0.9,7.4
			c-0.1,17.9-0.4,35.8-0.1,53.7c0.1,8.6,1.1,17.1,1.8,25.7c1.2,14.3,2.4,28.5,3.6,42.8c0.9,10.3,1.8,20.6,2.8,31
			c1.6,0.1,2.5,0.3,3.4,0.3c8.2-0.6,16.5-1.3,24.7-1.8c11.3-0.7,22.7-1.2,34-1.9c13.8-0.9,27.5-1.9,41.3-2.7
			c12.1-0.7,24.2-1.5,36.4-1.8c27.9-0.8,55.7-1.3,83.6-1.9c9.9-0.2,19.8,0,29.6-0.1C559.2,220.9,563.1,220.4,567.4,220.1z
			 M569.1,435.2c0.1,3-3.6,2.7-6.8,2.9c-2.9,0.2-5.8-0.2-8.7-0.1c-12.3,0.4-24.6,1-36.9,1.2c-6.1,0.1-12.3-0.8-18.4-1.2
			c-4.4-0.3-6.4-3-6.7-6.9c-0.4-5.9-0.2-11.9-0.2-17.9c0-3.3,1.8-5.6,5.2-5.9c8.8-1,17.6-1.9,26.4-2.8c2-0.2,4-0.5,6-0.8
			c0.2-0.4,0.3-0.9,0.5-1.3c-5-3.9-9.8-8.2-15.1-11.7c-9.5-6.2-19.6-11.7-28.9-18.1c-6.5-4.5-11.6-10.4-14-18.4
			c-2.2-7.6-2.5-7.6-10.3-7.3c-10.4,0.3-20.9,0.4-31.3,1.2c-17.2,1.3-34.4,3.4-51.7,4.4c-19.2,1.1-38.5,1.4-57.8,2.1
			c-2.2,0.1-4.5,0.6-7.2,0.9c0.4,4.8,0.6,9.2,1.2,13.6c2,14.6,4.3,29.3,6.3,43.9c1.9,13.7,3.8,27.4,5.5,41.2c0.5,3.9,2.3,5.4,6,5
			c4-0.4,8-0.6,12-0.9c20.1-1.5,40.2-3,60.3-4.6c7.3-0.6,14.5-1.7,21.6-2.5c0.2-19.4,12.1-28.3,22.1-28.7c7.4-0.3,15.2,0.3,21.5,4.9
			c6.7,4.9,9.6,12,8.3,20.4c34-1.3,67.4-2.5,101-3.8C575.5,440.6,571.9,437.6,569.1,435.2z M577.2,346.8c0-14.3,0.2-27.6-0.1-40.9
			c-0.3-14.8-1.1-29.5-1.4-44.3c-0.2-12.4,0.1-24.8-0.1-37.2c-0.5-33.7-1.4-67.5-1.8-101.2c-0.3-23.7,0.6-47.3-3.7-70.8
			c-2.5-13.6-7-21.3-20.8-23.9c-12.1-2.2-24.6-3.8-36.9-3.7c-23.7,0.1-47.3,1.8-71,2.5c-20.8,0.6-41.6,0.6-62.4,1
			c-14.2,0.3-28.4,0.1-42.5,1.1c-9.7,0.7-19.5,2.1-28.9,4.6c-8,2.1-15.6,6.3-16.9,15.8c-1.7,11.8-3.5,23.6-3.9,35.5
			c-0.4,10.7,1.2,21.5,1.5,32.2c0.5,16.5,0.4,32.9,1.1,49.4c0.4,10.1,1.9,20.1,3,30.2c1.1,10.5,2.5,20.9,3.4,31.4
			c1.2,13.7,1.6,27.5,3,41.2c1.4,13.5,3.9,26.8,5.3,40.3c1.9,18.4,3.8,36.9,4.5,55.4c0.7,17.2,2.6,34.1,5.7,50.9
			c3.1,17.2,5.5,34.6,8.7,51.7c0.6,3.4,3.2,7.1,5.9,9.3c5.7,4.6,12.8,6.7,20.1,6.8c11.1,0.1,22.2-0.4,33.2-1
			c9.1-0.4,18.1-1.2,27.2-2c11.6-1,23.1-2.5,34.8-3.4c11.7-0.9,23.3-1.4,35-2.1c16.4-1.1,32.8-2.4,49.2-3.4c11-0.7,22-1,32.9-2
			c8.4-0.7,15.6-4.5,21.1-10.8c5.1-5.9,4.8-11.5-0.8-13.1c-0.4,1.9-0.6,3.9-1.1,5.8c-2.3,8.1-8.9,11.1-16.1,13.5
			c-7.7,2.5-15.5,1.2-23.3,1.5c-19.2,0.6-38.3,2-57.5,3.2c-17.3,1.1-34.6,2.5-51.9,3.7c-13,0.9-26,1.8-39,2.8
			c-6.9,0.5-13.8,1-20.6,1.6c-11.5,1-22.9,1.5-33.8-3.4c-5.1-2.3-10.3-4.7-11.4-10.8c-2.5-12.6-4.8-25.2-6.6-37.8
			c-2-13.6-2.2-27.6-5-41c-4.5-21.5-3.7-43.3-6.1-65c-0.9-8.5-1.3-17.1-2.1-25.7c-1.4-14.9-3-29.9-4.4-44.8
			c-0.5-5.3-0.7-10.7-1.2-16c-1.1-10.5-2.5-21-3.4-31.5c-0.9-10.9-1.3-21.8-2.2-32.7c-1-12.8-3.1-25.6-3.3-38.5
			c-0.3-22.8,0.4-45.6,0.8-68.4c0.2-11.8,5.9-20.9,17.2-23.9c10.2-2.7,20.9-3.8,31.5-4.8c7.7-0.8,15.6-0.3,23.4-0.5
			c20.5-0.5,41-1,61.5-1.5c10.8-0.3,21.7-0.7,32.5-0.9c20-0.4,40.1-1.1,60.1-0.8c10.3,0.2,20.7,1.8,30.9,3.7
			c6.5,1.2,12.2,4.7,13.1,12.3c1.8,14.9,3.6,29.7,4.9,44.7c0.8,9.5,0.8,19,0.9,28.6c0.2,16.6,0.1,33.2,0.1,49.8
			c0,7.6-0.2,15.1,0,22.7c0.9,33.6,2.2,67.1,2.6,100.7c0.2,17.3-1.1,34.7-1.7,52.2C572.1,345.5,574.2,346,577.2,346.8z M563.3,62.2
			c-0.2-3.3,0-6.4-0.7-9.3c-1.6-5.8-1.9-12.9-8.9-15c-7.8-2.3-15.9-4.2-24-4.9c-10.1-0.8-20.3-0.4-30.4-0.2
			c-24.4,0.4-48.9,1.1-73.3,1.6c-20.8,0.4-41.6,0.4-62.4,1.3c-16,0.7-32.1,1.6-48,3.8c-14.1,2-21.7,13.5-20,27.5c3,0,6.1,0,9.1,0
			c5.6-16.8,13.5-24.5,26.5-23.7c5.8,0.3,11.8,2.8,17.1,5.5c7.1,3.6,10.4,10.3,10.9,17.5c29.4-0.7,58.3-1.3,87.2-2
			c-0.1-1.5-0.1-2.8-0.2-4c1.6,1.2,3,2.3,5.3,4.1c0-5,0.4-9-0.3-12.7c-0.2-0.8-4.4-0.9-6.9-1.3c2.1-3.3,5.5-1.7,8.1-1.5
			c0.8,0,1.9,2.9,1.9,4.4c0.1,3.6-0.3,7.2-0.5,10.1C490.5,65,526.8,59.2,563.3,62.2z M328.3,461.3c0.1,0.8,0,1.4,0.2,2
			c3.1,9,11.2,11.6,18.9,12.2c12.9,1,26,0.8,39,0c20.8-1.3,41.6-3.5,62.4-5.2c12.1-1,24.2-2.1,36.3-2.7c20-1.1,40-2,60-2.6
			c8.2-0.2,16.2-0.3,23.9-3.8c6.4-2.9,10.6-8.9,9.9-14.9c-12.3,0-24.6-0.4-36.9,0.1c-20.6,0.8-41.2,2.2-61.8,3.5
			c-3,0.2-4.5-0.7-4.6-4.1c-0.5-12.8-5.1-18.3-17.2-20.6c-5.6-1-11.3-2.8-17,0.9c-8.1,5.2-12.3,12.3-12,21.8
			c0.1,3.9-1.5,5.3-5.1,5.5c-4.3,0.3-8.5,0.8-12.8,1.2c-19,1.5-38,3-57,4.6C345.9,459.8,337.2,460.5,328.3,461.3z M499.1,436.2
			c-0.5-6.4-1-12-1.3-17.7c-0.2-3.3,1.1-5.8,4.7-6.1c4.1-0.3,8.3-0.8,12.4-0.5c4.4,0.4,4.5,4.5,5.1,7.7c0.5,2.9-0.4,5.6-3.8,6.4
			c-3.7,0.9-7.5,1.5-11.7,2.2c-0.6,2.2-1.3,4.8-2,7.7c20,0,39.5,0.1,59-0.1c1.6,0,3.7-1.3,4.7-2.7c0.5-0.7-0.6-3.3-1.6-4.1
			c-1.7-1.3-3.9-2-6-2.5c-1.4-0.3-3.3,0.7-4.5,0.1c-1-0.5-1.5-2.3-2.2-3.6c-2.8,4.3-7.5,4.7-12.2,1.8c-5.7,3-10.2,1.1-14.6-1.8
			c-0.3,1.7-0.5,3.1-0.8,4.5c-0.4,0-0.9,0-1.3,0c-0.7-3.9-1.5-7.8-2.2-11.7c0.4-0.2,0.9-0.3,1.3-0.4c2.1,2.6,4.3,5.1,6.5,7.6
			c0.4-0.2,0.9-0.4,1.3-0.7c-0.4-3-0.7-6.1-1.1-9.1c0.2-0.1,0.3-0.2,0.5-0.2c2,4.1,4,8.1,6.1,12.2c0.5-0.2,0.9-0.4,1.4-0.6
			c-0.1-2.3-0.2-4.7-0.3-6.6c2.2-0.2,4.4-0.7,6.5-0.6c0.7,0,2.1,1.8,2,2c-0.9,1.5-2.1,2.8-3.2,4.1c4.1,2.3,4.7,1.9,5.9-4.3
			c0.7,1.2,1.2,2.1,1.8,3.1c0.5-1,0.9-1.8,1.3-2.6c-3.2-2.5-6.4-4.7-9.3-7.2c-5.2-4.6-10.4-8.1-18.2-6.4c-8.2,1.8-16.7,2.1-25.1,2.9
			c-3.6,0.3-4.7,2.7-4.9,5.6c-0.2,4.3-0.4,8.7,0.1,12.9C493.7,431.1,495.1,434.5,499.1,436.2z M314.5,56.1
			c8.8,0.5,17.7,0.4,26.4,1.7c8.7,1.2,10.6,4.3,10.6,13c0,2.3-0.1,4.6,0,6.9c0.2,4.1-1.8,6.8-5.6,7.9c-6.9,1.9-13.9,1.5-20.7-0.9
			c-5.4-1.9-8.6-5.5-7.7-11c1-6.2-1.4-9.4-6.5-11.6c-4.2,9.3,0.9,21.7,11.1,26.7c13.1,6.5,26,2.2,31.4-8.1c5-9.5,1.7-24.2-7-29.2
			C333.9,44.3,320.9,45.9,314.5,56.1z M314.2,60.1c0,0.5-0.1,1-0.1,1.5c5.1,2.4,6.7,6.1,5.3,11.5c-1,4.2,1.8,8.1,6.1,9.4
			c3.2,0.9,6.6,1,9.8,1.7c9.4,1.9,13.3-0.8,14-9.9c0.9-10.6-2.8-14.5-13.5-14.6c-3.8,0-7.6-0.8-11.4-0.7
			C321,59,317.6,59.7,314.2,60.1z M500.8,430c1.2-3.6,3.7-4.7,7.4-4.5c1.6,0.1,3.5-0.1,4.9-0.8c1.7-0.8,4.5-2.3,4.5-3.5
			c-0.1-2.5-1.2-6.7-2.7-7c-4.2-0.9-8.8-0.3-13.3-0.3c0,0.5,0,1,0,1.5c4.3,0,8.7,0,13,0c0,0.5,0.1,1.1,0.1,1.6
			c-5,0.2-10,0.4-15.3,0.7C500,422.1,500.4,426.1,500.8,430z M554.7,340.4c-0.1,0.5-0.2,1-0.3,1.5c4.4,1.3,8.8,2.5,13.6,3.9
			c0-2.6,0-4.2,0-5.4C563.4,340.4,559,340.4,554.7,340.4z"/>
		<path d="M704.6,224.8c2.8,1.9,5.1,3.9,7.7,5.1c9.9,4.5,12.6,13,12.5,22.7c-0.2,10.7-1.8,21.5-1.6,32.2c0.2,10.9,2.1,21.7,2.6,32.6
			c0.4,8.9,0.6,17.8-0.4,26.6c-1.9,17.5-4.6,34.9-7.1,52.3c-1.5,10.1-3.4,20.2-4.6,30.4c-1.3,10.5-2.2,21.1-2.7,31.7
			c-0.6,12.9-0.1,25.9-1.2,38.8c-1.3,15.6,1,30.7,3.4,46c2.6,16.8,6.1,33.4,9.8,49.9c0.5,2.1,1.2,4.1,1,6.8
			c-0.6-0.6-1.7-1.1-1.9-1.8c-3.5-17.5-7.2-34.9-10.2-52.5c-2.1-12.3-4.5-24.8-4.5-37.3c0-23.8,1.1-47.7,2.8-71.5
			c0.9-13.4,4.1-26.5,6-39.8c1.2-8.3,1.9-16.7,3-25.1c1.8-14.4,4.3-28.8,5.3-43.3c0.6-8.6-1.5-17.4-2-26.1
			c-0.5-10.2-0.5-20.5-0.6-30.7c-0.1-8.7,0.3-17.5-0.1-26.2c-0.3-6.9-5.1-10.7-10.9-13.6C706,229.6,705.5,228.8,704.6,224.8z"/>
		<path d="M472.7,314.5c2.5-5.8,8.1-6.6,13.5-8.9c-1.8-6.8-5.7-12.6-9.9-18c-4.5-5.8-10.2-9.1-17.9-6.8c-0.1-0.4-0.2-0.8-0.3-1.3
			c2.1-0.6,4.3-1.9,6.2-1.7c6.8,0.9,11.8,4.8,15.3,10.5c2.7,4.4,5.2,9,7.5,13.6c1.2,2.4,1.6,4.9-1.9,6.4
			C481,310.1,477.1,312.3,472.7,314.5z"/>
		<path d="M471.6,316.3c-1.9,2.7-5.1,3.1-6.4,0.1c-3.9-9-7.5-18.2-10.7-27.5c-0.8-2.3-1.2-5.7,2.2-8.4c-2.1,13.6,5.5,23.6,10.1,34.4
			C467.1,315.9,469.8,315.9,471.6,316.3z"/>
		<path d="M669.4,287.1c0-7.1,0-14.2,0-21.4c0.5,0,0.9,0.1,1.4,0.1C672.5,273.1,673.3,280.4,669.4,287.1z"/>
		<path d="M591.1,350.1c-1.5-6.7-2.6-12.1-3.8-17.5c0.4-0.1,0.9-0.2,1.3-0.3c1.4,4.8,3,9.6,4.2,14.4
			C592.9,347.7,591.7,349,591.1,350.1z"/>
		<path d="M504.3,359.9c-1.6,4.9-3.7,9.1-9.7,9.4c-1.4,0.1-2.7,1.6-4.8,1.8c1.1-1.1,2.1-3,3.2-3.1c4.8-0.5,7.4-3.6,9.8-7.2
			C503.2,360.4,503.9,360.2,504.3,359.9z"/>
		<path d="M636.6,301.2c0-6.6,0-13.1,0-20.6C640.1,287.9,638.4,294.5,636.6,301.2z"/>
		<path d="M610.7,489.4c4.2,2.6,8.4,5.2,12.5,7.8c-0.3,0.4-0.6,0.9-0.9,1.4c-4.2-2.6-8.3-5.2-12.5-7.9
			C610.1,490.3,610.4,489.9,610.7,489.4z"/>
		<path d="M483.4,365.7c3.2-2.5,6.5-4.9,9.7-7.4c0.3,0.4,0.7,0.9,1,1.3c-3.2,2.5-6.4,5-9.6,7.5C484.1,366.7,483.8,366.2,483.4,365.7
			z"/>
		<path d="M612.5,248c-5.1-6.5-5.1-7-3.1-11C610.4,240.8,611.5,244.4,612.5,248z"/>
		<path class="st0" d="M569.1,435.2c2.8,2.4,6.4,5.4,10.1,8.6c-33.6,1.3-67,2.5-101,3.8c1.3-8.4-1.6-15.5-8.3-20.4
			c-6.3-4.6-14.1-5.2-21.5-4.9c-9.9,0.4-21.9,9.3-22.1,28.7c-7.1,0.9-14.4,1.9-21.6,2.5c-20.1,1.6-40.2,3.1-60.3,4.6
			c-4,0.3-8,0.6-12,0.9c-3.8,0.4-5.6-1.1-6-5c-1.7-13.7-3.6-27.5-5.5-41.2c-2.1-14.6-4.3-29.3-6.3-43.9c-0.6-4.4-0.8-8.8-1.2-13.6
			c2.7-0.4,4.9-0.9,7.2-0.9c19.3-0.7,38.6-0.9,57.8-2.1c17.3-1,34.4-3.1,51.7-4.4c10.4-0.8,20.9-0.8,31.3-1.2
			c7.8-0.2,8-0.3,10.3,7.3c2.3,8,7.5,13.9,14,18.4c9.4,6.4,19.4,11.8,28.9,18.1c5.3,3.5,10.1,7.8,15.1,11.7
			c-0.2,0.4-0.3,0.9-0.5,1.3c-2,0.3-4,0.6-6,0.8c-8.8,0.9-17.6,1.8-26.4,2.8c-3.4,0.4-5.2,2.6-5.2,5.9c-0.1,6-0.2,11.9,0.2,17.9
			c0.2,3.9,2.3,6.6,6.7,6.9c6.1,0.4,12.3,1.3,18.4,1.2c12.3-0.1,24.6-0.8,36.9-1.2c2.9-0.1,5.8,0.3,8.7,0.1
			C565.5,437.9,569.2,438.2,569.1,435.2z"/>
		<path class="st0" d="M577.2,346.8c-3-0.8-5-1.3-7.1-1.8c0.6-17.6,2-34.9,1.7-52.2c-0.4-33.6-1.7-67.1-2.6-100.7
			c-0.2-7.6,0-15.1,0-22.7c0-16.6,0-33.2-0.1-49.8c-0.1-9.5-0.1-19.1-0.9-28.6c-1.3-14.9-3.1-29.8-4.9-44.7
			c-0.9-7.6-6.6-11.1-13.1-12.3c-10.2-1.9-20.6-3.5-30.9-3.7c-20-0.3-40.1,0.4-60.1,0.8c-10.8,0.2-21.7,0.6-32.5,0.9
			c-20.5,0.5-41,1-61.5,1.5c-7.8,0.2-15.7-0.3-23.4,0.5c-10.6,1-21.3,2.1-31.5,4.8c-11.3,3-17,12.1-17.2,23.9
			c-0.3,22.8-1.1,45.6-0.8,68.4c0.2,12.8,2.3,25.6,3.3,38.5c0.9,10.9,1.2,21.8,2.2,32.7c0.9,10.5,2.3,21,3.4,31.5
			c0.5,5.3,0.7,10.7,1.2,16c1.4,14.9,3,29.9,4.4,44.8c0.8,8.5,1.1,17.1,2.1,25.7c2.4,21.6,1.6,43.5,6.1,65c2.8,13.4,3.1,27.4,5,41
			c1.8,12.7,4.2,25.3,6.6,37.8c1.2,6,6.3,8.5,11.4,10.8c10.9,4.9,22.3,4.4,33.8,3.4c6.9-0.6,13.8-1.1,20.6-1.6c13-0.9,26-1.9,39-2.8
			c17.3-1.2,34.6-2.6,51.9-3.7c19.2-1.2,38.3-2.6,57.5-3.2c7.8-0.3,15.6,1,23.3-1.5c7.3-2.3,13.8-5.4,16.1-13.5
			c0.5-1.9,0.7-3.8,1.1-5.8c5.6,1.6,5.9,7.1,0.8,13.1c-5.5,6.3-12.7,10.1-21.1,10.8c-11,0.9-21.9,1.2-32.9,2
			c-16.4,1.1-32.8,2.4-49.2,3.4c-11.7,0.8-23.4,1.2-35,2.1c-11.6,0.9-23.2,2.3-34.8,3.4c-9,0.8-18.1,1.6-27.2,2
			c-11.1,0.5-22.2,1-33.2,1c-7.3,0-14.4-2.1-20.1-6.8c-2.7-2.2-5.3-5.9-5.9-9.3c-3.2-17.2-5.5-34.5-8.7-51.7
			c-3.1-16.9-5-33.8-5.7-50.9c-0.7-18.5-2.6-37-4.5-55.4c-1.4-13.5-3.9-26.8-5.3-40.3c-1.4-13.7-1.8-27.5-3-41.2
			c-0.9-10.5-2.3-20.9-3.4-31.4c-1.1-10-2.5-20.1-3-30.2c-0.7-16.4-0.6-32.9-1.1-49.4c-0.3-10.8-1.9-21.5-1.5-32.2
			c0.4-11.9,2.2-23.7,3.9-35.5c1.4-9.5,8.9-13.7,16.9-15.8c9.4-2.4,19.2-3.9,28.9-4.6c14.1-0.9,28.3-0.8,42.5-1.1
			c20.8-0.4,41.6-0.4,62.4-1c23.7-0.7,47.3-2.3,71-2.5c12.3-0.1,24.8,1.5,36.9,3.7c13.9,2.5,18.3,10.3,20.8,23.9
			c4.3,23.4,3.4,47.1,3.7,70.8c0.4,33.7,1.2,67.5,1.8,101.2c0.2,12.4-0.2,24.8,0.1,37.2c0.3,14.8,1.1,29.5,1.4,44.3
			C577.3,319.2,577.2,332.5,577.2,346.8z"/>
		<path class="st0" d="M328.3,461.3c8.9-0.7,17.6-1.5,26.2-2.2c19-1.5,38-3,57-4.6c4.3-0.3,8.5-0.9,12.8-1.2
			c3.5-0.3,5.2-1.7,5.1-5.5c-0.3-9.5,3.8-16.6,12-21.8c5.7-3.6,11.4-1.9,17-0.9c12.1,2.2,16.6,7.8,17.2,20.6
			c0.1,3.3,1.6,4.3,4.6,4.1c20.6-1.2,41.2-2.6,61.8-3.5c12.3-0.5,24.6-0.1,36.9-0.1c0.7,6-3.5,12-9.9,14.9
			c-7.7,3.4-15.7,3.5-23.9,3.8c-20,0.6-40,1.5-60,2.6c-12.1,0.6-24.2,1.7-36.3,2.7c-20.8,1.7-41.5,4-62.4,5.2c-13,0.8-26.1,1-39,0
			c-7.7-0.6-15.8-3.2-18.9-12.2C328.4,462.7,328.4,462.1,328.3,461.3z M434,445.6c-0.9,5.7,1.9,9.7,6.5,12.6
			c2.7,1.7,5.6,3.2,8.6,4.1c6.8,2.1,14.9-0.6,18.2-5.7c4-6.1,4.2-15.3-0.4-20c-7-7.3-18.3-9.4-27.1-2.9
			C436,436.6,433.3,440.3,434,445.6z"/>
		<path class="st0" d="M314.5,56.1c6.4-10.2,19.5-11.8,31.9-4.6c8.7,5,12,19.7,7,29.2C348,91,335.1,95.3,322,88.8
			c-10.1-5-15.2-17.3-11.1-26.7c5.1,2.2,7.5,5.4,6.5,11.6c-0.9,5.5,2.4,9.1,7.7,11c6.8,2.4,13.8,2.8,20.7,0.9c3.8-1,5.8-3.7,5.6-7.9
			c-0.1-2.3,0-4.6,0-6.9c0-8.7-1.9-11.8-10.6-13C332.2,56.5,323.3,56.6,314.5,56.1z"/>
		<path class="st0" d="M314.2,60.1c3.4-0.4,6.8-1.1,10.2-1.1c3.8,0,7.6,0.7,11.4,0.7c10.7,0.1,14.4,4,13.5,14.6
			c-0.8,9.1-4.6,11.8-14,9.9c-3.3-0.7-6.6-0.8-9.8-1.7c-4.3-1.2-7.1-5.1-6.1-9.4c1.3-5.5-0.2-9.1-5.3-11.5
			C314.1,61.1,314.2,60.6,314.2,60.1z M323.7,64.1c-0.1,0.6-0.1,1.2-0.2,1.8c7.4,0.7,14.8,1.4,22.1,2.2c0.1-0.7,0.1-1.3,0.2-2
			C338.4,65.4,331.1,64.8,323.7,64.1z M342.6,72.1c0-0.5,0.1-1.1,0.1-1.6c-6-0.5-11.9-0.9-17.9-1.4c0,0.7-0.1,1.3-0.1,2
			C330.7,71.3,336.6,71.7,342.6,72.1z M342.2,77c-2.1-2.8-12.5-3.5-17.2-0.9C331.1,76.4,336.6,76.7,342.2,77z"/>
		<path class="st0" d="M500.8,430c-0.4-3.9-0.8-7.9-1.3-12.3c5.3-0.2,10.3-0.5,15.3-0.7c0-0.5-0.1-1.1-0.1-1.6c-4.3,0-8.7,0-13,0
			c0-0.5,0-1,0-1.5c4.4,0,9-0.6,13.3,0.3c1.4,0.3,2.6,4.5,2.7,7c0,1.1-2.7,2.7-4.5,3.5c-1.5,0.7-3.3,0.9-4.9,0.8
			C504.5,425.3,502.1,426.4,500.8,430z"/>
		<path class="st0" d="M554.7,340.4c4.4,0,8.7,0,13.4,0c0,1.1,0,2.7,0,5.4c-4.8-1.4-9.2-2.6-13.6-3.9
			C554.5,341.3,554.6,340.8,554.7,340.4z"/>
		<path d="M434,445.6c-0.7-5.4,2-9.1,5.8-11.9c8.7-6.5,20.1-4.4,27.1,2.9c4.6,4.8,4.5,13.9,0.4,20c-3.3,5.1-11.4,7.7-18.2,5.7
			c-3-0.9-5.9-2.4-8.6-4.1C435.9,455.3,433.1,451.3,434,445.6z M450.5,432.3c-5.1,0-14.4,8.1-14.5,12.8
			c-0.2,6.9,10.3,15.8,18.9,15.9c7.4,0.1,12.9-6.6,13.4-15.7C468.6,438.6,460.4,432.6,450.5,432.3z"/>
		<path d="M323.7,64.1c7.4,0.7,14.8,1.3,22.1,2c-0.1,0.7-0.1,1.3-0.2,2c-7.4-0.7-14.8-1.4-22.1-2.2
			C323.6,65.3,323.6,64.7,323.7,64.1z"/>
		<path d="M342.6,72.1c-6-0.4-11.9-0.7-17.9-1.1c0-0.7,0.1-1.3,0.1-2c6,0.5,11.9,0.9,17.9,1.4C342.7,71,342.6,71.5,342.6,72.1z"/>
		<path d="M342.2,77c-5.7-0.3-11.1-0.6-17.2-0.9C329.8,73.6,340.1,74.2,342.2,77z"/>
		<path class="st0" d="M328.6,122.9c2,2.2,3.1,3.6,4.3,4.9c-1.2,0.9-2.7,2.8-3.6,2.6c-1.5-0.4-2.9-2-3.8-3.4
			C325.3,126.5,327.1,124.9,328.6,122.9z"/>
		<path class="st0" d="M450.5,432.3c9.9,0.4,18.1,6.4,17.8,13c-0.4,9.1-6,15.8-13.4,15.7c-8.6-0.1-19.1-9-18.9-15.9
			C436.1,440.4,445.4,432.2,450.5,432.3z"/>
		<g>
			<path class="st16" d="M345.1,130.4c0.2,8.1-5.2,13.5-14.5,15.4c-10.5,2.1-22.1-5.9-24.6-16.4c-1.4-6,2.9-14.9,12-18
				c10.9-3.8,23.9,4.2,26.3,14.2C344.8,127.3,344.7,129,345.1,130.4z"/>
			<path class="st44" d="M338.9,139.7c-1.8-3.2-3.4-6-5.7-8.5c-1.7-1.8-3.6-3.8-3.1-7.1c0.5-3.8-2.6-5.5-5.9-5.3
				c-3.2,0.1-7.2,0.4-6.2,5.6c1,5.1-4.4,7.4-4.5,12.8c-4.3-4.6-6-9.3-4.3-14c1.6-4.6,5.1-8,10.6-9.2c13.1-2.7,20,5.3,23,14
				C344.3,132.1,342.5,136.2,338.9,139.7z"/>
			<path class="st44" d="M324.2,129.8c1.6,0.5,3.4-1.3,5.1,0.5c2.8,3,5.1,6.4,7,10c0.9,1.7-0.9,1.7-1.6,2
				c-5.9,2.6-13.5,1.1-18.4-3.3c-0.8-0.7-1.2-1.3-1-2.2C316.2,132.5,319.6,129.8,324.2,129.8z"/>
			<path class="st45" d="M323.8,121.1c2.4,0,4.2,1.2,4.3,3.6c0,2.1-1.8,3.2-3.8,3c-2.2-0.2-4.2-1.2-4.3-3.8
				C319.8,121.3,321.9,121.3,323.8,121.1z"/>
		</g>
		<path class="st55" d="M468,328.5c-1.9-7.5-7.2-13.2-10.2-20.1c-1.1-2.5-5.2-3.3-8.5-2.5c-1.1,0.2-2.1,0.6-3.1,0.3
			c-0.8-0.3-1.8-1-1.3-2c0.4-0.9,1.1-0.4,1.9,0c1.7,0.9,2.9,0.2,3.6-1.9c-1.4-0.9-2.9-0.5-4.4-0.4c-1.4,0-2.7-0.2-2.9-1.5
			c-0.3-1.5,1.2-1.8,2.2-2.5c1.3-0.9,3.1-1.3,3.7-0.2c1.2,2-1.7,0.8-2,2.1c0.7,0.1,1.4,0.2,2.1,0.2c5.1-0.1,5.6-0.8,4.3-5.5
			c-0.4-1.3-0.8-2.7-0.9-4c-0.1-2.2-1.1-2.9-3.2-2.6c-2.9,0.5-3.9-1.5-4.4-3.6c-0.5-2.2-0.6-5.3,2-6c2.7-0.8,2.4-2.4,2.6-4.2
			c1.4,0.7,2.8,1.7,2.8-1.2c-0.1-2.8,0.2-5.6,3.8-8c-2.1,7.8-3.9,14.7-1.9,21.7c1.9,6.8,3.5,13.7,6,20.4c2.3,6.2,6.7,11,9.5,16.8
			l-0.1-0.1c0.9,5,3.5,9.7,2.8,15.5C468.8,335.9,470.8,331.2,468,328.5z"/>
		<path class="st56" d="M327,278.5c-11.5,0.5-20-9.9-17.5-22.1c0.1-0.7,0.6-1.4,1.1-2c5.9-6.9,13.2-11.3,22.5-10.1
			c7.2,1,11.7,5.8,14.6,12.5c1,2.3,1.2,4.7,0.4,6.6C344.6,271.9,337.8,278.6,327,278.5z"/>
		<path class="st57" d="M384,323.9c3.5,1.5,5.8,2.9,8.6-0.6c1.1-1.4,4-3.3,6.6-1.8c1.7,1,3,2.4,3,4.7c0,1.8-0.9,3.2-2.2,3.8
			c-2.3,1.1-4.8,0.6-6.9-0.9c-0.6-0.4-0.7-1.6-1.7-2c-1,4.9-3,6.2-8.1,4.9c-1.8-0.5-3.3-0.6-5.2,0c-2.5,0.8-5-0.7-6.2-2.9
			c-0.9-1.6-1.2-4,0.5-5.6c1.9-1.7,4.5-2.9,6.7-1.5c2.1,1.4,3.3,1.3,4.8-0.3c1-1,2.3-1.2,3.7-1.2c0.2,0,0.7,0.9,0.6,1
			C387.4,323.1,385.7,322.7,384,323.9z"/>
		<path class="st28" d="M369.2,256c-3.1,5.3-3.1,5.3-8.3,2.3c-1.5,2.3,0.4,4.3,0.4,6.5c0.1,1.5,0,3.2-1.6,3.4
			c-2.1,0.3-0.7-1.9-1.3-2.7c-2-3.1-0.4-6.6-1.3-9.9c-0.6-2.5,1.8-2.7,3.2-1.2c3.8,4.2,6.1,3,7.8-1.7c0.3-0.7,0.2-2.1,1.6-1.9
			c1,0.2,1.5,0.9,1.7,1.9c1.2,5,2.5,9.9,3.7,14.8c0.2,0.9,0.7,2.3-0.9,2.5c-1.2,0.1-1.4-1.2-1.6-1.9c-0.5-1.9-1.1-3.8-1.1-5.7
			C371.6,259.8,371.1,257.6,369.2,256z"/>
		<path class="st57" d="M435.6,285.4c0.4,2.9,2.7,2.2,4.5,2.5c-3.9,2.6-4.3,2.4-7.8-2.8c-0.7,2.3-1.4,4.7-4.5,4.5
			c-2.9-0.3-3.5-3-4.1-4.9c-0.9-2.8-0.8-5.9-0.5-9.3c1.1,5.1,5.4,6.2,9.3,7.9c-0.5-4,2.3-4,5.4-3.9c1.7,0.1,3.1,0.4,3.2,2.4
			C441.2,285.9,437.3,284.2,435.6,285.4z"/>
		<path class="st55" d="M377.6,287.4c1.5-3.1-3.9-6.2,0.8-9.4c0.5,4.2,2.1,7.6,3.2,11.2c0.5,1.5,0.1,1.8-2,1.7c-0.4,0-1,0.4-1.3,0.8
			c-1.9,2.4-4.3,3.9-6.5,1.1c-1.3-1.6-4.7-3.3-2.2-6.5C371.5,284.1,373.9,284.4,377.6,287.4z"/>
		<path class="st26" d="M382.9,259.8c-2.4-2.4-4.9,1-7.5-0.2c2.2-3.9,5.9-2.8,8.9-2.1c3.3,0.7,5.1,3.6,5.7,7
			c0.1,0.5-0.3,1.5-0.6,1.6c-3.3,0.8-6.7,1.6-10.1,2.2c-1.7,0.3-1.8-1.6-2.1-2.5c-0.7-1.7,0.3-3.4,1.7-4.4c1.2-0.8,2.7-1.1,4.1-1.6
			c-0.1,0.6,0.4,0.8,0.7,0.8c0.3,0,0.2-0.2-0.3-0.2C383.2,260.4,383,260.1,382.9,259.8z"/>
		<path class="st3" d="M426.1,304.7c1.6,1.1,3,2,4.3,2.9c-2.5,1.4-4.4,0.3-6-1.7c-0.8-1-1.8-2.1-3.1-1.4c-1.6,0.8,0.4,1.7,0.3,2.7
			c-0.2,1.1,0.5,2.4-0.5,3.6c-2.4-1.3-0.5-6.2-4.9-5.7c0-0.4-0.1-1.2,0-1.2c3.1-0.9,1.9-2.6,1-4.4c-0.4-0.8-0.7-1.9,0.5-2.3
			c1.1-0.3,1.8,0.8,1.9,1.5c0.5,5.4,2.6,4.7,5.6,1.6c0.7-0.8,1.7-0.5,2.6-0.6c1.8-0.3,3.2,0.5,3.6,2.1c0.4,1.7-1.6,1.8-2.6,2.5
			C428.1,304.6,427.2,304.6,426.1,304.7z"/>
		<path class="st28" d="M358.1,294.5c-1.5-4.6-2.8-9.1-1.9-15c2.5,2.9,0.6,8.9,6.1,7.2c4.1-1.3-1.6-5.1,2.1-7.3
			c0.4,2.8,4.1,4.3,2.7,8.3c-0.5,1.4,0.9,2.5,1.3,3.7c0.4,1,1,2.2-0.4,2.7c-1,0.3-1.6-0.7-2-1.6c-0.3-0.7-0.3-1.5-0.7-2.1
			c-0.8-1.6-2.2-2-3.9-1.7c-1.7,0.4-2,1.5-2,3.1C359.5,292.7,359.9,293.7,358.1,294.5z"/>
		<path class="st58" d="M406,265.6c-1.2-2.5-1.3-5.2-2.5-7.5c-2.4,0.4-2.4,2.7-3.7,3.9c-0.8,0.7,0.2,2.7-1.9,2.6
			c-2.1-0.2-1-1.8-1.4-2.8c-0.2-0.5-0.6-1-1-1.6c-2.5,1-1,4.5-3.8,5.4c-1.5-1.6-0.6-3.9-1.5-5.8c-0.6-1.2,0.2-1.9,1.7-1
			c1.5,1,1.5-0.2,1.7-0.7c0.8-1.6,2.7-1.4,3.1-0.9c2.1,2.8,3.2,0.9,4.5-0.6c2.3-2.5,3.8-1.5,5,1.2
			C407.3,260.6,406.6,263.1,406,265.6z"/>
		<path class="st16" d="M382.8,309.5c-1.2,2.9-3.2,3.9-5.9,2.2c-1.7-1-3.1,0.2-4.7,0.2c-3.4-0.1-6.3-1-6-4.9c0.3-4.1,3.8-2,6.4-3
			c-1,2.3-4.8,1.5-3.5,4.6c0.6,1.4,2.1,2.2,3.3,2.1c1.5-0.1,3-1.2,2.9-3c-0.3-3.5,2.1-5.4,4.4-7.8c-1.9,4,2.4,5.4,3.1,8.3
			C383.2,308.6,383.3,309,382.8,309.5z"/>
		<path class="st59" d="M363.8,333.3c-2.2,0.3-3.2-1-4-2.6c-1.5-2.7-1.5-5.8-2.1-8.7c-0.3-1.3,0.4-2.7,1.8-2.6
			c1.5,0.1,2.4,1.2,1.4,2.9c-0.6,0.9-0.8,2.1-0.1,3c0.7,0.8,1.6,0.4,2.5-0.1c2-1.1,4.4-2.6,6.2-0.7c1.1,1.2,1.9,3.6,0.9,5.6
			C368.9,332.7,366,332.4,363.8,333.3z"/>
		<path class="st60" d="M390.9,291.3c0.1,3.8-2.8,1.9-4.2,1.9c-2.3,0-3.4-2-3.4-4.1c0.1-1.8,1.7-2.3,3.4-2.2c0.9,0,1.8,0,3.7,0
			c-2.9-3-6-1-9-2.4c3.2-2,6.1-1.8,9.1-0.5c3,1.2,3.1,3.8,3.2,6.4c0.1,3.5-1.5,2.1-3,1.1c-0.6-0.6-1.2-1.3-2.2-1.3
			C389.5,290.5,390.3,290.7,390.9,291.3z"/>
		<path class="st26" d="M382.8,309.5c-0.1-0.4-0.1-0.9-0.2-1.4c2-0.1,3.4-1.7,4.4-2.7c1.5-1.4,2.2-1.3,3.2-0.3c1,1,1.8,1,2.4-0.2
			c2.4-4.6,3.5-1.5,4.7,0.8c0.3,0.5,0.1,1.2,1,1.3c0.6,0.7,0.7,1.4,0.1,2.1c-0.2,0.8,0.4,2.1-0.6,2.5c-1.7,0.7-1.2-1.3-1.9-1.9
			c-0.9-0.8,0.1-2.5-1.6-3.3c-0.7,1-1.3,2.3-2.3,3.2c-0.3,0.3-2,2.3-2.1-0.5c-0.1-1.2-1.1-2.7-1.9-0.3
			C386.7,313.1,384.8,311.4,382.8,309.5z"/>
		<path class="st13" d="M413.3,254.5c2,2,4.7,3.4,5.3,6.4c0.1,0.8,2.4,4.9-2.2,3c-0.5-0.2-1.4,0.4-2,0.8c-2.5,1.5-4.7,0.9-5.6-1.6
			c-1-3.1,0.7-4.9,4.5-5.2c-1.5-0.9-2.6-1.6-3.9-2.4c1.3-1.7,2.8-1,4.2-0.9L413.3,254.5z"/>
		<path class="st13" d="M412.9,284.6c1.1,2.7,0.4,5.2-2.4,5.8c-2.5,0.5-5.5,1.2-6.9-3c-0.9-2.7-1-5.6-2.1-8.3
			c-0.4-1,0.3-2.3,1.5-2.3c1.4,0,0.9,1.3,1,2.1c0.2,2.6-1,6.5,4.3,3.7C409.2,282,411.3,283.9,412.9,284.6L412.9,284.6z"/>
		<path class="st16" d="M359.3,313.9c-2.9,0-6,0.1-6.3-3.7c-0.2-2.9,0.3-6,4.5-5.8c0.3,0,0.7,0,0.9-0.1c2.2-1.3,3.3-0.7,4.4,2.1
			c0.4,1.1,0.4,1.8-0.5,2.4c-0.9,0.6-1.4,0.2-2.1-0.7c-0.9-1.2-2.5-2.6-4.2-1.3c-0.9,0.7-1.5,2-1.1,3.3c0.7,2.2,2.6,1.7,4.2,1.8
			c0.2,0,0.4-0.1,0.5,0c1.1,1,3.2-2.2,3.5,0.3C363.4,314.9,360.5,313.1,359.3,313.9z"/>
		<path class="st14" d="M413,284.7c0.5-5.1,3-6.8,7.2-4.8c1.1,0.5,2.1,1.2,2.4,2.6c0.4,1.9-1.5,1.7-2.3,2.3
			c-0.9,0.7-2.9,0.5-2.7,2.1c0.3,1.9,2.4,0.9,4.7,1.4c-2.5,1.8-4.2,2.2-6,0.4C415.1,287.3,414,285.9,413,284.7
			C412.9,284.6,413,284.7,413,284.7z"/>
		<path class="st55" d="M401.9,331.9c1.8-0.7,3.3-1,4.5-1.8c1.1-0.8,2.7-1.6,2.4-3.4c-0.2-1.6-1.7-2.1-2.9-2.6
			c-1.5-0.7-4.5-0.2-3.4-2.7c0.9-2,3.6-2.9,6.1-1.4c-0.6,2.2-2.6,0.5-3.5,1.8c1.8,2.3,7.7,1.2,6,6.2
			C409.9,331.6,406.6,332.9,401.9,331.9z"/>
		<path class="st26" d="M398.5,309.2c0-0.7-0.1-1.4-0.1-2.1c-0.1-3.2,2.9-3,4.5-3.3c1.9-0.3,2.7,1.9,3.5,3.5c0.8,1.6-0.1,2.6-1,3.6
			c-1.1,1.3-2.2,1.3-3.6,0.4C400.7,310.5,399.6,309.9,398.5,309.2z"/>
		<path class="st30" d="M413.5,254.6c-1.2-3.3,1.2-3.8,3.9-5c-1,2.5-2.5,3.7-4,4.8C413.3,254.5,413.5,254.6,413.5,254.6z"/>
		<path class="st61" d="M361.8,300c-0.2,0.9-0.9,0.8-1.3,0.8c-0.5,0-1.2,0-1.1-0.9c0.1-0.7,0.6-1.1,1.2-0.8
			C361.1,299.1,361.5,299.6,361.8,300z"/>
		<path class="st9" d="M451.3,283.4c-0.1,1.1,0.5,2.8-1.6,2.4c-1.6-0.3-3.2-0.9-3.2-3.1c0-1.4,0.3-3.3,1.7-3.1
			C450.1,279.8,451.4,281.3,451.3,283.4z"/>
		<path class="st62" d="M316.4,271.8c-8.2-8.4-6.4-17.9,3.6-22.1c10.3-4.4,15.7-4.1,21.3,1.8c3.4,3.6,5.9,8.1,4,12.8
			c-2.3,5.4-6.3,10.3-12.6,11.4c-4,0.7-8.3,1.4-12.3-0.7c-0.9-0.4-2-0.6-1.5-1.7c1.2-3.1,1.7-6.4,3.9-9.1c0.6-0.7,1.1-1.4,2.2-0.6
			c0.6,0.4,1.4,0.9,2.1,0.8c5-0.8,7.9,1.7,9.9,5.8c0.3,0.7,1.1,1.3,1.9,0.7c0.7-0.5,0.6-1.6,0.1-2.1c-3.2-3.3-4.9-7-4.7-11.8
			c0.1-2.1-6.2-5.2-8.3-4.2c-2.7,1.3-5.6,2.9-3.8,6.9c0.5,1.2,0.3,2-0.7,2.8C318.6,264.8,318.2,268.5,316.4,271.8z"/>
		<path class="st50" d="M328,255.4c3-0.8,4.1,1.6,4.4,3.7c0.2,1.3-0.8,3.9-3.3,3.6c-2.6-0.3-4.5-1.8-4.8-4.6
			C323.9,255.1,325.8,255.2,328,255.4z"/>
		<path class="st63" d="M375.5,328.5c3.5-0.5,6.3-4,10.2-1.9c1.2,0.7,3.6,0.7,3.1,2.2c-0.5,1.6-3.1,2.9-4.5,1.5
			c-2-1.9-3.5-1-5.2-0.4C377.5,330.5,376.6,329.4,375.5,328.5z"/>
		<path class="st0" d="M400.3,326.2c-0.2,1.6-1.2,2.2-2.8,2.3c-2,0.1-3.5-1.3-3.5-2.7c0-1,1.8-2.7,3.4-2.6
			C398.9,323.4,400.1,324.5,400.3,326.2z"/>
		<path class="st0" d="M379.6,325.2c-2.4,0.8-4,0.8-5.8,0.2C375.4,323.4,377,323.4,379.6,325.2z"/>
		<path class="st0" d="M427.7,282.6c1.1,0.7,2.3,1.2,2.2,2.7c0,1.1-0.4,2.3-1.6,2.1c-0.7-0.2-2.1-0.4-2.1-1.9
			C426.2,284.2,427.2,283.6,427.7,282.6z"/>
		<path class="st0" d="M434.2,282.3c1.8-1.4,3.1-1,4.9-0.8C437.5,282.6,436.4,283.8,434.2,282.3z"/>
		<path class="st64" d="M371.5,286.9c3-0.2,4.3,1.1,4.6,3.2c0.2,1.1-0.7,1.9-1.5,1.8C371.7,291.7,372.7,288.8,371.5,286.9z"/>
		<path class="st9" d="M385.5,265.1c-1.3,0.5-2.4,1-3.6,1.3c-1.1,0.2-2.1,0.1-2-1.5c0.1-1.1,0.1-2,1.6-2.2
			C383.3,262.5,384.1,263.8,385.5,265.1z"/>
		<path class="st65" d="M382.9,259.8c1.5,0.1,3,0.3,3.2,2.5c-1.1-0.8-2.8-0.7-3.1-2.6C383,259.7,382.9,259.8,382.9,259.8z"/>
		<path class="st0" d="M378.4,305.4c1.5,1.3,3.3,2.3,2.1,4.5c-0.3,0.6-0.9,1.1-1.8,0.4C376.8,308.7,378.1,307.1,378.4,305.4z"/>
		<path class="st66" d="M366.8,325.8c1.2,0.2,2,1,1.9,2.1c-0.3,2.7-2.4,3.2-4.6,3.3c-1.2,0.1-1.5-0.1-1.6-1.7
			C362.4,326,365.4,327,366.8,325.8z"/>
		<path class="st0" d="M390.9,291.3c-2.2,0.3-4.3,0.6-5-2.5c2.2,0.1,4.7-1.1,4.8,2.6C390.8,291.4,390.9,291.3,390.9,291.3z"/>
		<path class="st0" d="M412.3,259.8c1,0.8,2.6,0.7,2.8,2c0.2,1.2-0.9,1.6-2,1.8c-1.4,0.3-1.8-0.6-2-1.7
			C410.9,260.8,411.5,260.3,412.3,259.8z"/>
		<path class="st0" d="M411,287.2c-0.3,1.1-1.1,1.5-2.2,1.6c-1.3,0-2.7-0.3-2.8-1.7c0-1.3,1.2-1.9,2.6-2.1
			C410.4,284.6,410.4,286.2,411,287.2z"/>
		<path class="st0" d="M420.8,282c-2.2,1-3,2.3-4.5,1.7c-0.3-0.1-0.6-1.3-0.3-1.6C417,280.5,418.3,281.3,420.8,282z"/>
		<path class="st0" d="M402.7,305.4c1.7,0.2,1.6,1.9,2.1,3c0.2,0.5-0.8,1.6-1.4,1.3c-1.1-0.6-3-0.7-3-2.4
			C400.4,306.1,401.3,305.4,402.7,305.4z"/>
	</g>
</g>
<g>
	<g>
		<defs>
			<rect id="SVGID_1_" x="1044" width="1024" height="600"/>
		</defs>
		<clipPath id="SVGID_2_">
			<use xlink:href="#SVGID_1_"  style="overflow:visible;"/>
		</clipPath>
		<g class="st67">
			<g>
				<defs>
					<rect id="SVGID_3_" x="1034.3" y="-60.3" width="1041" height="740.2"/>
				</defs>
				<clipPath id="SVGID_4_">
					<use xlink:href="#SVGID_3_"  style="overflow:visible;"/>
				</clipPath>
			</g>
		</g>
	</g>
</g>
</svg>
