<?xml version="1.0" encoding="utf-8"?>
<!-- Generator: Adobe Illustrator 23.0.1, SVG Export Plug-In . SVG Version: 6.00 Build 0)  -->
<svg version="1.1" id="Layer_1" xmlns="http://www.w3.org/2000/svg" xmlns:xlink="http://www.w3.org/1999/xlink" x="0px" y="0px"
	 viewBox="0 0 1024 600" style="enable-background:new 0 0 1024 600;" xml:space="preserve">
<style type="text/css">
	.st0{fill:#060606;}
	.st1{fill:#050505;}
	.st2{fill:#080808;}
	.st3{fill:#222222;}
	.st4{fill:#2B2C2C;}
	.st5{fill:#1A1A1A;}
	.st6{fill:#EFEEED;}
	.st7{fill:#B3B3B3;}
	.st8{fill:#0A0A0A;}
	.st9{fill:#636362;}
	.st10{fill:#0C0C0C;}
	.st11{fill:#FFFFFF;}
	.st12{fill:#FBFAFA;}
	.st13{fill:#F5F4F4;}
	.st14{fill:#F0EFEF;}
	.st15{fill:#F1F0EF;}
	.st16{fill:#EFEEEE;}
	.st17{fill:#F1EFEF;}
	.st18{fill:#EDEBEB;}
	.st19{fill:#F0EFEE;}
	.st20{fill:#F3F2F1;}
	.st21{fill:#DFDEDE;}
	.st22{fill:#EEEDED;}
	.st23{fill:#E5E4E3;}
	.st24{fill:#E6E5E5;}
	.st25{fill:#DBD9D9;}
	.st26{fill:#EDEDEC;}
	.st27{fill:#E1E1E0;}
	.st28{fill:#E2E1E0;}
	.st29{fill:#E6E5E4;}
	.st30{fill:#E9E8E7;}
	.st31{fill:#D7D6D6;}
	.st32{fill:#EDECEC;}
	.st33{fill:#F5F5F5;}
	.st34{fill:#EAE9E8;}
	.st35{fill:#191919;}
	.st36{fill:#0F0F0F;}
	.st37{fill:#E3E2E2;}
	.st38{fill:#DBDAD9;}
	.st39{fill:#DFDEDD;}
	.st40{fill:#CECCCC;}
	.st41{fill:#E1DFDF;}
	.st42{fill:#434343;}
	.st43{fill:#F8F8F7;}
	.st44{fill:#4D4D4D;}
	.st45{fill:#DDDBDB;}
	.st46{fill:#DEDCDC;}
	.st47{fill:#D4D3D2;}
	.st48{fill:#232323;}
	.st49{fill:#E0DEDE;}
	.st50{fill:#D9D8D7;}
	.st51{fill:#D0CFCF;}
	.st52{fill:#E5E4E4;}
	.st53{fill:#C2C2C2;}
	.st54{fill:#272828;}
	.st55{fill:#313232;}
	.st56{fill:#282829;}
	.st57{fill:#E2E0E0;}
	.st58{fill:#E9E8E8;}
	.st59{fill:#323232;}
	.st60{fill:#D1D0D0;}
	.st61{fill:#EAE8E8;}
	.st62{fill:#C2C0C0;}
	.st63{fill:#B3B2B2;}
	.st64{fill:#CFCFCE;}
	.st65{fill:#AEAEAE;}
	.st66{fill:#989797;}
	.st67{fill:#949494;}
	.st68{fill:#DADAD9;}
	.st69{fill:#ABABAB;}
	.st70{fill:#D4D2D2;}
	.st71{fill:#CCCBCA;}
	.st72{fill:#969595;}
	.st73{fill:#3C3C3C;}
	.st74{fill:#929292;}
	.st75{fill:#F4F3F3;}
	.st76{fill:#DBDBDA;}
	.st77{fill:#CCCBCB;}
	.st78{fill:#DDDCDC;}
	.st79{fill:#FCFCFB;}
	.st80{fill:#FCFBFB;}
	.st81{fill:#F8F7F7;}
	.st82{fill:#505151;}
	.st83{fill:#F6F5F5;}
	.st84{fill:#E1E0E0;}
	.st85{fill:#C4C4C4;}
	.st86{fill:#1E1E1E;}
	.st87{fill:#D2D2D2;}
	.st88{fill:#252626;}
	.st89{fill:#282828;}
	.st90{fill:#E8E6E6;}
	.st91{fill:#D5D4D3;}
	.st92{fill:#C0BFBF;}
	.st93{fill:#2B2C2B;}
	.st94{fill:#C1C1C0;}
	.st95{fill:#ECEAEA;}
	.st96{fill:#EBEAEA;}
	.st97{fill:#DCDBDA;}
	.st98{fill:#636363;}
	.st99{fill:#FDFCFC;}
	.st100{fill:#FEFEFE;}
	.st101{fill:#E8E7E7;}
	.st102{fill:#DAD9D9;}
	.st103{fill:#C9C8C7;}
	.st104{fill:#DBDADA;}
	.st105{fill:#121212;}
	.st106{fill:#1D1E1E;}
	.st107{fill:#656565;}
	.st108{fill:#1B1B1B;}
	.st109{fill:#090909;}
	.st110{fill:#858585;}
	.st111{fill:#9F9E9E;}
	.st112{fill:#A8A8A8;}
	.st113{fill:#B4B3B3;}
	.st114{fill:#111111;}
	.st115{fill:#171718;}
	.st116{fill:#5C5B5A;}
	.st117{fill:#F0F0EF;}
	.st118{fill:#DEDDDD;}
	.st119{fill:#EDECEB;}
	.st120{fill:#050606;}
	.st121{fill:#0B0B0B;}
	.st122{fill:#161616;}
	.st123{fill:#404141;}
	.st124{fill:#ACACAC;}
	.st125{fill:#FCFCFC;}
	.st126{fill:#FDFDFD;}
	.st127{fill:#FBFBFA;}
	.st128{fill:#FAFAF9;}
	.st129{fill:#202020;}
	.st130{fill:#E1E1E1;}
	.st131{fill:#E5E3E3;}
	.st132{fill:#D4D4D3;}
	.st133{fill:#C6C5C5;}
	.st134{fill:#B1B1B1;}
	.st135{fill:#E3E2E1;}
	.st136{fill:#C5C4C4;}
	.st137{fill:#373737;}
	.st138{fill:#E7E6E5;}
	.st139{fill:#2E2F2F;}
	.st140{fill:#D8D8D7;}
	.st141{fill:#3A3A39;}
	.st142{fill:#303030;}
	.st143{fill:#131313;}
	.st144{fill:#0D0D0D;}
	.st145{fill:#151515;}
	.st146{fill:#0D0C0C;}
	.st147{fill:#F7F7F6;}
	.st148{fill:#EEEDEC;}
	.st149{fill:#D9D7D7;}
	.st150{fill:#5B5A5A;}
	.st151{fill:#5D5D5D;}
	.st152{fill:#EBEAE9;}
	.st153{fill:#101010;}
	.st154{fill:#0B0C0C;}
	.st155{fill:#FDFDFC;}
	.st156{fill:#F2F1F1;}
	.st157{fill:#F7F6F6;}
	.st158{fill:#F7F6F5;}
	.st159{fill:#F3F2F2;}
	.st160{fill:#F6F5F4;}
	.st161{fill:#F1F0F0;}
	.st162{fill:#F4F3F2;}
	.st163{fill:#C7C5C5;}
	.st164{fill:#D6D5D4;}
	.st165{fill:#CAC9C9;}
	.st166{fill:#222323;}
	.st167{fill:#161717;}
	.st168{fill:#DAD9D8;}
	.st169{fill:#E7E5E5;}
	.st170{fill:#E2E0DF;}
	.st171{fill:#D9D8D8;}
	.st172{fill:#CAC8C8;}
	.st173{fill:#C9C7C7;}
	.st174{fill:#E0DFDF;}
	.st175{fill:#E4E3E3;}
	.st176{fill:#E7E5E4;}
	.st177{fill:#E6E4E4;}
	.st178{fill:#C9C8C8;}
	.st179{fill:#F8F7F6;}
	.st180{fill:#E9E7E7;}
	.st181{fill:#EEEDEE;}
	.st182{fill:#0A0A0B;}
	.st183{fill:#8E8D8D;}
	.st184{fill:#D3D2D1;}
	.st185{fill:#393A3A;}
	.st186{fill:#4D4E4D;}
	.st187{fill:#C6C6C6;}
	.st188{fill:#ECEBEB;}
	.st189{fill:#CECDCD;}
	.st190{fill:#404040;}
	.st191{fill:#B9B8B8;}
	.st192{fill:#CFCECD;}
	.st193{fill:#C4C3C3;}
	.st194{fill:#979797;}
	.st195{fill:#ABA9A9;}
	.st196{fill:#D5D4D4;}
	.st197{fill:#B6B4B4;}
	.st198{fill:#292A2A;}
	.st199{fill:#3B3C3C;}
	.st200{fill:#060707;}
	.st201{fill:#0A0B0B;}
	.st202{fill:#424343;}
	.st203{fill:#3D3E3E;}
	.st204{fill:#A9A8A8;}
	.st205{fill:#D6D4D4;}
	.st206{fill:#FAF9F9;}
	.st207{fill:#F4F2F2;}
	.st208{fill:#F9F8F7;}
	.st209{fill:#E2E1E1;}
	.st210{fill:#202121;}
	.st211{fill:#F5F4F3;}
	.st212{fill:#272727;}
	.st213{fill:#9B9A9A;}
	.st214{fill:#BFBEBE;}
	.st215{fill:#262626;}
	.st216{fill:#828181;}
	.st217{fill:#C3C2C2;}
	.st218{fill:#B5B5B5;}
	.st219{fill:#AEAFAF;}
	.st220{fill:#E3E1E1;}
	.st221{fill:#C0BEBE;}
	.st222{fill:#BBBABA;}
	.st223{fill:#232424;}
	.st224{fill:#D7D5D5;}
	.st225{fill:#292929;}
	.st226{fill:#444444;}
	.st227{fill:#1B1C1C;}
	.st228{fill:#0E0E0E;}
	.st229{fill:#0F1010;}
	.st230{fill:#2F3030;}
	.st231{fill:#111212;}
	.st232{fill:#181818;}
	.st233{fill:#111112;}
	.st234{fill:#121313;}
	.st235{fill:#141414;}
	.st236{fill:#191A1A;}
	.st237{fill:#0D0E0E;}
	.st238{fill:#181919;}
	.st239{fill:#1C1C1C;}
	.st240{fill:#0E0F0F;}
	.st241{fill:#1E1F1F;}
	.st242{fill:#171717;}
	.st243{fill:#1E1E1D;}
	.st244{fill:#131414;}
	.st245{fill:#333333;}
	.st246{fill:#212222;}
	.st247{fill:#3A3B3B;}
	.st248{fill:#525352;}
	.st249{fill:#2A2B2A;}
	.st250{fill:#FAFAFA;}
	.st251{fill:#EFEDED;}
	.st252{fill:#0C0D0D;}
	.st253{fill:#0A0B0A;}
	.st254{fill:#161515;}
	.st255{fill:#232425;}
	.st256{fill:#F6F6F5;}
	.st257{fill:#FEFEFD;}
	.st258{fill:#262727;}
	.st259{fill:#1D1D1D;}
	.st260{fill:#171818;}
	.st261{fill:#414040;}
	.st262{fill:#282929;}
	.st263{fill:#1A1B1B;}
	.st264{fill:#141515;}
	.st265{fill:#2D2D2D;}
	.st266{fill:#343535;}
	.st267{fill:#3C3D3D;}
	.st268{fill:#2F2F30;}
	.st269{fill:#1B1B1C;}
	.st270{fill:#313131;}
	.st271{fill:#3F4040;}
	.st272{fill:#111010;}
	.st273{fill:#101111;}
	.st274{fill:#1C1D1D;}
	.st275{fill:#242525;}
	.st276{fill:#CFCDCD;}
	.st277{fill:#323333;}
	.st278{fill:#CFCDCC;}
	.st279{fill:#D7D7D7;}
	.st280{fill:#303131;}
	.st281{fill:#B0AFAF;}
	.st282{fill:#CDCDCD;}
	.st283{fill:#242424;}
	.st284{fill:#121111;}
	.st285{fill:#1F1F1F;}
	.st286{fill:#2E2D2D;}
	.st287{fill:#F9F8F8;}
	.st288{fill:#191A19;}
	.st289{fill:#070808;}
	.st290{fill:#1A1A1B;}
	.st291{fill:#525252;}
	.st292{fill:#C5C3C3;}
	.st293{fill:#2C2C2C;}
	.st294{fill:#D8D7D7;}
	.st295{fill:#ECECEB;}
	.st296{fill:#D5D3D3;}
	.st297{fill:#BDBBBB;}
	.st298{fill:#BEBDBC;}
	.st299{fill:#FFFFFE;}
	.st300{fill:#F9F9F9;}
	.st301{fill:#F2F2F1;}
	.st302{fill:#DCDBDB;}
	.st303{fill:#B8B6B6;}
	.st304{fill:#EAE9E9;}
	.st305{fill:#7B7A7A;}
	.st306{fill:#252525;}
	.st307{fill:#D7D6D5;}
	.st308{fill:#A3A3A3;}
	.st309{fill:#D4D3D3;}
	.st310{fill:#424242;}
	.st311{fill:#313231;}
	.st312{fill:#585757;}
	.st313{fill:#1C1C1D;}
	.st314{fill:#434243;}
	.st315{fill:#343434;}
	.st316{fill:#1F2020;}
	.st317{fill:#E1E0DF;}
	.st318{fill:#2F2F2F;}
	.st319{fill:#171817;}
	.st320{fill:#101110;}
	.st321{fill:#151616;}
	.st322{fill:#EBE9E9;}
	.st323{fill:#ECEBEA;}
	.st324{fill:#F3F3F2;}
	.st325{fill:#D2D2D1;}
	.st326{fill:#E4E2E2;}
	.st327{fill:#E4E3E2;}
	.st328{fill:#E7E6E6;}
	.st329{fill:#CECDCC;}
	.st330{fill:#E4E4E4;}
	.st331{fill:#C4C3C2;}
	.st332{fill:#D6D5D5;}
	.st333{fill:#070707;}
	.st334{fill:#3F3E3D;}
	.st335{fill:#B7B5B5;}
	.st336{fill:#ACABAB;}
	.st337{fill:#080909;}
	.st338{fill:#3A3A3A;}
	.st339{fill:#010101;}
	.st340{fill:#6E6E6E;}
	.st341{fill:#C7C5C4;}
	.st342{fill:#BCBBBB;}
	.st343{fill:#FFFEFE;}
	.st344{fill:#F4F4F3;}
	.st345{fill:#D8D8D8;}
	.st346{fill:#818081;}
	.st347{fill:#2D2E2E;}
	.st348{fill:#9E9E9E;}
	.st349{fill:#282928;}
	.st350{fill:#2A2B2B;}
	.st351{fill:#040404;}
	.st352{fill:none;}
	.st353{fill:#2C2D2D;}
	.st354{fill:#474747;}
	.st355{fill:#3F3F3F;}
	.st356{fill:#EEECEC;}
	.st357{fill:#D7D7D6;}
	.st358{fill:#E7E7E7;}
	.st359{fill:#616161;}
	.st360{fill:#EAEAE9;}
	.st361{fill:#A9A9A9;}
	.st362{fill:#FBF9F9;}
	.st363{fill:#E0E0E0;}
	.st364{fill:#A4A4A4;}
	.st365{fill:#D5D5D5;}
	.st366{fill:#E6E6E6;}
	.st367{fill:#3E3E3E;}
	.st368{fill:#DDDCDB;}
	.st369{fill:#A0A0A0;}
	.st370{fill:#E8E7E6;}
	.st371{fill:#E4E4E3;}
	.st372{fill:#3E3F3F;}
	.st373{fill:#848383;}
	.st374{fill:#D2D1D1;}
	.st375{fill:#DFDFDE;}
	.st376{fill:#B7B6B6;}
	.st377{fill:#D1D0CF;}
	.st378{fill:#A7A7A6;}
	.st379{fill:#8D8E8E;}
	.st380{fill:#757575;}
	.st381{fill:#C2C1C1;}
	.st382{fill:#C8C8C7;}
	.st383{fill:#ABAAAA;}
	.st384{fill:#CBCAC9;}
	.st385{fill:#C6C6C5;}
	.st386{fill:#A7A6A7;}
	.st387{fill:#888888;}
	.st388{fill:#F0EEEE;}
	.st389{fill:#AEADAD;}
	.st390{fill:#292A29;}
	.st391{fill:#CCCCCC;}
	.st392{fill:#D3D2D2;}
	.st393{fill:#EFEFEF;}
	.st394{fill:#3C3D3C;}
	.st395{fill:#C8C7C8;}
	.st396{fill:#1D1D1E;}
	.st397{fill:#AAAAAA;}
	.st398{fill:#F9F9F8;}
	.st399{fill:#F2F1F0;}
	.st400{fill:#DAD8D8;}
	.st401{fill:#D0CFCE;}
	.st402{fill:#ECECEC;}
	.st403{fill:#676766;}
	.st404{fill:#BBBABB;}
	.st405{fill:#565655;}
	.st406{fill:#C8C6C6;}
	.st407{fill:#E0DFDE;}
	.st408{fill:#8C8C8C;}
	.st409{fill:#6F6E6F;}
	.st410{fill:#BAB9B9;}
	.st411{fill:#EEEEEE;}
	.st412{fill:#C7C7C7;}
	.st413{fill:#8A898A;}
	.st414{fill:#505050;}
	.st415{fill:#B5B3B3;}
	.st416{clip-path:url(#SVGID_2_);}
	.st417{clip-path:url(#SVGID_4_);}
	.st418{clip-path:url(#SVGID_6_);}
	.st419{fill:#CFCECE;}
	.st420{fill:#383939;}
	.st421{fill:#DEDEDE;}
	.st422{clip-path:url(#SVGID_8_);}
	.st423{clip-path:url(#SVGID_10_);}
	.st424{fill:#0B0C0B;}
	.st425{fill:#C7C6C6;}
	.st426{fill:#1E1E1F;}
	.st427{fill:#F8F8F8;}
	.st428{clip-path:url(#SVGID_12_);}
	.st429{clip-path:url(#SVGID_14_);}
	.st430{clip-path:url(#SVGID_16_);}
	.st431{clip-path:url(#SVGID_18_);}
	.st432{fill:#969696;}
	.st433{fill:#353636;}
	.st434{fill:#0E0E0F;}
	.st435{fill:#484948;}
	.st436{fill:#0D0E0D;}
	.st437{fill:#111211;}
	.st438{fill:#242425;}
	.st439{fill:#343534;}
	.st440{fill:#4A4B4B;}
	.st441{fill:#414242;}
	.st442{fill:#B4B4B4;}
	.st443{fill:#FBFBFB;}
	.st444{fill:#FEFDFD;}
	.st445{fill:#666666;}
	.st446{fill:#565756;}
	.st447{clip-path:url(#SVGID_20_);}
	.st448{clip-path:url(#SVGID_22_);}
</style>
<g>
	<defs>
		<rect id="SVGID_13_" y="2.01" width="1024" height="595.32"/>
	</defs>
	<clipPath id="SVGID_2_">
		<use xlink:href="#SVGID_13_"  style="overflow:visible;"/>
	</clipPath>
	<g class="st416">
		<path d="M464.74,237.72c-2.1-1.64-3.51-5.1-7.13-2.65c-0.5-1.24-1.17-2.45-1.46-3.74c-0.4-1.78-0.53-3.62-0.77-5.43
			c-0.55,0.09-1.09,0.19-1.64,0.28c0.38,1.2,0.76,2.4,1.16,3.66c-17.03,8.85-34.39,6.1-51.8,0.8c2.72,0.2,5.58-0.08,8.14,0.67
			c13.9,4.03,27.4,2.21,41.1-1.94c-3.31-3.89-5.04-4.3-11.42-3.6c-4.68,0.51-9.39,0.67-14.07,1.12c-7.35,0.7-14.7,1.52-22.05,2.23
			c-0.67,0.07-1.38-0.24-2.08-0.38c-0.04-0.56-0.08-1.13-0.12-1.69c8.51-0.97,17-2.33,25.54-2.8c8.74-0.49,17.52-0.11,27.07-0.11
			c-1.15-19.56-2.23-37.85-3.36-56.94c-14.37,5.21-27.8,4.35-41.13-0.7c4.02-6.8,32.18-8.94,41.81-3.04
			c1.46-21.91,2.91-43.59,4.36-65.33c-10.39,1.42-19.59-1.68-28.62-5.64c7.93,0.65,15.87,1.3,23.8,1.96
			c0.08-0.66,0.17-1.31,0.25-1.97c-10.31-1.11-20.62-2.22-30.93-3.33c0.11-0.74,0.21-1.48,0.32-2.22
			c12.09,1.48,24.17,2.96,38.02,4.65c1.95-6.38,4.79-14.2,6.65-22.25c1.57-6.82,2.6-13.88,2.8-20.86
			c0.32-11.35-8.34-19.41-18.91-16.36c-4.53,1.31-8.05,7.57-11.12,12.18c-5.23,7.86-9.73,16.21-15.73,23.74
			c3.16-5.87,6.1-11.86,9.53-17.56c4.66-7.77,8.8-15.91,16.47-21.52c5.86-4.28,13.84-2.92,17.49,3.6
			c6.9,12.33,5.66,25.19,1.25,37.65c-8.41,23.74-12.9,47.93-12.1,73.18c0.23,7.19-1.9,14.42-1.96,21.65
			c-0.07,10.03,0.68,20.07,1.3,30.09c0.49,7.87,1.7,15.71,1.85,23.57c0.13,6.9,1.26,12.84,8.25,16.22c2.13-1,5.4-1.52,6.72-3.4
			c2.05-2.91,3.44-6.66,3.95-10.22c2.66-18.65,4.48-37.42,7.57-55.99c1.66-9.94,5.16-19.59,8.07-29.3
			c3.02-10.07,5.32-20.52,9.72-29.97c8.37-17.96,8.23-38.52,17.81-55.87c3-5.42,7.4-10.71,12.44-14.23
			c9.23-6.44,17.21-2.6,21.31,7.67c6.26,15.69,4.28,31.18-1.33,45.98c-6.26,16.51-6.35,33.76-9.04,50.71
			c-1.16,7.31-3.23,14.47-4.72,21.73c-2.8,13.62-5.8,27.2-8.09,40.9c-1.49,8.88-1.94,17.95-2.7,26.94
			c-0.33,3.84,4.24,9.3,8.06,10.04c4.82,0.94,11.21-2.69,12.38-6.94c3.92-14.27,7.62-28.61,11.96-42.75
			c1.43-4.68,4.58-8.83,6.84-13.27c2.02-3.98,4.44-7.87,5.74-12.08c5.69-18.45,12.34-36.31,21.98-53.27
			c5.74-10.1,7.93-22.25,11.53-33.54c3.39-10.61,9.57-19.21,18.65-25.46c8.08-5.55,18.96,0.15,20.63,9.62
			c3.49,19.8-4.35,37.17-10.5,55.04c-2.97,8.64-4.58,17.75-7.45,26.43c-5,15.14-10.67,30.05-15.69,45.19
			c-2.63,7.93-4.22,16.2-6.75,24.17c-3.11,9.82-6.88,19.42-10.04,29.23c-1.89,5.88-5.89,11.86-1.76,18.19
			c2.32,3.55,5.47,6.56,8.6,10.23c0.31-0.34-0.83,0.97-0.87,0.95c-3.2-2.64-7.84-4.81-9.13-8.23c-3.23-8.58-6.4-11.88-14.96-12.86
			c-9.26-1.07-18.58-1.91-26.54-7.93c-3.92-2.97-10.36-1.81-15.92,1.59c-3.67-4.9-7.19-7.55-14.69-7.15
			c-14.82,0.79-29.97,2.15-44.76-2.37c-2.78-0.85-6.63,1.84-9.99,2.89L464.74,237.72z M486.51,161.02c2.46-1.06,4.9-2.19,7.39-3.17
			c3.91-1.54,7.86-4.15,11.8-4.17c5.12-0.03,10.2,2.37,15.38,3.12c5.93,0.85,10.17,3.29,11.79,9.35c0.05,0.18,0.69,0.21,2.6,0.74
			c3.25-20.71,6.48-41.22,9.83-62.56c-13.32,2.08-25.46,3.75-35.28-5.21c0.13-0.73,0.26-1.46,0.39-2.18
			c11.8,1.07,23.6,2.14,35.6,3.23c0.81-2.53,1.64-5.75,2.88-8.81c4.47-11.08,6.72-22.6,5.65-34.46c-0.57-6.35-2.21-12.86-9.48-15.61
			c-10.12-3.83-17.2-2.56-21.71,7.11c-5.38,11.53-8.6,24.09-12.48,36.29c-1.23,3.88-1.13,8.19-2.45,12.03
			c-3.73,10.77-8.11,21.31-11.8,32.1c-3.64,10.64-6.75,21.47-10.09,32.21c-3.42,23.61-6.84,47.23-10.21,70.49
			c16.6-3.19,32.74-9.1,47.61,2.32c2.93-22.1,5.74-43.36,8.53-64.42c-10.81-1.52-20.52-2.67-30.14-4.33
			C496.97,164.18,491.78,162.41,486.51,161.02z M567.73,179.39c-12.56,16.7-12.35,39.7-19.99,60.55
			c14.24,2.91,29.84-1.63,42.29,11.71c6.99-22.06,13.39-42.27,19.8-62.52C595.71,185.86,582.43,182.79,567.73,179.39z
			 M611.02,184.28c0.25-0.33,1.15-1,1.41-1.87c5.69-19.03,11.35-38.07,16.91-57.14c1.1-3.78-1.66-4.64-4.59-5.16
			c-6.51-1.15-13.09-2.05-19.5-3.63c-3.15-0.78-5.99-2.85-10.48-5.09c-8.51,21.65-16.78,42.67-25.23,64.16
			C584.95,173.34,597.95,177.15,611.02,184.28z M596.81,109.36c13.18-1.38,24.1,1.73,33.93,8.91c0.8-1.26,1.39-1.85,1.59-2.56
			c4.06-13.99,8.76-27.84,11.87-42.03c2.37-10.82-8.6-19.39-19.32-16.71c-6.06,1.52-9.46,6.09-11.67,10.62
			c-5.16,10.6-9.05,21.82-13.39,32.81C598.77,103.08,597.98,105.84,596.81,109.36z M528.93,163.71c-5.32-7.78-27.82-8.96-35.57-2.1
			c10.73,1.64,21.2,3.25,31.67,4.85c0.09-0.46,0.19-0.92,0.28-1.39c-7.21-1.43-14.41-2.86-21.62-4.3c0.09-0.48,0.18-0.97,0.27-1.45
			C512.05,160.75,520.13,162.17,528.93,163.71z M509.77,234.87c-0.08-0.2-0.16-0.4-0.24-0.6c-3.28-0.33-6.55-0.67-9.83-1
			c0.03-0.49,0.07-0.99,0.1-1.48c4.58,0.26,9.15,0.53,14.91,0.86c-4.37-3.8-7.7-5.83-12.54-3.65c-2.23,1.01-4.91,1.03-7.41,1.41
			c-4.82,0.72-9.66,1.38-14.49,2.06c0.05,0.8,0.09,1.6,0.14,2.4C490.2,234.87,499.99,234.87,509.77,234.87z M574.03,177.42
			c8.16,4.55,20.32,7.15,24.49,5.24C592.56,177.68,585.27,176.11,574.03,177.42z M436.69,169.11c0.15-0.66,0.29-1.32,0.44-1.98
			c-3.83-1.43-7.57-3.62-11.51-4.08c-3.69-0.42-7.58,0.99-11.39,1.6c0.07,0.54,0.13,1.08,0.2,1.63
			C421.85,167.22,429.27,168.16,436.69,169.11z M583.05,249.4c-7.15-5.37-15.86-6.97-26.01-4.7
			C565.29,246.19,573.54,247.68,583.05,249.4z"/>
		<path d="M321.15,228.25c-2.81,9.66-2.32,18.45,3.39,27.53c2.32,3.69,2.21,11.88-0.4,15.06c-4.99,6.08-3.44,11.94-2.78,17.93
			c1.5,13.63,0.86,26.98-2.05,40.43c-0.97,4.5,0.08,9.82,1.5,14.37c4.54,14.58,9.18,29.17,14.75,43.38
			c4.19,10.68,10.01,20.71,14.86,31.14c6.69,14.37,13.01,28.91,19.8,43.24c2.33,4.91,5.67,9.33,8.36,14.09
			c7.78,13.76,15.96,27.32,23.01,41.45c4.44,8.9,4.73,18.74,2.78,28.76c-2.32,11.91-3.41,24.04-5.55,35.99
			c-1.89,10.51-4.49,20.88-6.98,32.29c56.85,0,113.18,0,169.88,0c-1.88-22.66-3.79-45.59-5.7-68.53c0.65-0.07,1.3-0.13,1.96-0.2
			c1.92,23.09,3.85,46.18,5.78,69.41c56.25,0,111.55,0,166.07,0c2.11-3.4,4.63-6.1,5.6-9.27c2.51-8.26,2.06-16.68-1.86-24.44
			c-2.81-5.56-2.75-10.76-0.14-16.29c-2.43,6.87,0.85,12.57,2.78,18.84c2.17,7.05,2.08,14.79,3,22.47c0.98-0.85,2.8-2.44,4.62-4.03
			c0.25,0.17,0.51,0.34,0.76,0.51c-2.73,3.6-5.46,7.21-8.19,10.81c0.42,0.55,0.84,1.1,1.26,1.64c35.12,0,70.24,0,105.36,0
			c34.98,0,69.97,0,104.95,0c0,0.22,0,0.45,0,0.67c-311.28,0-622.56,0-933.84,0c-0.06-0.48-0.12-0.97-0.18-1.45
			c2.09-0.21,4.18-0.62,6.27-0.61c16.6,0.03,33.22-0.19,49.81,0.38c5.91,0.2,11.55-1.73,17.67-0.44c5.87,1.23,12.2,0.27,18.33,0.28
			c6.33,0,12.65,0,18.98,0c82.1,0,164.21,0,246.31,0.01c4.15,0,8.38-0.31,12.42,0.38c5.69,0.97,7.49-2.15,8.29-6.65
			c3.65-20.57,7.55-41.11,10.68-61.77c2.36-15.56-1.77-29.73-10.47-42.99c-8.59-13.08-16.79-26.49-24.01-40.37
			c-7.04-13.53-12.44-27.9-18.88-41.75c-3.2-6.88-7.83-13.15-10.58-20.19c-5.17-13.26-9.36-26.91-14.14-40.33
			c-2.16-6.06-6.27-11.83-6.79-17.96c-0.79-9.41,0.57-19.03,1.35-28.53c1.25-15.26,0.18-29.99-4.96-44.74
			c-2.4-6.9-1.49-15.17-1.03-22.76c0.28-4.69,2.28-9.36,4.01-13.84c0.6-1.54,2.7-2.51,4.11-3.74L321.15,228.25z M316.45,243.26
			c-0.42-0.13-0.84-0.26-1.25-0.39c0,7.07-0.2,14.15,0.07,21.21c0.19,4.99,2.88,6.96,7.33,5.2c3.14-6.31,1.54-11.35-2.35-16.44
			C318.23,250.21,317.66,246.48,316.45,243.26z"/>
		<path d="M636.28,300.27c3.45-0.48,4.23-2.55,5.52-5.84c5.82-14.87,12.61-29.36,19.07-43.97c0.87-1.96,2.18-3.79,2.64-5.83
			c0.27-1.18-0.33-3.36-1.24-3.9c-8.33-4.88-16.81-9.5-25.14-14.13c1.19,1.34,2.54,2.87,3.9,4.4c-0.23,0.29-0.46,0.58-0.69,0.87
			c-1.97-1.54-3.94-3.08-7.12-5.57c-3.28,4.74-6.68,9.55-9.96,14.44c-3.8,5.67-7.45,11.45-11.23,17.13
			c-3.75,5.63-5.77,11.38-1.64,17.35c-0.19,0.59-0.25,0.78-0.31,0.97c-0.81-0.48-1.63-0.97-3.94-2.34c3,4.83,5.21,8.38,7.76,12.47
			c-1.52-0.41-3.04-0.35-3.5-1.02c-2.66-3.84-5.91-7.59-7.23-11.9c-0.72-2.37,1.7-5.92,3.18-8.69
			c8.05-14.99,16.34-29.82,28.06-42.42c1.21-1.3,1.6-3.45,2.15-5.26c3.14-10.42,6.2-20.87,9.32-31.3c0.28-0.94,0.51-2.06,1.16-2.69
			c7.45-7.29,3.56-15.93,3.22-24.25c-0.34-8.21-0.46-16.51,0.39-24.66c0.67-6.45,4.99-11.71,11.47-12.57
			c6.7-0.88,13.56,0.93,16.78,8.1c5.27,11.73,11.16,23.42,10.86,36.69c-0.11,4.76-2.79,9.41-3.2,14.21
			c-1.84,21.26-9.92,40.47-18.89,59.42c-6.57,13.88-14.03,27.41-19.53,41.69c-3.31,8.61-6.27,17.42-6.1,27.56
			c0.41,23.48-2.64,46.47-12.18,68.72c-6.21,14.49-9.57,30.56-11.95,46.26c-3.45,22.73-11.77,42.95-24.35,62
			c-9.42,14.26-17.43,29.44-26.15,44.17c-2.43,4.1-5.18,8.02-8.97,11.36c4.04-7.29,7.88-14.7,12.16-21.85
			c11.07-18.43,22.88-36.43,33.32-55.21c6.54-11.77,9.32-25.08,11.44-38.5c3-19.05,6.57-37.96,15.1-55.64
			c5.58-11.56,8.03-24.08,7.36-37.06l-0.13,0.17c0.72-9.66,1.49-19.33,2.08-29c0.03-0.57-1.3-1.22-2-1.83
			C637.27,301.98,636.77,301.13,636.28,300.27z M682.24,192.58c-10.81-5.12-20.09-9.51-29.62-14.02
			c-9.54,12.28-10.96,27.99-14.94,42.73c10.36,4.48,20.12,8.69,30.34,13.11C673.11,219.58,681.57,206.57,682.24,192.58z
			 M683.15,189.06c1.59-9.95,3.96-18.39,3.92-26.82c-0.03-5.3-2.91-11.07-5.9-15.74c-3.22-5.01-8.12-8.93-12.14-13.45
			c-0.62-0.69-0.54-2.08-0.63-3.16c-0.16-1.89-0.21-3.79-0.3-5.68c-2.95,0.34-6.43-0.2-8.74,1.2c-5.74,3.48-8.56,9.54-8.26,15.93
			c0.47,10.16,1.98,20.29,3.56,30.36c0.25,1.6,3.03,3.05,4.91,4.09c2.76,1.52,5.9,2.37,8.64,3.94
			C672.76,182.33,677.12,185.26,683.15,189.06z M670.99,130c3.5,4.12,6.54,7.7,9.58,11.27c0.4-0.29,0.8-0.59,1.21-0.88
			c-2.67-4.49-5.33-8.97-8.51-14.31C672,128.27,671.09,129.82,670.99,130z M642.92,225.09c-0.27,0.5-0.54,0.99-0.81,1.49
			c5.22,3.34,10.44,6.67,15.66,10.01c0.36-0.59,0.72-1.18,1.08-1.77C653.54,231.57,648.23,228.33,642.92,225.09z"/>
		<path d="M536.75,410.77c1.02-1.16,1.95-2.41,3.08-3.45c5.37-4.96,7.78-5.16,12.87,0.02c5.04,5.13,9.56,10.76,14.95,16.91
			c-0.25-1.93-0.13-3.1-0.57-3.99c-2.88-5.89-5.91-11.7-8.79-17.58c-0.5-1.02-0.76-2.28-0.72-3.42
			c0.24-7.37,11.26-21.57,18.09-24.19c4.87-1.87,9.56-1.16,12.31,2.44c2,2.62,2.87,7.62,1.83,10.76
			c-2.51,7.59-6.07,15.13-14.6,17.97c-3.69,1.23-7.68,1.55-12.28,2.43c12.54,15.2,6.01,32.36,4.33,49.21
			c-0.62-0.03-1.23-0.07-1.85-0.1c0.56-3.73,1.23-7.45,1.64-11.2c0.44-4.04,0.64-8.1,1.03-13.39c-8.18,5.68-15.39,10.51-22.41,15.6
			c-6.4,4.65-7.67,4.94-13.34-0.57c-5.31-5.16-10.24-10.72-15.11-16.3c-2.61-2.99-2.4-5.86,1.23-8.32
			c6.25-4.23,12.35-8.68,18.52-13.03c-1.43,1.9-2.85,3.79-4.25,5.65c6.08,4.03,12.53,3.4,19.12,1.44c0.95-0.28,2.36-0.47,2.99,0.02
			c0.52,0.41,0.63,2.18,0.18,2.84c-3.05,4.51-1.51,8.19,1.64,11.81c0.84,0.96,1.22,2.31,2.03,3.93c-3.06,0.66-5.81,2.06-8.21,1.61
			c-7.73-1.47-8.54,3.79-9.22,9.56c2.46-0.92,4.21-2.72,6.26-4.06c6.53-4.28,13.17-8.38,19.73-12.61c0.33-0.21,0.29-1,0.53-1.96
			c-1.3,0.13-2.28,0.22-2.82,0.28c-0.38-1.76-0.26-3.65-1.12-4.79c-3.42-4.54-7.13-8.86-10.77-13.24c-3.91-4.7-8.13-6.4-13.18-1.47
			C539.12,410.26,537.8,410.38,536.75,410.77z M565.54,386.76c-1.91,3.26-3.78,5.59-4.73,8.25c-2.19,6.11-0.17,9.15,6.27,10.2
			c8.48,1.38,16.38-4.75,19.86-15.3c1.39-4.21,2.79-8.56-1.34-11.86c-3.64-2.91-9.27-2.01-14.18,1.38
			c-1.91,1.31-3.05,3.73-4.24,5.26c4.61,3.79,8.72,7.17,12.84,10.55c-0.4,0.48-0.8,0.97-1.2,1.45
			C574.58,393.51,570.33,390.34,565.54,386.76z M526.27,431.63c6.97,0.65,10.28,4.92,12.46,11.3c0.45-9.58,6.96-9.23,14.97-8.6
			c-3.27-2.49-4.81-3.66-6.37-4.84c1.72-3.06,3.25-5.79,4.78-8.51c-5.88,2.29-11.17,4.54-17.54-1.82
			C536.29,427.57,532.86,430.61,526.27,431.63z M516.37,427.81c6.39,5.72,9.66-2.04,13.46-1.71c0-2.79,0-5.23,0-8.96
			C524.98,420.99,520.98,424.16,516.37,427.81z M523.33,434.56c-0.32,0.52-0.65,1.04-0.97,1.56c5.44,4.83,10.89,9.66,16.33,14.5
			c0.44-0.51,0.88-1.01,1.32-1.52C534.22,444.52,534.19,433.45,523.33,434.56z"/>
		<path d="M524.05,325.27c2.38,1.31,4.81,2.53,7.11,3.96c5.03,3.12,7.87,7.63,11.05,12.8c5.29,8.58,3.02,19.25,9.43,26.85
			c6.38,7.56,5.72,16.35,4.67,25.4c-0.24-11.9-4.22-22.54-10.64-32.01c-8.48,10.82-25.95,12.93-31.98-3.3
			c-3.42,4.13-6.77,8.96-10.91,12.99c-4.81,4.69-10.94,3.45-16.67,1.83c-5.98-1.69-12.29-12.18-12.05-19.44
			c0.24-7.47,6.57-15.2,12.79-17.24c9.48-3.1,21.53,1.41,26.28,12.44c3.41-3.07,6.54-7.61,10.76-9.18
			c4.38-1.62,9.84-0.36,14.89-0.36c-1.69-6.29-8.62-7.85-13.62-11.34c-9.9-6.91-20.3-13.11-30.1-20.16
			c-3.46-2.49-6.98-6.2-4.41-11.51c2.35-4.84,5.48-9.16,11.66-7.42c8.42,2.37,16.82,4.98,24.92,8.27
			c6.64,2.7,13.09,6.12,19.09,10.04c2.65,1.73,5.23,5.28,5.68,8.32c1.31,8.83-1.83,14.17-11.45,12.6
			c-5.49-0.9-10.83-2.72-16.24-4.12C524.23,324.89,524.14,325.08,524.05,325.27z M510.84,355.02c0.09-8.42-7.82-16.46-16.38-16.65
			c-9.4-0.21-18.68,7.69-18.97,16.15c-0.27,8.09,9.9,18.17,18.45,18.28C501.83,372.9,510.75,363.52,510.84,355.02z M518.38,319.3
			c7.19,2.54,13.69,5.09,20.34,7.08c3.42,1.02,8.27,2.45,9.71-2.09c1.14-3.59,1.31-9.38-0.82-11.77
			c-5.63-6.34-13.28-10.33-21.75-12.52c-1.23,3.63-2.12,6.6-3.23,9.48C521.53,312.38,520.19,315.17,518.38,319.3z M529.64,368.07
			c7.92,0.02,15.58-6.65,15.58-13.56c0-6.47-8.73-13.55-16.64-13.51c-5.82,0.03-12.87,7.03-13,12.91
			C515.41,361.65,521.75,368.04,529.64,368.07z M523.92,298.78c-7.39-2.73-14.06-5.43-20.88-7.61c-4.41-1.41-7.7,0.99-9.56,4.85
			c-1.71,3.54-1.86,7.04,2.19,9.54c5.46,3.37,10.88,6.8,16.18,10.4c3.71,2.52,5.79,0.65,7.06-2.52
			C520.7,308.99,522.04,304.37,523.92,298.78z"/>
		<path d="M930.43,256.6c-19.31-8.07-38.75-15.85-57.84-24.41c-5.16-2.31-9.68-6.55-13.77-10.64c-6.1-6.1-6.36-15.22,0.28-21.78
			c13.32-13.14,12.97-27.91,6.15-43.32c-6.91-15.6-3.19-29.57,11.5-39.13c13.35-8.69,27.42-16.29,41.34-24.06
			c8.43-4.7,16.02-9.78,18.61-19.94c2.48-9.75,0.04-18.15-9.69-23.52c-13.14-7.26-26.55-14.63-40.72-19.27
			c-20.08-6.57-40.9-10.98-61.54-15.73c-7.89-1.81-16.14-2.02-25.85-3.14c2.11-1.08,2.85-1.83,3.48-1.74
			c26.85,3.74,53.72,7.97,79.3,17.01c16.29,5.76,31.8,13.92,47.23,21.85c16.34,8.4,13.2,32.38-2.03,41.3
			c-14.82,8.68-29.84,17.01-44.61,25.77c-19.82,11.76-21.56,24.42-13.94,43.75c5.71,14.5,4.97,27.65-6.39,39.63
			c-8.94,9.43-6.82,20.44,6.65,28.03c13.66,7.69,28.42,13.46,42.87,19.68c6.55,2.82,13.51,4.66,20.29,6.95
			C931.31,254.8,930.87,255.7,930.43,256.6z"/>
		<path d="M509.52,422.11c1.27,2.93,2.41,6.96,4.6,10.29c4.56,6.93,5.74,14.37,5.3,22.43c-0.62,11.4-0.7,22.71,2.48,33.95
			c1.11,3.93-0.46,8.61-1.3,12.65c-1.27-10.75-2.8-21.48-3.7-32.26c-0.4-4.86,0.12-9.87,0.79-14.73
			c1.54-11.08-5.91-19.11-9.24-28.53c-0.39-1.1-0.99-2.12-1.71-3.66c-2.47,0.52-5.3,0.8-7.9,1.74c-5.9,2.15-9.79-0.83-13.21-4.87
			c-3.67-4.34-3.37-9.51-0.51-13.7c6.25-9.16,15.29-15.06,25.27-19.71c6.88-3.21,13.28-7.66,20.38-10.13
			c4.17-1.45,9.98-1.52,13.84,0.33c5.01,2.4,8.2,8.27,6.23,13.96c-1.45,4.18-4.92,8.33-8.6,10.94
			C531.86,408.19,520.91,414.78,509.52,422.11z M512.56,387.69c3.66,7.28,7.1,14.13,10.85,21.6c7.73-4.71,14.56-8.69,21.2-12.97
			c4.58-2.95,5.39-8.21,2.64-14.15c-2.12-4.59-6.47-6.55-11.8-4.46C527.9,380.64,520.58,384.15,512.56,387.69z M509.17,388.41
			c-6.12,4.54-13.13,9.24-19.54,14.66c-3.62,3.06-4.63,7.46-2.42,12.29c2.27,4.96,6.43,6.57,11.1,5.89
			c8.9-1.3,15.79-6.73,22.67-11.59C516.95,402.39,513.31,395.84,509.17,388.41z"/>
		<path d="M739.63,45.54c-14.27-4.94-28.55-10.19-39.33-21.21c-7.27-7.43-7.83-16.87-5.74-27.05c2.89-14.07-5.45-21.12-19.71-17.74
			c-8.31,1.97-16.63,4-25.05,5.24c-2.33,0.34-5.16-1.87-7.59-3.2c-4.99-2.73-9.59-7.16-14.86-8.17c-10.14-1.93-20.67-2.83-31-2.58
			c-15.08,0.37-30.11,2.69-45.2,3.16c-24.87,0.78-49.9,4.57-74.53-2.24c-3.4-0.94-6.56-2.77-9.47-4.82
			c6.74,1.85,13.48,3.72,20.23,5.54c1.13,0.3,2.31,0.56,3.47,0.54c22.45-0.38,44.91-0.49,67.34-1.34
			c11.53-0.44,23.03-3.27,34.51-3.07c13.21,0.23,26.42,2.35,39.55,4.24c3.43,0.49,7.49,2.43,9.6,5.04
			c4.78,5.94,10.41,5.36,16.47,3.85c5.64-1.41,11.18-3.21,16.81-4.69c7.53-1.98,14.69,0.12,19.48,5.43
			c2.57,2.85,3.16,9.11,2.2,13.25c-5.64,24.2,8.37,32.56,24.91,40.4c6.13,2.91,12.19,5.98,18.28,8.98L739.63,45.54z"/>
		<path d="M739.99,45.12c10.94,3.27,20.52,8.83,28.08,17.44c5.23,5.96,4.57,14.4-1.14,22.84c-1.64,2.42-3.26,4.89-4.63,7.47
			c-3.18,5.99-1.52,10.17,5.28,11.84c5.27,1.3,10.8,1.57,16.19,2.4c2.27,0.35,4.5,0.99,7.13,1.58c-1.66,8.08-8.22,11.11-13.93,13.39
			c-15.22,6.07-27.3,16.01-37.95,27.97c-9.71,10.9-15.53,23.29-11.1,38.25c2.57,8.69,8.09,15.7,15.52,20.82
			c12.9,8.88,26.07,17.38,39.09,26.08c0.9,0.6,1.55,1.58,2.31,2.39l0.03-0.04c-6.37-3.61-12.9-6.95-19.06-10.88
			c-8.57-5.48-17.17-11-25.22-17.2c-20.65-15.9-21.19-39.55-4.31-59.14c12.09-14.03,26.53-24.7,43.61-31.97
			c3.37-1.43,5.98-4.67,8.95-7.07c-0.15-0.59-0.29-1.18-0.44-1.78c-6.62-0.79-13.27-1.35-19.85-2.42
			c-9.76-1.58-12.51-8.15-7.23-16.55c1.98-3.15,4.07-6.25,5.68-9.59c4.46-9.27,2.58-16.73-6.02-22.45
			c-6.92-4.61-14.22-8.65-21.35-12.95L739.99,45.12z"/>
		<path d="M38.04,436.35c-0.58-1.61-1.56-3.19-1.69-4.83c-0.92-12.13,1.87-23.65,5.28-35.21c3.1-10.48,5.57-21.22,7.22-32.02
			c0.9-5.9,0.29-12.31-0.97-18.2c-3.11-14.52-0.17-28.04,5.07-41.43c5.39-13.77,11.95-27.25,15.64-41.47
			c3.54-13.63,5.12-28.45-2.75-41.37c-3.94-6.46-10.41-11.48-16.11-16.75c-5.45-5.04-11.45-9.48-17.1-14.3
			c-13.89-11.86-12.33-30.12-2.55-43.57c2.14-2.95,4.91-5.45,7.38-8.15l0.14,0.13c-3.28,5.26-6.77,10.41-9.79,15.82
			c-5.85,10.5-4.94,21.69,3.29,30.44c5.86,6.24,12.21,12.36,19.36,16.96c14.68,9.45,21.77,22.6,22.27,39.65
			c0.46,15.6-3.62,29.94-10.45,44.05c-7.8,16.13-15.05,32.83-14.03,51.46c0.42,7.62,3.13,15.37,2.23,22.75
			c-1.58,12.93-4.7,25.74-8,38.38c-3.25,12.45-6.37,24.77-4.57,37.76C37.93,436.46,38.04,436.35,38.04,436.35z"/>
		<path d="M321.31,228.4c2.02-7.16,12.13-11.38,18.3-7.28c9.04,6.01,16.14,13.51,18.56,24.73c2.8,12.98,6.41,25.65,7.15,39.16
			c0.53,9.64,5.04,19.03,7.57,28.58c1.49,5.63,2.12,11.51,3.97,17c2.32,6.87,5.23,13.6,8.59,20.02c0.54,1.04,4.77,0.15,7.61,0.15
			c-3.76,3-1.97,6.34-1.47,10.41c0.81,6.64-1.22,13.62-2.06,20.45c-0.66-0.07-1.32-0.14-1.98-0.21c0.88-6.78,1.77-13.56,2.65-20.33
			c-0.58-0.07-1.15-0.14-1.73-0.21c-1.4,1.67-2.81,3.34-4.21,5.01c-0.2-0.13-0.4-0.26-0.6-0.39c1.27-3.68,2.53-7.35,3.88-11.26
			c-1.8-0.34-2.95-0.56-3.92-0.75c-1.32,2.97-2.65,5.93-3.97,8.89c-0.59-0.14-1.17-0.28-1.76-0.42c4.71-8.58,3.4-16.58-1.7-24.19
			c-0.81,0.41-1.76,0.89-3.92,1.99c3.93-10.66,2.06-19.73-3.16-28.69c-1.11,2.13-2.04,3.94-2.98,5.74
			c1.91-9.34,2.31-18.34-2.79-27.67c-2.09,3.61-3.93,6.77-5.76,9.94c-0.39-0.18-0.78-0.36-1.18-0.54c0.85-2.22,1.52-4.53,2.58-6.64
			c3.9-7.74,4.2-15.83,2.23-24.03c-2.22-9.28-4.51-18.56-7.34-27.67c-2.42-7.77-8.65-12.74-15.32-16.59
			c-6.85-3.96-12.12,1.06-17.41,4.63C321.15,228.25,321.31,228.4,321.31,228.4z"/>
		<path d="M383.08,30.35c0.73,15.69-0.37,31.38-5.89,45.81c-4.9,12.82-3.23,24.21,0.66,36.45c2.82,8.87,4.11,18.22,6.03,27.37
			c0.2,0.94,0.36,2.21-0.09,2.92c-6.64,10.46-6.76,24.07-16.13,33.2c-2.11,2.05-3.79,4.58-6.02,6.47c-1.9,1.61-4.31,2.62-6.49,3.9
			c-0.7-2.25-2.02-4.51-1.99-6.75c0.14-9.34,1.03-18.67,0.99-28c-0.04-8.26-0.84-16.52-1.51-24.76c-0.7-8.59-4.46-15.93-9.75-22.62
			c6.95,4.36,10.42,11.02,11.22,18.84c1.41,13.69,2.49,27.43,3.19,41.18c0.22,4.37-1.32,8.82-1.84,13.26
			c-0.26,2.25-0.05,4.56-0.05,6.85c0.52,0.11,1.04,0.23,1.57,0.34c4.34-4.84,9.02-9.43,12.87-14.63c2.22-3.01,3.18-6.98,4.56-10.58
			c0.77-2.01,0.69-4.58,1.95-6.12c8.79-10.82,4.77-22.1,1.57-33.39c-1.98-6.98-4.65-13.86-5.76-20.97
			c-0.81-5.19-0.79-11.14,0.98-15.98c4.99-13.58,7.25-27.54,8.43-41.81C381.88,37.65,382.57,34.01,383.08,30.35z"/>
		<path d="M391.64-52.82c-18.89,30.21-47.5,46.42-77.81,60.3c-22.61,10.36-45.25,20.67-68.03,30.67c-6,2.64-12.59,3.92-18.85,6
			c-10.39,3.46-20.74,7.06-31.5,10.1c5.38-2.58,10.57-5.72,16.18-7.63c11.01-3.74,22.61-5.92,33.32-10.32
			c19.9-8.18,39.51-17.13,58.92-26.43c15.8-7.57,31.3-15.81,46.6-24.36c11.53-6.45,21.46-14.93,29.17-25.97
			C382.71-44.84,387.16-48.27,391.64-52.82z"/>
		<path d="M895.79-92.34c7.49,2.35,15.21,4.17,22.41,7.21c6.49,2.74,12.6,6.52,18.53,10.39c4.5,2.93,8.62,6.52,12.59,10.16
			c4.74,4.35,5.25,9.74,3.09,15.67c-1.48,4.04-2.39,8.29-3.86,12.34c-4.69,12.84-1.78,25.9-0.22,38.6
			c1.32,10.74,5.12,21.3,8.78,31.6c3.2,9.01,10.4,15.08,18.45,19.96c3.1,1.88,6.37,3.5,9.27,5.62
			c-14.63-4.65-25.84-13.37-31.32-28.08c-5.93-15.91-9.59-32.51-9.38-49.46c0.11-9.23,2.49-18.59,4.93-27.6
			c2.85-10.53,2.35-17.25-6.54-22.85c-11.48-7.24-23.93-13-36.19-18.92c-3.33-1.61-7.47-1.53-11.24-2.22
			C895.31-90.73,895.55-91.54,895.79-92.34z"/>
		<path d="M691.08,391.86c-1.99,0.67-4.1,2.03-5.94,1.72c-1.01-0.17-2.45-3.31-2.16-4.8c1.19-6.05,2.25-12.31,4.74-17.86
			c3.4-7.58,8.51-14.38,11.98-21.94c1.3-2.84,0.61-6.97-0.11-10.3c-2.38-11.03-2.23-21.45,5.54-30.7c-6.46,11-5.92,22.3-1.63,33.51
			c8.08-6.31,15.85-13.74,24.87-19.02c8.86-5.19,19-8.21,28.58-12.18c0.22,0.47,0.44,0.95,0.66,1.42
			c-7.77,3.34-15.39,7.1-23.34,9.94c-12.17,4.35-21.43,12.37-28.07,22.9c-2.12,3.37-1.06,9.4-0.08,13.92
			c2.03,9.31-5.46,30.79-15.25,33.6c0.56-0.77,1.03-1.63,1.68-2.3c11.62-11.92,14.46-23.92,9.05-41.1
			c-7.15,14.25-18.08,25.98-16.3,43.19C687.61,391.86,689.34,391.86,691.08,391.86z"/>
		<path d="M1003.2,335.92c-0.77-9.33-1.13-18.71-2.4-27.97c-1.85-13.48-6.24-26.23-13.18-37.98c-5.89-9.97-7.27-20.37-4.48-31.67
			c3.7-15,7.23-30.08,10.06-45.26c2.53-13.6-0.87-26.56-6.7-38.88c-2.14-4.51-4.69-8.83-6.66-13.45c6.22,5.49,9.5,12.97,11.66,20.54
			c2.4,8.4,4.42,17.33,4.12,25.94c-0.3,8.8-3.94,17.43-5.52,26.24c-2.34,13.06-5.89,26.25-5.59,39.3c0.21,8.74,6.03,17.43,9.68,26
			c5.73,13.44,9.63,27.27,10.1,41.94c0.17,5.09,0.03,10.2,0.03,15.3C1003.94,335.95,1003.57,335.93,1003.2,335.92z"/>
		<path d="M448.39,276.85c7.02,2.57,12.23,8.66,16.6,15.24c6.42,9.67,14.34,17,25.7,20.27c3.1,0.89,6.08,2.24,9.11,3.38
			c-0.15,0.48-0.31,0.96-0.46,1.44c-5.01-1.51-10.02-3.02-14.51-4.38c0.68,4.84,2.84,10.07,1.63,14.35c-1.25,4.4-5.26,8.49-9,11.6
			c-4.23,3.52-15.74,1.34-20.34-2.88c-7.5-6.88-9.66-16.65-5.62-25.49c2.76-6.03,9.5-8.33,20.35-6.61
			C463.7,294.42,455.88,285.45,448.39,276.85z M470.57,337.22c8.15-0.01,14.24-5.88,14.17-13.65c-0.08-8.92-10.63-18.48-20.34-18.43
			c-6.86,0.04-12.93,6.25-12.85,13.15C451.67,329.18,459.77,337.23,470.57,337.22z"/>
		<path d="M921.66,173.87c0.75,2.98,1.44,5.72,2.13,8.47c-0.51,0.16-1.01,0.31-1.52,0.47c-0.96-2.94-1.92-5.87-2.94-9
			c-1.26-0.25-2.81-0.42-4.28-0.85c-7.23-2.14-9.23-9.07-4.15-14.56c4.52-4.88,10.02-9.1,10.08-16.67c0-0.58,0.05-1.42,0.41-1.68
			c2.12-1.55,4.26-3.12,6.58-4.31c0.46-0.24,2.61,1.38,2.51,1.71c-0.62,2.16-1.09,4.9-2.65,6.17c-7.32,5.95-7.96,13.99-7.77,22.38
			c0.09,4.07,1.66,6.13,6.38,6.48c14.86,1.09,28.32,6.72,40.69,14.7c2.4,1.55,3.75,5.34,4.72,8.37c2.33,7.28-2,12.71-4.96,18.46
			c-0.54-0.19-1.09-0.38-1.63-0.57c0.87-2.01,1.57-4.1,2.63-6.01c4.77-8.58,2.65-15.93-5.83-21.2c-11.5-7.14-24.39-10.04-37.38-12.7
			C923.82,173.35,922.81,173.73,921.66,173.87z M917.64,170.92c0.38-6.14,0.74-11.83,1.07-17.16c-6.38,4.25-9.3,9.08-7.7,13.4
			C912.3,170.66,914.66,172.01,917.64,170.92z"/>
		<path d="M306.64,40.51c-4.97,3.94-9.96,7.85-14.91,11.83c-9.94,7.99-17.83,17.27-21.29,30.04c-2.43,8.97-0.19,16.56,4.17,24.12
			c4.11,7.12,8.23,14.25,11.88,21.6c2.84,5.73,2.79,11.97-0.27,17.58c-11.86,21.72-23.13,43.85-40.65,61.85
			c-0.33,0.34-1.08,0.27-1.63,0.39l-0.03-0.03c0.31-0.88,0.37-2.02,0.96-2.6c17.33-17.01,27.37-38.83,39.17-59.47
			c3.57-6.24,3.08-12.88-0.25-19.17c-3.94-7.44-7.98-14.83-12.18-22.12c-5.71-9.92-5.38-20.03-0.39-29.81
			c7.85-15.37,19.67-26.91,35.52-34.09C306.75,40.63,306.64,40.51,306.64,40.51z"/>
		<path d="M922.45,404.45c12.69-4.23,25.6-7.91,38.01-12.84c15.22-6.04,20.94-15.28,18.7-31.38c-1.46-10.52-4.25-21.14-8.33-30.94
			c-6.06-14.57-17.67-22.4-33.99-22.16c-0.19,0-0.4-0.57-0.29-2.54c4.44,0.98,8.94,1.75,13.32,2.97
			c14.06,3.92,21.66,14.4,25.72,27.4c3.19,10.22,5.95,20.83,6.72,31.43c0.38,5.27-3.24,11.52-6.61,16.22
			c-6.86,9.59-18.08,12.54-28.64,15.97c-8.05,2.62-16.33,4.53-24.51,6.76C922.52,405.06,922.49,404.75,922.45,404.45z"/>
		<path d="M802.83,250.41c8.61,9.34,17.4,18.51,25.77,28.06c8.66,9.87,19.24,17,30.7,23.07c12.42,6.58,23.28,15.23,32,26.21
			c5.89,7.42,7.01,16.67,5.92,25.72c-0.44,3.65-3.85,6.95-6.87,9.95c6.89-7.06,5.05-15.18,3.88-23.56
			c-1.25-8.98-6.33-15.23-13.05-20.15c-10.21-7.47-20.6-14.79-31.46-21.26c-15.37-9.16-26.47-22.5-37.63-35.92
			c-3.23-3.89-6.44-7.79-9.67-11.69C802.55,250.71,802.69,250.56,802.83,250.41z"/>
		<path d="M716.83,104.83c-2.74-3.49-5.93-6.73-8.14-10.53c-5.04-8.65-12.83-13.44-21.77-16.92c-1.82-0.71-3.6-1.53-5.46-2.09
			c-14.22-4.35-19.82-15.13-22.47-28.76c-3.09-15.92-14.2-25.86-26.71-35.31c2.98,1.49,6.32,2.53,8.89,4.53
			c11.62,9.06,18.77,21.02,21.42,35.48c2.11,11.46,8.88,18.28,19.71,21.82c4.43,1.45,8.58,3.72,12.89,5.53
			c8.68,3.64,13.11,11.48,18.36,18.5c1.61,2.15,3,4.47,4.48,6.71C717.65,104.13,717.24,104.48,716.83,104.83z"/>
		<path d="M434.17,391.84c-4.03-10.07-8.07-20.15-11.93-29.8c9.56-3.99,19.03-7.76,28.33-11.91c3.31-1.48,4.7-1.16,6.05,2.43
			c2.87,7.63,6.32,15.05,9.54,22.55c1.47,3.43,0.74,5.03-3.23,6.28C453.34,384.41,443.99,388.21,434.17,391.84z M465.14,378.15
			c-4.05-9.51-7.75-18.22-11.47-26.99c-8.8,3.72-16.86,6.97-24.74,10.6c-1.4,0.64-3.26,3.31-2.9,4.27
			c2.97,7.74,6.43,15.3,9.76,22.96C445.19,385.52,454.82,381.96,465.14,378.15z"/>
		<path d="M623.63,610.13c0.39-3.45,0.39-6.99,1.24-10.33c2.59-10.24-0.46-19.72-3.12-29.38c-3.15-11.45-7.04-22.89-8.32-34.58
			c-0.8-7.34,0.91-16.09,4.48-22.54c7.73-13.95,17.39-26.83,26.25-40.14c0.67,0.47,1.34,0.93,2.01,1.4
			c-5.4,7.21-10.62,14.56-16.23,21.6c-10.23,12.82-17.39,26.91-14.52,43.67c1.89,11.08,5.6,21.9,9.1,32.65
			C628.66,585.2,629.25,597.67,623.63,610.13z"/>
		<path d="M146.29,208.32c19.97-7.96,40.11-15.52,58.69-26.94c18.58-11.43,36.91-22.89,51.54-40.67
			C252.62,158.01,179.67,202.64,146.29,208.32z"/>
		<path d="M393.67,345.26c0.99-38.28-4.17-76.96,6.82-114.6C392.8,268.51,395.37,307.03,393.67,345.26z"/>
		<path d="M1009.39,12.4c-8.34-5.73-11.04-14.1-12.22-23.48c-1.01-7.97-2.08-15.99-4.1-23.74c-0.85-3.28-3.74-6.5-6.53-8.7
			c-5.86-4.64-9.79-9.91-7.86-17.64c2.1-8.41,7.25-12.19,17.03-13.35c0.71-0.08,1.4-0.32,2.44,0.54c-1.8,0.41-3.59,0.88-5.4,1.23
			c-6.8,1.31-10.6,5.93-12.04,12.18c-1.48,6.38,1.24,11.43,6.74,15.06c6.85,4.52,8.81,11.54,9.79,19.19
			c0.97,7.6,1.71,15.34,3.85,22.64C1002.73,1.86,1006.41,6.8,1009.39,12.4z"/>
		<path d="M77.69-19.06C68.17-13.59,65.59-4.37,63.5,5.43C59.84,22.58,58,40.46,47.25,55.23c-6.82,9.36-14.32,18.23-21.52,27.32
			c-0.52-0.43-1.05-0.86-1.57-1.28c4.89-5.87,9.63-11.87,14.71-17.57c12.9-14.47,18.38-32.01,21.16-50.65
			C61.55,2.9,63.42-7.08,70.24-15.22c1.73-2.07,4.17-3.54,6.28-5.28C76.91-20.02,77.3-19.54,77.69-19.06z"/>
		<path d="M464.31,384.45c8,15.29,12.52,31.2,11.18,48.55c-0.52,6.76-0.31,13.89,1.27,20.43c2.79,11.52-2.69,21.44-4.35,32.08
			C474.94,451.44,477.43,417.41,464.31,384.45z"/>
		<path d="M96.4,355.77c5.52-3.57,10.84-7.01,16.17-10.45c0.26,0.37,0.52,0.75,0.78,1.12c-3.82,2.61-7.47,5.53-11.51,7.74
			c-4.46,2.44-6.55,5.56-6.04,10.8c0.47,4.79-0.81,9.42-6.32,10.43c-2.2,0.4-5.35-0.67-6.99-2.21c-1.04-0.98-0.9-4.67,0.15-6.09
			c2.14-2.92,5.48-4.94,7.86-7.72c1.18-1.38,2.4-4.07,1.83-5.4c-5.24-12.06-3.65-25.12-5.87-37.6c-0.02-0.14,0.59-0.39,1.33-0.85
			C92.1,328.54,87.84,343.23,96.4,355.77z M94.51,360.47c-0.55-0.24-1.1-0.48-1.64-0.72c-2.56,2.28-5.28,4.4-7.59,6.91
			c-1.15,1.24-2.55,3.72-2.04,4.68c0.71,1.34,3.2,2.59,4.76,2.41c1.8-0.2,4.37-1.66,4.92-3.18
			C94.04,367.41,94.04,363.85,94.51,360.47z"/>
		<path d="M171.52-36.49c-1.09,1.76-2.02,3.64-3.3,5.25c-8.21,10.32-7.29,21.93-3.2,33.01c5.08,13.76,1.95,26.51-3.15,38.88
			c-3.29,7.98-8.84,15.05-13.52,22.43c-0.47,0.74-1.96,0.83-2.98,1.22c0,0,0.13,0.12,0.13,0.12c10.71-11.97,17.62-25.94,19.2-41.83
			c0.75-7.55-0.21-15.81-2.6-23.02c-4.55-13.7-1.15-24.96,7.44-35.49c0.35-0.43,1.38-0.32,2.09-0.45
			C171.63-36.37,171.52-36.49,171.52-36.49z"/>
		<path d="M212.39,277.21c24.69,36.29,20.73,69.96-6.12,108.32c7.84-17.3,20.32-33.22,20.69-52.87
			C227.32,313.18,223.42,294.08,212.39,277.21z"/>
		<path d="M452.58,346.63c-1.12-2.28-2.28-4.53-3.36-6.83c-4.86-10.34-9.41-20.84-14.75-30.93c-1.49-2.82-4.96-5.51-8.06-6.4
			c-12.99-3.73-18.41-14.5-23.81-25.48c1.4,1.75,2.85,3.47,4.19,5.26c1.52,2.03,2.64,4.45,4.46,6.14
			c3.94,3.68,7.69,8.46,12.45,10.16c8.82,3.14,14.1,9.1,17.71,16.96c4.57,9.97,8.64,20.16,12.92,30.26
			C453.75,346.07,453.17,346.35,452.58,346.63z"/>
		<path d="M541.23-12.26c-4.76,0.83-9.46,0.97-13.67,2.49c-16.6,5.98-33.55,4.26-50.56,3.38c-3.53-0.18-7.36,1.72-10.69,3.38
			c-1.72,0.86-2.64,3.3-4.36,4.59c1.85-7.2,8.21-10.23,14.94-9.95c17.52,0.71,35.21,3.47,52.3-3.85c4.27-1.83,9.54-1.35,15.78-2.1
			c-1.93,4.63-3,7.2-4.08,9.77c-0.46-0.13-0.92-0.26-1.38-0.39C539.99-6.98,540.47-9.04,541.23-12.26z"/>
		<path d="M557.9,353.26c-1.74-8.32,4.58-16.52,14.22-18.43c7.33-1.45,15.54,4.37,16.88,11.96c1.14,6.47-5.35,14.6-12.3,15.32
			c-6.61,0.69-12.22-1.67-17.2-5.84C558.96,355.27,558.43,354.26,557.9,353.26z M586.76,349.37c-0.03-6.25-6.31-13.2-11.89-13.15
			c-7.49,0.07-15.5,6.97-15.44,13.31c0.05,5.15,8.94,11.33,16.02,11.14C581.07,360.51,586.79,354.79,586.76,349.37z"/>
		<path d="M528.64,550.7c-7.59,1.51-15.6,3.5-23.74,4.57c-4.37,0.58-8.95-0.42-13.43-0.7c-10.82-0.67-21.64-1.34-32.75-2.03
			c1.81-0.56,3.8-1.73,5.77-1.69c8.42,0.17,16.96-0.1,25.2,1.31c7.99,1.37,15.35,0.25,23.06-1.26
			C518.07,549.86,523.76,550.7,528.64,550.7z"/>
		<path d="M578.36,9.72c-0.17,0.93-0.1,1.99-0.53,2.78c-6.33,11.65-2.54,12.24,2.73,18.56c6.5,7.78,7.63,17.45,3.97,26.84
			c-2.6,6.68-3.49,14.02-4.91,20.07c-2.05-4.87-2.13-11.05,1.1-17.33c6.12-11.89,4.67-21.55-4.5-30.94
			c-5.61-5.75-4.71-13.73,2.24-19.84C578.47,9.84,578.36,9.72,578.36,9.72z"/>
		<path d="M402.33,159.11c4.74-23.2,9.49-46.4,14.23-69.6c0.63,0.13,1.26,0.26,1.88,0.39c-4.71,23.18-9.42,46.35-14.13,69.53
			C403.65,159.33,402.99,159.22,402.33,159.11z"/>
		<path d="M775.32,460.6c2.43,1.82,5.19,3.33,7.24,5.52c7.93,8.44,15.53,17.18,23.46,25.63c7.28,7.76,6.53,21.05,1.01,28.21
			c-1.88,2.44-3.84,4.82-6.6,6.75c0.23-0.76,0.23-1.72,0.71-2.24c13.14-14.26,9.94-25.47-1.2-37.47
			c-7.74-8.34-15.87-16.31-23.79-24.49c-0.45-0.47-0.48-1.35-0.71-2.04L775.32,460.6z"/>
		<path d="M376.81,7.47c-8.45,5.81-16.29,13-25.5,17.1c-14.4,6.41-29.73,10.73-44.67,15.94c0,0,0.1,0.12,0.1,0.11
			c6.35-3.17,12.54-6.78,19.11-9.39c8.06-3.2,16.75-4.92,24.62-8.48c7.16-3.25,13.56-8.17,20.35-12.24
			c1.93-1.16,4.08-1.94,6.12-2.89L376.81,7.47z"/>
		<path d="M286.46,437.33c-21.08-15.25-35.19-34.07-30.67-59.94c2.02,9.74,2.28,22.39,7.43,32.57
			C268.46,420.35,278.51,428.31,286.46,437.33z"/>
		<path d="M550.18,540.44c-21.67,7.95-44.44,2.31-66.41,6.56c-0.05-0.62-0.1-1.25-0.14-1.87
			C505.81,543.57,527.99,542.01,550.18,540.44z"/>
		<path d="M432.78,536.23c4.29,2.55,8.58,5.1,12.24,7.27c-12.04-3.02-24.63-6.18-37.21-9.34c0.07-0.31,0.14-0.62,0.21-0.92
			c5.06,0.69,10.11,1.59,15.19,1.97c2.33,0.17,4.81-0.43,7.11-1.09c8.98-2.57,16.55,1.67,24.28,5.34c-7.2-1.63-14.4-3.26-21.6-4.89
			C432.92,535.12,432.85,535.67,432.78,536.23z"/>
		<path d="M597.32,356.08c1.94-2.15,2.95-3.72,0.38-6.76c-5.56-6.57-10.5-13.69-15.35-20.82c-3.06-4.5-5.84-7.13-11.04-2.62
			c-2.53,2.2-5.79,3.56-9.49,4.16c4.73-2.98,9.28-6.35,14.31-8.67c1.34-0.62,4.83,1.43,6.19,3.16c6.05,7.71,11.56,15.83,17.52,23.61
			c3.09,4.02,2.78,6.63-2.16,8.31L597.32,356.08z"/>
		<path d="M185.51,453.85c7.36,9.59,6.33,20.43,4.65,31.36c-1.76,11.43-3.84,22.81-5.21,34.29c-0.55,4.58,0.43,9.34,0.72,14.03
			c-0.54,0.02-1.09,0.03-1.63,0.05c0-7.51-0.58-15.07,0.13-22.51c1.34-14.02,3.91-27.94,4.94-41.98c0.37-5.02-2.22-10.25-3.45-15.39
			L185.51,453.85z"/>
		<path d="M983.61,598.94c-1.79-6.91-3.94-13.76-5.27-20.76c-0.98-5.19,0.22-10.11,4.6-13.91c4.29-3.72,5-8.98,5.41-14.3
			c0.58-7.42,1.27-14.83,1.97-22.89c0.64,3.15,1.82,6.03,1.68,8.85c-0.28,5.64-0.93,11.33-2.12,16.84
			c-0.84,3.89-1.86,8.55-4.5,11.09c-6.82,6.55-6.23,13.82-4.04,21.63c1.2,4.26,2.75,8.43,4.14,12.63
			C984.87,598.4,984.24,598.67,983.61,598.94z"/>
		<path d="M185.65,453.69c-2.82-4.26-5.56-8.56-8.47-12.76c-5.07-7.32-5.02-15.06-0.01-21.86c7.1-9.65,15.19-18.56,22.86-27.79
			c0.52,0.43,1.04,0.86,1.56,1.28c-4.7,5.29-9.61,10.43-14.05,15.93c-3.65,4.52-7.14,9.26-10.02,14.29
			c-3.85,6.71-1.9,13.06,2.14,19.24c2.39,3.66,3.95,7.85,5.88,11.82C185.51,453.85,185.65,453.69,185.65,453.69z"/>
		<path d="M685.2,580.82c-2.71-9.46-4.91-19.1-8.26-28.32c-4.06-11.19-1.22-21.55,2.16-32.02c0.78-2.43,1.91-4.74,3.64-6.83
			c-1.65,6.31-4.15,12.54-4.72,18.94c-0.59,6.61,0.04,13.51,1.33,20.05c1.86,9.45,4.79,18.69,7.27,28.01
			C686.15,580.7,685.67,580.76,685.2,580.82z"/>
		<path d="M400.79,226.46c0.7-14.22,1.55-28.43,2.03-42.65c0.15-4.48-0.68-8.99-1.06-13.49c-0.43-5.12,1.54-6.86,7.22-5.47
			c-1.93,0.93-3.31,1.6-5.01,2.42C405.44,187.1,404.05,206.92,400.79,226.46z"/>
		<path d="M168.07,349c-3.32-6.49-7.98-12.66-9.67-19.55c-2.94-11.95-9.01-22.02-15.33-32.18c-1.72-2.77-2.64-6.05-2.63-9.62
			c5.52,10.25,11.61,20.24,16.38,30.82c4.45,9.87,7.49,20.38,11.14,30.62L168.07,349z"/>
		<path d="M829.89,312.31c-2.36,11.76-2.57,24.55-14.62,30.92c-8.42,4.45-17.57,7.18-27.74,5.62
			C811.95,348.49,826.95,337.59,829.89,312.31z"/>
		<path d="M542.33,297.82c-17.88-7.1-28.59-21.53-37.97-37.32C515.38,274.62,526.42,288.71,542.33,297.82z"/>
		<path d="M19.32,585.84c-2.94-5.54,0.08-11.95,1.85-18.07c1.66-5.73,1.58-10.78,0.17-16.63c-1.44-5.97-0.86-12.59-0.3-18.85
			c0.68-7.52,2.29-14.96,4.6-22.27c-0.9,7.13-2.2,14.24-2.6,21.4c-0.38,7.01,0.37,14.07,0.24,21.1c-0.12,6.14-0.53,12.31-1.26,18.41
			C21.39,576.21,20.14,581.43,19.32,585.84z"/>
		<path d="M744.17,437.64c-10.59-5.02-18.88-12.61-24.23-22.82c-4.74-9.05,1.96-22.54,10.26-23.68c-2.39,2.87-5.84,5.91-7.92,9.7
			c-5.28,9.61,0.79,16.71,6.65,23.17C733.49,429.03,739.06,433.13,744.17,437.64z"/>
		<path d="M962.24,91.6c10.53-2.49,17.8,2.86,23.65,10.29c4.87,6.19,9.13,12.77,17.15,15.39c-6.41,0.07-10.82-3.48-14.35-8.21
			c-4.83-6.46-9.39-13.17-17.67-15.62C968.17,92.6,965.18,92.2,962.24,91.6z"/>
		<path d="M907.08,515.19c6.3-2.82,12.61-5.64,18.91-8.46c1.07-0.48,2.16-0.91,3.2-1.45c9.13-4.72,9.79-8.85,2.4-15.98
			c-2.44-2.36-5.17-4.42-7.77-6.62c0.49-0.51,0.98-1.03,1.47-1.54c4.19,4.31,8.75,8.33,12.47,13.01c3.2,4.03-0.09,7.68-3.23,9.21
			c-8.97,4.35-18.34,7.87-27.56,11.72C906.97,515.07,907.08,515.19,907.08,515.19z"/>
		<path d="M243.94,207.92c-10.76,14.02-24.1,24.91-40.22,32.41c1.29-0.96,2.63-1.87,3.87-2.9c10.55-8.82,21.07-17.69,31.64-26.49
			c1.42-1.18,3.12-2.04,4.68-3.05C243.91,207.9,243.94,207.92,243.94,207.92z"/>
		<path d="M167.96,349.09c11.08,13.87,6.31,41.91-8.63,50.67c0,0,0.17,0.14,0.16,0.14c3.1-5.16,6.12-10.37,9.31-15.48
			c5.2-8.34,4.63-17.02,1.88-25.92c-0.97-3.14-1.75-6.33-2.61-9.5C168.07,349,167.96,349.09,167.96,349.09z"/>
		<path d="M963.15,432.96c6.48-13.69,20.17-17.28,32.91-22.63c-1.79,1.6-3.33,4.09-5.4,4.64c-9.91,2.62-18.5,6.89-24.13,15.94
			C965.92,431.91,964.3,432.29,963.15,432.96z"/>
		<path d="M112.42,77.62c-15.94,6.1-28.67,16.66-40.3,28.76c10.93-12.99,22.44-25.18,40-29.11L112.42,77.62z"/>
		<path d="M596.86,321.08c-1.3-7.28-0.08-9.16,17.2-24.5C608.34,304.72,602.62,312.87,596.86,321.08z"/>
		<path d="M557.9,353.26c0.53,1,1.06,2,1.6,3.01c2.1,3.22,4.25,6.41,6.29,9.68c1.24,1.99,2.32,4.08,3.46,6.13
			c-0.56,0.31-1.13,0.62-1.69,0.92c-6.78-10.02-13.56-20.03-20.34-30.05c0.44-0.31,0.88-0.62,1.32-0.94
			C551.66,345.76,554.78,349.51,557.9,353.26z"/>
		<path d="M906.97,515.07c-0.92,0.82-1.7,1.94-2.78,2.41c-12.57,5.45-23.4,12.06-19.52,28.98c-7.77-15.77,6.47-26.75,22.4-31.27
			C907.08,515.19,906.97,515.07,906.97,515.07z"/>
		<path d="M847.16,565.13c-3.72,8.28,1.15,13.66,4.93,20.2c3.63,6.27,4.25,14.27,5.37,21.66c-2.77-7.79-4.12-16.58-8.69-23.11
			C844.16,577.31,843.62,571.91,847.16,565.13z"/>
		<path d="M849.29,475.78c-0.92-1.13-2.83-2.53-2.61-3.36c2.08-7.72-4.58-9.1-8.53-12.62c-2.3-2.05-3.91-4.88-5.07-7.69
			c3.88,3.48,7.77,6.96,12,10.76c0.79-1.64,1.2-2.49,2.02-4.19c1.15,6.17,2.13,11.4,3.1,16.64
			C849.9,475.47,849.59,475.63,849.29,475.78z"/>
		<path d="M149.12,122.58c1.07-1,1.97-2.53,3.22-2.91c11.53-3.51,23.11-6.81,34.68-10.18c0,0-0.06-0.07-0.06-0.07
			c-5.21,2.33-10.28,5.07-15.67,6.87c-7.3,2.44-14.84,4.15-22.27,6.17C149.01,122.47,149.12,122.58,149.12,122.58z"/>
		<path d="M547.66,301.04c13.52,11.64,14.24,13.04,14.26,21.03C563.09,315.73,551.45,310.39,547.66,301.04z"/>
		<path d="M543.89,276.51c-0.22-3.85-1.74-8.25-0.39-11.44c2.69-6.37,0.37-10.77-3.78-15.71c5.68,0.6,6.64,4.3,6.6,8.31
			c-0.06,6.18-0.54,12.35-0.84,18.52C544.95,276.3,544.42,276.41,543.89,276.51z"/>
		<path d="M376.95,7.62c1.51-1.82,2.86-3.81,4.56-5.42c3.68-3.5,7.56-6.8,11.33-10.22c3.49-3.16,6.94-6.37,10.4-9.55
			c0.36,0.38,0.71,0.76,1.07,1.13c-1.89,1.68-3.81,3.34-5.67,5.05c-6.13,5.67-12.22,11.39-18.4,17c-0.94,0.85-2.29,1.24-3.45,1.85
			C376.81,7.47,376.95,7.62,376.95,7.62z"/>
		<path d="M795.24,560.45c-8.68-11.83-7.37-23.77,4.58-32.55c-2.43,3.52-4.25,5.93-5.82,8.48c-3.66,5.94-3.81,12.01-0.45,18.18
			c0.92,1.7,1.5,3.59,2.23,5.4C795.6,560.12,795.42,560.29,795.24,560.45z"/>
		<path d="M775.44,460.47c-5.28-3.45-10.61-6.81-15.8-10.37c-3.51-2.41-6.83-5.11-9.82-8.24c9.01,5.56,18.54,10.36,25.51,18.74
			C775.32,460.6,775.44,460.47,775.44,460.47z"/>
		<path d="M112.12,77.27c7.71-2.71,15.45-5.32,23.1-8.17c3.52-1.31,6.86-3.11,10.28-4.68c0,0-0.13-0.12-0.13-0.12
			c-2.89,2.09-5.51,4.97-8.74,6.12c-7.92,2.82-16.13,4.85-24.22,7.2C112.42,77.62,112.12,77.27,112.12,77.27z"/>
		<path d="M159.33,399.76c-1.3,2.63-2.2,5.59-3.99,7.82c-5.15,6.41-10.66,12.52-16.03,18.74c-0.39-0.33-0.78-0.66-1.17-0.99
			c7.12-8.47,14.25-16.95,21.36-25.43C159.5,399.89,159.33,399.76,159.33,399.76z"/>
		<path d="M863.07,447.17c-7.93-7.43-4.06-19.17,8.73-23.48C863,430.37,856.54,436.63,863.07,447.17z"/>
		<path d="M354.3,575.93c0,4.06,0.23,8.35-0.13,12.6c-0.13,1.47-1.59,2.95-2.74,4.13c-0.33,0.34-2.47-0.34-2.48-0.56
			c-0.01-1.63,0.02-3.37,0.58-4.87C350.97,583.41,352.69,579.7,354.3,575.93z"/>
		<path d="M37.46,139.06c5.69-9.35,12.28-17.71,22.92-21.59c-7.99,3.32-12.16,11.03-18.08,16.74c-1.64,1.58-3.14,3.32-4.7,4.98
			C37.61,139.19,37.46,139.06,37.46,139.06z"/>
		<path d="M795.78,559.96c7.43,9.09,7.7,23.49,0.18,28.63c6.01-9.77,3.9-19-0.72-28.14C795.42,560.29,795.6,560.12,795.78,559.96z"
			/>
		<path d="M636.28,300.27c0.49,0.85,0.98,1.7,1.47,2.56c-0.75,0.52-2.03,1.61-2.18,1.48c-5-4.65-9.89-9.41-15.08-14.43
			C627.07,291.35,631.54,296.04,636.28,300.27z"/>
		<path d="M464.56,237.56c3.1,8.03,6.2,16.05,9.3,24.08c-0.66,0.24-1.32,0.49-1.98,0.73c-1.38-4.13-2.6-8.33-4.18-12.38
			c-1.32-3.38-3.15-6.57-4.51-9.94c-0.2-0.49,1-1.53,1.55-2.32C464.74,237.72,464.56,237.56,464.56,237.56z"/>
		<path d="M314.62,495.25c-4.15-8.38-8.29-16.75-12.44-25.13c0.47-0.23,0.94-0.46,1.42-0.69c4.16,8.37,8.31,16.74,12.47,25.11
			C315.58,494.77,315.1,495.01,314.62,495.25z"/>
		<path d="M870.12,370.79c-11.19,0.82-22.37,1.64-33.56,2.46c-0.03-0.34-0.05-0.69-0.08-1.03c11.19-0.97,22.38-1.95,33.57-2.92
			C870.07,369.8,870.1,370.3,870.12,370.79z"/>
		<path d="M65.64,603.25c3.31-3.54,6.63-7.08,9.34-9.97c0,3.08,0,7.74,0,12.12c-0.58-0.67-1.76-2.02-2.94-3.36
			c-1.69,0.81-3.46,1.65-5.22,2.49C66.42,604.11,66.03,603.68,65.64,603.25z"/>
		<path d="M901.11,409.95c-8.51,3.4-17.02,6.81-25.53,10.21c-0.2-0.53-0.41-1.07-0.61-1.6c8.52-3.32,17.04-6.65,25.57-9.97
			C900.73,409.04,900.92,409.49,901.11,409.95z"/>
		<path d="M149.01,122.47c-7.24,5.53-14.48,11.07-21.72,16.6c6.11-7.08,12.73-13.45,21.82-16.48
			C149.12,122.58,149.01,122.47,149.01,122.47z"/>
		<path d="M38.68,465.33c-1.61,9.67-3.22,19.35-4.84,29.02c-0.8-0.16-1.59-0.31-2.39-0.47c1.78-6.51,3.59-13.01,5.31-19.54
			c0.78-2.95,1.36-5.95,2.03-8.92C38.8,465.43,38.68,465.33,38.68,465.33z"/>
		<path d="M637.81,333.49c-0.59,0.86-1.18,1.72-1.44,2.1c0-6.52,0-13.47,0-20.43c0.43,0,0.87,0.01,1.3,0.01c0,6.16,0,12.33,0,18.49
			C637.68,333.66,637.81,333.49,637.81,333.49z"/>
		<path d="M397.13,358.19c6.56,5.07,3.53,12.17,2.73,18.78C398.98,370.88,398.1,364.8,397.13,358.19z"/>
		<path d="M384.63,464.89c2.89-6.16,5.77-12.3,8.86-18.88C393.66,454.19,391.29,460.59,384.63,464.89z"/>
		<path d="M187.02,109.5c6.67-3.38,13.33-6.76,20-10.15c0.31,0.73,0.63,1.46,0.94,2.19c-7,2.63-14,5.26-20.99,7.89
			C186.96,109.43,187.02,109.5,187.02,109.5z"/>
		<path d="M597.68,356.44c-5.99,4.02-11.98,8.05-17.98,12.07c-0.38-0.6-0.75-1.2-1.13-1.8c6.25-3.55,12.5-7.09,18.75-10.64
			L597.68,356.44z"/>
		<path d="M227.3,89.65c4.63-5.44,8.62-10.13,13.09-15.39c1.17,2.02,1.78,3.07,1.96,3.38C237.36,81.62,232.68,85.36,227.3,89.65z"/>
		<path d="M197.35,268.25c-3.38-2.84-7.16-5.36-9.88-8.73c-0.73-0.9,1.77-4.41,3.38-8.05c0,4.46-0.99,7.8,0.25,9.68
			c1.55,2.35,4.92,3.51,7.51,5.18C198.18,266.97,197.77,267.61,197.35,268.25z"/>
		<path d="M896.9,567.01c2.98,6.96,5.97,13.92,8.95,20.88c-0.46,0.21-0.92,0.41-1.37,0.62c-2.99-6.96-5.98-13.92-8.97-20.88
			C895.97,567.42,896.44,567.21,896.9,567.01z"/>
		<path d="M656.74,445.01c2.9,7.81-0.61,13.37-4.16,18.96C653.91,457.91,655.24,451.85,656.74,445.01z"/>
		<path d="M1001.64,451.9c-5.96,3.68-11.91,7.36-17.87,11.04c-0.25-0.41-0.5-0.81-0.76-1.22c5.93-3.75,11.86-7.5,17.79-11.25
			C1001.08,450.95,1001.36,451.43,1001.64,451.9z"/>
		<path d="M578.47,9.84c5.66-6.51,13.83-6.33,21.37-7.83c-7.16,2.57-14.32,5.14-21.48,7.71C578.36,9.72,578.47,9.84,578.47,9.84z"/>
		<path d="M37.93,436.46c0.67,8.65,1.39,17.3,1.95,25.95c0.06,0.94-0.78,1.94-1.2,2.91c0,0,0.12,0.09,0.12,0.1
			c-0.26-9.68-0.53-19.36-0.78-29.06C38.04,436.35,37.93,436.46,37.93,436.46z"/>
		<path d="M761.13,379.92c7.26-0.93,14.52-1.86,21.78-2.79c0.04,0.36,0.08,0.72,0.13,1.08c-7.24,1.07-14.47,2.13-21.71,3.2
			C761.26,380.91,761.19,380.41,761.13,379.92z"/>
		<path d="M784.83,237.57c6,4.28,12,8.56,18,12.84c-0.14,0.15-0.27,0.3-0.41,0.45c-5.85-4.44-11.71-8.88-17.56-13.32
			C784.86,237.53,784.83,237.57,784.83,237.57z"/>
		<path d="M815.17,374.61c-6.43,0.71-12.86,1.43-19.3,2.14c-0.06-0.51-0.11-1.02-0.17-1.53c6.43-0.66,12.86-1.32,19.29-1.98
			C815.06,373.7,815.12,374.16,815.17,374.61z"/>
		<path d="M308.2,578.95c0,7.93,0,15.85,0,23.78c0.09,0,0.17,0.01,0.26,0.01c-0.5-7.92-0.99-15.84-1.49-23.76
			C307.38,578.97,307.79,578.96,308.2,578.95z"/>
		<path class="st11" d="M486.52,161.03c3.34-10.74,6.45-21.57,10.09-32.21c3.69-10.78,8.08-21.33,11.8-32.1
			c1.33-3.83,1.22-8.15,2.45-12.03c3.88-12.2,7.1-24.76,12.48-36.29c4.51-9.67,11.59-10.94,21.71-7.11
			c7.27,2.75,8.91,9.26,9.48,15.61c1.07,11.85-1.18,23.38-5.65,34.46c-1.23,3.06-2.06,6.28-2.88,8.81c-12-1.09-23.8-2.16-35.6-3.23
			c-0.13,0.73-0.26,1.46-0.39,2.18c9.81,8.96,21.95,7.29,35.28,5.21c-3.35,21.34-6.57,41.84-9.83,62.56
			c-1.91-0.53-2.55-0.56-2.6-0.74c-1.62-6.06-5.85-8.5-11.79-9.35c-5.18-0.74-10.27-3.14-15.38-3.12c-3.94,0.02-7.89,2.63-11.8,4.17
			C491.41,158.84,488.97,159.96,486.52,161.03C486.51,161.02,486.52,161.03,486.52,161.03z"/>
		<path class="st11" d="M486.51,161.02c5.26,1.39,10.46,3.16,15.8,4.08c9.62,1.66,19.33,2.81,30.14,4.33
			c-2.79,21.05-5.6,42.32-8.53,64.42c-14.87-11.42-31.01-5.51-47.61-2.32C479.68,208.26,483.1,184.65,486.51,161.02
			C486.52,161.03,486.51,161.02,486.51,161.02z"/>
		<path class="st11" d="M567.73,179.39c14.7,3.4,27.98,6.47,42.1,9.73c-6.41,20.25-12.81,40.46-19.8,62.52
			c-12.44-13.34-28.05-8.8-42.29-11.71C555.38,219.09,555.17,196.09,567.73,179.39z"/>
		<path class="st11" d="M611.02,184.28c-13.07-7.13-26.07-10.95-41.48-8.73c8.45-21.49,16.72-42.51,25.23-64.16
			c4.5,2.24,7.33,4.31,10.48,5.09c6.41,1.58,12.98,2.48,19.5,3.63c2.93,0.52,5.69,1.37,4.59,5.16
			c-5.55,19.07-11.22,38.11-16.91,57.14C612.18,183.28,611.28,183.96,611.02,184.28z"/>
		<path class="st11" d="M596.81,109.36c1.18-3.52,1.97-6.28,3.02-8.94c4.34-10.99,8.23-22.21,13.39-32.81
			c2.2-4.53,5.61-9.11,11.67-10.62c10.72-2.68,21.69,5.89,19.32,16.71c-3.12,14.2-7.82,28.05-11.87,42.03
			c-0.2,0.71-0.8,1.3-1.59,2.56C620.91,111.09,609.99,107.98,596.81,109.36z"/>
		<path class="st11" d="M528.93,163.71c-8.8-1.54-16.89-2.96-24.97-4.38c-0.09,0.48-0.18,0.97-0.27,1.45
			c7.21,1.43,14.41,2.86,21.62,4.3c-0.09,0.46-0.19,0.92-0.28,1.39c-10.47-1.6-20.93-3.21-31.67-4.85
			C501.12,154.75,523.61,155.93,528.93,163.71z"/>
		<path class="st11" d="M509.77,234.87c-9.78,0-19.57,0-29.35,0c-0.05-0.8-0.09-1.6-0.14-2.4c4.83-0.68,9.66-1.34,14.49-2.06
			c2.49-0.37,5.18-0.4,7.41-1.41c4.84-2.19,8.18-0.15,12.54,3.65c-5.76-0.33-10.33-0.6-14.91-0.86c-0.03,0.49-0.07,0.99-0.1,1.48
			c3.28,0.33,6.55,0.67,9.83,1C509.61,234.47,509.69,234.67,509.77,234.87z"/>
		<path class="st11" d="M574.03,177.42c11.23-1.31,18.53,0.25,24.49,5.24C594.35,184.58,582.19,181.97,574.03,177.42z"/>
		<path class="st11" d="M436.69,169.11c-7.42-0.94-14.84-1.89-22.26-2.83c-0.07-0.54-0.13-1.08-0.2-1.63
			c3.8-0.61,7.7-2.02,11.39-1.6c3.94,0.45,7.68,2.64,11.51,4.08C436.98,167.79,436.83,168.45,436.69,169.11z"/>
		<path class="st11" d="M583.05,249.4c-9.51-1.72-17.76-3.21-26.01-4.7C567.19,242.43,575.91,244.04,583.05,249.4z"/>
		<path class="st11" d="M316.45,243.26c1.22,3.23,1.79,6.95,3.8,9.58c3.89,5.09,5.5,10.13,2.35,16.44c-4.46,1.76-7.15-0.21-7.33-5.2
			c-0.27-7.06-0.07-14.14-0.07-21.21C315.61,243,316.03,243.13,316.45,243.26z"/>
		<path class="st11" d="M682.24,192.58c-0.67,13.98-9.13,27-14.21,41.82c-10.23-4.42-19.98-8.63-30.34-13.11
			c3.98-14.74,5.39-30.45,14.94-42.73C662.14,183.07,671.43,187.47,682.24,192.58z"/>
		<path class="st11" d="M683.15,189.06c-6.03-3.79-10.39-6.73-14.95-9.33c-2.74-1.56-5.87-2.41-8.64-3.94
			c-1.88-1.04-4.66-2.49-4.91-4.09c-1.58-10.06-3.09-20.2-3.56-30.36c-0.3-6.39,2.52-12.45,8.26-15.93c2.31-1.4,5.79-0.86,8.74-1.2
			c0.1,1.89,0.14,3.79,0.3,5.68c0.09,1.08,0.01,2.46,0.63,3.16c4.02,4.52,8.93,8.44,12.14,13.45c2.99,4.67,5.87,10.44,5.9,15.74
			C687.11,170.67,684.74,179.11,683.15,189.06z"/>
		<path class="st11" d="M670.99,130c0.11-0.18,1.01-1.73,2.28-3.92c3.17,5.34,5.84,9.82,8.51,14.31c-0.4,0.29-0.8,0.59-1.21,0.88
			C677.53,137.7,674.49,134.12,670.99,130z"/>
		<path class="st11" d="M642.92,225.09c5.31,3.24,10.62,6.49,15.93,9.73c-0.36,0.59-0.72,1.18-1.08,1.77
			c-5.22-3.34-10.44-6.67-15.66-10.01C642.38,226.08,642.65,225.58,642.92,225.09z"/>
		<path class="st11" d="M565.54,386.76c4.79,3.58,9.04,6.75,13.28,9.92c0.4-0.48,0.8-0.97,1.2-1.45
			c-4.12-3.38-8.23-6.77-12.84-10.55c1.19-1.53,2.34-3.94,4.24-5.26c4.91-3.38,10.53-4.28,14.18-1.38
			c4.13,3.29,2.73,7.65,1.34,11.86c-3.48,10.56-11.38,16.68-19.86,15.3c-6.43-1.05-8.46-4.08-6.27-10.2
			C561.76,392.35,563.63,390.02,565.54,386.76z"/>
		<path class="st11" d="M536.75,410.77c1.05-0.39,2.37-0.5,3.1-1.22c5.06-4.93,9.28-3.23,13.18,1.47c3.64,4.38,7.35,8.7,10.77,13.24
			c0.86,1.14,0.74,3.03,1.12,4.79c0.54-0.05,1.52-0.15,2.82-0.28c-0.24,0.96-0.2,1.75-0.53,1.96c-6.56,4.23-13.2,8.33-19.73,12.61
			c-2.05,1.34-3.81,3.14-6.26,4.06c0.68-5.78,1.49-11.03,9.22-9.56c2.39,0.46,5.14-0.95,8.21-1.61c-0.81-1.61-1.2-2.97-2.03-3.93
			c-3.15-3.62-4.69-7.3-1.64-11.81c0.45-0.66,0.34-2.43-0.18-2.84c-0.63-0.49-2.03-0.3-2.99-0.02c-6.59,1.96-13.04,2.59-19.12-1.44
			c1.4-1.85,2.82-3.75,4.25-5.65C536.96,410.56,536.75,410.77,536.75,410.77z"/>
		<path class="st11" d="M526.27,431.63c6.59-1.02,10.02-4.06,8.29-12.47c6.38,6.35,11.67,4.1,17.54,1.82
			c-1.53,2.73-3.06,5.45-4.78,8.51c1.55,1.18,3.1,2.36,6.37,4.84c-8.01-0.64-14.52-0.99-14.97,8.6
			C536.55,436.55,533.24,432.28,526.27,431.63z"/>
		<path class="st11" d="M516.37,427.81c4.61-3.65,8.6-6.82,13.46-10.67c0,3.73,0,6.17,0,8.96
			C526.04,425.77,522.77,433.53,516.37,427.81z"/>
		<path class="st11" d="M523.33,434.56c10.86-1.11,10.89,9.95,16.69,14.54c-0.44,0.51-0.88,1.01-1.32,1.52
			c-5.44-4.83-10.89-9.66-16.33-14.5C522.69,435.6,523.01,435.08,523.33,434.56z"/>
		<path class="st11" d="M510.84,355.02c-0.09,8.49-9.01,17.88-16.91,17.78c-8.54-0.11-18.72-10.19-18.45-18.28
			c0.29-8.46,9.57-16.37,18.97-16.15C503.01,338.57,510.93,346.61,510.84,355.02z M483.64,344.52c1.08,8.97,11.42,21.06,17.47,21.72
			C498.79,356.63,493.11,349.87,483.64,344.52z"/>
		<path class="st11" d="M518.38,319.3c1.81-4.13,3.15-6.93,4.26-9.81c1.11-2.88,2-5.85,3.23-9.48c8.47,2.19,16.12,6.18,21.75,12.52
			c2.13,2.39,1.96,8.18,0.82,11.77c-1.44,4.53-6.29,3.11-9.71,2.09C532.07,324.39,525.58,321.84,518.38,319.3z"/>
		<path class="st11" d="M529.64,368.07c-7.89-0.02-14.24-6.41-14.07-14.16c0.13-5.88,7.18-12.88,13-12.91
			c7.92-0.04,16.64,7.04,16.64,13.51C545.23,361.42,537.56,368.09,529.64,368.07z M534.18,364.3c-1.78-7.8-3.19-13.98-4.65-20.39
			C525.08,346.46,527.47,358.13,534.18,364.3z"/>
		<path class="st11" d="M523.92,298.78c-1.88,5.59-3.23,10.22-5.01,14.66c-1.27,3.17-3.35,5.04-7.06,2.52
			c-5.3-3.6-10.72-7.03-16.18-10.4c-4.05-2.5-3.9-6-2.19-9.54c1.86-3.87,5.15-6.26,9.56-4.85
			C509.87,293.35,516.53,296.05,523.92,298.78z"/>
		<path class="st11" d="M512.56,387.69c8.02-3.53,15.34-7.04,22.88-9.99c5.33-2.08,9.68-0.12,11.8,4.46
			c2.76,5.95,1.94,11.2-2.64,14.15c-6.64,4.28-13.48,8.27-21.2,12.97C519.66,401.82,516.22,394.97,512.56,387.69z"/>
		<path class="st11" d="M509.17,388.41c4.14,7.44,7.78,13.98,11.82,21.25c-6.89,4.86-13.78,10.3-22.67,11.59
			c-4.67,0.68-8.84-0.93-11.1-5.89c-2.21-4.83-1.2-9.23,2.42-12.29C496.04,397.65,503.05,392.94,509.17,388.41z"/>
		<path class="st11" d="M691.08,391.86c-1.74,0-3.47,0-5.77,0c-1.78-17.2,9.15-28.94,16.3-43.19c5.42,17.17,2.57,29.17-9.05,41.1
			c-0.66,0.67-1.12,1.53-1.68,2.3C690.88,392.07,691.08,391.86,691.08,391.86z"/>
		<path class="st11" d="M470.57,337.22c-10.8,0.01-18.9-8.04-19.02-18.92c-0.08-6.9,5.99-13.11,12.85-13.15
			c9.71-0.05,20.26,9.5,20.34,18.43C484.81,331.34,478.72,337.21,470.57,337.22z M456.2,325.21c0.38,0.61,0.75,1.22,1.13,1.82
			c6.47-3.93,12.94-7.86,19.41-11.79c-0.37-0.6-0.74-1.2-1.11-1.8C467.35,314.48,461.97,320.16,456.2,325.21z"/>
		<path class="st11" d="M917.64,170.92c-2.98,1.09-5.33-0.25-6.63-3.75c-1.6-4.32,1.32-9.16,7.7-13.4
			C918.38,159.08,918.02,164.77,917.64,170.92z"/>
		<path class="st11" d="M465.14,378.15c-10.32,3.81-19.95,7.37-29.35,10.84c-3.33-7.67-6.79-15.22-9.76-22.96
			c-0.37-0.96,1.5-3.62,2.9-4.27c7.88-3.63,15.94-6.88,24.74-10.6C457.39,359.93,461.09,368.63,465.14,378.15z M449.69,381.37
			c0.57-5.3,1.63-10.92,1.58-16.54c-0.02-2.39-1.96-6.25-3.75-6.74c-2.04-0.55-4.91,1.9-7.4,3.09c-1.43,0.68-2.8,1.99-4.25,2.08
			c-4.43,0.28-6.75,3.39-4.16,7.01c2.11,2.96,5.43,5.23,8.59,7.2C442.95,379.14,446.14,379.94,449.69,381.37z"/>
		<path class="st11" d="M94.51,360.47c-0.47,3.39-0.47,6.94-1.6,10.1c-0.54,1.52-3.12,2.98-4.92,3.18
			c-1.56,0.18-4.05-1.07-4.76-2.41c-0.51-0.96,0.89-3.44,2.04-4.68c2.31-2.5,5.04-4.63,7.59-6.91
			C93.41,359.98,93.96,360.22,94.51,360.47z"/>
		<path class="st11" d="M586.76,349.37c0.03,5.42-5.7,11.14-11.3,11.3c-7.09,0.19-15.97-5.99-16.02-11.14
			c-0.06-6.34,7.95-13.24,15.44-13.31C580.45,336.17,586.73,343.12,586.76,349.37z"/>
		<path d="M483.64,344.52c9.47,5.35,15.15,12.1,17.47,21.72C495.07,365.58,484.72,353.49,483.64,344.52z"/>
		<path d="M534.18,364.3c-6.71-6.17-9.1-17.84-4.65-20.39C530.99,350.32,532.4,356.51,534.18,364.3z"/>
		<path d="M456.2,325.21c5.77-5.05,11.16-10.73,19.43-11.78c0.37,0.6,0.74,1.2,1.11,1.8c-6.47,3.93-12.94,7.86-19.41,11.79
			C456.95,326.43,456.57,325.82,456.2,325.21z"/>
		<path d="M449.69,381.37c-3.55-1.42-6.74-2.23-9.4-3.89c-3.16-1.98-6.48-4.25-8.59-7.2c-2.59-3.62-0.27-6.73,4.16-7.01
			c1.45-0.09,2.82-1.39,4.25-2.08c2.49-1.19,5.36-3.64,7.4-3.09c1.8,0.48,3.73,4.35,3.75,6.74
			C451.32,370.44,450.27,376.07,449.69,381.37z M447.95,377.3c0.41-3.12,1.28-6.21,1.07-9.23c-0.19-2.78-1.54-5.49-2.38-8.23
			c-2.03,2.47-4.04,4.95-6.09,7.41c-0.22,0.26-0.59,0.4-0.87,0.57c-1.8-0.79-3.58-1.58-5.67-2.51
			C433.91,372.67,435.95,374.34,447.95,377.3z"/>
		<path class="st11" d="M447.95,377.3c-12-2.96-14.05-4.63-13.94-11.98c2.09,0.92,3.87,1.71,5.67,2.51
			c0.28-0.18,0.65-0.31,0.87-0.57c2.04-2.46,4.06-4.94,6.09-7.41c0.84,2.74,2.19,5.44,2.38,8.23
			C449.23,371.09,448.36,374.19,447.95,377.3z"/>
	</g>
</g>
</svg>
