<?xml version="1.0" encoding="utf-8"?>
<!-- Generator: Adobe Illustrator 23.0.1, SVG Export Plug-In . SVG Version: 6.00 Build 0)  -->
<svg version="1.1" id="Capa_1" xmlns="http://www.w3.org/2000/svg" xmlns:xlink="http://www.w3.org/1999/xlink" x="0px" y="0px"
	 viewBox="0 0 842 493" style="enable-background:new 0 0 842 493;" xml:space="preserve">
<style type="text/css">
	.st0{fill:#FFFFFF;}
</style>
<path d="M509.9,92.3c1.3,0.7,2.6,1.5,4,2.2c1.3,0.7,2.7,1.4,4.1,2.1c0.2,0.1,0.4,0.1,0.5,0.2c1.9,3.1,5.7,2.5,8.3,4.2
	c2.6,1.7,5.6,2.7,8.5,4c2,0.8,4,1.4,5.9,2.3c2.2,1.1,4.1,2.6,6.3,3.6c3.1,1.4,5.5,4.2,9.1,4.7c0.2,0,0.4,0.2,0.6,0.3
	c2.2,2.4,5.2,3.3,8,4.6c1.8,0.8,3.9,0.9,5.5,1.9c2.2,1.3,4.1,3.1,6.1,4.7c0.2,0.2,0.3,0.5,0.5,0.6c1.9,1.5,1.9,1.6,0.7,3.5
	c-1.3,1.9-2.7,3.8-3.9,5.7c-0.6,1-0.9,2.1-1.5,3.1c-1.3,2.3-2.6,4.5-4,6.7c-1.7,2.9-3.4,5.8-5.3,8.6c-1.3,2.1-2.9,4-4.2,6.1
	c-0.7,1.1-1.1,2.5-1.8,3.6c-1.2,2-2.7,3.8-3.7,5.9c-1.2,2.5-2,5.2-3.1,7.7c-1,2.3-2.2,4.6-3,6.9c-0.6,1.7-2,2.4-3,3.6
	c-0.3,0.4-1.3,0.5-1.8,0.3c-2.8-1.1-5.5-2.4-8.3-3.6c-0.4-0.2-0.8-0.4-1.2-0.5c-3.9-0.8-7.3-2.9-10.7-4.7c-2.1-1.1-4.3-1.9-6.3-3
	c-1.1-0.6-2-1.5-3-2.1c-1.8-1-3.8-1.7-5.4-2.9c-3.1-2.3-6.5-3.7-9.9-5.4c-3.1-1.5-5.9-3.5-8.9-5.3c-0.6-0.4-1.3-0.6-1.9-1
	c-1.8-1.1-3.7-2-5.3-3.3c-1.9-1.5-2.3-4.8-1.2-7.3c2.3-5,4.7-10,6.9-15.1c3.5-7.9,7.1-15.8,10.5-23.8c1.5-3.4,2.4-7.1,3.9-10.6
	c1.5-3.3,3.3-6.5,6.5-8.5C508.7,92.5,509.2,92.4,509.9,92.3z M509.5,98.9c-0.2,0.3-0.4,0.5-0.5,0.6c-2.3,3.1-3.8,6.6-5.1,10.1
	c-0.8,2.2-2.2,4.2-3.1,6.3c-1.2,2.6-2.1,5.2-3.2,7.8c-0.8,1.7-1.9,3.4-2.4,5.2c-1.2,4.2-3.2,8-4.9,12c-0.9,2.1-1.7,4.3-2.5,6.4
	c-0.7,1.9-1.4,3.9-2.2,5.9c-0.5,1.2-0.7,2.1,0.6,3c3.2,2.1,6.3,4.5,10.1,5.5c0.3,0.1,0.6,0.2,0.9,0.4c3,1.7,6,3.6,9.1,5
	c5.4,2.5,11,4.6,16.4,6.9c3.8,1.6,7.6,3.1,11.3,4.8c2.1,1,4.1,2.2,6.1,3.4c1.8,1,2.5,0.8,3.2-1.1c0.3-0.7,0.4-1.5,0.8-2.2
	c1.2-2,2.7-3.9,3.8-6c2.4-4.6,4.7-9.2,7-13.8c1.5-3,2.6-6.1,4.3-9c2.8-5,6-9.9,8.9-14.9c1.2-2,2.1-4.1,3.2-6.3
	c-3.5-1.9-6.7-3.7-10-5.4c-1.9-1-4-1.6-5.8-2.7c-3-1.6-5.8-3.6-8.8-5.2c-3.9-2.1-7.9-3.9-11.8-5.8c-6-2.8-12-5.6-18-8.3
	C514.4,100.3,511.9,99.7,509.5,98.9z"/>
<path d="M544.4,198.1c3.6-0.7,6.4,0.4,8.6,3.3c0.3,0.4,0.8,0.8,1.2,1.1c3.4,2.3,5,5.8,6.3,9.4c0.7,2.1,1.8,4.1,2.1,6.3
	c0.7,4,1,8.1,1.3,12.1c0.2,2.1,0,4.2-0.1,6.3c-0.3,5.3-0.6,10.6-1,15.9c-0.2,3.3-0.4,6.5-1.1,9.7c-1.5,7.4-2.5,14.9-5.6,21.9
	c-1.5,3.4-3.8,6-7.6,7.4c-2.6,0.9-5.2,0.6-7.7,0.9c-3.3,0.5-6.5-0.3-9.3-1.6c-3.6-1.8-7.3-3.7-9.1-7.8c-2.6-6.1-4.3-12.3-3.8-19.1
	c0.4-5.7,0-11.4,0.2-17.1c0.1-4.4,0.4-8.8,0.6-13.3c0-1.1,0.1-2.1,0-3.2c-0.3-4.5,0.5-8.9,1.3-13.3c0.5-2.8,0.8-5.6,2.3-8
	c2-3.3,4.4-6.1,8.3-7.3c2-0.6,3.8-1.6,5.8-2.3c2.3-0.7,4.6-1.3,6.9-1.9C544.3,197.8,544.3,198,544.4,198.1z M523.2,238.8
	c-0.1,2-0.3,4-0.3,6c0,0.5,0.5,1.3,0.9,1.4c0.9,0.3,1.8,0.3,2.8,0.3c3.8-0.2,7.7-0.4,11.5-0.6c3.1-0.1,6.1,1.2,9.4,0.3
	c3.1-0.9,6.4-0.8,9.7-1.2c1.2-0.1,1.9-0.7,1.9-2c0.1-4.2,0.3-8.4,0.4-12.6c0.2-7.3-1.5-14.2-4.8-20.6c-1.8-3.4-4.9-5.6-8.8-5.9
	c-3-0.2-6.1-0.1-9.1,0.2c-3,0.3-5.8,1.8-7.8,4.1c-2.4,2.8-3.7,6.1-4.4,9.8C523.1,224.9,523.2,231.8,523.2,238.8z M558.3,250.8
	c0-1.3-0.2-1.7-1.7-1.6c-4.7,0.4-9.5,0.5-14.3,0.6c-2.9,0.1-5.7-0.2-8.6-0.2c-3.3-0.1-6.5-0.1-9.8,0c-0.4,0-1.1,0.9-1.1,1.3
	c-0.2,5-0.5,10.1-0.4,15.1c0.1,6,1.1,11.8,4.8,16.8c1.1,1.5,2.3,3.3,3.8,4c4.7,2.3,9.6,3.5,14.7,0.9c0.8-0.4,1.8-0.6,2.5-1.2
	c1.6-1.2,3.3-2.3,4.4-3.9c0.9-1.2,1.2-3,1.5-4.5c0.8-4.7,1.6-9.4,2.3-14.1C557.1,259.7,557.7,255.2,558.3,250.8z"/>
<path d="M339.9,190.4c0.2,0,0.8,0.1,1.4,0.1c5.7-0.8,9.8,4.6,11.3,8.9c0.4,1.2,1,2.3,1.5,3.5c1.3,3.6-0.3,8.1-3.4,10.4
	c-1.9,1.4-3.6,3-5.5,4.6c-0.4,0.3-0.8,0.7-1.2,0.9c-5.1,2.4-9.7,5.7-14.4,8.7c-1.9,1.2-4,2-6.1,3c-6.3,3.3-12.7,6.5-19,9.9
	c-6.3,3.3-12.7,6.2-19.3,8.6c-3,1.1-6,2.6-9,3.7c-1.6,0.6-3.5,0.5-5.2,0.8c-3.4,0.5-6.7,1.1-10.1,1.6c-0.9,0.1-2-0.2-2.9-0.4
	c-2.6-0.7-5.2-1.5-7.8-2.3c-0.6-0.2-1.3-0.5-1.8-0.9c-1.5-1.4-3.1-2.9-4.5-4.4c-1.1-1.3-1.2-2.9-0.8-4.4c0.9-3.6,2.5-6.8,5.5-9.2
	c1.8-1.4,3.2-3.3,5.1-4.4c3.2-2,6.7-3.6,10-5.3c3.6-1.8,7.2-3.5,10.8-5.3c1.4-0.7,2.7-1.7,4.1-2.4c1.4-0.7,2.9-1.3,4.3-2
	c2.7-1.4,5.3-2.8,7.9-4.1c2.1-1.1,4.2-2.3,6.3-3.3c3.7-1.8,7.4-3.6,11.1-5.3c2-1,4.1-1.9,6.2-2.8c3-1.3,6-2.5,8.9-3.9
	C328.2,192.2,335.1,190.3,339.9,190.4z M290.9,213.4c1.3,2.5,2.4,4.9,3.6,7.1c2.5,4.8,5.3,9.5,7.6,14.3c1,2,2,1.5,3.4,1
	c0.3-0.1,0.6-0.3,0.9-0.5c3.4-1.9,6.7-3.9,10.2-5.5c4.2-2,8.5-3.7,12.3-6.5c1.3-1,2.5-2,4-2.7c6-2.7,11.4-6.3,16.1-10.9
	c2.2-2.2,2.5-5.4,0.9-8c-2-3.3-4.9-5.3-8.7-5.5c-3.4-0.2-6.9-0.5-10.2,0.1c-3.8,0.7-7.4,2.4-11.1,3.8c-3.9,1.5-7.8,3-11.7,4.8
	c-3.4,1.5-6.6,3.4-10,5.1C295.9,211.2,293.5,212.2,290.9,213.4z M300.7,238.4c-2.1-3.2-3.9-5.9-5.6-8.6c-2.1-3.5-4.2-7-6.2-10.6
	c-0.4-0.8-0.4-1.8-0.6-2.7c-0.1-0.4-0.2-0.8-0.2-1.2c-0.4,0.1-0.9,0.1-1.2,0.3c-1.5,0.9-2.8,1.9-4.3,2.6c-2.8,1.5-5.7,2.9-8.6,4.3
	c-1.4,0.7-3,1.2-4.3,2c-2.4,1.4-4.7,3-7.2,4.4c-1.5,0.8-3.2,1.3-4.7,2.1c-1.3,0.7-2.6,1.4-3.6,2.4c-2,2-3.8,4.1-5.7,6.2
	c-2.7,2.8-2.3,6.1,1.1,8.1c0.8,0.4,1.6,0.7,2.4,1c0.6,0.3,1.2,0.5,1.9,0.7c3,1,5.8,2.6,9.1,1.8c4.5-1,9.3-1.4,13.6-2.8
	c6.4-2.1,12.6-4.9,18.9-7.5C297.1,240.3,298.7,239.4,300.7,238.4z"/>
<path d="M368.1,44.4c7.5-0.2,14,2.3,18.8,8.2c1.3,1.6,2,3.8,2.8,5.8c1.4,3.5,2.6,7.2,3.9,10.7c0.8,2.2,0.6,4.2,0.1,6.4
	c-1,4.3-2.9,8.1-5.2,11.8c-1.1,1.9-2.8,3.6-4.5,5c-3.6,3.1-8,4.8-12.3,6.7c-3.6,1.5-7.4,2-11.1,2.4c-1.1,0.1-2.3-0.2-3.4-0.4
	c-5.3-1.3-10-3.6-13.6-7.7c-4.3-4.8-7-10.3-8.1-16.7c-0.9-4.8,0.2-9.3,2.2-13.5c0.9-1.8,2.6-3.2,4-4.8c2.7-3.1,6-5.5,9.6-7.5
	c2.7-1.5,5.4-3.1,8.2-4.2c2.8-1.1,5.8-1.7,8.7-2.5C368.1,44.1,368.1,44.3,368.1,44.4z M362,97.4c4.1-0.5,8-1.1,11.3-3.1
	c4.1-2.4,7.8-5.4,11.1-8.9c2.9-3,4.7-6.6,4.8-10.7c0.2-4.5-0.5-8.9-2.1-13.2c-0.7-1.9-1.5-4-2.8-5.5c-1.9-2.2-4.2-3.9-7.1-4.7
	c-1.6-0.4-3.1-1.1-4.7-1.7c-2.1-0.8-2.5-0.5-2.4,1.8c0.4,5.1-0.3,10.1-1.4,15.1c-1.4,6.5-2.8,12.9-4.2,19.4c-0.7,3-1.4,6-2.1,9
	C362.3,95.6,362.2,96.3,362,97.4z M357.4,96.7c-0.3-1.1-0.9-1.9-0.8-2.7c0.5-6.8,0.8-13.7,2-20.5c1.3-7.4,3.4-14.6,5.1-21.9
	c0.2-0.9,0.7-1.7,1.1-2.8c-0.9,0.2-1.5,0.2-2.1,0.4c-4.9,1.9-9.8,3.7-13.7,7.5c-2.9,2.8-5.6,5.6-7.4,9.4c-2.9,6-2.1,11.8-0.1,17.7
	c1.3,3.8,4,6.5,6.9,9.2C350.9,95.2,353.9,96.3,357.4,96.7z M363,73.4c0.1,0,0.2,0,0.3,0c0.1-0.2,0.2-0.3,0.3-0.5
	c1-3.8,2-7.5,2.8-11.3c0.4-1.9,0.5-3.9,0.7-5.9c0-0.4-0.4-0.9-0.5-1.3c-0.2,0-0.4,0.1-0.7,0.1c-0.3,2-0.5,4-0.8,6
	c-0.3,1.5-0.6,3-0.9,4.5c-0.4,2.2-0.8,4.4-1.1,6.6C362.9,72.1,363,72.7,363,73.4z"/>
<path d="M432.2,213.5c2.3-1.5,3.3,0.6,4.7,1.4c2.4,1.4,4.7,2.9,7,4.4c1.9,1.2,3.7,2.5,5.6,3.7c0.3,0.2,0.6,0.5,0.9,0.7
	c6.7,4.2,13.4,8.5,20.2,12.6c2.8,1.8,5.9,3.3,8.8,4.9c3.8,2.1,7.5,4.2,11.2,6.4c3,1.7,2.5,3.4,1.3,5.7c-2.4,4.5-5.1,8.9-7.7,13.3
	c-1.4,2.4-2.9,4.8-4.3,7.3c-1.7,3-3.4,6.1-5.2,9.1c-0.6,1-1.5,1.7-2.1,2.7c-2.5,3.7-5,7.4-7.5,11.2c-1.1,1.7-1.9,3.5-3,5.2
	c-0.8,1.3-1.7,2.6-2.8,3.7s-3.6,0.8-5.1-0.4c-3.5-2.6-7.3-4.7-11.4-6.1c-0.5-0.2-1-0.3-1.4-0.6c-1.9-1.1-3.8-2.2-5.6-3.3
	c-5-2.9-10.2-5.3-14.9-8.8c-1.8-1.3-4-2.1-5.9-3.2c-2.2-1.3-4.2-2.8-6.3-4.2c-0.4-0.2-0.7-0.5-1.1-0.7c-2.5-1.4-5-2.7-7.6-4
	c-0.8-0.4-1.6-0.9-2.5-1.3c-1.4-0.6-2-1.6-1.3-3c1.3-2.6,2.7-5.2,4-7.8c0.8-1.5,1.3-3,2.2-4.5c1.4-2.4,2.9-4.7,4.3-7
	c1.9-3.1,3.8-6.1,5.7-9.1c3.3-5.1,6.6-10.1,9.8-15.1c2-3.2,3.8-6.4,5.8-9.6c0.8-1.3,1.8-2.5,2.8-3.6c0.3-0.3,0.8-0.4,1.2-0.6
	C432.2,213.1,432.2,213.3,432.2,213.5z M400.7,270c0.5,0.6,0.9,1.2,1.4,1.5c3.3,2.1,6.7,4.1,10,6.1c1.3,0.8,2.8,1.4,4,2.2
	c4.1,2.6,8.1,5.4,12.3,7.8c4,2.3,8.3,4.3,12.5,6.5c3.3,1.7,6.7,3.4,10,5.2c1.6,0.8,3.2,1.6,4.6,2.7c1.6,1.2,2.3,1,3.3-0.8
	c1.3-2.6,2.6-5.3,4.1-7.8c2.4-4,5.1-7.9,7.6-11.8c2.7-4.3,5.5-8.7,8.1-13.1c3.2-5.3,6.2-10.7,9.3-16c0.6-0.9,0.5-1.7-0.5-2.3
	s-1.9-1.2-2.8-1.7c-4.2-2.4-8.5-4.9-12.7-7.3c-2.3-1.4-4.7-2.6-7-4.1c-3.8-2.5-7.5-5.3-11.4-7.8c-3.7-2.3-7.6-4.4-11.4-6.6
	c-2.4-1.4-4.6-3-7-4.4c-0.4-0.3-1.5-0.4-1.7-0.1c-2,2.3-3.1,5.2-5.4,7.4c-1.6,1.6-2.5,3.9-3.6,5.9c-1,1.8-1.8,3.6-2.9,5.3
	c-2.2,3.3-4.5,6.5-6.8,9.7c-1.8,2.5-3.7,5-5.4,7.6c-2.5,4-4.9,8.1-7.2,12.2C401.6,267.3,401.3,268.6,400.7,270z"/>
<path d="M302,277.4c2.9-0.5,5.7-1.3,8-3.1c2.5-2,4.5-1.9,5.9,0.9c1.2,2.4,2.1,5,3,7.5c1.7,4.7,3.4,9.4,4.9,14.1
	c0.9,2.7,1.3,5.5,2.2,8.1c2.1,6.1,4.5,12.2,6.7,18.3c0.6,1.8,1,3.6,1.6,5.4c0.3,0.9,0.9,1.6,1.2,2.5c0.2,0.7,0.4,1.7,0.1,2.3
	c-0.2,0.4-1.3,0.3-2,0.5c-1.1,0.2-2.3,0.4-3.3,0.7c-1.7,0.6-3.4,1.3-5,1.9c-5.2,1.9-10.5,3.7-15.7,5.7c-3.5,1.4-6.9,3-10.4,4.5
	c-3.4,1.4-6.8,2.7-10.1,4.1c-1.5,0.6-2.9,1.5-4.4,2.2c-1.7,0.9-3.5,1.8-5.2,2.6c-1,0.5-1.9,1.2-3,1.5c-4.5,0.9-5.4-0.9-6.7-3.7
	c-1.1-2.5-2.1-5.2-3.1-7.8c-0.9-2.5-1.8-5.1-2.7-7.6c-1.7-4.5-3.5-9-5.1-13.5c-1.7-4.7-3.3-9.5-4.9-14.3c-0.9-2.5-1.7-4.9-2.6-7.3
	c-0.9-2.2,0.7-3.3,1.8-4.6c3.1-3.5,7.2-5.2,11.4-6.8c8.2-3,16.3-6.2,24.4-9.4c3.4-1.3,6.7-2.9,10.1-4.2
	C300,277.7,301.1,277.6,302,277.4z M255.6,302.2c0.8,2.1,1.4,3.8,2,5.6c0.5,1.4,1.2,2.8,1.6,4.3c0.6,2,0.8,4,1.5,5.9
	c1.4,4,3,7.9,4.5,11.8c1.2,3.1,2.2,6.3,3.4,9.4c0.5,1.4,1.1,2.6,1.6,4c0.6,1.6,1.3,3.3,1.6,5c0.5,3.2,1.9,4.3,5,3.4
	c2.3-0.6,4.6-1.2,6.8-2c4.5-1.6,8.9-3.4,13.3-5.6c5.5-2.7,11.3-4.6,17.1-6.7c5.3-2,10.7-3.9,16-5.9c1.2-0.4,1.5-1.1,1-2.4
	c-1.6-4.1-3.1-8.2-4.4-12.3c-2.2-6.7-4.3-13.5-6.4-20.2c-0.7-2.3-1.5-4.5-2.3-6.7c-1.4-3.8-2.7-7.6-4.1-11.4
	c-0.3-0.8-0.8-1.1-1.7-0.7c-2.3,1-4.5,1.9-6.8,2.9c-1,0.4-2,0.6-2.9,1.1c-2.5,1.1-4.9,2.4-7.5,3.5c-3.8,1.6-7.6,3-11.4,4.5
	c-4.9,2-9.8,3.9-14.6,6c-3.8,1.6-7.9,2.7-11.2,5.3C256.8,301.2,256.2,301.7,255.6,302.2z"/>
<path d="M472,371.4c-3.4-0.2-5.9-0.5-8.5-0.5c-2.8,0-5.6,0-8.3-0.8c-0.2,0-0.3-0.1-0.5,0c-4.5,0.6-9-0.6-13.4-1
	c-2-0.1-3.9-0.4-5.7-1.3c-1.2-0.6-2.7-0.6-4-0.6c-3.2-0.1-5.6-1.8-8.2-3.5c-3.3-2.4-3.8-5.9-4.5-9.4c-0.5-2.8-0.4-5.5,0.6-8.3
	c1-2.7,1.3-5.6,2.3-8.3c1.9-5.3,6.2-8.1,11.3-9.2c4.4-0.9,8.8-1.6,13.5-1.2c4.2,0.3,8.4-0.3,12.6-0.3c3.4,0,6.8,0.3,10.3,0.3
	c3.7,0,7.4,0.5,10.9,1.7c3.2,1,6.8,1.6,8.7,4.9c0.8,1.3,1.4,2.7,1.9,4.2c1.6,4.5,1.3,9.3,1.3,13.9c0,4-1,8.1-2.8,11.8
	c-0.5,1-1.9,1.6-2.8,2.4c-0.8,0.7-1.7,1.4-2.6,2c-0.6,0.4-1.3,0.9-2,1.1C478.5,370.1,474.9,370.8,472,371.4z M453.6,366.7
	c0.5,0.1,0.9,0.4,1.3,0.4c6.5,0.5,13.1,1,19.7,0.2c3.4-0.4,6.9-0.7,9.1-4.1c2.6-4,4.9-8,4.8-12.9c-0.1-2.8-0.4-5.5-0.2-8.3
	c0.3-2.8-1.4-4.5-3.1-5.8c-2.7-2-6-2.4-9.3-2.8c-3-0.4-5.9-0.6-8.9-0.9c-3.2-0.4-6.4-0.8-9.7-1.2c-0.7,2.4-1.5,4.4-1.7,6.5
	c-0.4,3.9-0.5,7.9-0.6,11.9c-0.1,2.8,0.2,5.7,0,8.5C454.7,360.9,454.1,363.7,453.6,366.7z M452.2,331.9c-2.1,0-4.4,0.3-6.8,0.1
	c-4.1-0.4-8.2-0.5-12,1.3c-1.7,0.8-3.4,1.8-4.5,3.1c-1.4,1.8-2.5,4.1-3.2,6.3c-1.4,4.2-1.9,8.6-1.8,13c0,2.5,0.4,5.2,3.4,6.3
	c1,0.4,1.9,0.9,2.9,1.1c5.1,1.1,10.3,2.1,15.4,3.2c1.3,0.3,2.7,0.4,4.1,0.6c0.1-0.4,0.1-0.6,0.1-0.8c0.2-3.6,0.4-7.3,0.8-10.9
	c0.2-2.3,0.8-4.6,1-6.9C451.9,342.8,452,337.4,452.2,331.9z"/>
<path d="M563.2,310.5c4.8-0.1,9,1.5,12.7,4.1c1.7,1.2,2.9,3.2,4.2,5c1,1.3,1.9,2.6,2.8,4c0.4,0.6,0.8,1.4,0.9,2.1
	c0.4,2.4,0.7,4.9,1,7.3c0,0.2,0.2,0.4,0.2,0.6c-0.4,3.7-0.9,7.4-3,10.5c-2.4,3.6-5.3,6.9-8.9,9.4c-1.7,1.2-3.7,2.2-5.7,2.7
	c-2.7,0.7-5.5,1-8.3,1c-3.9,0-8-0.1-11.2-2.7c-2.2-1.8-4.2-4-5.6-6.4c-1.5-2.3-2.3-5.1-3.3-7.7c-1-2.7-0.2-5.5,0.2-8.2
	c0.7-4.2,2.8-7.9,4.8-11.5c0.6-1,1.6-1.8,2.5-2.6c3.1-2.9,6.3-5.6,10.5-6.7C558.9,311,561.1,310.8,563.2,310.5z M562.2,350.9
	c0.5,0.2,0.7,0.4,0.8,0.4c3.6-0.4,7.2-1.1,10.2-3.4c2.9-2.2,5.2-4.9,6.3-8.5c0.9-3,0.7-5.9,0.2-8.9c-0.5-2.9-1-5.8-2.6-8.3
	c-2.1-3.3-5.3-5.3-8.8-6.6c-1.7-0.6-3.9-0.4-5.8-0.3c-0.9,0-1.7,0.8-1.4,2c0.7,3.1,1.6,6.1,2,9.2c0.5,3.3,1.1,6.8,0.9,10.1
	C563.6,341.3,564.7,346.3,562.2,350.9z M556.2,350.1c0-0.5,0-0.9,0-1.2c-0.4-3.8-0.7-7.7-1.2-11.5c-0.7-5.2-0.8-10.5-0.3-15.7
	c0.1-1,0-1.9,0-3.1c-2.3,1.4-4.5,2.4-6,4.7c-1.6,2.4-4.3,4.2-5,7.3c-0.2,0.7-0.6,1.4-0.7,2.2c-0.4,2.8-0.9,5.9,0.7,8.3
	c1.4,2.1,2.4,4.8,5.1,5.9c0.4,0.2,0.6,0.6,1,0.9C551.5,349.6,553.7,349.9,556.2,350.1z M559.2,341c0.2,0,0.4,0,0.5,0
	c0.8-4,1.2-8-0.8-11.9C559.1,333.1,559.2,337,559.2,341z"/>
<path d="M353.5,271.9c5.8,0.3,10.5,1.9,14.5,5.6c1,0.9,2.1,1.8,3.1,2.8c3.8,4,4.4,9,4.3,14.2c0,0.9-0.3,1.9-0.2,2.8
	c0.1,2.5-1.1,4.7-2.1,6.9c-0.4,0.8-0.5,1.7-0.9,2.5c-0.5,1-1.1,2-1.8,2.9c-1.2,1.5-2.8,2.8-3.7,4.4c-1.1,1.9-2.9,2.6-4.7,3.5
	c-3.4,1.8-7.1,2.8-11,2.9c-3.5,0-7.1-0.8-10-2.9c-3.3-2.4-6.5-5-9.3-7.9c-4.9-5.1-6.3-11.2-4.2-18c0.7-2.4,1.5-4.7,2.5-7
	c1-2.3,2.7-4,4.7-5.4c1-0.7,1.8-1.7,2.8-2.3c2-1.2,4-2.7,6.2-3.3C347,272.5,350.5,272.3,353.5,271.9z M361.1,311.7
	c2.4-0.7,3.9-2.3,5.2-3.9c2.9-3.7,3.8-8.1,4-12.7c0.2-4.1-1.2-7.7-2.7-11.3c-1.5-3.4-4.2-5.5-7.6-7c-3.2-1.4-6.5-1-9.8-0.9
	c-1.8,0.1-3.7,0.6-5.5,1c-0.4,0.1-0.9,1.1-0.7,1.5c0.5,1.1,1.2,2.2,2,3.1c1.6,2,3.6,3.8,5,5.9c2.4,3.8,4.5,7.8,6.7,11.7
	c1.9,3.3,2.8,6.9,3,10.6C360.8,310.4,361,311,361.1,311.7z M330.7,297.4c0.2,0,0.4,0,0.5,0.1c-0.2,3.5,0.9,6.5,3.2,9
	c1.1,1.2,2.2,2.3,3.4,3.4c2.5,2.3,5.3,3.8,8.5,5c3.5,1.3,6.9,0.2,10.2-0.8c0.4-0.1,0.9-0.5,0.8-0.8c0-0.3-0.5-0.7-0.8-0.9
	c-0.5-0.4-1.1-0.7-1.5-1.2c-1.8-2.1-3.5-4.2-5.3-6.4c-1.2-1.5-2.7-3-3.6-4.8c-3-5.8-6.2-11.4-7.7-17.9c0-0.2-0.3-0.5-0.5-0.5
	c-0.2,0-0.5,0.1-0.7,0.3c-1.5,2.5-3.9,4.5-4.6,7.5C331.9,292.1,331.3,294.7,330.7,297.4z M355.9,306.6c0.8-3.6-9.7-21.8-13.5-23.1
	C345.3,292.2,349.7,299.9,355.9,306.6z"/>
<path d="M316.2,160.4c-0.3,1.4-0.7,2.4-2.3,2.9c-1.3,0.4-2.3,1.6-3.5,2.4c-0.8,0.6-1.6,1.1-2.5,1.5c-3.6,1.4-7.4,2.7-11,4.2
	c-3.5,1.5-6.8,3.3-10.3,4.9c-3.6,1.7-7.3,3.2-10.9,4.9c-2.7,1.2-5.4,2.5-8.1,3.8c-5.3,2.4-10.6,4.8-15.8,7.1
	c-1.9,0.8-3.6,1.8-5.6,2.5c-1.8,0.6-4.1-1-4.7-2.8c-1-2.9-2.2-5.7-3.1-8.6c-0.9-2.8-1.7-5.7-2.5-8.6c-1.8-6.1-3.4-12.3-5.3-18.3
	c-1.3-4.2-3.1-8.2-4.6-12.3c-0.9-2.7-1.7-5.4-2.3-8.1c-0.2-1.1,0.1-2.2-0.9-3c-0.1-0.1,0.3-1.2,0.8-1.5c3.6-2,7.3-3.9,10.9-5.8
	c2.4-1.2,4.9-2.1,7.2-3.3c4.7-2.3,9.4-4.7,14.1-6.9c1.6-0.8,3.4-1.3,5-2.1c3.3-1.7,6.5-3.4,9.7-5.2c1-0.5,2-0.9,3-1.3
	c4.6-2.1,9.3-4.2,13.9-6.3c1.9-0.8,3.8-1.8,5.7-2.5c1-0.4,1.9,0.1,2.4,1.2c1.8,3.8,3.8,7.6,5.4,11.5c1.2,3.1,1.9,6.3,3,9.4
	c1.1,3.2,2.6,6.3,3.7,9.5c1.3,3.7,2.3,7.5,3.4,11.2c1,3.3,2,6.5,2.8,9.8C314.8,153.9,315.5,157.2,316.2,160.4z M313,160
	c-0.1-0.1-0.2-0.2-0.3-0.4c-0.2-0.8-0.3-1.5-0.5-2.3c-0.8-3.2-1.6-6.4-2.4-9.6c-0.8-3.1-1.2-6.3-2.2-9.4c-1.9-5.6-4.2-11.1-6.2-16.6
	c-2.2-6.2-4.4-12.4-7.4-18.3c-0.6-1.3-1.2-1.3-2.2-0.8c-1.6,0.7-3.1,1.4-4.7,2.1c-3.9,1.6-7.8,3.1-11.6,4.8c-4.2,1.9-8.4,3.9-12.5,6
	c-3.2,1.6-6.2,3.3-9.4,4.8c-4.9,2.3-9.9,4.5-14.8,6.8c-3.7,1.8-7.2,3.8-10.8,5.7c-2.1,1.1-2.1,1.2-1.2,3.3c0.2,0.4,0.3,0.9,0.4,1.4
	c1.1,3.4,2.1,6.8,3.3,10.2c0.8,2.3,2,4.5,2.7,6.9c1.5,4.7,2.7,9.6,4.1,14.3c0.8,2.7,2.3,5.3,2.6,8c0.7,4.8,3.2,8.9,4.3,13.5
	c0.3,1.3,1.1,1.5,2.1,1.1c1.4-0.6,2.8-1.3,4.2-1.9c4.9-2.3,9.9-4.5,14.8-6.8c4.3-2,8.5-4,12.8-5.9c3.2-1.5,6.4-3,9.6-4.4
	c3.7-1.7,7.5-3.3,11.2-4.9c3.3-1.4,6.7-2.8,10.1-4.3c0.9-0.4,1.7-1.1,2.5-1.8C312,161,312.5,160.4,313,160z"/>
<path d="M381.1,154.9c-0.1-5,2.4-8.9,5.1-12.7c0.4-0.6,0.9-1.1,1.4-1.6c3.6-4,8.3-6.2,13.4-7.6c4.6-1.2,8.9-0.4,13.1,1.3
	c1,0.4,1.9,1.3,2.9,1.9c2.7,2,5.5,3.8,7.6,6.6c3.3,4.5,4.3,9.4,3.4,14.9c-0.8,4.4-2.8,8.2-5.7,11.6c-4.4,5.1-9.7,8.7-16.8,8.8
	c-3.8,0.1-7.6-0.6-11.2-1.7c-0.6-0.2-1.2-0.6-1.7-1c-4-3.3-8.3-6.5-10-11.7C381.7,160.9,381.6,157.8,381.1,154.9z M402.3,154.9
	c0.4-3.2,0.7-6,1-8.8c0.3-2.6,0.6-5.2,0.7-7.8c0-1.2,0.4-1.8,1.5-1.9c1.2-0.1,2.2,0.1,2.2,1.5c0,1.4-0.3,2.8-0.5,4.2
	c-0.4,3.7-0.8,7.4-1.2,11c-0.1,1.1,0.3,1.7,1.4,1.8c1.2,0.1,2.4,0.1,3.6,0.1c4.2-0.1,8.5-0.1,12.9-0.2c0-3.3-0.5-6.7-2.4-9.7
	c-2.4-3.7-5.9-6.4-9.9-8c-2.7-1.1-5.7-2.6-8.9-1c-0.7,0.4-1.4,0.8-2.1,0.9c-2.5,0.3-4.5,1.6-6.3,3.1c-2.1,1.8-3.8,4.1-5.6,6.2
	c-2.2,2.8-2.5,6.2-2.9,9.5c0,0.2,0.2,0.4,0.3,0.5C391.5,154.5,396.9,154.5,402.3,154.9z M402.6,174.3c-0.1-1.5-0.3-2.7-0.3-3.9
	c0-3.4,0.1-6.8,0.1-10.1c0-0.5-0.6-1.5-1-1.5c-2.1-0.2-4.2-0.2-6.3-0.2c-3,0.1-6.2,1.3-9.1-1.3c-0.7,3.7,0.9,6.5,2.8,9
	C392.1,170.8,396.2,174.5,402.6,174.3z M405.4,174.3c0.5-0.1,1.3,0,1.9-0.3c2.2-1,4.3-2.3,6.6-3.1c5.2-1.9,6.9-6.8,9.5-10.9
	c0.4-0.7,0.2-1.5-0.8-1.5c-0.8,0-1.6,0.1-2.3,0.1c-4.1,0.1-8.2,0.2-12.3,0.3c-1.3,0-1.9,0.4-1.9,1.8
	C405.8,165.1,405.6,169.6,405.4,174.3z"/>
<path d="M331.6,378.8c2.2,0.4,4.4,0.6,6.5,1.1c0.7,0.2,1.3,1,2,1.3c1.4,0.7,3,1.1,4.1,2.1c1.9,1.7,3.7,3.6,5.2,5.7
	c1.3,1.7,2.3,3.6,3.2,5.4c0.5,0.9,0.7,2,0.7,3c0.1,3.7-0.8,7.1-2.1,10.6c-1.6,4.4-4.6,7.4-7.8,10.3c-2.1,1.9-4.9,2.6-7.7,3
	c-4.4,0.7-8.7,0.3-13-0.7c-3-0.7-5.2-2.6-7.2-4.9c-2.5-2.9-4.5-6.1-5.5-9.6c-0.9-3.2-0.9-6.6-1-10c-0.1-2.5,1.2-4.5,2.5-6.5
	c2.3-3.7,5.3-6.5,9.2-8.3C324.2,379.8,327.7,378.8,331.6,378.8z M332.4,418.1c0.2,0.1,0.4,0.2,0.5,0.3c1.3-0.5,2.5-0.9,3.8-1.4
	c3.6-1.4,6.6-3.6,8.6-6.9c1.5-2.4,2.5-5.1,3.5-7.8c0.4-1,0.7-2.3,0.4-3.2c-1-3.3-1.8-6.8-4.7-9.3c-1.9-1.6-3.4-3.8-5.9-4.3
	c-5-1-5.6-2.1-5.2,4.1c0.3,4.9,1.7,9.7,1.1,14.6c-0.4,2.8-0.5,5.6-0.9,8.3C333.2,414.4,332.7,416.2,332.4,418.1z M327.2,383
	c-1,0.3-1.9,0.3-2.6,0.7c-3.3,1.6-6.5,3.3-8.7,6.6c-1.8,2.6-3.4,5.2-3.3,8.3c0.3,6.6,1.9,12.8,8.1,16.6c1.3,0.8,2.6,1.5,4,2
	c1.4,0.5,2.2-0.2,1.7-1.7c-1.4-4.3-1.5-8.8-1.8-13.3c-0.3-6-0.3-12.1,2.5-17.7C327.1,384.1,327.1,383.7,327.2,383z M330.1,389.9
	c-0.2,7.7-0.3,15.5-0.5,23.4C332.1,410.9,331.6,393.3,330.1,389.9z"/>
<path d="M184,195.3c5-0.2,9.6,1.3,13.3,4.4c3,2.5,5.6,5.5,8.2,8.4c0.8,0.9,1,2.4,1.5,3.6c1.6,3.8,4.1,7,4.7,11.3
	c0.5,3.9-0.4,7.4-0.8,11.1c-0.3,3.1-1.8,5.6-3.4,8.1c-0.5,0.8-1,1.6-1.4,2.5c-1.7,3.5-5,5.4-8.1,7.1c-4.3,2.3-9,3.2-13.7,4.1
	c-7.1,1.3-13.5-0.7-19.9-3.1c-3.2-1.3-6.1-3.5-7.8-6.9c-0.5-1-1.3-1.9-2.1-2.7c-4.9-5.1-7.1-11.2-6.5-18.3
	c0.5-5.7,2.3-11.1,5.7-15.7c1.4-1.9,3.6-3.4,5.4-5c1-0.9,2-1.7,3.1-2.4c4.4-2.8,9.1-4.9,14.4-5.4C179.1,196.1,181.5,195.6,184,195.3
	z M208.4,226.2c-0.1-1.1,0-2.3-0.3-3.3c-1.4-3.9-2.8-7.8-4.6-11.5c-1.5-3.1-3.8-5.9-6.9-7.4c-3.8-1.7-7.8-2.9-11.8-4.2
	c-1.1-0.4-2.4-0.5-3.6-0.6c-0.9,0-1.8,0.4-2.8,0.4c-4.5,0.5-8.7,1.6-12.6,4c-2.7,1.7-5.2,3.4-7.3,5.8c-3.7,4.2-5.6,9-4.8,14.6
	c0.5,4.2,1.8,8.3,2.2,12.5c0.4,3.9,2.6,6.6,5.2,9c3.1,2.8,6.9,4.4,10.9,5.4c8.2,2.1,16.1,0.5,23.7-3c2.1-1,3.8-3,5.7-4.5
	c2.9-2.1,5-4.5,5.1-8.2c0-0.4,0.1-0.9,0.3-1.3C208.1,231.6,208.7,229,208.4,226.2z"/>
<path d="M209.5,361c-0.6,2.4-1.1,4.9-1.9,7.3c-0.8,2.4-2.8,3.6-5,4.5c-6,2.6-11.4,1.4-16.7-2.1c-4.8-3.2-9.4-6.7-13.3-10.9
	c-2.7-2.8-5.4-5.5-7.9-8.5c-3.5-4.3-6.8-8.7-9.9-13.2c-2.1-3-3.4-6.5-4.2-10.2c-0.7-3.7,0.7-6.8,2.4-9.9c0.3-0.5,0.7-0.9,0.8-1.4
	c0.9-3.9,4-4.4,7.2-4.9c1.2-0.2,2.4-0.2,3.6-0.5c1.8-0.5,3.3-0.1,5,0.5c5.6,1.9,9.3,6.5,13.5,10.1c2.3,2,4.4,4.2,6.6,6.4
	c0.8,0.8,1.4,1.8,2.1,2.8c1.8,2.7,3.7,5.4,5.5,8.1c3.1,4.7,5.9,9.5,9.3,14c1.9,2.5,2.4,5,2.4,7.8C209.2,360.9,209.3,361,209.5,361z
	 M195.9,371c1.7-0.6,3.1-0.9,4.3-1.6c4.9-2.9,7.6-7.4,3.9-13.5c-2.3-3.8-4.6-7.5-7.1-11.1c-2.3-3.4-4.6-6.8-7-10.2
	c-0.2-0.3-0.8-0.8-1-0.7c-1.1,0.4-2.2,0.9-3.1,1.5c-2.5,1.9-4.9,4-7.4,6c-3.2,2.5-6.4,5.1-9.5,7.7c-0.3,0.3-0.7,1.1-0.6,1.3
	c1,1.5,2.1,3,3.4,4.2c2.1,2,4.3,3.9,6.5,5.7c2.6,2.1,4.6,4.9,7.8,6.4c0.7,0.3,1.3,0.9,2,1.2C190.7,368.9,193.4,370,195.9,371z
	 M154.3,326.7c0.3,1.8,0.2,3.6,0.9,5.2c1.3,2.8,2.9,5.4,4.6,8c1.5,2.3,3.4,4.4,4.9,6.6c0.6,0.9,1,0.8,1.7,0.2c1.8-1.5,3.7-3,5.6-4.4
	c2.2-1.8,4.4-3.6,6.7-5.4c0.7-0.5,1.4-1,2.1-1.6c1.7-1.3,3.3-2.7,4.9-4.1c0.8-0.7,0.9-1.3,0.1-2c-2.4-2.2-4.7-4.5-7-6.8
	c-0.9-0.9-1.8-1.9-2.8-2.5c-1.8-1.1-3.9-1.6-5.5-2.9c-5.1-3.9-11.6-0.9-14.6,2.9C154,321.9,155,324.4,154.3,326.7z"/>
<path class="st0" d="M509.5,98.9c2.5,0.8,4.9,1.4,7.1,2.4c6,2.7,12,5.5,18,8.3c4,1.9,8,3.7,11.8,5.8c3,1.6,5.8,3.6,8.8,5.2
	c1.9,1,3.9,1.7,5.8,2.7c3.3,1.7,6.6,3.5,10,5.4c-1.1,2.2-2.1,4.3-3.2,6.3c-2.9,5-6,9.9-8.9,14.9c-1.6,2.9-2.8,6-4.3,9
	c-2.3,4.6-4.6,9.3-7,13.8c-1.1,2.1-2.5,4-3.8,6c-0.4,0.6-0.5,1.4-0.8,2.2c-0.7,2-1.4,2.2-3.2,1.1c-2-1.2-4-2.4-6.1-3.4
	c-3.7-1.7-7.5-3.2-11.3-4.8c-5.5-2.3-11-4.5-16.4-6.9c-3.1-1.4-6.1-3.3-9.1-5c-0.3-0.2-0.6-0.3-0.9-0.4c-3.8-1-6.9-3.3-10.1-5.5
	c-1.3-0.9-1.1-1.8-0.6-3c0.8-1.9,1.4-3.9,2.2-5.9c0.8-2.1,1.6-4.3,2.5-6.4c1.7-3.9,3.8-7.8,4.9-12c0.5-1.8,1.6-3.4,2.4-5.2
	c1.1-2.6,2.1-5.2,3.2-7.8c1-2.1,2.3-4.1,3.1-6.3c1.4-3.6,2.8-7,5.1-10.1C509.1,99.3,509.3,99.2,509.5,98.9z M522.8,151.1
	c1.4,1.3,0.9,2.5,0.5,3.7c-0.3,0.9-0.5,1.9-0.7,2.9c-0.4,2.2,1.1,3.5,2.2,5.1c1,1.5,2.2,2,3.6,1.3c3.1-1.4,6.1-3,9-4.7
	c1.5-0.8,1.7-0.9,1.9,0.8c0.3,2.8,1.5,5,4,6.4c2.8,1.6,5.6,1.2,6.7-1.2c0.4-0.9,0.3-2.1,0.3-3.2c-0.9,0.3-1.8,0.7-2.8,1
	c-0.6,0.2-1.4,0.4-1.7,0.2c-1.6-1.1-3.3-2.1-3.1-4.6c0.1-1.3-0.5-2.6-0.8-3.9c-0.4-1.6-1.6-2.2-3-1.3c-1.3,0.8-2.3,1.9-3.6,2.7
	c-1.9,1.3-3.9,2.5-5.9,3.6c-0.7,0.3-2.2,0.4-2.4,0c-0.5-0.9-0.6-2-0.5-3.1c0.2-1.9,0.7-3.7,0.9-5.5c0.2-1.9-1.1-3.7-2.7-3.9
	c-2-0.3-4.1-0.2-5.9,1.1c-0.8,0.6-1.6,1.3-2.5,1.7c-3.9,1.8-5.3,1.1-6.5-2.2c-0.2-0.5-0.3-0.9-0.4-1.4c-0.5-2.5-1-5-1.4-7.5
	c-0.2-1.1-0.8-1.8-1.7-1.6c-3.5,0.7-7,1.6-10.4,2.4c-1.1,0.3-1.7,1.3-1.1,2.1c0.3,0.5,1.6,0.8,2.4,0.6c2.1-0.4,4.2-1,6.3-1.4
	c0.5-0.1,1.4,0.3,1.5,0.7c0.5,1.5,0.7,3.1,1,4.7c0.4,1.8,0.7,3.7,1.5,5.3c0.5,1.1,1.8,2,2.9,2.6c2.7,1.3,5.2,0.1,7.6-0.9
	C519.8,152.9,521.2,152,522.8,151.1z M522.1,119c-0.8-2.7-1.7-5.2-2.4-7.7c-0.4-1.6-1.8-2.1-2.9-2.6c-0.8-0.4-1.7,0.4-1.5,1.6
	c0.5,3.3,0.9,6.5,1.5,9.8c0.2,1.1-0.1,1.3-1,1.6c-2,0.6-4.2,1-5.8,2.6c-0.9,0.9-1.1,2.7-0.1,3c1,0.2,2.1,0.2,3-0.1
	c1.4-0.4,2.7-1.1,4.1-1.8c1-0.5,1.4-0.1,1.6,0.9c0.6,2.6,1.3,5.1,2,7.8c1-0.1,2.2-0.3,3.7-0.5c-0.3-3.1-0.5-6.1-0.9-9.1
	c-0.2-1.4-0.1-1.9,1.5-2.2c2-0.3,3.9-1.2,5.8-1.9c0.3-0.1,0.8-0.6,0.7-0.8c-0.2-1-0.4-2.2-1-3c-0.3-0.4-1.6-0.2-2.4,0.1
	C526,117.2,524.1,118.1,522.1,119z M548.4,133.5c-0.2-1.2-0.4-2.3-0.5-3.3c-0.2-2-0.2-4-0.4-5.9c-0.1-0.6-0.6-1.3-1.1-1.5
	c-1-0.4-1.3,0.6-1.5,1.3c-0.1,0.8-0.2,1.5-0.2,2.3c0.1,2.2,0.4,4.3,0.4,6.4c0,0.4-0.4,1.2-0.8,1.3c-1.8,0.6-3.7,1.1-5.6,1.6
	c-1.5,0.4-3.1,0.8-4.5,1.5c-0.5,0.2-0.8,1.1-0.8,1.7c0,0.3,0.7,0.9,1.1,1c0.7,0.2,1.5,0.1,2.2,0c2.5-0.5,5-1.2,7.5-1.8
	c1.4-0.3,2,0.3,2,1.6c0.1,1.9,0.3,3.8,0.4,5.6c0.1,1.7,0.8,2.4,2.3,2.3c1.8-0.1,1.3-1.6,1.3-2.6c-0.1-2.1-0.5-4.3-0.9-6.4
	c-0.2-1.3,0.2-1.6,1.4-1.8c2.2-0.3,4.3-0.8,6.5-1.3c1.8-0.5,2.5-2.1,1.7-3.7c-0.2-0.4-1-0.8-1.3-0.7
	C554.7,131.9,551.8,132.7,548.4,133.5z"/>
<path class="st0" d="M523.2,238.8c0-7-0.1-13.9,1.3-20.8c0.7-3.7,2-7,4.4-9.8c2-2.3,4.7-3.8,7.8-4.1c3-0.3,6.1-0.4,9.1-0.2
	c4,0.3,7.1,2.4,8.8,5.9c3.3,6.4,5,13.3,4.8,20.6c-0.1,4.2-0.3,8.4-0.4,12.6c0,1.3-0.7,1.9-1.9,2c-3.2,0.3-6.6,0.3-9.7,1.2
	c-3.3,0.9-6.3-0.4-9.4-0.3c-3.8,0.2-7.7,0.4-11.5,0.6c-0.9,0-1.9,0-2.8-0.3c-0.4-0.1-0.9-0.9-0.9-1.4
	C522.9,242.8,523.1,240.8,523.2,238.8z"/>
<path class="st0" d="M558.3,250.8c-0.6,4.4-1.2,8.9-1.9,13.3c-0.7,4.7-1.5,9.4-2.3,14.1c-0.3,1.6-0.6,3.3-1.5,4.5
	c-1.1,1.5-2.8,2.7-4.4,3.9c-0.7,0.5-1.7,0.8-2.5,1.2c-5.1,2.6-10,1.3-14.7-0.9c-1.6-0.8-2.7-2.5-3.8-4c-3.7-5-4.6-10.8-4.8-16.8
	c-0.1-5,0.2-10.1,0.4-15.1c0-0.5,0.7-1.3,1.1-1.3c3.3-0.1,6.5-0.1,9.8,0c2.9,0,5.8,0.3,8.6,0.2c4.8-0.1,9.5-0.2,14.3-0.6
	C558.1,249.1,558.4,249.5,558.3,250.8z"/>
<path class="st0" d="M290.9,213.4c2.6-1.2,5-2.2,7.3-3.4c3.3-1.7,6.6-3.5,10-5.1c3.8-1.7,7.7-3.3,11.7-4.8c3.7-1.4,7.3-3.1,11.1-3.8
	c3.3-0.6,6.8-0.3,10.2-0.1c3.8,0.2,6.7,2.2,8.7,5.5c1.6,2.6,1.3,5.9-0.9,8c-4.7,4.6-10.2,8.1-16.1,10.9c-1.4,0.7-2.7,1.7-4,2.7
	c-3.8,2.8-8,4.6-12.3,6.5c-3.5,1.6-6.8,3.6-10.2,5.5c-0.3,0.2-0.5,0.4-0.9,0.5c-1.4,0.5-2.5,1-3.4-1c-2.3-4.9-5.1-9.6-7.6-14.3
	C293.3,218.3,292.2,215.9,290.9,213.4z"/>
<path class="st0" d="M300.7,238.4c-2,1-3.6,2-5.2,2.6c-6.3,2.6-12.5,5.4-18.9,7.5c-4.4,1.4-9.1,1.8-13.6,2.8
	c-3.4,0.7-6.1-0.9-9.1-1.8c-0.6-0.2-1.2-0.5-1.9-0.7c-0.8-0.3-1.7-0.6-2.4-1c-3.4-2-3.8-5.3-1.1-8.1c1.9-2,3.7-4.2,5.7-6.2
	c1-1,2.3-1.7,3.6-2.4c1.5-0.8,3.2-1.3,4.7-2.1c2.4-1.4,4.7-3,7.2-4.4c1.4-0.8,2.9-1.3,4.3-2c2.9-1.4,5.8-2.8,8.6-4.3
	c1.5-0.8,2.9-1.8,4.3-2.6c0.4-0.2,0.8-0.2,1.2-0.3c0.1,0.4,0.1,0.8,0.2,1.2c0.2,0.9,0.2,1.9,0.6,2.7c2,3.6,4.1,7.1,6.2,10.6
	C296.8,232.5,298.6,235.2,300.7,238.4z"/>
<path class="st0" d="M362,97.4c0.2-1,0.3-1.7,0.5-2.4c0.7-3,1.4-6,2.1-9c1.4-6.5,2.8-12.9,4.2-19.4c1.1-5,1.8-10,1.4-15.1
	c-0.2-2.3,0.3-2.6,2.4-1.8c1.5,0.6,3.1,1.3,4.7,1.7c2.9,0.8,5.3,2.5,7.1,4.7c1.3,1.5,2.1,3.6,2.8,5.5c1.6,4.2,2.3,8.7,2.1,13.2
	c-0.2,4.2-1.9,7.7-4.8,10.7c-3.3,3.4-7,6.5-11.1,8.9C370,96.3,366.2,96.8,362,97.4z"/>
<path class="st0" d="M357.4,96.7c-3.6-0.4-6.5-1.5-9-3.8c-2.8-2.7-5.6-5.4-6.9-9.2c-2-5.9-2.8-11.7,0.1-17.7
	c1.8-3.8,4.5-6.6,7.4-9.4c3.9-3.8,8.8-5.5,13.7-7.5c0.5-0.2,1.2-0.2,2.1-0.4c-0.5,1.1-0.9,1.9-1.1,2.8c-1.8,7.3-3.9,14.5-5.1,21.9
	c-1.1,6.7-1.4,13.6-2,20.5C356.6,94.7,357.1,95.6,357.4,96.7z"/>
<path class="st0" d="M363,73.4c0-0.6-0.1-1.2,0-1.8c0.3-2.2,0.7-4.4,1.1-6.6c0.3-1.5,0.7-3,0.9-4.5c0.3-2,0.5-4,0.8-6
	c0.2,0,0.4-0.1,0.7-0.1c0.2,0.5,0.6,0.9,0.5,1.3c-0.1,2-0.2,4-0.7,5.9c-0.8,3.8-1.9,7.6-2.8,11.3c0,0.2-0.2,0.3-0.3,0.5
	C363.2,73.4,363.1,73.4,363,73.4z"/>
<path class="st0" d="M400.7,270c0.6-1.4,0.9-2.7,1.5-3.8c2.3-4.1,4.7-8.2,7.2-12.2c1.7-2.6,3.6-5.1,5.4-7.6c2.3-3.2,4.6-6.4,6.8-9.7
	c1.1-1.7,1.9-3.6,2.9-5.3c1.1-2,2-4.3,3.6-5.9c2.2-2.2,3.3-5.1,5.4-7.4c0.3-0.3,1.3-0.2,1.7,0.1c2.4,1.4,4.6,3,7,4.4
	c3.8,2.2,7.7,4.3,11.4,6.6c3.9,2.5,7.6,5.2,11.4,7.8c2.3,1.5,4.7,2.8,7,4.1c4.2,2.4,8.5,4.9,12.7,7.3c1,0.6,1.9,1.1,2.8,1.7
	s1,1.3,0.5,2.3c-3.1,5.3-6.2,10.7-9.3,16c-2.6,4.4-5.3,8.7-8.1,13.1c-2.5,4-5.2,7.8-7.6,11.8c-1.5,2.5-2.8,5.2-4.1,7.8
	c-0.9,1.8-1.7,1.9-3.3,0.8c-1.4-1-3.1-1.8-4.6-2.7c-3.3-1.8-6.7-3.5-10-5.2c-4.2-2.1-8.4-4.1-12.5-6.5c-4.2-2.4-8.2-5.2-12.3-7.8
	c-1.3-0.8-2.7-1.4-4-2.2c-3.4-2-6.7-4-10-6.1C401.6,271.2,401.2,270.6,400.7,270z M441.2,281.6c3.3,2,6.5,3.8,9.5,5.9
	c2.1,1.5,3.3,1.5,5-0.3c0.8-0.9,1.8-1.6,2.8-2.3c1.5-1.3,3.2-2.4,4.6-3.8c0.9-0.8,0.6-1.8-0.2-2.5c-0.4-0.3-1.3-0.7-1.5-0.5
	c-2.3,1.7-4.5,3.5-6.6,5.5c-1,1-1.8,1.4-2.9,0.3c-0.3-0.3-0.6-0.5-1-0.7c-5.4-2.8-10.7-5.7-15.6-9.2c-1.9-1.4-4-2.5-6.1-3.7
	c-2.2-1.3-4.5-2.4-6.7-3.8c-0.6-0.4-1-1.6-0.9-2.4c0.3-2.5,1.1-4.9,1.4-7.4c0.1-0.6-0.5-1.7-1.1-2c-0.9-0.4-1.4,0.4-1.7,1.3
	c-0.8,2.9-1.6,5.9-2.6,8.7c-0.8,2.5-0.6,3.3,1.9,4.5c2.3,1.1,4.5,2.3,6.8,3.5c1.1,0.5,1.3,1,0.3,2.1c-1.2,1.3-2.3,2.7-3.1,4.3
	c-0.3,0.6-0.1,2,0.4,2.5c1.2,1,2.7,1.7,4.1,2.4c2.8,1.3,5.7,2.6,8.6,3.9c1.1,0.5,2.1,0.3,2.6-0.9
	C439.8,285.3,440.4,283.6,441.2,281.6z M461,271.4c2.1-0.3,4.3-0.4,6.4-0.9c2.3-0.6,4.5-1.6,5.7-3.9c2.4-4.7,3.3-9.5,1.8-14.6
	c-0.1-0.5-0.4-0.9-0.6-1.3c-2.4-3.7-5.2-6.7-10-7.2c-4.7-0.5-9,0.3-12.7,3.2c-4.8,3.9-5.1,9.3-3.9,14.8
	C448.9,266.9,455.4,271.4,461,271.4z M438.5,246.5c0.4,2.4,0.7,4.4,1,6.4c0.3,2.4,0.3,2.3,2.6,2.5c1.1,0.1,1.5-0.3,1.2-1.3
	c-0.6-2.3-1.2-4.6-1.8-6.9c-0.3-1.1-0.2-1.6,1-1.9c2.5-0.7,5-1.5,7.4-2.3c1.2-0.4,2.1-1.1,1.7-2.6c-0.3-1-1.8-1.4-3.2-0.9
	c-2.4,0.8-4.8,1.4-7.3,2.2c-0.9,0.3-1.4,0.1-1.5-0.9c-0.1-1.4-0.3-2.9-0.5-4.3c-0.3-1.9-0.2-4-2-5.4c-0.9-0.7-1.6-0.6-1.9,0.5
	c-0.2,0.5-0.3,1.2-0.2,1.8c0.7,3.3,1.4,6.6,2.1,9.9c-3.3,1.2-6.5,2.5-9.8,3.7c-1.2,0.4-1.5,1.4-1.2,2.4c0.3,1.1,1.2,1.3,2.3,0.9
	c0.3-0.1,0.6-0.3,0.9-0.4C432.3,248.7,435.1,247.7,438.5,246.5z"/>
<path class="st0" d="M255.6,302.2c0.6-0.5,1.2-1,1.9-1.5c3.3-2.6,7.4-3.7,11.2-5.3c4.8-2,9.7-4,14.6-6c3.8-1.5,7.6-2.9,11.4-4.5
	c2.5-1.1,5-2.4,7.5-3.5c0.9-0.4,2-0.7,2.9-1.1c2.3-0.9,4.6-1.9,6.8-2.9c0.9-0.4,1.4-0.1,1.7,0.7c1.4,3.8,2.8,7.6,4.1,11.4
	c0.8,2.2,1.6,4.5,2.3,6.7c2.2,6.7,4.2,13.5,6.4,20.2c1.4,4.1,2.9,8.3,4.4,12.3c0.5,1.3,0.2,2-1,2.4c-5.4,2-10.7,3.9-16,5.9
	c-5.7,2.2-11.6,4-17.1,6.7c-4.3,2.2-8.7,4-13.3,5.6c-2.2,0.8-4.5,1.4-6.8,2c-3.1,0.9-4.4-0.2-5-3.4c-0.3-1.7-1-3.3-1.6-5
	c-0.5-1.4-1.1-2.6-1.6-4c-1.1-3.1-2.2-6.3-3.4-9.4c-1.5-3.9-3.1-7.8-4.5-11.8c-0.7-1.9-0.9-4-1.5-5.9c-0.4-1.5-1-2.9-1.6-4.3
	C257,306,256.4,304.2,255.6,302.2z M276.3,319.4c4.7-0.1,9.7-5,9.5-9.4c-0.1-4.1-5.1-8.4-9.8-8c-6,0.5-8.7,2.6-8.8,7.3
	C267.1,314.7,271.2,319.8,276.3,319.4z M296.8,336.9c2-0.6,3.9-1,5.6-1.7c5.1-2.2,8.8-6.1,10.6-11.2c1-2.6,0.7-5.8,0.9-8.7
	c0.1-1.1-0.7-1.5-1.8-1.5c-1-0.1-1.4,0.4-1.6,1.4c-0.3,1.4-0.8,2.9-1.3,4.3c-1.1,3.2-2.4,6.3-4.6,8.9c-1.2,1.4-2.4,3.2-3.9,3.9
	c-5.2,2.2-10.3,1.4-15-1.5c-2-1.2-4.2-2.2-5.5-4.4c-0.2-0.3-1.4,0-2.2,0c0.1,0.6,0,1.3,0.2,1.7c1.3,1.8,2.6,3.5,4,5.2
	c0.5,0.6,1.2,1.1,1.9,1.2C288.3,335.3,292.6,336.1,296.8,336.9z M293,298.7c1.1,3.9,2.3,6.9,6.3,8.5c3,1.2,5.4,0.8,7.9-0.9
	c0.7-0.5,1.1-1.4,1.8-1.9c2.2-1.7,2.3-4,1.6-6.2c-1.1-3.6-4-5.4-7.5-6.2c-3.1-0.8-5.9-0.2-7.8,2.8
	C294.5,296.1,293.7,297.4,293,298.7z"/>
<path class="st0" d="M453.6,366.7c0.5-2.9,1.2-5.7,1.4-8.5c0.2-2.8-0.1-5.6,0-8.5c0.1-4,0.2-7.9,0.6-11.9c0.2-2.1,1.1-4.1,1.7-6.5
	c3.3,0.4,6.5,0.8,9.7,1.2c3,0.3,5.9,0.6,8.9,0.9c3.3,0.4,6.6,0.8,9.3,2.8c1.8,1.3,3.4,3,3.1,5.8c-0.3,2.7,0.1,5.5,0.2,8.3
	c0.1,4.9-2.2,8.9-4.8,12.9c-2.2,3.4-5.7,3.7-9.1,4.1c-6.5,0.8-13.1,0.3-19.7-0.2C454.5,367,454.1,366.8,453.6,366.7z"/>
<path class="st0" d="M452.2,331.9c-0.2,5.5-0.4,11-0.7,16.4c-0.1,2.3-0.7,4.6-1,6.9c-0.3,3.6-0.5,7.3-0.8,10.9
	c0,0.2-0.1,0.4-0.1,0.8c-1.4-0.2-2.7-0.4-4.1-0.6c-5.1-1-10.3-2.1-15.4-3.2c-1-0.2-2-0.7-2.9-1.1c-2.9-1.1-3.3-3.8-3.4-6.3
	c-0.1-4.4,0.5-8.8,1.8-13c0.7-2.2,1.8-4.5,3.2-6.3c1.1-1.4,2.8-2.4,4.5-3.1c3.8-1.8,7.9-1.7,12-1.3
	C447.8,332.2,450.2,331.9,452.2,331.9z"/>
<path class="st0" d="M562.2,350.9c2.5-4.6,1.4-9.6,1.7-14.4c0.3-3.3-0.4-6.7-0.9-10.1c-0.5-3.1-1.3-6.1-2-9.2
	c-0.3-1.2,0.5-1.9,1.4-2c2-0.1,4.1-0.4,5.8,0.3c3.5,1.3,6.7,3.4,8.8,6.6c1.7,2.5,2.1,5.4,2.6,8.3c0.5,3,0.7,5.9-0.2,8.9
	c-1.1,3.6-3.4,6.3-6.3,8.5c-3,2.3-6.6,3-10.2,3.4C562.9,351.3,562.7,351.1,562.2,350.9z"/>
<path class="st0" d="M556.2,350.1c-2.5-0.2-4.7-0.5-6.5-2.2c-0.3-0.3-0.6-0.7-1-0.9c-2.7-1.1-3.6-3.8-5.1-5.9
	c-1.7-2.4-1.2-5.5-0.7-8.3c0.1-0.7,0.6-1.4,0.7-2.2c0.7-3.1,3.3-4.9,5-7.3c1.5-2.3,3.7-3.3,6-4.7c0,1.2,0.1,2.1,0,3.1
	c-0.5,5.3-0.5,10.5,0.3,15.7c0.5,3.8,0.8,7.7,1.2,11.5C556.2,349.2,556.2,349.6,556.2,350.1z"/>
<path class="st0" d="M559.2,341c-0.1-4-0.1-7.9-0.2-11.9c1.9,3.9,1.6,7.9,0.8,11.9C559.6,341,559.4,341,559.2,341z"/>
<path class="st0" d="M361.1,311.7c-0.1-0.7-0.3-1.3-0.3-1.9c-0.2-3.8-1.1-7.3-3-10.6c-2.2-3.9-4.3-7.9-6.7-11.7
	c-1.4-2.2-3.4-3.9-5-5.9c-0.8-1-1.5-2-2-3.1c-0.1-0.3,0.4-1.4,0.7-1.5c1.8-0.5,3.6-0.9,5.5-1c3.3-0.2,6.5-0.5,9.8,0.9
	c3.4,1.5,6.1,3.6,7.6,7c1.5,3.6,3,7.3,2.7,11.3c-0.3,4.6-1.1,9-4,12.7C365,309.4,363.5,311.1,361.1,311.7z"/>
<path class="st0" d="M330.7,297.4c0.6-2.7,1.3-5.3,2-8c0.8-3,3.1-5,4.6-7.5c0.1-0.2,0.5-0.4,0.7-0.3s0.4,0.3,0.5,0.5
	c1.5,6.4,4.7,12.1,7.7,17.9c0.9,1.7,2.3,3.2,3.6,4.8c1.7,2.1,3.5,4.3,5.3,6.4c0.4,0.5,1,0.8,1.5,1.2c0.3,0.3,0.8,0.6,0.8,0.9
	c0,0.3-0.5,0.7-0.8,0.8c-3.3,1-6.7,2-10.2,0.8c-3.1-1.1-6-2.7-8.5-5c-1.2-1.1-2.3-2.2-3.4-3.4c-2.3-2.5-3.5-5.5-3.2-9
	C331,297.5,330.9,297.4,330.7,297.4z"/>
<path class="st0" d="M355.9,306.6c-6.2-6.7-10.6-14.4-13.5-23.1C346.2,284.9,356.7,303,355.9,306.6z"/>
<path class="st0" d="M313,160c-0.5,0.5-1,1-1.5,1.4c-0.8,0.6-1.6,1.3-2.5,1.8c-3.3,1.5-6.7,2.9-10,4.3c-3.8,1.6-7.5,3.3-11.2,4.9
	c-3.2,1.4-6.4,2.9-9.6,4.4c-4.3,2-8.5,4-12.8,5.9c-4.9,2.3-9.9,4.5-14.8,6.8c-1.4,0.6-2.8,1.3-4.2,1.9c-1,0.4-1.8,0.1-2.1-1.1
	c-1.1-4.6-3.6-8.7-4.3-13.5c-0.4-2.7-1.8-5.3-2.6-8c-1.4-4.8-2.7-9.6-4.1-14.3c-0.7-2.3-1.9-4.5-2.7-6.8c-1.2-3.4-2.2-6.8-3.3-10.2
	c-0.2-0.5-0.2-1-0.4-1.4c-0.9-2.1-0.9-2.2,1.2-3.3c3.6-1.9,7.2-3.9,10.8-5.7c4.9-2.4,9.9-4.5,14.8-6.8c3.2-1.5,6.3-3.2,9.4-4.8
	c4.2-2,8.3-4.1,12.5-6c3.8-1.7,7.7-3.2,11.6-4.8c1.6-0.7,3.1-1.3,4.7-2.1c1.1-0.5,1.6-0.4,2.2,0.8c3,5.9,5.1,12.1,7.4,18.3
	c2,5.6,4.3,11,6.2,16.6c1,3,1.5,6.2,2.2,9.4c0.8,3.2,1.6,6.4,2.4,9.6c0.2,0.8,0.3,1.5,0.5,2.3C312.8,159.7,312.9,159.8,313,160z
	 M294,145.4c-0.1-4.4-1.1-7.3-2.5-10.3c-2.1-4.5-5.5-7.6-9.8-9.8c-3.5-1.8-7.3-2.6-11.2-2.4c-2.8,0.1-5.8,0-8.2,1.8
	c-3,2.2-6,4.5-8.8,6.9c-1.6,1.4-3.1,3.1-4.1,4.9c-1,2-1.4,4.3-1.9,6.5c-1.5,6.6-0.5,12.8,3.4,18.4c2.3,3.2,5,5.9,8.8,7.4
	c3.5,1.3,6.9,2.5,10.8,1.9c0.8-0.1,1.6-0.2,2.5-0.3c4.4-0.5,8.3-2.2,11.7-4.9c1.9-1.5,3.2-3.7,4.7-5.7
	C293.1,155.3,293.5,149.8,294,145.4z M291.2,107.7c-0.2-0.3-0.4-0.5-0.5-0.7c-0.4-0.1-0.8-0.4-1.1-0.3c-1.7,0.8-3.3,1.6-4.9,2.4
	c-0.2,0.1-0.1,0.9,0.1,1.1c0.3,0.3,0.9,0.4,1.3,0.3c1.2-0.6,2.4-1.3,3.6-1.9C290.1,108.3,290.7,108,291.2,107.7z M305.8,154.8
	c-0.2,0.1-0.5,0.1-0.7,0.2c-0.1,1.5-0.3,3-0.3,4.6c0,0.2,0.5,0.6,0.7,0.5c0.7-0.1,1.5-0.3,1.9-0.8c0.4-0.4,0.5-1.3,0.3-1.8
	C307.2,156.6,306.5,155.7,305.8,154.8z M275.1,115c-1.8-0.3-4.2,0.6-5,1.8c-0.2,0.3-0.2,0.9-0.1,1.2c0.2,0.3,0.7,0.6,1,0.6
	C272.3,118.6,274.7,116.5,275.1,115z M233,133c0,1.2,1,1.5,2,0.9c0.9-0.6,1.8-1.2,2.7-1.8c0.2-0.2,0.5-0.8,0.4-0.9
	c-0.2-0.3-0.7-0.6-1-0.5c-1.1,0.4-2.3,0.8-3.3,1.3C233.4,132.1,233.2,132.7,233,133z M240.9,130.4c2.3,0.2,4.4-0.9,5.1-2.3
	c0.1-0.3,0.1-0.9,0-1c-0.2-0.2-0.8-0.2-1.1-0.1c-0.9,0.4-1.7,0.7-2.4,1.3C241.8,128.7,241.5,129.5,240.9,130.4z M293.1,115.4
	c0.2-0.1,0.4-0.2,0.5-0.3c0.4-1.5,0.3-2.9-0.9-4c-0.3-0.3-1-0.3-1.5-0.4c-0.1,0.5-0.5,1.1-0.3,1.5
	C291.6,113.2,292.4,114.3,293.1,115.4z M241.6,165c0.4-3.1-0.6-4.5-2.8-3.9C239.4,162.6,239.5,164.4,241.6,165z M245.7,180.1
	c0.2-0.6,0.3-0.9,0.4-1.1c0.6-1.1,0.3-1.8-0.9-2.2c-0.5-0.2-1.1-0.1-1.7-0.2c0.1,0.8,0.1,1.7,0.5,2.4
	C244.4,179.5,245.1,179.7,245.7,180.1z M250,124.1c1,0.6,1.7,1.4,2,1.3c0.9-0.4,1.6-1.2,2.4-2c0,0-0.7-1-0.8-1
	C252.5,122.8,251.5,123.3,250,124.1z M280.3,114.3c0.8-0.5,1.5-0.9,2.1-1.4c0.3-0.2,0.4-0.9,0.3-1.1c-0.1-0.3-0.8-0.6-1.1-0.4
	c-0.7,0.3-1.3,0.7-1.9,1.1c-0.3,0.2-0.6,0.8-0.5,1C279.3,113.8,279.8,113.9,280.3,114.3z M271.3,175.8c-0.9-0.1-1.4-0.3-2-0.3
	c-0.6,0.1-1.2,0.5-1.8,0.7c0.2,0.4,0.3,1.2,0.6,1.2c0.8,0.1,1.6,0,2.3-0.2C270.7,177.2,270.9,176.5,271.3,175.8z M277.6,171.4
	c-0.7,0.7-1.4,1.1-1.5,1.7c-0.3,1,0.7,1.4,1.4,1.2c0.6-0.2,1-1,1.6-1.5C278.6,172.4,278.3,172,277.6,171.4z M234.7,137.8
	c-0.9-1-1.6-1.7-2.3-2.3c-0.1-0.1-0.7,0.6-1.1,0.9c0.6,0.8,1.2,1.6,1.9,2.3C233.4,138.7,234,138.2,234.7,137.8z M297.4,126.3
	c-0.4-1.3-0.7-2.3-1.1-3.2c-0.1-0.2-0.8-0.3-1.2-0.2c-0.3,0.1-0.5,0.7-0.5,0.9C295,124.9,295.2,126.1,297.4,126.3z M296.2,165.1
	c-0.1-0.3-0.2-0.6-0.3-0.9c-1,0.2-2.1,0.3-3.1,0.6c-0.2,0-0.3,0.8-0.1,1.1c0.1,0.3,0.8,0.6,1,0.5
	C294.6,166.1,295.4,165.6,296.2,165.1z M299.9,133.9c0.5-1.7-0.3-2.6-2.1-2.9C297.3,132.9,297.4,133.1,299.9,133.9z M302.6,143.8
	c-0.5-0.9-1-1.6-1.4-2.4c-0.3,0.6-0.9,1.2-0.8,1.7c0.1,0.7,0.8,1.2,1.3,1.8C301.9,144.6,302.2,144.3,302.6,143.8z M286.2,167.4
	c-0.7,0.6-1.2,1-1.7,1.4c0.5,0.5,1,1.4,1.4,1.3c0.6-0.1,1.1-0.9,1.4-1.4C287.5,168.5,286.8,168,286.2,167.4z M242.4,169.4
	c-0.5,1.3,0,2.3,1.1,2.9c0.2,0.1,1-0.4,1-0.6c0-1.2-0.5-2.1-1.8-2.3C242.6,169.3,242.6,169.3,242.4,169.4z M263.6,119.7
	c-0.1-0.1-0.3-0.3-0.4-0.4c-0.8,0.3-1.6,0.6-2.4,1.1c-0.2,0.2-0.3,0.9-0.1,1.2c0.1,0.2,0.9,0.4,1,0.3
	C262.4,121.2,263,120.4,263.6,119.7z M247.4,184.3c0.5-0.7,1.1-1.2,1-1.5c-0.1-0.4-0.8-1.1-1.1-1c-0.5,0.1-0.9,0.7-1.3,1.1
	C246.4,183.2,246.7,183.6,247.4,184.3z M301.3,159.8c-0.6,0.8-1.1,1.3-1.1,1.6c0.1,0.4,0.8,0.9,1.2,0.9c0.3,0,1-0.6,1-1
	C302.4,161,301.8,160.5,301.3,159.8z M258.9,181.4c1.1-0.2,1.9-0.4,2.8-0.5c-0.3-0.4-0.5-1.1-0.9-1.2
	C259.9,179.4,259,179.5,258.9,181.4z M237.6,152.7c-0.3,0.1-0.6,0.3-0.9,0.4c0.3,0.7,0.6,1.3,0.9,2c0.3-0.2,0.7-0.4,1-0.6
	C238.3,153.9,238,153.3,237.6,152.7z M236.6,146.8c0-0.3-0.1-0.6-0.1-0.9c-0.6,0-1.3,0-1.9,0c0.1,0.4,0.2,1.1,0.3,1.1
	C235.5,147.1,236,146.9,236.6,146.8z"/>
<path class="st0" d="M402.3,154.9c-5.4-0.4-10.9-0.4-16.2,1.5c-0.1-0.2-0.3-0.4-0.3-0.5c0.4-3.4,0.7-6.8,2.9-9.5
	c1.8-2.2,3.5-4.4,5.6-6.2c1.7-1.5,3.8-2.8,6.3-3.1c0.7-0.1,1.4-0.6,2.1-0.9c3.2-1.6,6.1-0.1,8.9,1c4,1.6,7.4,4.3,9.9,8
	c2,3,2.4,6.4,2.4,9.7c-4.5,0.1-8.7,0.2-12.9,0.2c-1.2,0-2.4,0-3.6-0.1c-1.1-0.1-1.5-0.7-1.4-1.8c0.4-3.7,0.8-7.4,1.2-11
	c0.2-1.4,0.4-2.8,0.5-4.2c0-1.4-1-1.6-2.2-1.5c-1.1,0.1-1.5,0.6-1.5,1.9c0,2.6-0.4,5.2-0.7,7.8C403,148.9,402.7,151.7,402.3,154.9z"
	/>
<path class="st0" d="M402.6,174.3c-6.4,0.3-10.5-3.5-14-8.1c-1.9-2.5-3.5-5.2-2.8-9c3,2.6,6.1,1.4,9.1,1.3c2.1-0.1,4.2,0,6.3,0.2
	c0.4,0,1,1,1,1.5c0,3.4-0.1,6.8-0.1,10.1C402.3,171.6,402.5,172.8,402.6,174.3z"/>
<path class="st0" d="M405.4,174.3c0.2-4.7,0.4-9.2,0.6-13.7c0-1.4,0.6-1.8,1.9-1.8c4.1,0,8.2-0.2,12.3-0.3c0.8,0,1.6-0.1,2.3-0.1
	c1,0,1.3,0.8,0.8,1.5c-2.6,4.1-4.3,9-9.5,10.9c-2.3,0.8-4.4,2.1-6.6,3.1C406.7,174.3,405.9,174.2,405.4,174.3z"/>
<path class="st0" d="M332.4,418.1c0.4-1.8,0.9-3.7,1.1-5.5c0.4-2.8,0.5-5.6,0.9-8.3c0.7-5-0.8-9.8-1.1-14.6
	c-0.3-6.2,0.3-5.2,5.2-4.1c2.6,0.5,4.1,2.8,5.9,4.3c2.9,2.4,3.6,5.9,4.7,9.3c0.3,1,0,2.3-0.4,3.2c-1,2.6-2.1,5.4-3.5,7.8
	c-2,3.3-5,5.5-8.6,6.9c-1.3,0.5-2.5,1-3.8,1.4C332.7,418.3,332.5,418.2,332.4,418.1z"/>
<path class="st0" d="M327.2,383c-0.1,0.7-0.1,1.1-0.3,1.5c-2.8,5.6-2.8,11.7-2.5,17.7c0.2,4.5,0.3,9,1.8,13.3
	c0.5,1.5-0.3,2.2-1.7,1.7c-1.4-0.5-2.7-1.3-4-2c-6.2-3.8-7.8-10-8.1-16.6c-0.1-3,1.5-5.7,3.3-8.3c2.3-3.3,5.4-4.9,8.7-6.6
	C325.3,383.3,326.2,383.2,327.2,383z"/>
<path class="st0" d="M330.1,389.9c1.5,3.4,2,20.9-0.5,23.4C329.8,405.4,329.9,397.7,330.1,389.9z"/>
<path class="st0" d="M208.4,226.2c0.3,2.8-0.4,5.4-1.5,7.9c-0.2,0.4-0.3,0.9-0.3,1.3c-0.1,3.8-2.3,6.2-5.1,8.2
	c-2,1.4-3.6,3.5-5.7,4.5c-7.5,3.5-15.4,5.1-23.7,3c-4-1-7.8-2.6-10.9-5.4c-2.6-2.4-4.9-5-5.2-9c-0.4-4.2-1.7-8.3-2.2-12.5
	c-0.7-5.6,1.1-10.4,4.8-14.6c2.1-2.4,4.6-4.2,7.3-5.8c3.9-2.4,8.1-3.5,12.6-4c0.9-0.1,1.9-0.5,2.8-0.4c1.2,0,2.5,0.2,3.6,0.6
	c4,1.3,8,2.4,11.8,4.2c3.1,1.4,5.4,4.3,6.9,7.4c1.8,3.7,3.2,7.6,4.6,11.5C208.5,224,208.3,225.1,208.4,226.2z M159.9,238.6
	c0,1.3,0.9,2,1.8,1.5c1.8-1.2,3.6-2.5,5.4-3.8c0.6-0.4,1.1-1.1,1.8-1.4c2.5-1,4.5-2.5,6.3-4.4c1-1.1,1.7-1,2.5,0.2
	c1.2,1.8,2.3,3.6,3.6,5.3c2.1,2.7,4.3,5.4,6.6,7.8c1.9,1.9,4.3,1,4.8-1.7c0.2-1,0.1-2-0.1-2.9c-0.2-1-0.7-2-1.1-2.9
	c-1.1-2.6-2.2-5.1-3.5-7.6c-0.7-1.3-2-2.4-2.9-3.6c-0.2-0.3-0.2-1.2,0-1.4c3.1-2.4,6.3-4.5,9.2-7c1.2-1,2.2-2.5,2.6-3.9
	c0.3-0.8-0.8-2-1.2-3.1c0-0.1-0.1-0.2-0.1-0.3c-0.6-1.6-1.3-1.8-2.8-0.9c-1.5,0.9-3,1.9-4.4,2.9c-1.9,1.3-3.8,2.6-5.7,3.9
	c-0.8,0.6-1.7,1.7-2.7,0.7c-1.7-1.6-3.6-3.3-4.6-5.3c-1.4-2.5-3.5-3.6-5.9-4.5c-0.4-0.1-1.2,0.2-1.4,0.6c-0.6,1.1-1.1,2.3-1.4,3.5
	c-0.2,0.8-0.3,1.9,0.1,2.6c1.2,2.3,2.6,4.5,4.1,6.6c1.5,2,1.5,2.5-0.6,3.9c-0.3,0.2-0.6,0.3-0.8,0.5c-2.1,1.9-4.6,3.4-5.7,6.3
	c-0.6,1.5-1.2,3.2-2.3,4.3C160.1,235.7,160.6,237.4,159.9,238.6z"/>
<path class="st0" d="M195.9,371c-2.6-1-5.2-2.1-7.8-3.2c-0.7-0.3-1.3-0.8-2-1.2c-3.1-1.5-5.2-4.2-7.8-6.4c-2.2-1.8-4.4-3.7-6.5-5.7
	c-1.3-1.2-2.3-2.7-3.4-4.2c-0.1-0.2,0.2-1,0.6-1.3c3.1-2.6,6.3-5.1,9.5-7.7c2.5-2,4.9-4.1,7.4-6c0.9-0.7,2-1.1,3.1-1.5
	c0.2-0.1,0.8,0.4,1,0.7c2.4,3.4,4.7,6.8,7,10.2c2.4,3.6,4.8,7.4,7.1,11.1c3.7,6.1,1.1,10.6-3.9,13.5
	C199,370.1,197.6,370.4,195.9,371z"/>
<path class="st0" d="M154.3,326.7c0.6-2.3-0.3-4.8,1.4-6.9c3.1-3.8,9.6-6.8,14.6-2.9c1.6,1.3,3.8,1.8,5.5,2.9
	c1.1,0.6,1.9,1.6,2.8,2.5c2.4,2.3,4.7,4.5,7,6.8c0.8,0.8,0.8,1.4-0.1,2c-1.7,1.3-3.3,2.7-4.9,4.1c-0.7,0.5-1.4,1-2.1,1.6
	c-2.2,1.8-4.4,3.6-6.7,5.4c-1.9,1.5-3.7,2.9-5.6,4.4c-0.7,0.6-1.1,0.7-1.7-0.2c-1.6-2.3-3.4-4.3-4.9-6.6c-1.7-2.5-3.3-5.2-4.6-8
	C154.5,330.4,154.6,328.5,154.3,326.7z"/>
<path d="M522.8,151.1c-1.5,0.8-3,1.8-4.6,2.4c-2.4,1.1-4.9,2.3-7.6,0.9c-1.1-0.6-2.3-1.5-2.9-2.6c-0.8-1.6-1.1-3.5-1.5-5.3
	c-0.4-1.6-0.6-3.1-1-4.7c-0.1-0.4-1-0.8-1.5-0.7c-2.1,0.4-4.2,1.1-6.3,1.4c-0.8,0.1-2-0.1-2.4-0.6c-0.6-0.9,0-1.9,1.1-2.1
	c3.5-0.8,6.9-1.7,10.4-2.4c0.9-0.2,1.5,0.5,1.7,1.6c0.4,2.5,0.9,5,1.4,7.5c0.1,0.5,0.3,1,0.4,1.4c1.2,3.3,2.6,4,6.5,2.2
	c0.9-0.4,1.7-1.1,2.5-1.7c1.8-1.3,3.8-1.4,5.9-1.1c1.5,0.2,2.8,2.1,2.7,3.9c-0.2,1.9-0.7,3.7-0.9,5.5c-0.1,1,0,2.2,0.5,3.1
	c0.2,0.4,1.7,0.3,2.4,0c2-1.1,4-2.3,5.9-3.6c1.3-0.8,2.3-1.9,3.6-2.7c1.4-0.9,2.5-0.3,3,1.3c0.3,1.3,0.9,2.6,0.8,3.9
	c-0.2,2.5,1.5,3.5,3.1,4.6c0.4,0.3,1.2,0,1.7-0.2c0.9-0.3,1.9-0.7,2.8-1c-0.1,1.1,0.1,2.3-0.3,3.2c-1.1,2.4-4,2.8-6.7,1.2
	c-2.5-1.4-3.7-3.6-4-6.4c-0.2-1.7-0.5-1.6-1.9-0.8c-2.9,1.7-5.9,3.3-9,4.7c-1.5,0.7-2.6,0.1-3.6-1.3c-1.1-1.6-2.6-2.9-2.2-5.1
	c0.2-1,0.4-1.9,0.7-2.9C523.7,153.6,524.2,152.4,522.8,151.1z"/>
<path d="M522.1,119c2-0.8,3.9-1.7,5.8-2.4c0.7-0.3,2.1-0.4,2.4-0.1c0.6,0.8,0.8,1.9,1,3c0,0.2-0.4,0.7-0.7,0.8
	c-1.9,0.7-3.8,1.5-5.8,1.9c-1.5,0.3-1.7,0.8-1.5,2.2c0.4,3,0.6,6,0.9,9.1c-1.5,0.2-2.6,0.4-3.7,0.5c-0.7-2.7-1.4-5.2-2-7.8
	c-0.2-1-0.6-1.3-1.6-0.9c-1.3,0.6-2.7,1.3-4.1,1.8c-0.9,0.3-2.1,0.3-3,0.1c-0.9-0.2-0.8-2.1,0.1-3c1.6-1.6,3.8-1.9,5.8-2.6
	c0.9-0.3,1.2-0.5,1-1.6c-0.6-3.2-1-6.5-1.5-9.8c-0.2-1.2,0.7-1.9,1.5-1.6c1.1,0.5,2.5,1,2.9,2.6C520.4,113.8,521.3,116.3,522.1,119z
	"/>
<path d="M548.4,133.5c3.4-0.9,6.4-1.7,9.3-2.4c0.4-0.1,1.2,0.3,1.3,0.7c0.8,1.7,0.1,3.3-1.7,3.7c-2.1,0.6-4.3,1-6.5,1.3
	c-1.2,0.2-1.6,0.6-1.4,1.8c0.4,2.1,0.8,4.3,0.9,6.4c0.1,0.9,0.5,2.4-1.3,2.6c-1.6,0.1-2.2-0.5-2.3-2.3c-0.1-1.9-0.3-3.8-0.4-5.6
	c-0.1-1.3-0.6-1.9-2-1.6c-2.5,0.6-5,1.2-7.5,1.8c-0.7,0.2-1.5,0.2-2.2,0c-0.5-0.1-1.1-0.7-1.1-1c0-0.6,0.4-1.5,0.8-1.7
	c1.4-0.6,3-1,4.5-1.5c1.9-0.6,3.8-1,5.6-1.6c0.4-0.1,0.8-0.9,0.8-1.3c-0.1-2.1-0.3-4.3-0.4-6.4c0-0.8,0-1.6,0.2-2.3
	c0.1-0.8,0.4-1.7,1.5-1.3c0.5,0.2,1,0.9,1.1,1.5c0.2,2,0.3,3.9,0.4,5.9C548,131.3,548.2,132.3,548.4,133.5z"/>
<path d="M441.2,281.6c-0.8,2-1.4,3.7-2,5.3c-0.5,1.2-1.5,1.4-2.6,0.9c-2.9-1.3-5.7-2.5-8.6-3.9c-1.4-0.7-2.9-1.4-4.1-2.4
	c-0.5-0.4-0.7-1.9-0.4-2.5c0.8-1.5,1.9-3,3.1-4.3c1-1,0.8-1.5-0.3-2.1c-2.3-1.2-4.5-2.3-6.8-3.5c-2.5-1.2-2.7-2-1.9-4.5
	c1-2.9,1.8-5.8,2.6-8.7c0.3-0.9,0.7-1.8,1.7-1.3c0.6,0.3,1.2,1.4,1.1,2c-0.3,2.5-1.1,4.9-1.4,7.4c-0.1,0.8,0.3,2,0.9,2.4
	c2.1,1.4,4.5,2.5,6.7,3.8c2,1.2,4.2,2.3,6.1,3.7c5,3.5,10.2,6.5,15.6,9.2c0.3,0.2,0.7,0.4,1,0.7c1.1,1,1.9,0.6,2.9-0.3
	c2.1-2,4.3-3.7,6.6-5.5c0.3-0.2,1.2,0.2,1.5,0.5c0.8,0.7,1.1,1.7,0.2,2.5c-1.5,1.3-3.1,2.5-4.6,3.8c-0.9,0.8-2,1.5-2.8,2.3
	c-1.7,1.9-2.9,1.8-5,0.3C447.7,285.4,444.4,283.6,441.2,281.6z M427,279.9c2.4,1.1,4.5,2,6.5,3c3.5,1.6,3.5,1.6,4.5-2
	c0.1-0.5-0.1-1.4-0.5-1.6c-2.2-1.4-4.5-2.7-6.9-4.2C429.4,276.5,428.3,278.1,427,279.9z"/>
<path d="M461,271.4c-5.6,0-12.1-4.5-13.3-10c-1.2-5.4-0.9-10.9,3.9-14.8c3.6-3,8-3.7,12.7-3.2c4.8,0.5,7.6,3.5,10,7.2
	c0.3,0.4,0.5,0.9,0.6,1.3c1.5,5.1,0.6,10-1.8,14.6c-1.2,2.3-3.4,3.3-5.7,3.9C465.3,271.1,463.1,271.2,461,271.4z M469.3,248.6
	c-0.2,0.1-0.3,0.2-0.5,0.3c-0.8-0.1-1.8,0.2-2.3-0.2c-1.9-1.4-4-1.8-6.2-1.8c-5.6,0.1-7.6,2.1-9.2,6.5c-1.3,3.7-0.9,7.5,1.9,10.6
	c2.3,2.5,4.7,4.8,8.5,4.2c1.7-0.3,3.4-0.4,5.1-0.8c1.1-0.3,2.5-0.7,3.1-1.5c2.2-3.5,3.6-7.3,2.6-11.4
	C471.6,252.5,470.3,250.6,469.3,248.6z"/>
<path d="M438.5,246.5c-3.3,1.2-6.2,2.2-9.1,3.2c-0.3,0.1-0.6,0.3-0.9,0.4c-1,0.4-2,0.2-2.3-0.9c-0.3-1,0-1.9,1.2-2.4
	c3.3-1.2,6.5-2.5,9.8-3.7c-0.7-3.3-1.4-6.6-2.1-9.9c-0.1-0.6,0-1.2,0.2-1.8c0.4-1,1.1-1.1,1.9-0.5c1.8,1.4,1.8,3.4,2,5.4
	c0.2,1.4,0.3,2.8,0.5,4.3c0.1,1,0.6,1.2,1.5,0.9c2.4-0.8,4.8-1.4,7.3-2.2c1.4-0.4,2.9-0.1,3.2,0.9c0.4,1.4-0.5,2.2-1.7,2.6
	c-2.5,0.8-4.9,1.6-7.4,2.3c-1.2,0.3-1.3,0.9-1,1.9c0.7,2.3,1.2,4.6,1.8,6.9c0.3,1-0.1,1.4-1.2,1.3c-2.3-0.1-2.3-0.1-2.6-2.5
	C439.2,250.9,438.9,248.9,438.5,246.5z"/>
<path d="M276.3,319.4c-5.1,0.4-9.1-4.7-9-10.1c0.1-4.7,2.8-6.8,8.8-7.3c4.7-0.4,9.7,3.9,9.8,8C285.9,314.5,281,319.3,276.3,319.4z
	 M271.9,313c1.4-1.1,1.6-3.6,4.2-3.2c2,0.3,3.7,0.7,4,3c0.2-0.1,0.4-0.1,0.4-0.1c2.1-1.9,2-3.7-0.5-6.3c-1.8-1.9-4-2-6.2-1.2
	c-1.9,0.7-2.6,2.5-2.9,4.3C270.7,310.8,270.4,312.1,271.9,313z"/>
<path d="M296.8,336.9c-4.2-0.8-8.5-1.6-12.8-2.5c-0.7-0.1-1.5-0.7-1.9-1.2c-1.4-1.7-2.7-3.4-4-5.2c-0.3-0.4-0.2-1.1-0.2-1.7
	c0.8,0,2-0.3,2.2,0c1.3,2.1,3.5,3.2,5.5,4.4c4.8,2.9,9.9,3.7,15,1.5c1.6-0.7,2.7-2.5,3.9-3.9c2.3-2.6,3.5-5.7,4.6-8.9
	c0.5-1.4,1-2.8,1.3-4.3c0.2-1,0.6-1.5,1.6-1.4c1,0.1,1.8,0.5,1.8,1.5c-0.2,2.9,0.1,6-0.9,8.7c-1.9,5.1-5.5,9-10.6,11.2
	C300.7,335.9,298.8,336.3,296.8,336.9z"/>
<path d="M293,298.7c0.7-1.2,1.4-2.6,2.3-3.9c1.8-3,4.6-3.6,7.8-2.8c3.5,0.9,6.4,2.6,7.5,6.2c0.6,2.2,0.6,4.5-1.6,6.2
	c-0.7,0.5-1.1,1.4-1.8,1.9c-2.4,1.8-4.8,2.1-7.9,0.9C295.4,305.6,294.2,302.5,293,298.7z M304.5,296.1c0.3,2.2-0.9,3.6-2.5,4.3
	c-1.8,0.8-2.9-0.8-3.7-2.2c-0.2-0.3-0.7-0.6-0.9-0.5c-0.3,0.2-0.8,0.6-0.8,0.9c-0.3,3.7,3.2,6.8,6.5,5.6c1.7-0.6,2.8-1.6,3.7-2.9
	c0.5-0.7,0.8-2,0.5-2.7C306.9,297.6,306.7,295.9,304.5,296.1z"/>
<path d="M294,145.4c-0.5,4.4-0.9,9.9-4.4,14.5c-1.5,2-2.8,4.2-4.7,5.7c-3.4,2.6-7.4,4.4-11.7,4.9c-0.8,0.1-1.6,0.2-2.5,0.3
	c-3.8,0.6-7.3-0.6-10.8-1.9c-3.9-1.5-6.6-4.1-8.8-7.3c-3.9-5.6-4.9-11.8-3.4-18.5c0.5-2.2,0.9-4.5,1.9-6.5c0.9-1.9,2.5-3.5,4.1-4.9
	c2.8-2.4,5.8-4.7,8.8-6.9c2.4-1.8,5.4-1.6,8.2-1.8c3.9-0.2,7.7,0.6,11.2,2.4c4.3,2.2,7.7,5.3,9.8,9.8
	C292.9,138.1,293.9,141.1,294,145.4z M290.7,145.3c-0.3-6.5-2.1-12.3-8.2-16c-5-3-10.3-3.9-15.9-2.8c-1.2,0.2-2.4,1-3.5,1.8
	c-2.2,1.6-4.4,3.2-6.5,4.9c-1.2,0.9-2.6,1.9-3.2,3.2c-3.5,7.3-5,14.7-0.5,22.1c1.5,2.4,3.4,4.8,5.6,6.3c4.5,3,9.4,4.2,15,2.6
	c6.1-1.7,11.3-4.3,14.1-10.3C289.5,153.3,290.7,149.5,290.7,145.3z"/>
<path d="M291.2,107.7c-0.5,0.3-1.1,0.6-1.6,0.9c-1.2,0.7-2.4,1.3-3.6,1.9c-0.3,0.2-1,0-1.3-0.3c-0.2-0.2-0.2-1,0-1.1
	c1.6-0.9,3.2-1.7,4.9-2.4c0.3-0.1,0.7,0.2,1,0.3C290.8,107.2,291,107.5,291.2,107.7z"/>
<path d="M305.8,154.8c0.7,0.9,1.4,1.7,1.9,2.7c0.2,0.5,0.1,1.4-0.3,1.8c-0.4,0.5-1.2,0.6-1.9,0.8c-0.2,0.1-0.8-0.3-0.7-0.5
	c0-1.5,0.2-3,0.3-4.6C305.3,155,305.6,154.9,305.8,154.8z"/>
<path d="M275.1,115c-0.4,1.5-2.7,3.6-4,3.6c-0.4,0-0.9-0.3-1-0.6c-0.2-0.3-0.1-0.9,0.1-1.2C270.8,115.6,273.3,114.7,275.1,115z"/>
<path d="M233,133c0.2-0.3,0.4-0.9,0.8-1.1c1.1-0.6,2.2-1,3.3-1.3c0.3-0.1,0.8,0.2,1,0.5c0.1,0.2-0.1,0.8-0.4,0.9
	c-0.9,0.7-1.8,1.3-2.7,1.8C234,134.4,233.1,134.1,233,133z"/>
<path d="M240.9,130.4c0.6-0.9,1-1.6,1.5-2.1c0.7-0.6,1.6-1,2.4-1.3c0.3-0.1,0.8-0.1,1.1,0.1c0.2,0.1,0.1,0.7,0,1
	C245.3,129.5,243.2,130.6,240.9,130.4z"/>
<path d="M293.1,115.4c-0.7-1.1-1.5-2.2-2.1-3.3c-0.2-0.3,0.2-1,0.3-1.5c0.5,0.1,1.1,0.1,1.5,0.4c1.2,1.1,1.3,2.6,0.9,4
	C293.5,115.2,293.3,115.3,293.1,115.4z"/>
<path d="M241.6,165c-2.2-0.6-2.2-2.4-2.8-3.9C241,160.4,242.1,161.9,241.6,165z"/>
<path d="M245.7,180.1c-0.6-0.4-1.4-0.6-1.6-1.1c-0.4-0.7-0.4-1.6-0.5-2.4c0.6,0.1,1.2,0,1.7,0.2c1.1,0.4,1.5,1.1,0.9,2.2
	C246,179.3,246,179.6,245.7,180.1z"/>
<path d="M250,124.1c1.5-0.7,2.5-1.3,3.6-1.6c0.1-0.1,0.8,0.9,0.8,1c-0.8,0.7-1.5,1.5-2.4,2C251.7,125.5,251,124.7,250,124.1z"/>
<path d="M280.3,114.3c-0.5-0.3-1-0.5-1.2-0.9c-0.1-0.2,0.3-0.8,0.5-1c0.6-0.5,1.2-0.9,1.9-1.1c0.3-0.1,0.9,0.2,1.1,0.4
	c0.1,0.3-0.1,0.9-0.3,1.1C281.8,113.4,281.1,113.8,280.3,114.3z"/>
<path d="M271.3,175.8c-0.4,0.7-0.5,1.4-0.9,1.5c-0.7,0.2-1.6,0.3-2.3,0.2c-0.3,0-0.4-0.8-0.6-1.2c0.6-0.3,1.2-0.6,1.8-0.7
	C269.8,175.5,270.4,175.7,271.3,175.8z"/>
<path d="M277.6,171.4c0.7,0.7,1.1,1.1,1.5,1.4c-0.5,0.5-1,1.3-1.6,1.5c-0.7,0.2-1.7-0.2-1.4-1.2
	C276.2,172.5,276.9,172.1,277.6,171.4z"/>
<path d="M234.7,137.8c-0.7,0.4-1.4,0.9-1.5,0.8c-0.7-0.7-1.3-1.5-1.9-2.3c0.4-0.3,1-0.9,1.1-0.9
	C233.2,136.1,233.8,136.9,234.7,137.8z"/>
<path d="M297.4,126.3c-2.2-0.1-2.4-1.3-2.8-2.4c-0.1-0.3,0.2-0.8,0.5-0.9c0.3-0.1,1.1,0,1.2,0.2C296.7,124,297,125,297.4,126.3z"/>
<path d="M296.2,165.1c-0.8,0.4-1.6,1-2.5,1.3c-0.3,0.1-0.9-0.2-1-0.5c-0.1-0.3,0-1.1,0.1-1.1c1-0.3,2.1-0.4,3.1-0.6
	C296,164.5,296.1,164.8,296.2,165.1z"/>
<path d="M299.9,133.9c-2.5-0.8-2.7-1-2.1-2.9C299.7,131.3,300.4,132.2,299.9,133.9z"/>
<path d="M302.6,143.8c-0.4,0.5-0.7,0.8-1,1.1c-0.5-0.6-1.1-1.1-1.3-1.8c-0.1-0.5,0.5-1.1,0.8-1.7
	C301.6,142.2,302.1,142.9,302.6,143.8z"/>
<path d="M286.2,167.4c0.5,0.6,1.2,1.2,1.2,1.3c-0.4,0.6-0.9,1.3-1.4,1.4c-0.4,0.1-0.9-0.8-1.4-1.3
	C285.1,168.4,285.5,168,286.2,167.4z"/>
<path d="M242.4,169.4c0.2-0.1,0.3-0.1,0.3-0.1c1.3,0.2,1.8,1.2,1.8,2.3c0,0.2-0.8,0.7-1,0.6C242.3,171.7,241.9,170.7,242.4,169.4z"
	/>
<path d="M263.6,119.7c-0.6,0.7-1.2,1.5-1.9,2.1c-0.1,0.1-0.9-0.1-1-0.3c-0.1-0.3-0.1-1.1,0.1-1.2c0.7-0.5,1.6-0.7,2.4-1.1
	C263.3,119.4,263.5,119.6,263.6,119.7z"/>
<path d="M247.4,184.3c-0.6-0.7-1-1-1.4-1.4c0.4-0.4,0.8-1,1.3-1.1c0.3-0.1,1,0.6,1.1,1C248.5,183.1,247.9,183.6,247.4,184.3z"/>
<path d="M301.3,159.8c0.6,0.8,1.1,1.2,1.1,1.6c0,0.4-0.7,1-1,1c-0.4,0-1.1-0.5-1.2-0.9C300.1,161.1,300.7,160.6,301.3,159.8z"/>
<path d="M258.9,181.4c0.1-1.9,1-2,1.9-1.7c0.4,0.1,0.6,0.8,0.9,1.2C260.8,181,260,181.2,258.9,181.4z"/>
<path d="M237.6,152.7c0.3,0.6,0.6,1.2,1,1.8c-0.3,0.2-0.7,0.4-1,0.6c-0.3-0.7-0.6-1.3-0.9-2C237,152.9,237.3,152.8,237.6,152.7z"/>
<path d="M236.6,146.8c-0.6,0.1-1.2,0.3-1.8,0.3c-0.1,0-0.2-0.7-0.3-1.1c0.6,0,1.3,0,1.9,0C236.5,146.2,236.6,146.5,236.6,146.8z"/>
<path d="M159.9,238.6c0.6-1.3,0.2-2.9,1.6-4.3c1.1-1.1,1.7-2.8,2.3-4.3c1.1-2.8,3.7-4.4,5.7-6.3c0.2-0.2,0.6-0.3,0.8-0.5
	c2-1.4,2-1.9,0.6-3.9c-1.5-2.1-2.9-4.3-4.1-6.6c-0.4-0.7-0.3-1.8-0.1-2.6c0.3-1.2,0.8-2.4,1.4-3.5c0.2-0.4,1.1-0.7,1.4-0.6
	c2.4,0.9,4.5,1.9,5.9,4.5c1.1,2,2.9,3.7,4.6,5.3c1,1,1.9-0.2,2.7-0.7c1.9-1.3,3.8-2.6,5.7-3.9c1.5-1,2.9-1.9,4.4-2.9
	c1.4-0.9,2.1-0.6,2.8,0.9c0,0.1,0.1,0.2,0.1,0.3c0.4,1,1.5,2.3,1.2,3.1c-0.4,1.4-1.4,2.9-2.6,3.9c-3,2.5-6.2,4.6-9.2,7
	c-0.2,0.2-0.2,1.1,0,1.4c0.9,1.3,2.1,2.3,2.9,3.6c1.3,2.4,2.4,5,3.5,7.6c0.4,1,0.9,1.9,1.1,2.9c0.2,1,0.3,2,0.1,2.9
	c-0.4,2.6-2.9,3.6-4.8,1.7c-2.4-2.4-4.5-5.1-6.6-7.8c-1.3-1.7-2.4-3.6-3.6-5.3c-0.8-1.2-1.5-1.3-2.5-0.2c-1.8,2-3.9,3.4-6.3,4.4
	c-0.7,0.3-1.2,0.9-1.8,1.4c-1.8,1.3-3.6,2.6-5.4,3.8C160.9,240.7,160,240,159.9,238.6z M187.1,232.9c0.4,2.7,0.4,2.7,1.6,2
	C188.2,234.2,187.6,233.5,187.1,232.9z"/>
<path class="st0" d="M427,279.9c1.3-1.8,2.4-3.4,3.5-4.9c2.4,1.4,4.7,2.7,6.9,4.2c0.4,0.3,0.7,1.2,0.5,1.6c-1,3.6-1,3.6-4.5,2
	C431.5,281.9,429.4,281,427,279.9z"/>
<path class="st0" d="M469.3,248.6c1,2,2.3,3.9,2.8,6c1,4.1-0.4,8-2.6,11.4c-0.5,0.8-2,1.2-3.1,1.5c-1.7,0.4-3.4,0.5-5.1,0.8
	c-3.8,0.5-6.2-1.7-8.5-4.2c-2.8-3.2-3.2-7-1.9-10.6c1.6-4.4,3.7-6.4,9.2-6.5c2.3-0.1,4.3,0.3,6.2,1.8c0.5,0.4,1.5,0.1,2.3,0.2
	C469,248.8,469.1,248.7,469.3,248.6z M457,255.9c0.2,4.2,4.2,6.9,8.2,5.5c0.6-0.2,1.3-0.9,1.6-1.5c1.5-3,0.1-6.3-3.3-8
	C460,250.2,457.1,252,457,255.9z"/>
<path class="st0" d="M271.9,313c-1.5-0.9-1.2-2.3-1-3.5c0.3-1.8,0.9-3.6,2.9-4.3c2.3-0.8,4.4-0.7,6.2,1.2c2.4,2.6,2.6,4.4,0.5,6.3
	c-0.1,0.1-0.2,0.1-0.4,0.1c-0.3-2.3-2-2.8-4-3C273.5,309.4,273.3,311.9,271.9,313z"/>
<path class="st0" d="M304.5,296.1c2.2-0.2,2.4,1.5,2.9,2.6c0.3,0.7,0,2-0.5,2.7c-0.9,1.3-2.1,2.3-3.7,2.9c-3.3,1.2-6.7-1.9-6.5-5.6
	c0-0.3,0.4-0.8,0.8-0.9c0.2-0.1,0.7,0.2,0.9,0.5c0.9,1.4,1.9,3,3.7,2.2C303.6,299.8,304.8,298.3,304.5,296.1z"/>
<path class="st0" d="M290.7,145.3c0.1,4.2-1.2,8.1-3,11.8c-2.9,6-8.1,8.6-14.1,10.3c-5.5,1.6-10.5,0.4-15-2.6
	c-2.3-1.5-4.2-3.9-5.6-6.3c-4.5-7.4-3-14.8,0.5-22.1c0.6-1.3,2-2.2,3.2-3.2c2.1-1.7,4.3-3.4,6.5-4.9c1.1-0.8,2.3-1.6,3.5-1.8
	c5.6-1.1,10.9-0.2,15.9,2.8C288.6,133,290.3,138.7,290.7,145.3z M266.6,158.5c2-0.7,4-0.9,5.5-1.9c2.4-1.6,4.5-3.5,6.4-5.6
	c0.8-0.8,1-2.3,1.3-3.6c0.1-0.3-0.4-1-0.8-1.1c-0.3-0.1-0.9,0.3-1.2,0.6c-0.7,0.8-1.2,1.8-1.8,2.6c-2.1,2.6-4.5,4.9-7.9,5.7
	c-2.2,0.5-4.2,0.1-6.3-0.7c-0.5-0.2-1.6,0-1.9,0.4c-0.6,0.8,0.1,1.4,0.9,1.7C262.8,157.3,264.7,157.9,266.6,158.5z M276,140.4
	c-0.9-2.2-1.8-4.3-2.8-6.4c-0.2-0.4-1.3-0.7-1.4-0.6c-1,1.2-2.4,2.5-2.7,3.9c-0.5,2.1,2,4.7,4.1,5.1
	C274.5,142.6,275.7,141.7,276,140.4z M264.2,144.4c-0.4-2.1-1-3.7-2.5-4.9c-1.3-1.1-3.3-0.6-3.9,1c-0.9,2.6-0.4,4,2.4,5.7
	c0.7,0.4,1.9,0.9,2.4,0.6C263.3,146.4,263.7,145.2,264.2,144.4z"/>
<path class="st0" d="M187.1,232.9c0.5,0.7,1.1,1.3,1.6,2C187.5,235.6,187.5,235.6,187.1,232.9z"/>
<path d="M457,255.9c0-3.9,3-5.7,6.5-4c3.4,1.7,4.8,5,3.3,8c-0.3,0.6-1,1.3-1.6,1.5C461.2,262.8,457.2,260.1,457,255.9z M463.9,256.2
	c-0.2-0.3-0.3-0.6-0.5-0.8c-0.7,0.3-1.5,0.5-1.9,1c-0.2,0.2,0.3,1.1,0.5,1.7C462.6,257.4,463.2,256.8,463.9,256.2z"/>
<path d="M266.6,158.5c-1.9-0.6-3.8-1.2-5.8-1.9c-0.9-0.3-1.5-0.9-0.9-1.7c0.3-0.4,1.4-0.6,1.9-0.4c2.1,0.8,4.1,1.2,6.3,0.7
	c3.4-0.8,5.8-3.1,7.9-5.7c0.7-0.8,1.2-1.8,1.8-2.6c0.3-0.3,0.9-0.7,1.2-0.6c0.3,0.1,0.8,0.8,0.8,1.1c-0.3,1.2-0.5,2.7-1.3,3.6
	c-2,2.1-4.1,4-6.4,5.6C270.6,157.7,268.6,157.9,266.6,158.5z"/>
<path d="M276,140.4c-0.4,1.3-1.5,2.2-2.8,2c-2.1-0.3-4.6-3-4.1-5.1c0.4-1.4,1.7-2.7,2.7-3.9c0.1-0.1,1.3,0.2,1.4,0.6
	C274.3,136.1,275.1,138.2,276,140.4z"/>
<path d="M264.2,144.4c-0.5,0.8-0.8,2-1.6,2.4c-0.5,0.3-1.7-0.2-2.4-0.6c-2.8-1.7-3.3-3.1-2.4-5.7c0.6-1.6,2.5-2,3.9-1
	C263.2,140.7,263.7,142.3,264.2,144.4z"/>
<path class="st0" d="M463.9,256.2c-0.7,0.6-1.3,1.2-2,1.8c-0.2-0.6-0.7-1.4-0.5-1.7c0.5-0.5,1.3-0.7,1.9-1
	C463.5,255.6,463.7,255.9,463.9,256.2z"/>
</svg>
