<?xml version="1.0" encoding="utf-8"?>
<!-- Generator: Adobe Illustrator 23.0.3, SVG Export Plug-In . SVG Version: 6.00 Build 0)  -->
<svg version="1.1" id="Layer_1" xmlns="http://www.w3.org/2000/svg" xmlns:xlink="http://www.w3.org/1999/xlink" x="0px" y="0px"
	 viewBox="0 0 1024 600" style="enable-background:new 0 0 1024 600;" xml:space="preserve">
<style type="text/css">
	.st0{fill:#FEFEFE;}
	.st1{fill:#070707;}
	.st2{fill:#FFFFFF;}
	.st3{fill:#0A0B0B;}
	.st4{fill:#0E0E0E;}
	.st5{fill:#0C0D0D;}
	.st6{fill:#F7F6F6;}
	.st7{fill:#3F3E3D;}
	.st8{fill:#171717;}
	.st9{fill:#121313;}
	.st10{fill:#060606;}
	.st11{fill:#080808;}
	.st12{fill:#333333;}
	.st13{fill:#323232;}
	.st14{fill:#B7B5B5;}
	.st15{fill:#3D3E3E;}
	.st16{fill:#323333;}
	.st17{fill:#FEFEFD;}
	.st18{fill:#F8F8F7;}
	.st19{fill:#FAFAFA;}
	.st20{fill:#F9F8F8;}
	.st21{fill:#F5F4F4;}
	.st22{fill:#F4F3F3;}
	.st23{fill:#F5F4F3;}
	.st24{fill:#F1EFEF;}
	.st25{fill:#EFEEEE;}
	.st26{fill:#E9E8E7;}
	.st27{fill:#ECEBEA;}
	.st28{fill:#222222;}
	.st29{fill:#191A1A;}
	.st30{fill:#E0DFDF;}
	.st31{fill:#ACABAB;}
	.st32{fill:#131414;}
	.st33{fill:#151515;}
	.st34{fill:#1A1B1B;}
	.st35{fill:#2F2F2F;}
	.st36{fill:#F2F1F1;}
	.st37{fill:#FDFDFD;}
	.st38{fill:#0F0F0F;}
	.st39{fill:#0E0F0F;}
	.st40{fill:#141515;}
	.st41{fill:#101010;}
	.st42{fill:#181919;}
	.st43{fill:#111212;}
	.st44{fill:#0B0B0B;}
	.st45{fill:#090909;}
	.st46{fill:#181818;}
	.st47{fill:#080909;}
	.st48{fill:#0A0A0A;}
	.st49{fill:#2F3030;}
	.st50{fill:#242525;}
	.st51{fill:#EDECEC;}
	.st52{fill:#FCFCFB;}
	.st53{fill:#F9F9F9;}
	.st54{fill:#3A3A3A;}
	.st55{fill:#0C0C0C;}
	.st56{fill:#F8F7F7;}
	.st57{fill:#010101;}
	.st58{fill:#6E6E6E;}
	.st59{fill:#FDFCFC;}
	.st60{fill:#E9E8E8;}
	.st61{fill:#EDECEB;}
	.st62{fill:#C7C5C4;}
	.st63{fill:#BCBBBB;}
	.st64{fill:#FFFEFE;}
	.st65{fill:#FCFCFC;}
	.st66{fill:#EAE9E9;}
	.st67{fill:#E1E0E0;}
	.st68{fill:#E6E5E4;}
	.st69{fill:#C9C8C8;}
	.st70{fill:#EAE8E8;}
	.st71{fill:#E5E4E4;}
	.st72{fill:#D7D6D6;}
	.st73{fill:#D8D8D7;}
	.st74{fill:#E2E1E0;}
	.st75{fill:#F4F4F3;}
	.st76{fill:#ECECEB;}
	.st77{fill:#D8D8D8;}
	.st78{fill:#818081;}
	.st79{fill:#0F1010;}
	.st80{fill:#2D2E2E;}
	.st81{fill:#9E9E9E;}
	.st82{fill:#EEEDED;}
	.st83{fill:#DCDBDB;}
	.st84{fill:#D6D5D5;}
	.st85{fill:#EBEAEA;}
	.st86{fill:#060707;}
	.st87{fill:#D4D3D3;}
	.st88{fill:#EBEAE9;}
	.st89{fill:#282928;}
	.st90{fill:#E2E1E1;}
	.st91{fill:#CFCECD;}
	.st92{fill:#C4C3C3;}
	.st93{fill:#161717;}
	.st94{fill:#393A3A;}
	.st95{fill:#161616;}
	.st96{fill:#1D1E1E;}
	.st97{fill:#232323;}
	.st98{fill:#2A2B2B;}
	.st99{fill:#040404;}
</style>
<polyline class="st2" points="452.5,166 460.4,166 461.7,172.2 458.8,180.8 458.2,190 457.1,218 450.5,234.8 443,248.4 437.4,261.7 
	427.6,290.2 422.8,294 418.6,287.8 416.1,271.4 431.6,242.7 435.9,237.1 441.1,229.5 446.6,217.4 449.7,201.7 451.2,190 
	446.5,183.4 444.4,177 "/>
<g>
	<path class="st1" d="M361.8,290.3C361.8,290.4,361.8,290.1,361.8,290.3L361.8,290.3z"/>
	<path class="st1" d="M441.9,287.8c-3.8-10.1-1.6-20.6-2.2-31.1c-5.3,9.8-11.3,19.2-12.2,30.7c-0.2,2.7-1.1,5.4-3.4,5.8
		c-2.4,0.4-3.5-2.2-4.1-4.7c-1.7-6.8-2.2-13.5,0.3-20.3c0.4-0.5,0.5-1.1,0.3-1.7c-1.4-1.6-1.3-4.6-4.3-4.5
		c-4.1,2.1-2.9,7.7-6.6,10.7c-1.3-4.8,1.1-7.4,4-9.7c2.8-2.3,6.1-3.9,8.6-6.5c1-0.8,2.2-1.6,3.2-2.5c5.1-6.9,8.4-14.6,11.4-22.5
		c1-2.7,2.2-6.8-0.8-7.9c-6.8-2.6-4.9-6.8-2.7-10.8c1.9-3.6,0.2-5.4-2.1-7.3c-0.9-0.8-2.2-1-3.2-1.6c-0.8-0.4-2.2,0-2.1-1.7
		c9,2,10.3,9.2,11.4,16.6c0.4,2.7-1.3,6.7,3.5,7.4c0.4-0.6,0.4-1.3-0.1-1.9c-0.4-5.9,0.6-11.9-1.7-17.6c-2-5.1-10.7-13.3-14.3-10.9
		c-6.5,4.4-10.3,3-16-2c-6.6-5.9-15.6-2.8-23.5,5.8c-0.9,1.6,0.1,2.6,1.1,3.6c4.5,1.4,9.5-1.6,13.8,1.5c0.7,0,1.3-0.2,1.8-0.6
		c3.8-4.6,3.2-7.8-3.5-9.5c7,1.2,10.7,5.1,12.7,11c0.6,1.8,1.1,3.7,3,4.8c1.5,0.5,2.3-0.9,3.5-1.3c-0.9,1.8-2.1,3.3-2.9,5.1
		c-1.1,1.7-1.4,4-3,4.9c-1.6-6.8-4.8-2.4-7.4-1.1c-1.6,0.9-3.2,2.2-5.2,1c0.1-2.3,2-3.9,1.8-6.2c-0.2-2.3-1.5-4.3-3.6-3.1
		c-5.2,2.8-11.5,4.6-14,10.7c-5.1,12.2-0.4,24.7-0.7,37.1c0,0.8,0.6,2,1.8,2c1.6,0,1.8-1.3,2-2.5c0.2-1.2-0.2-2.4-0.7-3.5
		c1.4,2.8,1.8,5.8,2.3,8.8c0.5,2.8-0.1,4.8-3.3,5.3c-0.7,0.2-1.2,0.6-1.6,1.2c-1.2,3.8-2.8,8.2-6.8,8.4c-3.5,0.2-4.1-4.7-5.9-7.4
		c-1.8-2.5-3.1-5.6-7.2-4.5c-0.5,2.2,2.8,3.6,0.7,6.4c-2.3,3.2-1.8,7.2-1,11c0.6,0.5,1.2,0.6,1.9,0.5c0.6-0.4,1.1-0.9,1.5-1.5
		c1-1.8,1.4-3.7,1.2-5.1c4.5,4,1.4,8.8,0.6,13.6c-1,1.9,2,5.4-2,5.8c-3.2,0.3-4.5-2-4.6-5.1c0-0.2,0-0.3,0-0.3c0,0-0.1-0.1-0.1-0.4
		c-0.2-0.6-0.6-1.2-1.1-1.6c-0.7,3.6-9.5,7.8-0.4,10.7c6.9,2.2,10.9,4.7,9.3,12.5c-0.2,1,0.7,2.3,0.7,3.5c0,10.7,1.8,21.2,1,32
		c-0.9,12.9-3.6,25.4-6.3,38c-1.8,8.6-2.9,17.7-10.4,24c-1.6,1.3-2.4,3,0.8,4.8c8.6,4.8,8.6,6.9,2.8,14.9c-3.6,5-7.4,11.1-5.4,16.9
		c2.6,7.8,4.5,15.9,8.5,23.3c7.8,14.8,18.2,28.1,26.4,42.7c1.9,3.3,2.9,6.1,2.4,10.1c-0.4,4-7.2,9.2,1.2,12.5
		c-0.3,0.6-0.6,1.3-0.8,1.9c-2.9,7.4-2.6,15.5-5.8,22.8c-0.8,1.8-1,4.5-0.3,6.3c1,2.4,0.4,6.6,4.1,6.8c3.3,0.2,5.6-1.7,7.7-5
		c5.4-8.4,9.1-17.6,13-26.7c0.5-0.3,0.9-1.4,1.4-1c0.5,0.5,0.2,1.6-0.3,2.3c0.5,5.5-1.8,10.1-4.1,14.8c-1.6,3.4-3.1,7.7-1.6,10.7
		c1.5,3,5.3,5.3,9.6,4.9c4-0.4,6.9-2.8,9.2-5.8c7.6-9.9,9.2-21.7,9-33.7c-0.1-6.3-2.5-12.9-1.5-18.9c2.8-16.5,0.7-32.9,1.1-49.3
		c0.2-7.4,0.5-14.8-1.2-22.2c-1.2-5,0-13.4,1.9-14.3c7-3.3,4-8.1,3.6-12.3c-0.6-7.3-1.6-14.7-2.8-22c-1.9-10.9-2.6-21.9-9.5-31.6
		c-6.2-8.6-11.2-17.9-9.5-29.6c0.9-6.7,2.7-13,5.3-19c4.3-10.2,6.5-22.5,21.1-23.7C441.8,289.7,442.2,288.7,441.9,287.8z
		 M414.4,522.4c-12.6-22.7-23.2-44-31.2-66.6c-1.5-4.1,3-21.5,6.3-23.8c2.7-1.9,5.9-1.5,8.9-0.2c2.2,1,4.7,1.9,4.3,5
		c-1.5,11.3,2.8,21.9,4.8,32.7c1.7,9.7,3,19.4,3.6,29C411.5,505.9,414.5,512.8,414.4,522.4z"/>
</g>
<path class="st0" d="M383.7,267.3c2.6,7.5-6.1,8.2-7,13.5c-7-4.3-5.7-14-13.7-16.3l0.3,0.2c-0.5-4.8-2.5-9.1-4.5-13.3l0.2,0.3
	c-2.9-8.4-5.2-16.6-3.9-25.8c1.6-11.3,6.2-21.4,12-30.7c4.5-7.1,8.2-14.8,13.8-21.1c2.3-2.6,2.9-6,2.8-9.5c-0.1-4-0.1-8.1,1.6-12
	c4.1,0.8,1.8,4.6,3.2,6.3c-0.2-4.1,2.4-3.8,5-3c3.1,0.9,7.1,1.1,6.8,5.9c-0.1,2.5-1.5,4.5-2.7,6.6c-5.2,8.9-9.9,18.2-13.9,27.7
	c0,0.9,0,1.8,0,2.7c-4.9,8.4-10.3,16.6-11.8,26.6c-1,6.5-2,12.8,2.1,18.7c0.3,0.6,0.6,1.3,0.8,1.9
	C375.8,253.8,379.8,260.6,383.7,267.3z"/>
<path class="st3" d="M383.7,196c0.5-9.8,8-16.7,10.8-25.6c0.4-1.3,1.5-2.4,2.2-3.6c4.3-7.8,3.2-9.2-5.8-10c-2.4-0.2-1.3,0.9-1.3,1.3
	c-0.1,2.2,0.4,4.5-2.5,5.8c-0.3-3.3-0.5-6.8-0.8-10.2c-0.4,0-0.8,0.1-1.2,0.1c0,3.7-0.1,7.5,0,11.2c0.1,3.7-1,7-3,10
	c-7.3,10.6-14.7,21.2-19.7,33.1c-3.6,8.7-8,16.8-5.8,27.6c1,4.9,4.1,10.4,2.4,15.9c-5.4-8.3-5.3-17-5.2-26.8
	c0.3-19.9,12.5-32.8,22.9-47.1c3.2-4.5,6.3-8.9,5.6-14.9c-0.7-5.5,2.1-10.4,3.3-15.5c2.8,0.3,2.1,2.9,3.2,4.4c0.3-0.4,0.5-0.7,0.7-1
	c0.9-2.8,0.2-7.7,4.4-7.3c5.2,0.6,12.3,0,12,9.3c-0.2,6.2-1.6,10.9-5.8,15.8c-4.4,5-7.1,11.5-10.3,17.5
	C387.8,189.4,386.2,193,383.7,196z"/>
<path class="st4" d="M373.2,245c-2.6-0.8-3-3.4-3.6-5.4c-2.8-9.4,3.9-34.6,14-40.8c0.4,0.3,0.9,0.3,1.4,0.1c0.6,1.2,1.1,2.3,1.7,3.5
	c-7.5,12.4-6.3,26.1-5.1,39.6c0.6,7.7-0.9,15.8,3.1,23.1c0.4,0.8-0.4,1.8-1.1,2.5l0.1-0.2c-8-5.4-9.6-13.9-10.7-22.6
	c3.8,0.5,3.3,3.3,3.5,5.8c-0.5-5.3-0.7-10.8-0.5-16.6C372.8,237.4,376.3,241.9,373.2,245z"/>
<path class="st5" d="M440.3,225.4c0.1-0.7,0.1-1.3,0.2-2c7.5-13.8,12.4-27.6,1.3-42c-2.8-3.6-0.6-6.2,0.5-10.1
	c2-7,6.4-8.4,11.2-10.9c0.6-0.3,1.3-0.6,1.9-0.6c3.2,0.1-2.1,5.2,3,4.9c4.9-0.4,3.5,3.7,3.4,6.6c-2.5,0.7-1.3-2.3-2.7-2.8
	c-1.2,1.3-2.3,2.6-4,4.5c-0.2-3.2-0.4-5.6-0.6-8.1c-0.9,4.8-2.7,8.9-6,12.7c-1.6,1.8-4.9,5.9,0.7,7.9c2,0.7,1.1,2.3,1.2,3.6
	c1.4,14-2.4,26.8-8.7,39C440.6,227.7,439.9,226.9,440.3,225.4z"/>
<path class="st6" d="M440.3,225.4c0.5,0.9,1,1.8,1.5,2.7c-1.5,3-3,5.9-4.4,8.9c-2.3,2.8-3.3,6.4-5.4,9.3c-1.4,2.4-3,4.8-4.7,7
	c-0.9,1.2-2.6,2.6-3.3-0.5c4.8-9.6,11.9-18.3,12-30.1c-2.4,0.6-2.2,3.5-4.7,3.7c-0.3-0.4-1-0.8-1-1.4c-0.6-3.6,0.2-7.2-0.7-10.8
	c-0.3-1.3-0.9-5.4,3.2-2.7c0.9-3.9-1.1-6.5-4.5-6.6c-3.6-0.1-5.5-2-7.5-4.3c6.9-3.1,14.2,1.2,16.7,8.9
	C439.2,214.9,437.6,220.5,440.3,225.4z"/>
<path class="st7" d="M424.1,252.8c0.4,1.4,0.8,2.2,2,0.5c1.8-2.6,3.7-5.1,5.6-7.7c0.6,0.3,1,0.7,1.1,1.4
	c-3.7,7.2-6.8,14.7-12.7,20.6c0-0.5,0-1.1-0.1-1.6c-1.4-1.5-0.2-3.4-0.7-5c-0.1-2.6,1.8-4.5,2.1-6.9
	C421.9,252.7,423,252.8,424.1,252.8z"/>
<path class="st8" d="M453.1,225c0.5-6.6,4.4-12.6,3.8-19.4c1.2,6.9,2.1,13.9-4,19.3L453.1,225z"/>
<path class="st9" d="M358.8,251.3c3,3.9,7,7.5,4.5,13.3C360.6,260.6,359.2,256.1,358.8,251.3z"/>
<path class="st10" d="M452.5,232.6c-1.2,4.1-2.1,8.3-5.2,11.4c-1.6-4.6,2.5-7.6,3.2-11.6C451.2,231.9,451.9,231.9,452.5,232.6z"/>
<path class="st11" d="M458.7,186.9c0.4,5.5,1.2,10.7-0.3,17.8C457.6,197.4,457.5,192,458.7,186.9z"/>
<path class="st11" d="M432.7,247c-0.4-0.5-0.7-0.9-1.1-1.4c2-2.8,2-6.9,5.8-8.5C437.1,240.9,434.7,243.9,432.7,247z"/>
<path class="st12" d="M459.2,168.6c0.9,0.9,1.8,1.8,2.7,2.8c-0.5,2.4-1,4.9-1.5,7.3c-1.3,0.1-2-0.2-1.2-1.6
	C459.2,174.2,459.2,171.4,459.2,168.6z"/>
<path class="st13" d="M362.9,281.9c0.5,0,1,0,1.5,0.1c1.3,3.9,0.2,6.4-4,7.3c0-0.5,0-1.1,0-1.6C360.2,285.3,361.5,283.6,362.9,281.9
	z"/>
<path class="st14" d="M408.8,539.6c1.1-1.3,0.1-3.9,3.4-4.8c-0.6,2.4,0,4.6-2.2,6.1C409.5,540.5,409.1,540.1,408.8,539.6z"/>
<path class="st15" d="M459.2,177c0.4,0.6,0.8,1.1,1.2,1.6c-0.6,1.6-1.3,3.1-2.5,6C456.5,180.6,457.4,178.7,459.2,177z"/>
<path class="st16" d="M452.5,232.6c-0.7,0-1.4-0.1-2-0.1c2.4-1.9,0.4-5.4,2.6-7.4c0,0-0.2-0.1-0.2-0.2
	C453.4,227.5,454.6,230.1,452.5,232.6z"/>
<path class="st2" d="M409.6,428.9c-14.4-1.8-31.1-3.5-45.5-13.4c-4.2-2.9-5-5.4-2.6-11c6.5-15.2,10.5-31.3,12-47.9
	c0.7-7.2,0.9-14.4,1.5-21.6c0.8-9.5-1.5-18.7-1.7-28.1c-0.1-10.5,0.8-20.5,9.9-27.9c6.1-5,6.2-5.8,11.5,0.4c5.6,6.6,10.7,3.9,15.5,0
	c3.7-3,4.4-0.4,5.2,2c2.2,5.8,0.4,12.8,5.4,17.9c1.3,1.3-1.2,3.5-2.2,4.9c-5.8,7.5-7.5,16.8-8.1,25.4c-0.8,11.7,2.4,23.3,9.8,33.2
	c10.7,14.6,10.3,31.6,9.6,48.6c0,0.9-0.8,1.8-0.9,2.7C426.9,426.4,424.2,428.8,409.6,428.9z"/>
<path class="st2" d="M398.2,520.5c-1.1-0.3-2.5,1.7-3.1,0c-6.5-16.7-17.6-30.6-26.8-45.7c-5.7-9.3-8.5-19.8-13-29.6
	c-1.7-3.7,2.2-4.3,2.3-6.9c0.2-5.6,3.2-10.7,6.6-14.6c4.6-5.2,9,1.6,13.6,2.4c10.2,1.8,10.1,2.2,6.1,11.7c-2.6,1.7-1.5,5-3,7.1
	c-4,10.4,2.7,18.6,6.2,27.2c5.6,13.9,12.2,27.5,18.4,41.2c-0.1,0.3-0.1,0.6-0.2,1C403.7,517.3,401.7,519.8,398.2,520.5z"/>
<path class="st0" d="M428.3,538.6c-0.8-4.6-2.3-6.4-6.8-6c-3.6,0.3-6.5-1.8-5.1-7c2.1-8-0.1-16.2-2.4-23.8
	c-1.4-4.9-0.2-9.5-0.7-14.3c-1.2-11.4-4.9-22.2-6.7-33.5c-0.9-5.6-0.1-11.3-2-17c-1.1-3.1,2.2-4,5.2-3.9c5.3,0.2,10.3-0.2,14.9-3.6
	c2.9-2.2,4.6-0.2,3.9,3c-1.4,6.7,0.7,13.6-1.3,20.3c-1.8,5.9,3,10.8,2.9,16.8c-0.5,16.9-2.2,33.7-1.6,50.6
	C428.8,525.9,432.5,531.7,428.3,538.6z"/>
<path class="st17" d="M409.3,225.4c1.5,4.1-0.7,8.1,1.5,11.8c1,1.6,1.2,4,3.5,3.9c1.8-0.1,2.7-1.8,3.4-3.4c0.8-2,2.3-4.1,2.1-6
	c-0.4-5.6,5-2.2,6.5-4.6c1.6,1.8,2.5,3.7,2.5,6.2c-0.4,9.6-5.2,16.7-12.5,22.4c-0.5,0.4-1.3,0.6-1.9,0.8c-8.1,3.3-11.3,9.5-9.4,17.7
	c0.9,4-1.2,3.7-3.2,3.3c-5.5-1.3-10.6-2.9-9.5-10.7c0.8-5.8-0.1-11.4-3.3-17c-5.3-9.2-5.1-19.5-1.8-31.7c0.6,2.8,0.7,4.3,1,4.3
	c7.6,1.5,5.5,7.2,5.8,12.2c0.1,2.1,0.5,5.1,3.5,5.2c3.7,0,4.4-3.4,5-6C403.9,227.2,403.7,227.1,409.3,225.4z"/>
<path class="st18" d="M383.6,267.5c-5.4-15.1-3.9-30.9-4.1-46.5c-0.1-6.9-1.1-14.8,7.3-18.7c3.8,0,6.8-3.8,11.2-1.9
	c1.8,0.8,1.5,2,2.2,3c3.8,2.4,2,6.9,3.8,10c0.9,1.4,1.7,2.9,1.7,4.6c-2.8,4.6-7.3,2.3-11.7,2.9c2.5-3.8,6.6-6.4,5.5-11.4
	c-15.8,7.1-19.1,14.1-15.9,31.3c1,5.6,0.2,11.5,0.2,18c2.7-2.6,0.6-5.3,1.8-7.3c3.8,3.4,4.5,8,4.8,12.8c0.1,1.9-0.3,3.9-2.1,5.1
	C385.7,271,385.5,267.1,383.6,267.5z"/>
<path class="st19" d="M405.4,513.3c4.6,3.2,6.4,7.1,3.9,12.8c-4.2,9.6-8.2,19.3-14.3,28.4c-3.7-4.7-4.8-8.6,0.2-12.1
	c1-0.7,1.5-1.1,0.2-1.7c-0.6-0.3-1.4-0.2-2.8-0.3c3.6-2.6,7.1-4.2,1.8-8.9c-3.5-3.1,5.1-4.4,4.3-8.6c0-0.3,0.6-0.7,0.9-1.1
	c2.2-2.8,3.9-5.9,6-8.7L405.4,513.3z"/>
<path class="st20" d="M415.1,532.7c5.4,11.7,7,12.7,12.2,7.2c0,3.9,0,7.1,0,10.3c-0.1,4.7-1.9,10.1-5.4,11.5c-3,1.1-7.8-2-11.5-3.9
	c-2.5-1.3-0.9-4.3-0.2-5.7C412.9,546.2,413.1,539.8,415.1,532.7z"/>
<path class="st20" d="M405.6,218c-0.8-0.9-1.6-1.9-2.4-2.9c-2.9-3.6-0.4-8-1.7-11.8c2.3-5.4,0.9-8.7-7.1-8.8
	c10.4-2.2,16,1.1,18.4,9.3c0.5,1.8,1,3.7,1.4,5.5c1.3,1.2,2.5,2.4,1.6,4.4c-1,4.3-2.8,7.8-8,8.5c0-3.1,2.3-4.8,3.7-7.1
	C408.1,214.5,407.6,217.7,405.6,218z"/>
<path class="st21" d="M421.4,254c1.7,3.1-0.5,5.3-1.7,7.7c-0.9,0.8-1.8,0.8-2.8,0c-2.9,2.7-3.7,6.5-4.1,10c-0.3,3-2.3,4.1-4,3.9
	c-2-0.2-2.2-2.8-2-4.8c0.3-3.9,0.9-7.3,4.9-9.5C415.3,259.3,418.2,256.4,421.4,254z"/>
<path class="st22" d="M437.2,266.9c1.1,5.9-1,12,1.4,17.8c0.8,1.9,0,2.9-2.3,3.2c-2.3,0.3-4.5,1.4-7.4,2.3
	C429.4,281.6,432,274,437.2,266.9z"/>
<path class="st23" d="M360.4,289.2c2.2-2,3.1-4.6,4-7.3c0.2-0.5,0.5-0.9,0.7-1.4c0.7-0.4,1.3-0.2,1.8,0.4c1.1,1.9,1.1,4,0.9,6.1
	c-0.3,1.2-2,3.2,1.4,2.3c-0.2,3,2.9,5.6,0.6,9.3C366.6,295.3,357,299.4,360.4,289.2z"/>
<path class="st6" d="M426.8,209.6c2.6,5.9-1.9,10.4-2.9,15.7C417.7,221.2,418.7,216.2,426.8,209.6z"/>
<path class="st24" d="M366.6,280.7c-0.5-0.1-1-0.1-1.6-0.2c1.2-2.6,1.6-5.4,0.3-9.1c7.8,8.3,7.8,8.3,3.8,17.8c-1.6,0.7-3,1.2-3-1.4
	C367.6,285.5,367.1,283.1,366.6,280.7z"/>
<path class="st25" d="M416.8,234.3c-7.6-3.4-5.3-8.1-1.9-12.8C418.3,225.5,417.7,230,416.8,234.3z"/>
<path class="st26" d="M415.7,213.8c-0.5-1.5-1-2.9-1.6-4.4c0.4-0.2,0.9-0.2,1.2-0.5c1.4-1.7,0.7-6.5,4.1-4.9
	c4.7,2.1-1.4,3.6-1.4,5.9C418.1,210.8,417.7,213.2,415.7,213.8z"/>
<path class="st27" d="M396.2,228.8c0.8-1.3-0.2-3.5,2.5-3.7c1.9-0.1,2.9,0.5,2.3,2.3c-0.5,1.6-1.5,3-2.3,4.5
	C397.4,231.2,396.3,230.4,396.2,228.8z"/>
<path class="st28" d="M405.5,513.1c-0.3,4.1-2.3,7-6,8.7c-0.5-0.4-0.9-0.9-1.4-1.3C401.3,518.7,401.8,514.3,405.5,513.1z"/>
<path class="st29" d="M401.4,203.3c2.5,3.7,0.2,8,1.7,11.8c-4.6-3-0.3-8.3-3.1-11.7C400.5,203.3,401,203.3,401.4,203.3z"/>
<path class="st0" d="M380.7,444.9c1.2-2.3-2.9-6.8,3-7.1C383.7,440.6,382.5,442.9,380.7,444.9z"/>
<path class="st30" d="M417,261.7c0.9,0,1.8,0,2.8,0c1.3,1.3-0.3,2.9,0.3,4.2C416,266.6,419.3,262.1,417,261.7z"/>
<path class="st21" d="M373.2,245c-1.9-6,0-11.3,3.7-16.6c0,7.9,0,15.9,0,23.8c-1.2-2.3-2.5-4.9-3.8-7.4
	C373.1,244.7,373.2,245,373.2,245z"/>
<path class="st31" d="M377.2,218.8c1,3.6,0.7,5.5-1.6,6.8C373.8,222.9,375.9,221.5,377.2,218.8z"/>
<path class="st32" d="M406.8,248.6c1-0.3,2.4-0.4,2.5,0.6c0.3,4.2-2.8,6.8-5.7,9.1c-1.7,1.4-3.5,0.4-5-1.2c-2.5-2.7-3-5.5-0.3-8.4
	c0.2,0.2,0.5,0.5,0.7,0.7c2.5,6,4.7,2.8,7-0.2C406.2,248.9,406.5,248.8,406.8,248.6z"/>
<path class="st33" d="M398.3,248.6c0.1-1.6-0.1-3.3,2.5-3.1c2.5,0.2,5,0.4,7.4-0.9c0.7,1.8-0.6,2.8-1.3,3.9l0.2-0.1
	c-3,2.4-5.9,2.4-8.9,0L398.3,248.6z"/>
<path class="st1" d="M414.3,552.2c0.4-1.5,1.9-0.8,2.8-1.3c1.9-1.1,3.7-2.3,5.7-0.6c0.5,0.5,0.1,1.8-1,2.2c-1.9,0.7-2.7,4.9-5.9,1.6
	C415.4,553.5,414.2,553.5,414.3,552.2z"/>
<path class="st34" d="M434.7,275.6c1.3,3.5,1.7,6.8,0,10.1C434.7,282.4,434.7,279,434.7,275.6z"/>
<path class="st35" d="M366.6,280.7c1.8,3.6,1.6,6.2-0.4,7.1C366.3,285.4,366.5,283.1,366.6,280.7z"/>
<path class="st36" d="M398.1,248.4c3,0,5.9,0,8.9,0c0,0.5,0.1,1.1-0.1,1.4c-1.6,2.3-1.7,6.7-5.9,5.8
	C397.1,254.8,398.7,251,398.1,248.4z"/>
</svg>
