<?xml version="1.0" encoding="utf-8"?>
<!-- Generator: Adobe Illustrator 23.0.3, SVG Export Plug-In . SVG Version: 6.00 Build 0)  -->
<svg version="1.1" id="Capa_1" xmlns="http://www.w3.org/2000/svg" xmlns:xlink="http://www.w3.org/1999/xlink" x="0px" y="0px"
	 viewBox="0 0 842 493" style="enable-background:new 0 0 842 493;" xml:space="preserve">
<style type="text/css">
	.st0{clip-path:url(#SVGID_2_);}
	.st1{fill:#FFFFFF;}
	.st2{fill:none;}
</style>
<g>
	<defs>
		<rect id="SVGID_1_" x="160.41" y="-118.79" width="539.18" height="763.24"/>
	</defs>
	<clipPath id="SVGID_2_">
		<use xlink:href="#SVGID_1_"  style="overflow:visible;"/>
	</clipPath>
	<g class="st0">
		<path class="st1" d="M302.06,499.29c-16.71,0-33.41,0-50.12,0c0.88-5.95,1.67-11.92,2.66-17.85c0.63-3.76,1.65-7.45,2.32-11.2
			c0.89-5.04,1.64-10.1,2.41-15.16c1.02-6.74,2.19-13.46,2.97-20.23c1.02-8.87,1.64-17.79,2.6-26.67c0.83-7.68,1.86-15.34,2.88-23
			c0.18-1.36,0.78-2.66,1.2-4.04c0.92-0.13,1.71-0.32,2.49-0.34c5.42-0.12,10.84-0.36,16.25-0.23c2.27,0.05,3.88-0.46,4.9-2.66
			c12.11,0.17,24.16,0.3,36.21,0.53c4.27,0.08,8.55-0.31,12.82,0.6c4,0.86,8.11,1.23,12.17,1.82c0.66,0.1,1.33,0.2,2.04,0.31
			c0.29,2.56,0.46,4.96,0.86,7.32c0.66,3.85,1.5,7.66,2.21,11.5c0.95,5.13,1.75,10.28,2.8,15.39c1.42,6.88,3.06,13.72,4.52,20.59
			c1.53,7.16,2.31,14.48,4.63,21.48c2.37,7.12,4.57,14.3,6.84,21.45c1.91,6.02,3.42,12.17,6.51,17.77c0.41,0.74,0.37,1.74,0.54,2.62
			c-17.71,0-35.42,0-53.14,0c-1.46-2.44-2.24-5.06-2.58-7.9c-0.5-4.18-1-8.39-1.96-12.47c-2.45-10.42-5.16-20.78-7.78-31.22
			c-1.85-0.55-1.8-0.59-2.7-1.71c-0.38-0.47-1.03-0.72-1.56-1.07c-0.35,0.56-0.78,1.08-1.05,1.67c-1.22,2.6-0.83,5.5-1.42,8.2
			c-2.05,9.41-4.24,18.79-6.45,28.16C304.86,488.41,303.43,493.84,302.06,499.29z"/>
		<path d="M384.79,499.29c-0.17-0.88-0.12-1.87-0.54-2.62c-3.09-5.59-4.6-11.75-6.51-17.77c-2.27-7.15-4.48-14.33-6.84-21.45
			c-2.33-7-3.11-14.32-4.63-21.48c-1.46-6.87-3.11-13.71-4.52-20.59c-1.05-5.11-1.85-10.26-2.8-15.39
			c-0.71-3.84-1.55-7.65-2.21-11.5c-0.4-2.36-0.57-4.76-0.86-7.32c-0.71-0.11-1.37-0.22-2.04-0.31c-4.06-0.59-8.16-0.97-12.17-1.82
			c-4.27-0.91-8.55-0.52-12.82-0.6c-12.05-0.22-24.1-0.36-36.21-0.53c-1.02,2.2-2.63,2.71-4.9,2.66
			c-5.41-0.13-10.83,0.11-16.25,0.23c-0.79,0.02-1.57,0.21-2.49,0.34c-0.42,1.38-1.02,2.69-1.2,4.04c-1.02,7.66-2.05,15.32-2.88,23
			c-0.96,8.88-1.57,17.8-2.6,26.67c-0.78,6.77-1.95,13.49-2.97,20.23c-0.77,5.06-1.51,10.12-2.41,15.16
			c-0.67,3.75-1.69,7.44-2.32,11.2c-0.99,5.93-1.78,11.9-2.66,17.85c-1.01,0-2.01,0-3.02,0c-0.1-2.61-0.13-5.18,0.88-7.71
			c0.42-1.06,0.3-2.34-0.05-3.62c-0.26,1.12-0.52,2.24-0.78,3.36c-0.09-0.01-0.18-0.01-0.27-0.02c0-1.87-0.24-3.79,0.05-5.61
			c0.56-3.45,1.44-6.86,2.18-10.28c0.21-0.97,0.36-1.94,0.55-2.92c0.18-0.97,0.31-1.96,0.56-2.91c0.18-0.67,0.62-1.28,0.76-1.95
			c0.81-3.89,1.64-7.77,2.33-11.68c0.94-5.33,1.92-10.67,2.6-16.04c1-7.95,1.72-15.93,2.63-23.89c0.64-5.65,1.39-11.29,2.1-16.93
			c0.32-2.59,0.69-5.17,1-7.77c0.32-2.75-0.54-5.62,0.94-8.26c0.15-0.27-0.08-0.76-0.12-1.03c-2.91-2.11-6-2.45-9.41-2.41
			c-4.49,0.05-8.99-0.64-13.49-0.93c-1.68-0.11-3.37-0.02-5.11-0.02c-1.17-2.73-1.08-2.88,3.18-4.92c-1.32-1.98-0.42-3.85,0.22-5.84
			c1.54-4.77,2.94-9.59,4.31-14.42c0.22-0.76,1.15-1.92-0.5-2.39c0.17-0.51,0.2-1.3,0.55-1.48c1.27-0.66,1.45-1.84,1.76-2.99
			c1.8-6.69,3.59-13.37,5.38-20.06c0.46-1.74,0.93-3.48,1.28-5.24c0.32-1.6,0.63-3.14,2.13-4.16c0.36-0.24,0.55-0.84,0.66-1.31
			c1.57-7.14,4.52-13.95,4.79-21.4c0.06-1.61,1.09-3.16,1.51-4.78c1.44-5.53,2.58-11.15,4.25-16.61c1.5-4.91,2.61-9.86,3.49-14.91
			c0.46-2.62,1.7-5.1,2.28-7.7c0.52-2.33,0.62-4.74,0.95-7.49c-5.7-0.76-11.21-1.52-16.73-2.22c-5.34-0.68-10.68-1.3-16.38-1.98
			c1.75-3.5,3.34-6.68,5.03-10.06c-1.07-0.63-1.86-1.38-2.77-1.57c-4.18-0.89-7.22-3.75-10.6-5.99c-1.08-0.71-2.02-1.63-3.01-2.47
			c-0.53-0.46-0.96-1.07-1.55-1.42c-6.15-3.74-12.31-7.48-18.51-11.15c-3.1-1.84-6.17-3.76-9.43-5.26
			c-5.77-2.66-11.01-6.13-16.17-9.78c-2.12-1.5-4.17-3.22-6.5-4.27c-3.3-1.49-4.29-4.01-3.9-7.2c0.81-6.67,1.88-13.31,2.74-19.97
			c0.44-3.46,0.63-6.95,0.98-10.42c0.53-5.19,1.27-10.36,1.6-15.56c0.35-5.69,2.64-10.9,3.65-16.41
			c2.14-11.66,5.14-23.12,7.98-34.61c0.36-1.46,0.48-2.98,0.76-4.45c0.72-3.73,1.22-7.49,3.32-10.87c0.7-1.13,0.71-2.93,0.5-4.34
			c-0.61-4.06-1.5-8.07-2.28-12.1c-0.15-0.79-0.37-1.58-0.4-2.37c-0.08-2.11,1.31-3.07,3.09-2.01c1.06,0.63,1.87,1.67,3.09,2.79
			c-0.06-1.34-0.03-2.57-0.19-3.77c-0.44-3.23,0.84-5.42,3.82-6.63c2,0.22,1.71,2.22,2.4,3.2c1.78-2.08,3.51-4.11,5.39-6.3
			c0.9,0.82,1.52,1.39,2.15,1.96c1.69-1.52,1.69-1.52,3.62-1.74c0.37,0.97,0.76,1.98,1.24,3.24c0.75-0.67,1.29-1.23,1.91-1.67
			c1.17-0.85,2.03-0.62,2.58,0.75c0.37,0.92,0.66,1.92,0.71,2.9c0.21,4.24-0.28,8.39-1.56,12.49c-1.55,4.97-2.84,10.03-4.24,15.05
			c-0.05,0.19-0.13,0.47-0.04,0.58c1.65,2.09,0.07,3.99-0.37,5.93c-1.42,6.36-2.5,12.77-3.35,19.24c-0.63,4.77-1.58,9.5-2.44,14.24
			c-1.01,5.63-1.91,11.28-3.14,16.86c-1.27,5.77-2.89,11.46-4.34,17.2c-0.24,0.97-0.46,1.96-0.54,2.95
			c-0.39,5.1-0.78,10.2-1.07,15.31c-0.13,2.19-0.02,4.39-0.02,5.88c1.29,1.4,2.07,2.36,2.97,3.19c1.55,1.42,3.1,2.84,4.78,4.09
			c2.81,2.1,5.71,4.08,8.57,6.11c4.74,3.37,9.46,6.77,14.24,10.08c1.48,1.02,3.15,1.76,4.72,2.66c4.26,2.43,8.51,4.89,12.78,7.32
			c0.92,0.53,1.89,0.97,3.31,1.7c0.35-2.83,0.8-5.18,0.89-7.54c0.15-3.93,1.55-5.41,5.53-4.93c4.38,0.54,8.75,1.3,13.09,2.12
			c5.03,0.95,10,2.22,15.05,3.04c3.45,0.56,7,0.53,10.5,0.88c2.69,0.27,5.37,0.72,8.04,1.13c2.38,0.36,4.25-0.17,5.74-2.29
			c1.67-2.37,3.72-4.46,5.48-6.78c2.6-3.42,3-7.38,2.45-11.48c-0.19-1.4-0.87-2.43-2.33-3.18c-3.66-1.86-7.21-3.94-10.72-6.09
			c-4.29-2.62-8.61-5.33-11.69-9.38c-6.97-9.18-11.24-19.4-11.41-31.12c-0.11-7.54-0.2-15.07,0.96-22.55
			c0.08-0.49,0.11-1.02,0.03-1.5c-0.85-5.34-0.12-10.61,0.78-15.72c-1.16-1.2-2.23-2.32-3.41-3.54c-1.4,0.83-0.53,4.09-3.86,3.83
			c0.8-1.99,1.57-3.75,2.2-5.55c0.63-1.79,1.3-3.6,1.61-5.46c0.61-3.63,0.98-7.3,1.52-11.47c-2.18,2.92-2.95,5.92-3.45,9
			c-0.3,1.88-0.48,3.78-0.65,5.68c-0.11,1.22-0.59,2.08-1.94,2.54c-1.65-1.09-1.54-2.96-1.55-4.51c-0.01-1.44,0.62-2.94,1.22-4.3
			c1.17-2.64,2.54-5.2,3.77-7.81c1.8-3.8,3.74-7.55,5.27-11.47c1.78-4.57,3.1-9.33,4.77-13.95c1.76-4.89,3.61-9.76,5.63-14.55
			c0.59-1.4,1.9-2.5,2.88-3.73l-0.09,0.1c1.99-0.92,3.91-2.1,5.99-2.7c4.23-1.23,8.51-2.71,12.85-3.06
			c7.96-0.64,14.89,1.74,19.29,9.07c0.41,0.69,0.84,1.36,1.26,2.05c2.17,3.5,5.15,4.26,8.53,1.94c3.15-2.16,6.45-2.94,10.26-2.33
			c1.92,0.31,4.04,0.11,5.95-0.35c4.64-1.11,9.29-0.86,13.73,0.37c6.09,1.69,9.82,6.14,11.41,12.17c2.01,7.62,2.21,15.45,1.91,23.28
			c-0.27,6.94-0.28,13.84,1.03,20.69c0.2,1.06,0.27,2.04-1.31,2.19c-0.56-1.01-1.12-2.01-1.68-3.01c-0.11,0.04-0.21,0.08-0.32,0.12
			c0.48,1.91,1.35,3.82,1.32,5.72c-0.02,1.94-1.05,3.85-1.41,5.81c-0.39,2.15-0.61,4.32-2.06,6.64c-0.3-0.89-0.66-1.4-0.6-1.86
			c0.31-2.49,0.66-4.98,1.13-7.44c0.25-1.32,0.47-2.49-0.45-3.71c-0.42-0.56-0.37-1.51-0.42-2.28c-0.1-1.59-0.48-3.06-1.26-4.41
			c-0.22,0.02-0.45,0.05-0.67,0.07c0,1.63,0.09,3.27-0.02,4.9c-0.32,5.1-0.63,10.21-1.11,15.3c-0.68,7.19-1.54,14.36-2.29,21.54
			c-0.38,3.63-1.73,6.98-2.86,10.4c-1.39,4.19-2.48,8.49-4.01,12.62c-0.92,2.51-2.14,5.02-3.72,7.16
			c-4.29,5.82-8.82,11.46-14.39,16.18c-3.02,2.56-6.58,3.71-10.33,4.59c-4.98,1.17-5.22,0.79-4.51,6.11
			c0.51,3.85,1.71,7.63,2.77,11.39c0.89,3.17,1,3.06,4.32,3.31c10.83,0.8,21.45-0.69,32-2.84c3.14-0.64,6.21-1.61,9.36-2.2
			c3.33-0.63,6.7-1.02,10.06-1.44c1.32-0.16,1.67,0.76,1.81,1.88c0.23,1.86,0.55,3.71,0.9,6.03c1.02-0.83,1.59-1.32,2.19-1.79
			c4.1-3.22,8.24-6.4,12.3-9.67c2.58-2.07,5.06-4.27,7.58-6.41c4.67-3.96,9.31-7.95,14.05-11.83c1.08-0.88,1.9-1.78,2.1-3.15
			c0.39-2.67,0.75-5.35,1.11-8.02c0.66-4.87,1.34-9.74,1.94-14.63c0.44-3.58,0.83-7.17,1.12-10.77c0.78-9.91,1.45-19.83,2.25-29.74
			c0.29-3.6-1.67-6.47-2.78-9.61c-0.86-2.46-2.03-4.75-2.02-7.49c0.02-3.13,1.01-4.05,4.16-3.18c0.07-1.01,0.12-2.01,0.21-2.99
			c0.21-2.36,1.97-3.23,3.93-1.9c0.47,0.32,0.76,0.9,1.14,1.37c0.97-2.74,1.81-5.28,2.79-7.77c0.19-0.47,0.89-0.75,1.6-1.29
			c1.07,1.21,2.1,2.36,3.08,3.46c0.35-0.12,0.58-0.13,0.7-0.25c2.65-2.58,3.7-2.33,4.84,1.22c0.33,1.04,0.47,2.14,0.75,3.49
			c0.8-0.64,1.41-1.23,2.11-1.67c1.95-1.24,3.43-0.77,3.69,1.54c0.28,2.46,0.21,5.03-0.2,7.47c-0.76,4.55-1.88,9.03-2.83,13.55
			c-0.14,0.68-0.27,1.41-0.18,2.09c1.49,12.16,0.04,24.28-0.71,36.39c-0.73,11.73-1.69,23.44-2.63,35.16
			c-0.24,2.99-0.94,5.95-1.14,8.94c-0.35,5.23-3.65,8.06-7.59,10.91c-4.71,3.39-8.87,7.53-13.29,11.33c-1.98,1.7-3.88,3.5-6.01,4.99
			c-1.8,1.26-3.02,2.82-3.77,5.09c-0.6-0.39-1.01-0.87-1.45-0.9c-0.41-0.02-0.88,0.4-1.27,0.7c-2.08,1.58-4.1,3.24-6.22,4.76
			c-4.33,3.08-8.7,6.11-13.1,9.08c-0.87,0.59-1.99,0.82-3.36,1.35c0.47,2.59-0.47,5.53,1.88,7.95c0.39,0.4,0.26,1.49,0.08,2.19
			c-0.22,0.85-0.76,1.61-1.27,2.64c-1.62,0.13-3.42,0.12-5.17,0.42c-7.42,1.28-14.82,2.66-22.23,4c-2.17,0.39-4.33,0.87-6.52,1.16
			c-1.25,0.17-2.55,0.03-4.04,0.03c-0.87,2.49-0.28,5.19-0.14,7.81c0.42,7.71,1.22,15.4,1.59,23.11c0.43,8.93,0.69,17.87,0.77,26.81
			c0.06,6.44,0.23,12.85,1.42,19.2c0.16,0.88,0.11,1.8,0.13,2.7c0.01,0.3-0.07,0.6-0.11,0.9c-0.29,2.31,2.32,4.32,0.54,6.85
			c-1.47,2.09-0.43,4.51-0.26,6.75c0.51,6.59,1.08,13.13,3.53,19.44c1.95,5.03,3.14,10.35,4.61,15.56c0.49,1.71,1.06,3.16,3.16,3.49
			c1.32,0.21,1.74,1.28,1.26,2.54c-0.32,0.84-0.75,1.64-1.29,2.79c-1.31-0.19-2.65-0.36-3.98-0.56c-6.14-0.94-12.28-2.01-18.59-0.09
			c-0.88,3.87,0.04,7.6,0.74,11.32c1.05,5.61,2.22,11.21,3.39,16.8c1.15,5.5,2.41,10.97,3.53,16.47c1.48,7.28,2.68,14.62,4.35,21.86
			c2.01,8.7,4.48,17.28,7.57,25.68c1.84,4.99,3.23,10.14,5.1,15.11c1.38,3.66,3.19,7.15,3.59,11.12
			C387.2,499.29,386,499.29,384.79,499.29z M444.28,89.35c0.65,0.84,1.44,1.61,1.9,2.54c0.74,1.48,1.97,3.19,1.73,4.58
			c-0.42,2.4,0.1,4.79-0.66,7.26c-0.94,3.09-0.66,6.55-0.93,9.85c-0.75,9.2-1.49,18.4-2.28,27.6c-0.11,1.29-0.55,2.56-0.69,3.85
			c-0.81,7.47-1.55,14.95-2.37,22.42c-0.14,1.29-0.45,2.58-0.84,3.81c-0.17,0.53-0.75,0.93-1.29,1.55
			c-0.72-1.62,1.08-2.99-0.46-4.51c-1.17,0.89-2.38,1.73-3.5,2.68c-7.12,6.01-14.2,12.08-21.35,18.05
			c-3.62,3.02-7.34,5.91-11.09,8.77c-1.54,1.18-1.95,2.35-1.55,4.36c1.3,6.52,2.28,13.1,3.4,19.74c0.1-0.01,0.43,0.06,0.65-0.06
			c1.98-1.17,4.02-2.26,5.88-3.6c10.5-7.56,20.86-15.3,30.54-23.93c4.86-4.33,9.59-8.87,15.35-12.09c0.44-0.25,0.88-0.51,1.31-0.76
			c-0.23-0.13-0.47-0.27-0.7-0.4c0.06-1.13,0.04-2.27,0.2-3.39c0.27-1.88,0.78-3.72,0.98-5.61c0.27-2.59,0.3-5.21,0.52-7.82
			c0.41-5,0.93-9.99,1.31-15c0.55-7.21,1.04-14.42,1.51-21.64c0.41-6.41,0.79-12.82,1.1-19.23c0.08-1.57-0.13-3.16-0.2-4.82
			c-0.87,0.49-1.56,0.87-2.67,1.49c0.21-0.91,0.25-1.29,0.39-1.63c0.87-2.23,1.75-4.44,1.73-6.91c-0.01-1.48-0.15-3.25,0.56-4.4
			c1.92-3.12,2.09-6.67,3.01-10.02c0.54-1.96,0.7-4.03,0.19-6.16c-0.71,0.5-1.25,1.05-1.58,1.7c-0.91,1.79-1.7,3.64-2.61,5.43
			c-0.63,1.24-2,1.5-2.24,0.49c-0.37-1.54-0.93-3.09-0.51-4.79c0.48-1.95,1.62-3.92,0.22-5.99c-0.81,2.08-1.4,4.18-1.87,6.31
			c-0.24,1.08-0.73,1.59-1.85,1.45c-1.25-0.16-1.32-1.07-1.24-2.01c0.05-0.7,0.36-1.4,0.31-2.07c-0.12-1.61,0.5-3.45-1.18-4.73
			c-2.66,4.5-0.33,9.8-2.39,14.36c-1.79-0.7-1.84-0.69-2.03-1.56c-0.17-0.78-0.06-1.65-0.33-2.38c-0.49-1.29-0.27-3.01-2.04-3.87
			c-0.58,3.81,1.83,7.41,0.12,11.13c-0.55-0.1-0.93-0.21-1.31-0.21C445.04,89.17,444.66,89.29,444.28,89.35
			c0.49-1.83-0.19-3.32-1.57-4.61C443.23,86.28,443.75,87.81,444.28,89.35z M286.72,376.42c1.12-5.44,2.34-10.42,3.14-15.46
			c1.23-7.82,1.99-15.72,3.26-23.53c1.58-9.71,3.02-19.48,5.34-29.03c2.97-12.23,4.47-24.67,6.56-37.03
			c1.75-10.39,3.14-20.84,4.44-31.3c1.06-8.56,1.75-17.17,2.62-25.76c0.15-1.43-0.3-2.41-1.52-3.3c-2.75-2.01-5.42-4.14-8.02-6.34
			c-1.68-1.42-3.14-3.11-4.82-4.53c-0.71-0.6-1.72-1.06-2.65-1.18c-2.88-0.38-5.81-0.45-8.69-0.87c-4.36-0.64-8.7-1.48-13.04-2.25
			c-5.14-0.91-10.27-1.86-15.42-2.73c-0.72-0.12-1.51,0.09-2.45,0.16c-0.62,14.82-4.03,28.76-10.28,42.31
			c1.18,0.21,2.14,0.43,3.11,0.55c3.39,0.43,6.85,0.52,10.14,1.32c4.06,0.98,8.15,1.1,12.25,1.41c1,0.07,1.92,0.04,2.55-1.1
			c0.7-1.27,1.87-1.34,3.42-0.41c-0.12,1.56-0.27,3.22-0.36,4.89c-0.44,8.88-2.44,17.49-4.58,26.06
			c-1.58,6.32-3.65,12.52-5.31,18.83c-1.91,7.27-3.75,14.57-5.35,21.92c-1.51,6.89-3.85,13.5-6.18,20.13
			c-1.46,4.16-2.71,8.4-3.85,12.66c-1.53,5.7-2.8,11.47-4.3,17.17c-1.39,5.27-2.93,10.5-4.38,15.69c1.58,1.33,3.27,0.93,4.83,1
			c5.81,0.24,11.63,0.35,17.44,0.55c4.51,0.16,9.02,0.46,13.53,0.54C280.96,376.81,283.76,376.55,286.72,376.42z M377.21,376.24
			c-1.47-3.49-2.64-6.44-3.96-9.32c-0.92-1.99-2.26-3.81-3.01-5.86c-0.86-2.34-1.56-4.8-1.83-7.27c-0.75-6.86-2.2-13.68-1.6-20.66
			c0.27-3.08,0.33-6.2,0.21-9.29c-0.22-5.71-0.77-11.41-0.96-17.12c-0.21-6.22-0.06-12.46-0.27-18.68
			c-0.2-6.02-0.65-12.03-1.02-18.04c-0.24-4-0.46-8.01-0.78-12.01c-0.38-4.7-0.92-9.39-0.08-14.09c0.21-1.17,0.11-2.55,0.72-3.45
			c0.88-1.32,2.4-0.17,3.61-0.29c4.48-0.47,8.95-1.07,13.39-1.85c6.13-1.09,12.21-2.4,18.32-3.6c1.63-0.32,2.05-0.75,1.82-2.44
			c-0.33-2.39-0.84-4.75-1.18-7.13c-1.47-10.11-2.9-20.22-4.37-30.32c-0.14-0.95-0.5-1.87-0.86-3.17
			c-3.97,0.56-7.74,0.97-11.46,1.67c-3.73,0.7-7.37,1.97-11.12,2.5c-5.75,0.81-11.55,1.23-17.34,1.72
			c-1.53,0.13-2.59,0.59-3.45,1.95c-3.31,5.22-7.44,9.72-12.28,13.58c-0.63,0.51-1.2,1.38-1.35,2.16
			c-0.83,4.23-1.55,8.49-2.24,12.74c-1.84,11.35-1.56,22.78-1.49,34.22c0.06,8.12-0.26,16.25-0.47,24.37
			c-0.21,8.02-0.66,16.04-0.7,24.06c-0.04,7.53,0.31,15.06,0.51,22.59c0.23,8.53,0.49,17.06,0.72,25.59
			c0.04,1.52-0.02,3.05,1.63,3.94c-1.8,3-0.83,5.97-0.51,8.94c0.18,1.67,0.94,2.52,2.62,2.72c2.28,0.28,4.61,0.47,6.81,1.08
			c6.46,1.81,12.93,1.3,19.45,0.59c2.67-0.29,5.38-0.14,8.08-0.13C374.02,375.96,375.28,376.11,377.21,376.24z M360.31,78.86
			c-0.97,0.49-1.8,0.82-2.54,1.29c-4.4,2.74-6.82,0.14-8.39-2.67c-0.56-1.01-0.92-2.13-1.45-3.38c-2.06,1.75-3.76,3.31-5.59,4.7
			c-1.89,1.45-2.39,1.42-4.12-0.27c-1.13-1.1-2.05-2.4-3.11-3.65c-0.45,0.33-0.79,0.53-1.09,0.79c-4.12,3.55-6.65,3.33-10.11-0.91
			c-0.74-0.9-1.46-1.82-2.53-3.15c-1.07,1.28-1.98,2.21-2.71,3.28c-2.34,3.43-5.06,4.23-8.89,2.11c-2.68-1.49-5.7-1.55-8.68-0.09
			c-2.96,1.45-5.98,2.6-9.5,2.38c-2.66-0.16-3.33,0.88-3.89,3.58c-0.4,1.97-0.93,3.9-0.04,5.9c0.22,0.49,0.06,1.2-0.05,1.78
			c-1.51,8.31-2.24,16.7-2.32,25.13c-0.05,5.31,0.05,10.65,0.59,15.92c0.71,6.88,3.67,13.01,7.23,18.89
			c2.42,4.01,5.26,7.56,9.34,10.01c3.01,1.8,5.92,3.8,8.96,5.55c4.36,2.5,8.81,4.92,14.02,5.04c7.16,0.17,14.28-0.26,21.09-2.7
			c1.66-0.59,3.34-1.54,4.6-2.75c4.55-4.4,8.82-9.05,12.63-14.13c2.28-3.05,3.7-6.37,4.75-9.98c1.23-4.24,2.8-8.37,4.09-12.59
			c0.76-2.48,1.54-5,1.87-7.55c0.99-7.66,1.83-15.34,2.61-23.03c0.44-4.39,0.64-8.8,0.95-13.2c0.1-1.46-0.2-2.73-1.39-3.79
			c-0.73-0.65-1.19-1.59-1.92-2.6c-0.87,0.74-1.66,1.48-2.52,2.15c-1.66,1.29-3.25,2.73-5.06,3.77c-2.45,1.41-4.83,0.47-5.9-2.15
			C360.85,81.53,360.7,80.41,360.31,78.86z M330.44,360.96c0-1.11,0.02-1.91,0-2.7c-0.4-14.24-0.98-28.48-1.15-42.72
			c-0.11-9.43,0.05-18.88,0.65-28.29c0.72-11.33,1.15-22.64,0.47-33.99c-0.16-2.71-0.57-5.45-0.31-8.12
			c0.63-6.59,1.45-13.17,2.43-19.71c1.04-6.94,2.38-13.84,3.56-20.77c0.1-0.6,0.01-1.23,0.01-2.26c-1.13,0.8-1.81,1.37-2.58,1.8
			c-0.78,0.44-1.62,1-2.46,1.05c-2.59,0.16-5.21,0.31-7.78,0.04c-1.63-0.17-3.18-1.07-4.75-1.69c-0.63-0.25-1.2-0.64-1.96-1.06
			c-0.3,4.61-0.53,9-0.89,13.38c-0.75,9.1-1.29,18.22-2.43,27.28c-1.46,11.64-3.43,23.22-5.19,34.83c-0.33,2.18-0.71,4.36-1.05,6.54
			c-0.58,3.77-1,7.57-1.75,11.31c-1.74,8.65-3.66,17.27-5.45,25.91c-0.73,3.53-1.44,7.08-1.96,10.64
			c-0.89,6.05-1.61,12.13-2.43,18.19c-0.41,3.06-0.89,6.12-1.36,9.35C306.3,360.3,318.18,360.63,330.44,360.96z M196.48,60.78
			c0.14,1.34,0.8,2.93,0.34,4.08c-1.39,3.43-0.32,7.57-3.16,10.53c-0.19,0.19-0.22,0.56-0.28,0.85c-0.8,3.62-1.6,7.23-2.39,10.85
			c-0.77,3.52-1.45,7.07-2.29,10.57c-0.98,4.09-2.18,8.13-3.11,12.23c-1.25,5.47-2.42,10.97-3.46,16.48
			c-1.53,8.07-2.87,16.17-3.09,24.42c-0.09,3.3-0.33,6.65-1,9.87c-1.09,5.22-1.89,10.44-2.3,15.76c-0.24,3.05,0.61,5,3.48,6.03
			c0.19,0.07,0.41,0.09,0.56,0.2c0.14,0.1,0.22,0.3,0.37,0.51c-0.28,0.33-0.58,0.68-1,1.17c0.95,0.85,1.83,1.8,2.87,2.53
			c7.01,5.01,14.37,9.45,22,13.47c5.59,2.95,11.19,5.88,16.67,9.03c3.02,1.74,5.95,3.73,8.64,5.95c4.13,3.39,8.5,6.37,13.34,8.64
			c2.81,1.32,3.4,1.04,4.27-1.94c1.01-3.46,2-6.93,2.92-10.42c0.43-1.63,0.66-3.32,0.97-4.9c-1.45-1.01-2.73-1.96-4.06-2.82
			c-4.96-3.21-9.94-6.34-15.41-8.7c-2.15-0.93-3.95-2.68-5.89-4.09c-0.48-0.35-0.78-0.96-1.29-1.22c-5.2-2.68-9.76-6.3-14.47-9.7
			c-3.48-2.51-7.15-4.8-9.75-8.23c-2.98,0.36-3.46,0.05-3.75-2.78c-0.15-1.49-0.22-3.02-0.06-4.51c0.59-5.7,0.9-11.4,0.99-17.13
			c0.04-2.87,0.54-5.84,1.38-8.59c3.46-11.25,5.61-22.79,7.91-34.29c1.47-7.37,2.36-14.85,3.49-22.29c0.07-0.47-0.05-0.97-0.04-1.46
			c0.02-1.58-0.21-3.22,0.15-4.72c1.28-5.37,2.87-10.66,4.14-16.03c1.21-5.07,2.19-10.19,3.23-15.3c0.12-0.57-0.07-1.2-0.15-2.19
			c-2.32,2.36-3.06,4.98-3.96,7.51c-0.2,0.56-0.13,1.36-0.51,1.68c-0.61,0.51-1.48,0.71-2.24,1.04c-0.21-0.7-0.68-1.45-0.57-2.09
			c0.22-1.27,0.82-2.47,1.17-3.72c0.46-1.65,1.46-3.24,0.76-5.5c-1.29,2.12-1.98,4.02-2.22,6.13c-0.19,1.66-0.45,3.42-2.82,3.6
			c-1.42-3.41,0.8-6.54,0.46-9.77c-1.43,1.42-1.73,3.14-1.81,4.96c-0.1,2.51-0.19,5.02-0.36,7.52c-0.09,1.27-0.35,2.54-2.19,3.3
			c-0.92-4.97-0.71-10-2.75-14.58c-0.48,0.63-0.86,1.26-0.85,1.88c0.05,3.61,0.23,7.23,0.28,10.84c0.03,1.85-0.12,3.71-0.2,6.02
			C198.15,61.17,197.38,60.99,196.48,60.78z M301.4,25.86c-5.78,2.83-9.97,12.86-12.35,28.81c2.33,0.82,2.3,1.01,1.57,3.27
			c-1.41,4.39-2.11,8.87-1.05,13.39c4.14,1.41,6.55,1.67,10.54,1.47c2.09-0.11,4.19,0.14,6.28,0.05c0.96-0.04,1.9-0.52,2.95-0.83
			c-0.54-0.7-0.81-1.04-1.08-1.39c2.64-0.64,5.3-0.77,7.42-1.9c5.98-3.19,12.27-6.01,16.82-11.36c1.48-1.74,3.06-3.38,4.74-5.24
			c0.77,0.17,1.93-0.25,2.71,0.86c-2.61,2.48-5.13,4.87-7.61,7.22c0.51,0.64,0.89,1.11,1.12,1.4c-3.44,1.79-6.69,3.48-9.78,5.08
			c0.18,3.39,2.38,5.21,4.06,7.26c1.12,1.37,2.3,1.3,3.68,0.12c0.76-0.64,1.4-1.44,2.03-2.22c1.94-2.38,2.83-2.25,4.29,0.33
			c0.8,1.42,1.23,3.2,3.27,4.22c2.04-2.16,4.1-4.32,6.14-6.49c0.77-0.81,1.51-1.73,2.81-1.23c1.11,0.42,0.82,1.45,0.91,2.33
			c0.29,2.77,1.29,5.21,3.71,7.36c2.1-1.31,4.17-2.67,6.32-3.91c0.7-0.4,1.68-0.78,2.36-0.59c0.45,0.13,0.79,1.29,0.85,2.02
			c0.12,1.29-0.14,2.61-0.01,3.9c0.21,2.14,1.28,2.69,3,1.45c2.58-1.87,5.31-3.61,7.01-6.5c0.9-1.53,2.32-1.39,3.22,0.13
			c0.26,0.43,0.5,0.87,0.97,1.69c1.76-6.53,2.62-12.68,2.57-18.9c-0.02-2.65-0.85-5.33-1.55-7.93c-1.03-3.79-3.43-7.14-3.77-11.18
			c-0.02-0.22-0.35-0.42-0.51-0.6c-1.34,0.52-2.61,1.01-4.24,1.65c0-2.8,3.2-2.41,3.48-4.6c-1.27-2.38-3.49-3.28-6.17-3.02
			c-5.18,0.5-9.99,2.14-14.26,5.17c-1.94,1.38-4.27,2.33-5.45,4.61c-0.57,1.1-1.08,2.24-1.83,3.81c-0.73-1.19-1.25-2.03-1.63-2.64
			c-1.13-0.1-2.32,0.15-2.98-0.33c-2.14-1.55-4.44-3.04-4.34-6.29c0.04-1.43-0.89-2.56-2.29-3.29c-2.14-1.11-4.21-2.34-6.29-3.56
			c-0.59-0.34-1.41-0.69-1.6-1.23c-0.41-1.17-1.26-1.17-2.16-1.17c-0.9,0-1.81,0.05-2.71,0.16c-4.99,0.6-9.42,2.62-13.61,5.29
			c-0.6,0.38-1.15,1.17-2.36,0.19c1.15-0.86,2.39-1.43,3.1-2.4c0.79-1.09,1.07-2.54,1.65-3.79c0.2-0.43,0.72-0.7,1.01-1.11
			c0.46-0.63,0.84-1.31,1.4-2.19c-0.9-0.25-1.53-0.53-2.18-0.6c-4.34-0.47-7.34,1.71-9.49,5.16c-1.69,2.71-3.07,5.62-4.61,8.43
			c-0.26,0.48-0.62,0.9-0.94,1.35C296.32,32.98,299.44,29.82,301.4,25.86z M320.92,175.4c0,0.76-0.04,1.26,0.01,1.75
			c0.52,5.55-0.81,10.54-4.39,14.9c-0.33,0.4-0.52,1.09-0.46,1.61c0.46,4.5,4.53,8.04,9.09,7.9c1.6-0.05,3.2-0.28,4.8-0.38
			c1.83-0.12,3.11-1.1,4.39-2.35c3.84-3.77,3.41-8.96,1.36-13.04c-0.84-1.68-1.33-3.3-1.35-5.14c-0.03-1.95-0.21-3.9-0.32-5.84
			C329.59,175.01,325.4,175.2,320.92,175.4z M293.3,364.11c-0.51,2.45-1.14,5.16-1.62,7.89c-0.38,2.19-0.19,2.49,2.05,2.58
			c3.8,0.15,7.61,0.11,11.42,0.13c6.2,0.03,12.39,0.03,18.59,0.05c2.57,0,5.13,0,8.16,0c-0.36-3.31-0.68-6.24-1.03-9.52
			C318.33,364.1,306.03,363.43,293.3,364.11z M383.01,76.78c0.34-1.93-0.59-4.07,1.59-5.24c0.25-0.14,0.19-0.94,0.2-1.43
			c0.15-7.41,0.84-14.84-0.04-22.24c-0.41-3.46-1.17-6.92-2.17-10.26c-0.96-3.25-3.24-5.6-6.42-7.26c0.38,2.06,0.55,3.93,1.1,5.69
			c1.15,3.71,2.52,7.35,3.75,11.04c1.58,4.71,2.44,9.5,1.76,14.49c-0.54,3.97-0.98,7.95-1.51,11.92
			C381.09,74.87,381.08,76.1,383.01,76.78z M340.69,197.58c-0.4,3.83-0.8,7.67-1.2,11.52c0.2,0.07,0.39,0.14,0.59,0.22
			c3.21-3.49,7.44-6.14,9.07-11.3C346.27,197.87,343.66,197.73,340.69,197.58z M302.78,200.44c2.89,2.98,4.79,6.85,9.24,7.76
			c0.76-4.39,0.77-9.48-0.03-11.23C309.82,200.39,306.47,200.52,302.78,200.44z M345.98,39.65c4.6-2.77,8.66-5.21,12.73-7.66
			c-0.89-0.57-1.82-0.89-2.5-0.6C352.18,33.08,349.01,35.88,345.98,39.65z M322.33,24.75c-3.72-2.69-6.63-1.76-9.08,3.59
			C316.28,27.14,319.28,25.95,322.33,24.75z M310.2,73.45c1.76,0.88,2.86,2.14,4.52,1.23c1.05-0.58,3.52-3.48,4.38-5.18
			C316.1,70.83,313.34,72.05,310.2,73.45z M286.97,70.38c-0.17-0.05-0.34-0.11-0.5-0.16c-0.44,1.07-0.84,2.16-1.32,3.22
			c-0.28,0.63-0.58,1.65-1.02,1.73c-2.64,0.54-1.84,2.53-2.22,4.34c1.45-0.14,2.8-0.06,3.21-1.46
			C285.84,75.53,286.36,72.94,286.97,70.38z M322.17,21.71c3.16,2.23,6.47,3.35,10.09,4.54C329.15,22.13,325.46,20.48,322.17,21.71z
			 M321.76,19.32c-3.03-1.2-5.33-0.66-7.86-0.39C316.4,21.43,318.72,20.06,321.76,19.32z M282.58,68.95
			c0.25,0.07,0.51,0.14,0.76,0.21c0.61-2.22,1.22-4.44,1.83-6.67c-0.24-0.07-0.48-0.13-0.73-0.2
			C283.82,64.52,283.2,66.74,282.58,68.95z M343.93,35.73c2.56,0.15,2.72-1.7,3.88-2.35c-0.15-0.18-0.3-0.36-0.45-0.54
			C346.35,33.68,345.35,34.53,343.93,35.73z M292.67,75.26c-0.81-0.05-1.62-0.1-2.82-0.17C290.89,76.3,291.66,76.69,292.67,75.26z
			 M194.6,51.58c-0.19,0.06-0.37,0.12-0.56,0.18c0.23,0.72,0.45,1.44,0.68,2.15c0.18-0.06,0.37-0.12,0.55-0.18
			C195.05,53.02,194.83,52.3,194.6,51.58z"/>
		<path d="M523.07,499.29c1.66-8.38,2.78-16.82,2.65-25.39c-0.03-1.8,0.07-3.62-0.09-5.41c-0.42-4.89-0.79-9.78,0.28-14.79
			c-0.86-0.15-1.43-0.33-2-0.33c-6.64,0-13.26,0.32-19.73,1.92c-1.58,0.39-2.87,0.62-4.05-0.83c-0.38-0.46-1.2-0.56-2.08-0.94
			c0.23-1.67,0.45-3.31,0.68-4.99c-3.21-0.78-4.48,2.51-7.11,3.3c-0.97-1.14-0.96-3.63-3.43-2.6c-0.36-1.11-0.62-1.93-0.93-2.9
			c-1.59,1.62-1.76,4.42-4.54,4.56c-0.15-0.7-0.3-1.41-0.45-2.12c-0.19-0.03-0.37-0.05-0.56-0.08c-0.31,0.67-0.62,1.35-1.14,2.48
			c1.14-0.19,1.69-0.29,2.24-0.38c-0.29,0.27-0.54,0.73-0.87,0.79c-1.78,0.36-3.57,0.62-5.87,0.99c0.93-4.53,0.62-8.82,2.61-12.85
			c1.9-3.86,3.36-7.94,4.9-11.97c0.34-0.88,0.23-1.93,0.36-3.13c-0.68,0.38-1.08,0.6-1.61,0.9c-0.89-0.76-0.66-1.69-0.49-2.68
			c0.9-5.24,1.73-10.49,2.63-15.73c0.63-3.66,1.23-7.33,2.02-10.96c1.3-5.97,2.52-11.97,4.21-17.84c1.33-4.61,1.72-9.31,1.82-13.99
			c0.08-4.28,1.03-8.36,1.76-12.48c0.99-5.61,2.33-11.16,3.67-16.7c1.15-4.76,2.53-9.48,3.89-14.55c-0.82-0.37-1.76-0.9-2.76-1.22
			c-3.44-1.09-6.78-2.4-9.85-4.34c-0.57-0.36-1.21-0.69-1.87-0.82c-1.2-0.23-1.65-0.92-1.76-2.07c-0.07-0.67-0.48-1.3-0.58-1.97
			c-0.12-0.82-0.08-1.67-0.1-2.51c0.74,0,1.47,0,2.24,0c1.7-4.37,3.41-8.86,5.2-13.31c2.09-5.21,4.12-10.46,6.44-15.58
			c2.06-4.55,4.11-9.18,6.82-13.35c4.71-7.27,10.34-13.82,17.59-18.78c0.49-0.34,1.05-0.58,1.59-0.86
			c4.96-2.57,9.76-5.46,14.89-7.71c2.47-1.08,4.99-2.06,7.5-3.05c3.24-1.27,6.5-2.51,9.75-3.74c4.21-1.6,8.38-3.35,12.67-4.71
			c1.99-0.63,2.68-2.04,3.5-3.57c0.55-1.03,1.21-2.01,1.88-2.98c1.07-1.55,2.44-2.95,3.25-4.62c1.3-2.7,2.41-5.51,3.31-8.37
			c1-3.19-0.62-5.04-3.94-4.58c-0.76,0.1-0.95,0.19-1.6-0.4c-0.98-0.9-2.38-1.41-3.68-1.88c-6.62-2.37-12.5-5.82-17.13-11.21
			c-0.07-0.08-0.13-0.16-0.2-0.22c-5.89-4.66-8.53-11.33-10.68-18.11c-2.32-7.35-4.17-14.86-5.94-22.36
			c-0.75-3.17-0.76-6.51-1.12-9.92c-1.27,0.48-2.33,0.89-3.92,1.49c0.28-2.54,0.51-4.57,0.73-6.59c-0.21-0.05-0.41-0.09-0.62-0.14
			c-0.3,1.01-0.54,2.03-0.9,3.01c-0.38,1.03-0.03,2.49-1.87,2.99c-0.58-2.59-1.14-5.08-1.69-7.56c-0.1,0-0.2,0-0.31,0
			c-0.1,0.78-0.2,1.56-0.3,2.33c-0.15,0.03-0.29,0.05-0.44,0.08c-0.18-0.46-0.48-0.91-0.54-1.39c-0.61-4.97-1.4-9.94-1.68-14.93
			c-0.19-3.54-0.73-6.99-1.78-10.3c-0.74-2.36-1.26-4.62-0.9-7.06c0.05-0.36,0.07-0.83,0.3-1.06c1.48-1.43,3.56-5.91,3.83-7.83
			c0.31-2.17,0.8-4.31,1.35-6.44c0.19-0.74,0.61-1.64,1.21-2.02c1.88-1.18,2.37-3.15,3.07-4.97c2.54-6.61,7.45-11.14,13.25-14.72
			c1.96-1.21,4.34-2.14,6.9-1.14c1.14,0.44,1.86-0.22,2.21-1.39c0.96-3.22,3.18-5.51,5.62-7.67c1.54-1.37,3.1-1.74,4.97-0.84
			c0.63,0.3,1.36,0.46,1.93,0.84c2.67,1.76,5.44,0.83,8.15,0.27c0.63-0.13,1.27-0.94,1.61-1.6c3.25-6.32,9.32-6.57,14.25-5.47
			c3,0.66,5.84,2,8.89,3.09c0.63-0.44,1.29-1.16,2.1-1.43c1.39-0.46,2.94-1.08,4.3-0.86c5.25,0.86,10.46,1.99,15.44,3.93
			c2.89,1.13,5.32,2.88,6.89,5.59c0.76,1.32,1.78,2.05,3.2,2.5c3.2,1.01,6.38,2.44,8.38,5.1c3.8,5.08,9.2,8.92,11.69,15.02
			c0.75,1.85,1.57,3.67,2.34,5.52c0.69,1.66,1.37,3.32,1.97,5c0.17,0.46,0.03,1.04,0.03,2.25c-1.25-1.16-1.99-1.85-2.96-2.76
			c-0.15,0.53-0.4,0.9-0.33,1.2c0.88,3.76-0.48,7.35-0.85,11c-0.16,1.56-0.22,3.19-0.74,4.65c-0.71,2.01-1.8,3.89-2.81,6.01
			c-0.55-0.65-0.84-1-1.14-1.36c-0.18,0.11-0.4,0.16-0.49,0.3c-0.78,1.25-1.34,2.71-2.35,3.72c-0.93,0.92-1.09,1.85-1.03,2.95
			c0.29,5.41,0.49,10.83,0.95,16.23c0.44,5.07-0.05,10-1.24,14.92c-0.54,2.24-0.83,4.54-1.18,6.82c-0.67,4.3-2.05,8.36-3.89,12.31
			c-2.07,4.46-3.92,9.02-6.78,13.08c-3.88,5.52-8.04,10.7-13.13,15.24c-3.4,3.03-7.06,4.78-11.33,5.74
			c-1.14,0.26-2.43,0.49-2.52,2.12c-0.09,1.52-0.32,3.06,1.55,3.76c0.12,0.05,0.16,0.34,0.31,0.69c-0.27,0.39-0.6,0.85-0.91,1.33
			c-0.22,0.33-0.62,0.71-0.57,1c0.37,2.14,0.4,4.49,1.37,6.35c1.32,2.53,3.29,4.77,6.28,6.76c0.45-0.92,0.89-1.82,1.63-3.33
			c1.49,3.5,3.83,3.17,6.05,3.43c6.18,0.74,12.24,1.94,17.82,5.01c5.52,3.04,11.14,5.92,16.79,8.71c3.59,1.78,5.91,4.72,8.02,7.92
			c0.38,0.57,0.71,1.22,1.21,1.67c4.58,4.09,6.84,9.5,8.93,15.08c1.69,4.5,3.89,8.82,5.64,13.3c1.2,3.07,2.11,6.25,2.95,9.44
			c0.43,1.61,0.78,2.98,2.46,3.83c2.6,1.32,3.68,4,4.57,6.5c0.52,1.44,0.26,3.36-1.43,4.47c-2.43,1.6-4.8,3.28-7.28,4.79
			c-1.15,0.7-1.38,1.45-1.16,2.72c0.89,5.34,1.64,10.7,2.49,16.05c0.68,4.26,1.71,8.47,2.09,12.75c0.44,4.97,1.15,9.99,0.03,14.99
			c-0.11,0.48-0.21,1.23,0.05,1.46c2.46,2.28,0.38,5.64,1.99,8.09c-0.22,3.95,1.9,7.47,2.09,11.34c0.08,1.58,0.28,3.27-0.12,4.75
			c-0.87,3.17-2.03,6.27-3.2,9.35c-1.18,3.1-3.71,4.2-6.86,4.5c-4.26,0.4-8.16-0.66-11.93-2.47c-2.81-1.35-5.7-2.34-8.82-2.81
			c-2.15-0.32-4.22-1.22-6.6-1.95c0.19,0.98,0.32,1.91,0.57,2.82c1.58,5.8,3.22,11.58,4.77,17.38c1.56,5.81,3.04,11.65,4.54,17.47
			c1.19,4.59,1.58,9.27,1.84,13.99c0.11,1.97,0.63,3.91,0.94,5.7c1.31,0.42,2.28,0.74,3.26,1.05c-0.01,0.26-0.02,0.52-0.03,0.78
			c-2.48,0.38-4.96,0.71-7.43,1.16c-2.42,0.45-4.83,1.02-7.41,1.57c0.11,0.76,0.17,1.54,0.34,2.3c2.18,9.79,4.79,19.47,5.83,29.51
			c0.66,6.35,2.08,12.62,3.15,18.93c0.17,0.98,0.3,1.97,0.46,2.96c-0.81,0-1.61,0-2.42,0c-0.08-0.69-0.08-1.4-0.26-2.07
			c-0.55-2.02-1.37-3.98-1.74-6.03c-0.69-3.85-1.03-7.76-1.71-11.61c-1.37-7.8-2.78-15.6-4.34-23.36c-0.7-3.5-1.78-6.93-2.73-10.54
			c-2.35,0.18-4.35,0.55-6.32,0.44c-9.57-0.51-19.02,1.2-28.55,1.36c-0.9,0.01-1.8,0.15-2.7,0.23c-4.69,0.42-9.38,0.87-14.07,1.25
			c-7.99,0.64-16.03,0.87-23.97,1.95c-9.28,1.25-18.61,1.1-27.9,1.83c-4.9,0.39-9.81,0.6-14.72,0.91c-0.16,0.01-0.32,0.23-0.74,0.55
			c-0.29,2.33-0.89,4.89-0.87,7.45c0.04,4.4,0.61,8.8,0.71,13.2c0.18,8.28-1.6,16.34-2.96,24.44
			C525.08,499.29,524.07,499.29,523.07,499.29z M595.25,85.82c-1.14,0.11-1.52,0.92-1.62,1.94c1.98-2.49,5.59-3.75,5.52-7.86
			c-0.03-1.71,1.5-2.15,3.04-1.16c0.84,0.54,1.64,1.17,2.55,1.55c1.59,0.66,2.37,1.88,2.31,3.46c-0.07,1.75,0.74,2.81,2.06,3.72
			c0.91,0.63,1.79,1.3,2.62,2.02c1.13,0.99,2.21,1.43,3.77,0.72c1.78-0.81,3.41-0.24,5.01,0.98c1.43,1.09,0.63,2.59,1.03,3.69
			c0.31,0.21,0.47,0.34,0.65,0.42c2.4,1.02,4.81,2.01,7.2,3.05c2.23,0.97,4.53,1.6,6.72,2.9c2.79,1.66,6.28,1.87,9.64-0.11
			c-1.09-1.34-0.96-2.53,0.61-3.45c-1.62-0.94-2.64-1.87-1.59-3.72c0.29-0.52,0.11-1.35,0.02-2.02c-0.45-3.16-0.96-6.31-1.48-9.75
			c0.13,0.11-0.01-0.04-0.17-0.14c-2.28-1.41-2.32-2.28-0.19-3.9c0.58-0.44,1.16-0.91,1.73-1.36c-0.06-0.2-0.12-0.4-0.18-0.6
			c-0.95,0-1.89-0.02-2.84,0c-1.82,0.05-2.43-0.74-1.8-2.37c0.97-2.48,0.84-2.36-0.79-4.2c-1.27-1.43-2.78-1.85-4.6-1.89
			c0.09-1.14-0.05-2.06-1.38-2.23c-2.27-0.28-4.53-0.79-6.8-0.84c-1.43-0.03-2.22-0.53-2.24-1.77c-0.02-1.82-1.12-2.46-2.54-2.89
			c-2.78-0.85-5.54-1.76-8.36-2.45c-5.42-1.32-4-1.74-7.64,2.68c-1.03-0.52-2.14-1.08-3.45-1.74c-0.78,0-1.83,0-2.88,0
			c0-0.11-0.01-0.22-0.01-0.33c1.31-0.49,2.61-0.98,3.92-1.47c-0.07-0.25-0.15-0.5-0.22-0.75c-3.42-0.77-6.51,0.59-9.6,1.88
			c-0.19,0.08-0.17,0.55-0.33,0.79c-0.92,1.35-1.64,0.97-2.38-0.22c1.75-2.19,4.47-2.16,7.08-3.39c-4.43-0.69-7.53,1-10.37,3.32
			c-1.05-0.62-1.98-1.16-3.12-1.82c-1.79,1.5-3.52,2.95-5.48,4.58c-0.92-0.55-2.06-1.23-3.25-1.94c-0.53,1.47-1.73,3.11-1.32,4
			c0.83,1.79-0.25,2.39-1.11,3.25c-2.64,2.62-5.35,5.16-7.98,7.78c-8.55,8.49-17.09,17-25.61,25.52c-0.56,0.56-1.23,1.17-1.44,1.88
			c-0.66,2.31-2.14,3.99-3.6,5.81c-1.43,1.77-3.06,3.8-1.39,6.3c-0.21,0.26-0.32,0.54-0.46,0.55c-1.77,0.2-2.34-0.19-2.15-1.85
			c0.17-1.49,0.66-2.95,1.1-4.77c-2.36,2.04-3.04,4.84-1.81,7.24c1.99,3.86,5.28,3.71,8.79,2.27c0.14,2.3,0.38,2.77,1.4,2.51
			c2.85-0.74,5.97-0.82,8.04-3.54c1.08-1.42,2.55-2.55,3.89-3.77c0.72-0.66,1.51-1.23,2.44-1.97c0.11,0.61,0.29,0.96,0.18,1.16
			c-0.7,1.38-1.47,2.73-2.41,4.45c1.06-0.51,1.84-0.84,2.58-1.26c4.17-2.34,7.86-5.08,9.15-10.08c0.14-0.53,1.11-1.07,1.77-1.17
			c0.8-0.13,1.59,0.26,1.48,1.39c-0.02,0.25,0.16,0.52,0.34,1.04c2.53-1.17,5.19-1.99,7.36-3.51c2.67-1.88,5.49-3.76,7.27-6.68
			c0.2-0.32,0.49-0.69,0.82-0.81c3.49-1.26,5.14-4.58,7.73-6.84c1.38-1.2,2.56-2.82,4.78-2.22L595.25,85.82z M588.42,445.02
			c0-1.49,0.08-3.08-0.02-4.67c-0.25-4-0.71-8-0.83-12c-0.19-6.42-0.41-12.85-0.18-19.27c0.26-7.35-0.01-14.66-0.64-21.97
			c-0.25-2.9-0.33-5.82-0.47-8.73c-0.22-4.7-0.52-9.41-0.6-14.11c-0.06-3.39,0.19-6.79,0.31-10.19c0.01-0.17,0.16-0.34,0.34-0.72
			c0.76,0.09,1.58,0.18,2.62,0.3c0,1.41,0.06,2.6-0.01,3.78c-0.14,2.29-0.44,4.58-0.5,6.88c-0.09,3.61-0.05,7.22-0.05,10.84
			c0,1.81-0.15,3.63,0.03,5.42c0.78,7.8,1.41,15.6,1.32,23.45c-0.05,4.92,0.06,9.84,0.15,14.76c0.03,1.99,0.15,3.98,0.29,5.97
			c0.22,3.1,0.56,6.18,0.7,9.28c0.17,3.67,0.17,7.35,0.25,11.21c0.93,0,1.61,0.04,2.3-0.01c8.82-0.52,17.64-1.05,26.46-1.59
			c6.21-0.38,12.42-0.8,18.63-1.17c2.51-0.15,5.03-0.1,7.53-0.32c1.23-0.11,2.5-1.04,3.63-0.86c3.15,0.5,6.06-0.57,9.47-0.72
			c-0.21-1.61-0.37-2.97-0.58-4.32c-0.09-0.59-0.53-1.25-0.37-1.72c0.9-2.62,0.07-5.17-0.21-7.72c-0.92-8.43-4.01-16.35-5.97-24.53
			c-1.4-5.85-3.29-11.59-4.45-17.47c-0.55-2.81-2.06-4.44-4.11-5.89c-3.1-2.19-6.13-4.53-9.43-6.35c-4.58-2.52-7.99-6.53-12.79-8.88
			c-4.29-2.1-8.44-4.58-12.75-6.7c-2.72-1.34-5.83-2.47-6.29-6.06c-3.94-0.93-7.65-1.84-11.45-0.39c-0.73-0.86-1.48-1.54-1.96-2.38
			c-0.36-0.63-0.63-1.52-0.47-2.19c0.82-3.43,0.11-6.73-0.63-10.05c-1-4.49-2.17-8.96-2.97-13.48c-0.61-3.45-0.68-6.98-1.18-10.45
			c-0.42-2.93-1.35-5.83,0.01-8.73c0.62-1.33,1.19-2.77,2.14-3.84c3.13-3.52,7.35-4.26,11.8-4.09c1.8,0.07,3.59,0.41,5.39,0.55
			c4.74,0.37,7.34,3.67,9.84,7.12c0.22,0.31,0.34,0.75,0.35,1.13c0.13,3.18,0.35,6.35,0.32,9.53c-0.04,4.41-0.26,8.82-0.45,13.22
			c-0.06,1.55,0.63,2.49,2.09,2.87c2.55,0.65,4.54,2.94,7.45,2.58c0.23-0.03,0.5,0.28,0.75,0.44c0.99,0.62,1.95,1.29,2.96,1.86
			c1.83,1.02,3.68,1.99,5.54,2.94c3.05,1.55,6.11,3.06,9.17,4.59c0.2-0.16,0.41-0.32,0.61-0.48c-0.63-3.02-1.24-6.04-1.9-9.05
			c-0.53-2.43-1.22-4.83-1.67-7.27c-0.43-2.34-0.45-4.77-1.01-7.08c-1.06-4.37-2.41-8.68-3.59-13.03c-0.58-2.13-1.83-4.48-1.36-6.38
			c0.61-2.42,0.37-4.56,0.07-6.85c-0.06-0.44,0.12-1.1,0.43-1.36c0.98-0.81,2.03-1.57,3.15-2.15c0.42-0.22,1.19-0.03,1.68,0.22
			c3.64,1.79,6.45,4.37,7.74,8.36c0.55,1.72,1.1,3.45,1.84,5.09c1.07,2.37,2.29,4.67,3.51,6.97c0.21,0.4,0.7,0.67,1.12,0.92
			c0.91,0.54,1.85,1.03,2.87,1.58c0.69-0.25,1.45-0.52,2.19-0.81c5.11-2.03,10.14-4.29,15.35-6.03c4.66-1.56,8.68-4.11,12.6-6.91
			c0.49-0.35,1.04-1.15,0.98-1.67c-0.16-1.34-0.32-2.81-1.73-3.56c-0.93,0.62-1.78,1.18-2.91,1.94c-0.38-1.79-0.8-3.13-0.94-4.5
			c-0.56-5.8-2.61-11.11-5.19-16.26c-2.03-4.04-4.02-8.1-6.12-12.1c-0.88-1.67-2-3.21-3.04-4.79c-1.1-1.67-2.37-3.23-3.33-4.97
			c-2.65-4.82-6.33-8.49-11.32-10.88c-1.98-0.95-3.87-2.09-5.73-3.28c-4.65-2.96-8.99-6.47-14.53-7.75
			c-2.93-0.67-5.84-1.43-8.79-2.02c-2.22-0.44-4.49-0.66-6.78-0.99c-1.69,3.28-3.03,6.31-4.74,9.11c-2.65,4.36-4.44,9.16-7.49,13.35
			c-3.35,4.6-6.13,9.62-9.12,14.48c-0.77,1.25-1.69,2.08-3.28,1.72c-0.32,3.31-0.82,6.35-0.87,9.39c-0.06,3.7,0.33,7.41,0.38,11.12
			c0.04,2.78-0.57,5.43-2.55,7.71c-0.35-1.03-0.51-2.06-0.47-3.08c0.16-4.61,0.44-9.22,0.55-13.83c0.07-2.9-0.05-5.8-0.16-8.7
			c-0.03-0.78-0.22-1.59-0.52-2.31c-1.65-3.96-3.3-7.93-5.06-11.84c-3.66-8.13-7.4-16.22-11.1-24.32c-4.95,1.86-9.81,3.62-14.63,5.5
			c-6.43,2.51-12.92,4.9-19.21,7.72c-4.28,1.92-8.39,4.29-12.34,6.83c-3.18,2.05-6.38,4.31-8.92,7.08
			c-8.55,9.32-13.96,20.52-18.34,32.26c-1.05,2.81-2.15,5.6-3.24,8.4c-1.41,3.65-2.77,7.32-4.28,10.92
			c-0.63,1.52-0.21,2.63,1.03,3.33c2.17,1.22,4.43,2.3,6.71,3.31c3.38,1.5,6.87,2.77,10.21,4.36c4.64,2.21,9.35,4.17,14.35,5.35
			c3.57,0.85,5.87-0.74,6.43-4.28c1.17-7.42,2.34-14.83,3.52-22.25c0.22-1.41,1.72-2.35,2.47-1.4c1.08,1.36,1.49-0.72,2.37,0.18
			c-0.49,1.64-1.15,3.39-1.52,5.2c-0.79,3.82-1.49,7.67-2.13,11.52c-0.45,2.66-0.82,5.33-1.09,8.02c-0.34,3.38-0.52,6.78-0.8,10.17
			c-0.03,0.38-0.29,0.75-0.4,1.13c-0.78,2.58-1.94,5.13-2.22,7.77c-0.31,2.92-0.92,5.65-2.02,8.37c-2.27,5.59-1.69,11.67-2.86,17.47
			c-1.59,7.85-2.8,15.78-4.3,23.65c-0.58,3.04-1.57,6-2.24,9.02c-0.67,3.04-1.2,6.11-1.77,9.16c-0.62,3.28-1.59,6.42-3.36,9.28
			c-0.36,0.58-0.56,1.28-0.73,1.95c-0.71,2.82-1.37,5.66-2.08,8.48c-0.69,2.72-0.91,5.74-2.29,8.06c-2.05,3.46-2.59,7.38-4.29,10.9
			c-0.37,0.76-0.32,1.72-0.44,2.45c1.55,1.61,3.16,1.84,5.11,1.46c7.02-1.36,14.13-1.67,21.28-1.51c2.81,0.06,5.63-0.03,8.43-0.19
			c5.9-0.33,11.79-0.79,17.69-1.12c4.21-0.24,8.44-0.26,12.65-0.54c6.78-0.44,13.4-2.32,20.23-2.43
			C587.77,445.47,587.85,445.37,588.42,445.02z M601.6,86.14c-1.92,4.62-4.5,8.58-10.16,9.21c-1.99,3.71-5.02,6.37-8.96,8
			c-1.6,0.66-2.2,1.86-1.98,3.62c0.6,4.77-0.33,9.42-1.47,14.01c-0.32,1.27-1.35,2.41-2.23,3.47c-0.56,0.67-1.48,1.03-2.17,1.6
			c-3.38,2.83-3.35,2.82-6.34-0.61c-1.1-1.26-1.63-2.44-1.35-4.29c0.37-2.45,0.1-5.01,0-7.52c-0.02-0.5-0.5-0.97-0.97-1.81
			c-1.15,1.04-2.32,1.73-2.97,2.76c-2.11,3.37-5.09,5.78-8.62,7.28c-3.02,1.28-6.31,1.93-9.51,2.76c-0.83,0.22-1.79,0.37-1.61,1.31
			c0.08,0.44,1.17,0.97,1.82,0.99c1.2,0.03,2.41-0.28,3.61-0.45c-0.17,0.7-0.45,1.1-0.76,1.12c-2.55,0.16-3.9,2.61-6.24,3.23
			c-0.5,0.13-1.01,1.26-1.03,1.94c-0.08,2.4-0.19,4.85,0.17,7.21c0.86,5.64,1.97,11.24,3.02,16.85c1.33,7.12,3.17,14.09,6.54,20.57
			c0.74,1.41,1.41,2.95,2.47,4.09c2.58,2.8,5.28,5.52,8.11,8.07c3.94,3.55,8.73,5.69,13.69,7.36c1.76,0.59,3.78,0.38,5.64,0.73
			c1.62,0.3,3.65,0.43,4.67,1.46c1.21,1.21,2.41,1.3,3.75,1.38c6.38,0.41,12.65-0.36,18.8-2.04c3.29-0.9,6.4-2.18,9.16-4.38
			c6.62-5.28,11.68-11.82,15.99-19.01c1.23-2.05,2.25-4.24,3.29-6.41c2.8-5.84,4.29-12.08,5.35-18.41c0.62-3.65,0.9-7.35,1.32-11.03
			c0.02-0.15-0.16-0.32-0.24-0.48c-0.38,0.18-0.75,0.37-1.62,0.79c0.39-4.95,1.55-9.4,1.11-13.99c-0.43-4.58-0.35-9.21-0.5-13.86
			c-3.7-2.65-7.39-5.28-11.3-8.09c-1.64-0.08-3.71,0.12-5.62-0.34c-1.8-0.43-3.43-1.55-5.23-2.42c0.37,2.05,0.85,3.9,1.01,5.78
			c0.37,4.47-0.55,8.81-1.73,13.08c-1.03,3.73-4.56,6.24-8.34,6.01c-0.58-0.04-1.37-0.54-1.62-1.04c-0.47-0.96-0.7-2.07-0.88-3.14
			c-0.27-1.68-0.36-3.39-0.61-5.07c-0.33-2.16-1.16-4.33-1.03-6.46c0.26-4.53,1.79-8.74,4.47-12.47c0.08-0.12,0.32-0.12,0.53-0.19
			c-0.07,0.47-0.14,0.93-0.22,1.42c1.47-0.58,2.89-1.15,4.43-1.76c-1.29-1.87-2.93-3.4-5.43-3.62c-1.91-0.17-3.2-1.09-3.92-2.82
			C605.06,88.61,603.68,87.23,601.6,86.14z M497.93,444.65c0.89-0.94,1.64-1.56,2.19-2.33c2.59-3.68,3.18-7.92,3.38-12.28
			c0.07-1.59,0.16-3.18,0.32-4.76c0.15-1.49,0.4-2.96,0.59-4.44c0.18-1.39,0.32-2.79,0.53-4.18c0.59-3.76,1.18-7.52,1.81-11.28
			c1.09-6.53,2.04-13.09,3.33-19.58c1.63-8.16,3.39-16.3,5.38-24.37c2.25-9.15,4.81-18.23,7.23-27.33c0.38-1.41,0.74-2.83,1.09-4.15
			c-5.82-2.16-11.32-4.2-17.17-6.37c-1.18,3.83-2.39,7.64-3.53,11.47c-0.74,2.5-1.05,5.17-2.14,7.5c-1.64,3.53-3.11,7.06-3.82,10.89
			c-0.33,1.77-0.75,3.54-1.02,5.32c-0.32,2.07-0.55,4.15-0.77,6.23c-0.38,3.58-0.47,7.21-1.13,10.74
			c-0.83,4.42-2.24,8.73-3.16,13.13c-1.42,6.77-2.79,13.56-3.9,20.38c-0.56,3.47-2.08,6.91-0.77,10.58
			c0.31,0.86-0.08,1.99-0.23,2.98c-0.26,1.69-0.75,3.35-0.85,5.04c-0.3,5.01-1.67,9.65-4.18,14c-0.83,1.45-1.24,3.14-1.84,4.71
			c0.19,0.08,0.38,0.16,0.57,0.24c2.5-4.11,3.8-8.89,6.65-13.21c1.13,3.48,1.11,3.47,0.03,6.14c-0.55,1.36-1.01,2.76-1.51,4.14
			c3-3.55,3.44-8.28,6.11-12.43c0.87,2.05,0.81,3.63,0.24,5.31c-0.65,1.9-1.18,3.83-1.68,5.78c-0.15,0.59-0.02,1.25-0.02,2.56
			c3.45-3.44,2.61-8.11,5.26-11.22c1,1.02,1.16,2.15,0.82,3.36c-0.41,1.45-0.9,2.87-1.33,4.32c-0.52,1.72-1.02,3.45-1.53,5.18
			c0.21,0.06,0.42,0.13,0.63,0.19c3.01-3.62,2.5-8.59,4.53-13.03C500.65,437.64,497.17,440.87,497.93,444.65z M607.32,353.16
			c0.58,0.4,0.73,0.56,0.91,0.62c4.65,1.38,8.5,4.58,13.33,5.69c1.67,0.38,3.07,2.08,4.54,3.24c1.57,1.24,3.02,2.66,4.64,3.83
			c3.74,2.7,7.54,5.3,11.33,7.93c2.03,1.4,3.9,3.22,6.51,2.46c0.77,1.01,1.24,2.16,2.08,2.63c1.65,0.91,3.46,1.8,5.29,2.07
			c4.84,0.73,9.23,2.61,13.61,4.61c2.87,1.31,5.91,1.04,8.9,0.7c0.89-0.1,1.96-0.79,2.47-1.53c2.84-4.14,4.51-8.7,4.28-13.8
			c-0.04-0.99-0.21-2.06-0.66-2.92c-0.48-0.92-1.22-1.96-2.11-2.35c-2.07-0.92-4.28-1.54-6.47-2.19c-4.84-1.44-9.97-1.69-14.69-3.62
			c-1.84-0.75-3.85-1.18-5.57-2.13c-2.98-1.64-5.71-3.73-8.7-5.34c-5.58-2.99-10.68-6.67-15.89-10.21
			c-3.55-2.41-7.33-4.49-11.03-6.67c-0.36-0.21-0.87-0.15-1.38-0.22c0,1.11,0,1.95,0,3.1c-4.35-1.4-8.02-4.1-12.54-4.31
			c0.5,0.67,1.07,1.21,1.73,1.55c1.6,0.84,3.25,1.57,4.87,2.37c2.21,1.1,2.36,1.41,1.98,4.38c-3.37-1.44-6.69-2.86-10.01-4.28
			c1.29,2.73,5.55,3.13,4.7,7.32c-2.63-0.45-5.04-1.62-8.14-0.75c0.92,0.73,1.44,1.31,2.09,1.62c1.54,0.74,3.15,1.31,4.71,2.01
			c1.64,0.74,1.8,2.22,0.4,3.45C608.23,352.63,607.89,352.79,607.32,353.16z M585.69,205.98c-0.17,0.85-0.41,1.61-0.45,2.37
			c-0.3,5.92-2.88,10.73-7.07,14.8c-1.29,1.25-2.5,2.63-3.54,4.09c-0.45,0.63-0.73,1.78-0.47,2.44c1.36,3.44,2.86,6.83,4.41,10.19
			c2.48,5.36,5.04,10.68,7.57,16.02c0.95,2.01,1.91,4.02,2.89,6.08c9.91-10.14,14.32-23.14,21.42-34.69
			c-3.08-3.14-5.93-6.35-7.57-10.43c-1.7-4.21-1.5-8.57-1.02-13.26c-2,0.26-3.92,0.1-5.46,0.79
			C593,205.96,589.49,206.2,585.69,205.98z M676.08,307.19c-5.59,1.94-10.93,3.79-16.27,5.64c0.74,2.31,1.76,4.52,2.15,6.84
			c1.15,6.89,2.07,13.81,3.05,20.73c0.38,2.68,0.14,5.58,1.13,7.99c1.13,2.73,2.05,5.34,2.01,8.29c-0.01,0.44,0.33,0.88,0.32,0.85
			c2.12,0.47,4,0.5,5.47,1.3c2.71,1.46,5.49,1.54,8.35,1.56c-0.8-7.27-1.56-14.34-2.34-21.4c-0.3-2.69-0.54-5.39-0.95-8.07
			c-0.61-3.96-1.49-7.89-1.99-11.87C676.53,315.28,676.4,311.47,676.08,307.19z M665.67,356.85c-0.39-1.38-0.36-2.37-0.81-2.71
			c-1.42-1.06-1.47-2.55-1.62-4.03c-0.12-1.2,0.01-2.43-0.2-3.6c-0.65-3.74-1.34-7.47-2.15-11.18c-0.49-2.24-1.25-4.42-1.85-6.64
			c-0.7-2.6-1.29-5.23-2.03-7.81c-0.51-1.79-1.19-3.54-1.8-5.33c-2.01,0.85-1.99,0.86-2.86,2.34c-0.91,1.54-2.06,1.54-2.79-0.09
			c-0.82-1.83-1.34-3.78-2.13-5.62c-0.71-1.64-1.5-3.27-2.45-4.78c-0.88-1.41-2.1-2.61-3.02-4.01c-1.96-2.97-3.81-6.01-5.94-9.38
			c0,1.36-0.11,2.43,0.02,3.46c0.38,2.97,0.73,5.95,1.32,8.88c1.36,6.68,2.92,13.31,4.29,19.99c1.01,4.9,2.11,9.81,2.65,14.78
			c0.33,2.98,1.23,5.11,3.89,6.56c5.01,2.74,9.96,5.61,14.95,8.4C663.65,356.34,664.26,356.42,665.67,356.85z M606.36,311.38
			c-3.51,0.48-6.84,1.24-10.19,1.3c-3.42,0.06-6.89-0.44-10.39-1.97c4.17,11.45,4.13,23.48,5.86,35.21c1.28,0,2.37-0.07,3.45,0.02
			c1.01,0.08,2.01,0.33,3.24,0.54c-0.18-1.43-0.3-2.38-0.45-3.57c1.35-0.32,2.52-0.6,3.94-0.94c-0.84-1.01-1.51-1.74-2.09-2.53
			c-0.96-1.32-0.82-1.87,0.63-2.5c0.81-0.35,1.67-0.62,2.48-0.91c-0.64-3.9-0.05-4.57,3.6-4.87c1.07-1.29,1.87-2.25,3-3.6
			c0.49-4.66,1.04-9.89,1.61-15.28c-1.97,0.32-3.22,2.32-5.15,1.45c-0.11-0.32-0.27-0.54-0.22-0.68
			C605.89,312.42,606.17,311.82,606.36,311.38z M547.04,78.95c-5.39,3.83-6.78,5.44-6.77,7.77c1.46-0.39,2.92-0.79,4.63-1.26
			c-0.57,3.68-2.01,6.42-4.63,8.5c-1.27,1.01-1.79,2.23-1.27,4.14c1.03-0.91,1.89-1.58,2.65-2.34c5.89-5.87,11.83-11.7,17.61-17.68
			c4.37-4.52,8.54-9.22,12.78-13.86c0.46-0.5,0.84-1.11,1.11-1.73c0.09-0.21-0.25-0.79-0.51-0.89c-0.28-0.1-0.89,0.08-1.01,0.31
			c-0.21,0.41-0.15,0.96-0.24,1.45c-0.05,0.28-0.17,0.55-0.35,1.11c-0.7-1.25-1.06-1.88-1.43-2.54c-0.75,0.28-1.3,0.53-1.87,0.69
			c-3.73,1.03-6.52,3.57-9.14,6.13c-1.23,1.2-2.03,2.7-3.82,3.36c-0.84,0.31-1.52,1.26-2.07,2.06c-0.99,1.43-1.77,3.01-2.77,4.43
			C549.06,79.83,548.66,79.8,547.04,78.95z M506.92,422.32c9.51-27.27,14.28-55.38,16.87-84.41c-1.48,5.57-2.96,10.67-4.17,15.83
			c-1.53,6.54-2.88,13.12-4.24,19.7c-1.91,9.23-3.98,18.44-5.56,27.72c-1.07,6.31-1.28,12.75-2.89,18.99
			C506.78,420.82,506.92,421.55,506.92,422.32z M609.97,304.07c-1.95-2.36-4.08-4.09-7.06-4.46c-2.19-0.28-4.38-0.74-6.58-0.78
			c-3.51-0.07-6.79,0.73-9.02,3.78c-1.93,2.64-1.47,4.56,1.41,6.12c0.59,0.32,1.32,0.56,1.98,0.56c3.3,0.01,6.64,0.22,9.89-0.22
			C604.2,308.58,607.34,306.76,609.97,304.07z M610.24,118.53c0.7-4,2.47-6.76,7.07-6.19c0.67-3.29,0.34-6.25-0.55-9.15
			c-0.56-1.83-2.08-2.81-3.36-2.02c-1.12,0.69-2.48,1.83-2.7,2.96C609.81,108.85,609.73,113.66,610.24,118.53z M569.58,110.48
			c-0.18,1.06-0.37,2.1-0.59,3.35c0.89,0,1.52,0,2.37,0c-1.12,1.61-2.5,2.91-1.6,5.22c2.01-2.84,3.3-6.28,7.42-6.07
			c0.48-2.02,1.21-3.85,0.28-5.99C574.77,108.19,572.23,109.31,569.58,110.48z M646.9,93.12c0.32,0.06,0.64,0.12,0.96,0.19
			c0.4-0.8,1.1-1.59,1.15-2.42c0.08-1.55-0.11-3.13-0.37-4.67c-0.48-2.88-0.82-3.13-4.31-3.6C644.47,86.39,645.69,89.75,646.9,93.12
			z M580.8,52.48c4.52-0.85,8.39-1.59,12.92-2.44C588.35,47.73,583.26,48.61,580.8,52.48z M541.73,89.65
			c-0.81-0.95-1.54-0.66-2.27-0.28c-0.87,0.45-1.74,0.9-2.6,1.36c-1.92,1.03-1.98,1.73-0.16,3.61
			C537.95,92.36,540.94,92.2,541.73,89.65z M530.73,98.9c2.27,0.41,2.27,0.41,5.1-2.98c-1.07-0.78-1.86-2.04-3.69-1.51
			C531.68,95.87,531.21,97.37,530.73,98.9z M611.39,55.06c2.7,0.73,5.03,1.36,7.71,2.08C616.54,53.07,614.8,52.58,611.39,55.06z
			 M529.38,128.59c0.68,1.79,1.23,3.22,1.88,4.94c1.44-1.84,2.12-3.57,1.84-6C531.88,127.88,530.88,128.17,529.38,128.59z
			 M565.85,55.95c-3.23-1.29-5.76,0.06-6.09,2.86C561.68,57.91,563.55,57.03,565.85,55.95z M546.57,66.48
			c-0.18-0.17-0.36-0.34-0.54-0.51c-2.75,1.23-5.78,4.34-6.24,6.41C542.07,70.39,544.32,68.43,546.57,66.48z M610.61,51.49
			c-0.11-0.26-0.22-0.51-0.33-0.77c-1.36,0.37-2.71,0.73-4.37,1.18c0.59,0.97,0.92,1.52,1.33,2.21
			C608.47,53.16,609.54,52.33,610.61,51.49z M593.73,90.71c0.24,0.21,0.47,0.42,0.71,0.62c1.74-1.39,3.68-2.62,4.07-5.92
			C596.62,87.5,595.18,89.11,593.73,90.71z M534.29,101.66c-0.96,1.27-3.04,1.97-2.53,4.34
			C534.12,105.27,533.55,103.08,534.29,101.66z M573.45,59.13c-2.17-1.82-2.17-1.82-4.5,0C570.44,59.13,571.94,59.13,573.45,59.13z
			 M624.95,57.18c0.17-0.2,0.34-0.4,0.5-0.61c-1.11-1.32-2.35-2.41-4.36-2.23C622.37,55.29,623.66,56.24,624.95,57.18z
			 M547.52,73.05c-2.15,0.09-2.15,0.09-2.91,1.97C545.73,74.26,546.62,73.66,547.52,73.05z M591.05,52.72
			c-0.02-0.16-0.04-0.32-0.06-0.48c-0.74,0.19-1.48,0.4-2.24,0.55c-1.26,0.24-1.26,0.22-2.1,0.8C588.2,53.28,589.63,53,591.05,52.72
			z M563.87,62.1c-2.41,0.15-2.41,0.15-3.77,2.3C561.43,63.59,562.36,63.02,563.87,62.1z M535.68,132.34c1.72-0.15,2.18-1,1.54-2.82
			C536.56,130.73,536.12,131.53,535.68,132.34z M612.83,332.7c-0.07,0.17-0.14,0.34-0.21,0.51c0.79,0.32,1.58,0.64,2.37,0.96
			c0.07-0.17,0.14-0.34,0.21-0.51C614.41,333.34,613.62,333.02,612.83,332.7z M536.43,121.67c0.32,0.01,0.64,0.02,0.96,0.03
			c0.04-0.68,0.09-1.37,0.13-2.05c-0.27-0.03-0.53-0.05-0.8-0.08C536.62,120.27,536.53,120.97,536.43,121.67z M641.01,108.24
			c0.16-0.28,0.31-0.56,0.47-0.85c-0.67-0.34-1.34-0.68-2.02-1.01c-0.11,0.2-0.22,0.39-0.34,0.59
			C639.76,107.39,640.39,107.81,641.01,108.24z M538.76,82.29c1.07-1.22,1.7-1.93,2.32-2.65C539.58,79.6,538.95,80.31,538.76,82.29z
			 M550.3,65.37c-0.14-0.16-0.28-0.31-0.43-0.47c-0.55,0.46-1.1,0.92-1.65,1.38c0.11,0.13,0.21,0.26,0.32,0.4
			C549.13,66.24,549.72,65.81,550.3,65.37z M530.33,88.67c0.15,0.03,0.29,0.07,0.44,0.1c0.16-0.56,0.31-1.12,0.47-1.68
			c-0.2-0.05-0.41-0.09-0.61-0.14C530.53,87.53,530.43,88.1,530.33,88.67z M657.39,314.09c-0.25,0.08-0.5,0.16-0.74,0.23
			c0.23,0.63,0.46,1.27,0.69,1.9c0.16-0.05,0.33-0.11,0.49-0.16C657.68,315.4,657.54,314.75,657.39,314.09z"/>
		<path class="st1" d="M526.08,499.29c1.35-8.1,3.14-16.16,2.96-24.44c-0.1-4.4-0.67-8.8-0.71-13.2c-0.02-2.56,0.58-5.13,0.87-7.45
			c0.42-0.32,0.57-0.54,0.74-0.55c4.91-0.31,9.82-0.52,14.72-0.91c9.29-0.73,18.62-0.58,27.9-1.83c7.93-1.07,15.97-1.3,23.97-1.95
			c4.69-0.38,9.38-0.83,14.07-1.25c0.9-0.08,1.8-0.21,2.7-0.23c9.53-0.16,18.98-1.87,28.55-1.36c1.97,0.11,3.97-0.26,6.32-0.44
			c0.95,3.61,2.03,7.04,2.73,10.54c1.55,7.77,2.97,15.56,4.34,23.36c0.68,3.85,1.02,7.76,1.71,11.61c0.37,2.05,1.18,4.01,1.74,6.03
			c0.18,0.66,0.18,1.38,0.26,2.07c-20.13,0-40.26,0-60.38,0c-1.01-3.51-1.37-7.24-3.38-11.04c-0.99,0.96-1.71,1.54-2.26,2.25
			c-0.54,0.7-0.74,1.73-1.38,2.28c-1.05,0.9-1.26,1.97-1.28,3.21c-0.02,1.1-0.1,2.2-0.16,3.3
			C568.75,499.29,547.42,499.29,526.08,499.29z"/>
		<path class="st1" d="M326.82,499.29c-7.04,0-14.09,0-21.13,0c0.15-1.48,0.12-3.01,0.48-4.43c1.6-6.4,3.38-12.76,4.96-19.16
			c1.25-5.05,2.34-10.15,3.44-15.23c0.61-2.85,1.09-5.73,1.71-9.03C321.1,467.44,324.33,483.28,326.82,499.29z"/>
		<path d="M326.82,499.29c-2.49-16.01-5.72-31.85-10.54-47.86c-0.62,3.3-1.1,6.18-1.71,9.03c-1.1,5.09-2.19,10.18-3.44,15.23
			c-1.58,6.4-3.36,12.76-4.96,19.16c-0.36,1.43-0.33,2.95-0.48,4.43c-1.21,0-2.42,0-3.62,0c1.37-5.45,2.8-10.88,4.09-16.34
			c2.21-9.37,4.4-18.75,6.45-28.16c0.59-2.7,0.19-5.6,1.42-8.2c0.28-0.59,0.7-1.12,1.05-1.67c0.53,0.35,1.18,0.6,1.56,1.07
			c0.9,1.12,0.85,1.16,2.7,1.71c2.62,10.44,5.33,20.8,7.78,31.22c0.96,4.09,1.46,8.29,1.96,12.47c0.34,2.84,1.12,5.46,2.58,7.9
			C330.04,499.29,328.43,499.29,326.82,499.29z"/>
		<path d="M590.09,499.29c0.06-1.1,0.14-2.2,0.16-3.3c0.02-1.24,0.23-2.31,1.28-3.21c0.64-0.55,0.84-1.57,1.38-2.28
			c0.55-0.71,1.28-1.29,2.26-2.25c2,3.8,2.37,7.53,3.38,11.04c-0.81,0-1.61,0-2.42,0c-0.48-1.32-0.97-2.64-1.69-4.6
			c-0.83,1.98-1.38,3.29-1.93,4.6C591.7,499.29,590.9,499.29,590.09,499.29z"/>
		<path d="M297.31,21.37c-3.03,1.05-6.07,2.1-9.1,3.16c-0.08-0.12-0.16-0.24-0.24-0.35c0.35-0.37,0.64-0.9,1.08-1.09
			c1.89-0.85,3.82-1.62,5.76-2.37c0.97-0.37,1.97-0.63,2.41,0.76C297.22,21.48,297.31,21.37,297.31,21.37z"/>
		<path d="M380.27,342.46c0.62,0.17,1.24,0.32,1.84,0.54c0.05,0.02,0.03,0.63-0.12,0.74C381.17,344.33,380.55,344.01,380.27,342.46z
			"/>
		<path d="M237.9,360.49c0.22-0.54,0.43-1.09,0.65-1.63c0.14,0.04,0.29,0.09,0.43,0.13c-0.16,0.55-0.31,1.1-0.47,1.66
			C238.31,360.6,238.11,360.55,237.9,360.49z"/>
		<path d="M490.16,93.59c0.46,0.22,0.92,0.43,1.37,0.67c0.02,0.01-0.14,0.47-0.17,0.46c-0.5-0.1-0.99-0.23-1.48-0.36
			C489.97,94.1,490.07,93.84,490.16,93.59z"/>
		<path d="M388.65,45.02c0.18-0.51,0.36-1.02,0.54-1.52c0.06,0.01,0.13,0.03,0.19,0.04c-0.11,0.53-0.23,1.06-0.34,1.59
			C388.91,45.09,388.78,45.06,388.65,45.02z"/>
		<path d="M201.74,31.91c-0.39-0.19-0.78-0.38-1.17-0.57c0.12-0.23,0.24-0.47,0.36-0.7c0.38,0.23,0.76,0.45,1.15,0.68
			C201.96,31.51,201.85,31.71,201.74,31.91z"/>
		<path class="st1" d="M286.72,376.42c-2.96,0.13-5.76,0.39-8.56,0.34c-4.51-0.07-9.02-0.38-13.53-0.54
			c-5.81-0.2-11.63-0.32-17.44-0.55c-1.56-0.06-3.25,0.34-4.83-1c1.46-5.19,3-10.42,4.38-15.69c1.5-5.71,2.77-11.47,4.3-17.17
			c1.14-4.26,2.39-8.5,3.85-12.66c2.33-6.63,4.67-13.23,6.18-20.13c1.6-7.35,3.44-14.65,5.35-21.92c1.66-6.3,3.73-12.5,5.31-18.83
			c2.14-8.57,4.14-17.18,4.58-26.06c0.08-1.67,0.24-3.33,0.36-4.89c-1.55-0.92-2.72-0.86-3.42,0.41c-0.63,1.14-1.55,1.17-2.55,1.1
			c-4.1-0.3-8.19-0.42-12.25-1.41c-3.29-0.8-6.76-0.89-10.14-1.32c-0.97-0.12-1.92-0.34-3.11-0.55c6.25-13.55,9.65-27.5,10.28-42.31
			c0.95-0.07,1.73-0.28,2.45-0.16c5.14,0.87,10.28,1.82,15.42,2.73c4.34,0.77,8.68,1.6,13.04,2.25c2.88,0.42,5.8,0.49,8.69,0.87
			c0.93,0.12,1.93,0.58,2.65,1.18c1.68,1.42,3.13,3.11,4.82,4.53c2.6,2.2,5.27,4.33,8.02,6.34c1.22,0.89,1.67,1.86,1.52,3.3
			c-0.88,8.59-1.56,17.2-2.62,25.76c-1.3,10.46-2.69,20.91-4.44,31.3c-2.09,12.36-3.59,24.8-6.56,37.03
			c-2.32,9.55-3.76,19.31-5.34,29.03c-1.27,7.82-2.03,15.71-3.26,23.53C289.07,366,287.84,370.98,286.72,376.42z"/>
		<path class="st1" d="M377.21,376.24c-1.93-0.13-3.19-0.29-4.44-0.29c-2.69-0.01-5.41-0.16-8.08,0.13
			c-6.52,0.71-12.99,1.22-19.45-0.59c-2.2-0.62-4.53-0.81-6.81-1.08c-1.68-0.2-2.44-1.05-2.62-2.72c-0.32-2.97-1.3-5.94,0.51-8.94
			c-1.66-0.89-1.59-2.42-1.63-3.94c-0.23-8.53-0.49-17.06-0.72-25.59c-0.2-7.53-0.55-15.06-0.51-22.59
			c0.04-8.02,0.49-16.04,0.7-24.06c0.21-8.12,0.52-16.25,0.47-24.37c-0.08-11.44-0.36-22.87,1.49-34.22
			c0.69-4.26,1.41-8.51,2.24-12.74c0.15-0.79,0.72-1.66,1.35-2.16c4.84-3.86,8.97-8.35,12.28-13.58c0.86-1.36,1.92-1.82,3.45-1.95
			c5.79-0.49,11.59-0.91,17.34-1.72c3.75-0.53,7.39-1.8,11.12-2.5c3.72-0.7,7.5-1.1,11.46-1.67c0.36,1.3,0.72,2.22,0.86,3.17
			c1.47,10.11,2.9,20.22,4.37,30.32c0.35,2.38,0.86,4.74,1.18,7.13c0.23,1.68-0.2,2.12-1.82,2.44c-6.11,1.2-12.19,2.51-18.32,3.6
			c-4.43,0.79-8.91,1.38-13.39,1.85c-1.2,0.13-2.72-1.03-3.61,0.29c-0.61,0.91-0.51,2.29-0.72,3.45c-0.84,4.7-0.3,9.39,0.08,14.09
			c0.32,4,0.54,8.01,0.78,12.01c0.36,6.01,0.81,12.02,1.02,18.04c0.21,6.22,0.06,12.46,0.27,18.68c0.19,5.71,0.74,11.41,0.96,17.12
			c0.12,3.09,0.06,6.21-0.21,9.29c-0.6,6.99,0.85,13.8,1.6,20.66c0.27,2.46,0.97,4.93,1.83,7.27c0.75,2.04,2.1,3.86,3.01,5.86
			C374.57,369.81,375.73,372.75,377.21,376.24z"/>
		<path class="st1" d="M360.31,78.86c0.39,1.56,0.53,2.67,0.94,3.68c1.07,2.62,3.45,3.56,5.9,2.15c1.81-1.04,3.4-2.48,5.06-3.77
			c0.86-0.67,1.65-1.41,2.52-2.15c0.72,1,1.19,1.95,1.92,2.6c1.19,1.06,1.49,2.33,1.39,3.79c-0.3,4.4-0.5,8.81-0.95,13.2
			c-0.77,7.69-1.62,15.37-2.61,23.03c-0.33,2.56-1.1,5.08-1.87,7.55c-1.3,4.22-2.86,8.36-4.09,12.59c-1.05,3.61-2.47,6.93-4.75,9.98
			c-3.81,5.09-8.08,9.73-12.63,14.13c-1.26,1.22-2.94,2.16-4.6,2.75c-6.81,2.44-13.93,2.87-21.09,2.7
			c-5.21-0.13-9.65-2.54-14.02-5.04c-3.05-1.74-5.95-3.74-8.96-5.55c-4.09-2.45-6.92-6-9.34-10.01c-3.55-5.88-6.52-12.01-7.23-18.89
			c-0.54-5.27-0.64-10.61-0.59-15.92c0.08-8.43,0.8-16.82,2.32-25.13c0.11-0.58,0.26-1.29,0.05-1.78c-0.89-2-0.36-3.93,0.04-5.9
			c0.55-2.7,1.23-3.75,3.89-3.58c3.52,0.22,6.54-0.93,9.5-2.38c2.98-1.46,6-1.4,8.68,0.09c3.83,2.12,6.55,1.32,8.89-2.11
			c0.73-1.07,1.65-2,2.71-3.28c1.07,1.33,1.79,2.25,2.53,3.15c3.47,4.23,5.99,4.46,10.11,0.91c0.3-0.26,0.63-0.46,1.09-0.79
			c1.05,1.25,1.98,2.55,3.11,3.65c1.73,1.68,2.23,1.72,4.12,0.27c1.82-1.4,3.53-2.96,5.59-4.7c0.53,1.25,0.89,2.37,1.45,3.38
			c1.57,2.81,3.99,5.41,8.39,2.67C358.52,79.68,359.34,79.34,360.31,78.86z M342.46,99.48c-0.61,3.62-1.32,6.85-1.65,10.12
			c-0.26,2.57-0.33,5.23,0.02,7.78c0.38,2.71,1.49,5.26,4.5,6.22c0.53,0.17,1.36,0.35,1.68,0.08c1.59-1.34,3.23-2.69,4.52-4.3
			c2.19-2.72,2.2-6.22,2.64-9.45c0.67-4.86,1.06-9.79,0-14.66c-0.67-3.07-2.22-3.93-5.23-3.07c-0.75,0.21-1.59,0.76-2.24,0.59
			c-1.9-0.5-2.48,0.53-3.06,1.98c-0.71,1.78-1.61,3.43-3.58,4.23c-0.48,0.19-0.72,0.96-1.06,1.47c0.11,0.13,0.22,0.26,0.34,0.39
			C340.28,100.44,341.23,100.02,342.46,99.48z M325.46,99.67c-0.46-2.55-0.7-5.17-1.42-7.64c-0.7-2.42-4.79-4.36-7.19-3.62
			c-1.86,0.58-3.52,1.58-4.22,3.56c-0.18,0.5-0.16,1.56,0.05,1.64c1.68,0.65,0.77,1.88,0.66,2.81c-0.35,2.78-0.89,5.54-1.26,8.31
			c-0.51,3.84,0.18,7.57,1.39,11.2c0.25,0.74,0.71,1.45,1.23,2.05c1.76,2.06,3.62,2.25,5.32,0.19c1.31-1.59,2.55-3.47,3.07-5.42
			C324.23,108.51,325.5,104.23,325.46,99.67z M321.54,133.89c0.31,3.65,0.61,7.14,0.91,10.64c0.23,2.77,1.57,5.15,2.91,7.46
			c0.46,0.8,1.71,1.39,2.71,1.6c2.65,0.58,5.17,0.09,7.39-1.59c3.14-2.37,5.59-5.28,6.01-9.28c0.28-2.67-0.05-5.41-0.18-8.11
			c-0.07-1.45-0.71-2.86,0.66-4.2c0.4-0.39,0.23-1.81-0.17-2.44c-0.28-0.44-1.41-0.53-2.13-0.47c-1.39,0.11-2.75,0.52-4.13,0.66
			c-3.59,0.37-7.2,0.56-10.78,1.02c-1.67,0.21-3.31,0.79-4.9,1.38c-0.55,0.2-1.24,0.94-1.24,1.44c0,0.5,0.7,1.1,1.22,1.48
			C320.16,133.75,320.74,133.72,321.54,133.89z"/>
		<path class="st1" d="M330.44,360.96c-12.26-0.34-24.14-0.66-36.37-1c0.47-3.23,0.95-6.28,1.36-9.35
			c0.82-6.06,1.54-12.14,2.43-18.19c0.52-3.57,1.23-7.11,1.96-10.64c1.79-8.64,3.71-17.26,5.45-25.91
			c0.75-3.74,1.17-7.54,1.75-11.31c0.34-2.18,0.72-4.35,1.05-6.54c1.76-11.61,3.72-23.18,5.19-34.83
			c1.14-9.05,1.68-18.18,2.43-27.28c0.36-4.38,0.59-8.77,0.89-13.38c0.76,0.42,1.33,0.81,1.96,1.06c1.57,0.62,3.12,1.52,4.75,1.69
			c2.57,0.27,5.19,0.12,7.78-0.04c0.84-0.05,1.68-0.61,2.46-1.05c0.76-0.43,1.45-1,2.58-1.8c0,1.03,0.09,1.67-0.01,2.26
			c-1.18,6.92-2.51,13.82-3.56,20.77c-0.98,6.55-1.8,13.12-2.43,19.71c-0.26,2.67,0.15,5.41,0.31,8.12
			c0.68,11.34,0.25,22.65-0.47,33.99c-0.6,9.41-0.76,18.86-0.65,28.29c0.17,14.24,0.75,28.48,1.15,42.72
			C330.46,359.06,330.44,359.85,330.44,360.96z"/>
		<path class="st1" d="M196.48,60.78c0.89,0.21,1.67,0.39,2.94,0.69c0.08-2.31,0.23-4.16,0.2-6.02c-0.05-3.61-0.23-7.23-0.28-10.84
			c-0.01-0.62,0.37-1.25,0.85-1.88c2.04,4.58,1.83,9.61,2.75,14.58c1.85-0.76,2.1-2.03,2.19-3.3c0.17-2.5,0.26-5.02,0.36-7.52
			c0.07-1.81,0.37-3.54,1.81-4.96c0.34,3.23-1.89,6.36-0.46,9.77c2.36-0.18,2.63-1.94,2.82-3.6c0.24-2.11,0.93-4.01,2.22-6.13
			c0.71,2.26-0.29,3.85-0.76,5.5c-0.35,1.25-0.95,2.45-1.17,3.72c-0.11,0.64,0.36,1.39,0.57,2.09c0.76-0.33,1.63-0.53,2.24-1.04
			c0.37-0.31,0.31-1.12,0.51-1.68c0.9-2.53,1.64-5.15,3.96-7.51c0.08,1,0.27,1.63,0.15,2.19c-1.04,5.11-2.02,10.23-3.23,15.3
			c-1.28,5.37-2.86,10.66-4.14,16.03c-0.36,1.5-0.12,3.14-0.15,4.72c-0.01,0.49,0.11,0.99,0.04,1.46
			c-1.13,7.44-2.02,14.92-3.49,22.29c-2.3,11.5-4.46,23.05-7.91,34.29c-0.85,2.75-1.34,5.71-1.38,8.59
			c-0.08,5.73-0.39,11.43-0.99,17.13c-0.15,1.49-0.09,3.02,0.06,4.51c0.29,2.83,0.77,3.15,3.75,2.78c2.61,3.44,6.27,5.72,9.75,8.23
			c4.71,3.4,9.27,7.02,14.47,9.7c0.5,0.26,0.81,0.88,1.29,1.22c1.94,1.41,3.74,3.16,5.89,4.09c5.47,2.36,10.45,5.5,15.41,8.7
			c1.33,0.86,2.61,1.81,4.06,2.82c-0.31,1.58-0.54,3.27-0.97,4.9c-0.92,3.49-1.91,6.96-2.92,10.42c-0.86,2.98-1.46,3.26-4.27,1.94
			c-4.84-2.27-9.2-5.25-13.34-8.64c-2.7-2.21-5.62-4.21-8.64-5.95c-5.47-3.15-11.08-6.08-16.67-9.03c-7.62-4.02-14.98-8.47-22-13.47
			c-1.03-0.74-1.92-1.69-2.87-2.53c0.42-0.49,0.71-0.84,1-1.17c-0.15-0.22-0.22-0.41-0.37-0.51c-0.16-0.11-0.37-0.13-0.56-0.2
			c-2.87-1.03-3.72-2.98-3.48-6.03c0.42-5.32,1.21-10.54,2.3-15.76c0.67-3.22,0.92-6.57,1-9.87c0.21-8.25,1.56-16.35,3.09-24.42
			c1.04-5.52,2.22-11.01,3.46-16.48c0.93-4.1,2.13-8.14,3.11-12.23c0.84-3.51,1.52-7.05,2.29-10.57c0.79-3.62,1.59-7.24,2.39-10.85
			c0.06-0.29,0.1-0.65,0.28-0.85c2.84-2.96,1.77-7.11,3.16-10.53C197.28,63.71,196.62,62.11,196.48,60.78z M242.25,220.43
			c0.81,1.86,0.81,1.86,2.07,2.11c-0.52-0.64-0.92-1.17-1.37-1.67C242.77,220.68,242.49,220.58,242.25,220.43z"/>
		<path class="st1" d="M301.4,25.86c-1.96,3.96-5.09,7.12-4.84,11.72c0.31-0.45,0.67-0.87,0.94-1.35c1.54-2.81,2.92-5.71,4.61-8.43
			c2.15-3.45,5.14-5.64,9.49-5.16c0.65,0.07,1.29,0.35,2.18,0.6c-0.56,0.88-0.95,1.56-1.4,2.19c-0.29,0.4-0.81,0.67-1.01,1.11
			c-0.59,1.25-0.86,2.71-1.65,3.79c-0.71,0.97-1.95,1.54-3.1,2.4c1.21,0.98,1.76,0.19,2.36-0.19c4.19-2.67,8.62-4.69,13.61-5.29
			c0.9-0.11,1.8-0.16,2.71-0.16c0.89,0,1.74,0,2.16,1.17c0.19,0.53,1.01,0.88,1.6,1.23c2.08,1.21,4.15,2.45,6.29,3.56
			c1.4,0.72,2.33,1.86,2.29,3.29c-0.1,3.25,2.21,4.74,4.34,6.29c0.66,0.48,1.85,0.23,2.98,0.33c0.38,0.61,0.9,1.45,1.63,2.64
			c0.75-1.57,1.26-2.71,1.83-3.81c1.18-2.28,3.5-3.23,5.45-4.61c4.27-3.03,9.08-4.67,14.26-5.17c2.68-0.26,4.9,0.64,6.17,3.02
			c-0.28,2.18-3.47,1.8-3.48,4.6c1.63-0.63,2.89-1.12,4.24-1.65c0.16,0.18,0.49,0.38,0.51,0.6c0.33,4.05,2.73,7.39,3.77,11.18
			c0.71,2.6,1.53,5.28,1.55,7.93c0.05,6.21-0.81,12.36-2.57,18.9c-0.47-0.83-0.71-1.26-0.97-1.69c-0.9-1.52-2.32-1.66-3.22-0.13
			c-1.7,2.89-4.42,4.63-7.01,6.5c-1.72,1.25-2.78,0.69-3-1.45c-0.13-1.29,0.13-2.61,0.01-3.9c-0.07-0.73-0.4-1.88-0.85-2.02
			c-0.68-0.2-1.66,0.18-2.36,0.59c-2.15,1.23-4.22,2.6-6.32,3.91c-2.42-2.16-3.42-4.59-3.71-7.36c-0.09-0.87,0.19-1.91-0.91-2.33
			c-1.3-0.49-2.05,0.42-2.81,1.23c-2.04,2.17-4.09,4.33-6.14,6.49c-2.04-1.02-2.47-2.8-3.27-4.22c-1.46-2.59-2.35-2.71-4.29-0.33
			c-0.63,0.78-1.27,1.58-2.03,2.22c-1.39,1.18-2.56,1.25-3.68-0.12c-1.68-2.05-3.88-3.87-4.06-7.26c3.09-1.61,6.34-3.3,9.78-5.08
			c-0.23-0.29-0.61-0.76-1.12-1.4c2.48-2.35,4.99-4.74,7.61-7.22c-0.78-1.1-1.94-0.68-2.71-0.86c-1.68,1.85-3.26,3.5-4.74,5.24
			c-4.55,5.35-10.84,8.17-16.82,11.36c-2.12,1.13-4.78,1.26-7.42,1.9c0.27,0.35,0.54,0.69,1.08,1.39c-1.06,0.31-2,0.79-2.95,0.83
			c-2.09,0.09-4.19-0.16-6.28-0.05c-3.98,0.2-6.39-0.06-10.54-1.47c-1.07-4.52-0.36-9,1.05-13.39c0.72-2.26,0.75-2.45-1.57-3.27
			C291.43,38.72,295.62,28.69,301.4,25.86z M323.32,30.86c-2.42-0.35-2.68-0.24-4.58,1.61c-3.2,3.12-5.72,7.48-5.69,10.68
			C315.58,37.74,319.59,34.45,323.32,30.86z M306.09,33.82c-0.11-0.14-0.22-0.29-0.33-0.43c-0.56,0.41-1.13,0.82-1.69,1.22
			c0.12,0.15,0.23,0.31,0.35,0.46C304.98,34.65,305.53,34.24,306.09,33.82z"/>
		<path class="st1" d="M444.28,89.36c0.38-0.07,0.76-0.19,1.14-0.19c0.38,0,0.75,0.11,1.31,0.21c1.71-3.72-0.69-7.33-0.12-11.13
			c1.77,0.86,1.55,2.58,2.04,3.87c0.27,0.73,0.16,1.6,0.33,2.38c0.19,0.87,0.24,0.86,2.03,1.56c2.06-4.56-0.27-9.86,2.39-14.36
			c1.68,1.27,1.06,3.11,1.18,4.73c0.05,0.68-0.26,1.38-0.31,2.07c-0.07,0.94-0.01,1.85,1.24,2.01c1.12,0.15,1.61-0.37,1.85-1.45
			c0.47-2.13,1.07-4.24,1.87-6.31c1.4,2.07,0.26,4.04-0.22,5.99c-0.42,1.69,0.15,3.25,0.51,4.79c0.24,1.01,1.61,0.75,2.24-0.49
			c0.91-1.79,1.7-3.64,2.61-5.43c0.33-0.65,0.87-1.2,1.58-1.7c0.51,2.13,0.35,4.2-0.19,6.16c-0.92,3.35-1.08,6.9-3.01,10.02
			c-0.71,1.15-0.57,2.92-0.56,4.4c0.01,2.48-0.86,4.68-1.73,6.91c-0.13,0.34-0.18,0.73-0.39,1.63c1.11-0.62,1.8-1,2.67-1.49
			c0.08,1.67,0.28,3.25,0.2,4.82c-0.32,6.41-0.69,12.82-1.1,19.23c-0.46,7.21-0.96,14.43-1.51,21.64c-0.38,5-0.9,10-1.31,15
			c-0.21,2.6-0.24,5.22-0.52,7.82c-0.2,1.88-0.71,3.73-0.98,5.61c-0.16,1.12-0.14,2.26-0.2,3.39c0.23,0.13,0.47,0.27,0.7,0.4
			c-0.44,0.25-0.87,0.52-1.31,0.76c-5.76,3.21-10.49,7.76-15.35,12.09c-9.68,8.63-20.04,16.37-30.54,23.93
			c-1.86,1.34-3.91,2.43-5.88,3.6c-0.21,0.13-0.55,0.06-0.65,0.06c-1.12-6.65-2.1-13.23-3.4-19.74c-0.4-2,0.01-3.18,1.55-4.36
			c3.75-2.86,7.47-5.75,11.09-8.77c7.16-5.97,14.23-12.04,21.35-18.05c1.12-0.94,2.33-1.78,3.5-2.68c1.54,1.53-0.26,2.89,0.46,4.51
			c0.54-0.62,1.12-1.02,1.29-1.55c0.39-1.24,0.7-2.52,0.84-3.81c0.82-7.47,1.56-14.95,2.37-22.42c0.14-1.29,0.58-2.56,0.69-3.85
			c0.79-9.2,1.53-18.4,2.28-27.6c0.27-3.3-0.01-6.76,0.93-9.85c0.75-2.47,0.24-4.86,0.66-7.26c0.24-1.39-0.98-3.1-1.73-4.58
			C445.71,90.96,444.92,90.19,444.28,89.36L444.28,89.36z"/>
		<path class="st1" d="M320.92,175.4c4.49-0.2,8.67-0.39,13.12-0.59c0.11,1.94,0.29,3.89,0.32,5.84c0.03,1.85,0.51,3.46,1.35,5.14
			c2.04,4.08,2.47,9.26-1.36,13.04c-1.27,1.25-2.56,2.23-4.39,2.35c-1.6,0.11-3.2,0.34-4.8,0.38c-4.56,0.13-8.63-3.4-9.09-7.9
			c-0.05-0.52,0.13-1.21,0.46-1.61c3.58-4.36,4.91-9.35,4.39-14.9C320.88,176.66,320.92,176.16,320.92,175.4z"/>
		<path class="st1" d="M293.3,364.11c12.73-0.68,25.04,0,37.57,1.13c0.36,3.28,0.67,6.21,1.03,9.52c-3.02,0-5.59,0-8.16,0
			c-6.2-0.01-12.39-0.02-18.59-0.05c-3.81-0.02-7.62,0.02-11.42-0.13c-2.24-0.09-2.43-0.39-2.05-2.58
			C292.15,369.27,292.79,366.56,293.3,364.11z"/>
		<path class="st1" d="M383.01,76.78c-1.94-0.68-1.92-1.91-1.73-3.29c0.53-3.97,0.97-7.95,1.51-11.92
			c0.68-4.99-0.19-9.78-1.76-14.49c-1.23-3.69-2.6-7.33-3.75-11.04c-0.54-1.76-0.71-3.63-1.1-5.69c3.18,1.66,5.46,4.01,6.42,7.26
			c0.99,3.34,1.75,6.8,2.17,10.26c0.88,7.39,0.19,14.82,0.04,22.24c-0.01,0.5,0.05,1.3-0.2,1.43
			C382.43,72.71,383.35,74.85,383.01,76.78z"/>
		<path class="st1" d="M340.69,197.58c2.98,0.15,5.58,0.28,8.46,0.43c-1.63,5.16-5.86,7.82-9.07,11.3c-0.2-0.07-0.39-0.14-0.59-0.22
			C339.89,205.25,340.29,201.41,340.69,197.58z"/>
		<path class="st1" d="M302.78,200.44c3.69,0.09,7.04-0.05,9.22-3.47c0.79,1.75,0.78,6.84,0.03,11.23
			C307.57,207.29,305.67,203.41,302.78,200.44z"/>
		<path class="st1" d="M345.98,39.65c3.03-3.76,6.2-6.57,10.22-8.26c0.68-0.29,1.62,0.03,2.5,0.6
			C354.65,34.43,350.58,36.88,345.98,39.65z"/>
		<path class="st1" d="M322.33,24.75c-3.06,1.21-6.05,2.39-9.08,3.59C315.7,22.99,318.61,22.06,322.33,24.75z"/>
		<path class="st1" d="M310.2,73.45c3.14-1.39,5.9-2.62,8.9-3.95c-0.86,1.7-3.33,4.6-4.38,5.18
			C313.06,75.59,311.95,74.33,310.2,73.45z"/>
		<path class="st1" d="M286.97,70.38c-0.61,2.56-1.13,5.14-1.86,7.67c-0.41,1.4-1.75,1.32-3.21,1.46c0.38-1.81-0.42-3.8,2.22-4.34
			c0.44-0.09,0.74-1.11,1.02-1.73c0.47-1.06,0.88-2.14,1.32-3.22C286.63,70.27,286.8,70.33,286.97,70.38z"/>
		<path class="st1" d="M322.17,21.71c3.28-1.23,6.98,0.42,10.09,4.54C328.64,25.06,325.34,23.94,322.17,21.71z"/>
		<path class="st1" d="M321.76,19.32c-3.04,0.75-5.36,2.12-7.86-0.39C316.43,18.66,318.73,18.11,321.76,19.32z"/>
		<path class="st1" d="M282.58,68.95c0.62-2.22,1.24-4.44,1.86-6.66c0.24,0.07,0.48,0.13,0.73,0.2c-0.61,2.22-1.22,4.44-1.83,6.67
			C283.09,69.09,282.83,69.02,282.58,68.95z"/>
		<path class="st1" d="M444.28,89.35c-0.52-1.54-1.05-3.07-1.57-4.61C444.08,86.03,444.77,87.52,444.28,89.35
			C444.28,89.36,444.28,89.35,444.28,89.35z"/>
		<path class="st1" d="M343.93,35.73c1.42-1.2,2.42-2.05,3.42-2.89c0.15,0.18,0.3,0.36,0.45,0.54
			C346.65,34.03,346.49,35.88,343.93,35.73z"/>
		<path class="st1" d="M292.67,75.26c-1.01,1.44-1.78,1.04-2.82-0.17C291.05,75.16,291.86,75.21,292.67,75.26z"/>
		<path class="st1" d="M194.6,51.58c0.23,0.72,0.45,1.44,0.68,2.16c-0.18,0.06-0.37,0.12-0.55,0.18c-0.23-0.72-0.45-1.44-0.68-2.15
			C194.23,51.7,194.42,51.64,194.6,51.58z"/>
		<path class="st1" d="M588.42,445.02c-0.57,0.35-0.66,0.45-0.74,0.45c-6.83,0.12-13.45,1.99-20.23,2.43
			c-4.21,0.27-8.43,0.3-12.65,0.54c-5.9,0.33-11.79,0.79-17.69,1.12c-2.81,0.16-5.62,0.26-8.43,0.19
			c-7.14-0.16-14.25,0.15-21.28,1.51c-1.94,0.38-3.56,0.14-5.11-1.46c0.12-0.73,0.07-1.69,0.44-2.45c1.7-3.52,2.24-7.44,4.29-10.9
			c1.38-2.32,1.59-5.34,2.29-8.06c0.72-2.82,1.37-5.66,2.08-8.48c0.17-0.67,0.37-1.37,0.73-1.95c1.77-2.86,2.75-6,3.36-9.28
			c0.58-3.06,1.1-6.13,1.77-9.16c0.67-3.02,1.66-5.98,2.24-9.02c1.5-7.87,2.71-15.8,4.3-23.65c1.17-5.8,0.59-11.89,2.86-17.47
			c1.1-2.71,1.71-5.44,2.02-8.37c0.28-2.64,1.44-5.19,2.22-7.77c0.12-0.38,0.37-0.74,0.4-1.13c0.28-3.39,0.46-6.79,0.8-10.17
			c0.27-2.68,0.65-5.36,1.09-8.02c0.65-3.85,1.34-7.7,2.13-11.52c0.38-1.81,1.03-3.57,1.52-5.2c-0.88-0.89-1.29,1.18-2.37-0.18
			c-0.75-0.95-2.24-0.01-2.47,1.4c-1.18,7.41-2.35,14.83-3.52,22.25c-0.56,3.54-2.86,5.13-6.43,4.28c-5-1.19-9.72-3.14-14.35-5.35
			c-3.34-1.59-6.83-2.86-10.21-4.36c-2.28-1.01-4.54-2.09-6.71-3.31c-1.24-0.7-1.66-1.81-1.03-3.33c1.51-3.61,2.86-7.28,4.28-10.92
			c1.08-2.8,2.19-5.59,3.24-8.4c4.38-11.74,9.79-22.94,18.34-32.26c2.54-2.77,5.73-5.03,8.92-7.08c3.95-2.54,8.06-4.91,12.34-6.83
			c6.29-2.82,12.78-5.21,19.21-7.72c4.81-1.88,9.67-3.64,14.63-5.5c3.7,8.1,7.44,16.19,11.1,24.32c1.76,3.91,3.41,7.88,5.06,11.84
			c0.3,0.72,0.49,1.53,0.52,2.31c0.11,2.9,0.23,5.8,0.16,8.7c-0.11,4.61-0.39,9.22-0.55,13.83c-0.04,1.02,0.12,2.05,0.47,3.08
			c1.98-2.28,2.58-4.93,2.55-7.71c-0.05-3.71-0.44-7.42-0.38-11.12c0.05-3.04,0.54-6.08,0.87-9.39c1.59,0.36,2.51-0.48,3.28-1.72
			c2.99-4.86,5.77-9.87,9.12-14.48c3.04-4.19,4.83-8.99,7.49-13.35c1.71-2.81,3.05-5.83,4.74-9.11c2.28,0.32,4.55,0.55,6.78,0.99
			c2.95,0.58,5.86,1.34,8.79,2.02c5.54,1.27,9.88,4.79,14.53,7.75c1.85,1.18,3.75,2.32,5.73,3.28c4.98,2.4,8.67,6.06,11.32,10.88
			c0.96,1.74,2.23,3.31,3.33,4.97c1.04,1.58,2.16,3.12,3.04,4.79c2.11,4,4.1,8.06,6.12,12.1c2.58,5.15,4.63,10.46,5.19,16.26
			c0.13,1.37,0.55,2.71,0.94,4.5c1.13-0.75,1.98-1.31,2.91-1.94c1.42,0.75,1.57,2.23,1.73,3.56c0.06,0.52-0.48,1.32-0.98,1.67
			c-3.92,2.8-7.94,5.35-12.6,6.91c-5.21,1.74-10.24,4-15.35,6.03c-0.74,0.3-1.5,0.56-2.19,0.81c-1.01-0.55-1.95-1.04-2.87-1.58
			c-0.41-0.25-0.91-0.52-1.12-0.92c-1.22-2.3-2.44-4.6-3.51-6.97c-0.74-1.64-1.28-3.37-1.84-5.09c-1.29-3.99-4.1-6.57-7.74-8.36
			c-0.49-0.24-1.26-0.43-1.68-0.22c-1.12,0.58-2.17,1.34-3.15,2.15c-0.32,0.26-0.49,0.92-0.43,1.36c0.3,2.29,0.54,4.42-0.07,6.85
			c-0.48,1.89,0.78,4.25,1.36,6.38c1.18,4.35,2.52,8.65,3.59,13.03c0.56,2.3,0.57,4.74,1.01,7.08c0.45,2.44,1.14,4.84,1.67,7.27
			c0.66,3.01,1.27,6.03,1.9,9.05c-0.2,0.16-0.41,0.32-0.61,0.48c-3.06-1.53-6.12-3.04-9.17-4.59c-1.86-0.95-3.72-1.93-5.54-2.94
			c-1.02-0.57-1.98-1.24-2.96-1.86c-0.25-0.16-0.52-0.47-0.75-0.44c-2.91,0.35-4.9-1.93-7.45-2.58c-1.47-0.38-2.16-1.32-2.09-2.87
			c0.18-4.41,0.4-8.81,0.45-13.22c0.03-3.18-0.18-6.35-0.32-9.53c-0.02-0.39-0.13-0.83-0.35-1.13c-2.5-3.44-5.1-6.75-9.84-7.12
			c-1.8-0.14-3.59-0.48-5.39-0.55c-4.45-0.17-8.67,0.58-11.8,4.09c-0.95,1.07-1.52,2.51-2.14,3.84c-1.35,2.89-0.42,5.8-0.01,8.73
			c0.49,3.47,0.56,7.01,1.18,10.45c0.81,4.53,1.97,8.99,2.97,13.48c0.74,3.31,1.45,6.61,0.63,10.05c-0.16,0.66,0.11,1.56,0.47,2.19
			c0.48,0.84,1.24,1.52,1.96,2.38c3.8-1.45,7.51-0.54,11.45,0.39c0.45,3.59,3.57,4.72,6.29,6.06c4.32,2.13,8.47,4.6,12.75,6.7
			c4.79,2.35,8.21,6.36,12.79,8.88c3.31,1.82,6.34,4.16,9.43,6.35c2.05,1.45,3.56,3.08,4.11,5.89c1.16,5.89,3.05,11.63,4.45,17.47
			c1.95,8.19,5.05,16.1,5.97,24.53c0.28,2.55,1.12,5.1,0.21,7.72c-0.16,0.47,0.28,1.14,0.37,1.72c0.2,1.35,0.36,2.7,0.58,4.32
			c-3.41,0.16-6.32,1.22-9.47,0.72c-1.13-0.18-2.4,0.75-3.63,0.86c-2.5,0.22-5.02,0.17-7.53,0.32c-6.21,0.36-12.42,0.79-18.63,1.17
			c-8.82,0.54-17.64,1.06-26.46,1.59c-0.68,0.04-1.37,0.01-2.3,0.01c-0.08-3.86-0.08-7.54-0.25-11.21c-0.14-3.1-0.49-6.19-0.7-9.28
			c-0.14-1.99-0.26-3.98-0.29-5.97c-0.08-4.92-0.2-9.84-0.15-14.76c0.09-7.85-0.54-15.65-1.32-23.45c-0.18-1.79-0.04-3.61-0.03-5.42
			c0.01-3.61-0.04-7.23,0.05-10.84c0.06-2.3,0.36-4.58,0.5-6.88c0.07-1.18,0.01-2.37,0.01-3.78c-1.04-0.12-1.87-0.22-2.62-0.3
			c-0.18,0.37-0.34,0.54-0.34,0.72c-0.13,3.4-0.37,6.8-0.31,10.19c0.08,4.71,0.38,9.41,0.6,14.11c0.14,2.91,0.22,5.83,0.47,8.73
			c0.63,7.31,0.9,14.62,0.64,21.97c-0.23,6.41-0.01,12.85,0.18,19.27c0.12,4.01,0.59,8,0.83,12
			C588.5,441.94,588.42,443.53,588.42,445.02z M582.33,395.98c1.52-0.94,1.81-2.13,1.52-3.49c-0.23-1.03-1.08-1.58-1.98-1.31
			c-0.57,0.17-1.24,0.99-1.33,1.61C580.33,394.15,580.98,395.23,582.33,395.98z M583.06,417.39c1.3-3.22,0.98-3.74-2.43-4.22
			C578.81,415.78,578.9,415.96,583.06,417.39z M581.25,433.24c-1.08,2.94-0.93,3.24,2.03,4.35
			C584.92,435.24,584.84,435.06,581.25,433.24z M582.08,376.08c1.09-2.21,1.25-3.9,0.04-6.09
			C580.78,372.08,580.54,373.76,582.08,376.08z M583.79,287.06c-0.21,1.77-0.35,2.95-0.51,4.28
			C586.31,290.43,586.47,289.66,583.79,287.06z M585.88,275.53c0.77-1.56,0.77-2.57-0.57-3.56
			C584.21,273.29,584.14,274.31,585.88,275.53z M582.37,403.08c1.79-0.16,1.79-0.16,2.31-1.67
			C583.43,401.35,582.69,401.82,582.37,403.08z M589.6,377.94c0.12-0.01,0.25-0.03,0.37-0.04c-0.06-0.73-0.12-1.46-0.18-2.19
			c-0.14,0.02-0.28,0.03-0.42,0.05C589.45,376.48,589.53,377.21,589.6,377.94z M585.33,430.93c0.08,0.04,0.16,0.09,0.24,0.13
			c0-0.91,0-1.82,0-2.73c-0.08,0.01-0.16,0.02-0.24,0.03C585.33,429.22,585.33,430.07,585.33,430.93z M590.06,384.36
			c-0.11-0.01-0.22-0.03-0.33-0.04c0,0.87,0,1.74,0,2.6c0.11,0,0.22-0.01,0.33-0.01C590.06,386.06,590.06,385.21,590.06,384.36z
			 M529.46,301.53c0.24,0.01,0.47,0.01,0.71,0.02c0-0.66,0-1.32,0-1.98c-0.14-0.01-0.28-0.02-0.42-0.04
			C529.65,300.2,529.55,300.87,529.46,301.53z M529.19,306.24c-0.16-0.03-0.33-0.07-0.49-0.1c-0.11,0.48-0.21,0.95-0.32,1.43
			c0.17,0.03,0.34,0.07,0.51,0.1C528.99,307.19,529.09,306.72,529.19,306.24z"/>
		<path class="st1" d="M601.6,86.14c2.08,1.09,3.46,2.47,4.27,4.41c0.72,1.73,2.01,2.66,3.92,2.82c2.5,0.22,4.14,1.74,5.43,3.62
			c-1.54,0.61-2.96,1.17-4.43,1.76c0.08-0.49,0.14-0.94,0.22-1.42c-0.2,0.07-0.44,0.08-0.53,0.19c-2.67,3.73-4.2,7.95-4.47,12.47
			c-0.12,2.12,0.71,4.29,1.03,6.46c0.25,1.68,0.34,3.39,0.61,5.07c0.17,1.07,0.41,2.18,0.88,3.14c0.25,0.5,1.04,1.01,1.62,1.04
			c3.77,0.23,7.31-2.28,8.34-6.01c1.18-4.27,2.1-8.61,1.73-13.08c-0.16-1.88-0.64-3.73-1.01-5.78c1.8,0.86,3.43,1.99,5.23,2.42
			c1.91,0.46,3.98,0.27,5.62,0.34c3.92,2.8,7.6,5.44,11.3,8.09c0.15,4.66,0.07,9.28,0.5,13.86c0.44,4.59-0.73,9.03-1.11,13.99
			c0.87-0.42,1.25-0.61,1.62-0.79c0.08,0.16,0.26,0.33,0.24,0.48c-0.42,3.68-0.7,7.38-1.32,11.03c-1.07,6.33-2.55,12.57-5.35,18.41
			c-1.04,2.16-2.06,4.35-3.29,6.41c-4.31,7.18-9.36,13.73-15.99,19.01c-2.76,2.2-5.87,3.48-9.16,4.38
			c-6.14,1.68-12.42,2.45-18.8,2.04c-1.34-0.09-2.54-0.17-3.75-1.38c-1.02-1.03-3.05-1.15-4.67-1.46c-1.86-0.35-3.88-0.13-5.64-0.73
			c-4.96-1.67-9.75-3.8-13.69-7.36c-2.83-2.55-5.53-5.27-8.11-8.07c-1.06-1.15-1.73-2.68-2.47-4.09
			c-3.37-6.47-5.21-13.45-6.54-20.57c-1.05-5.61-2.15-11.21-3.02-16.85c-0.36-2.36-0.24-4.81-0.17-7.21
			c0.02-0.68,0.54-1.81,1.03-1.94c2.34-0.62,3.69-3.07,6.24-3.23c0.31-0.02,0.59-0.42,0.76-1.12c-1.2,0.17-2.41,0.48-3.61,0.45
			c-0.65-0.02-1.74-0.54-1.82-0.99c-0.17-0.95,0.78-1.1,1.61-1.31c3.2-0.83,6.49-1.48,9.51-2.76c3.53-1.5,6.5-3.91,8.62-7.28
			c0.64-1.03,1.82-1.72,2.97-2.76c0.46,0.84,0.95,1.32,0.97,1.81c0.1,2.51,0.36,5.06,0,7.52c-0.28,1.84,0.25,3.03,1.35,4.29
			c2.99,3.43,2.96,3.44,6.34,0.61c0.69-0.58,1.61-0.93,2.17-1.6c0.88-1.06,1.91-2.2,2.23-3.47c1.14-4.58,2.07-9.24,1.47-14.01
			c-0.22-1.76,0.38-2.96,1.98-3.62c3.95-1.64,6.97-4.3,8.96-8C597.09,94.72,599.68,90.76,601.6,86.14z M579.4,157.16
			c-0.59,2.08,0.28,4.5-1.7,6.23c-0.3,0.26-0.07,1.32,0.15,1.93c0.79,2.15,1.78,4.23,2.51,6.41c2.64,7.82,13.43,11,19.42,5.39
			c5.63-5.27,8.05-12.1,7.67-19.82c-0.11-2.18-0.43-4.35-0.68-6.53c-0.01-0.12-0.29-0.2-0.51-0.34c-0.38,0.66-0.76,1.32-1.22,2.12
			c-0.5-0.68-0.82-1.12-1.03-1.41c-4.86,1.49-9.51,2.99-14.21,4.34c-2.6,0.75-5.26,1.29-7.91,1.82
			C581.2,157.43,580.42,157.22,579.4,157.16z"/>
		<path class="st1" d="M595.27,85.86c-2.22-0.6-3.4,1.02-4.78,2.22c-2.59,2.26-4.24,5.58-7.73,6.84c-0.33,0.12-0.62,0.49-0.82,0.81
			c-1.78,2.92-4.59,4.8-7.27,6.68c-2.16,1.52-4.83,2.34-7.36,3.51c-0.18-0.52-0.37-0.79-0.34-1.04c0.11-1.14-0.69-1.52-1.48-1.39
			c-0.66,0.1-1.63,0.65-1.77,1.17c-1.28,5-4.98,7.75-9.15,10.08c-0.74,0.41-1.52,0.74-2.58,1.26c0.94-1.72,1.7-3.07,2.41-4.45
			c0.1-0.2-0.08-0.55-0.18-1.16c-0.92,0.74-1.72,1.31-2.44,1.97c-1.33,1.22-2.8,2.35-3.89,3.77c-2.07,2.72-5.18,2.8-8.04,3.54
			c-1.02,0.26-1.26-0.21-1.4-2.51c-3.5,1.44-6.79,1.58-8.79-2.27c-1.24-2.39-0.55-5.19,1.81-7.24c-0.43,1.82-0.93,3.28-1.1,4.77
			c-0.19,1.66,0.37,2.05,2.15,1.85c0.14-0.02,0.25-0.29,0.46-0.55c-1.68-2.5-0.04-4.53,1.39-6.3c1.46-1.81,2.94-3.5,3.6-5.81
			c0.2-0.71,0.88-1.32,1.44-1.88c8.53-8.52,17.06-17.03,25.61-25.52c2.64-2.62,5.35-5.17,7.98-7.78c0.86-0.85,1.94-1.45,1.11-3.25
			c-0.41-0.89,0.79-2.52,1.32-4c1.19,0.71,2.33,1.39,3.25,1.94c1.95-1.63,3.69-3.08,5.48-4.58c1.14,0.67,2.06,1.21,3.12,1.82
			c2.84-2.32,5.93-4.01,10.37-3.32c-2.62,1.23-5.33,1.2-7.08,3.39c0.74,1.19,1.46,1.57,2.38,0.22c0.16-0.24,0.15-0.71,0.33-0.79
			c3.09-1.29,6.19-2.65,9.6-1.88c0.07,0.25,0.15,0.5,0.22,0.75c-1.31,0.49-2.61,0.98-3.92,1.47c0,0.11,0.01,0.22,0.01,0.33
			c1.05,0,2.1,0,2.88,0c1.31,0.66,2.42,1.22,3.45,1.74c3.64-4.42,2.22-4,7.64-2.68c2.82,0.69,5.58,1.6,8.36,2.45
			c1.42,0.43,2.52,1.07,2.54,2.89c0.01,1.24,0.81,1.74,2.24,1.77c2.27,0.05,4.53,0.56,6.8,0.84c1.32,0.17,1.46,1.08,1.38,2.23
			c1.82,0.04,3.33,0.46,4.6,1.89c1.63,1.84,1.75,1.72,0.79,4.2c-0.63,1.62-0.02,2.42,1.8,2.37c0.94-0.03,1.89,0,2.84,0
			c0.06,0.2,0.12,0.4,0.18,0.6c-0.58,0.45-1.15,0.92-1.73,1.36c-2.13,1.62-2.09,2.49,0.19,3.9c0.17,0.1,0.3,0.25,0.17,0.14
			c0.53,3.44,1.03,6.59,1.48,9.75c0.1,0.67,0.27,1.51-0.02,2.02c-1.05,1.85-0.03,2.78,1.59,3.72c-1.57,0.92-1.7,2.11-0.61,3.45
			c-3.35,1.98-6.85,1.78-9.64,0.11c-2.18-1.3-4.49-1.93-6.72-2.9c-2.39-1.05-4.8-2.03-7.2-3.05c-0.18-0.08-0.34-0.22-0.65-0.42
			c-0.4-1.11,0.4-2.6-1.03-3.69c-1.6-1.22-3.22-1.79-5.01-0.98c-1.56,0.7-2.64,0.27-3.77-0.72c-0.83-0.72-1.71-1.4-2.62-2.02
			c-1.32-0.91-2.12-1.97-2.06-3.72c0.06-1.58-0.72-2.8-2.31-3.46c-0.91-0.38-1.71-1.01-2.55-1.55c-1.54-0.99-3.07-0.55-3.04,1.16
			c0.06,4.11-3.54,5.37-5.52,7.86c0.1-1.02,0.47-1.83,1.61-1.96c0.19-1.31,2.3-1.9,0.96-3.73
			C595.89,83.33,595.58,84.59,595.27,85.86z M640.79,91.07c-0.74,2.66-0.74,2.66,1.35,3.98C641.61,93.5,641.2,92.28,640.79,91.07z"
			/>
		<path class="st1" d="M497.93,444.65c-0.76-3.78,2.71-7,0.1-10.79c-2.04,4.44-1.53,9.41-4.53,13.03c-0.21-0.06-0.42-0.13-0.63-0.19
			c0.51-1.73,1.01-3.46,1.53-5.18c0.44-1.44,0.93-2.87,1.33-4.32c0.34-1.21,0.18-2.34-0.82-3.36c-2.65,3.11-1.81,7.78-5.26,11.22
			c0-1.31-0.13-1.97,0.02-2.56c0.5-1.94,1.03-3.88,1.68-5.78c0.57-1.68,0.63-3.26-0.24-5.31c-2.68,4.15-3.12,8.88-6.11,12.43
			c0.5-1.38,0.97-2.78,1.51-4.14c1.08-2.67,1.1-2.66-0.03-6.14c-2.85,4.32-4.15,9.1-6.65,13.21c-0.19-0.08-0.38-0.16-0.57-0.24
			c0.6-1.58,1.01-3.27,1.84-4.71c2.51-4.36,3.88-8.99,4.18-14c0.1-1.69,0.59-3.36,0.85-5.04c0.15-0.99,0.53-2.12,0.23-2.98
			c-1.31-3.68,0.21-7.11,0.77-10.58c1.11-6.83,2.48-13.61,3.9-20.38c0.93-4.41,2.34-8.71,3.16-13.13c0.66-3.53,0.75-7.16,1.13-10.74
			c0.22-2.08,0.45-4.16,0.77-6.23c0.27-1.78,0.69-3.54,1.02-5.32c0.71-3.83,2.19-7.36,3.82-10.89c1.08-2.33,1.39-5.01,2.14-7.5
			c1.14-3.83,2.34-7.64,3.53-11.47c5.86,2.17,11.35,4.21,17.17,6.37c-0.34,1.32-0.71,2.74-1.09,4.15
			c-2.42,9.11-4.98,18.18-7.23,27.33c-1.98,8.08-3.75,16.22-5.38,24.37c-1.3,6.49-2.25,13.05-3.33,19.58
			c-0.62,3.76-1.22,7.52-1.81,11.28c-0.22,1.39-0.35,2.79-0.53,4.18c-0.19,1.48-0.44,2.96-0.59,4.44c-0.16,1.58-0.25,3.17-0.32,4.76
			c-0.2,4.35-0.79,8.6-3.38,12.28C499.58,443.09,498.82,443.71,497.93,444.65z"/>
		<path class="st1" d="M607.32,353.16c0.57-0.37,0.91-0.53,1.18-0.77c1.4-1.23,1.24-2.71-0.4-3.45c-1.56-0.7-3.17-1.28-4.71-2.01
			c-0.65-0.31-1.17-0.89-2.09-1.62c3.1-0.87,5.51,0.3,8.14,0.75c0.85-4.18-3.4-4.59-4.7-7.32c3.32,1.42,6.64,2.83,10.01,4.28
			c0.38-2.97,0.24-3.28-1.98-4.38c-1.62-0.8-3.27-1.54-4.87-2.37c-0.67-0.35-1.23-0.88-1.73-1.55c4.52,0.21,8.19,2.91,12.54,4.31
			c0-1.15,0-1.99,0-3.1c0.51,0.07,1.03,0.01,1.38,0.22c3.7,2.19,7.48,4.26,11.03,6.67c5.21,3.54,10.32,7.22,15.89,10.21
			c2.99,1.61,5.72,3.7,8.7,5.34c1.73,0.95,3.73,1.38,5.57,2.13c4.72,1.93,9.86,2.18,14.69,3.62c2.18,0.65,4.4,1.27,6.47,2.19
			c0.89,0.4,1.63,1.43,2.11,2.35c0.45,0.86,0.62,1.93,0.66,2.92c0.23,5.1-1.44,9.67-4.28,13.8c-0.51,0.75-1.59,1.44-2.47,1.53
			c-2.99,0.33-6.03,0.61-8.9-0.7c-4.38-2-8.77-3.88-13.61-4.61c-1.84-0.28-3.64-1.16-5.29-2.07c-0.85-0.47-1.31-1.61-2.08-2.63
			c-2.61,0.77-4.48-1.05-6.51-2.46c-3.79-2.63-7.6-5.23-11.33-7.93c-1.62-1.17-3.07-2.58-4.64-3.83c-1.47-1.16-2.86-2.86-4.54-3.24
			c-4.83-1.1-8.68-4.31-13.33-5.69C608.05,353.72,607.9,353.56,607.32,353.16z M645.18,355.08c-0.17,0.05-0.33,0.09-0.5,0.14
			c0.12,0.38,0.24,0.75,0.38,1.12c0.01,0.01,0.4-0.1,0.4-0.11C645.38,355.85,645.27,355.46,645.18,355.08z"/>
		<path class="st1" d="M585.69,205.98c3.79,0.22,7.31-0.03,10.72-1.58c1.53-0.7,3.46-0.53,5.46-0.79c-0.48,4.7-0.68,9.06,1.02,13.26
			c1.65,4.08,4.5,7.29,7.57,10.43c-7.1,11.55-11.51,24.54-21.42,34.69c-0.98-2.06-1.94-4.07-2.89-6.08
			c-2.53-5.34-5.09-10.66-7.57-16.02c-1.55-3.36-3.06-6.75-4.41-10.19c-0.26-0.67,0.02-1.81,0.47-2.44
			c1.04-1.46,2.25-2.84,3.54-4.09c4.19-4.08,6.77-8.88,7.07-14.8C585.28,207.59,585.53,206.83,585.69,205.98z"/>
		<path class="st1" d="M676.08,307.19c0.32,4.28,0.45,8.09,0.93,11.87c0.5,3.98,1.38,7.9,1.99,11.87c0.41,2.67,0.65,5.37,0.95,8.07
			c0.78,7.07,1.55,14.14,2.34,21.4c-2.86-0.02-5.65-0.09-8.35-1.56c-1.47-0.79-3.35-0.83-5.47-1.3c0.02,0.04-0.32-0.41-0.32-0.85
			c0.04-2.95-0.89-5.56-2.01-8.29c-0.99-2.41-0.75-5.31-1.13-7.99c-0.98-6.92-1.9-13.84-3.05-20.73c-0.39-2.32-1.4-4.53-2.15-6.84
			C665.14,310.98,670.49,309.12,676.08,307.19z"/>
		<path class="st1" d="M665.67,356.85c-1.41-0.43-2.01-0.51-2.51-0.79c-4.99-2.79-9.94-5.65-14.95-8.4
			c-2.66-1.45-3.56-3.57-3.89-6.56c-0.54-4.96-1.64-9.87-2.65-14.78c-1.37-6.67-2.93-13.31-4.29-19.99
			c-0.6-2.93-0.94-5.91-1.32-8.88c-0.13-1.03-0.02-2.09-0.02-3.46c2.12,3.37,3.98,6.41,5.94,9.38c0.92,1.39,2.13,2.59,3.02,4.01
			c0.95,1.52,1.74,3.14,2.45,4.78c0.79,1.84,1.32,3.8,2.13,5.62c0.73,1.63,1.87,1.63,2.79,0.09c0.87-1.47,0.85-1.48,2.86-2.34
			c0.61,1.78,1.29,3.53,1.8,5.33c0.74,2.59,1.33,5.21,2.03,7.81c0.59,2.22,1.36,4.4,1.85,6.64c0.81,3.71,1.5,7.44,2.15,11.18
			c0.21,1.18,0.08,2.41,0.2,3.6c0.15,1.48,0.2,2.97,1.62,4.03C665.31,354.48,665.28,355.47,665.67,356.85z"/>
		<path class="st1" d="M606.36,311.38c-0.19,0.44-0.47,1.04-0.69,1.66c-0.05,0.15,0.11,0.37,0.22,0.68
			c1.93,0.87,3.18-1.13,5.15-1.45c-0.57,5.39-1.12,10.62-1.61,15.28c-1.13,1.35-1.93,2.32-3,3.6c-3.65,0.3-4.24,0.98-3.6,4.87
			c-0.81,0.3-1.66,0.56-2.48,0.91c-1.45,0.63-1.59,1.18-0.63,2.5c0.58,0.79,1.25,1.52,2.09,2.53c-1.42,0.34-2.59,0.62-3.94,0.94
			c0.15,1.19,0.27,2.14,0.45,3.57c-1.23-0.21-2.23-0.46-3.24-0.54c-1.08-0.09-2.16-0.02-3.45-0.02
			c-1.73-11.73-1.69-23.76-5.86-35.21c3.51,1.53,6.97,2.03,10.39,1.97C599.52,312.62,602.86,311.86,606.36,311.38z"/>
		<path class="st1" d="M547.04,78.95c1.62,0.85,2.02,0.88,2.89-0.36c1-1.42,1.77-3,2.77-4.43c0.56-0.8,1.24-1.75,2.07-2.06
			c1.79-0.66,2.6-2.16,3.82-3.36c2.62-2.56,5.41-5.11,9.14-6.13c0.57-0.16,1.12-0.41,1.87-0.69c0.37,0.66,0.73,1.3,1.43,2.54
			c0.18-0.55,0.3-0.82,0.35-1.11c0.09-0.49,0.02-1.04,0.24-1.45c0.12-0.23,0.73-0.41,1.01-0.31c0.26,0.09,0.6,0.68,0.51,0.89
			c-0.26,0.62-0.65,1.23-1.11,1.73c-4.24,4.64-8.41,9.35-12.78,13.86c-5.78,5.98-11.72,11.8-17.61,17.68
			c-0.76,0.76-1.62,1.44-2.65,2.34c-0.52-1.91,0-3.13,1.27-4.14c2.62-2.08,4.06-4.81,4.63-8.5c-1.71,0.46-3.18,0.86-4.63,1.26
			C540.25,84.39,541.65,82.78,547.04,78.95z"/>
		<path class="st1" d="M506.92,422.32c0-0.77-0.15-1.51,0.02-2.16c1.6-6.24,1.81-12.69,2.89-18.99c1.58-9.29,3.65-18.49,5.56-27.72
			c1.36-6.58,2.71-13.16,4.24-19.7c1.21-5.16,2.69-10.26,4.17-15.83C521.21,366.94,516.44,395.05,506.92,422.32z"/>
		<path class="st1" d="M609.97,304.07c-2.63,2.7-5.77,4.51-9.38,5.01c-3.25,0.44-6.59,0.22-9.89,0.22c-0.66,0-1.39-0.24-1.98-0.56
			c-2.88-1.56-3.34-3.48-1.41-6.12c2.23-3.05,5.51-3.85,9.02-3.78c2.2,0.04,4.39,0.51,6.58,0.78
			C605.9,299.98,608.03,301.71,609.97,304.07z"/>
		<path class="st1" d="M610.24,118.53c-0.52-4.87-0.44-9.67,0.46-14.4c0.22-1.14,1.58-2.28,2.7-2.96c1.28-0.79,2.8,0.2,3.36,2.02
			c0.89,2.9,1.21,5.86,0.55,9.15C612.71,111.77,610.94,114.53,610.24,118.53z"/>
		<path class="st1" d="M569.58,110.48c2.65-1.17,5.19-2.29,7.88-3.48c0.93,2.14,0.2,3.97-0.28,5.99c-4.12-0.21-5.4,3.23-7.42,6.07
			c-0.9-2.31,0.48-3.62,1.6-5.22c-0.85,0-1.47,0-2.37,0C569.21,112.59,569.4,111.54,569.58,110.48z"/>
		<path class="st1" d="M646.9,93.12c-1.2-3.37-2.43-6.74-2.57-10.5c3.5,0.47,3.84,0.72,4.31,3.6c0.25,1.54,0.45,3.12,0.37,4.67
			c-0.04,0.82-0.74,1.61-1.15,2.42C647.54,93.25,647.22,93.18,646.9,93.12z"/>
		<path class="st1" d="M580.8,52.48c2.46-3.86,7.55-4.75,12.92-2.44C589.19,50.89,585.31,51.62,580.8,52.48z"/>
		<path class="st1" d="M541.73,89.65c-0.79,2.55-3.78,2.7-5.04,4.69c-1.82-1.88-1.77-2.58,0.16-3.61c0.86-0.46,1.73-0.91,2.6-1.36
			C540.19,88.99,540.92,88.71,541.73,89.65z"/>
		<path class="st1" d="M530.73,98.9c0.48-1.53,0.95-3.03,1.41-4.49c1.83-0.53,2.62,0.72,3.69,1.51
			C532.99,99.31,532.99,99.31,530.73,98.9z"/>
		<path class="st1" d="M611.39,55.06c3.41-2.48,5.15-1.99,7.71,2.08C616.42,56.42,614.1,55.79,611.39,55.06z"/>
		<path class="st1" d="M529.38,128.59c1.5-0.43,2.5-0.71,3.72-1.06c0.28,2.43-0.4,4.16-1.84,6
			C530.61,131.82,530.07,130.39,529.38,128.59z"/>
		<path class="st1" d="M565.85,55.95c-2.3,1.08-4.18,1.96-6.09,2.86C560.09,56,562.62,54.66,565.85,55.95z"/>
		<path class="st1" d="M546.57,66.48c-2.25,1.96-4.5,3.91-6.78,5.9c0.45-2.07,3.49-5.18,6.24-6.41
			C546.21,66.14,546.39,66.31,546.57,66.48z"/>
		<path class="st1" d="M610.61,51.49c-1.07,0.83-2.14,1.66-3.36,2.62c-0.42-0.69-0.75-1.24-1.33-2.21c1.66-0.45,3.01-0.81,4.37-1.18
			C610.39,50.98,610.5,51.24,610.61,51.49z"/>
		<path class="st1" d="M593.73,90.71c1.45-1.6,2.89-3.2,4.78-5.3c-0.39,3.31-2.33,4.53-4.07,5.92
			C594.2,91.12,593.97,90.92,593.73,90.71z"/>
		<path class="st1" d="M534.29,101.66c-0.74,1.42-0.17,3.62-2.53,4.34C531.25,103.63,533.33,102.93,534.29,101.66z"/>
		<path class="st1" d="M573.45,59.13c-1.5,0-3.01,0-4.5,0C571.28,57.31,571.28,57.31,573.45,59.13z"/>
		<path class="st1" d="M624.95,57.18c-1.29-0.94-2.57-1.89-3.86-2.83c2.01-0.19,3.25,0.91,4.36,2.23
			C625.28,56.78,625.11,56.98,624.95,57.18z"/>
		<path class="st1" d="M547.52,73.05c-0.89,0.61-1.79,1.21-2.91,1.97C545.37,73.14,545.37,73.14,547.52,73.05z"/>
		<path class="st1" d="M591.05,52.72c-1.43,0.28-2.85,0.56-4.39,0.87c0.84-0.57,0.84-0.55,2.1-0.8c0.75-0.15,1.49-0.36,2.24-0.55
			C591.01,52.4,591.03,52.56,591.05,52.72z"/>
		<path class="st1" d="M563.87,62.1c-1.52,0.93-2.44,1.49-3.77,2.3C561.46,62.25,561.46,62.25,563.87,62.1z"/>
		<path class="st1" d="M482.82,450.81c-0.55,0.09-1.1,0.19-2.24,0.38c0.52-1.14,0.83-1.81,1.14-2.48c0.19,0.03,0.37,0.05,0.56,0.08
			c0.15,0.71,0.29,1.41,0.45,2.12C482.73,450.9,482.82,450.81,482.82,450.81z"/>
		<path class="st1" d="M535.68,132.34c0.44-0.8,0.88-1.61,1.54-2.82C537.86,131.34,537.4,132.19,535.68,132.34z"/>
		<path class="st1" d="M612.83,332.7c0.79,0.32,1.58,0.64,2.37,0.96c-0.07,0.17-0.14,0.34-0.21,0.51c-0.79-0.32-1.58-0.64-2.37-0.96
			C612.69,333.04,612.76,332.87,612.83,332.7z"/>
		<path class="st1" d="M536.43,121.67c0.1-0.7,0.19-1.4,0.29-2.09c0.27,0.03,0.53,0.05,0.8,0.08c-0.04,0.68-0.09,1.37-0.13,2.05
			C537.07,121.69,536.75,121.68,536.43,121.67z"/>
		<path class="st1" d="M641.01,108.24c-0.63-0.42-1.26-0.85-1.89-1.27c0.11-0.2,0.22-0.39,0.34-0.59c0.67,0.34,1.34,0.68,2.02,1.01
			C641.33,107.67,641.17,107.96,641.01,108.24z"/>
		<path class="st1" d="M538.76,82.29c0.19-1.98,0.82-2.69,2.32-2.65C540.46,80.36,539.83,81.07,538.76,82.29z"/>
		<path class="st1" d="M550.3,65.37c-0.59,0.43-1.17,0.87-1.76,1.3c-0.11-0.13-0.21-0.26-0.32-0.4c0.55-0.46,1.1-0.92,1.65-1.38
			C550.02,65.06,550.16,65.22,550.3,65.37z"/>
		<path class="st1" d="M530.33,88.67c0.1-0.57,0.2-1.14,0.3-1.71c0.2,0.05,0.41,0.09,0.61,0.14c-0.16,0.56-0.31,1.12-0.47,1.68
			C530.63,88.74,530.48,88.7,530.33,88.67z"/>
		<path class="st1" d="M657.39,314.09c0.15,0.66,0.29,1.31,0.44,1.97c-0.16,0.05-0.33,0.11-0.49,0.16c-0.23-0.63-0.46-1.27-0.69-1.9
			C656.89,314.25,657.14,314.17,657.39,314.09z"/>
		<path d="M342.46,99.48c-1.22,0.54-2.17,0.96-3.12,1.38c-0.11-0.13-0.22-0.26-0.34-0.39c0.35-0.51,0.59-1.28,1.06-1.47
			c1.97-0.8,2.87-2.46,3.58-4.23c0.58-1.45,1.17-2.48,3.06-1.98c0.65,0.17,1.49-0.37,2.24-0.59c3.02-0.86,4.57,0.01,5.23,3.07
			c1.06,4.88,0.67,9.81,0,14.66c-0.45,3.23-0.45,6.73-2.64,9.45c-1.3,1.61-2.94,2.96-4.52,4.3c-0.32,0.27-1.15,0.09-1.68-0.08
			c-3.01-0.96-4.12-3.51-4.5-6.22c-0.36-2.55-0.28-5.21-0.02-7.78C341.14,106.33,341.85,103.09,342.46,99.48z M351.33,95.26
			c-3.44-0.37-4.94,0.48-5.57,3.29c-0.8,3.58-1.41,7.2-2.16,11.14c3.15-0.79,5.71-0.93,7.03,2.74
			C351.77,106.43,352.58,100.97,351.33,95.26z M347.27,112.62c-1.74,0.78-2.28,1.24-2.63,2.73c-0.13,0.55-0.01,1.53,0.35,1.74
			c0.44,0.27,1.34,0.12,1.86-0.16C348.28,116.14,348.34,114.96,347.27,112.62z"/>
		<path d="M325.46,99.67c0.04,4.56-1.23,8.84-2.38,13.08c-0.53,1.95-1.76,3.83-3.07,5.42c-1.7,2.06-3.56,1.87-5.32-0.19
			c-0.51-0.6-0.98-1.31-1.23-2.05c-1.21-3.63-1.9-7.36-1.39-11.2c0.37-2.78,0.91-5.53,1.26-8.31c0.12-0.93,1.02-2.16-0.66-2.81
			c-0.21-0.08-0.22-1.13-0.05-1.64c0.7-1.98,2.36-2.98,4.22-3.56c2.4-0.74,6.48,1.2,7.19,3.62
			C324.76,94.5,325.01,97.12,325.46,99.67z M318.43,91.3c-2.07,4.68-3,9.36-3.09,14.66c2.53-1.94,4.31-0.06,6.29,0.49
			c1.05-3.58,0.82-7.11,0.6-10.58C322.12,93.86,321.21,91.98,318.43,91.3z M318.2,108.45c0.01,1.65-2.81,2.86-0.77,4.86
			C319.42,110.91,319.43,110.84,318.2,108.45z"/>
		<path d="M321.54,133.89c-0.8-0.17-1.38-0.14-1.74-0.41c-0.52-0.38-1.22-0.98-1.22-1.48c0-0.49,0.69-1.23,1.24-1.44
			c1.59-0.59,3.23-1.17,4.9-1.38c3.58-0.46,7.19-0.65,10.78-1.02c1.39-0.14,2.75-0.55,4.13-0.66c0.73-0.06,1.86,0.03,2.13,0.47
			c0.4,0.64,0.57,2.05,0.17,2.44c-1.37,1.33-0.73,2.75-0.66,4.2c0.14,2.7,0.46,5.44,0.18,8.11c-0.42,4-2.87,6.91-6.01,9.28
			c-2.22,1.68-4.74,2.17-7.39,1.59c-0.99-0.22-2.24-0.8-2.71-1.6c-1.34-2.31-2.67-4.69-2.91-7.46
			C322.15,141.03,321.85,137.54,321.54,133.89z M325.14,132.41c0,1.4-0.08,2.6,0.02,3.79c0.14,1.8,0.35,3.6,0.63,5.38
			c0.27,1.68,0.59,3.36,1.03,5.01c0.98,3.67,3.64,4.79,6.87,2.79c2.77-1.72,4.61-4.28,4.84-7.56c0.19-2.83-0.13-5.7-0.29-8.54
			c-0.04-0.66-0.35-1.3-0.58-2.08C333.44,131.43,329.31,130.9,325.14,132.41z"/>
		<path d="M242.25,220.43c0.24,0.14,0.52,0.25,0.7,0.44c0.45,0.49,0.85,1.03,1.37,1.67C243.06,222.29,243.06,222.29,242.25,220.43z"
			/>
		<path d="M323.32,30.86c-3.74,3.59-7.74,6.88-10.27,12.29c-0.03-3.2,2.49-7.56,5.69-10.68C320.65,30.62,320.9,30.51,323.32,30.86z"
			/>
		<path d="M306.09,33.82c-0.56,0.42-1.11,0.84-1.67,1.25c-0.12-0.15-0.23-0.31-0.35-0.46c0.56-0.41,1.13-0.82,1.69-1.22
			C305.87,33.53,305.98,33.67,306.09,33.82z"/>
		<path d="M582.33,395.98c-1.35-0.75-2.01-1.84-1.8-3.19c0.1-0.61,0.76-1.44,1.33-1.61c0.9-0.27,1.76,0.28,1.98,1.31
			C584.15,393.86,583.85,395.04,582.33,395.98z"/>
		<path d="M583.06,417.39c-4.16-1.43-4.25-1.61-2.43-4.22C584.04,413.66,584.36,414.17,583.06,417.39z"/>
		<path d="M581.25,433.24c3.59,1.82,3.67,1.99,2.03,4.35C580.32,436.49,580.17,436.18,581.25,433.24z"/>
		<path d="M582.08,376.08c-1.54-2.32-1.3-4.01,0.04-6.09C583.33,372.18,583.17,373.88,582.08,376.08z"/>
		<path d="M583.79,287.06c2.68,2.6,2.52,3.37-0.51,4.28C583.44,290.01,583.58,288.83,583.79,287.06z"/>
		<path d="M585.88,275.53c-1.74-1.23-1.67-2.25-0.57-3.56C586.65,272.96,586.66,273.97,585.88,275.53z"/>
		<path d="M582.37,403.08c0.32-1.26,1.06-1.73,2.31-1.67C584.15,402.92,584.15,402.92,582.37,403.08z"/>
		<path d="M589.6,377.94c-0.08-0.73-0.15-1.46-0.23-2.18c0.14-0.02,0.28-0.03,0.42-0.05c0.06,0.73,0.12,1.46,0.18,2.19
			C589.85,377.91,589.73,377.93,589.6,377.94z"/>
		<path d="M585.33,430.93c0-0.86,0-1.71,0-2.57c0.08-0.01,0.16-0.02,0.24-0.03c0,0.91,0,1.82,0,2.73
			C585.49,431.01,585.41,430.97,585.33,430.93z"/>
		<path d="M590.06,384.36c0,0.85,0,1.7,0,2.55c-0.11,0-0.22,0.01-0.33,0.01c0-0.87,0-1.74,0-2.6
			C589.84,384.33,589.95,384.35,590.06,384.36z"/>
		<path d="M529.46,301.53c0.1-0.67,0.19-1.33,0.29-2c0.14,0.01,0.28,0.02,0.42,0.04c0,0.66,0,1.32,0,1.98
			C529.93,301.55,529.69,301.54,529.46,301.53z"/>
		<path d="M529.19,306.24c-0.1,0.48-0.19,0.95-0.29,1.43c-0.17-0.03-0.34-0.07-0.51-0.1c0.11-0.48,0.21-0.95,0.32-1.43
			C528.86,306.17,529.02,306.21,529.19,306.24z"/>
		<path d="M579.4,157.16c1.02,0.06,1.8,0.27,2.51,0.13c2.65-0.54,5.31-1.08,7.91-1.82c4.7-1.35,9.35-2.84,14.21-4.34
			c0.21,0.29,0.53,0.73,1.03,1.41c0.46-0.8,0.84-1.46,1.22-2.12c0.22,0.14,0.49,0.23,0.51,0.34c0.25,2.17,0.57,4.35,0.68,6.53
			c0.38,7.73-2.04,14.55-7.67,19.82c-6,5.62-16.79,2.43-19.42-5.39c-0.73-2.17-1.73-4.25-2.51-6.41c-0.22-0.6-0.45-1.67-0.15-1.93
			C579.68,161.66,578.81,159.24,579.4,157.16z M588.53,173.98c-4.88-1.32-5.39-5.85-7.23-9.46c0.14,1.2,0.46,2.31,0.81,3.42
			c0.27,0.86,0.48,1.76,0.88,2.56c2.56,5.12,8.23,7.21,13.48,4.93c1.04-0.45,2.38-0.75,2.26-2.42c-0.03-0.35,0.41-0.85,0.77-1.1
			c4.48-3.06,5.37-7.77,5.62-12.65c0.08-1.58-0.66-3.21-0.96-4.54c-7.72,2.15-15.1,4.21-22.8,6.35
			C583.62,165.75,583.8,171.07,588.53,173.98z"/>
		<path d="M640.79,91.07c0.41,1.21,0.82,2.43,1.35,3.98C640.05,93.73,640.05,93.73,640.79,91.07z"/>
		<path d="M595.27,85.86c0.31-1.26,0.62-2.52,0.93-3.78c1.35,1.83-0.77,2.42-0.96,3.73C595.25,85.82,595.27,85.86,595.27,85.86z"/>
		<path d="M645.18,355.08c0.1,0.38,0.2,0.77,0.28,1.15c0,0.01-0.39,0.12-0.4,0.11c-0.14-0.37-0.26-0.75-0.38-1.12
			C644.84,355.17,645.01,355.13,645.18,355.08z"/>
		<path class="st1" d="M351.33,95.26c1.24,5.7,0.44,11.17-0.7,17.17c-1.33-3.67-3.88-3.53-7.03-2.74c0.76-3.94,1.36-7.56,2.16-11.14
			C346.39,95.74,347.89,94.89,351.33,95.26z"/>
		<path class="st1" d="M347.27,112.62c1.07,2.34,1.01,3.52-0.42,4.31c-0.52,0.29-1.42,0.43-1.86,0.16
			c-0.35-0.21-0.48-1.19-0.35-1.74C344.99,113.86,345.53,113.4,347.27,112.62z"/>
		<path class="st1" d="M318.43,91.3c2.78,0.68,3.68,2.57,3.81,4.58c0.22,3.47,0.45,6.99-0.6,10.58c-1.99-0.56-3.76-2.43-6.29-0.49
			C315.43,100.65,316.36,95.98,318.43,91.3z"/>
		<path class="st1" d="M318.2,108.45c1.23,2.39,1.21,2.46-0.77,4.86C315.4,111.31,318.21,110.1,318.2,108.45z"/>
		<path class="st1" d="M325.14,132.41c4.18-1.51,8.3-0.98,12.52-1.22c0.23,0.78,0.54,1.42,0.58,2.08c0.16,2.85,0.48,5.71,0.29,8.54
			c-0.22,3.27-2.07,5.84-4.84,7.56c-3.23,2-5.89,0.88-6.87-2.79c-0.44-1.65-0.76-3.33-1.03-5.01c-0.28-1.78-0.49-3.58-0.63-5.38
			C325.06,135.01,325.14,133.81,325.14,132.41z"/>
		<path class="st1" d="M588.53,173.98c-4.73-2.91-4.91-8.23-7.17-12.91c7.7-2.14,15.08-4.2,22.8-6.35c0.3,1.34,1.04,2.96,0.96,4.54
			c-0.24,4.88-1.14,9.58-5.62,12.65c-0.35,0.24-0.79,0.75-0.77,1.1c0.12,1.68-1.22,1.97-2.26,2.42c-5.24,2.28-10.91,0.19-13.48-4.93
			c-0.4-0.8-0.61-1.7-0.88-2.56c-0.35-1.11-0.67-2.23-0.81-3.42C583.13,168.14,583.65,172.66,588.53,173.98z M592.81,174.29
			c0.02,0.18,0.03,0.37,0.05,0.55c0.45-0.06,0.9-0.12,1.35-0.19c-0.02-0.17-0.04-0.34-0.06-0.5
			C593.7,174.2,593.25,174.25,592.81,174.29z"/>
		<path d="M592.81,174.29c0.44-0.04,0.89-0.09,1.33-0.13c0.02,0.17,0.04,0.34,0.06,0.5c-0.45,0.06-0.9,0.12-1.35,0.19
			C592.84,174.66,592.83,174.48,592.81,174.29z"/>
	</g>
</g>
</svg>
