<?xml version="1.0" encoding="utf-8"?>
<!-- Generator: Adobe Illustrator 23.0.3, SVG Export Plug-In . SVG Version: 6.00 Build 0)  -->
<svg version="1.1" id="Layer_1" xmlns="http://www.w3.org/2000/svg" xmlns:xlink="http://www.w3.org/1999/xlink" x="0px" y="0px"
	 viewBox="0 0 1024 600" style="enable-background:new 0 0 1024 600;" xml:space="preserve">
<style type="text/css">
	.st0{fill:#FEFEFE;}
	.st1{fill:#070707;}
	.st2{fill:#FFFFFF;}
	.st3{fill:#0A0B0B;}
	.st4{fill:#0E0E0E;}
	.st5{fill:#0C0D0D;}
	.st6{fill:#F7F6F6;}
	.st7{fill:#3F3E3D;}
	.st8{fill:#171717;}
	.st9{fill:#121313;}
	.st10{fill:#060606;}
	.st11{fill:#080808;}
	.st12{fill:#333333;}
	.st13{fill:#323232;}
	.st14{fill:#B7B5B5;}
	.st15{fill:#3D3E3E;}
	.st16{fill:#323333;}
	.st17{fill:#FEFEFD;}
	.st18{fill:#F8F8F7;}
	.st19{fill:#FAFAFA;}
	.st20{fill:#F9F8F8;}
	.st21{fill:#F5F4F4;}
	.st22{fill:#F4F3F3;}
	.st23{fill:#F5F4F3;}
	.st24{fill:#F1EFEF;}
	.st25{fill:#EFEEEE;}
	.st26{fill:#E9E8E7;}
	.st27{fill:#ECEBEA;}
	.st28{fill:#222222;}
	.st29{fill:#191A1A;}
	.st30{fill:#E0DFDF;}
	.st31{fill:#ACABAB;}
	.st32{fill:#131414;}
	.st33{fill:#151515;}
	.st34{fill:#1A1B1B;}
	.st35{fill:#2F2F2F;}
	.st36{fill:#F2F1F1;}
	.st37{fill:#FDFDFD;}
	.st38{fill:#0F0F0F;}
	.st39{fill:#0E0F0F;}
	.st40{fill:#141515;}
	.st41{fill:#101010;}
	.st42{fill:#181919;}
	.st43{fill:#111212;}
	.st44{fill:#0B0B0B;}
	.st45{fill:#090909;}
	.st46{fill:#181818;}
	.st47{fill:#080909;}
	.st48{fill:#0A0A0A;}
	.st49{fill:#2F3030;}
	.st50{fill:#242525;}
	.st51{fill:#EDECEC;}
	.st52{fill:#FCFCFB;}
	.st53{fill:#F9F9F9;}
	.st54{fill:#3A3A3A;}
	.st55{fill:#0C0C0C;}
	.st56{fill:#F8F7F7;}
	.st57{fill:#010101;}
	.st58{fill:#6E6E6E;}
	.st59{fill:#FDFCFC;}
	.st60{fill:#E9E8E8;}
	.st61{fill:#EDECEB;}
	.st62{fill:#C7C5C4;}
	.st63{fill:#BCBBBB;}
	.st64{fill:#FFFEFE;}
	.st65{fill:#FCFCFC;}
	.st66{fill:#EAE9E9;}
	.st67{fill:#E1E0E0;}
	.st68{fill:#E6E5E4;}
	.st69{fill:#C9C8C8;}
	.st70{fill:#EAE8E8;}
	.st71{fill:#E5E4E4;}
	.st72{fill:#D7D6D6;}
	.st73{fill:#D8D8D7;}
	.st74{fill:#E2E1E0;}
	.st75{fill:#F4F4F3;}
	.st76{fill:#ECECEB;}
	.st77{fill:#D8D8D8;}
	.st78{fill:#818081;}
	.st79{fill:#0F1010;}
	.st80{fill:#2D2E2E;}
	.st81{fill:#9E9E9E;}
	.st82{fill:#EEEDED;}
	.st83{fill:#DCDBDB;}
	.st84{fill:#D6D5D5;}
	.st85{fill:#EBEAEA;}
	.st86{fill:#060707;}
	.st87{fill:#D4D3D3;}
	.st88{fill:#EBEAE9;}
	.st89{fill:#282928;}
	.st90{fill:#E2E1E1;}
	.st91{fill:#CFCECD;}
	.st92{fill:#C4C3C3;}
	.st93{fill:#161717;}
	.st94{fill:#393A3A;}
	.st95{fill:#161616;}
	.st96{fill:#1D1E1E;}
	.st97{fill:#232323;}
	.st98{fill:#2A2B2B;}
	.st99{fill:#040404;}
</style>
<path class="st0" d="M300.9,142.9c-0.3,0.2-5.3,0-5.3,0l1.2,5.4l-2.7,1.7l3.4,5.2l-2.4,2.3l6.6,4.9l3.2,0.8l3.3-8l-4.4-10.1"/>
<polyline class="st0" points="408.5,174.2 406.6,165.1 410.5,161.6 411.8,152.9 420.8,149.9 434.7,148.3 438.7,152.8 445.8,150 
	448.8,155.3 453.1,152.9 460.8,160.2 466.9,165.9 465.4,176.3 470.1,179.8 464.1,183.8 450.6,177.2 "/>
<g>
	<path class="st1" d="M420.8,150c0,0-0.1,0-0.1,0.1C420.7,150,420.8,150,420.8,150L420.8,150z"/>
	<path class="st1" d="M499.1,298.7c-1.6-3.3-3.2-6.6-4.8-9.9c-0.7-0.3-1.3-0.2-1.8,0.4c-1.4,3.4,0.2,6.5,1.5,9.3
		c2.5,5.3,0.6,9.2-3.1,12.7c-2.8,2.6-6,4.5-9.4,6.1c-8.3,4.2-16.2,9-24,14c-5.6,3.6-10.6,5.5-15.5-0.9c6.7-4.4,14.1-7.5,21.1-11.3
		c7-3.8,14.1-7.6,20-13.2c2.2-2.1,4.1-4.3,0.5-7.5c-6-5.3-5.7-6.7,0.9-11.1c1.7-1.1,3.7-1.5,5.3-2.7c0.2-0.3,0.4-0.6,0.6-0.9
		c-0.2-2.1-2.6-4.2,0.9-6c2.3-1.2,3-4,0.8-5.6c-9.6-6.8-16.3-16.9-26.7-22.7c-8.8-4.9-15.9-13.2-27.5-12.7c-2.7,0.1-3.1-4.7-3.5-7.6
		c-0.2-1.5-0.9-3.5,1.9-4c13.4-2.7,17.4-14.1,22-24.5c2.3-5.2,2.2-11.5,9.5-13.6c1.4-0.4,3.2-6.6,2.2-7.5c-3.8-3.6-1.7,2-3.2,2.5
		c-0.2,0.1-0.6-0.9-0.9-0.8c-4.8,1.1-8.1,0.6-8.9-5.5c-0.5-3.5-4.2-1.8-6.4-1.7c-3.9,0.1-8.4,1.8-11.4-1c-3.5-3.2-7.8-4.9-10.9-2.7
		c-5.5,3.8-11.4-2.1-16.5,1.8c-0.8,0.6-1.8-0.6-1.7-1.7c0.1-1.4-3.4-2.8-0.1-4.1c1.6-0.6,1.7-1.6,1.7-2.8c-0.3-6.7,3-11,8.8-13.8
		c-10-0.6-11.6,0.8-11.8,10.6c0,1.3,1.2,3.1-1.5,2.9c-3.9-0.2-2,2-1.6,3.7c0.4,1.9,1.6,4.3-2.3,3.9c-2.3-0.2-3.5,1.5-3.6,3.9
		c0,3,2.3,2,3.8,2.1c4.8,0,4.8,1.6,4.4,6.4c-1,13.2-5,27.7,8.2,38c3.4,2.6,0.3,4-1.1,5.9c-2.2,3.1-4.3,1.3-5.3-0.5
		c-3.8-7.2-10.6-11.2-17.1-14.7c-12.5-6.8-25.4-12.7-36.6-21.6c-0.6-0.5-1.2-0.6-1.9-0.1c0,5.3,4.5,7.4,7.7,10.4
		c2.4,2.2,5.6,3.3,8.2,5.3c3.9,3.1,3.5,6.8,0.8,9.8c-2.8,3.1-5-0.3-6.7-2c-10.2-9.9-21-19.2-30.8-29.6c-4-4.3-9.3-7.1-14.6-9.5
		c-1.1,0.4-1.8,1.2-2.1,2.3c1.4,2.6,2.7,5.2,5,7.2c14,11.6,28.4,22.8,41,36.1c1.2,1.3,3,2.2,2.7,3.9c-0.3,2-2.4,0.7-3.7,1.1
		c-2,0.5-4,0.9-4.1,3.5c0,0.9,0.1,1.5,1.1,2.3c8.3,6.8,16.3,13.9,24.7,20.7c4.6,3.8,5.8,8.2,6.2,14.1c0.8,11.4-3.6,21.9-4,33.2
		c-0.6,15.7-2.6,31.8-8.3,47c-1.4,3.9-0.2,7.3,5.1,7.5c3.1,0.1,7.7-1.8,9,1.4c1.3,3-1.7,6.3-4.2,8.9c-0.6,0.7-0.8,1.8-1.3,2.6
		c-11.2,15.7-16.6,34.6-28.2,50.1c-1.5,1.9-2.3,4.4-1.8,7c1.4-1.3,3.3-2.4,4.2-4.1c9.2-16.6,18.4-33.3,27.4-50.1
		c8.1-15.3,8-14,24.4-13.5c9.7,0.3,19.4,6.8,29.3,1.2c0.4,0.8,0.8,1.7,1.2,2.5c1.3,0.3,2-0.4,2.4-1.4c3-3.5,2.1-7.3,0.7-11.2
		c-0.9-2.4-0.3-5.8,2-5.1c5.2,1.6,7.8-2.1,10.8-4.1c9.4-6.3,18.6-12.8,29.3-17.2C498.6,316.2,503.1,306.8,499.1,298.7z M458.5,277.3
		c2.7,0.2,3.4,2.2,4.2,3.9c3.5,7.4,9.6,12.6,14.9,18.5c1.4,1.5,3.3,3.1,0.6,4.8c-8.9,5.9-17.6,12.3-28,16.1
		C450.9,305,450.7,290.3,458.5,277.3z"/>
</g>
<path class="st2" d="M399.7,481.8c1.2,2.2,1.7,4.3,0.6,6.8c-1,2.3-1.2,4.8,2.4,5.4c1.5,1.9,0.5,4.3,1.1,6.4
	c3.6,12.5,1.4,16.3-11.5,20.6c-0.8,0-1.5-0.1-2.3-0.3c-4.6-0.7-7.4-2.1-8.4-8c-1-6.3-4.3-12.4-6.8-18.6
	c-8.1-20.3-16.5-40.6-22.6-61.7c-0.5-1.8-0.5-3.4,0.8-4.9c0.9-1.3,1.9-2.6,2.8-3.9c10.4-18.2,20.2-36.8,30.4-55.1
	c2.3-4.1,6-7.2,7.6-11.9c1.2-3.4,4.7-3.4,7.7-3.3c8,0.1,15.9,1.3,23.9,2.1c4.7,0.4,9.1,2.5,14,1.1c2-0.6,3.3,0.6,3.8,2.6
	c0.5,2.7,1.7,5.4,0.1,8.1c0.5,0.5,0.9,1,1.3,1.6c4.3,10.8,4.9,22.3,7.3,33.5c2.1,9.7,3,19.7,6,29.2c2.3,12.2,6.5,23.9,9.1,36
	c0.6,3,1.8,6.8,3.4,10.1l-0.1-0.3c1.4,3,1.1,5.9,0.2,8.9c0,0.6-0.1,1.2-0.1,1.7c4.3,10.4,2,21.3,1.9,31.9c0,4.7-5,6.5-9.4,7.3
	c-4.3,0.8-7.2-1.1-9.1-4.9c-1.3-2.6-1.3-5.3-1.7-8c-2.1-12.8-5.1-25.5-8.5-38c-0.8-2.9-1.6-5.9-1.6-8.9c0.2-13.4-5.4-25-10.2-37.1
	c-5.1-12.6-10.9-24.7-17-36.9c-0.7-1.3-1.1-2.8-2.9-4.4c-5.5,9.1-13.8,16.1-18.4,25.9c-1.8,3.9-3.9,7.6-7.7,9.9l0.2-0.2
	c-1.6,1.5-3.1,2.6-5.2,3.6c-4.7,2-4.4,6.1-0.1,8.8c3.2,2,7.6,3.5,5.3,8.8c-1,0.7-2.3,1.8,0,2.2c2.6,0.4,2.8,2.2,3.1,4.1
	C393.7,461.5,396,471.9,399.7,481.8z"/>
<path class="st11" d="M386,424.6c7.2-14.9,18.1-27.3,28.5-42.7c-0.1,8.7,3.5,13.7,6.1,19.1c6.8,14.6,12.3,29.9,18.9,44.6
	c5.7,12.6,3.7,26.1,8.2,38.7c3.8,10.6,4.7,22,6.5,33.2c0.6,3.5,1.4,9.1,7.4,7.9c5.2-1.1,11-2,10.6-9.9c-0.4-9.2,0.1-18.5-1.6-27.6
	c3.9-0.4,2.9,2.6,3,4.6c0.2,9,1.7,18.4-0.2,27c-1.6,7.2,1.2,13.5,0.3,20.3c-0.6,4.5-1.5,6.7-7.1,6.2c-5.6-0.5-9.5,5.2-14.9,7
	c-1.8,0.6-3.2,2.5-5,3.2c-3.3,1.2-6.3,4.5-10.3,1.5c-3.9-3-4.1-8-6.8-11.7c-0.4-0.5,0.5-1.5,1.6-2.1c2.8-1.6,5.2-3.7,7.9-5.3
	c11.5-7.1,14.1-14.4,11.2-27.6c-3.2-14.4-8.9-28.3-9.7-43c-1.5-26.1-14.5-47.9-25.2-70.5c-0.8-1.8-1.8-3.5-2.8-5.4
	c-7.3,9.1-14.4,18.3-20.3,28.3C390.8,422.5,389.3,424.8,386,424.6z"/>
<path class="st37" d="M305.1,146.2c7.4,2,6.9,9.6,10.3,14.5l-0.2-0.2c4.7,2.2,8.1,6.2,12.2,9.2l-0.1,0.6c2.5,3.1,5.1,6.2,8.5,8.4
	c4.7,2.6,8.6,6.7,13.8,8.4c1.7,1.1,3.1,2.5,4.7,3.8c4.5,6.8,11.4,10.7,18,14.8c2.1,1.4,4.3,2.9,3.3,4.9c-1.7,3.4-1.4,8.7-5.2,9.8
	c-3.5,1-6.3-3.3-8.5-5.8c-10.2-11-22.9-19.5-31.6-32c-6.1,1.5-7.3-5.8-12-6.7c-6.5-3.1-12-7.5-15.8-13.8"/>
<path class="st37" d="M404.2,517.9c0,0.6,0,1.2,0.1,1.7c2.5,2.1,2.8,5.3,4.1,7.9c2.9,6.1,2.2,7.8-4.3,9.7c-4,1.2-5.8,4.6-8.7,6.9
	c-3,2.7-5.6,5.6-8.2,8.7c-2.7,3.2-5.8,5.9-10.2,2.5c-3.7-2.9-4.2-8.7-0.8-12.6c3.4-4,7.1-7.7,8.5-13c0.4-2.1,2.2-3.8,2-6.2
	c-0.6-1.1-1.7-1.9-2.1-3.1c1.7-3.1,4-1.8,6.3-0.9l-0.3-0.2c2.2,1.6,4,0.7,6.1-0.5C398.9,517.7,401.3,515.6,404.2,517.9z"/>
<path class="st38" d="M386.5,528.7c-1.5,5.5-4.6,10.4-8.6,14.2c-2.5,2.4-2.4,4.6-2.3,7.2c0.1,2.6,1.4,4.8,4,5.6
	c2.6,0.8,4.4-1,5.5-2.9c2.4-4.2,5.6-7.3,10-9.2c0.5,0.4,0.7,0.7,0.5,1.1s-0.3,0.6-0.4,0.6c-2.6,4.9-6,9.3-10.8,12
	c-3,1.7-6.4,5.6-10.3,0.7c-3.9-5-4.8-13-0.7-15.5c11-6.8,10.8-15.3,6.2-25.9c-2.7-6.2-3.5-13.1-5.2-19.7c0.7-1.1-0.1-2.7,1.4-3.5
	c2.1,7.8,9.3,13.9,7.5,23c-0.4,1.8,1.5,1.3,2.6,1.6c1.6,0.5,4.1-1.5,4.9,1.6c-1.8,0.3-3.7-0.8-5.4,0.6c-0.8,0.6-0.5,1.3,0.1,0.5
	c0,0,0.4,0.2,0.6,0.3c1.3,1.7,0.2,3.4,0.1,5.1C386.2,527.1,386.3,527.9,386.5,528.7z"/>
<path class="st39" d="M375.8,493.4c-0.5,1.2-0.9,2.3-1.4,3.5c-5.4-12.5-10.7-25-16.1-37.5c-3.9-8.9-2.7-19.3-8.2-27.8
	c-1.1-1.8,0.4-3.8,2.9-4.1c2.2,8.1,4.2,16.3,7.3,24.2C365.8,465.5,370.7,479.5,375.8,493.4z"/>
<path class="st40" d="M457.4,432.1c-6.6-18.8-6.5-39.1-12.3-58.1c-0.5-1.6-0.2-3.5-0.3-5.2c3-1.2,0.5-4.7,3.3-7.1
	c-1.6,20.1,6.7,38.1,7.7,57.1c0.2,4,3.3,7.6,2.7,12C458.7,431.7,458.4,432.1,457.4,432.1z"/>
<path class="st41" d="M386.2,445.6c0.8-5-3.4-6-6.5-7.4c-3.3-1.5-5.8-3.4-7.8-7.3c5.5,0,9-1.3,5-7.7c3.1,4.8,6.3,1,9.3,1.1
	C384.1,431.5,390.4,438.6,386.2,445.6z"/>
<path class="st41" d="M299.6,139.8c6.9,5.6,15.5,10.1,15.7,20.9c-2.2-0.7-2.4-3-3-4.6c-2.2-5.3-5.3-9.4-11.6-10.5"/>
<path class="st42" d="M420.9,150c-0.1-1.1-0.6-3.2,1.2-2.4c2.5,1.2,4.9,0.9,7.2,0.4c7.5-1.5,7.4-1.6,9.4,4.8c2,0.2,1.3-1.7,2-2.5
	c1.4-1.3,2.7-3.7,4.5-3.1c1.3,0.5,2.1,2.9,2.9,4.6c0.5,1.1,0,2.9,0.6,3.5c1,1,3.1,1.1,0.9,2.9c-1.6,1.3-2.5-0.4-2.7-1.2
	c-1-4.7-3.5-3.6-6.2-1.8c-1.4,1-4,0.9-4.1,0.6c-0.5-10-7.4-2.9-11.1-4.1C424,151.1,422.2,151.1,420.9,150
	C420.8,149.9,420.9,150,420.9,150z"/>
<path class="st43" d="M457.4,432.1c0.4-0.5,0.7-0.9,1.1-1.4c3.8,15.7,11.3,30.4,12.2,46.8C461.8,463.7,462.4,447,457.4,432.1z"/>
<path class="st5" d="M404.2,517.9c-4.7-1.1-8.5,6.6-13.7,1.5c6-1,10.3-4.7,14.4-8.9c1-1,0.9-2,0-3.2c-3.2-4-2-8.9-2.2-13.5
	c1.6,3.3,2.6,7,4.8,9.8C412.7,510.2,406.9,513.6,404.2,517.9z"/>
<path class="st9" d="M295.8,157.5c6.6,3.7,19.5,13.2,23.7,18.6c-2.5-0.3-1.7,0.9-2.2,1.3c-6-6.7-17-13.9-24.1-19.4"/>
<path class="st4" d="M395.2,545.3c0-0.6,0-1.2-0.1-1.7c3.7-2.4,3.7-9.4,11-7.9c2.3,0.5,3.5-3.7,1.7-6.6c-1.8-2.9-3.2-6-3.6-9.5
	c6.4,2.3,6,8.8,7,13.5c0.5,2.6-3.5,6-8,6.1C399.5,539.4,398.5,544.1,395.2,545.3z"/>
<path class="st44" d="M399.7,481.8c-5.2-9.4-8.4-19.4-10.5-29.9C396.4,460.6,397.7,471.3,399.7,481.8z"/>
<path class="st45" d="M466.9,165.9c-7-0.7-10.9-5.2-12-14.3C456.7,158.2,464,160.2,466.9,165.9L466.9,165.9z"/>
<path class="st10" d="M334.9,179.8c-3.7-2.2-7.6-4.3-7.6-9.5c4.5,0.6,7,3.6,9,7.2C336.7,178.7,336,179.4,334.9,179.8z"/>
<path class="st46" d="M334.9,179.8c0.5-0.8,1-1.6,1.4-2.3c4.5,3,9.1,6,13.6,9.1c0.4,0.3,0.6,0.6,0.4,1c-0.1,0.3-0.3,0.5-0.4,0.5
	C343.8,187.1,340.2,181.9,334.9,179.8z"/>
<path class="st8" d="M327.3,169.7c-5.3-1.4-8.7-5.3-12.2-9.2C321.6,160.3,323.9,165.8,327.3,169.7z"/>
<path class="st47" d="M466.8,165.9c1.6,3.7-2.1,6.8-1.4,10.4C464.4,172.7,463.7,169,466.8,165.9
	C466.9,165.9,466.8,165.9,466.8,165.9z"/>
<path class="st48" d="M442.3,359.6c0.8-0.5,1.6-1,2.4-1.4c-1,2.9,2.3,6.4-1.2,8.9C443.3,364.6,443.9,361.9,442.3,359.6z"/>
<path class="st49" d="M349.9,187.9c0-0.5,0-1,0-1.4c2.1,1.4,4.1,2.8,6.2,4.2c-0.6,0.1-1.3,0.1-1.9,0.1
	C352,190.9,350.7,189.8,349.9,187.9z"/>
<path class="st50" d="M470.7,486.2c-0.1-3-0.1-5.9-0.2-8.9C473.5,480.1,472.6,483.1,470.7,486.2z"/>
<path class="st2" d="M483,267.8c1.9,2.5,3.8,4.9,5.8,7.4c-5.4,3.5-10.6,6.5-15.4,10.2c-2.8,2.2-3.8,1.9-5.6-0.9
	c-4-6.2-8.3-12.1-9.7-20.9c-5.5,10.8-4.6,21.8-8.6,31.5c-3.1,7.6-3.3,15.9-4.1,23.8c-0.5,4.4-0.7,4.9-4.5,3.8
	c-2.8-0.8-7.1-3.2-5.7,3.5c0.1,0.6-1.2,1.5-1.9,2.2c-4.3,3.8-3.2,9.3,2.4,11.5c3.4,1.3,6,4.9,6.2,8c0.4,4.5-0.9,6.3-5.8,5.9
	c-18.9-1.7-38.1-0.8-56.8-6.2c5-12.2,6.4-25.1,8.1-37.8c1.9-13.6,5.8-27.1,4.8-41.1c-0.1-1-0.3-2.5,0.2-2.9c7.5-6.1-1-12.7,0.7-18.9
	c-0.5,0-1-0.1-1.7-0.1c-2,2.3,2.5,4.4-0.2,7.1c-8-9.3-19.9-14.3-28.5-24.6c7.7-1.4,12.2-5.5,15.7-11.6c3-5.3,7.3-6.4,11.9-1
	c5,5.8,11,10.5,18.1,13.9c3.9,1.9,7,4.9,9.4,8.9c3.9,6.6,7.6,7.3,13,2.2c2.9-2.7,4.8-1.9,8.2-1.5c15,1.9,24.5,13,36.3,20.2
	c2.1,0.8,2.9,2.6,3.7,4.4C480,266.2,480.1,269,483,267.8z"/>
<path class="st0" d="M425.1,174.4c0.1,0,0.5-0.1,0.5-0.1c3.5,8.9,12.1-0.7,16.6,4.5c0.3,0.4,1.9,0.2,2.5-0.2
	c9.3-5.3,10.7,5.3,15.9,8c0.1,0.1-0.2,1.2-0.5,1.7c-5.6,9.3-7.3,20.5-14.6,28.8c-1.8,2-4.2,4.6-6.4,4.7c-8.1,0.4-8.5,5.5-7.9,11.4
	c0.4,3.9-0.5,7.1-4.3,8.6c-2.9,1.1-5.2-0.6-7.1-2.9c-2.6-3.1-2.4-6-0.2-9.3c2.8-4.3,5.1-7.4-2.3-11.4c-10.1-5.4-11.9-30.6-4.8-39.9
	C416.2,173.8,421.4,177.3,425.1,174.4z"/>
<path class="st0" d="M490.1,284.4c-0.5,2.3,1.2,3.3,2.7,4.5c0.8,2.8,1.4,5.7,2.5,8.4c3.4,8.7,2.8,11.7-5.2,16.8
	c-9.1,5.8-18.7,10.8-27.7,16.8c-5.7,3.8-12.2,5.4-18.6,8.8c0.4-2.9,3.9-7.7-3.1-6.7c-0.7,0.1-1.6-0.9-2.4-1.4c3-0.4,2.1-4.3,4.8-5
	c13.2-3.9,24.3-12.1,36.2-18.6c2.7-1.4,2.7-5.4,6.3-6.3c-4.2-2.5-8.5-4.4-10.2-9.2C480.8,290.9,482.5,282.4,490.1,284.4z"/>
<path class="st47" d="M483,267.8c-0.4,0.9-0.7,1.7-1.1,2.6c-1.6-1.7-4.4-2.5-3.7-5.7c0.4-0.5,0.9-0.6,1.3-0.1
	C480.7,265.7,481.8,266.7,483,267.8z"/>
<path class="st51" d="M479.6,264.6c-0.4,0.1-0.9,0.1-1.3,0.1c-1-1.4-2.1-2.9-3.1-4.3C478.5,259.8,479.7,261.5,479.6,264.6z"/>
<path class="st52" d="M472,538.2c0,3.4-0.1,6.3-4.7,3.3c-1.6-1-1.9,0.8-2.8,1.3c-6.1,3.5-12.3,7-18.4,10.4c-3.7,2-7.2,3.1-10.2-1.5
	c-2.9-4.5,0-6.1,3-8.6c4.8-3.9,10.2-7.3,12.9-13.1c1.1-2.3,2-2.7,4.4-1.7c1.5,0.7,3.5,0.5,5.2,0.2C469.6,527.5,472,529.6,472,538.2z
	"/>
<path class="st53" d="M384.7,527c-0.7-2.2,1-3.9,1.4-5.9c1.4,0.1,2.6,0.4,2.9,2C387,523.8,388,527.8,384.7,527z"/>
<path class="st54" d="M384.7,527c2.1-0.5,1.1-4.4,4.3-3.9c-0.6,2-0.6,4.2-2.4,5.6C385.9,528.1,385.3,527.6,384.7,527z"/>
<path class="st55" d="M429.8,205.6c1.7,0,3.5-0.1,5.2,0c2,0.2,4.4-3.3,5.8-0.2c1.4,2.9-1.3,4.9-3.1,6.9c-8.4,9.5-11.2,5.4-15.3-0.5
	c-2.9-4.2-2.2-6.8,3.6-6.3c1.2,0.1,2.5-0.1,3.7-0.2C429.8,205.6,429.8,205.6,429.8,205.6z"/>
<path class="st56" d="M438.4,207.8c-7.6,9.4-9,9.4-14.5,0C428.7,207.8,433.3,207.8,438.4,207.8z"/>
<g>
	<path class="st55" d="M430.1,188.2c-0.2,2.3-2,3.4-2.9,5.2c-1.3,2.6-3.9,2-5.7,1.7c-1.3-0.3-1.9-2.3-1.9-4.4c0-1.9,0.3-3.6,0.8-5.3
		c1-3.4,2-6.9,6.9-5.5C432.3,181.4,430.2,185.1,430.1,188.2z"/>
	<path class="st5" d="M447.2,195.5c-1.7,1.6-1.6,5.9-6,4.8c-2.8-0.7-5.2-7.1-3.6-10.7c1-2.3,2.6-5.1,5.8-4.6
		C446.7,185.6,448.7,191.1,447.2,195.5z"/>
	<path class="st6" d="M422.1,188.5c0.3-2.9,1.3-5.4,4.2-6.4c1-0.4,1.6,0.6,1.5,2.1C427.7,188,426,189.3,422.1,188.5z"/>
	<path class="st19" d="M440,194.1c1.3-2.6-0.1-6.4,3-6.7c3-0.3,2.9,3.2,2.8,4.9C445.2,197.6,441.1,189,440,194.1z"/>
</g>
</svg>
