<?xml version="1.0" encoding="utf-8"?>
<!-- Generator: Adobe Illustrator 23.0.1, SVG Export Plug-In . SVG Version: 6.00 Build 0)  -->
<svg version="1.1" id="Layer_1" xmlns="http://www.w3.org/2000/svg" xmlns:xlink="http://www.w3.org/1999/xlink" x="0px" y="0px"
	 viewBox="0 0 1024 600" style="enable-background:new 0 0 1024 600;" xml:space="preserve">
<style type="text/css">
	.st0{clip-path:url(#SVGID_2_);}
	.st1{fill:#050606;}
	.st2{fill:#0B0B0B;}
	.st3{fill:#161616;}
	.st4{fill:#404141;}
	.st5{fill:#ACACAC;}
	.st6{fill:#FFFFFF;}
	.st7{fill:#FEFEFE;}
	.st8{fill:#FCFCFC;}
	.st9{fill:#FDFDFD;}
	.st10{fill:#FBFBFA;}
	.st11{fill:#FAFAF9;}
	.st12{fill:#F8F7F7;}
	.st13{fill:#202020;}
	.st14{fill:#EFEEEE;}
	.st15{fill:#E1E1E1;}
	.st16{fill:#EFEEED;}
	.st17{fill:#DEDDDD;}
	.st18{fill:#E5E3E3;}
	.st19{fill:#D4D4D3;}
	.st20{fill:#F5F4F4;}
	.st21{fill:#C6C5C5;}
	.st22{fill:#E5E4E4;}
	.st23{fill:#B1B1B1;}
	.st24{fill:#E3E2E1;}
	.st25{fill:#C5C4C4;}
	.st26{fill:#373737;}
	.st27{fill:#E7E6E5;}
	.st28{fill:#2E2F2F;}
	.st29{fill:#D8D8D7;}
	.st30{fill:#0C0C0C;}
	.st31{fill:#3A3A39;}
	.st32{fill:#303030;}
	.st33{fill:#131313;}
	.st34{fill:#0D0D0D;}
	.st35{fill:#151515;}
	.st36{fill:#0D0C0C;}
	.st37{fill:#F7F7F6;}
	.st38{fill:#EEEDEC;}
	.st39{fill:#060606;}
	.st40{fill:#D9D7D7;}
	.st41{fill:#5B5A5A;}
	.st42{fill:#DBDADA;}
	.st43{fill:#1D1E1E;}
	.st44{fill:#5D5D5D;}
	.st45{fill:#EBEAE9;}
	.st46{fill:#C2C0C0;}
	.st47{fill:#101010;}
	.st48{fill:#0B0C0C;}
	.st49{fill:#FDFDFC;}
	.st50{fill:#F2F1F1;}
	.st51{fill:#F7F6F6;}
	.st52{fill:#F1F0EF;}
	.st53{fill:#F7F6F5;}
	.st54{fill:#F3F2F2;}
	.st55{fill:#F6F5F4;}
	.st56{fill:#F1F0F0;}
	.st57{fill:#F4F3F3;}
	.st58{fill:#F4F3F2;}
	.st59{fill:#EDECEB;}
	.st60{fill:#C7C5C5;}
	.st61{fill:#D6D5D4;}
	.st62{fill:#CAC9C9;}
	.st63{fill:#222323;}
	.st64{fill:#161717;}
	.st65{fill:#DAD9D8;}
	.st66{fill:#E8E7E7;}
	.st67{fill:#E7E5E5;}
	.st68{fill:#E2E0DF;}
	.st69{fill:#D9D8D8;}
	.st70{fill:#DDDBDB;}
	.st71{fill:#CAC8C8;}
	.st72{fill:#C9C7C7;}
	.st73{fill:#E0DFDF;}
	.st74{fill:#E4E3E3;}
	.st75{fill:#E9E8E8;}
	.st76{fill:#E7E5E4;}
	.st77{fill:#E6E4E4;}
	.st78{fill:#C9C8C8;}
	.st79{fill:#F8F7F6;}
	.st80{fill:#E9E7E7;}
	.st81{fill:#EEEDEE;}
	.st82{fill:#0A0A0B;}
	.st83{fill:#8E8D8D;}
	.st84{fill:#D3D2D1;}
	.st85{fill:#C9C8C7;}
	.st86{fill:#393A3A;}
	.st87{fill:#4D4E4D;}
	.st88{fill:#C6C6C6;}
	.st89{fill:#EDECEC;}
	.st90{fill:#ECEBEB;}
	.st91{fill:#CECDCD;}
	.st92{fill:#404040;}
	.st93{fill:#B9B8B8;}
	.st94{fill:#CFCECD;}
	.st95{fill:#C4C3C3;}
	.st96{fill:#979797;}
	.st97{fill:#ABA9A9;}
	.st98{fill:#D5D4D4;}
	.st99{fill:#B6B4B4;}
	.st100{fill:#292A2A;}
	.st101{fill:#0A0A0A;}
	.st102{fill:#3B3C3C;}
</style>
<g>
	<defs>
		<rect id="SVGID_1_" x="320.6" y="45.2" width="653.6" height="557"/>
	</defs>
	<clipPath id="SVGID_2_">
		<use xlink:href="#SVGID_1_"  style="overflow:visible;"/>
	</clipPath>
	<g class="st0">
		<path class="st1" d="M915.4,659c-19.4-1.7-19,10.1-20.1,25.1c-2.6,34-8.7,67.7-12.5,101.6c-1.9,17-3.8,34-5.6,50.9
			c-3.7,33.9-13,67.4-8.7,102c0.3,2.2-0.1,4.6,0,6.8c1,14.4-4.7,21.4-18.8,21.9c-15.4,0.5-30.7-0.6-46.1,2.2
			c-8.6,1.5-19.1,0.1-17-13.9c0.7-5-2.6-5.1-5.9-4.7c-5.4,0.6-10.8,1.4-16.2,2.5c-9.7,1.9-15.8-2.4-18.2-11.4
			c-2.3-8.9-1.2-18.8,6.6-23.8c9-5.9,18.4-13,30.1-12.5c6,0.3,3.2-3.5,2.8-4.7c-9.1-25.3-6.2-52.1-6.7-77.8
			c-1-48-7.5-95.7-6.5-143.8c0.1-3.5-0.9-4.5-4.7-6.6c-11.8-6.3-14.3-19.7-13.9-31.1c1.3-38,2.7-75.9,6.7-113.8
			c1.8-16.6,3.9-33.5,2.2-51c-2.2-22.1,3-44.8,5.1-67.3c0.2-1.8,1.7-3.8,1.2-5.1c-9.2-25.1,9.9-35.9,25.3-46.7
			c11.4-8,22.4-16.5,33.6-24.9c9.2-6.9,8-17.9,9.2-27.2c1.7-13.2-6.2-21.6-18.4-27c-19.1-8.5-23.9-26.6-26.8-44.7
			c-4-25.9-5.8-51.7,1.8-77.7c1.9-6.5-0.3-16.4-2.7-23.7c-7.5-22.3,3.9-38.1,19.5-48.5c12.5-8.3,24.7-19.1,41-21.6
			c10-1.5,18.3,0.5,26.5,5.8c8.1,5.3,9.3-7.2,14.9-6.8c7,1.9-8.6,7.2,2.2,8.3c4.7,0.5,9.5-1.9,14.1,1.8c11.9,9.4,23,19,22.4,36.1
			c-0.3,0.6-0.5,1.2-0.7,1.8c-5.7,4.5-8.1-0.1-10.4-4c-12.9-20.9-38.4-30.1-61.9-21.5c-13.5,4.9-27.7,6.5-41.1,11.5
			c-2.2,1.4-1-7-4.1-1.6c-2.3,4.1-6,7.8-5.5,13.1c0.3,5.2-1.2,9.9-3.2,14.6c-0.7,1.6-1.7,3.1-2.6,6.4c6.3-3.1,11.3-7.2,17.6-7.5
			c15.8-3.8,33.4-3.5,44.3-18.8c4.1,5.8,5,6,9.9,2.6c1.3-0.1,2.5,0.2,3.5,1c1.6,2,2,4.4,2.7,6.7c19.5,5.1,28.5,19.4,32.9,37.7
			c1.3,18.7-0.1,37.3,0.5,53.4c1.2-12.7-1.7-28.2,1.4-43.4c4.8,0.3,6,4.2,6.1,7.6c0.6,22,3,44.2-2.2,66c-0.7,1.3-1.6,2.5-2.8,3.4
			c-7.8,1.4-7.4-4.4-8.1-9.3c-2.3-16.3-2.5-32.7-1.9-49.1c0.6-15-4.3-27.7-13.1-39.3c-5-6.6-18.5-9.5-26.8-9
			c-11.6,0.6-23.2,0.3-34.9,1.6c-17.2,2-25.9,10.6-29.5,26.9c-6.7,30.7-11.1,61.1,4.3,90.6c5.6,10.8,13.1,19.4,26.1,22.1
			c10,2.1,15.3,8.7,15.5,19.5c0.2,7.3,1.2,14.7-0.4,21.8c-2.6,11.2-0.9,21.6,4,31.7c0.2,1.4,0.2,2.9,0,4.3
			c-8.2,29.5-7.1,60.3-11.8,90.2c-4.5,28.7,3.1,57.9-4.8,86.4c-3.4,12.2,7,14.8,14.3,19.3c1.8,2.8,0.8,5-1.3,7.2
			c-1.8,1.8-3.1,3.6,0.7,4.6c1.6,1,2.3,2.5,2.5,4.3c-0.1,3.7-2.5,6.9-2.3,10.6c0.3,7.8,1.2,17.6,7.2,20.8c5.6,3,9-6.8,13-11.1
			c7.7-8.3,16.7-15.3,24.5-23.4c3.4-3.5,7.3-5.1,12.2-4.3c1.3,0.5,2.1,1.3,2.6,2.6c-0.4,10.1-7.4,16.3-14.2,22.3
			c-6.2,5.4-12.9,10.2-18.3,16.4c-4.8,5.5-13.5,7.1-13.9,17.2c-0.5,14.4,4.4,26.5,11.7,38.2c0.5,0.8,1.2,1.2,2.1,1.6
			c7.5,3.5,30.4-7.3,31.6-15.4c2-13.5,4.9-27,1.4-40.6c-2-7.8-0.5-15.4,1.1-23c1.7-8.1,2.5-16.2,0.1-24.3c-0.4-2.1-0.4-4.2-0.1-6.3
			c8.7-28.4,12.2-57.5,12.3-87.1c0.1-10.1,4-19.5,3.4-29.6c0.1-1.4,0.4-2.8,0.8-4.1c1.5-3.7,2.2-7.8,6.3-9.8c4,0.2,4.9,3.6,6.5,6.2
			c0.1,14.1,0.3,28.2,0.4,42.2c0,1.5,0.4,4.1-2.3,2.6c-0.9-0.5-0.6-3.1-1.7-4.8c-4.8,27.1-8.4,54.4-10.7,81.4
			c-2,22.9-4.3,45.8-6.7,68.7c-1.3,12.4,2.3,25.4,1.1,37.8c-0.6,5.6,4.3,4.3,4.4,7.3C923,657.3,917.4,655.9,915.4,659z"/>
		<path class="st2" d="M849.3,346.1c0-1-0.1-2-0.1-3c-0.4-8.8,6.7-12.5,12.1-16.9c5.4-4.4,8.9-8.9,7.2-16.2
			c-2.4-10.5,7.9-20.2,2.1-31.3c-0.7-1.3,2.6-3.4,4.7-4.4c12.6-6.5,21.7-16.4,28.8-28.4c2.6-4.5,6.2-7.8,11.1-9.6l-0.4,0.3
			c2.2-2.3,5.3-4.4,5.5-7.6c1.6-30.1,14.4-59.1,8.2-90.1c-2-10-3-20.9,2.6-30.7l0.7-0.8c6.6,8,5.2,17.7,5.2,26.8
			c0.1,27.9,0.8,55.8-5.4,83.4c-5.7,25.5-22.8,42.7-40.5,59.7c-15.5,14.9-18.4,31.4-5.1,49.1c8.1,10.8,14.1,24.1,24.3,32.4
			c8.9,7.3,12.6,15.5,15.8,25.2c1.2,2.5-0.5,3.3-2.3,4.1c-4.1,0.6-6.8-1.3-8.9-4.8c-9.3-15.7-22.9-28-33.1-43.1
			c-5.8-8.5-11.6-8.5-18.9-1.8C859,342.1,856,347.6,849.3,346.1z"/>
		<path class="st3" d="M923.6,387.1c0.8-1,1.6-1.9,2.4-2.9c14.3,7,13.3,20.2,13.1,33c-2.6-1.4-4.6-3.4-5.4-6.3
			C930.8,402.7,922.3,397,923.6,387.1z"/>
		<path class="st4" d="M915.4,659c-0.1-5.8,5.5-4.4,8.3-6.6c4.6-0.3,7.5,1.5,3.4,5.4C924.3,660.5,919.7,662.7,915.4,659z"/>
		<path class="st5" d="M932.1,75.4c0.5,2.8,0.9,5.5,1.4,8.4c-3.7,0.5-4.4-1.6-4.6-3.8C928.6,78.2,928.6,76.3,932.1,75.4z"/>
		<path class="st6" d="M923.6,387.1c3.3,7.9,12.7,13.3,10.1,23.8c-4.3,1.6-0.7,7.7-5.3,9.2c-0.5-0.7-0.9-1.5-1-2.4
			c-0.2-1.6-0.1-3.2-0.2-4.8c0,1.2,0,2.4,0,3.5c0,1.3,0.4,2.6,1.5,3.5c-2.8,33.3-5.2,66.6-8.6,99.8c-0.8,8.1-5.1,15.7-7.8,23.6
			c-2,4-2.6,9-7.7,11c-2.9,2.4-6.6,2-9.8,5.6c-12.4,14.2-27.3,26.2-41.4,44.7c-2-17.4-15.7-29.3-4.1-44.9c6.9-16.3,19-29,28.5-43.6
			c3.3-6.2,4.1-12.5,3.7-19.6c-1.5-24.7,0.9-49.3,2-69.5c-0.1,7.8-2.1,20-1.6,32.3c-1.4,5.6-1.5,11.5-2.6,17.2
			c-3,7.7-0.8,16.3-3.5,24.1c-0.1,0.2,2-2.8,3.7-0.8c4.5,5.6,0.3,10.4-1.4,15.4c-7,11.9-17.2,21.5-23.2,34c-1,2.1-3,3.3-5.5,2.8
			c-0.7-0.7-1-1.5-0.8-2.3c0.2-0.8,0.4-1.2,0.6-1.2c-0.3-2.6-2.4-4.6-4.5-4.4c-16.8,2.1-16.5-10-14.1-19.6
			c3.8-15.9,3.7-31.2,3.1-47.5c-0.8-25.6,3.4-51.3,6.1-76.9c1.7-15.5,0.4-31.5,6.3-46.5c1-2.5,2.1-4.8,3.2-7.3
			c8.6-6.2,16.3-19.8,25.1-17.7c8.2,1.9,14.9,14.7,20.3,23.8c7,11.8,21.6,18.2,23.5,33.6C918.3,386.4,921.8,386.6,923.6,387.1z"/>
		<path class="st6" d="M915.2,236.4c-9.1,8.7-12.5,21.6-22.6,29.7c-6.5,5.3-11.5,12.6-22.7,12.9c9.2,3.7,7.8,8.5,5.1,14.5
			c-3.1,6.7-6.1,13.6-1.8,21.6c3.1,5.8-2.6,9.1-6.6,11.6c-7,4.3-12.5,10-17.3,16.5c-4.5-7.1-8.5-13.4-6-23.4
			c2.2-9,1.2-19.5,1.6-29.1c0.4-13.3-8.2-17.1-15.5-17.1c-13.1-0.1-18.1-9.1-23.1-16.9c-12.8-19.8-15.9-42.2-13.2-65.5
			c1.8-15.1,4.1-29.9,8.9-44.5c3.7-11,10-15.6,20.7-16.7c7.1-0.7,14.2-2,21.2-3.6c6.4-1.5,11.4-0.6,17.7,2.3c6.6,3,7-6.9,11.7-12.1
			c0.3,3.1,0.6,5.2,0.7,7.4c0.1,3.2-0.5,6.4,4.7,6.2c3.9-0.1,2.9-4.3,5.1-5.1c3.3-1.2,4.9,1.5,6.5,3.7
			c10.4,14.2,20.3,28.2,19.5,47.3c-0.7,19,0.2,38.1,0.7,57.1C910.5,234.4,912.3,237,915.2,236.4z"/>
		<path class="st6" d="M877.1,754.5c-2.3,19.9-5,39.7-9.4,59.3c-2.8,12.6,1.1,26.2-1.7,39.6c-4,19.2-6.3,38.9-5.9,58.7
			c0,1.3,0.3,3.1-0.4,4c-1.8,2.3-5.1,5.6-7.4,2.9c-7.4-9.1-23.7,5-27.4-10c-6.8-27.6-4.1-56.4-9.8-84.3c-1.2-5.8,7.7-10.1,8.9-18.1
			c1.4-9.5,2.1-19.1-4.8-24.2c-12.8-9.4-12.3-23.2-12.9-35.2c-1.3-23.8-3-47.9,0.3-71.7c0.3-2.5,0.8-4.7-1.2-5.4
			c-7.9-2.5-4.8-8.1-4.6-13.1c9.5,0,15.6,3.9,17.3,15.3c1.4-7.4,2.7-11.9,10.1-11.7c18.6,0.4,37.2,0,55.8-0.2c4.4-0.1,7.6,1,6.1,6
			c-8.4,26.5-8.5,54.2-12.7,81.3C878.1,750,878.5,752.3,877.1,754.5z"/>
		<path class="st7" d="M800,559c-3.5,25.6-9.1,50.7-14.8,75.9l0.1-0.2c-3.2,2-0.6,7.3-6.6,9c3.8-35.9,14.2-70.6,13-106.5
			c-1.1-35.4,4-71.2-5.1-106.2c5.9,68.9-12.2,135.6-19.4,203.4c0-5.4,0.9-11-0.1-16.2c-6-31.3-0.4-62.5,0.5-93.7
			c0.6-1.3,1.6-1.6,2.8-1c0.6,0.7,0.9,1.5,0.9,2.3c0,1.3,0,2.6,0,3.9c0.2-0.9,0.1-1.9,0.3-2.9c0.3-0.9,0.7-1.8,0.9-2.6
			c0.5-1.9,1.6-3.7,1.3-5.8c-0.3,2.1-1.2,3.2-3.5,2.5c-0.7-12.5,2.8-24.6,3.7-36.5c0.9-11.6-0.3-24.7-1.5-37.1l-0.3,0.2
			c7-6.5,1-15,3.6-22.2c1-1.8,0-4.4,2.2-5.7c-1.3-11.4,1.2-22.7,3.2-33.7c1.4-7.8,10.7-10.6,16-16c12.7-12.9,27.4-23.9,42-41
			c-0.8,47.8-9.6,91-9.8,134.8c-0.1,24.6-12.9,48-10.9,73.6c0.9,11.3-11.9,2.6-15.2,8.8C796.8,548.9,803.5,555.4,800,559z"/>
		<path class="st7" d="M931.1,108.4c-0.1,27.3,4.8,54.5,0.4,81.8c-2,12.3-10.7,23-7.4,36.7c0.8,3.4-2.8,9.7-9.3,9.8
			c4.8-25.2,4.3-50.4,0.6-75.6c-3.3-4.4-1.9-10.8-6.2-14.8c-3.3-9-7-18-14.4-24.5c-4-3.5-8.5-9.4-14.7-2.5c-1.2,1.3-2.9,2.6-3.3-0.5
			c-0.2-1.7,0.2-3.6,0.4-5.4c4.4-3.2,0.5-5.6-0.8-8.2l-1.1-0.1l-1.1,0.2c-3.8,1.8-6.3-0.7-8.9-2.7c-8.6,16.2-24,18.5-40,19.9
			c-1.8,0.2-3.8,1.8-6.1,1.3c-5-4.7-12.2,5.9-16.6-2.4c-1.1-5.8,4.8-10.3,2.8-16.3c4.3-3.4,4.5-11.1,11.9-11.3
			c19.2-7.8,38.7-15.4,59.6-15.9c21.1-0.5,39.3,5.5,47.2,28.2C925,109.4,927.5,111.5,931.1,108.4z"/>
		<path class="st7" d="M912.4,549c3.4,0.4,2.9,3.3,2.5,5.1c-6.9,29.2,2.2,59.2-5.1,88.4c-1.1,4.3-1.2,8.4-6.1,8.3
			c-10.7-0.3-20.4,6.3-31.2,4.3c-3.3-0.6-9-0.1-2.7-5.6c1.9-1.6,1.9-3.4-0.9-5.1c-9.7-6.1-7.3-16.8-10.2-25.7
			c-5.7-17.3,8.9-20.8,16.5-29.1c10.8-11.7,26.7-18.9,32.1-35.5C908,551.5,909.7,549.8,912.4,549z"/>
		<path class="st8" d="M792.9,655.4c-3.6,20.3,1.4,39.5,2.7,58.4c1.1,16,2.6,32.4,3.5,48.3c1,19,1.5,38.9,5.3,56.6
			c4.5,20.8-0.3,43,10.4,62.6c2.9,5.3,4,12.5-0.3,16.6c-5.3,5-13,0.6-19.6,0.7c-4.9,0-2.8-4.8-2.9-7.5c-1-24.4-1.9-48.8-2.8-73.1
			c-0.1-2.7-0.9-6.4,0.5-8c11.2-13.1,5.1-25.2-2.6-36.4c-1.9-2.7-3.4-4.7-3.4-7.8c0.1-19.5-3-38.8-4.7-58.2
			c-0.4-5.4-6.8-14.7,5.3-17.2c2.2-0.4,0.2-2.3-0.5-2.6c-10.4-5.3-6.6-16.2-7.6-23.8C774.2,648.7,787.1,658.4,792.9,655.4z"/>
		<path class="st9" d="M862.5,651.4c-12.3,5.8-25.5,3.5-38.4,3.8c-5.2,0.1-8.1-1.3-7.2-6.6c5.9-32.9,6.5-66.5,11.2-101.3
			c13,9,9.9,22.1,12.9,32.6c6.2,21.8,11.5,43.9,17.3,65.8C858.8,647.8,862.8,646.8,862.5,651.4z"/>
		<path class="st10" d="M785.2,634.9c12.5-11.9,13.4-27.9,14.7-43.4c0.9-10.4,2.7-20.4,5-30.5c1.1-4.6,0.1-11.2,7.5-10.6
			c7.9,0.7,7.1,8,6.4,12.8c-3.3,22.9-0.6,46.3-6.2,68.9c-0.8,3.1-1.8,6.3-1.5,9.4c1.1,8.8-1.8,11.6-11.1,11.1
			c-9.7-0.4-17.4,0.1-11.1-13c1.1-2.3-1.3-4-3.6-4.9C785.3,634.7,785.2,634.9,785.2,634.9z"/>
		<path class="st11" d="M820.8,942.1c2.4-4.2,1-8.2-0.7-11.9c1.7-5.6,15.1,12.1,10.5-5.7c-0.5-2.1,2-2.6,3.9-2.5
			c7.7,0.7,15,6.2,23.1,1.8c0.3-0.2,1.2,0,1.3,0.2c3.1,7.3,0.5,15,1.3,22.4c0.5,4.6-2.1,6.5-6.5,6.7c-15.4,0.9-30.7,2.2-46,2.9
			c-3.5,0.1-8.9,2.6-10.1-3.5c-1.3-6.9,2.9-12.7,6.7-17.3c2-2.4,8.7-2.6,11.7,2.5C817.2,939.7,818,941.9,820.8,942.1z"/>
		<path class="st12" d="M754.5,940.6c-1.1-16.5-1-15.9,16.9-17.6c3.2-0.3,10.5-2.3,11.7-5.7c2.8-7.6,8.6-6.9,13.9-6.7
			c4.8,0.1,8.9,1.2,13.4-2.2c2.1-1.5,7.5-4,8.6,1.6c0.7,3.8,2.6,9.5-4.5,10.8c-9.4,1.7-16.4,6.5-20.6,15.4c-1,2.2-3.2,3.6-6.7,2.5
			C776.1,935.2,765.5,941.5,754.5,940.6z"/>
		<path class="st13" d="M849.4,551.7c9.1-12,16-25.7,27.3-36c1.2,1.2,1.3,2.5,0.4,4c-7.7,14.4-17.9,27-27.7,39.9
			c-0.7-0.9-1.3-1.8-2-2.7C844.8,553.8,847.1,552.7,849.4,551.7z"/>
		<path class="st14" d="M909.3,146.3c7.2,2.8,5.3,9.4,6.2,14.8c0,16.6,0,33.1,0,49.7C910.8,189.4,914.8,167.5,909.3,146.3z"/>
		<path class="st15" d="M802.5,121.6c5.1,3.8,11.8-3.3,16.6,2.4c-4.7-0.2-8.5,1.4-11.5,5.2c-2.4,3-7.8,6.2-9.4,4.1
			C795.5,129.3,796.4,123.8,802.5,121.6z"/>
		<path class="st16" d="M817.1,94c-4.2,3.5-5.3,10.3-11.9,11.3c-0.8-6.7,5.1-10.6,7.1-16.2c1-2.6,4.8-4.6,7.7-1.9
			C820.7,87.7,818.2,91.6,817.1,94z"/>
		<path class="st17" d="M865.3,102.6c3,0.9,5.9,1.8,8.9,2.7c-3.8,4.1-4.7,10.5-10.4,13.2C861.2,112.7,864.8,107.8,865.3,102.6z"/>
		<path class="st18" d="M849.4,551.7c-0.7,1.7-1.4,3.5-2.1,5.2c-1.8,2.1-4,6.3-6.1,1c-2.5-6.6,3.1-8.1,7.9-9.5
			C849.3,549.4,849.3,550.5,849.4,551.7z"/>
		<path class="st19" d="M778,419.7c0.4,2.3,0,4.4-2.2,5.7c-3.9-5.5-4.3-11.4-2.3-18C778.4,410.6,772,417.4,778,419.7z"/>
		<path class="st20" d="M844.6,79.9c4.3-2.4-1.2-9.5,5.4-10c0.9-0.1,3.2,3.5,3,5.2C852.6,79.7,848.4,79.3,844.6,79.9z"/>
		<path class="st21" d="M772.6,447.4c-5.4-6.2-1.9-13-1.6-19.6c2.7,6.5,1.8,13.2,1.3,19.9L772.6,447.4z"/>
		<path class="st22" d="M800,559c1.1-4.3-8.5-11.5,3.5-12.9C801,550.1,806,556,800,559z"/>
		<path class="st23" d="M877.1,754.5c0-2.3,0.1-4.5,0.1-6.8c6.2,4.7,6,10.9,4.1,17.9C877.6,762.4,881,757.1,877.1,754.5z"/>
		<path class="st24" d="M780.3,600.6c-3.3,5.1-1,11.2-3.7,16.6c-0.2-5.6-4.1-11.3,1.6-16.6C778.9,599.2,779.6,599.3,780.3,600.6z"/>
		<path class="st25" d="M794.8,366.6c-3.3,2.9-6.6,5.8-12,10.6C784.7,368.8,788.9,366.5,794.8,366.6z"/>
		<path class="st26" d="M770.3,521c1.2-2.5,2.4-5.1,4.3-9c1.1,6.3,2.7,11-1.8,14.9c-1.5-0.4-2-2-3.2-2.8c-0.7,0.1-1.4,0.2-2.1,0.5
			C767.4,522.6,768.4,521.4,770.3,521z"/>
		<path class="st27" d="M780.3,600.6l-1.1,0l-1.1,0c0-5.7,0-11.3,0-17C781.7,589.1,781.2,594.8,780.3,600.6z"/>
		<path class="st28" d="M912.4,549c-1.7,1.7-3.4,3.4-5.1,5.2l-1.3,0.1l-1.3-0.2c1.5-4.4,4.4-7.8,7.7-11
			C912.3,545.1,912.3,547.1,912.4,549z"/>
		<path class="st29" d="M876.4,105.3c2.5,1.9,6.9,3.7,7.2,5.9c0.4,2.9-4,1.9-6.4,2.3C876.9,110.8,876.7,108,876.4,105.3z"/>
		<path class="st30" d="M877,519.6c-0.1-1.3-0.3-2.6-0.4-4c1.1-5.3,4-10.4,2.6-16.2c-0.1-0.7-0.2-1.4-0.3-2
			c-1.4-10.3,1-20.5,0.5-30.7c0-2-0.3-4-0.8-5.9c1.4-15.1,2.8-30.2,4.2-45.3c0.7,0,1.4,0.1,2.1,0.1c0,29.6,0.3,59.3-0.3,88.9
			C884.5,509.9,882.4,516,877,519.6z"/>
		<path class="st31" d="M879.2,499.5c-2.5-2-3.6,9.1-5.2,1.2c-1.5-7.5-2.6-16.2,2.6-23.5c1.1,0.9,1.9,2,2.3,3.3
			c-0.2,6.1,2.1,12.1,0.8,18.2L879.2,499.5z"/>
		<path class="st32" d="M876.8,480.6c-0.1-1.1-0.1-2.2-0.2-3.4c0.7-5.5-2.1-11.4,2-16.4c1.9,0.3,3.1,1.2,3.5,3.2
			C877.8,468.7,885,477,876.8,480.6z"/>
		<path class="st33" d="M928.7,419.8c-5.6-3.3-1.5-8.1-2.2-12.2c3,3.8,2.3,8.1,1.9,12.4C928.5,420,928.7,419.8,928.7,419.8z"/>
		<path class="st34" d="M843.6,169.6c-2-8.8,3.5-13.8,10.3-14.6c7.3-0.9,7.8,7.3,9.9,12.5c6.6,15.8,6.3,20.4-1.4,24.9
			c-10.9,6.5-10.9,6.5-23-9.8c-1.1,4.3-1.2,8.2-3.9,10.8c-2.6,2.6-5.3,5.5-9.3,4.7c-3.8-0.8-6.4-4.5-6.6-7.7
			c-0.7-9.1-0.9-18.2-0.1-27.3c0.4-4.6,4.3-7.7,9.3-8.5c5.9-1,8.4,2.8,9.5,7.3C838.9,165.1,839.1,168.2,843.6,169.6z"/>
		<path class="st35" d="M856.4,234.9c-2.3,15.1-10.2,18.4-30.7,13C835.7,241,852.1,251,856.4,234.9z"/>
		<path class="st36" d="M769.6,524c1.1,0.9,2.1,1.9,3.2,2.8c-0.3,3.3-0.5,6.6-0.8,9.8c-0.5,0-1.1,0-1.6-0.1
			C770.1,532.4,769.9,528.2,769.6,524z"/>
		<path class="st37" d="M876.8,480.6c6.7-4-1.3-12.6,5.2-16.6c-1.1,11.6,2.9,23.5-2.3,34.8C877.1,493,876.4,486.9,876.8,480.6z"/>
		<path class="st38" d="M859.5,184.5c-1.5-1.4-2.7-3.6-4.3-3.9c-8.2-1.6-11.8-11.4-6.6-18.1c3.6-4.7,6.2-2.2,8.2,1.2
			C860.5,170.1,861.4,177,859.5,184.5z"/>
		<path class="st16" d="M835.4,183.8c-6.5-3.9-17.9-3.9-10.8-16.4c1.3-2.3-2-7,3.2-7.3c3.7-0.2,5.1,3.4,6.5,6.1
			C837,171.7,835.4,177.6,835.4,183.8z"/>
	</g>
	<g class="st0">
		<path class="st39" d="M605.7,791.9c1.1,22.7-4.7,44.9-6.7,67.3c-0.9,10.6-1,24.4-8.3,35.9c-6.1,9.6-0.5,15.5,11.1,15.3
			c5.3-0.1,10.8,1.1,15.7-0.1c16.9-3.9,20.8,11.6,29.2,19.6c2.4,2.3-0.3,10.1-6.2,13.2c-17.5,9.4-36.2,11.8-55.6,10.9
			c-3.9-0.2-7.8-1.1-11.8-1.3c-21.6-1.2-27.4-7-28-28.2c-0.1-2.6,1.5-3.8,2.8-5.5c7.5-9.6,6.1-27-2.8-34.8c-4.5-3.9-2.7-3.2,1.7-4.8
			c3-1,3.2-7.3,2.8-11.9c-2.6-28.9-9.1-57.1-14-85.6c-1.7-9.8-3.9-20.1-1.5-30.6c1.4-6.2,1.3-13.5-0.4-19.6c-8.3-29.7-7-60-6.8-90.2
			c-3.5-3.5-7.3,0.8-10.9-0.3c-3.9,0.4-7.8,0.9-11.6,1.3c-8.7,1.1-16.6-7-15-15.2c7-36.1,13.8-72.2,16-109c0.3-4.7,1.5-8.4,4.9-11.5
			c2.9-3.3-0.3-6.9,0.6-10.4c0.1-3.9,1.4-7.5,1.9-11.3c0.4-30,10.9-57.9,17.4-86.6c3.8-16.8,4.7-34,10.7-53.6
			c-10.2,10-19.8,13-30.4,11.6c-7-0.9-10.2,3.4-13.6,8c-0.9,0.9-1.7,0.9-2.5-0.1c1-2.9,3.5-6.3,2.7-8.5c-8.6-24.2-9.9-24.4-4.4-47
			c5-20.3-1.2-39.7-1.3-59.5c0-11.2-2.6-22.3,0.8-33.6c6-20.2,11.1-40.7,14.2-61.7c1.2-8.3,5.6-16,15-19.9
			c9.6-4,18.2-10.1,27.6-14.7c24.5-12.2,56.4-5.4,73.9,16c2.1,2.6,3.9,5,6.9,6.5c15.6,8,9.6,23.1,11.5,35.5c1,6.6-11.9,4.4-8.9,12.1
			c3.4,8.5,1.7,17.3,3.4,25.8c3.8,19.2,2.2,37.5-7.9,55.1c-5.4,9.4-12.8,13.7-22.6,14.8c-5.6,0.6-13.9-0.1-14.5,5.3
			c-0.9,8-4.1,18,3.7,24.6c3.5,2.9,5.7,5.6,5.7,10c5.9,4.4,5.7,11.6,8.4,17.5c4.5,0.4-3.1,6.2,2.7,6c0,5.5,0,11-0.7,16.5
			c-1.1,2.8-3,4.8-6,5.4c-8.4-5-8-14.2-9.9-22c-2.4-9.6-6.5-15.3-17.4-11.1c-1.2,0.5-2.6,0.5-3.9,0.6c-19.4,1.6-18.2,2-23.3,20.4
			c-10,35.6-14.7,72.4-19.9,108.5c-6.3,43.4-18.8,85.7-22.4,129.5c-0.6,7.9-3.1,15.5-5.1,23.1c-2.6,9.8,1.8,10.7,9.3,9.5
			c5.3-0.8,10.2-2.7,15-4.9c24.4-10.9,49.1-19.4,76.4-13.2c5.7,1.3,11.2-1.8,16.8-2.6c4.8-0.7,9.3,0.2,10.1,5.7
			c0.7,5.4-4.1,6.1-7.9,6.9c-7.7,1.7-15.4,3-23.5,1.9c-16.9-2.3-34-4.7-48.9,4.4c2.3-0.2,6.8,1.6,8.7-1.2c5-7.4,11.6-4.8,17.7-3.7
			c18.4,3.5,36.5,2.9,54.7-2.1c5.8-1.6,8.1-3.6,8.1-9.5c-0.2-19.3,1.1-38.4-8.9-56.5c-7.8-14.2-4.8-31.1-6.4-46.6
			c-3.6-35.9-12.3-70.8-17.2-106.4c-1.3-9.4-6.3-18.5-2.2-28.3c1.5-1.6,3.4-2.5,5.6-2.4c4.6-0.1,3.9,5.4,7,6.9
			c1.2,5.4,3.7,10.8,3.5,16.1c-1.2,37.3,25,52.4,52.8,66.6c2.3,1.2,5,4,5.2,6.3c0.8,7.6,1,8.8,7,5.9c11.7-5.7,6.3,8.5,12,9.7
			c0.6,0.1,0.4,4.1,0.5,6.2c1,18.8,1,18.8-17.4,13.8c-1.2-0.3-3.1-0.9-3.8-0.3c-12.3,10.9-22.8-1.1-34.2-2.4
			c-4.6,1.1-3.7,4.4-2.9,7.6c10.6,24.1,3.6,50.2,8.2,75c2.1,11.4,5.2,22.5,7.4,33.9c1.8,9.2,2,18-12,15.2
			c-14.4-2.9-17.7,4.5-19.7,17.6c-4,25.5-4.7,51.1-4.9,76.8c-0.1,15.1-7.4,28.9-9,44c-0.7,6.4-0.8,12.9-1.6,19.4
			c-1.1,1.3-2.2,1.3-3.4,0c-0.3-8.6-1.9-17.3,1.4-24.6c-3.7,6.2-1.1,14.1-2.1,21.6c-2.2,5.7-3.4,11.5-1.9,17.6
			c0.4,1.7,3-0.2,1.3,0.3c-0.7,0.2-1.2,0.1-1.2-0.6C602.6,799.1,599,794,605.7,791.9z"/>
		<path class="st40" d="M608.6,342.8c-2.7-5.9-8.8-10.1-8.4-17.5C613.2,326.2,607.1,336.3,608.6,342.8z"/>
		<path class="st41" d="M610.6,372.2c-1.5,0.1-3,0.3-4.5,0.4c-0.6-0.4-0.9-0.9-0.8-1.5c0.1-0.6,0.3-0.9,0.4-0.9
			c0.9-1.9,1.9-3.9,2.8-5.8c3.2-1.7-1.5-8.6,5.3-8c0.7,3.6,1.4,7.3,2.1,10.9C614.3,369.2,612.9,371.2,610.6,372.2z"/>
		<path class="st42" d="M605.7,791.9c-5.6,3.5-0.1,9.8-4.8,15.4c-0.4-8.1-1.4-14.6,2.2-20.9c1.5,0.4,1.9,1.8,2.8,2.7
			c0.9,0.3,1.6,0.2,2.4-0.3C607.5,789.9,606.6,790.9,605.7,791.9z"/>
		<path class="st43" d="M494.5,364.5c0.8-0.1,1.7,0,2.5,0.1c-1,1.8-1.9,3.7-3.1,5.4c-1.9,2.8-5,3.5-7.8,2.2c-2-1-3.8-4.1,0.6-4.1
			c1.4,0,2.6,0.7,3.9-0.5C491.9,366.4,493.2,365.5,494.5,364.5z"/>
		<path class="st44" d="M512.9,485.2c0.2,4.6,0.4,9.2,0.6,13.8c-1.5,1.7-3.1,1.7-4.8,0.3C507.6,493.8,510.4,489.5,512.9,485.2z"/>
		<path class="st45" d="M613.8,356.6c-5.3,0.3,0.4,7.9-5.3,8c-0.2-5.4-0.8-11,2.8-15.7C614.8,350.6,613.8,353.7,613.8,356.6z"/>
		<path class="st42" d="M516.2,641.3c3.6-4.2,7.8-2.9,12-1.3c0.1,0,0.1,0.7-0.1,0.9c-0.3,0.3-0.7,0.4-1.1,0.7
			C523.4,640,519.6,647,516.2,641.3z"/>
		<path class="st46" d="M639.9,507.1c-3.9-1.5-3-4.8-2.2-7.3c1-3.1,3.4-0.3,5.1-0.3C641.9,502,640.9,504.6,639.9,507.1z"/>
		<path class="st47" d="M508.7,499.3c1.6-0.1,3.2-0.2,4.8-0.3c-0.9,2.6,4.5,7.8-3.1,7.9C509.9,504.3,509.3,501.8,508.7,499.3z"/>
		<path class="st48" d="M610.6,372.2c0.6-2.9,2.1-4.9,5.4-4.8c0.4,3.4,0.8,6.7,1.2,10.1C615,375.8,612.8,374,610.6,372.2z"/>
		<path class="st6" d="M605.8,370.3c-0.4,0.8-0.2,1.6,0.3,2.3c-0.1,18.8,7,36.4,9.2,54.8c4.3,37,15.3,73.2,14.2,110.8
			c-0.3,11.1,7.3,18.8,10.4,28.3c6.2,18.7,1.1,38.1,3.4,57.7c-15-4.6-26.5,7.2-40.4,4.4c-9.2-1.8-19.1,0.2-28.4-2.9
			c-4.3-1.4-5.2,2.2-11,4.1c-7.5,2.5-16.4,0.6-26.6,0.6c19.7-11.4,39.4-16.1,59.9-11.1c10.6,2.6,19.6-2.6,29.5-1.9
			c1.9,0.1,3.4-1.4,2.8-3.4c-0.6-2.2-2.6-4.7-4.6-3.8c-23.2,11-48.8-4.6-72.2,7.2c-11,5.5-22.5,10.3-34.5,13.9
			c-4.8,1.5-9.2,2-13.9,2.1c-8.9,0.3-11.3-2.5-5.5-10.6c5.1-7,5.1-17,5.8-24.1c3.2-32.6,10.8-64.2,17.7-96
			c2.9-13.3,0.5-26.9,4.4-40.2c4-13.5,8.9-27.5,9-41.2c0.2-27.9,13-53.3,13.7-80.9c0.2-9.4,8.6-8.1,12.7-6.7
			c8.2,2.8,15.5,1.6,22.4-1.9c6.8-3.4,9-0.7,11.4,5.3C599.7,348.1,597.4,360.9,605.8,370.3z"/>
		<path class="st6" d="M547.9,747c0.4-8.5-0.5-16.7-5.2-24l0.2,0.1c0.2-21.4-4.8-42.5-3-64c0.1-0.9-0.1-1.8,0-2.6
			c0.6-6.1-12-11.4-2.5-17c4.9-2.9,12.8-2.1,19.2-2.4c18.8-0.9,37.6-0.3,56.4-0.3c0.3,26.4-7.4,51.9-8.4,77.5
			c-1.2,29.8-7.9,58.6-9.6,88.1c-1.5,25.5-5.1,51-7.6,76.4c-0.4,3.7-1.1,6.4-5.1,5.1c-6.8-2.1-13.9-1.5-20.5-3
			c-6.2-1.4-6.5-10.6-5.3-13.6c2.4-6.1-0.9-10.7-0.8-16c0.2-17.8,0.2-35.6,0-53.4c-0.1-4.1,2-8.8-2.1-12.3
			c-5.2-5.7-2.6-13.1-4.3-19.6c-0.3-1.1-0.6-2.3-0.9-3.5c-0.6-4.6-0.3-9.2-0.4-13.9C547.9,748.1,547.9,747.6,547.9,747z"/>
		<path class="st9" d="M568.7,324.2c0.7-2.5,1.4-4.8,2-6.9c-4-1.6-5.4,4.6-10.3,2.1c5.2-10.8,11.5-20.6,18.5-30.4
			c14-19.8,15.4-43.4,17.1-66.7c0.3-3.9,0.1-7.9,0.2-11.8c0.6-18.4,5.2-23.4,23.1-25.2c4.1-0.4,7.8-0.3,9.5,4.6
			c1.8,5-1.4,4.7-4.8,6.4c-7.6,3.9-5.6,27.9,3.4,30.2c9,2.3,6.9,7.5,6.9,12.5c0,3.4-1.2,6.8-2.1,10.1c-4,14.9-5.5,15.6-18.8,7.6
			c-0.8,8,4.4,10,10.4,11.1c-6.1,10.3-15.7,12.7-26.1,12.1c-8.4-0.5-12,2.9-13.7,11c-1.2,6.1-2.9,12.2-1.7,18.1
			C584.9,320.9,579.4,324.2,568.7,324.2z"/>
		<path class="st49" d="M632.4,449.6c10.4,4.2,18.8,12.6,30.8,14c5.1,0.6,6.3,6.1,6.1,11.4c-0.2,9,0.2,18.1-4.9,27.3
			c-7.3-7.8-17.8-8.4-27.3-11.6c-3.4-1.2-1.5-3.2-2.1-4.8c0.4-6.5-0.8-12.8-2.7-19.1C632.5,461.1,626.5,455.3,632.4,449.6z"/>
		<path class="st11" d="M585.8,941.9c-7.8-0.6-15.1,1.9-22.4-1.5c-3.8-1.8-11.3,0.7-9.8-6.5c0.8-3.8-2.8-14.7,8.9-10.5
			c11.9-14.7,21-7.4,29.8,3.6c2.1,2.6,3.8,1.3,5.9-1.4c3.1-4,8.7-3.1,11.6-0.8c2.3,1.9,2.9,7.1,2.7,10.7c-0.4,4.6-4.7,6.1-8.8,6.3
			C597.6,942.1,591.5,941.9,585.8,941.9z"/>
		<path class="st50" d="M566.2,185.6c-5.1,4.8-5.5,11.1-5.3,17.4c0.5,11.8,0.4,23.3-10,31.5c0.8,1.8-0.1,4.1-1.6,3.6
			c-4.4-1.6-2.9-5.1-1.6-8.2c-4.5-10.8,2.3-20.8,2.5-31.3c0.6-4,0.2-8.4,5.4-9.7c4.3-12.3,11.8-21.9,23.4-28.1l-0.2-0.3
			c-0.3,9.4-2.6,17.7-12.4,21.7C567.4,183.5,567.3,184.6,566.2,185.6z"/>
		<path class="st51" d="M558.2,890.3c8.7-2.7,15,1.7,21.9,2.2c6.8,0.4,4.1,7.3,4.7,11.7c0.8,5.1-1.6,6-6.3,7
			c-15.7,3.3-15.6,3.6-17.6-12C560.6,896.3,559.2,893.6,558.2,890.3z"/>
		<path class="st52" d="M595.9,172c-2.8,0.7-2.8,3.4-3.8,5.4c-1,2.1-2,4.4-5.1,2.9c-8.6,8.9-9.3,20.4-10.4,31.8
			c-0.5,5.4,2.1,11.3-2.5,16.3c-7.7-17.5-7-27.2,3.1-44.4c2.8-4.9,5.7-9.8,8.5-14.7c0.1-3.6,1.5-6.4,4.6-8.3
			c8.7,0.5,3.7,7.5,5.4,11.4L595.9,172z"/>
		<path class="st53" d="M625.5,937c-8.2,3.9-8.2-2.8-8.8-7.3c-0.8-5.7,1.5-11.1,6.4-13.7c3.5-1.8,20.7,12,19.3,15.1
			C639.1,938.2,631.7,936.5,625.5,937z"/>
		<path class="st54" d="M539.4,195.7c1.1-1.5,3.4-2.5,3.3-0.2c-1,15.2,3.2,31.1-5.8,45.3c-2.5,2,1.6,7.5-4.2,7.7
			c-1.9-11.3-0.6-22.7-0.4-34c-0.9-3.6-0.6-7,0.6-10.5C534.3,200.6,536.1,197.5,539.4,195.7z"/>
		<path class="st55" d="M530.1,214.4c-1.8,2.8,1.3,7-3.3,9.9c0.3-21.4-3.4-43.2,20.8-58.9c-4.1,11-7.2,19.4-10.3,27.8
			c-1,4-1.5,8.1-3.8,11.6C533.5,208.4,533.4,212,530.1,214.4z"/>
		<path class="st56" d="M627.4,177.9c-5.2,4.7-11.5,1.5-17.3,2.4c-4.7,0.7-4.1-3-4.3-6c-0.3-5,0.1-10-2-14.8
			c-1.5-3.5,2.4-3.2,3.2-4.3c4.2-5.4,4.7,0.3,5.7,1.6c1.6,1.9,3.7,4.8,3.2,6.7c-2.4,9.8,4.1,11.9,11,14L627.4,177.9z"/>
		<path class="st56" d="M526.8,335.6c2.4-0.6,4.9-1.2,7.2-1.7c-3.3,7-9.2,9.2-24.9,9.3c1.6-4.4,3.2-8.6,4.7-12.8
			c-0.4-3.7,1.4-6.3,4.4-8.2c0.5-2.9,1-5.7,1.5-8.5c6.9,7.4-2.7,17.2,4.3,24.5C524.9,337.4,525.3,335.9,526.8,335.6z"/>
		<path class="st57" d="M675.2,482.5c15.3-2,14.6,8.3,14.7,18.7C673.9,496.7,673.8,496.5,675.2,482.5z"/>
		<path class="st58" d="M611,741.7c-0.1-19.8-0.6-39.6,4.8-61.1c1.3,21.8,1.4,41.5-2.7,61.1C612.4,742.7,611.7,742.7,611,741.7z"/>
		<path class="st56" d="M511.5,330.5c-1.8,2.6-3.5,5.3-5.9,8.8c-2.6-16.4,9.1-27.9,10.3-42.1c0,7.4,0,14.8,0,22.1
			C515,323.2,515.6,327.8,511.5,330.5z"/>
		<path class="st59" d="M587.5,201.6c1.5-0.2,3-0.4,4.5-0.5c-3.8,12.2-1.1,24.7-2.1,37.1c-0.2,2.5-2.2,3.5-5.2,4.8
			c0-10.7,0-20.9,0-31.2C587.4,208.8,583.3,204.1,587.5,201.6z"/>
		<path class="st58" d="M574.3,142.8c-3.3-12.5-12.2,0.7-17.4-3.7c10-7,27.9-5.4,40.9,3.7C590,146.8,582.2,146.9,574.3,142.8z"/>
		<path class="st60" d="M526.9,284.9c-4.1,0.1-8.2-0.5-8.1-5.6c0.1-8.6-2.4-17.3,0.1-25.9c10.5,1.9,3.3,10.7,6.1,15.6
			c1.3,3,2.3,6.1,4.2,8.8c0.2,0.8,0.4,1.5,0.6,2.3C529.8,282.2,528.5,283.7,526.9,284.9z"/>
		<path class="st14" d="M550.4,786.4c-6.1-12.8-8.1-25.8-2.6-39.4l-0.1-0.2c3.5,5-0.8,11.3,2.9,16.2l-0.2-0.4
			C552.6,770.5,552.5,778.4,550.4,786.4z"/>
		<path class="st61" d="M537.5,293.3c-0.7,9.7-7.9,13.9-11.1,20.5C525.4,304.8,527.1,297.4,537.5,293.3z"/>
		<path class="st62" d="M632.4,449.6c0.9,6,1.7,11.9,2.6,17.9c-1.9,1.3-0.7,4.2-2.7,5.4c-3.6-6.5-5.2-13.4-5.4-20.7
			C626.7,447,629.5,448.2,632.4,449.6z"/>
		<path class="st54" d="M547.3,278c2.6-9.7,4.8-17.8,7.5-27.9C555.9,261.1,560.1,270.6,547.3,278z"/>
		<path class="st63" d="M524.6,269.6c-6.8-3.7,2.2-13-5.7-16.3c2.3-2.9,2.5-6.5,2.6-10c7.7,4.4,6.6,11.3,5.3,18.3
			c0.1,2.7,0.1,5.4,0.2,8.1C526.1,270.5,525.3,270.5,524.6,269.6z"/>
		<path class="st64" d="M574.3,142.8c7.8,0,15.7,0,23.5,0C590,149.6,582.1,153.5,574.3,142.8z"/>
		<path class="st65" d="M532.7,248.5c1.4-2.6,2.8-5.1,4.2-7.7c-1.4,9.2,3.8,18.5-1.5,30.8C534.3,261.9,533.5,255.2,532.7,248.5z"/>
		<path class="st66" d="M526.8,261.7c-1.8-6.1-3.6-12.2-5.3-18.3c0.4-2.7,2.3-8,4.1-3.9C528.4,246,533.8,254,526.8,261.7z"/>
		<path class="st67" d="M606,789.1c-0.9-0.9-1.9-1.8-2.8-2.7c1.2-9.1-3.2-19,5-27.1C605.9,769.2,605.6,779.1,606,789.1z"/>
		<path class="st68" d="M595.6,172.4c3.3,0,1.4-6.1,4-4.6c4.1,2.3,1.6,6.9,1.5,10.6c-0.1,2.1,0.7,4.4-2.7,4.4
			c-3.1,0-3.3-2.2-3.2-4.3c0.1-2.1,0.4-4.3,0.7-6.4L595.6,172.4z"/>
		<path class="st69" d="M547.7,229.9c1.8,1-2.9,6.6,3.2,4.6c2.6,3.9,3.1,7.8-0.5,11.4c-0.8,1.3-1.6,1.3-2.4,0
			C544.2,240.7,543.7,235.4,547.7,229.9z"/>
		<path class="st70" d="M630.9,209.7c0.6,2.7-0.5,4.5-3.1,4.4c-4.5-0.3-3.6-4.1-3.6-7c0-2.2-1.2-6.2,2.8-5.7
			C632.1,201.9,628.1,207.6,630.9,209.7z"/>
		<path class="st22" d="M528.5,159.1c-0.6,8.9-5.1,12.9-8.5,17.9C516.3,168.7,521.6,165,528.5,159.1z"/>
		<path class="st71" d="M590.2,161.1c-0.2,3.5-0.6,6.9-4.6,8.3c-4.9-0.9-1.6-8-6.6-8.8c0,0,0.2,0.3,0.2,0.3
			C582.9,157.8,586.5,157.1,590.2,161.1z"/>
		<path class="st72" d="M632.2,472.9c0.1-2.2,0.6-4.3,2.7-5.4c1.2,6.2,5.2,12.3,0.1,18.5C629.9,482.5,633,477.3,632.2,472.9z"/>
		<path class="st73" d="M497.1,221.4c0,8.4,0,16.7,0,25.1c-0.4,0-0.8,0-1.2,0c0-8.4,0-16.7,0-25.1
			C496.3,221.4,496.7,221.4,497.1,221.4z"/>
		<path class="st74" d="M548.1,246c0.8,0,1.6,0,2.4,0c1.3,5.9-1.8,10.7-3.7,15.9c0,0.1-3.2-0.4-3.2-0.8
			C543,255.5,545.9,250.9,548.1,246z"/>
		<path class="st43" d="M550.4,786.4c0-7.9,0-15.9,0-23.8c6.2,7,1,15.5,3.1,23.1C552.9,787.6,552.1,788.7,550.4,786.4z"/>
		<path class="st67" d="M512.9,226.7c0,6.7,0,13.3,0,20c-0.5,0-1,0-1.5,0c0-6.8,0-13.6,0-20.5C511.9,226.4,512.4,226.5,512.9,226.7z
			"/>
		<path class="st75" d="M626.9,177.4c1.7-1.6-3.4-7.7,3.4-5.7c2.2,0.7,7.4-2.6,6.7,2.6c-0.7,5.5-6.4,2.2-9.6,3.5
			C627.4,177.9,626.9,177.4,626.9,177.4z"/>
		<path class="st76" d="M548.5,130.7c-4.6,4.1-7.9,7.2-13.5,7C537.2,130.9,540.9,128.3,548.5,130.7z"/>
		<path class="st62" d="M590,134c4.6-0.9,9.2-3.3,13,0.6c0.3,0.3-0.1,2-0.6,2.2C597.5,139.2,594.6,133.1,590,134z"/>
		<path class="st77" d="M513.4,278.3c0.1,1.8,0.5,4.2-1.8,3.9c-2.3-0.3-5.3-0.8-5.9-4c-0.4-2.6,1.8-4.7,3.3-4.9
			C512.1,272.9,512.1,276.5,513.4,278.3z"/>
		<path class="st78" d="M587,180.3c1.7-1,3.4-1.9,5.1-2.9c-0.7,5.6-1.2,11.2-4.7,15.9c-1.1-0.6-1.8-1.5-2.2-2.6
			C586.2,187.3,588.2,184.1,587,180.3z"/>
		<path class="st79" d="M561.6,255.1c0-5.9,0-11.9,0-17.8c0.4,0,0.8-0.1,1.2-0.1c0,5.8,0,11.6,0,17.5
			C562.4,254.8,562,255,561.6,255.1z"/>
		<path class="st80" d="M560.5,288.3c1-4.5,2.6-8.8,7.8-11C570,284.5,563.1,285,560.5,288.3z"/>
		<path class="st81" d="M555.7,189c-2.7,2.7-1.6,7.6-5.4,9.7C546.5,191.9,547,191,555.7,189z"/>
		<path class="st66" d="M585.2,190.7c0.7,0.9,1.5,1.7,2.2,2.6c-0.1,1.6-0.1,3.3-0.2,4.9c-2.7,2.9,0.5,7.3-2.7,10
			C578.1,202.2,584.3,196.6,585.2,190.7z"/>
		<path class="st82" d="M524.6,269.6c0.8,0.1,1.6,0.2,2.4,0.1c2.1,2.3,5.2,4.3,2.2,8C521.7,278.4,524.9,273,524.6,269.6z"/>
		<path class="st83" d="M514.6,213.1c-0.9-5-2.7-8.6,0.7-11.9c0.3-0.3,2,0,2.3,0.5C520.2,206.2,515.6,208.4,514.6,213.1z"/>
		<path class="st84" d="M550.1,807.7c0.7,5.5,1.4,11-0.9,16.8c-2.3-5.8-1.6-11.3-0.9-16.8C548.9,807.7,549.5,807.7,550.1,807.7z"/>
		<path class="st85" d="M566.2,185.6c0.1-1.1,0.2-2.2,0.3-3.3c9.9,2.9-1.2,8.3,0.1,9.5C566.6,191.6,566.4,188.6,566.2,185.6z"/>
		<path class="st86" d="M511.5,330.5c2.8-3.2,0.5-8.5,4.4-11.2c0.8,1,1.5,2,2.3,3c-1.5,2.7-0.8,6.6-4.4,8.2l-1.2,0.2L511.5,330.5z"
			/>
		<path class="st42" d="M519.7,211.4c2.7,6.2,1.8,10.6,0.9,17.4C518.1,221.9,518.7,217.5,519.7,211.4z"/>
		<path class="st87" d="M532.6,203.9c1.8-3.5,0.8-8.2,4.6-10.8c0.7,0.8,1.4,1.7,2.1,2.5c-1.4,2.8-0.7,6.6-4.2,8.3
			C534.3,205,533.5,205.1,532.6,203.9z"/>
		<path class="st88" d="M550.1,807.7h-0.9h-0.9c-0.7-4-5-7.4-1.6-13.1C547.9,799.5,549,803.6,550.1,807.7z"/>
		<path class="st89" d="M541.9,239.4c0,4.4,0,8.8,0,13.3c-0.5,0-0.9,0-1.4,0c0-4.5,0-9.1,0-13.6
			C540.9,239.2,541.4,239.3,541.9,239.4z"/>
		<path class="st90" d="M526.9,284.9c0.3-2,0.6-4,2.9-4.8c2,0.5,5.3,0.1,4.5,3.2C533.2,287.7,529.6,285.3,526.9,284.9z"/>
		<path class="st91" d="M576.4,255.7c2.3-3.5-1.3-8.1,2.2-12.3C580.5,248.4,580.1,252.3,576.4,255.7z"/>
		<path class="st92" d="M584.6,208.3c0.3-3.5-1.1-7.5,2.7-10c0.1,1.1,0.2,2.2,0.3,3.3c0,3.6,0.9,7.5-2.7,10.2
			C584.7,210.6,584.6,209.4,584.6,208.3z"/>
		<path class="st93" d="M504.7,309.3c-2.4-3.1-2.4-6.2-0.7-10.1C507,302.8,505.4,306.1,504.7,309.3z"/>
		<path class="st94" d="M592.6,913.6c3.1,0.1,3.3,1.7,2.7,3.5c-0.3,1-1.5,2.6-1.6,2.5c-1.9-0.8-4.2-1.8-3.4-4.4
			C590.6,914.3,592.1,913.9,592.6,913.6z"/>
		<path class="st95" d="M549.1,160c-0.3-0.8-1.4-2.2-1-2.7c1-1.4,2.3-2.6,3.8-3.4c0.9-0.4,2.7-0.2,2.2,1.8
			C553.6,158.1,552.1,159.6,549.1,160z"/>
		<path class="st96" d="M542.7,723c-0.2,3.7,1.1,7.6-1.7,11.8c-1-4.5-3.8-8.7,1.9-11.6C542.9,723.1,542.7,723,542.7,723z"/>
		<path class="st90" d="M611,741.7c0.7,0,1.4,0,2.1,0c-1,3.1-2,6.2-3.4,10.4C608,747.6,607.5,744.5,611,741.7z"/>
		<path class="st97" d="M538.7,156.6c-1.6-0.8-3.7-0.5-2.4-2.5c0.8-1.3,2-2.6,3.3-3.5c1.3-0.9,2.8,0.1,2.4,1.3
			C541.4,153.6,539.8,155.1,538.7,156.6z"/>
		<path class="st56" d="M538.1,143.1c0.3,4.1-2.4,5.9-5.1,7.7C530,145.2,535.6,145.1,538.1,143.1z"/>
		<path class="st90" d="M580.6,262.8c1.1-5.1,1.6-7.8,2.6-12.5C585.1,255.7,585.9,258.7,580.6,262.8z"/>
		<path class="st98" d="M526.8,335.6c-1,0.9-1.9,1.8-2.9,2.6c0.7-3.7-0.7-8.3,4.4-10.1C531.6,331.5,526.9,333.1,526.8,335.6z"/>
		<path class="st99" d="M530,290.7c-0.8,1.6-1.9,3.1-3.9,1.9c-0.9-0.6-2.1-2.1-1.9-2.9c0.5-2,2.4-2,4.1-1.6
			C529.5,288.4,530.7,289,530,290.7z"/>
		<path class="st40" d="M568,236.6c-2.3-3.2-2.3-6.5-0.7-10.6C570,229.9,568.7,233.3,568,236.6z"/>
		<path class="st100" d="M532.6,203.9c0.9,0.2,1.7,0.2,2.5,0c-1.6,3.3,1.8,8-2.8,10.5l-1.1,0.1l-1.1-0.1
			C530.9,210.9,531.8,207.4,532.6,203.9z"/>
		<path class="st101" d="M585.4,456c13.2,11.3,15,26.7,19.8,39.9c7,19.2,9.5,40.1,19.9,58.1c1.6,2.9,0.3,2.6-1.3,4.4
			c-7.1,7.4-5.4,14.4,2.9,19.7c1.6,1,2.7,1.8,3.5,3.4c1.9,4.1,3.5,8.7-0.4,12.2c-7.4,6.5-14.7,13.7-25.7,13.5
			c-6.3-0.1-5.1-5.5-7-9.1c-3.5-7-1.4-19.1-15.4-17.8c-0.9,0.1-3.4-9.5-3.8-14.8c-2.1-28.8-14.1-54.9-22.7-81.8
			c-1.3-4.2-4-8.2-1.3-12.2c0.9-1.3,5-1.5,7.2-0.9c6.1,1.9,4.6,7.6,4.4,11.8c-0.9,16.3,5.9,31,9.6,46.2c3.1,12.6,8.5,25.1,12,37.8
			c2,7.2,4.9,6.5,9.9,3.5c6-3.6,8.9-12,18.7-9.7c3.8,0.9,1.7-3.6,0.9-5.7c-10.1-27.3-16.3-56-29.2-82.3
			C585.3,467.4,584.3,463,585.4,456z"/>
		<path class="st102" d="M550.6,763c-5.8-4.5-1.4-10.9-2.9-16.2C552.8,751.4,550,757.5,550.6,763z"/>
		<path class="st20" d="M622.9,581.7c-8.5,8.5-16.6,3-24.7-0.1c-0.3-0.1-1.4-4,2.2-6.1C610.7,569.4,618.2,570.7,622.9,581.7z"/>
	</g>
</g>
</svg>
