<?xml version="1.0" encoding="utf-8"?>
<!-- Generator: Adobe Illustrator 23.0.3, SVG Export Plug-In . SVG Version: 6.00 Build 0)  -->
<svg version="1.1" id="Layer_1" xmlns="http://www.w3.org/2000/svg" xmlns:xlink="http://www.w3.org/1999/xlink" x="0px" y="0px"
	 viewBox="0 0 1024 600" style="enable-background:new 0 0 1024 600;" xml:space="preserve">
<style type="text/css">
	.st0{fill:#FEFEFE;}
	.st1{fill:#070707;}
	.st2{fill:#FFFFFF;}
	.st3{fill:#0A0B0B;}
	.st4{fill:#0E0E0E;}
	.st5{fill:#0C0D0D;}
	.st6{fill:#F7F6F6;}
	.st7{fill:#3F3E3D;}
	.st8{fill:#171717;}
	.st9{fill:#121313;}
	.st10{fill:#060606;}
	.st11{fill:#080808;}
	.st12{fill:#333333;}
	.st13{fill:#323232;}
	.st14{fill:#B7B5B5;}
	.st15{fill:#3D3E3E;}
	.st16{fill:#323333;}
	.st17{fill:#FEFEFD;}
	.st18{fill:#F8F8F7;}
	.st19{fill:#FAFAFA;}
	.st20{fill:#F9F8F8;}
	.st21{fill:#F5F4F4;}
	.st22{fill:#F4F3F3;}
	.st23{fill:#F5F4F3;}
	.st24{fill:#F1EFEF;}
	.st25{fill:#EFEEEE;}
	.st26{fill:#E9E8E7;}
	.st27{fill:#ECEBEA;}
	.st28{fill:#222222;}
	.st29{fill:#191A1A;}
	.st30{fill:#E0DFDF;}
	.st31{fill:#ACABAB;}
	.st32{fill:#131414;}
	.st33{fill:#151515;}
	.st34{fill:#1A1B1B;}
	.st35{fill:#2F2F2F;}
	.st36{fill:#F2F1F1;}
	.st37{fill:#FDFDFD;}
	.st38{fill:#0F0F0F;}
	.st39{fill:#0E0F0F;}
	.st40{fill:#141515;}
	.st41{fill:#101010;}
	.st42{fill:#181919;}
	.st43{fill:#111212;}
	.st44{fill:#0B0B0B;}
	.st45{fill:#090909;}
	.st46{fill:#181818;}
	.st47{fill:#080909;}
	.st48{fill:#0A0A0A;}
	.st49{fill:#2F3030;}
	.st50{fill:#242525;}
	.st51{fill:#EDECEC;}
	.st52{fill:#FCFCFB;}
	.st53{fill:#F9F9F9;}
	.st54{fill:#3A3A3A;}
	.st55{fill:#0C0C0C;}
	.st56{fill:#F8F7F7;}
	.st57{fill:#010101;}
	.st58{fill:#6E6E6E;}
	.st59{fill:#FDFCFC;}
	.st60{fill:#E9E8E8;}
	.st61{fill:#EDECEB;}
	.st62{fill:#C7C5C4;}
	.st63{fill:#BCBBBB;}
	.st64{fill:#FFFEFE;}
	.st65{fill:#FCFCFC;}
	.st66{fill:#EAE9E9;}
	.st67{fill:#E1E0E0;}
	.st68{fill:#E6E5E4;}
	.st69{fill:#C9C8C8;}
	.st70{fill:#EAE8E8;}
	.st71{fill:#E5E4E4;}
	.st72{fill:#D7D6D6;}
	.st73{fill:#D8D8D7;}
	.st74{fill:#E2E1E0;}
	.st75{fill:#F4F4F3;}
	.st76{fill:#ECECEB;}
	.st77{fill:#D8D8D8;}
	.st78{fill:#818081;}
	.st79{fill:#0F1010;}
	.st80{fill:#2D2E2E;}
	.st81{fill:#9E9E9E;}
	.st82{fill:#EEEDED;}
	.st83{fill:#DCDBDB;}
	.st84{fill:#D6D5D5;}
	.st85{fill:#EBEAEA;}
	.st86{fill:#060707;}
	.st87{fill:#D4D3D3;}
	.st88{fill:#EBEAE9;}
	.st89{fill:#282928;}
	.st90{fill:#E2E1E1;}
	.st91{fill:#CFCECD;}
	.st92{fill:#C4C3C3;}
	.st93{fill:#161717;}
	.st94{fill:#393A3A;}
	.st95{fill:#161616;}
	.st96{fill:#1D1E1E;}
	.st97{fill:#232323;}
	.st98{fill:#2A2B2B;}
	.st99{fill:#040404;}
</style>
<g>
	<path class="st85" d="M493.7,221.4c-0.1,0.8-0.2,1.5-0.3,2.3c-1.7-3.8-1.8-7.6-0.4-11.5c0,0-0.1,0-0.1,0
		C494.3,215.2,493.4,218.4,493.7,221.4z"/>
	<path class="st34" d="M502.6,413.8c-0.7,2-1.7,3.1-3.5,3.3c-1.7,0.1-2.6-0.4-2.5-2.3c0-2.2,1.7-2.8,3.2-3.2
		C501.4,411.2,501.8,413,502.6,413.8z"/>
	<g>
		<path class="st86" d="M409.5,519.9c1.2-4.7,3.5-8.9,5.8-13.2c1.6-3,2.2-5.7-2.8-6.3c-5.4-0.7-5.7-2.1-2.3-7.1
			C424.3,473,438,452.5,444,428c1.1-4.5,0.4-8.7,0.3-13c-0.2-13-9.4-21.9-13.2-33.2c-0.6-1.8-2.2-3.1-4-4.4
			c-9.3-7.2-17.2-16-21.5-27.1c-4.8-12.3,0.2-23.4,6-34c2.5-4.6,5.3-9.1,9.5-12.5c2.9-2.4,3.4-6.2,2.4-9.2c-1.2-3.3-4.3-2.1-7.3-1.4
			c-2.6,0.6-7.3,1.8-5.4-5.6c2.7-10.3-2.9-20.5-4.2-30.9c-0.7-5.9-1.6-11.3,0.3-17c1.5-4.4,2-8.9,1-14.3c-9.2,6.5-12.5-2.8-17.1-6.7
			c-7.5-6.3-10-14.9-8.6-25.3c0.8-5.9-1.8-12.4-1.8-18.8c0-6.4,2.4-10.8,8.2-13c5.1-1.9,8.6-5.3,11-9.9c2.6-4.9,6.3-8.9,11.6-9.9
			c8.7-1.6,14.1-8.3,21.2-12.4c6.8-3.9,14.4-1.4,17.2,5.8c1.4,3.6,6.5,5.5,4.6,10.4c-1.2-0.4-2.3-0.5-1.7,1.4c0.2,0.5,0,1-0.2,1.3
			c0.8-0.9,0.7-2.2,1.7-2.9c4.2,3.3,0.8,7.5-0.8,8.5c-4.1,2.4-2.5,3.4-0.8,6.5c6,11.2,11.4,22.8,7.6,36.1c-1.2,4-3.7,7.2-7.7,8.8
			c-2.8,1.1-7.3,1.6-6.6,5.2c0.7,3.6,0.6,9.4,7.2,8.9c0.5,0,1,1.5,1.5,2.3c-6.2,2.9-12.4,2.1-18.5,0.1c-8.8-2.9-14.6-0.1-17.5,8.9
			c-3.2,9.8-2,19.9-1.5,29.8c0.4,7,3,13.8,2.3,21c-0.3,3.7,2.9,4.7,5.9,5.3c11.1,2.2,22.3,2.4,33.6,2c3.5-0.1,3.5-2.3,3.9-4.9
			c1.9-12.6,0.9-25.4,1.6-36.5c-5.5,10-6.4,22.9-9.9,35c-2.3,8.1-11.1,9.3-16.7,2.8c-6.5-7.6-12.3-15.9-17.8-24.2
			c-0.3-0.7-0.4-1.4-0.3-2.1c1.2-3.8,4-6.7,6-10c1-1.6,2.3-3.1,2.4-5.3c0.1-1.9-1.8-4.8,1.8-5.3c3.5-0.5,5.3,1.9,6.4,4.9
			c3.5,9.9,3.5,9.9,8.2,14c1-4.5,2.1-8.5,0.6-13c-3.3-9.5-2.1-11.4,7.6-13.7c0.9-0.2,2-0.1,2.8-0.9c0.6-2.8-3.5-5.1-0.9-8.1
			c2-0.4,3.6,0.5,4.1,2.2c2.4,8.5,10.3,14.4,10.8,24.1c0.2,3.3,4.1,6.2,7.5,7.1c3.4,1,4.7-2.6,6.3-5c5.7-8.4,7.1-17.5,4.6-27.3
			c-1.2-4.7-1-4.5,2.8-7c1.1-0.7,0.2-3.5,2.7-3.6c0.2,3.4-0.9,6.9,0.8,10.2c-1.1,8.8-0.6,17.8-5,26.1c-3.9,7.4-8.5,12.6-18,9.2
			c-0.3,6.8,3.8,8.2,8.7,9.1c5.4,1,9.2-1,10.8-6.3c1.9-6,2.9-12.3,4.3-18.5c0.6-2.6,0.7-5.4,1.9-7.8c2.9-5.5,1.7-9.8-3.4-13.1
			c-0.2-3-0.1-5.9-0.2-8.9c-1.1-1.6-0.9-4.4,0.6-3.6c2.4,1.3,3.5-3.4,5.9-0.1c5.4,7.5,8.3,14.5,3.2,23.7c-4.7,8.6-5,18.9-7.9,28.2
			c-3.1,10-9.5,13.6-19.6,10.8c-2-0.5-3.8-1.4-6-2.1c-0.9,3.1,0.8,5.9,1.3,8.5c1.2,7.2,4,13.2-5.2,18.6c-3.3,1.9-2.9,11.9-1.8,18.6
			c2.9,17.4,14.1,30.7,21.3,45.9c7.7,16.1,19.7,30.2,22.8,48.4c0.9,5.5,0.8,10.8-0.4,16.4c-3.5,17-13.2,30.6-21.8,45
			c-6.9,11.6-13.4,23.6-13.6,37.8c0,3,2.5,3.5,4.3,4.2c5.7,2,8.8,6.1,7.1,11.7c-1.5,4.9-6.8,4.2-11.1,4.7
			c-7.6,0.8-15.1-2.5-22.6-0.2c-0.1-0.3-0.2-0.7-0.4-1c0.7-7.9,0.5-8.2-7.2-9c-3.9-0.4-7.7-1.2-11.4-2.2c-2.6-0.7-4.9-1.5-4.6-5.3
			c0.3-5.2-2.7-3.2-5-1.6c-4,2.8-4.7,8.6-9.4,10.9C410.7,520.6,410.1,520.4,409.5,519.9z"/>
		<path class="st79" d="M409.5,519.9c0.4,0,0.8,0,1.2,0.1c6.9,5.2,14.8,6.9,23.3,6.9c5.2,0,10.8-1.7,15.5,2l-0.2-0.2
			c-0.3,2.2-2.6,2.6-3.7,2.7c-11.9,0.6-23.7,0.3-35.1-3.4C405.8,526.5,405.7,523.1,409.5,519.9z"/>
		<path class="st2" d="M478.9,412.7c-1.6,1-3.5,1.7-4.1,3.8c2.6-1,1.5,4.3,5.2,2.7c2.6-1.1,1.5,1.3,1,2.9
			c-2.9,9.2-9.3,16.6-13.2,25.5c-7.8,17.8-17.8,34.5-24.4,52.8c-1.6,4.5-4.1,6.9-9.8,4.8c-21.5-7.7-21.1-7.2-9-26.1
			c10.2-15.9,17.6-33.3,23.4-51.3c1.8-5.4,6.1-9.9,4-16.6c-0.5-1.6-0.6-3.9-1.6-5.7c-1.8-3.5-7-5.9-3.3-11.5
			c0.6-0.9-2.9-5.4-5.3-7.2c-9-6.9-15.7-15.9-22.8-24.3c-3.1-3.7-8.5-5.4-9.7-11.2c-0.6-2.9-0.3-4.6,2.1-4.6c4.9,0,4.5-2.5,4.4-6.1
			c-0.2-5.9-1.8-12.3,3.1-17.3c1.3-1.3,0.7-2.7-0.4-2.7c-7.1,0-0.1-5.2-2.6-6.8c2.5-2.3,3-6.5,7.6-7.1c10.7-1.5,21.4-1.3,32.1-1.4
			c3.1,0,4.2,0.6,4.2,4c-0.1,11.2,3,21.1,9.6,30.8c8.5,12.4,13.7,27,21.9,39.7c3.5,5.5,4.6,11,6.5,16.7c0.6,1.7-1.9,7,3.9,4
			c0.3-0.1,1.7,3.3,2.2,5.3c3.9,15.1-2.3,27.8-9.4,40.1c-8.2,14.3-16.5,28.5-23.9,43.2c-1.3,2.5-2.5,5.2-3.3,7.9
			c-0.8,2.7,0.1,6.7-2.8,7.8c-3.8,1.4-8.1,1.9-12.1,1.7c-5.5-0.3-7.3-2.7-4.7-8.6c6.8-15.7,14.6-30.8,22.1-46.1
			c3.8-7.7,7.3-15.4,11.5-22.9c6.8-12.1,8.1-25.9-3.3-39.6c-9-10.9-18.2-21.8-22.7-35.5c-0.6-1.9-1.3-3.6-3.2-2.7
			c-2.1,1.1,0.3,2.6,0.6,3.9c3.9,15.2,15.6,25.5,24.3,37.7c2.7,3.8,4.9,7.7,4.7,12.6C483,408.5,482.1,411.1,478.9,412.7z"/>
		<path class="st2" d="M422.7,146.3c2.4-4.7,2.5-10.7,8.7-13.3c6.4-2.7,9.7-1.8,12.3,4.6c0.9,2.1,2.5,4,3.4,6.1
			c0.7,1.7,3.4,4.2-1.4,4.7c-1.7,0.2-0.7,2.3-0.7,3.7c0.3,7.6-3.8,12.4-11.5,13.6c-3.9,0.6-6.6,1.6-2.6,5.7c2.3,2.4-0.1,3.3-1.3,4.7
			c-2.6,3-6.5,2.7-9.8,3.7c-7,2.1-8.5,8.9-5.3,15.5c2.5,5.2,9.2,9,7.1,16.2c-0.8,2.7,5.8,0.6,2.5,3.6c-2.1,1.9-6.1,0.8-8.3-1.3
			c-2.9-2.8-1.4,0.7-1.7,1.1c-1.9,2.4-3.4,5.1-5.6,7.2c-1.9,1.8-4.8,3-7.1,0.9c-2.1-1.9-2.4-4.6,0-6.8c0.8-0.8,1-1.6,0.6-3.2
			c-4.9,2.5-10,5.3-13.8-1.6c-2.6-4.8-4.3-8.9,1.3-12.9c3.5-2.5,4.7-4.9-0.1-8.3c-4.7-3.4-6.9-14.6-4.8-18.1
			c1.5-2.5,2.7-5.1,5.1-0.5c0.9,1.7,3.1,3.7,5.2,2.2c2.5-1.7,0.9-4-0.9-5.3c-2.8-2-0.5-5.1,0.1-5.1c6.1-0.3,6.3-7.5,11-9.1
			c2.1-0.7,1.3-2.2,1.7-3.4C409.4,143.4,416.7,141.4,422.7,146.3z"/>
		<path class="st0" d="M420.2,259.7c6.2,8.1,12.8,15.9,18.3,24.4c2.5,3.8,5.2,3.9,8.5,3.6c3.6-0.4,4.8-2.8,5.7-6.3
			c2.3-9.5,2.2-19.5,7.2-28.4c2.3-4,3-8.5,3.2-14c1.6,2.8,2.7,4.4,2.7,6.7c-0.3,14.5-0.5,29.1-0.7,43.6c0,2.4-1.8,2.5-3.5,2.3
			c-12.2-2-24.6,0.2-36.9-2.2c-7.2-1.4-9-3.2-6.3-9.6c0.5-1.1-0.4-1.7-0.6-2.5c-3.8-14.9-5-29.9-2.1-45.1
			c1.4-7.2,5.7-11.6,12.1-14.4c1.2-0.5,2.4-0.8,3.4,0c7,5.3,15.2,3.7,23.1,4.1c0,0-0.2-0.2-0.2-0.2c-0.5,1.7,0.8,2.6,1.5,3.9
			c3.1,5.2,2.8,5.7-3.1,6.3c-8.2,0.8-10.6,5-6.3,12c3.5,5.6-0.4,10.5-0.4,15.8c0,1.1-1.9,2.3-3.2,0.4c-3.1-5-8.9-8.3-8.1-15.7
			c0.4-3.3-2.4-5.4-6.4-4.9c5.3,9.8-4.6,12.8-7.9,18.7c-0.4-0.1-0.7-0.4-0.9-0.9C418.5,258.4,419.7,258.9,420.2,259.7z"/>
		<path class="st0" d="M454.4,187.6c-3.1,0-5.3,1.9-7.8,3.4c3.1,2.8,4.9,6.9,11.6,5.1c-4.5,3.7-6.3,7.1-11,8.3c-3.8,1-5,5.4-4,10.1
			c0.3,1.4,4.8,4.3,0,5.4c-3.4,0.8-6.6-0.9-8.3-4.3c-0.3-0.6-0.2-1.5-0.1-2.2c1.2-7.3-3-10.1-9.2-10.8c-2.5-0.3-3.8-0.9-4.8-3.3
			c-1.4-3.5,2-2.7,3.1-3.5c1.7-1.1,2.7-2.2,1.9-4.1c-0.6-1.6-1.9-1.8-3.5-1.3c-2,0.6-4.3,0.7-3.6-2.4c0.5-2.1-1.1-5.1,2.4-6.2
			c5.8-1.9,10.3-4.6,14.5-10.1c2.6-3.4,10.1-5.7,14.5-10.3c1.2,3.4,3.9,5.5,3.6,8.9c-3.5,0.8-9.2-3-9.9,3.2c-0.5,4.2,0.3,9.9,6,11.1
			c6.5,1.3,4.3-5.1,6.1-8.1c1.8,4.3,2.1,8.2-2,11.3L454.4,187.6z"/>
		<path class="st59" d="M451.5,235.3c1,6.4,6-1.3,6.6,2.1c0.4,2.4-3.3,5.4,1.6,7c-1.8,1.7-4.2-0.8-5.8,1.9c4.2,2.7,3.4,6,1.8,10.4
			c-2.7,7.8-4.1,16.1-6,24.2c-0.4,1.5,0.7,3.8-2.1,3.8c-2.1,0-4.2,0.7-6-1.5c-5.4-7.1-11.1-14-15.4-21.9c-1.6-3,1.3-10,4.6-11.3
			c2.3-0.9,2.6,0.9,2.8,2.1c0.7,5,5.5,7.1,7.4,11.3c1.3,2.8,3.2,2.7,5.5,0.1c5.5-6.2,1.7-14,4-20.8C451,241,451.9,238.3,451.5,235.3
			z"/>
		<path class="st37" d="M449.6,528.9c-11.1-0.7-22.6,1.8-33.3-3.2c-2.5-1.1-6.7-0.9-5.5-5.8c3.6-3.5,5-8.7,8.9-12.2
			c2.5-2.2,4.7-3.6,7.6-1.6c4.2,2.8-0.4,4.8-1.2,7.7c5.4,1.1,10.7,2.7,16,3C452.4,517.7,454,520,449.6,528.9z"/>
		<path class="st65" d="M493.7,221.4c4.5,0.4,9,5.5,7,8.7c-5.4,8.6-5,18.6-7.7,27.9c-2.5,8.7-5.9,11.9-11.9,10.9
			c-12.8-2.1-12.8-2.1-12.2-14.8c2.9,3.1,6.3,2.8,9.7,2.9c5,0.2,5.1-4.5,7.1-7.2c4.1-5.7,5.8-12.1,4.9-19c-0.3-2.9,0.5-5.2,2.7-7.1
			C492.9,222.9,493,222.1,493.7,221.4z"/>
		<path class="st65" d="M462.4,524.4c-4.2-0.1-9.7,1.9-8.7-6.2c0.3-2.8-3.5-3-5.6-3.7c-2.2-0.8-3.7-1.5-2.6-3.9
			c0.8-1.7,1.9-3.3,4.5-1.4c3.1,2.3,10.5-3.2,10.3,5.7c0,0.9,2.6,0.9,2.9-0.5c0.4-2.6,2.2-2,3-1.6c5,2.3,13.7,0.9,13.6,8
			c-0.1,3.9-8.5,2.1-12.9,3.5C465.4,524.8,463.8,524.4,462.4,524.4z"/>
		<path class="st65" d="M424.8,303.9c2.1-10.8,2.2-10.9,12-8.2c3.2,0.9,5.9,1,9-0.3c4.9-2,9.5,1,14.3,1.4c1.8,0.1,1,1.9,1.1,2.9
			c0.3,1.8-0.6,3-2.4,2.6c-3.5-0.7-6.5,1.6-10,1.6C440.9,303.8,432.9,303.9,424.8,303.9z"/>
		<path class="st23" d="M414.2,327.9c0.2,4.6-2.9,8.8-0.3,13.6c1,2-0.8,3.4-3.2,3.6c-2.4,0.2-3.6-0.7-3.6-3.2
			c-0.1-5.3,1-10.3,2.7-15.3c0.8-2.2,2-4.5,4.5-3.4C416.7,324.2,413.4,326.3,414.2,327.9z"/>
		<path class="st87" d="M478.9,412.7c1-2.5,2-5,3-7.4c2.4,2.7,1.6,5.8,0.8,8.7c-0.3,1.1-0.5,3.3-2.5,2.9
			C477.9,416.4,479.2,414.1,478.9,412.7z"/>
		<path class="st61" d="M454.2,187.8c1.5,0.6,4.2-1.4,4.2,2.1c0,1.3,0.7,3.2-1.2,3.6c-1.3,0.3-3.3,0.4-4.1-0.4
			c-2-2.1,0.8-3.6,1.3-5.5C454.4,187.6,454.2,187.8,454.2,187.8z"/>
		<path class="st66" d="M448.2,180c0-2.8,0-5.4,0-8.1C453.8,174.2,453.8,174.2,448.2,180z"/>
		<path class="st88" d="M453.8,145.4c0.5,2.5-0.4,4.5-2.6,6.5c0-3.3,0-6.2,0-9.6c1.2,1.4,2,2.4,2.8,3.4
			C454,145.6,453.8,145.4,453.8,145.4z"/>
		<path class="st89" d="M420.2,259.7c-3.3-1.5-3.7-3.9-2.6-7c2.7,1,2.8,3.1,2.7,5.4C420.2,258.6,420.2,259.2,420.2,259.7z"/>
		<path class="st90" d="M431.4,209.3c-1.8,0.6-3.5,1.3-5.2-0.1c-0.2-0.2,0.2-1.6,0.6-1.8C428.9,206.5,430.6,206.8,431.4,209.3z"/>
		<path class="st91" d="M408.4,257.9c-0.1-1.9-0.3-3.9-0.6-7.7C410.5,253.9,410.1,256,408.4,257.9z"/>
		<path class="st92" d="M476.4,525.9c-0.3,0.8-0.9,1.4-2,1.4c-1.4,0-1.5-1.2-1.3-2c0.3-1,1.4-1.1,2.3-0.8
			C475.9,524.7,477.1,524.5,476.4,525.9z"/>
		<path class="st93" d="M434,316.1c-0.9,3.7-1.8,7.3-2.9,11.7C429.1,322.9,431.6,319.5,434,316.1z"/>
		<path class="st94" d="M449.6,382.5c-4.1-1.4-5.3-3.5-5.6-6c0-0.4,1-0.9,1.5-1.3C446.7,377.2,447.8,379.3,449.6,382.5z"/>
		<path class="st95" d="M434.8,357.7c2.6,2.7,5.3,4,6.2,7.4C437.1,364.6,435.1,362.8,434.8,357.7z"/>
		<path class="st96" d="M430.1,336.7c0.3,3,0.5,6,0.8,9C428.2,343.1,429,339.9,430.1,336.7z"/>
		<path class="st97" d="M458.5,426.1c0.1-3.3,1.5-5.1,3.5-6.6C461.9,421.9,461.6,424.2,458.5,426.1z"/>
		<path class="st98" d="M435.3,470.2c-1.1-3,1.5-4,1.6-6.8C438.9,466.8,437.2,468.2,435.3,470.2z"/>
		<path class="st99" d="M458.8,402.7c-2.9,0-4.5-1.2-4.2-3.6c0-0.3,0.7-0.5,1.1-0.8C456.7,399.8,457.7,401.3,458.8,402.7z"/>
	</g>
</g>
</svg>
