<?xml version="1.0" encoding="utf-8"?>
<!-- Generator: Adobe Illustrator 23.0.3, SVG Export Plug-In . SVG Version: 6.00 Build 0)  -->
<svg version="1.1" id="Layer_1" xmlns="http://www.w3.org/2000/svg" xmlns:xlink="http://www.w3.org/1999/xlink" x="0px" y="0px"
	 viewBox="0 0 1024 600" style="enable-background:new 0 0 1024 600;" xml:space="preserve">
<style type="text/css">
	.st0{fill:#FEFEFE;}
	.st1{fill:#070707;}
	.st2{fill:#FFFFFF;}
	.st3{fill:#0A0B0B;}
	.st4{fill:#0E0E0E;}
	.st5{fill:#0C0D0D;}
	.st6{fill:#F7F6F6;}
	.st7{fill:#3F3E3D;}
	.st8{fill:#171717;}
	.st9{fill:#121313;}
	.st10{fill:#060606;}
	.st11{fill:#080808;}
	.st12{fill:#333333;}
	.st13{fill:#323232;}
	.st14{fill:#B7B5B5;}
	.st15{fill:#3D3E3E;}
	.st16{fill:#323333;}
	.st17{fill:#FEFEFD;}
	.st18{fill:#F8F8F7;}
	.st19{fill:#FAFAFA;}
	.st20{fill:#F9F8F8;}
	.st21{fill:#F5F4F4;}
	.st22{fill:#F4F3F3;}
	.st23{fill:#F5F4F3;}
	.st24{fill:#F1EFEF;}
	.st25{fill:#EFEEEE;}
	.st26{fill:#E9E8E7;}
	.st27{fill:#ECEBEA;}
	.st28{fill:#222222;}
	.st29{fill:#191A1A;}
	.st30{fill:#E0DFDF;}
	.st31{fill:#ACABAB;}
	.st32{fill:#131414;}
	.st33{fill:#151515;}
	.st34{fill:#1A1B1B;}
	.st35{fill:#2F2F2F;}
	.st36{fill:#F2F1F1;}
	.st37{fill:#FDFDFD;}
	.st38{fill:#0F0F0F;}
	.st39{fill:#0E0F0F;}
	.st40{fill:#141515;}
	.st41{fill:#101010;}
	.st42{fill:#181919;}
	.st43{fill:#111212;}
	.st44{fill:#0B0B0B;}
	.st45{fill:#090909;}
	.st46{fill:#181818;}
	.st47{fill:#080909;}
	.st48{fill:#0A0A0A;}
	.st49{fill:#2F3030;}
	.st50{fill:#242525;}
	.st51{fill:#EDECEC;}
	.st52{fill:#FCFCFB;}
	.st53{fill:#F9F9F9;}
	.st54{fill:#3A3A3A;}
	.st55{fill:#0C0C0C;}
	.st56{fill:#F8F7F7;}
	.st57{fill:#010101;}
	.st58{fill:#6E6E6E;}
	.st59{fill:#FDFCFC;}
	.st60{fill:#E9E8E8;}
	.st61{fill:#EDECEB;}
	.st62{fill:#C7C5C4;}
	.st63{fill:#BCBBBB;}
	.st64{fill:#FFFEFE;}
	.st65{fill:#FCFCFC;}
	.st66{fill:#EAE9E9;}
	.st67{fill:#E1E0E0;}
	.st68{fill:#E6E5E4;}
	.st69{fill:#C9C8C8;}
	.st70{fill:#EAE8E8;}
	.st71{fill:#E5E4E4;}
	.st72{fill:#D7D6D6;}
	.st73{fill:#D8D8D7;}
	.st74{fill:#E2E1E0;}
	.st75{fill:#F4F4F3;}
	.st76{fill:#ECECEB;}
	.st77{fill:#D8D8D8;}
	.st78{fill:#818081;}
	.st79{fill:#0F1010;}
	.st80{fill:#2D2E2E;}
	.st81{fill:#9E9E9E;}
	.st82{fill:#EEEDED;}
	.st83{fill:#DCDBDB;}
	.st84{fill:#D6D5D5;}
	.st85{fill:#EBEAEA;}
	.st86{fill:#060707;}
	.st87{fill:#D4D3D3;}
	.st88{fill:#EBEAE9;}
	.st89{fill:#282928;}
	.st90{fill:#E2E1E1;}
	.st91{fill:#CFCECD;}
	.st92{fill:#C4C3C3;}
	.st93{fill:#161717;}
	.st94{fill:#393A3A;}
	.st95{fill:#161616;}
	.st96{fill:#1D1E1E;}
	.st97{fill:#232323;}
	.st98{fill:#2A2B2B;}
	.st99{fill:#040404;}
</style>
<g>
	<path class="st10" d="M489.9,299.2c11.8,1.4,18.8,7.1,21.5,17.8c1.2,4.6,0.1,9.3-1.6,13.5c-1.1,2.6-4.8,2.6-6.8,4.9
		c-4.5,4.8-8.8,9.9-14.4,13.6c-5.5,3.7-10.3,8.5-14.1,13.7c-2.2,3-3.8,7.8-3.5,12.3c1.1,17.4-2.1,34.5-3.8,51.7
		c-2.5,24.4-9.8,47.4-17.1,70.5c-0.7,2.3-1.6,2.6-3.3,2.2c-3.1-0.6-3.5,1.4-4.1,3.6c-0.6,2.4,0.4,4,2.7,4.2
		c8.7,0.6,11.4,8.6,16.5,13.5c2.7,2.6,1.9,7.3,0.6,10.4c-1,2.3-4.6,2.4-7.9,1.6c-8.4-2.2-17-3.5-25.3-6.1c-3.6-1.1-6.1-3.7-9.4-5
		c-1.1-0.5-0.5-1.5-0.6-2.4c-0.5-7,3-12.7,5.8-18.6c0.7-1.4,2.5-3.3,1.2-4.5c-6.4-5.8-1.3-11.5,0.1-16.9c1.5-5.8,3-11.5,3.6-17.4
		c0.6-6.3,5.7-10.5,6.6-16.5c0.2-1.3,1-2.5,1-3.8c0.2-4.9,0.5-9.5,2.3-14.5c2.3-6.3,2.2-13.7,1.3-20.8c-0.3-2.1-0.5-4.3-0.8-7.1
		c-4,5-8.3,9.3-12.8,13.4c-0.9,0.9-1.4,1.6-2.8,1.7c-3.2,0.4-4.9,4.4-2.7,6.8c6,6.5,4.9,14.9,6.5,22.6c0.9,4.3-3.3,6.4-6,8.8
		c-6.8,6-10.2,4.4-14.2-4.1c-2.5-5.3-3.7-10.8-6-16c-0.9-2.1-0.9-5.1-4.5-5.6c-1.8-0.3-1.4-2.4-0.3-4.1c3.8-5.7,7.6-11.4,12.5-16
		c2.4-2.3,1.3-2.5-0.6-3.5c-4-2-3.5-2.7-0.7-6.4c3.1-4.2,7-7.7,10-12.1c3.3-4.7,6.8-9.5,10.8-13.8c3.6-3.8,4.5-6.8,1.8-12.1
		c-3.8-7.6-6.7-15.8-10.2-23.6c-0.7-1.5-1-2.1-2.6-2.1c-7.2-0.2-13.4-3.8-20.1-5.7c-1-0.3-2.2-1-2.8-1.9c-3-5.2-5.2-10.8-6.9-16.5
		c0.6-1.4,1.6-1.9,3.1-1.6c2.4,1.3,2.4,3.9,3.2,6c3.8,9.7,10,12.4,20.2,12.1c13-0.4,26.3-1,38.8,4.5c5.6,2.5,7.1,5.3,5.2,11
		c-1.6,4.8-3.9,9.1-6.9,13.2c-8.4,11.6-17.8,22.4-28,32.4c-0.5,0.5,0.1-0.2-0.3,0.4c-1.7,2.1-4.3,4.6-3.1,6.9
		c1.7,3.3,5.5,4.7,9.1,5.7c1.7,0.5,2.7-1.1,3.6-2.3c5.8-7.8,13.3-14,18.4-22.4c1.8-2.9,5.2-3.4,7.6-5.5c5-4.4,9.8-9.1,14.4-13.9
		c7.1-7.3,14.7-14,22.4-20.6c2.2-1.8,3.9-4.1,5.5-6.4c7.2-10,1.2-24-10-25c-1.9-0.2-4.1,0.1-5.4-1.9
		C486.8,299.6,488.5,299.6,489.9,299.2z"/>
	<path class="st10" d="M522.9,232.7c1.1-3.9,3.5-7.2,4.3-11.4c1-4.8-0.3-8.3-2.5-11.9c-2.6-4.2-2.3-3.8,1.5-6c1.1-0.6,3.8-1.1,4.1-4
		c0.1-1.2,2.9-4.9,6.3-3.5c1.5,0.6,1.6-0.3,2.2-1c2.7-3.2,4-1.1,5.1,1.5c1.2,3.2,0.7,6.6-0.1,9.7c-0.7,2.6-0.8,4.8,0.2,7.2
		c2.3,6-1.8,10.9-2.8,16.4c-1.1,5.4-3.5,10.5-5.1,15.9c-2.1,7.2-6.4,13.3-11.2,18.7c-5.4,6-12.5,5.7-16.9-0.9
		c-2.3-3.5-6.3-3.8-8.9-6.5c-1.4-1.5-2.9,1-3.8,1.8c-3,2.6-4.5,2.1-5.6-1.6c-0.8-2.8-2.1-5.5-3.3-8.8c-4.9,6.5-7,14.3-12.3,19.9
		c-2.6,0.5-3.4-1.6-4.5-3.2c4.2-8.3,7.6-17,13.1-24.6c0.9-1.3,1.9-3,3.9-2.6c2,0.4,3,2,3.4,3.9c0.6,2.4,1.4,4.8,2.3,7.2
		c1.4,3.9,3.1,4.4,6.2,1.8c1.9-1.6,3.8-3.3,5.6-5c4-4.1,4.2-5.9,1.6-10.9c-3.3-6.6-4.9-13.8-7.3-20.8c-2.7-8.1-2.6-8.1-10.7-6.9
		c-1.2,0.2-2.3,0.3-3.5,0.2c-1.4-0.3-2.9-0.3-4.2-0.8c0.9,0.7,2.7,0.3,3.2,1.9c-1.7,2.9-4.1,1.4-6.2,0.8c-8.5-2.5-13.9-9-18.9-15.6
		c-2.3-3.1-4.4-3.3-7.9-3c-12.3,1-23.4,6.1-34.8,10.1c-1.4,0.4-2.9,0.5-4.4,0.6c-2.5,0.2-2.4,1.7-1.9,3.5
		c-1.5,5.6-1.2,11.5-2.5,17.2c-0.5,2.1,0.3,2.9,2.4,2.1c2.3-0.8,4.7-1.7,7.2-1.7c3.3,0,5,2.2,3.3,4.7c-5.5,7.8-8.4,16.9-13.2,25.1
		c-1.7,1.8-4.2,2.6-6,4.4c-1.1,1.1-2,0.8-2.8-0.5c5.2-9.2,10.5-18.4,15.8-27.7c-5-0.8-8.2,2.7-12.1,3.9c-1.5,0.5-2.8,3.4-4.5,1.1
		c-1.1-1.5-2-3.8-0.3-5.9c0.2-0.2,0-0.6,0-1.6c-4.9,1.6-9.2-1.2-13.7-2.1c-3.9-0.7-4.5-5.1-5.3-8.7c-2.7-11.5,1.5-22.2,3.4-33.2
		c1.9-10.5,5-20.6,9.7-30.3c0.3-0.7,0.7-1.8,0.4-2.3c-2.6-4.1,0.6-7.3,1.9-10.5c0.7-1.7,4.2-2.1,5.8-3.7c3.1-3.1,3.9,0.3,5.8,1.3
		c7.6,3.9,7.7,8.6,2.3,14.4c-0.6,0.7-1.2,2.1-0.9,2.7c3.2,6.6-1.5,11.8-3.7,17c-3.9,9.3-4.8,19.3-8.2,28.6c-0.7,1.9,0.1,3.6,2.6,3.7
		c1.5,0,2.8,2.8,4.4-1c1.3-3.1,5.7-4.5,9.1-5.9c5.6-2.3,11.3-4.3,17-6.3c1.4-0.5,2.8-0.7,3.7-1.9l-0.1,0.1c4.8-0.1,8.6-3,13.1-4.2
		c1.8-0.5,3.5-2,5.2,0.5c1,1.4,2.3,0.3,3.5-0.3c2-0.9,4.1-1,6.3-1c1.4,0,2.5,0.1,1.5,1.8c-1.6,2.7,1,4,1.8,5.7
		c0.5,0.9,2.1,0.4,2.9-0.6c1.4-1.8,4.3-2.8,3.2-6c-4.1-11.7-4.5-23.8-3.7-36c0.2-3.1,0.5-5.6-3.3-7.4c-4-1.9-4.8-8.3-2-12.6
		c4.5-7.1,9-14.1,17-18c0.3-0.1,0.7-0.4,0.9-0.3c5.3,2.3,8.4-2.4,12.4-4.1c0.9-0.4,1.8-1,2.7,0c1.2,1.3-0.2,1.5-0.9,2.1
		c-0.8,0.8-0.5,1.6,0.3,2c0.9,0.5,1.9,0.3,2.8-0.3c1.2-0.8,1.4-1.2-0.2-1.7c-0.5-0.1-0.7-1.1,0.1-1.6c1.2-0.9,8.7,0.9,9.7,2.3
		c0.6,0.8,1.3,1.7,2.4,1.4c7.3-1.4,12.3,2.5,17.6,6.5c2.8,2.1,5.4,3.3,3,7.4c-0.9,1.6,0.7,2.2,2.2,2.2c5.8,0.1,7.5,3.2,6.1,8.6
		c-0.4,1.6-0.6,3.3-0.4,4.9c0.3,2.3-1.4,2.4-2.8,2.9c5.7,5.1,5.3,9.6-2.5,11.9c-6.8,2-8.9,7.3-12.8,11.6c-7.5,8-13.5,17.5-22.9,23.7
		c-2.1,1.4-4.5,2.9-7,3.4c-3.5,0.7-3.2,3-2.2,4.9c0.8,1.7,0.2,5.8,4.9,3.3c6.6-3.6,7.5-3.5,10,3.6c3.2,9,6.6,18,10.2,26.8
		c0.7,1.8,0.4,4.5,3.7,3.9c0.4-0.1,1.5,0.8,1,1.9c-1.4,3.2,1.7,1.2,2.3,2c1.3,1.5,1.7,3.1,0.5,4.9c-3,2.3-6.6,3.6-9.1,6.7
		c-2,2.5-3,4.4,0.3,6.4c0.7,0.4,1.2,1.1,1.8,1.7c5.3,5.7,7.6,5.6,12.4-0.9c0.5-0.7,0.8-1.6,1.5-2c6-3.5,8.1-9.3,9.5-15.6
		c0.7-1,0.9-2.1,1.2-3.2c3.7-12.2,3.8-25,6.3-37.5c-1.2,0.2-1.2,0.9-1.5,1.4c-0.9,1.6-0.6,4.3-3.5,4c-1.2-0.1-1.4-1.8-1-5.2
		c0-0.7-1,0.4-0.4,0.1c0.2-0.1,0.4,0.1,0.3,0.4c-0.3,1.3-0.1,2.6,0,3.9c0.1,2.3-1.1,2.5-2.8,1.2c-0.7-1.2-0.6-2.7-1.1-4
		c0-0.1-0.3,0-0.3,0c1.1,1.7,0.7,4,1.7,5.8c-2.8,5.4-0.9,11.6-2.5,17.2c-1.2,4-1.6,8.5-6,10.8C523.1,234.7,522.4,234.1,522.9,232.7z
		"/>
	<path class="st57" d="M469.7,264.9c2.3-0.1,2.4,2.7,4.3,3.1c-0.1,4.1-2.8,7.3-4.3,10.8c-2.2,5.5-1.6,11.1-1.9,16.7
		c0,1,0.2,2-1.4,3.4c6.7-1.5,12.7-0.8,18.8-1c1.7,0,3.3-0.1,4.6,1.2c-0.7,1.3-1.9,1.9-3.3,2c0.1,2.3-0.5,3.7-3.1,2.3
		c-1.9-1-3.9-1-5.7,0.1c-8.4,5.1-17.7,3.5-26.3,2.3c-9.9-1.4-19.8-2.3-29.6-3.5c-7-0.8-14-1.9-21.3-1.1c-4.8,0.5-7.7,1.9-8.6,6.6
		c-1,0.3-2,0.7-3,1c-0.1-0.6-0.3-1.3-0.4-1.9c0.4-1.8,0.7-3.6-0.9-5.1c-7-1-8.2-2.6-6.7-9c3.2-13.4,9.7-25.4,16.7-37.1
		c3.2-0.2,4.8-3.7,8-4c1,3.5-1.1,6.1-2.5,8.8c-3,5.8-5.8,11.6-8.3,17.6c-1.2,2.9-0.6,4,2.7,4.5c13.2,1.7,26.4,2.7,39.7,3
		c6.1,0.1,12.2,0.2,18.4,0.5c2.9,0.1,4.3-0.5,2.7-3.6c-0.5-0.9-0.7-2-0.3-2.9C461,274,463.7,268.2,469.7,264.9z"/>
	<path class="st55" d="M522.9,232.7c0.4,0.8,0.8,1.6,1.1,2.4c0.4,1.5-0.4,2.5-1.3,3.5c-1.2,1-1,2.8-2.1,3.9
		c-1.2,0.7-2.4,1.6-3.8,0.3c1.4-1.3-1.4-2.5,0-3.8C519.4,237.5,521,235,522.9,232.7z"/>
	<path class="st10" d="M387.6,302c2.6,1.3,3.8,2.8,0.9,5.1C386.8,305.7,388.2,303.7,387.6,302z"/>
	<path class="st58" d="M430.9,187.8c-1.5,0-3.1,0-4.7,0C427.7,187.3,429.3,185.6,430.9,187.8C430.8,187.9,430.9,187.8,430.9,187.8z"
		/>
	<path class="st2" d="M391.9,308c0.1-0.5,0.3-1.1,0.2-1.5c-2.4-5.1,1.4-6.1,4.8-6.3c6.7-0.4,13.4-0.6,20.1-0.1
		c7.7,0.5,15.3,2.4,23,2.7c8,0.4,15.8,3,24,2.4c4.9-0.4,9.6-0.2,13.8-3.3c2.2-1.6,4.8-1.9,6.6,0.3c2.9,3.4,1.1-1.7,2.3-1.1
		c1.8,1.8,4.6,1.4,6.5,1.4c12.8,0.6,17,18.3,10.1,26.9c-3.9,4.9-8.4,9-13.1,12.9c-10.5,8.7-18.9,19.7-29.7,28
		c-10.9,8.5-18.1,19.9-27.2,29.8c-1.6,1.7-2.6,2.6-4.7,0.5c-1.2-1.2-3.1-1.7-4.7-2.5c-2-1-3.2-3.1-5.5-3.6c1.7-1.9,1.7-4.9,3.3-6.4
		c6.4-5.6,11.2-12.7,17.6-18.3c3.9-3.5,6.8-8.3,9.7-12.8c3.2-4.9,7.1-9.2,8.9-15.1c1.9-5.9,1.5-8.8-4.4-10.9
		c-7.3-2.7-14.7-4-22.5-4.1c-8.2-0.1-16.5,0.5-24.6-0.9c-5.6-1-9.9-4-11.6-9.8C393.9,313.4,392.8,310.7,391.9,308z"/>
	<path class="st2" d="M469.7,367c-2.5,17.8-3.8,34-5,50.3c-0.8,10.9-3.2,21.5-6.2,32.1c-1.7,5.9-2.5,12.1-3.3,18.2
		c-0.9,7.6-4.8,14.4-5.7,22c-0.1,1.1-1,2-2.1,1.5c-5.3-2.1-11-2.6-16.3-4.8c-3.2-1.3-3.2-3.5-2-5.6c3.4-6,4.5-12.9,6.5-19.3
		c3.4-10.9,7-21.8,8.8-32.9c1-6.4,2.6-13.2-0.1-20.4c-1.9-4.9-2.3-11.5,2.7-16.7C454.5,384,461.5,375.9,469.7,367z"/>
	<path class="st0" d="M426.7,332.5c9-1.5,17.6,0.2,26.1,1.7c2.3,0.4,3.8,2,2.2,4.6c-3.9,6.6-6.4,14.1-12.2,19.5
		c-2.2,2-5.7,1.6-6.5-1.2C433.9,348.6,430.1,340.7,426.7,332.5z"/>
	<path class="st37" d="M431.2,506.4c6.1,2.2,13.2,4.6,20.2,7.1c1.1,0.4,1.6,1.1,0.6,2.2c-0.2,0.2-0.2,0.6-0.3,0.9
		c-3.1,7.1-3.1,7-11.1,5c-4.1-1-8.3-1.6-12.5-2.3c-2.6-0.5-5.2-1.3-5.1-4.3C423.1,510.9,427.3,506.3,431.2,506.4z"/>
	<path class="st59" d="M422.7,434.3c0.1,3-5,8.1-7.5,7.9c-1.4-0.1-1.2-1.2-1.5-2.1c-2.4-7-5.1-13.9-7.4-21c-1.2-3.6,2.7-4.9,4.3-7.1
		c1.7-2.3,2.5,0.7,3.5,1.7c3,2.9,3.9,6.5,4.9,10.5C419.8,427.7,423.4,430.5,422.7,434.3z"/>
	<path class="st56" d="M439.1,504.3c-2.7-1.8-5.3-1.8-7.8-2.6c-1.8-0.6-2.8-1.6-2.5-3.6c0.3-2.1,1.8-2,3.3-1.9c0.3,0,0.7,0.1,1,0.1
		C440.7,496.5,440.7,496.5,439.1,504.3z"/>
	<path class="st24" d="M423.3,441.9c1.7-0.5,2.4,0.4,2.2,1.2c-0.5,3.4-2.8,5.3-6,6.1c-1.4,0.4-2.7-0.3-3.4-1.4
		C415.6,447.1,422.2,442,423.3,441.9z"/>
	<path class="st60" d="M413.8,405.5c2.5,1.9,4.3,3.3,6.1,4.6c1.8,1.4,0.6,2.8-0.2,3.8c-1.2,1.5-2.1-0.3-2.5-0.9
		C415.7,411.1,413.7,409.3,413.8,405.5z"/>
	<path class="st61" d="M457.5,523.5c0.5,1.9-0.5,1.9-1.6,1.9c-2,0-2.5-1.3-2.4-3c0.1-1.5,0.3-3.8,1.7-3.6
		C457.8,519.2,456.1,522.4,457.5,523.5z"/>
	<path class="st51" d="M414.6,402.9c2.7-1.3,3.1-3.8,5.5-3.6c0.2,0,0.8,0.9,0.6,1.1C419.7,402.1,418.5,403.6,414.6,402.9z"/>
	<path class="st62" d="M423.8,401.2c0.8,0,1.4,0.8,1.2,1.1c-0.3,0.6-1,1.1-1.7,1.4c-0.5,0.3-1.4,0.4-0.9-0.8
		C422.8,402.3,422.7,401.4,423.8,401.2z"/>
	<path class="st63" d="M415.7,329.3c2.1-0.4,3.3-0.7,4.5,0.2C418.8,330.3,417.5,330.4,415.7,329.3z"/>
	<path class="st2" d="M469.7,264.9c-3.2,4.3-6.6,8.4-9.6,12.9c-1.1,1.6-3.9,4.5,1,5.5c0.1,0-0.2,2.2-0.3,3.3c0,2-1.5,1.5-2.5,1.4
		c-16.1-1.3-32.3-0.6-48.5-2.3c-6-0.6-11.8-2.4-18.3-1.5c3.1-11.8,9.9-21.4,14-32.1c4.1-8.8,7-18.3,13.6-25.7
		c0.6-0.6,1.1-1.7,0.1-2.1c-1.1-0.4-1.9-1.7-3.6-1c-3.5,1.4-7,2.4-11.5,3.8c2.7-7.7,0.8-15.8,4.4-23c1-2.9,4.2-2.5,6.1-4.2
		c9-3.6,17.8-7.5,27.3-9.4c4.5-0.9,9.1-0.3,13.4-2.4c1.2-0.6,1.9,0.7,2.5,1.9c4.7,9.3,11.9,15.9,22,18.9c0.8,0.3,2.3,0.8,3-0.8
		c-0.7-1.2,0.3-1.5,1.1-2c1.3-0.1,2.7,0,4-0.2c8.4-1.6,8.1-1.5,11.2,6.5c3.4,8.6,4.4,18,10.1,25.7c1.6,2.1-1.4,4.4-2.6,6.1
		c-2.4,3.3-5.5,6.1-8.7,8.6c-2.6,2.1-5.4,2.1-6.3-1.8c-0.7-3-2.7-5.6-2.5-8.8c0.1-2-1.2-3.3-2.6-3.9c-2.6-1.2-1.3,1.9-2.3,2.5
		c-3.7,2.6-4.7,6.9-6.6,10.6C475.2,256,472.9,260.7,469.7,264.9z"/>
	<path class="st2" d="M486.4,188.9c-5.8-0.8-10.6-4.7-13.3-9.9c-6.2-11.8-6.4-24.3-1.8-36.9c0.5-1.2,1.7-2.1,0.8-4
		c-1.1-2.4,0.9-3.7,2.9-4.1c2.3-0.4,4.5-0.7,6.4-2.2c0.8-0.7,0.9-0.8,1.5,0.3c2.3,3.7,4.8,3.1,7.7,0.5c1.5-1.4,3.6-3.2,5,0.4
		c0.1,0.3,0.9,0.7,1.2,0.6c5-1.2,7.2,1.1,8.3,5.7c0.4,1.8,2.7,1.9,3.8,1.2c3.7-2.3,3.4,0.4,4.1,2.7c1,3.2-0.1,7.9,5.7,8.1
		c0.9,0,2.3,1.3,0.7,3.3c-5.3,7-10.1,14.4-15.5,21.3c-3.7,4.8-8.2,8.8-13.2,12.2C489.6,189,488.3,188.7,486.4,188.9z"/>
	<path class="st64" d="M523.2,145.7c-4.8-1.6-6.6-5.8-8.8-9.8c-0.2-0.4-0.8-1.1-1-1c-4.7,1.6-5.5-2.6-7.5-4.9
		c-0.8-1-1.9-0.2-2.6-0.4c-2.1-0.7-5,0.4-5.7-3.6c-0.5-3-2.8-0.5-4.1,0.1c-2.5,1.1-4.7,4.1-6.8-0.6c-0.7-1.6-2,0.1-2.7,0.6
		c-2.8,2.1-5.2,5-8.3,0.2c-1.1-1.7-3.2,0.3-3.7,0.9c-1.8,2.5-3.7,5.3-4.2,8.2c-0.4,2.5-2,2-3.1,2.8c-0.9,0.6-1.6,0.5-1.8-0.5
		c-0.3-1.4,0.6-1.8,1.4-2.7c1.9-2.2-0.8-5.1-1.2-8.4c1.7,0.9,2.5,3.2,4.2,2c1.3-1,0.5-2.4,0-3.6c-1-2.3-0.5-4.1,2.2-4.1
		c2.5,0,3.7-1.6,4.6-3.2c1.4-2.6,4.2-2.9,6-4.2c6-4.6,13.4,0.8,19-3.7c0.5-0.4,1.4-1.1,2,0c2.2,3.8,5.4,3.6,8.9,2.3
		c2.6-1,3.3,1.1,3.9,2.5c1.3,3.1,3.3,4.7,6.8,4.3c3.5-0.4,3.4,1.2,2.2,3.8c-2.2,4.5-0.2,7.1,4.3,8.2c4.1,1,5.5,2.9,2.6,6.6
		c-1.6,1.9-1.4,4.3-0.5,6.1c1.8,3.9-0.3,4.3-3.2,4.4c-0.4,0.4-0.8,0.4-1.3,0.2C523.8,147.6,523.4,146.7,523.2,145.7z"/>
	<path class="st0" d="M393.1,146.3c4,0.6-0.5,5.8,3.6,6.5c3.2,0.6,5.3-1.4,8.2-3c-0.2,7-3.2,12.8-5,18.9c-2.8,9.4-7,18.3-8.2,28.1
		c-0.8,6.7,0.5,9.4,6.9,10.9c5,1.2,4.4,4.4,3.9,7.6c-0.4,3.1-1.1,5.3-5.6,6.1s-8.6,0-12.6-0.8c-3.8-0.7-4-5.4-4.5-8.7
		c-1.1-6.9,0.2-13.8,2.1-20.4c1.7-6,1.8-12.3,3.7-18.2c0.7-2.1,2.1-3.6,2.9-5.5c2.3-5.5,2.6-11.6,5.1-17.1
		C394.3,149.1,391.9,148.1,393.1,146.3z"/>
	<path class="st0" d="M516.9,242.9c1.3-0.3,2.7-0.6,4-1c0.7-0.8,1.6-1.1,2.6-1c1.4-0.1,2.7-0.7,3.8-0.4c-0.1,0.1-0.6,0-1,0
		c-0.8,0-1.6,0.2-2.4,0.2c-1.3-0.4-2.3-1-1.9-2.6c0.7-1,1.3-1.9,2-2.9c3.8-4.4,5-9.9,5.8-15.3c0.6-4.2-1.5-8.9,2-12.7
		c-0.2-1-0.9-2.2,1-2.2c1.5,1.9,2.5,1.1,1.9-0.7c-0.9-2.4-0.1-4,1.1-6.3c0.2,2.6,0.3,4.8,0.4,7.7c2.9-3.2,2.3-7.4,6.3-10.5
		c-1.3,15.2-2.5,29.2-6.7,42.8c-0.9,0.7-0.7,1.8-0.9,2.8c-1.5,4-1.5,8.8-5,11.8c-3.4,2.9-6.2,6.2-9,9.6c-2.3,2.8-5.8,3.2-8.5,0.5
		c-2.6-2.5-4.9-5.3-7.8-7.5c-1.1-0.8-0.9-1.4,0-2.3c2.6-2.5,5.1-5.1,7.4-7.9C513.5,243.4,516.6,246.4,516.9,242.9z"/>
	<path class="st65" d="M470.9,186.8c2.4,1.6,4.4,2.9,6.5,4.2c1.5,0.9,4.3,2.4,4.1,2.7c-0.9,2.5-1.8,4.8-1.9,7.5
		c0,0.8-1.3,0.8-1.7,0.5c-3.2-2.2-7.4-2.4-10.6-4.8c-2.5-2-3.9-3.4-0.4-5.8C468.6,190,469.7,188.2,470.9,186.8z"/>
	<path class="st66" d="M407.1,141.1c-1.9,4.1-4.7,7.2-8.4,9.1c-0.3-0.4-0.6-0.7-0.9-1.1C400.9,146.5,404,143.8,407.1,141.1z"/>
	<path class="st67" d="M414.7,199.7c-1.3,2.5-4.2,2.6-6.1,4.2c-2.8-1.9-1-3.3,0.8-3.9C411,199.4,412.9,199.8,414.7,199.7z"/>
	<path class="st68" d="M394.8,140.8c0.7,0,1.2,0,1.2,0.1c0.3,1.8,3.1,2.5,2.2,4.8c-0.2,0.4-0.7,1.3-1.4,0.7
		C395.3,144.9,395,142.9,394.8,140.8z"/>
	<path class="st69" d="M532.8,204.9c-0.3,0.7-0.7,1.5-1,2.2c-1.6-2-0.7-4.3-0.2-6.6C532,202,532.4,203.4,532.8,204.9z"/>
	<path class="st60" d="M399,223.1c-2.7,0.9-5.3,1.2-9.1,0C393.8,223.1,396.4,223.1,399,223.1z"/>
	<path class="st70" d="M398.7,138.8c2.2,0.9,2.6,2.5,2.8,4.2c0,0.1-0.6,0.6-0.8,0.5C399.2,142.7,398.7,141.3,398.7,138.8z"/>
	<path class="st71" d="M486.1,128.9c1.1,0.7,2.7,0.9,2.5,2.5c-0.1,0.6-1.1,1.6-1.9,1.1C485.2,131.6,486,130.2,486.1,128.9z"/>
	<path class="st72" d="M483.9,206c-0.4,0.6-0.7,1.3-1.1,2c-1.5-0.5-2.9-1-5.9-2C480.2,206,482.1,206,483.9,206z"/>
	<path class="st73" d="M523.2,145.7c0.6,0.7,1.2,1.3,1.9,2c0.3,0.4,0.2,0.8-0.2,1.1C522.6,148.7,521.3,148.1,523.2,145.7z"/>
	<path class="st74" d="M405,141.2c-2.9-1-3.5-2.3-3.1-4.4C403.7,137.6,403.8,139.2,405,141.2z"/>
	<path class="st75" d="M524.9,148.8c0.1-0.4,0.1-0.8,0.2-1.1c0.3,0,0.6,0,1,0.1c0.3,2.1,2.4,1.6,3.8,2.6
		C527.6,151.2,525.9,151,524.9,148.8z"/>
	<path class="st21" d="M515.7,145.7c2.6,0.1,3,1.7,4.7,2.7C517.7,148.9,517.1,147.3,515.7,145.7z"/>
	<path class="st76" d="M532.7,129.4c-1.4-0.3-2.9-0.6-5.3-1.2C530,127.6,531.5,127.4,532.7,129.4z"/>
	<path class="st77" d="M534.9,240.7c-2.2-1.8-1.3-2.5,0.9-2.8C535.7,238.9,536.6,240.2,534.9,240.7z"/>
	<path class="st78" d="M522,238c-0.1,1.4,1.2,1.4,1.9,1.8c0.6,0.7,0.5,1.3-0.1,1.9c-1,0.1-2,0.1-2.9,0.2
		C520.2,240.3,519.9,238.8,522,238z"/>
	<path class="st5" d="M495,157.9c-0.6-3,0.6-5.6,2.3-7.8c0.9-1.2,1.7-3,4-1.9c1.7,0.9,3.6,1.1,3.8,3.8c0.4,4.1-2.3,9.7-6.1,10.8
		C494.5,164,494.5,161,495,157.9z"/>
	<path class="st44" d="M490.8,147.9c0.6,4.3-2.5,6.7-4.4,9.7c-0.7,1.1-1.9,1.7-2.9,0.7c-1.1-1-2.9-1.6-2.8-3.7
		c0.1-3.7,1.3-7.1,2.6-10.4c0.2-0.6,1.3-3.3,3.6-2.1C489.5,143.3,491.5,144.8,490.8,147.9z"/>
	<path class="st79" d="M479.6,170.4c5.5-1.5,10.1,1,13.9-2.8c-1.5,2.8,0.6,5,0.5,7.5c-0.2,3.4-0.9,6.5-4.9,6.6
		c-3.9,0.1-6.1-2.1-6.3-6.1C482.7,173.8,482.9,171.8,479.6,170.4z"/>
	<path class="st80" d="M488,161.8c1.2,0,2.5,0,4,0C490.7,164.4,489.3,162.7,488,161.8z"/>
	<path class="st81" d="M523.8,241.7c0-0.6,0.1-1.3,0.1-1.9c1.4,0,2.8,0,4.2,0c0,0.2,0.1,0.4,0.1,0.7
		C526.8,240.9,525.3,241.3,523.8,241.7z"/>
	<path class="st82" d="M502.1,156.7c0.4-2.8-5.4-0.4-3.4-4.4c0.4-0.9,0.5-1.9,1.9-1.3C503.5,152,503.2,154.1,502.1,156.7z"/>
	<path class="st83" d="M487.9,145.7c1,0.3,0.9,1.2,0.9,2c0.1,1.5,0.3,3.1-1.1,4.1c-1.1,0.7-0.8-0.8-1.5-1.1
		c-1.8-0.7-3.3-1.9-1.5-4.1C485.8,146.3,486.4,144.2,487.9,145.7z"/>
	<path class="st84" d="M487.9,145.7c-1.3-0.5-1.8,1.8-3.1,0.9c-0.1-1.7,0.8-2.8,2.4-2.8C488.2,143.8,487.7,145.1,487.9,145.7z"/>
	<path class="st21" d="M484.9,174.5c-0.5-2.3,0.7-2.8,3-2.8c2.8-0.1,4.1,1,3.9,3.7c-0.2,2-0.2,4.9-3,4.7
		C486.1,179.8,484.6,177.6,484.9,174.5z"/>
</g>
</svg>
