<?xml version="1.0" encoding="utf-8"?>
<!-- Generator: Adobe Illustrator 23.0.3, SVG Export Plug-In . SVG Version: 6.00 Build 0)  -->
<svg version="1.1" id="Capa_1" xmlns="http://www.w3.org/2000/svg" xmlns:xlink="http://www.w3.org/1999/xlink" x="0px" y="0px"
	 viewBox="0 0 842 493" style="enable-background:new 0 0 842 493;" xml:space="preserve">
<style type="text/css">
	.st0{clip-path:url(#SVGID_2_);}
	.st1{fill:#FFFFFF;}
	.st2{fill:none;}
</style>
<g>
	<path class="st1" d="M657.53,494.83c-50.33,0-100.65,0-150.98,0c0.36-1.37,0.65-2.77,1.1-4.12c0.81-2.41,1.93-4.73,2.56-7.19
		c1.31-5.18,2.49-10.4,3.54-15.64c1.05-5.24,1.9-10.52,2.79-15.79c0.87-5.16,1.71-10.34,2.51-15.51c0.7-4.56,1.55-9.12,1.94-13.71
		c0.58-6.76,0.74-13.56,1.23-20.33c0.12-1.62,0.81-3.2,1.36-5.24c-1.04-1.8-0.72-4.26-0.54-6.74c0.53-7.59,0.95-15.19,1.46-22.78
		c0.48-7.08,0.82-14.18,1.6-21.22c0.84-7.55,3.06-14.94,2.81-22.62c-0.16-5.03-0.35-10.07-0.79-15.09
		c-0.31-3.56-1.05-7.09-1.59-10.63c4.72-1.89,8.52-4.59,11.64-8.53c2.55-3.21,4.4-6.73,5.97-10.39c1.73-4.05,3.18-8.24,4.45-12.46
		c2.05-6.83,0.88-13.88,1.01-20.84c0.01-0.67-0.45-1.34-0.65-2.02c-0.47-1.61-0.92-3.23-1.25-4.39c5.59-1.72,11.24-0.32,16.08-2.76
		c1.64,2.53,3.05,5.02,4.77,7.28c3.96,5.2,9.21,8.45,15.7,9.51c7.38,1.21,15.35-2.64,18.4-9.96c0.54-1.29,1.29-2.5,1.97-3.79
		c2.15,1.54,4.12,2.81,5.93,4.28c1.78,1.45,3.47,2.14,5.6-0.04c0.63,1.69,1.15,3,1.61,4.32c0.4,1.16,0.65,2.38,1.11,3.51
		c2.13,5.23,4.28,10.45,6.49,15.64c1.33,3.12,2.56,6.3,4.23,9.23c2.17,3.83,4.66,7.49,7.16,11.12c1.62,2.35,3.1,4.49,2.73,7.68
		c-0.31,2.71,0.36,5.52,0.53,8.29c0.49,7.59,0.92,15.19,1.43,22.78c0.12,1.82,0.49,3.63,0.78,5.71c-1.78,0.91-3.47,1.85-5.22,2.68
		c-8.99,4.29-18.19,8.05-27.56,11.42c-4.06,1.46-8.31,2.05-12.58,2.75c-5.2,0.86-10.19,3.09-15.2,4.95
		c-1.58,0.58-2.86,1.92-4.35,2.79c-0.84,0.48-1.84,1-2.76,0.97c-3.66-0.09-6.6,2.04-9.91,3.02c-0.37,0.11-0.79,0.43-0.94,0.76
		c-0.34,0.78-0.53,1.63-0.79,2.45c0.72,0.2,1.44,0.42,2.17,0.6c0.37,0.09,0.76,0.12,1.14,0.17c-0.34,3.56-0.34,3.56,1.49,5.17
		c-0.21,0.86-0.42,1.71-0.7,2.87c2.67,0.78,5.32-0.27,8.15,0.45c-0.62,0.41-0.86,0.57-1.1,0.72c-1.95,1.19-2,1.97-0.26,3.29
		c0.45,0.34,0.92,0.75,1.16,1.24c0.64,1.29,1.66,1.74,3.02,1.67c1.23-0.07,2.47-0.02,3.69-0.16c2.45-0.27,4.89-0.7,7.35-0.91
		c0.96-0.08,2.4-0.14,2.84,0.41c1.33,1.66,2.78,1.31,4.44,0.99c5.15-0.99,10.15-2.46,15.18-3.94c6.32-1.86,12.43-4.18,18.53-6.6
		c2.17-0.86,4.44-1.48,7.01-2.32c0.17,4.62,0.36,8.8,0.47,12.99c0.18,6.37,0.4,12.74,0.43,19.11c0.04,7.48,1.23,14.94,0.34,22.44
		c-0.13,1.11,0.07,2.25,0.14,3.38c0.1,1.53,0.21,3.07,0.35,4.6c0.16,1.72,0.28,3.45,0.56,5.15c0.28,1.72,0.89,3.38,1.1,5.1
		c0.91,7.5,3.18,14.6,6.29,21.45c1.21,2.67,2.75,5.22,3.66,7.98c1.19,3.6,1.99,7.34,2.82,11.05c0.81,3.61,1.46,7.24,3.38,10.51
		C657.12,492.55,657.23,493.75,657.53,494.83z"/>
	<path d="M657.53,494.83c-0.31-1.08-0.41-2.28-0.95-3.21c-1.92-3.27-2.57-6.9-3.38-10.51c-0.83-3.71-1.62-7.45-2.82-11.05
		c-0.91-2.76-2.45-5.32-3.66-7.98c-3.12-6.85-5.38-13.94-6.29-21.45c-0.21-1.72-0.82-3.39-1.1-5.1c-0.28-1.7-0.4-3.43-0.56-5.15
		c-0.14-1.53-0.25-3.07-0.35-4.6c-0.07-1.13-0.27-2.27-0.14-3.38c0.88-7.5-0.3-14.96-0.34-22.44c-0.03-6.37-0.26-12.74-0.43-19.11
		c-0.12-4.19-0.3-8.37-0.47-12.99c-2.57,0.84-4.84,1.46-7.01,2.32c-6.1,2.42-12.21,4.75-18.53,6.6c-5.03,1.48-10.03,2.95-15.18,3.94
		c-1.66,0.32-3.11,0.68-4.44-0.99c-0.44-0.55-1.88-0.5-2.84-0.41c-2.46,0.22-4.9,0.64-7.35,0.91c-1.22,0.13-2.46,0.09-3.69,0.16
		c-1.36,0.07-2.38-0.37-3.02-1.67c-0.24-0.49-0.72-0.9-1.16-1.24c-1.74-1.32-1.7-2.1,0.26-3.29c0.24-0.15,0.48-0.31,1.1-0.72
		c-2.83-0.71-5.48,0.34-8.15-0.45c0.28-1.16,0.49-2.01,0.7-2.87c-1.83-1.61-1.83-1.61-1.49-5.17c-0.38-0.05-0.77-0.08-1.14-0.17
		c-0.73-0.18-1.45-0.4-2.17-0.6c0.25-0.82,0.44-1.67,0.79-2.45c0.15-0.33,0.58-0.66,0.94-0.76c3.31-0.98,6.24-3.11,9.91-3.02
		c0.92,0.02,1.92-0.49,2.76-0.97c1.49-0.86,2.77-2.2,4.35-2.79c5-1.85,10-4.09,15.2-4.95c4.27-0.7,8.51-1.29,12.58-2.75
		c9.37-3.37,18.57-7.13,27.56-11.42c1.75-0.83,3.44-1.76,5.22-2.68c-0.29-2.08-0.65-3.89-0.78-5.71
		c-0.51-7.59-0.94-15.19-1.43-22.78c-0.18-2.77-0.84-5.58-0.53-8.29c0.36-3.19-1.12-5.33-2.73-7.68c-2.5-3.63-4.98-7.29-7.16-11.12
		c-1.67-2.93-2.9-6.12-4.23-9.23c-2.21-5.19-4.36-10.41-6.49-15.64c-0.46-1.13-0.71-2.35-1.11-3.51c-0.46-1.33-0.98-2.64-1.61-4.32
		c-2.13,2.17-3.82,1.49-5.6,0.04c-1.8-1.48-3.78-2.74-5.93-4.28c-0.68,1.29-1.43,2.49-1.97,3.79c-3.05,7.33-11.01,11.17-18.4,9.96
		c-6.49-1.06-11.74-4.31-15.7-9.51c-1.72-2.26-3.13-4.76-4.77-7.28c-4.84,2.44-10.49,1.04-16.08,2.76c0.33,1.16,0.77,2.78,1.25,4.39
		c0.2,0.68,0.66,1.35,0.65,2.02c-0.12,6.96,1.05,14.01-1.01,20.84c-1.27,4.22-2.72,8.41-4.45,12.46c-1.57,3.66-3.42,7.18-5.97,10.39
		c-3.12,3.94-6.92,6.64-11.64,8.53c0.54,3.54,1.28,7.07,1.59,10.63c0.44,5.02,0.63,10.06,0.79,15.09
		c0.25,7.68-1.98,15.07-2.81,22.62c-0.78,7.05-1.12,14.14-1.6,21.22c-0.51,7.59-0.93,15.19-1.46,22.78
		c-0.17,2.48-0.5,4.93,0.54,6.74c-0.55,2.04-1.24,3.62-1.36,5.24c-0.49,6.77-0.65,13.57-1.23,20.33c-0.39,4.59-1.23,9.15-1.94,13.71
		c-0.8,5.18-1.64,10.35-2.51,15.51c-0.89,5.27-1.74,10.55-2.79,15.79c-1.05,5.24-2.22,10.46-3.54,15.64
		c-0.62,2.45-1.74,4.78-2.56,7.19c-0.45,1.34-0.74,2.74-1.1,4.12c-0.82,0-1.65,0-2.48,0c0.19-1.31,0.22-2.67,0.58-3.94
		c2.48-8.6,4.88-17.2,6-26.13c0.85-6.73,2.12-13.4,3.32-20.08c0.55-3.03,1.52-5.98,2.07-9.01c0.68-3.73,1.3-7.5,1.61-11.28
		c0.41-5.01,0.37-10.06,0.73-15.08c0.66-9.33,1.54-18.65,2.2-27.98c0.57-8.1,1.1-16.21,1.39-24.32c0.2-5.59,1.19-11.03,2.23-16.48
		c1.62-8.43,2.03-16.97,1.4-25.48c-0.4-5.38-0.8-10.85-2.35-16.11c-0.56-1.91-0.21-2.49,1.91-3.32c1.39-0.54,1.77-1.52,1.72-2.9
		c-0.16-4.87-0.94-9.64-2.73-14.16c-1.32-3.32-3.07-6.48-4.53-9.75c-0.8-1.8-1.19-3.81-2.15-5.5c-1.41-2.47-3-4.9-4.84-7.06
		c-2.58-3.03-5.87-5.52-8.11-8.76c-2.12-3.07-4.63-5.74-6.97-8.59c-4.47-5.46-8.82-11.02-13.37-16.42
		c-3.18-3.78-6.58-7.37-9.93-11.01c-4.29-4.65-7.55-10.02-10.56-15.5c-3.12-5.66-5.6-11.66-8.59-17.4
		c-3.43-6.58-6.13-13.44-8.43-20.47c-1.36-4.18-2.36-8.47-3.73-12.65c-0.56-1.71-1.6-3.3-2.58-4.84c-1.87-2.94-3.94-5.75-5.75-8.72
		c-0.98-1.62-1.58-3.48-2.47-5.5c1.25-0.14,2.1-0.24,3.16-0.36c-1.03-2.86-3.39-5.27-2.64-8.93c1.32,0.44,2.5,0.83,3.83,1.27
		c0-0.53,0.13-0.97-0.02-1.28c-1.16-2.46-1.12-2.57,1.61-3.15c0-1.02-0.06-2.04,0.02-3.05c0.1-1.44,0.88-1.88,2.04-1.12
		c0.85,0.56,1.58,1.32,2.44,2.05c1.32-0.45,2.45-1.95,4.16-1.05c1.32,0.69,2.62,1.23,3.7,2.48c1.71,2,3.26,4.02,3.84,6.59
		c0.9,3.98,3.26,7.03,5.97,9.9c2.82,2.98,5.74,5.88,7.18,9.87c0.1,0.28,0.46,0.49,0.48,0.76c0.58,6.05,4,10.87,6.96,15.86
		c3.46,5.83,7.19,11.5,10.64,17.34c5.48,9.3,11.49,18.23,18.28,26.63c2.97,3.68,5.88,7.41,8.8,11.12
		c5.1,6.46,11.23,11.75,18.26,15.98c2.81,1.69,5.71,3.22,8.6,4.78c0.62,0.33,1.33,0.6,2.02,0.68c5.98,0.66,11.89,2.54,18.02,1.03
		c1.14-0.28,2.41-0.04,3.89-0.04c0.01-0.28-0.07-0.86,0.09-1.37c0.44-1.48,1.3-1.8,2.77-1.14c2.31,1.04,4.77,0.12,5.67-2.16
		c1.6-4.04,2.75-8.15,2.75-12.58c0.01-4.21,0.37-8.42,0.53-12.63c0.11-2.8,0.08-2.81-2.59-3.56c-2.28-0.64-4.61-1.11-6.83-1.91
		c-1.81-0.65-3.5-1.64-5.21-2.54c-4.65-2.45-8.29-6.24-12.36-9.46c-2.48-1.97-4.69-4.3-6.86-6.63c-2.76-2.96-4.66-6.44-5.51-10.44
		c-0.1-0.48-0.45-0.9-0.63-1.37c-3.02-7.85-4.04-16.11-5.04-24.37c-0.53-4.39-0.91-8.79-1.23-13.2c-0.09-1.19,0.26-2.44,0.52-3.63
		c0.19-0.89,0.73-1.73,0.83-2.62c0.15-1.31,0.04-2.65,0.04-4.38c-2.07-0.18-4.17-0.47-6.27-0.52c-2.24-0.05-4.51,0.26-6.21-1.73
		c-0.24-0.27-0.75-0.46-1.13-0.44c-2.56,0.12-4.04-1.85-5.88-3.05c-1.78-1.15-1.84-3.02-0.18-4.36c1.44-1.15,3.03-2.15,4.64-3.04
		c3.68-2.04,7.42-3.99,11.19-6c-1.2-4.16,2.15-7.39,2.2-11.51c-0.96-0.05-1.89-0.09-2.92-0.14c0.32-2.39,2.35-1.83,3.82-2.61
		c0.21-1.35,0.26-2.9,0.69-4.34c1.48-4.91,2.79-9.91,5.93-14.13c0.31-0.41,0.63-0.84,0.8-1.32c2.02-5.46,6.39-9.06,10.6-12.57
		c3.35-2.79,7.27-5.07,11.88-5.53c0.6-0.06,1.19-0.24,1.77-0.42c0.17-0.05,0.29-0.28,0.74-0.75c-0.72-0.94-1.37-2.08-2.29-2.94
		c-2.32-2.18-3.47-4.78-3.4-7.95c0.1-4.76,0.39-9.45,3.27-13.57c0.76-1.08,1.17-2.39,1.78-3.58c1-1.95,2.19-3.74,4.21-4.79
		c6.89-3.57,14.1-6.41,21.81-7.28c6.01-0.68,12.12-0.63,18.04,1.24c1.06,0.33,2.22,0.35,3.59,0.55c0.11,1.79,1.29,2.94,2.9,3.71
		c1.79,0.85,2.61,2.4,3.49,4.09c1.67,3.18,3.54,6.26,5.54,9.25c2.67,3.99,1.86,8.27,1.45,12.56c-2.63,3.09-3.43,7.5-7.12,9.84
		c-0.61,0.39-1.2,0.81-1.72,1.31c-0.57,0.55-1.04,1.21-1.84,2.17c2.5,1.95,4.61,4.19,7.19,5.46c4.32,2.13,7.38,5.61,10.55,8.91
		c3.69,3.83,7.18,7.94,10.15,12.34c2.62,3.89,4.24,8.4,5.36,13.02c0.94,3.89,1.91,7.78,2.8,11.69c0.41,1.8,1.07,3.66,0.93,5.44
		c-0.19,2.43,0.94,3.86,2.6,5.17c1.94,1.52,3.86,3.06,5.88,4.46c0.88,0.61,2,0.87,3.37,1.44c1.22,1.84-0.66,3-1.84,4.48
		c1.22,1.38,2.02,2.88,0.69,4.88c-0.9-0.28-1.83-0.57-2.95-0.91c-0.96,2.01-3.01,2-4.91,2.22c-2.03,0.23-4.13,0.05-5.89,1.46
		c-0.31,0.25-0.97,0.09-1.47,0.07c-1.01-0.05-2.02-0.13-3.47-0.24c-0.6,3.67-1.5,7.16-1.68,10.69c-0.31,6-1.52,11.81-2.71,17.66
		c-0.82,4.03-1.5,8.06-3.4,11.8c-2.47,4.85-4.54,9.94-7.94,14.23c-2.55,3.21-5.18,6.47-8.32,9.06c-2.29,1.89-5.46,2.72-8.26,4
		c-0.46,0.21-1.09,0.12-1.47,0.41c-3.07,2.3-6.73,2.93-10.61,3.63c-1.96,10.93-0.01,20.97,5.56,30.36c1.25-0.21,2.2-0.65,2.94-0.42
		c0.66,0.2,1.14,1.1,1.61,1.76c2.49,3.41,5.65,5.2,10.01,4.42c0.54-0.1,1.16,0.25,1.74,0.36c0.79,0.15,1.58,0.27,2.84,0.48
		c-0.48-0.79-0.7-1.16-1.23-2.03c1.44,0.13,2.6,0.12,3.69,0.37c1.8,0.42,3.59,0.92,5.33,1.55c7.51,2.76,14.98,5.57,20.52,11.81
		c3.14,3.53,4.69,7.94,7.09,11.87c1.56,2.55,1.47,5.46,2.28,8.16c1.59,5.3,3.21,10.59,4.6,15.94c1.18,4.57,2.2,9.19,3.03,13.84
		c1.38,7.79,2.78,15.59,3.71,23.44c0.45,3.81-0.04,7.75-0.36,11.62c-0.24,2.84-0.91,5.65-1.36,8.47c-0.3,1.85-1.37,3.18-2.77,4.3
		c-3.61,2.89-7.22,5.79-10.84,8.67c-4.47,3.56-9.56,6.01-14.87,8.26c0,0.94-0.06,1.86,0.01,2.76c0.49,6.46,1.04,12.92,1.51,19.39
		c0.06,0.89-0.25,1.81-0.29,2.71c-0.41,8.44-0.59,16.87,1.07,25.22c0.26,1.3,0.94,2.51,1.2,3.81c0.24,1.22,0.97,2.5-0.27,3.75
		c-0.35,0.35-0.15,1.37-0.02,2.05c1.87,9.99,3.72,20,6.52,29.78c1.93,6.71,3.86,13.42,5.87,20.11c1.89,6.28,3.88,12.52,5.82,18.78
		C660.01,494.83,658.77,494.83,657.53,494.83z M570.15,30.39c-0.1,0.94-0.2,1.88-0.33,3.04c1.35-0.42,2.26-0.7,3.56-1.1
		c-0.88,1.4-1.52,2.41-2.04,3.23c1.48,2.91,3.87,3.75,6.66,4.03c1.61,0.17,3.2,0.61,5,0.97c-2.11,1.21-4.38-0.65-6.29,0.86
		c1.52,1.55,4.76,3.03,7.31,3.82c5.87,1.81,12.04,1.15,17.98,2.35c1.45,0.29,3.3,0.07,4.04-1.99c0.25-0.7,1.15-1.14,1.67-1.76
		c0.84-1.02,1.91-1.97,2.37-3.16c1.73-4.49,3.27-9.06,4.85-13.62c0.77-2.22,0.08-4.05-1.63-5.54c-1.71-1.48-3.43-2.96-5.22-4.34
		c-0.51-0.4-1.44-0.84-1.9-0.63c-1.57,0.7-2.46-0.35-3.61-0.94c-1.24-0.65-2.57-1.4-3.91-1.53c-2.96-0.29-5.95-0.19-8.92-0.3
		c-0.78-0.03-1.55-0.2-2.22-0.3c-0.73,0.49-1.52,1.47-2.17,1.38c-1.9-0.25-3.05,0.99-4.46,1.73l0.02,0.01
		c-5.33-0.32-9.35,2.62-13.48,5.34c-2.58,1.7-3.93,4.15-4.6,7.04c-1.03,4.41,1.52,7.27,6.21,6.83c0-1.4-0.08-2.84,0.05-4.25
		C569.13,31.13,569.79,30.77,570.15,30.39C570.16,30.39,570.15,30.39,570.15,30.39z M531.42,231.18c-0.48-0.1-1.07-0.06-1.44-0.32
		c-2.73-1.96-5.55-3.83-8.09-6.01c-6.01-5.17-11.71-10.64-16.37-17.14c-4.97-6.93-10.29-13.61-15.11-20.65
		c-4.47-6.53-8.51-13.36-12.65-20.11c-3-4.89-5.91-9.85-8.73-14.84c-1.78-3.15-3.31-6.43-5.01-9.76c-2,3.14-5.07,4.35-8.51,5.01
		c-1.08,0.21-2.12,0.74-3.11,1.25c-1.4,0.72-2.73,1.56-4.33,2.49c1.47,4.57,2.75,9.47,4.63,14.12c2.46,6.09,5.25,12.05,8.17,17.94
		c2.78,5.6,5.72,11.14,8.94,16.5c4.09,6.8,9.01,13.02,14.52,18.74c3.25,3.39,6.52,6.71,8.94,10.81c1.1,1.87,2.86,3.37,4.39,5.12
		c1.29-1.01,2.22-1.75,3.34-2.62c0.45,2.26-1.47,2.85-2.7,4.15c4.29,4.95,8.44,9.76,12.62,14.56c2.16,2.48,4.48,4.84,6.49,7.44
		c3.87,5.01,6.36,10.8,8.64,16.63c1.87,4.77,3.92,9.53,4.08,14.8c0.02,0.74,0.46,1.47,0.88,2.73c1.75-1.74,3.44-2.99,4.57-4.63
		c2.1-3.04,4.01-6.24,5.76-9.5c3.8-7.05,5.49-14.72,5.12-22.62c-0.3-6.33-1.58-12.61-2.44-18.96c-0.58-0.23-1.03-0.48-1.51-0.59
		c-2.5-0.59-5.01-1.1-7.5-1.72c-1.25-0.31-2.72-0.5-2.68-2.35C532.04,231.5,531.73,231.34,531.42,231.18z M536.93,83.15
		c3.78-2.66,7.38-4.52,11.52-5.2c-1.91,3.12-6.14,3.15-8.33,6.42c0.75-0.13,1.16-0.15,1.53-0.29c4.15-1.5,8.3-3.01,12.44-4.52
		c0.98-0.36,2.06-0.86,2.83,0.17c0.81,1.08-0.19,1.9-0.76,2.71c-0.29,0.41-0.73,0.72-1.12,1.06c-2.87,2.5-5.66,5.09-8.63,7.45
		c-5.07,4.02-9.66,8.69-15.66,11.48c-0.81,0.38-1.37,1.46-1.86,2.33c-1.32,2.34-1.92,2.48-4.21,0.62c-1.65,1.13-3.95,1.31-5.32,3.38
		c6.77,0.4,13.32-2.22,19.83-0.27c0.04,1.83-0.96,1.56-1.9,1.62c-4.1,0.25-8.19,0.56-12.29,0.9c-0.6,0.05-1.19,0.36-2.42,0.76
		c4.54,0.85,8.4,1.4,12.17,2.3c4.89,1.17,9.39,0.37,13.7-2.01c1.25-0.69,2.45-1.51,3.6-2.36c1.66-1.22,3.17-2.65,4.9-3.76
		c6.72-4.35,13.59-8.49,18.53-15.04c2.1-2.79,4.4-5.42,6.54-8.18c1.51-1.95,2.88-4.01,4.39-5.96c0.27-0.35,0.94-0.38,1.46-0.58
		c0.43,2.2,0.08,3.85-1.53,5.17c-0.53,0.44-0.76,1.22-1.2,1.79c-4.42,5.66-8.8,11.34-13.3,16.94c-1.73,2.15-3.73,4.08-5.72,6.24
		c3.42,2.05,4.75,5.42,5.18,9.03c0.35,2.93,0.36,6.01-0.13,8.92c-0.67,3.98-1.93,7.87-2.98,11.78c-0.1,0.36-0.43,0.7-0.75,0.93
		c-1.21,0.9-2.47,1.74-3.69,2.62c-1.8,1.3-3.37,1.1-4.39-0.78c-2.87-5.26-4.37-10.82-3.25-16.85c0.24-1.3,0.79-2.55,0.89-3.85
		c0.17-2.27,1.08-4.15,2.42-5.9c0.4-0.53,0.79-1.06,1.19-1.59c-0.11-0.18-0.21-0.36-0.32-0.54c-7.61,6.03-16.47,8.78-25.98,10.17
		c-0.67,7.16-3.05,14.14-1.15,21.38c0.05,0.2,0.04,0.41,0.07,0.61c0.8,5.18,1.52,10.37,2.44,15.52c0.32,1.8,0.97,3.6,1.78,5.24
		c2,4.03,3.93,8.14,6.36,11.91c2.66,4.13,5.72,8.05,10.16,10.58c1.69,0.96,3.77,1.75,4.8,3.22c2.34,3.34,5.84,4.55,9.29,5.58
		c6.48,1.94,13.02,3.89,19.86,4.09c3.7,0.11,7.4,0.02,11.1-0.14c3.13-0.13,5.73-1.54,7.84-3.85c0.41-0.45,0.88-0.84,1.07-1.01
		c0.86,0.22,1.54,0.64,2,0.48c1.34-0.48,2.67-1.1,3.89-1.85c5.06-3.08,8.67-7.54,11.57-12.6c2.86-5,5.97-10,7.02-15.71
		c1.22-6.65,3.16-13.2,3.21-20.07c0.02-2.34,0.59-4.68,0.96-7.01c0.32-2.02,0.7-4.02,1.11-6.33c-7.92-1.27-15.39-3.57-22.56-7.49
		c-0.17,0.93-0.26,1.42-0.34,1.9c-0.87,5.18-1.73,10.34-4.65,14.91c-1.41,2.2-4.56,3.13-6.44,1.35c-1.78-1.69-3.56-3.75-3.59-6.27
		c-0.05-3.99,0.46-7.99,0.72-11.99c0.08-1.19,0.1-2.39,0.15-3.59c-0.18-0.04-0.36-0.09-0.54-0.13c1.52-2.03,3.04-4.05,4.45-5.93
		c-2.02-3.34-3.94-6.38-5.73-9.5c-0.97-1.69-1.79-3.47-2.59-5.24c-2.88-6.35-6.13-12.58-6.05-19.86c0.02-2.06-0.03-2.18,2.4-2.88
		c0.23,1.41,0.45,2.79,0.68,4.18c0.74,4.6,2.11,9,4.51,13c1.3,2.17,3.12,3.84,3.46,6.74c0.26,2.27,2.13,4.37,3.36,6.51
		c0.23,0.39,0.75,0.66,1.19,0.87c0.18,0.09,0.52-0.14,0.9-0.27c-0.37-0.82-0.69-1.55-1.02-2.27c3.49,4.11,7.26,7.72,11.71,10.53
		c4.43,2.8,8.91,5.59,14.65,6.68c-1.13-2.21-2.03-3.96-2.92-5.71c0.24-0.13,0.48-0.27,0.72-0.4c0.86,1.41,1.74,2.8,2.59,4.22
		c1.08,1.8,2.27,3.49,4.58,3.7c1.08,0.1,2.23-0.26,3.24,0c1.08,0.28,2.03,1.06,3.05,1.6c0.16,0.09,0.41,0.05,0.61,0.03
		c1.67-0.22,3.34-0.45,5.43-0.73c-1.96-2.34-3.48-4.22-6.13-4.68c-2.02-0.35-4.01-0.82-6.01-1.27c-0.49-0.11-1.1-0.28-1.35-0.64
		c-0.37-0.53-0.65-1.27-0.58-1.88c0.03-0.28,0.98-0.69,1.48-0.65c1.01,0.07,2,0.42,3.01,0.63c1.2,0.25,2.4,0.55,3.62,0.67
		c0.4,0.04,1.08-0.33,1.21-0.67c0.18-0.5,0.13-1.21-0.1-1.7c-0.19-0.41-0.72-0.78-1.18-0.94c-2.49-0.88-3.9-3.05-5.22-4.98
		c-2.74-4.01-4.55-8.51-4.89-13.47c-0.08-1.12-0.24-2.29,1.45-2.97c1.72,2.27,1.4,5.27,2.69,7.66c1.26,2.33,1.94,5.02,4.8,6.83
		c0.13-2.38,0.55-4.34,0.29-6.2c-0.71-5.21-2.47-10.16-4.84-14.81c-1.58-3.09-3.62-5.98-5.67-8.8c-3.37-4.63-7.43-8.65-12.74-10.92
		c-8.04-3.43-16.22-6.53-24.38-9.67c-2.59-0.99-5.34-1.55-7.94-2.51c-4.58-1.7-9.18-3-14.15-2.37c-1.01,0.13-2.06,0-3.09-0.04
		c-5.76-0.24-11.23,0.89-16.56,3.32c0.27,0.6,0.51,1.11,0.88,1.93c-3.28,3.02-6.41,6.3-9.95,9.05
		C538.49,69.71,537.52,76,536.93,83.15z M660.47,346.2c2.54,1.25,3.6-0.12,4.32-1.62c0.66-1.37,1.06-2.9,1.34-4.41
		c1.61-8.63,0.9-17.19-0.88-25.72c-0.61-2.92-1.37-5.84-1.62-8.79c-0.72-8.48-3.32-16.48-5.8-24.52c-0.82-2.65-1.75-5.29-2.18-8.01
		c-0.54-3.41-1.67-6.54-3.12-9.63c-3.06-6.55-7.7-11.64-14.08-15c-4.01-2.11-8.37-3.36-12.84-4.11c-1.67-0.28-3.39-0.27-5.31-0.41
		c0.1,1.11,0.01,1.86,0.26,2.48c1.85,4.56,3.69,9.14,5.69,13.63c1.54,3.45,3.34,6.78,4.96,10.19c1.05,2.21,1.8,4.59,3.02,6.7
		c1.89,3.26,4.25,6.25,6.08,9.55c1.55,2.81,3.66,4.89,6.35,6.49c2.21,1.31,2.32,3.32,0.35,5.09c-0.39,0.35-0.78,0.9-0.84,1.4
		c-0.7,6.12-1.64,12.23-0.92,18.43c0.34,2.95,0.49,5.94,0.52,8.92c0.02,2.24-0.13,4.52-0.55,6.72c-0.18,0.97-1.02,2.14-1.89,2.6
		c-2.91,1.52-5.92,2.87-8.96,4.1c-6.29,2.53-12.62,4.98-18.96,7.39c-5.65,2.15-11.18,4.81-17.46,4.6c-0.4-0.01-0.8,0.16-1.2,0.27
		c-4.45,1.18-9.08,1.79-13.28,4.29c-0.08,0.59-0.19,1.38-0.36,2.59c-3.92,0.69-7.86,1.37-11.79,2.06c3.23,1.77,6.67-0.35,10.17,0.97
		c-0.13,0.86-0.25,1.69-0.36,2.46c-2.23,0.15-4.18,0.21-6.1,0.45c-1.83,0.22-3.89-0.32-5.82,1.6c1.13,0.24,1.87,0.5,2.63,0.54
		c1.54,0.08,3.1,0.15,4.63,0.02c2.23-0.18,3.8,0.38,3.91,2.88c4.29-0.5,6.44,0.58,7.1,3.46c-1.99,1.67-5.08,1.44-7.36,4.26
		c2.14-0.36,3.59-0.64,5.04-0.85c3.72-0.54,7.39-1.84,11.24-0.39c0.88,0.33,2.16-0.3,3.24-0.59c0.98-0.26,1.92-0.69,2.9-0.99
		c5.11-1.57,10.27-2.98,15.32-4.71c5.44-1.87,10.77-4.05,16.16-6.04c1.39-0.51,2.58-0.93,3-2.68c0.36-1.53,0.97-1.54,2.43-0.51
		c0.31,0.22,0.64,0.42,0.87,0.57c7.19-2.96,13.31-7.28,19.29-11.85C660.86,349.11,660.82,348.08,660.47,346.2z M567.85,234.41
		c-0.26,0.26-0.51,0.51-0.77,0.77c1.14,1.68,2.19,3.43,3.42,5.03c3.71,4.81,8.36,8.19,14.55,8.94c5,0.61,9.36-0.88,12.87-4.55
		c2.71-2.83,3.12-4.97,1.49-7.61c-2.89-4.68-5.16-9.57-5.61-15.14c-0.05-0.61-0.21-1.22-0.41-1.8c-1.02-2.98-1.11-6.03-0.89-9.13
		c0.18-2.54-0.08-5.06-0.75-7.53c-4.49-0.48-8.75-0.93-13.16-1.4c-1.16,3.11-1,6.31-0.88,9.45c0.21,5.39-0.32,10.66-1.94,15.8
		c-1.08,3.41-2.57,6.63-5.23,9.33C569.51,235.75,568.68,235.08,567.85,234.41z M436.83,122.43c-0.15,0.07-0.3,0.13-0.45,0.2
		c0.54,0.95,1,1.94,1.62,2.83c1.87,2.7,3.82,5.34,5.66,8.05c0.38,0.57,0.43,1.36,0.68,2.24c-3.36,0.24-3.47-4.01-6.86-3.86
		c3.67,5.24,7.09,10.12,10.64,15.18c1.9-2.14,3.96-2.82,6.33-2.98c0.93-0.06,1.94-0.57,2.7-1.15c2.01-1.54,3.9-3.23,6.09-5.08
		c-0.56-0.84-1.07-1.83-1.78-2.64c-1-1.15-2.18-2.15-3.21-3.27c-2.98-3.25-5.65-6.68-6.75-11.11c-0.39-1.56-1.15-3.08-1.97-4.48
		c-0.66-1.11-1.65-2.07-3.68-1.64c0.59,2.18,1.17,4.21,1.7,6.25c0.15,0.57,0.4,1.33,0.16,1.74c-0.29,0.5-1.05,0.74-1.51,1.03
		c0.19,1.13,0.35,2.1,0.54,3.21c-2.84,0.17-2.74-3.24-5.12-3.68c0.63,2.05,2.46,3.46,2.33,5.67c-0.42,0.1-0.87,0.32-0.96,0.21
		C440.9,126.93,438.87,124.68,436.83,122.43z M568.61,124.62c0.15-2.98,0.42-5.62,0.37-8.26c-0.03-1.38-0.42-2.83-0.99-4.1
		c-1.16-2.59-2.87-2.77-4.52-0.41c-1.51,2.16-3.06,4.4-3.95,6.83c-0.83,2.27-1.45,4.85-0.12,7.52
		C562.12,123.76,565.15,124,568.61,124.62z M532.13,97.66c3.92-1.82,18.6-13.39,20.26-16.02c-2.86,1.26-5.3,2.51-7.86,3.42
		c-2.65,0.94-5.42,1.57-8.58,2.45C534.86,90.4,533.58,93.81,532.13,97.66z M607.06,115.81c-0.74,4.35-2.96,7.75-2.77,11.33
		c2.23,0.14,4.06,0.25,6.17,0.38c0.41-1.99,0.92-3.96,1.17-5.96c0.09-0.7-0.25-1.64-0.73-2.17
		C609.83,118.19,608.56,117.18,607.06,115.81z M564.85,39.39c1.99,2.34,3.96,3.83,6.58,3.67c0.91,1,0.43,2.83,2.3,2.73
		c1.06-0.06,2.12-0.01,3.28-0.01c-2.4-2.83-2.4-2.83-2.63-5.32c-0.27-0.14-0.54-0.29-0.81-0.42c-1.38-0.68-2.77-1.33-4.13-2.04
		C567.5,36.98,566.79,39.59,564.85,39.39z M583.49,11.97c-0.09-0.31-0.18-0.61-0.27-0.92c-7.22,1.91-14.45,3.8-19.94,10.18
		c0.69,0,0.93,0.08,1.03-0.01c3.31-2.85,7-4.98,11.2-6.28C578.22,14.09,580.84,12.96,583.49,11.97z M615.76,32.41
		c-0.24-0.05-0.47-0.09-0.71-0.14c-0.91,3.02-1.82,6.03-2.82,9.34C616.41,39.68,617.25,37.25,615.76,32.41z M513.51,111.73
		c1.93,1.78,5.47,2.95,6.43,2.14c0-0.8,0-1.62,0-2.5c-1.05,0.05-1.89,0.24-2.66,0.07c-0.73-0.16-1.37-0.71-2.11-1.12
		C514.59,110.81,514.06,111.27,513.51,111.73z M559.91,38.41c0.65,3.44,2.21,5,4.86,5.14C563.23,41.92,561.62,40.21,559.91,38.41z
		 M646.53,106.37c-1.85,1.93-1.84,1.94,0.45,3.21C646.82,108.45,646.7,107.54,646.53,106.37z M643.48,299.36
		c-0.13,0.01-0.26,0.02-0.39,0.03c0,0.88,0,1.75,0,2.63c0.13-0.01,0.26-0.02,0.39-0.03C643.48,301.12,643.48,300.24,643.48,299.36z
		 M653.85,123.25c0.21-0.28,0.42-0.57,0.63-0.85c-0.88-0.59-1.32-1.88-3.51-1.34C652.19,121.99,653.02,122.62,653.85,123.25z
		 M616.58,117.51c-0.14,0.25-0.28,0.5-0.42,0.75c1.25,0.68,2.49,1.35,3.74,2.03c0.1-0.19,0.21-0.39,0.31-0.58
		C619,118.97,617.79,118.24,616.58,117.51z M594.33,10.39c0,0.15-0.01,0.3-0.01,0.45c1.14,0.05,2.28,0.1,3.41,0.15
		c0-0.2,0-0.4,0-0.6C596.6,10.39,595.46,10.39,594.33,10.39z M615.26,45.61c-0.22-0.23-0.44-0.47-0.66-0.7
		c-0.82,0.73-1.63,1.45-2.45,2.18c0.16,0.18,0.32,0.37,0.48,0.55C613.51,46.97,614.38,46.29,615.26,45.61z M443.25,119.28
		c0.21-0.12,0.43-0.24,0.64-0.36c-0.56-1.01-1.12-2.02-1.69-3.03c-0.22,0.12-0.44,0.24-0.66,0.37
		C442.12,117.26,442.69,118.27,443.25,119.28z M559,32.13c-0.11,0-0.21,0-0.32,0c0,0.99,0,1.97,0,2.96c0.11,0,0.21,0,0.32,0
		C559,34.1,559,33.11,559,32.13z M547.48,60.65c-0.15-0.19-0.3-0.38-0.45-0.57c-0.8,0.63-1.6,1.26-2.4,1.88
		c0.15,0.19,0.3,0.38,0.45,0.56C545.88,61.9,546.68,61.27,547.48,60.65z M563.46,130.66c0.26,0.07,0.51,0.15,0.77,0.22
		c0.18-0.64,0.36-1.27,0.54-1.91c-0.25-0.07-0.5-0.14-0.74-0.22C563.83,129.39,563.65,130.02,563.46,130.66z"/>
	<path d="M224.3,499.15c-0.06-1.01-0.04-2.04-0.21-3.04c-0.48-2.83-1.04-5.64-1.55-8.46c-1.38-7.58-2.47-15.23-4.18-22.74
		c-2.15-9.43-4.17-18.87-5.91-28.38c-1.69-9.2-3.46-18.4-6.58-27.28c-2.16-6.13-3.13-12.55-4.37-18.91
		c-0.68-3.47-2.04-6.81-3.18-10.48c-1.8,0.26-3.21,0.36-4.58,0.69c-3.85,0.92-5.88-0.64-5.98-4.62c-0.09-3.5-0.17-7-0.4-10.49
		c-0.55-8.17,0.29-16.22,2.06-24.19c0.25-1.1,0.56-2.24,0.5-3.34c-0.18-3.62,0.33-7.01,1.38-10.55c1.05-3.57,0.83-7.52,1.14-11.3
		c0.46-5.61,0.84-11.23,1.37-16.84c0.74-7.75,2.53-15.41,1.87-23.28c-0.18-2.1-0.03-4.22-0.03-6.34c-3.25,1.03-6.33,2.12-9.47,2.98
		c-3.59,0.98-6.53-0.84-9.45-2.55c-3.51-2.06-3.92-5.63-4.07-9.08c-0.3-6.57-0.28-13.15-0.38-19.73c-0.01-0.51,0.1-1.04,0.02-1.54
		c-0.87-5.06-0.09-10.04,0.62-15.03c0.92-6.54,0.99-13.05-0.05-19.61c-1.11-6.99-2.15-14-2.91-21.03
		c-0.62-5.7-1.48-11.46-0.49-17.19c0.77-4.43,1.95-8.8,2.94-13.2c1.6-7.12,3.4-14.2,4.7-21.38c0.91-5.01,1.09-10.16,1.64-15.24
		c0.24-2.24,0.6-4.46,0.9-6.69c0.81-5.91,3.66-10.85,7.47-15.28c6.57-7.64,13.59-14.85,21.25-21.41c0.47-0.4,0.9-0.84,1.29-1.32
		c2.43-3.06,5.91-4.72,9.04-6.84c0.33-0.22,0.78-0.4,1.16-0.38c3.22,0.16,5.95-1.34,8.75-2.57c4.31-1.88,8.85-2.71,13.5-2.99
		c2.57-0.16,5.04,0.06,7.57,1c3.15,1.16,6.61,1.48,9.83,2.5c4.55,1.44,8.6,3.88,12.23,7c0.31,0.27,0.64,0.56,0.83,0.91
		c2.23,4.14,4.5,8.27,6.58,12.48c0.51,1.02,0.36,2.37-0.05,3.77c-0.67-1.42-1.35-2.83-2.02-4.25c-0.24,0.07-0.48,0.14-0.73,0.21
		c0.26,1.2,0.28,2.52,0.83,3.57c1.43,2.75,1.03,5.62,0.82,8.48c-0.11,1.49-0.58,2.88-0.53,4.47c0.04,1.17-1.74,2.43-2.77,3.6
		c-0.32,0.36-0.86,0.51-1.45,0.84c0.21,1.03,0.31,2.04,0.61,3c1.99,6.31,2.31,12.79,1.35,19.25c-1.26,8.43-2.75,16.84-4.57,25.17
		c-0.86,3.94-2.99,7.5-5.26,10.94c-1.82,2.76-3.29,5.74-6.07,7.67c-2.03,1.4-4.12,2.73-6.32,3.84c-1.49,0.75-1.78,1.66-1.59,3.2
		c0.72,5.97,2.32,11.7,4.38,17.32c0.62,1.7,1.18,3.43,1.78,5.2c0.84-0.08,1.5-0.14,2.16-0.2c0.03,0.11,0.06,0.21,0.1,0.32
		c-0.47,0.27-0.94,0.54-1.43,0.83c0.24,1.29,0.48,2.58,0.75,3.98c0.56,0.22,1.13,0.43,1.69,0.68c2.75,1.22,4.99,0.83,7.11-1.54
		c3.42-3.82,7.08-7.43,10.7-11.06c2.3-2.31,4.78-4.45,7.08-6.77c4.49-4.52,8.89-9.13,13.38-13.66c6.87-6.94,13.06-14.52,20.44-21
		c4.31-3.79,7.99-8.28,12.04-12.38c1.73-1.75,3.72-3.23,5.49-4.94c1.39-1.34,2.58-2.87,3.94-4.24c0.55-0.56,1.25-1.03,1.96-1.39
		c3.51-1.75,5.96-4.17,6.51-8.34c0.37-2.83,1.34-5.58,2.07-8.36c0.16-0.59,0.38-1.19,0.68-1.71c0.92-1.56,1.94-1.59,3.05-0.08
		c0.23,0.31,0.31,0.73,0.54,1.31c1.23-2.24,2.35-4.28,3.53-6.43c2.72,1.07,2.08,3.71,3.25,5.57c1.29-2.17,2.31-4.48,4.98-5.48
		c1.85,1.29,0.51,3.41,1.31,5.39c1.39-1.05,2.73-2.06,4.3-3.25c0.87,2.26,0.78,4.3,0.18,6.44c0.95,0.12,1.63,0.2,2.43,0.3
		c0.51,2.15,0.18,4.04-1.04,5.86c-0.55,0.82-1.12,1.84-1.12,2.77c0.02,2.53-1.36,4.23-2.93,5.88c-3.47,3.65-7.09,7.17-10.38,10.97
		c-2.61,3.01-4.76,6.41-7.23,9.54c-1.33,1.69-2.86,3.21-4.36,4.76c-4.65,4.8-9.5,9.42-13.94,14.41c-3.46,3.9-6.43,8.23-9.6,12.39
		c-0.49,0.65-1.01,1.31-1.33,2.05c-1.53,3.53-4.08,6.33-6.43,9.29c-3.7,4.65-7.22,9.46-10.97,14.07c-2.66,3.26-5.35,6.56-8.44,9.39
		c-6.22,5.68-12.72,11.05-19.1,16.55c-0.39,0.34-0.87,0.6-1.18,0.99c-1.19,1.52-2.52,2.51-4.78,0.96c0.3,4.14,0.48,7.7,0.83,11.24
		c0.62,6.44,0.76,12.99,2.18,19.26c1.25,5.51,0.77,11.01,1.47,16.48c0.98,7.65,1.43,15.37,2.09,23.06c0.06,0.7,0.01,1.42,0.01,2.37
		c3.27-0.13,6.52-0.15,9.74-0.43c3.97-0.35,7.97-0.71,11.87-1.47c3.98-0.77,7.99-1.58,11.76-3.23c0.42-0.18,1.02-0.19,1.45-0.04
		c2.25,0.75,2.24,0.77,4.56-0.67c-0.73-5.51-1.49-11.18-2.22-16.85c-0.27-2.11-0.6-4.23-0.66-6.35c-0.04-1.34,0.31-2.7,0.62-4.02
		c0.1-0.42,0.66-1.1,0.94-1.07c1.89,0.21,3.74-2.06,5.76,0.07c0.49,0.52,2.21,0.18,3.22-0.17c4.75-1.67,9.5-1.04,14.29-0.35
		c0.94,0.14,1.99-0.16,2.94-0.44c1.89-0.54,2.56-0.13,2.28,1.85c-0.49,3.43-1.17,6.82-1.73,10.24c-0.78,4.76-1.54,9.53-2.22,14.31
		c-0.08,0.59,0.39,1.25,0.66,2.07c-0.64,0.93-1.38,2.02-2.22,3.24c0.6,0.7,1.5,1.35,1.79,2.21c0.26,0.74-0.16,1.72-0.31,2.81
		c0.82,0.19,1.65,0.38,2.48,0.57c0.07,0.18,0.24,0.43,0.18,0.54c-0.78,1.3-1.69,2.53-2.38,3.87c-0.43,0.83-0.94,1.92-0.74,2.71
		c0.85,3.26-1.23,4.78-3.46,6.12c-1.66,1.01-3.54,1.65-5.29,2.53c-1.63,0.82-3.13,1.95-4.83,2.56c-2,0.73-4.14,1.06-6.23,1.54
		c-5.1,1.17-10.17,2.45-15.3,3.47c-7.24,1.44-14.53,2.67-21.79,4c-0.7,0.13-1.38,0.31-2.27,0.52c0.47,3.08,1.09,5.99,1.31,8.92
		c0.43,5.53,0.65,11.09,0.91,16.63c0.16,3.28,0.2,6.57,0.37,9.86c0.11,2.23,0.13,2.33-1.65,4.54c-0.7-0.23-1.44-0.55-2.22-0.72
		c-0.79-0.17-1.75-0.5-2.39-0.21c-3.83,1.74-7.87,1.15-11.84,1.31c-0.18,0.01-0.35,0.19-0.72,0.39c0.05,1,0.09,2.11,0.18,3.21
		c0.41,5.28-0.26,10.46-1.19,15.64c-0.51,2.83-0.77,5.71-1.03,8.58c-0.8,8.6-1.7,17.2-2.26,25.82c-0.73,11.29-1.19,22.6-1.72,33.91
		c-0.42,9.04-0.78,18.08-1.12,27.13c-0.1,2.67-0.08,5.34-0.12,8.01c-1.24,0-2.48,0-3.71,0c0.06-6.27-0.02-12.55,0.21-18.81
		c0.35-9.66,0.89-19.31,1.39-28.96c0.43-8.32,0.6-16.67,1.42-24.96c1.19-11.97,1.54-24.04,4.14-35.85
		c0.82-3.76,0.74-7.57,0.16-11.37c-0.34-2.22-0.72-2.7-2.97-2.63c-4.51,0.14-9.08,0.08-13.5,0.86c-11.59,2.05-23.14,3.83-34.97,2.58
		c-2.67-0.28-5.4,0.01-7.97,0.04c0.55,2.59,0.91,4.77,1.48,6.9c1.69,6.35,3.61,12.65,5.16,19.03c2.08,8.58,3.95,17.22,5.81,25.86
		c1.92,8.95,3.68,17.93,5.6,26.87c1.37,6.43,2.92,12.82,4.32,19.25c1.02,4.72,1.91,9.47,2.87,14.21c0.1,0.5,0.16,1.1,0.46,1.46
		c1.43,1.67,1.29,3.58,1.04,5.53C228.02,499.15,226.16,499.15,224.3,499.15z M218.85,275.97c2.1,0.38,4.19,0.98,6.3,1.09
		c5.75,0.3,11.51,0.55,17.26,0.5c2.96-0.03,5.93-0.67,8.87-1.19c2.1-0.37,3.47-1.88,3.3-3.38c-0.42-3.77-0.71-7.57-1.37-11.3
		c-1.01-5.75-2.19-11.48-3.49-17.17c-1.05-4.58-2.05-9.21-4.85-13.16c-0.17-0.24-0.02-0.71-0.02-1.28c2.09,0.69,1.72,2.94,3.06,3.91
		c0.29,0,0.59,0,0.9,0c2.78,0.03,2.83,0.06,3.42,2.73c0.6,2.7,1.13,5.42,1.79,8.11c1.34,5.47,1.86,11.16,4.39,16.32
		c0.22,0.45,0.3,0.98,0.37,1.49c0.66,4.37,1.31,8.74,1.93,13.11c0.28,1.93-0.37,3.18-2.26,3.84c-1.22,0.43-2.57,0.56-3.87,0.62
		c-2.71,0.14-2.75,0.34-3.41,2.87c-1.81,6.94-0.57,13.93-0.62,20.9c-0.02,2.28,1.54,3.9,3.85,4.11c4.32,0.39,8.6-0.11,12.85-0.92
		c1.07-0.2,2.19-0.38,3.27-0.32c2.03,0.11,4.04,0.28,5.95-0.52c-0.06-0.95-0.09-1.74-0.16-2.54c-0.7-8.4-1.29-16.81-2.13-25.2
		c-0.85-8.49-2.28-16.93-2.82-25.43c-0.58-9.12-1.15-18.22-2.45-27.27c-0.39-2.73-0.54-5.51-1.01-8.22
		c-0.44-2.48-1.17-4.91-1.76-7.33c-0.82-0.05-1.22-0.07-1.62-0.1c-5.7-0.46-10.48-2.7-14.09-7.25c-2.33-2.94-4.84-5.56-9.15-4.76
		c-0.48,0.09-1.02-0.15-1.53-0.15c-4.39,0.07-8.18,1.44-10.91,5.14c-1.69-1.51-3.31-0.58-4.82,0.29
		c-6.52,3.73-10.51,9.68-13.85,16.12c-2.06,3.97-2.42,8.43-3.19,12.74c-0.6,3.33-0.88,6.73-1.09,10.11
		c-0.37,6.01-1.56,11.81-4.36,17.17c-1.72,3.3-2.04,6.61-1.67,10.34c0.5,5.09,0.66,10.32,0.04,15.38
		c-1.44,11.85-3.32,23.64-3.49,35.61c-0.02,1.75-0.2,3.49-0.32,5.23c-0.22,3.27-0.34,6.56-0.69,9.82c-0.22,2.04,0.24,4.33-1.71,5.94
		c-0.32,0.27-0.36,0.95-0.43,1.45c-0.35,2.42-0.71,4.84-0.99,7.27c-0.3,2.65-0.75,5.31-0.73,7.97c0.03,4.93,0.34,9.86,0.56,14.79
		c0.12,2.66,0.28,2.85,2.88,2.75c2.56-0.09,5.13-0.53,7.68-0.49c5.24,0.08,10.49,0.32,15.73,0.6c7.04,0.39,13.98-0.46,20.9-1.56
		c0.54-0.09,1.05-0.41,1.96-0.78c-0.9-0.34-1.4-0.52-1.9-0.71c3.4-0.19,6.26-0.07,9.11-0.21c6.86-0.32,13.72-0.74,20.58-1.17
		c0.89-0.06,2.18-0.06,2.58-0.61c1.65-2.23,3.56-1.32,5.51-0.82c1.01,0.26,2.04,0.39,3.21,0.61c-0.11-11.73,0.61-23.03-1.92-34.29
		c-0.77,0-1.59-0.09-2.38,0.02c-3.45,0.45-6.88,0.99-10.33,1.44c-8.06,1.04-16.09,2.33-24.18,2.94c-4.55,0.34-9.2-0.41-13.79-0.78
		c-1.47-0.12-2.91-0.62-3.92-0.85c-0.36-1.01-0.63-1.8-0.93-2.57c-0.15-0.36-0.51-0.67-0.56-1.04c-0.57-4.58-1.52-9.1-1.02-13.8
		c0.77-7.05,1.23-14.14,1.82-21.21c0.37-4.4,0.72-8.79,1.08-13.19c0.18-2.21,0.34-4.42,0.52-6.65c-0.67-0.23-1.14-0.48-1.63-0.55
		c-3.57-0.49-7.13-1.08-10.72-1.36c-1.7-0.14-2.76-1.26-2.62-2.41c0.23-1.86,0.59-3.71,0.86-5.56c0.1-0.7,0.29-1.47,0.11-2.12
		c-0.76-2.73,0.61-4.93,1.79-7.26c0.07,1.11,0.15,2.23,0.25,3.83c0.46-0.79,0.71-1.11,0.84-1.47c2-5.72,3.93-11.46,5.97-17.16
		c1.62-4.52,4.02-8.75,4.81-13.56c0.03-0.2,0.06-0.41,0.14-0.6c0.43-0.99,1.2-1.41,2.23-1.15c0.97,0.24,1.75,0.79,1.62,1.92
		c-0.11,0.91-0.29,1.84-0.61,2.7c-0.68,1.83-1.56,3.58-2.19,5.42c-2.59,7.57-5.11,15.16-7.65,22.75c-0.41,1.24-0.74,2.51-1.12,3.8
		c1.1,0.47,2,0.84,2.89,1.22c-0.04,0.12-0.07,0.24-0.11,0.35c-1.09-0.13-2.18-0.25-3.36-0.39c-0.95,1.94-1.87,3.8-2.93,5.96
		c1.97,0.22,3.79,0.43,5.62,0.63L218.85,275.97z M258.1,97.59c-1.24,1.58-1.29,2.37-0.22,3.31c1.04,0.91,1.98,0.61,4.14-1.41
		c-1.6-0.27-3.89,0.83-3.99-1.99c2.73,0.28,5.46,0.63,8.2,0.81c2.23,0.15,2.6-0.19,3.14-2.4c0.22-0.91,0.31-1.8,1.47-2.02
		c0.5,3.17,0.5,3.17,2.44,3.95c0.79-2.86,1.75-5.59,0.86-8.66c-1.05-3.65-2-7.33-2.73-11.05c-0.81-4.1-3.06-6.79-6.91-8.3
		c-1.91-0.75-3.81-1.61-5.58-2.63c-6.56-3.8-13.49-3.95-20.55-1.99c-3.56,0.99-6.99,2.45-10.48,3.67c-0.46,0.16-1.17,0.44-1.41,0.24
		c-1.51-1.23-2.7-0.1-3.98,0.4c-2.74,1.07-4.8,3.56-7.97,3.75c-0.24,0.01-0.46,0.38-0.7,0.57c-8.45,6.64-15.75,14.46-23.04,22.31
		c-5.37,5.78-7.7,12.76-8.33,20.44c-0.19,2.26-0.01,4.57-0.43,6.77c-1.72,9.18-3.46,18.37-5.48,27.49
		c-1.61,7.26-2.62,14.59-2.99,21.99c-0.43,8.46,0.73,16.85,2.14,25.18c1.2,7.13,2.02,14.22,1.19,21.48
		c-0.83,7.25-1.39,14.5-0.8,21.84c0.41,5.11-0.12,10.29-0.03,15.44c0.04,2.45,0.47,4.91,0.85,7.35c0.27,1.73,1.34,2.94,2.93,3.73
		c2.51,1.24,5.02,1.76,7.68,0.4c1.28-0.65,2.74-0.97,3.97-1.69c1.27-0.74,3.07-1.51,2.77-3.26c-0.37-2.14,2.12-1.76,2.32-3.21
		c0.04-0.3,0.16-0.6,0.22-0.9c1.36-6.63,2.73-13.26,4.09-19.88c1.01-4.92,1.75-9.92,3.1-14.75c2.49-8.92,7.46-16.35,14.42-22.49
		c1.53-1.35,3.08-2.82,4.12-4.54c1.67-2.78,3.78-5.11,6.07-7.34c0.93-0.91,1.62-2.25,2.72-2.77c3.17-1.48,4.42-4.06,4.99-7.26
		c0.68-3.83,0.98-7.8,2.27-11.42c3.08-8.64,3.67-17.5,2.99-26.47c-0.35-4.61,0.14-9,1.31-13.38c0.47-1.76,0.74-3.41-0.67-4.92
		c-0.29-0.31-0.35-0.92-0.33-1.39c0.09-2.15,0.24-4.3,0.4-6.45c0.04-0.6,0.09-1.25,0.33-1.79c1.01-2.23,2.11-4.41,3.13-6.63
		c0.52-1.14,1-2.13,2.43-2.52c1.27-0.35,1.99-1.16,2.26-2.83c0.3-1.85,0.47-4.53,2.9-5.08c3.37-0.76,6.77-1.86,10.38-1.05
		C261.79,96.66,259.93,97.11,258.1,97.59z M229.07,281.31c-0.55,4.94-1.45,9.81-1.56,14.7c-0.19,8.65-0.49,17.27-1.84,25.83
		c-0.6,3.81-0.09,7.61,0.69,11.35c0.52,2.52,1.6,3.18,4.31,3.34c1.82,0.11,3.65,0.53,5.46,0.47c3.68-0.13,7.46-0.08,10.99-0.95
		c1.87-0.46,3.73-0.88,5.63-1.11c7.44-0.91,14.88-1.76,22.32-2.66c1.89-0.23,3.76-0.61,5.65-0.8c1.2-0.12,2.47,0.19,3.64-0.03
		c5.96-1.13,11.89-2.36,17.83-3.59c0.54-0.11,1.3-0.38,1.49-0.79c0.59-1.27,1.55-1.06,2.6-1.01c0.77,0.04,1.56-0.11,2.32-0.27
		c3.69-0.75,7.23-2.05,11.16-1.7c2.48,0.22,5.17-0.12,7.53-0.92c2.99-1.01,5.76-2.72,8.59-4.2c0.83-0.43,1.52-1.11,2.28-1.68
		c-1.67-0.75-3.08-0.95-4.49-1.05c-0.99-0.06-1.85-0.22-2.21-1.29c-0.56-1.69-1.12-3.38-1.64-4.95c-2.37-0.5-4.57-0.81-6.38-2.08
		c-1-0.7-1.85-0.6-2.85-0.24c-3.29,1.2-3.41,1.09-2.89-2.36c0.01-0.08-0.09-0.18-0.26-0.52c-0.57,0.06-1.36-0.08-1.88,0.23
		c-1.84,1.09-3.85,1.2-5.88,1.41c-0.81,0.08-1.58,0.44-2.39,0.6c-4.01,0.8-8.01,1.79-12.06,2.31c-3.64,0.46-7.36,0.28-11.03,0.58
		c-4.09,0.34-8.16,0.96-12.24,1.39c-3.78,0.39-7.56,0.79-11.35,0.99c-3.07,0.15-6.16,0.32-9.14-0.91c-3.86-1.6-5.26-3.56-5.24-7.73
		c0-1.13-0.06-2.26-0.07-3.39c-0.03-5.63-0.78-11.3,1-16.84c0.21-0.67-0.11-1.51-0.18-2.14
		C240.95,281.31,235.22,281.31,229.07,281.31z M272.58,231.9c4.93-4.23,9.52-8.18,14.11-12.12c2.1-1.8,4.23-3.57,6.27-5.43
		c1.44-1.31,2.8-2.72,4.11-4.17c2.35-2.58,4.73-5.14,6.92-7.86c2.58-3.2,4.93-6.58,7.44-9.83c1.95-2.52,4.01-4.96,6-7.45
		c0.31-0.39,0.83-1,0.72-1.26c-0.67-1.47,0.58-2.02,1.22-2.84c0.7-0.88,1.56-1.64,2.25-2.52c4.12-5.24,8.06-10.63,12.36-15.73
		c3.5-4.16,7.28-8.11,11.18-11.9c4.36-4.23,8.72-8.4,10.99-14.22c0.06-0.16,0.31-0.24,0.74-0.55c2.59,1.13,4.26-0.74,5.79-2.55
		c2.04-2.43,3.87-5.05,5.88-7.69c-0.93-1.59-0.92-3.17,0.2-4.77c-1.12,0.75-2.24,1.5-3.4,2.29c-1.24-1.42-0.98-2.46-0.02-3.5
		c1.47-1.59,2.92-3.19,4.37-4.8c0.65-0.73,1.36-1.45,0.98-2.81c-2.55,2.58-4.95,4.99-7.48,7.54c-1.1-2.69-1.1-2.69,0.16-4.16
		c1.44-1.66,1.98-2.95,2.11-5.67c-2.25,3.96-4.19,7.36-6.19,10.89c-1.23-1.56-1.17-2.72-0.57-4.23c0.81-2.03,1.48-4.23,0.95-6.94
		c-3.11,4.31-3.03,9.46-5.41,14.24c-1.64-3.51,0.12-6.74-0.68-9.77c-0.63,1.48-0.83,3-1.29,4.44c-0.94,2.92-1.47,6.2-3.21,8.57
		c-1.72,2.36-3.99,4.47-6.02,6.68c-2.77,3.02-6.1,5.5-9.06,8.36c-1.98,1.92-3.65,4.16-5.6,6.11c-2.76,2.76-5.74,5.3-8.47,8.08
		c-5.53,5.64-11.01,11.34-16.39,17.12c-4.48,4.81-8.77,9.79-13.19,14.65c-2.21,2.44-4.41,4.91-6.82,7.14
		c-3.77,3.48-7.58,6.94-11.62,10.09c-2.67,2.08-3.08,4.35-1.86,7.22c0.32,0.74,0.72,1.45,1.11,2.15c0.53,0.94,1.09,1.87,1.64,2.8
		c-0.12,0.08-0.24,0.16-0.36,0.24c-0.35-0.23-0.7-0.47-1.47-0.99C271.7,221.93,271.07,226.86,272.58,231.9z M254.54,104.46
		c-0.29,1.2-0.59,2.58-0.98,3.94c-0.19,0.66-0.44,1.36-0.86,1.88c-1.02,1.28-2.15,2.48-3.26,3.69c-2.51,2.73-3.68,5.84-2.97,9.59
		c0.6,3.17,0.51,6.35-0.34,9.48c-1.04,3.84-0.97,7.69-0.56,11.62c0.31,2.94,0.39,5.96,0.17,8.91c-0.39,5.13-1.46,10.15-2.93,15.1
		c-0.54,1.83-1.64,3.73-0.97,5.72c1.81-0.75,3.5-1.42,5.17-2.14c4.26-1.84,8.39-3.93,11.79-7.15c3.37-3.19,3.39-3.86,1.18-7.87
		c-0.5-0.9-1.11-1.81-1.3-2.78c-0.76-3.82-3.69-7.51-0.85-11.59c0.05-0.08,0.13-0.14,0.25-0.28c2.83-0.14,5.7-0.33,8.58-0.42
		c1.73-0.05,2.81-0.48,3.17-2.49c0.8-4.54,1.94-9.02,2.81-13.55c0.32-1.69,0.29-3.46,0.39-5.2c0.31-5.42-1.18-10.5-3.02-15.53
		C265.08,105.09,260.1,104.79,254.54,104.46z M338.09,303.68c0.26-0.5,0.59-0.87,0.63-1.27c0.07-0.8-0.15-1.64-0.03-2.43
		c0.54-3.65,1.38-7.28,1.67-10.94c0.25-3.18-0.11-6.42-0.22-9.97c-1.46,0.45-2.42,0.79-3.39,1.04c-1.69,0.44-3.37,0.94-5.09,1.2
		c-2.41,0.36-4.87,0.43-7.28,0.79c-1.35,0.2-2.42,0.02-3.34-1.01c-0.34-0.39-0.79-0.67-1.78-1.5c1.01,6.96,1.91,13.18,2.84,19.61
		c2.05-0.4,3.63-0.8,5.25-0.99c0.84-0.1,1.93-0.09,2.55,0.36c1.01,0.73,0.08,1.62-0.29,2.42c-0.1,0.21,0.07,0.54,0.16,1.08
		c1.39-0.25,2.68-0.5,3.98-0.7C335.97,301.03,336.99,301.54,338.09,303.68z M233.78,194.83c1.98-0.23,3.8-0.47,5.62-0.63
		c0.69-0.06,1.43-0.05,2.09,0.12c2.92,0.74,5.93,0.67,8.88,1.08c0.51,0.07,1.1-0.39,1.92-0.72c-1.33-6.17-2.63-12.21-3.97-18.41
		c-2.32,1.01-4.45,1.95-6.58,2.86c-1.25,0.53-1.92,1.4-2.11,2.78c-0.47,3.29-2.06,6.01-4.56,8.15
		C233.65,191.29,233.26,192.71,233.78,194.83z M264.58,157.18c1.39-3.7,2.56-6.81,3.93-10.47c-2.47-0.2-4.45-0.44-6.43-0.49
		c-0.95-0.03-1.99,0.41-1.87,1.58C260.54,151.18,261.24,154.44,264.58,157.18z M336.39,275.39c-3.59-0.52-7.16-1.25-10.58,0.93
		C329.65,278.88,333.03,276.99,336.39,275.39z M250.21,106.31c-2.83-0.06-3.78,1.45-4.03,5.47
		C247.65,109.78,248.93,108.04,250.21,106.31z M250.12,197.06c1.39,1.5,2.48,2.67,3.56,3.84c0.18-0.13,0.36-0.25,0.53-0.38
		c-0.48-1.36-0.96-2.72-1.49-4.21C251.96,196.53,251.31,196.72,250.12,197.06z M341.82,282.59c0.22-1.52,0.44-3.03,0.65-4.55
		c-0.23-0.03-0.46-0.06-0.68-0.09C340.94,279.41,340.24,280.88,341.82,282.59z M229.84,195.88c-0.25-0.18-0.49-0.36-0.74-0.54
		c-0.49,0.74-0.98,1.48-1.48,2.22c0.19,0.14,0.38,0.27,0.57,0.41C228.74,197.27,229.29,196.57,229.84,195.88z M335.65,312.11
		c-0.04-0.19-0.09-0.38-0.13-0.58c-0.85,0.16-1.7,0.33-2.55,0.49c0.02,0.14,0.05,0.29,0.07,0.43
		C333.91,312.33,334.78,312.22,335.65,312.11z"/>
	<path class="st1" d="M229.87,499.15c0.25-1.95,0.39-3.87-1.04-5.53c-0.31-0.36-0.36-0.95-0.46-1.46
		c-0.96-4.74-1.85-9.49-2.87-14.21c-1.39-6.43-2.94-12.82-4.32-19.25c-1.91-8.95-3.67-17.93-5.6-26.87
		c-1.86-8.64-3.73-17.27-5.81-25.86c-1.55-6.39-3.47-12.68-5.16-19.03c-0.57-2.13-0.93-4.31-1.48-6.9c2.57-0.03,5.3-0.32,7.97-0.04
		c11.83,1.25,23.38-0.53,34.97-2.58c4.41-0.78,8.99-0.71,13.5-0.86c2.25-0.07,2.63,0.4,2.97,2.63c0.59,3.8,0.67,7.61-0.16,11.37
		c-2.59,11.81-2.95,23.89-4.14,35.85c-0.82,8.28-1,16.64-1.42,24.96c-0.49,9.65-1.04,19.31-1.39,28.96
		c-0.23,6.27-0.15,12.54-0.21,18.81C246.79,499.15,238.33,499.15,229.87,499.15z"/>
	<path d="M621.56,54.6c-1.72-0.66-3.45-1.32-5.17-1.98c2.14-0.57,3.9-0.07,5.37,1.33C621.7,54.16,621.63,54.38,621.56,54.6z"/>
	<path class="st1" d="M536.93,83.15c0.6-7.15,1.57-13.44,7.4-17.97c3.54-2.75,6.67-6.04,9.95-9.05c-0.37-0.82-0.61-1.33-0.88-1.93
		c5.33-2.43,10.8-3.56,16.56-3.32c1.03,0.04,2.08,0.17,3.09,0.04c4.97-0.63,9.57,0.67,14.15,2.37c2.6,0.96,5.36,1.52,7.94,2.51
		c8.16,3.14,16.34,6.23,24.38,9.67c5.31,2.27,9.37,6.29,12.74,10.92c2.05,2.82,4.09,5.71,5.67,8.8c2.37,4.65,4.13,9.61,4.84,14.81
		c0.26,1.87-0.16,3.83-0.29,6.2c-2.86-1.8-3.54-4.5-4.8-6.83c-1.3-2.39-0.97-5.39-2.69-7.66c-1.68,0.69-1.52,1.85-1.45,2.97
		c0.34,4.96,2.15,9.45,4.89,13.47c1.31,1.93,2.72,4.1,5.22,4.98c0.46,0.16,1,0.53,1.18,0.94c0.23,0.49,0.28,1.2,0.1,1.7
		c-0.13,0.34-0.81,0.71-1.21,0.67c-1.22-0.12-2.42-0.42-3.62-0.67c-1-0.21-2-0.56-3.01-0.63c-0.51-0.04-1.45,0.37-1.48,0.65
		c-0.06,0.61,0.22,1.35,0.58,1.88c0.25,0.36,0.87,0.53,1.35,0.64c1.99,0.46,3.99,0.92,6.01,1.27c2.65,0.47,4.17,2.34,6.13,4.68
		c-2.1,0.28-3.76,0.51-5.43,0.73c-0.2,0.03-0.45,0.06-0.61-0.03c-1.02-0.54-1.97-1.32-3.05-1.6c-1.01-0.26-2.17,0.09-3.24,0
		c-2.32-0.21-3.5-1.9-4.58-3.7c-0.85-1.41-1.73-2.81-2.59-4.22c-0.24,0.13-0.48,0.27-0.72,0.4c0.89,1.75,1.79,3.5,2.92,5.71
		c-5.74-1.09-10.22-3.88-14.65-6.68c-4.45-2.81-8.23-6.42-11.71-10.53c0.33,0.73,0.65,1.45,1.02,2.27c-0.39,0.12-0.72,0.35-0.9,0.27
		c-0.44-0.21-0.97-0.47-1.19-0.87c-1.23-2.14-3.1-4.24-3.36-6.51c-0.34-2.9-2.15-4.57-3.46-6.74c-2.39-4-3.77-8.4-4.51-13
		c-0.22-1.38-0.45-2.77-0.68-4.18c-2.43,0.69-2.38,0.82-2.4,2.88c-0.08,7.27,3.17,13.5,6.05,19.86c0.8,1.78,1.62,3.56,2.59,5.24
		c1.8,3.11,3.71,6.16,5.73,9.5c-1.41,1.88-2.93,3.91-4.45,5.93c0.18,0.04,0.36,0.09,0.54,0.13c-0.05,1.2-0.07,2.39-0.15,3.59
		c-0.26,4-0.77,7.99-0.72,11.99c0.03,2.53,1.81,4.58,3.59,6.27c1.88,1.78,5.04,0.85,6.44-1.35c2.92-4.57,3.78-9.73,4.65-14.91
		c0.08-0.48,0.17-0.97,0.34-1.9c7.16,3.92,14.64,6.22,22.56,7.49c-0.41,2.31-0.79,4.31-1.11,6.33c-0.37,2.33-0.94,4.67-0.96,7.01
		c-0.05,6.86-1.99,13.41-3.21,20.07c-1.05,5.71-4.16,10.71-7.02,15.71c-2.9,5.06-6.51,9.51-11.57,12.6
		c-1.22,0.74-2.54,1.36-3.89,1.85c-0.47,0.17-1.14-0.25-2-0.48c-0.19,0.17-0.66,0.57-1.07,1.01c-2.12,2.3-4.72,3.71-7.84,3.85
		c-3.7,0.16-7.4,0.25-11.1,0.14c-6.84-0.2-13.38-2.15-19.86-4.09c-3.45-1.03-6.95-2.24-9.29-5.58c-1.03-1.48-3.12-2.26-4.8-3.22
		c-4.44-2.53-7.49-6.45-10.16-10.58c-2.43-3.77-4.36-7.88-6.36-11.91c-0.81-1.64-1.46-3.44-1.78-5.24
		c-0.92-5.15-1.64-10.35-2.44-15.52c-0.03-0.2-0.02-0.42-0.07-0.61c-1.9-7.24,0.48-14.22,1.15-21.38
		c9.51-1.39,18.37-4.15,25.98-10.17c0.11,0.18,0.21,0.36,0.32,0.54c-0.4,0.53-0.79,1.06-1.19,1.59c-1.34,1.75-2.25,3.64-2.42,5.9
		c-0.1,1.3-0.65,2.56-0.89,3.85c-1.12,6.03,0.38,11.59,3.25,16.85c1.03,1.88,2.6,2.08,4.39,0.78c1.22-0.88,2.48-1.72,3.69-2.62
		c0.31-0.23,0.65-0.58,0.75-0.93c1.05-3.92,2.31-7.8,2.98-11.78c0.49-2.91,0.48-5.99,0.13-8.92c-0.43-3.61-1.76-6.98-5.18-9.03
		c1.99-2.16,3.99-4.09,5.72-6.24c4.5-5.59,8.88-11.28,13.3-16.94c0.44-0.57,0.67-1.35,1.2-1.79c1.61-1.32,1.95-2.97,1.53-5.17
		c-0.52,0.19-1.19,0.23-1.46,0.58c-1.51,1.95-2.88,4.01-4.39,5.96c-2.14,2.76-4.44,5.39-6.54,8.18
		c-4.94,6.55-11.81,10.69-18.53,15.04c-1.72,1.11-3.24,2.54-4.9,3.76c-1.16,0.85-2.35,1.67-3.6,2.36c-4.3,2.38-8.81,3.18-13.7,2.01
		c-3.77-0.9-7.63-1.46-12.17-2.3c1.23-0.4,1.82-0.71,2.42-0.76c4.09-0.34,8.19-0.65,12.29-0.9c0.94-0.06,1.94,0.21,1.9-1.62
		c-6.51-1.96-13.06,0.67-19.83,0.27c1.38-2.07,3.67-2.25,5.32-3.38c2.29,1.86,2.89,1.73,4.21-0.62c0.49-0.86,1.05-1.95,1.86-2.33
		c6-2.78,10.59-7.45,15.66-11.48c2.97-2.36,5.76-4.96,8.63-7.45c0.39-0.34,0.82-0.65,1.12-1.06c0.57-0.8,1.57-1.62,0.76-2.71
		c-0.77-1.03-1.86-0.53-2.83-0.17c-4.15,1.51-8.29,3.02-12.44,4.52c-0.37,0.13-0.78,0.15-1.53,0.29c2.18-3.27,6.41-3.3,8.33-6.42
		C544.3,78.63,540.7,80.5,536.93,83.15z M597.12,159.07c-1.43-1.44-2.46-1.7-3.84-1.46c-2.11,0.36-4.3,0.68-6.41,0.51
		c-4.8-0.39-9.65-0.49-14.25-2.34c-2.05-0.83-3.54,0.47-3.71,2.7c-0.6,8.19,1.55,15.8,4.85,23.17c0.88,1.96,2.2,3.71,4.44,3.86
		c3.45,0.23,6.67-0.59,9.49-2.88c3.38-2.74,4.34-6.87,6.35-10.4c0.12-0.22-0.04-0.58-0.04-0.88c0-2.77,0-5.54,0-8.05
		C595.09,161.82,596.09,160.47,597.12,159.07z"/>
	<path class="st1" d="M532.35,231.66c-0.05,1.85,1.42,2.04,2.68,2.35c2.49,0.62,5,1.13,7.5,1.72c0.48,0.11,0.93,0.36,1.51,0.59
		c0.85,6.35,2.14,12.63,2.44,18.96c0.37,7.9-1.32,15.57-5.12,22.62c-1.76,3.26-3.66,6.45-5.76,9.5c-1.13,1.64-2.82,2.89-4.57,4.63
		c-0.42-1.26-0.86-1.98-0.88-2.73c-0.17-5.27-2.21-10.03-4.08-14.8c-2.29-5.83-4.77-11.62-8.64-16.63c-2.01-2.6-4.33-4.95-6.49-7.44
		c-4.17-4.8-8.33-9.61-12.62-14.56c1.24-1.3,3.16-1.89,2.7-4.15c-1.11,0.87-2.05,1.61-3.34,2.62c-1.54-1.75-3.29-3.25-4.39-5.12
		c-2.42-4.11-5.69-7.43-8.94-10.81c-5.51-5.73-10.43-11.94-14.52-18.74c-3.22-5.36-6.16-10.9-8.94-16.5
		c-2.92-5.88-5.71-11.85-8.17-17.94c-1.88-4.65-3.16-9.55-4.63-14.12c1.6-0.93,2.94-1.77,4.33-2.49c0.99-0.51,2.03-1.05,3.11-1.25
		c3.44-0.66,6.52-1.87,8.51-5.01c1.7,3.33,3.23,6.61,5.01,9.76c2.82,5,5.73,9.95,8.73,14.84c4.14,6.75,8.18,13.58,12.65,20.11
		c4.81,7.04,10.14,13.72,15.11,20.65c4.66,6.49,10.36,11.97,16.37,17.14c2.54,2.18,5.36,4.05,8.09,6.01
		c0.37,0.26,0.95,0.22,1.42,0.31c-0.26,0.07-0.51,0.16-0.76,0.24c0.28,0.36,0.56,0.71,0.84,1.07
		C531.77,232.2,532.06,231.93,532.35,231.66z"/>
	<path class="st1" d="M660.47,346.2c0.35,1.88,0.39,2.9-0.85,3.85c-5.99,4.57-12.11,8.89-19.29,11.85
		c-0.23-0.15-0.55-0.36-0.87-0.57c-1.46-1.02-2.07-1.01-2.43,0.51c-0.42,1.75-1.61,2.17-3,2.68c-5.4,1.99-10.73,4.18-16.16,6.04
		c-5.05,1.73-10.21,3.14-15.32,4.71c-0.98,0.3-1.91,0.73-2.9,0.99c-1.07,0.29-2.35,0.92-3.24,0.59c-3.86-1.45-7.52-0.15-11.24,0.39
		c-1.46,0.21-2.9,0.49-5.04,0.85c2.27-2.82,5.37-2.59,7.36-4.26c-0.66-2.88-2.81-3.96-7.1-3.46c-0.11-2.49-1.69-3.06-3.91-2.88
		c-1.53,0.13-3.09,0.06-4.63-0.02c-0.75-0.04-1.49-0.3-2.63-0.54c1.92-1.92,3.99-1.38,5.82-1.6c1.92-0.24,3.87-0.29,6.1-0.45
		c0.11-0.77,0.24-1.6,0.36-2.46c-3.5-1.33-6.94,0.79-10.17-0.97c3.94-0.69,7.87-1.38,11.79-2.06c0.17-1.21,0.28-1.99,0.36-2.59
		c4.2-2.5,8.83-3.11,13.28-4.29c0.4-0.1,0.8-0.28,1.2-0.27c6.28,0.2,11.81-2.45,17.46-4.6c6.34-2.41,12.66-4.86,18.96-7.39
		c3.05-1.23,6.06-2.57,8.96-4.1c0.87-0.46,1.71-1.63,1.89-2.6c0.42-2.2,0.57-4.47,0.55-6.72c-0.02-2.98-0.18-5.96-0.52-8.92
		c-0.72-6.21,0.23-12.31,0.92-18.43c0.06-0.5,0.45-1.05,0.84-1.4c1.97-1.77,1.86-3.79-0.35-5.09c-2.7-1.6-4.8-3.68-6.35-6.49
		c-1.82-3.29-4.18-6.29-6.08-9.55c-1.22-2.11-1.97-4.48-3.02-6.7c-1.62-3.41-3.43-6.74-4.96-10.19c-2-4.5-3.84-9.07-5.69-13.63
		c-0.25-0.62-0.16-1.38-0.26-2.48c1.92,0.14,3.64,0.13,5.31,0.41c4.47,0.76,8.83,2,12.84,4.11c6.38,3.36,11.02,8.45,14.08,15
		c1.45,3.09,2.57,6.23,3.12,9.63c0.43,2.72,1.36,5.37,2.18,8.01c2.49,8.04,5.08,16.05,5.8,24.52c0.25,2.96,1.01,5.88,1.62,8.79
		c1.78,8.52,2.49,17.09,0.88,25.72c-0.28,1.5-0.68,3.04-1.34,4.41C664.07,346.08,663.01,347.45,660.47,346.2z M646.12,283.09
		c-1.12,1.69-0.64,2.15,0.76,2.63C646.61,284.8,646.44,284.22,646.12,283.09z"/>
	<path class="st1" d="M580.89,16.58c1.41-0.74,2.56-1.97,4.46-1.73c0.65,0.08,1.44-0.89,2.17-1.38c0.67,0.09,1.44,0.27,2.22,0.3
		c2.98,0.1,5.97,0.01,8.92,0.3c1.35,0.13,2.67,0.88,3.91,1.53c1.15,0.6,2.05,1.65,3.61,0.94c0.46-0.21,1.39,0.23,1.9,0.63
		c1.79,1.39,3.51,2.86,5.22,4.34c1.71,1.49,2.4,3.32,1.63,5.54c-1.58,4.55-3.12,9.12-4.85,13.62c-0.46,1.18-1.53,2.14-2.37,3.16
		c-0.52,0.63-1.42,1.07-1.67,1.76c-0.74,2.07-2.59,2.29-4.04,1.99c-5.95-1.2-12.12-0.54-17.98-2.35c-2.54-0.78-5.78-2.26-7.31-3.82
		c1.9-1.51,4.18,0.35,6.29-0.86c-1.8-0.36-3.39-0.8-5-0.97c-2.79-0.29-5.18-1.13-6.66-4.03c0.52-0.82,1.15-1.83,2.04-3.23
		c-1.3,0.4-2.22,0.69-3.56,1.1c0.12-1.16,0.22-2.1,0.32-3.04c0.15-1.01,0.3-2.01,0.54-3.67c-0.94,2.09-0.94,2.09-0.53,3.67
		c-0.37,0.39-1.03,0.74-1.07,1.16c-0.13,1.41-0.05,2.85-0.05,4.25c-4.69,0.44-7.24-2.42-6.21-6.83c0.68-2.89,2.02-5.35,4.6-7.04
		c4.13-2.71,8.15-5.66,13.47-5.34c-1.23,0.72-2.45,1.44-3.67,2.16c0.09,0.18,0.18,0.36,0.27,0.54c1.02-0.29,2.05-0.59,3.03-0.87
		C580.67,17.72,580.78,17.15,580.89,16.58z M576.14,20.34c-0.16-0.17-0.33-0.34-0.49-0.51c-0.5,0.54-1.01,1.07-1.51,1.61
		c0.13,0.13,0.25,0.26,0.38,0.39C575.05,21.33,575.59,20.83,576.14,20.34z"/>
	<path class="st1" d="M567.85,234.41c0.83,0.67,1.66,1.34,2.69,2.16c2.66-2.7,4.15-5.91,5.23-9.33c1.62-5.14,2.15-10.41,1.94-15.8
		c-0.12-3.14-0.29-6.34,0.88-9.45c4.41,0.47,8.66,0.92,13.16,1.4c0.67,2.47,0.93,4.98,0.75,7.53c-0.22,3.1-0.13,6.16,0.89,9.13
		c0.2,0.58,0.36,1.19,0.41,1.8c0.45,5.58,2.72,10.47,5.61,15.14c1.63,2.64,1.22,4.77-1.49,7.61c-3.5,3.66-7.86,5.16-12.87,4.55
		c-6.19-0.76-10.84-4.14-14.55-8.94c-1.24-1.6-2.29-3.35-3.42-5.03C567.33,234.93,567.59,234.67,567.85,234.41z"/>
	<path class="st1" d="M436.83,122.43c2.04,2.25,4.06,4.51,6.13,6.73c0.1,0.1,0.54-0.11,0.96-0.21c0.13-2.21-1.7-3.62-2.33-5.67
		c2.38,0.43,2.28,3.84,5.12,3.68c-0.19-1.11-0.35-2.08-0.54-3.21c0.46-0.29,1.22-0.52,1.51-1.03c0.24-0.42-0.02-1.17-0.16-1.74
		c-0.53-2.04-1.1-4.07-1.7-6.25c2.04-0.43,3.03,0.52,3.68,1.64c0.82,1.4,1.58,2.91,1.97,4.48c1.1,4.43,3.77,7.85,6.75,11.11
		c1.03,1.13,2.21,2.12,3.21,3.27c0.71,0.82,1.23,1.8,1.78,2.64c-2.19,1.84-4.08,3.54-6.09,5.08c-0.76,0.58-1.77,1.09-2.7,1.15
		c-2.37,0.16-4.43,0.84-6.33,2.98c-3.55-5.06-6.97-9.94-10.64-15.18c3.39-0.15,3.51,4.09,6.86,3.86c-0.25-0.87-0.3-1.67-0.68-2.24
		c-1.84-2.72-3.8-5.35-5.66-8.05c-0.62-0.89-1.08-1.88-1.62-2.83C436.53,122.56,436.68,122.49,436.83,122.43z"/>
	<path class="st1" d="M568.61,124.62c-3.46-0.63-6.49-0.86-9.21,1.58c-1.33-2.67-0.71-5.25,0.12-7.52c0.89-2.44,2.44-4.68,3.95-6.83
		c1.65-2.36,3.36-2.18,4.52,0.41c0.57,1.27,0.96,2.72,0.99,4.1C569.03,119,568.76,121.65,568.61,124.62z"/>
	<path class="st1" d="M532.13,97.66c1.45-3.85,2.73-7.25,3.82-10.14c3.16-0.89,5.93-1.51,8.58-2.45c2.56-0.91,5-2.16,7.86-3.42
		C550.73,84.27,536.05,95.83,532.13,97.66z"/>
	<path class="st1" d="M607.06,115.81c1.5,1.37,2.77,2.38,3.84,3.58c0.48,0.54,0.82,1.48,0.73,2.17c-0.26,2-0.76,3.96-1.17,5.96
		c-2.1-0.13-3.94-0.24-6.17-0.38C604.1,123.55,606.32,120.16,607.06,115.81z"/>
	<path class="st1" d="M564.85,39.39c1.94,0.2,2.65-2.41,4.6-1.4c1.36,0.71,2.75,1.36,4.13,2.04c0.28,0.14,0.55,0.28,0.81,0.42
		c0.22,2.49,0.22,2.49,2.63,5.32c-1.16,0-2.23-0.05-3.28,0.01c-1.87,0.1-1.38-1.73-2.3-2.73C568.81,43.22,566.84,41.73,564.85,39.39
		z"/>
	<path class="st1" d="M583.49,11.97c-2.66,1-5.27,2.13-7.98,2.97c-4.2,1.3-7.89,3.44-11.2,6.28c-0.1,0.09-0.34,0.01-1.03,0.01
		c5.49-6.39,12.72-8.27,19.94-10.18C583.31,11.35,583.4,11.66,583.49,11.97z"/>
	<path class="st1" d="M615.76,32.41c1.49,4.84,0.65,7.27-3.53,9.2c1-3.31,1.91-6.33,2.82-9.34
		C615.29,32.32,615.53,32.36,615.76,32.41z"/>
	<path class="st1" d="M513.51,111.73c0.55-0.46,1.08-0.92,1.67-1.42c0.74,0.41,1.38,0.96,2.11,1.12c0.76,0.17,1.61-0.02,2.66-0.07
		c0,0.88,0,1.71,0,2.5C518.98,114.68,515.45,113.51,513.51,111.73z"/>
	<path class="st1" d="M559.91,38.41c1.71,1.8,3.32,3.51,4.86,5.14C562.12,43.4,560.56,41.85,559.91,38.41z"/>
	<path class="st1" d="M646.53,106.37c0.16,1.17,0.29,2.08,0.45,3.21C644.69,108.31,644.69,108.3,646.53,106.37z"/>
	<path class="st1" d="M643.48,299.36c0,0.88,0,1.76,0,2.63c-0.13,0.01-0.26,0.02-0.39,0.03c0-0.88,0-1.75,0-2.63
		C643.22,299.38,643.35,299.37,643.48,299.36z"/>
	<path class="st1" d="M653.85,123.25c-0.83-0.63-1.66-1.26-2.89-2.19c2.2-0.53,2.64,0.76,3.51,1.34
		C654.27,122.69,654.06,122.97,653.85,123.25z"/>
	<path class="st1" d="M616.58,117.51c1.21,0.73,2.42,1.47,3.63,2.2c-0.1,0.19-0.21,0.39-0.31,0.58c-1.25-0.68-2.49-1.35-3.74-2.03
		C616.3,118,616.44,117.75,616.58,117.51z"/>
	<path class="st1" d="M594.33,10.39c1.14,0,2.27,0,3.41,0c0,0.2,0,0.4,0,0.6c-1.14-0.05-2.28-0.1-3.41-0.15
		C594.32,10.69,594.33,10.54,594.33,10.39z"/>
	<path class="st1" d="M615.26,45.61c-0.88,0.68-1.75,1.36-2.63,2.03c-0.16-0.18-0.32-0.37-0.48-0.55c0.82-0.73,1.63-1.45,2.45-2.18
		C614.82,45.15,615.04,45.38,615.26,45.61z"/>
	<path class="st1" d="M443.25,119.28c-0.57-1.01-1.13-2.01-1.7-3.02c0.22-0.12,0.44-0.24,0.66-0.37c0.56,1.01,1.12,2.02,1.69,3.03
		C443.68,119.04,443.47,119.16,443.25,119.28z"/>
	<path d="M532.35,231.66c-0.29,0.27-0.57,0.55-0.86,0.82c-0.28-0.36-0.56-0.71-0.84-1.07c0.25-0.09,0.5-0.17,0.76-0.24
		C531.73,231.34,532.04,231.5,532.35,231.66z"/>
	<path class="st1" d="M559,32.13c0,0.99,0,1.97,0,2.96c-0.11,0-0.21,0-0.32,0c0-0.99,0-1.97,0-2.96
		C558.78,32.13,558.89,32.13,559,32.13z"/>
	<path class="st1" d="M547.48,60.65c-0.8,0.63-1.6,1.25-2.4,1.88c-0.15-0.19-0.3-0.38-0.45-0.56c0.8-0.63,1.6-1.26,2.4-1.88
		C547.18,60.27,547.33,60.46,547.48,60.65z"/>
	<path class="st1" d="M563.46,130.66c0.19-0.63,0.38-1.27,0.56-1.9c0.25,0.07,0.5,0.14,0.74,0.22c-0.18,0.64-0.36,1.27-0.54,1.91
		C563.97,130.8,563.71,130.73,563.46,130.66z"/>
	<path class="st1" d="M258.08,97.55c1.85-0.45,3.71-0.89,5.62-1.35c-3.61-0.81-7.02,0.29-10.38,1.05c-2.43,0.55-2.6,3.23-2.9,5.08
		c-0.27,1.67-0.99,2.48-2.26,2.83c-1.43,0.39-1.91,1.38-2.43,2.52c-1.02,2.22-2.13,4.4-3.13,6.63c-0.24,0.54-0.29,1.19-0.33,1.79
		c-0.16,2.15-0.3,4.3-0.4,6.45c-0.02,0.47,0.04,1.09,0.33,1.39c1.41,1.51,1.14,3.15,0.67,4.92c-1.17,4.38-1.65,8.77-1.31,13.38
		c0.68,8.96,0.09,17.83-2.99,26.47c-1.29,3.62-1.59,7.6-2.27,11.42c-0.57,3.19-1.82,5.77-4.99,7.26c-1.1,0.51-1.79,1.86-2.72,2.77
		c-2.29,2.23-4.4,4.55-6.07,7.34c-1.03,1.72-2.59,3.19-4.12,4.54c-6.95,6.14-11.93,13.57-14.42,22.49
		c-1.35,4.83-2.09,9.83-3.1,14.75c-1.36,6.63-2.72,13.26-4.09,19.88c-0.06,0.3-0.17,0.6-0.22,0.9c-0.2,1.45-2.69,1.07-2.32,3.21
		c0.31,1.76-1.5,2.52-2.77,3.26c-1.23,0.72-2.69,1.04-3.97,1.69c-2.67,1.36-5.17,0.83-7.68-0.4c-1.59-0.78-2.66-2-2.93-3.73
		c-0.38-2.44-0.81-4.89-0.85-7.35c-0.09-5.15,0.44-10.32,0.03-15.44c-0.59-7.34-0.02-14.6,0.8-21.84
		c0.83-7.25,0.01-14.35-1.19-21.48c-1.4-8.33-2.57-16.71-2.14-25.18c0.38-7.39,1.39-14.72,2.99-21.99
		c2.02-9.12,3.76-18.31,5.48-27.49c0.41-2.21,0.24-4.52,0.43-6.77c0.63-7.68,2.96-14.65,8.33-20.44
		c7.29-7.84,14.59-15.66,23.04-22.31c0.24-0.19,0.46-0.55,0.7-0.57c3.17-0.19,5.23-2.68,7.97-3.75c1.28-0.5,2.47-1.63,3.98-0.4
		c0.24,0.2,0.95-0.08,1.41-0.24c3.5-1.22,6.92-2.68,10.48-3.67c7.06-1.96,13.98-1.81,20.55,1.99c1.78,1.03,3.67,1.88,5.58,2.63
		c3.86,1.51,6.1,4.2,6.91,8.3c0.73,3.72,1.68,7.41,2.73,11.05c0.88,3.07-0.07,5.8-0.86,8.66c-1.94-0.77-1.94-0.77-2.44-3.95
		c-1.16,0.22-1.25,1.11-1.47,2.02c-0.54,2.21-0.91,2.54-3.14,2.4c-2.74-0.18-5.47-0.53-8.2-0.81L258.08,97.55z M242.24,125.39
		c-1.87,2-2.1,4.14-1.11,5.38C241.49,129.02,241.86,127.21,242.24,125.39z M256.5,91.46c-0.21-0.11-0.42-0.21-0.63-0.32
		c-0.24,0.57-0.48,1.13-0.72,1.7c0.16,0.07,0.33,0.14,0.49,0.22C255.92,92.53,256.21,91.99,256.5,91.46z"/>
	<path class="st1" d="M218.94,276.03c-1.82-0.2-3.65-0.41-5.62-0.63c1.06-2.15,1.97-4.02,2.93-5.96c1.19,0.14,2.27,0.26,3.36,0.39
		c0.04-0.12,0.07-0.24,0.11-0.35c-0.89-0.38-1.78-0.75-2.89-1.22c0.38-1.29,0.71-2.56,1.12-3.8c2.53-7.59,5.06-15.18,7.65-22.75
		c0.63-1.84,1.51-3.6,2.19-5.42c0.32-0.86,0.5-1.78,0.61-2.7c0.13-1.14-0.65-1.69-1.62-1.92c-1.03-0.25-1.81,0.16-2.23,1.15
		c-0.08,0.19-0.11,0.4-0.14,0.6c-0.79,4.81-3.19,9.05-4.81,13.56c-2.04,5.7-3.98,11.44-5.97,17.16c-0.13,0.36-0.38,0.68-0.84,1.47
		c-0.11-1.61-0.18-2.72-0.25-3.83c-1.18,2.33-2.55,4.53-1.79,7.26c0.18,0.65-0.01,1.42-0.11,2.12c-0.27,1.86-0.64,3.7-0.86,5.56
		c-0.14,1.15,0.92,2.27,2.62,2.41c3.59,0.29,7.15,0.87,10.72,1.36c0.49,0.07,0.96,0.32,1.63,0.55c-0.17,2.23-0.34,4.44-0.52,6.65
		c-0.36,4.4-0.71,8.8-1.08,13.19c-0.59,7.07-1.05,14.16-1.82,21.21c-0.51,4.7,0.45,9.22,1.02,13.8c0.04,0.36,0.41,0.67,0.56,1.04
		c0.31,0.77,0.57,1.56,0.93,2.57c1.01,0.23,2.45,0.73,3.92,0.85c4.59,0.38,9.24,1.12,13.79,0.78c8.09-0.61,16.13-1.9,24.18-2.94
		c3.45-0.44,6.88-0.98,10.33-1.44c0.79-0.1,1.6-0.02,2.38-0.02c2.53,11.26,1.82,22.56,1.92,34.29c-1.17-0.22-2.21-0.35-3.21-0.61
		c-1.95-0.5-3.86-1.41-5.51,0.82c-0.4,0.55-1.69,0.55-2.58,0.61c-6.86,0.42-13.72,0.85-20.58,1.17c-2.85,0.13-5.71,0.02-9.11,0.21
		c0.5,0.19,1.01,0.38,1.9,0.71c-0.91,0.37-1.42,0.69-1.96,0.78c-6.92,1.1-13.86,1.95-20.9,1.56c-5.24-0.29-10.48-0.52-15.73-0.6
		c-2.56-0.04-5.12,0.4-7.68,0.49c-2.6,0.1-2.76-0.09-2.88-2.75c-0.22-4.93-0.53-9.86-0.56-14.79c-0.02-2.65,0.43-5.32,0.73-7.97
		c0.28-2.43,0.64-4.85,0.99-7.27c0.07-0.5,0.11-1.18,0.43-1.45c1.95-1.61,1.49-3.9,1.71-5.94c0.35-3.26,0.48-6.54,0.69-9.82
		c0.11-1.74,0.29-3.49,0.32-5.23c0.17-11.97,2.05-23.76,3.49-35.61c0.62-5.06,0.46-10.29-0.04-15.38
		c-0.37-3.73-0.05-7.04,1.67-10.34c2.8-5.37,3.99-11.16,4.36-17.17c0.21-3.38,0.49-6.78,1.09-10.11c0.77-4.31,1.13-8.77,3.19-12.74
		c3.35-6.44,7.34-12.39,13.85-16.12c1.51-0.86,3.13-1.79,4.82-0.29c2.73-3.7,6.52-5.07,10.91-5.14c0.51-0.01,1.05,0.24,1.53,0.15
		c4.31-0.81,6.82,1.82,9.15,4.76c3.61,4.54,8.38,6.79,14.09,7.25c0.4,0.03,0.8,0.05,1.62,0.1c0.59,2.42,1.32,4.85,1.76,7.33
		c0.48,2.72,0.62,5.49,1.01,8.22c1.31,9.05,1.88,18.15,2.45,27.27c0.54,8.5,1.97,16.94,2.82,25.43c0.84,8.39,1.43,16.8,2.13,25.2
		c0.07,0.79,0.1,1.59,0.16,2.54c-1.91,0.8-3.92,0.63-5.95,0.52c-1.08-0.06-2.2,0.12-3.27,0.32c-4.25,0.81-8.53,1.31-12.85,0.92
		c-2.31-0.21-3.86-1.83-3.85-4.11c0.05-6.97-1.2-13.96,0.62-20.9c0.66-2.53,0.7-2.73,3.41-2.87c1.3-0.07,2.66-0.2,3.87-0.62
		c1.89-0.66,2.53-1.9,2.26-3.84c-0.62-4.37-1.28-8.74-1.93-13.11c-0.08-0.5-0.15-1.04-0.37-1.49c-2.54-5.15-3.05-10.85-4.39-16.32
		c-0.66-2.69-1.19-5.41-1.79-8.11c-0.59-2.67-0.65-2.7-3.42-2.73c-0.3,0-0.61,0-0.9,0c-1.34-0.98-0.97-3.22-3.06-3.91
		c0,0.57-0.15,1.04,0.02,1.28c2.8,3.96,3.8,8.59,4.85,13.16c1.3,5.69,2.48,11.42,3.49,17.17c0.66,3.73,0.94,7.53,1.37,11.3
		c0.17,1.5-1.2,3.01-3.3,3.38c-2.94,0.51-5.91,1.16-8.87,1.19c-5.75,0.05-11.51-0.2-17.26-0.5c-2.11-0.11-4.2-0.71-6.31-1.09
		c0.66-0.07,1.32-0.14,2.24-0.23c-0.68-0.42-1.09-0.69-1.52-0.92c-0.39-0.2-0.8-0.35-1.2-0.52c-0.1,0.13-0.2,0.26-0.3,0.39
		C218.36,275.13,218.65,275.58,218.94,276.03z M266.06,305.64c-0.01-0.3-0.02-0.59-0.03-0.89c-3.05-0.86-6.05-0.3-9.03,0.89
		C260.02,305.64,263.04,305.64,266.06,305.64z M251.45,229.42c-0.21,0.01-0.43,0.02-0.64,0.04c0.02,1.52,0.12,3.01,1.82,3.97
		C252.24,232.09,251.84,230.76,251.45,229.42z M248.63,275.34c-0.01-0.19-0.03-0.38-0.04-0.57c-0.38,0-0.8-0.1-1.13,0.03
		c-0.35,0.14-0.62,0.49-0.92,0.75c0.08,0.13,0.16,0.26,0.25,0.39C247.4,275.74,248.01,275.54,248.63,275.34z"/>
	<path class="st1" d="M229.07,281.31c6.15,0,11.88,0,17.93,0c0.06,0.63,0.39,1.47,0.18,2.14c-1.77,5.54-1.03,11.21-1,16.84
		c0.01,1.13,0.07,2.26,0.07,3.39c-0.02,4.17,1.38,6.13,5.24,7.73c2.98,1.24,6.07,1.07,9.14,0.91c3.79-0.19,7.57-0.59,11.35-0.99
		c4.08-0.42,8.15-1.04,12.24-1.39c3.67-0.31,7.39-0.12,11.03-0.58c4.05-0.51,8.04-1.5,12.06-2.31c0.81-0.16,1.58-0.52,2.39-0.6
		c2.03-0.21,4.04-0.32,5.88-1.41c0.52-0.31,1.31-0.18,1.88-0.23c0.17,0.33,0.27,0.43,0.26,0.52c-0.53,3.46-0.4,3.57,2.89,2.36
		c1-0.36,1.85-0.46,2.85,0.24c1.81,1.26,4.01,1.58,6.38,2.08c0.52,1.56,1.07,3.26,1.64,4.95c0.36,1.07,1.22,1.23,2.21,1.29
		c1.42,0.09,2.83,0.3,4.49,1.05c-0.76,0.57-1.45,1.25-2.28,1.68c-2.83,1.48-5.59,3.18-8.59,4.2c-2.36,0.8-5.05,1.14-7.53,0.92
		c-3.93-0.35-7.47,0.95-11.16,1.7c-0.76,0.15-1.55,0.31-2.32,0.27c-1.05-0.06-2.01-0.27-2.6,1.01c-0.19,0.41-0.95,0.67-1.49,0.79
		c-5.94,1.23-11.87,2.46-17.83,3.59c-1.17,0.22-2.44-0.09-3.64,0.03c-1.89,0.19-3.76,0.57-5.65,0.8c-7.44,0.9-14.88,1.75-22.32,2.66
		c-1.9,0.23-3.76,0.66-5.63,1.11c-3.53,0.87-7.31,0.81-10.99,0.95c-1.81,0.07-3.64-0.36-5.46-0.47c-2.71-0.16-3.78-0.82-4.31-3.34
		c-0.78-3.73-1.29-7.53-0.69-11.35c1.35-8.56,1.64-17.18,1.84-25.83C227.62,291.12,228.52,286.25,229.07,281.31z M334.71,317.84
		c-0.07-0.23-0.14-0.47-0.21-0.7c-0.59,0.15-1.19,0.3-1.78,0.45c0.04,0.19,0.08,0.38,0.12,0.58
		C333.47,318.06,334.09,317.95,334.71,317.84z"/>
	<path class="st1" d="M272.58,231.9c-1.51-5.05-0.88-9.97-1.61-15.13c0.77,0.52,1.12,0.75,1.47,0.99c0.12-0.08,0.24-0.16,0.36-0.24
		c-0.55-0.93-1.11-1.86-1.64-2.8c-0.4-0.7-0.8-1.41-1.11-2.15c-1.22-2.87-0.81-5.13,1.86-7.22c4.04-3.15,7.86-6.61,11.62-10.09
		c2.41-2.23,4.61-4.7,6.82-7.14c4.42-4.86,8.71-9.84,13.19-14.65c5.38-5.78,10.87-11.47,16.39-17.12c2.73-2.79,5.71-5.32,8.47-8.08
		c1.95-1.95,3.62-4.2,5.6-6.11c2.96-2.86,6.29-5.34,9.06-8.36c2.03-2.22,4.29-4.32,6.02-6.68c1.74-2.37,2.27-5.65,3.21-8.57
		c0.46-1.44,0.66-2.96,1.29-4.44c0.8,3.03-0.96,6.26,0.68,9.77c2.39-4.77,2.31-9.93,5.41-14.24c0.53,2.71-0.15,4.9-0.95,6.94
		c-0.6,1.5-0.66,2.67,0.57,4.23c2-3.53,3.94-6.93,6.19-10.89c-0.13,2.72-0.67,4.01-2.11,5.67c-1.27,1.46-1.27,1.46-0.16,4.16
		c2.53-2.55,4.92-4.97,7.48-7.54c0.37,1.36-0.33,2.08-0.98,2.81c-1.45,1.61-2.9,3.21-4.37,4.8c-0.96,1.04-1.22,2.08,0.02,3.5
		c1.17-0.79,2.29-1.54,3.4-2.29c-1.12,1.6-1.13,3.18-0.2,4.77c-2,2.64-3.83,5.26-5.88,7.69c-1.52,1.81-3.19,3.69-5.79,2.55
		c-0.43,0.31-0.68,0.39-0.74,0.55c-2.26,5.83-6.62,9.99-10.99,14.22c-3.9,3.79-7.68,7.74-11.18,11.9
		c-4.29,5.1-8.24,10.49-12.36,15.73c-0.69,0.88-1.55,1.64-2.25,2.52c-0.64,0.81-1.89,1.37-1.22,2.84c0.12,0.26-0.41,0.87-0.72,1.26
		c-1.99,2.49-4.05,4.93-6,7.45c-2.51,3.25-4.86,6.63-7.44,9.83c-2.19,2.71-4.57,5.27-6.92,7.86c-1.31,1.44-2.67,2.85-4.11,4.17
		c-2.04,1.86-4.18,3.63-6.27,5.43C282.1,223.73,277.5,227.67,272.58,231.9z"/>
	<path class="st1" d="M254.54,104.46c5.57,0.33,10.54,0.63,15.47,0.93c1.84,5.03,3.33,10.11,3.02,15.53c-0.1,1.74-0.07,3.5-0.39,5.2
		c-0.87,4.53-2.01,9.01-2.81,13.55c-0.35,2.02-1.44,2.44-3.17,2.49c-2.88,0.09-5.75,0.28-8.58,0.42c-0.12,0.13-0.19,0.2-0.25,0.28
		c-2.84,4.08,0.08,7.77,0.85,11.59c0.2,0.98,0.81,1.89,1.3,2.78c2.21,4.01,2.19,4.68-1.18,7.87c-3.4,3.22-7.53,5.31-11.79,7.15
		c-1.67,0.72-3.36,1.39-5.17,2.14c-0.67-1.99,0.43-3.89,0.97-5.72c1.47-4.95,2.54-9.97,2.93-15.1c0.22-2.95,0.15-5.96-0.17-8.91
		c-0.42-3.93-0.49-7.78,0.56-11.62c0.85-3.12,0.94-6.31,0.34-9.48c-0.71-3.76,0.46-6.86,2.97-9.59c1.11-1.21,2.23-2.41,3.26-3.69
		c0.42-0.52,0.67-1.22,0.86-1.88C253.94,107.04,254.24,105.66,254.54,104.46z M260.02,118.94c0.2,0.84,0.19,1.98,0.56,2.12
		c2.15,0.83,1.59,2.86,2.16,4.37c0.46,1.23,0.66,2.61,1.32,3.71c1.56,2.6,2.67,2.6,5.13,0.68c1.53-1.2,2.19-2.59,2.1-4.48
		c-0.05-1.02-0.12-2.1,0.17-3.05c1.17-3.83-0.45-7.28-1.42-10.77c-0.59-2.12-2.92-2.55-4.75-2.83c-1.83-0.28-2.99,1.22-3.47,2.91
		C261.13,114.04,260.6,116.53,260.02,118.94z"/>
	<path class="st1" d="M338.09,303.68c-1.09-2.14-2.12-2.65-4.36-2.3c-1.3,0.2-2.59,0.46-3.98,0.7c-0.09-0.54-0.25-0.87-0.16-1.08
		c0.37-0.81,1.3-1.69,0.29-2.42c-0.62-0.45-1.71-0.46-2.55-0.36c-1.61,0.18-3.2,0.59-5.25,0.99c-0.93-6.43-1.83-12.66-2.84-19.61
		c0.99,0.82,1.44,1.11,1.78,1.5c0.92,1.03,1.99,1.21,3.34,1.01c2.41-0.36,4.87-0.43,7.28-0.79c1.72-0.25,3.4-0.76,5.09-1.2
		c0.97-0.25,1.93-0.59,3.39-1.04c0.1,3.55,0.46,6.79,0.22,9.97c-0.28,3.67-1.13,7.29-1.67,10.94c-0.12,0.79,0.1,1.63,0.03,2.43
		C338.68,302.81,338.35,303.18,338.09,303.68z"/>
	<path class="st1" d="M233.78,194.83c-0.53-2.12-0.14-3.54,1.29-4.77c2.5-2.14,4.1-4.87,4.56-8.15c0.19-1.38,0.87-2.25,2.11-2.78
		c2.14-0.91,4.26-1.85,6.58-2.86c1.34,6.2,2.64,12.24,3.97,18.41c-0.82,0.32-1.41,0.79-1.92,0.72c-2.95-0.41-5.97-0.33-8.88-1.08
		c-0.67-0.17-1.4-0.18-2.09-0.12C237.58,194.36,235.76,194.6,233.78,194.83z"/>
	<path class="st1" d="M264.58,157.18c-3.33-2.74-4.04-6-4.37-9.37c-0.12-1.17,0.92-1.61,1.87-1.58c1.99,0.05,3.97,0.29,6.43,0.49
		C267.14,150.37,265.97,153.48,264.58,157.18z"/>
	<path class="st1" d="M336.39,275.39c-3.36,1.6-6.74,3.49-10.58,0.93C329.23,274.14,332.8,274.87,336.39,275.39z"/>
	<path class="st1" d="M250.21,106.31c-1.28,1.74-2.56,3.48-4.03,5.47C246.42,107.75,247.38,106.25,250.21,106.31z"/>
	<path class="st1" d="M258.03,97.49c0.1,2.82,2.39,1.72,3.99,1.99c-2.15,2.02-3.1,2.32-4.14,1.41c-1.07-0.94-1.02-1.73,0.21-3.32
		C258.08,97.55,258.03,97.49,258.03,97.49z"/>
	<path class="st1" d="M250.12,197.06c1.19-0.34,1.85-0.53,2.61-0.75c0.53,1.49,1.01,2.85,1.49,4.21c-0.18,0.13-0.36,0.25-0.53,0.38
		C252.6,199.73,251.51,198.56,250.12,197.06z"/>
	<path class="st1" d="M341.82,282.59c-1.58-1.7-0.88-3.18-0.03-4.64c0.23,0.03,0.46,0.06,0.68,0.09
		C342.26,279.55,342.04,281.07,341.82,282.59z"/>
	<path class="st1" d="M229.84,195.88c-0.55,0.7-1.1,1.39-1.64,2.09c-0.19-0.14-0.38-0.27-0.57-0.41c0.49-0.74,0.98-1.48,1.48-2.22
		C229.35,195.51,229.59,195.7,229.84,195.88z"/>
	<path class="st1" d="M335.65,312.11c-0.87,0.11-1.74,0.23-2.61,0.34c-0.02-0.14-0.05-0.29-0.07-0.43c0.85-0.16,1.7-0.33,2.55-0.49
		C335.57,311.72,335.61,311.91,335.65,312.11z"/>
	<path d="M597.12,159.07c-1.03,1.4-2.03,2.75-3.12,4.23c0,2.51,0,5.28,0,8.05c0,0.3,0.16,0.67,0.04,0.88
		c-2.01,3.53-2.97,7.66-6.35,10.4c-2.82,2.29-6.04,3.11-9.49,2.88c-2.24-0.15-3.56-1.9-4.44-3.86c-3.3-7.37-5.46-14.98-4.85-23.17
		c0.16-2.23,1.65-3.52,3.71-2.7c4.6,1.85,9.45,1.95,14.25,2.34c2.11,0.17,4.3-0.16,6.41-0.51
		C594.66,157.37,595.69,157.63,597.12,159.07z M571.69,159.74c-0.32,5.43,1.98,14.18,4.74,18.6c1.89,3.02,2.69,3.19,6.13,2.41
		c2.95-0.67,4.87-2.87,6.17-4.97c2.37-3.82,3.3-8.28,2.28-12.98C584.45,162.52,578.05,161.99,571.69,159.74z"/>
	<path d="M646.12,283.09c0.33,1.13,0.5,1.71,0.76,2.63C645.48,285.24,644.99,284.78,646.12,283.09z"/>
	<path d="M580.89,16.58c-0.11,0.57-0.22,1.14-0.35,1.83c-0.98,0.28-2,0.58-3.03,0.87c-0.09-0.18-0.18-0.36-0.27-0.54
		c1.22-0.72,2.44-1.44,3.67-2.16C580.92,16.59,580.89,16.58,580.89,16.58z"/>
	<path d="M576.14,20.34c-0.54,0.49-1.08,0.99-1.63,1.48c-0.13-0.13-0.25-0.26-0.38-0.39c0.5-0.54,1.01-1.07,1.51-1.61
		C575.81,20,575.97,20.17,576.14,20.34z"/>
	<path d="M570.16,30.39c-0.41-1.58-0.41-1.58,0.53-3.67C570.45,28.38,570.3,29.38,570.16,30.39
		C570.15,30.39,570.16,30.39,570.16,30.39z"/>
	<path d="M242.24,125.39c-0.37,1.81-0.75,3.63-1.11,5.38C240.13,129.53,240.37,127.39,242.24,125.39z"/>
	<path d="M256.5,91.46c-0.29,0.53-0.57,1.06-0.86,1.59c-0.16-0.07-0.33-0.14-0.49-0.22c0.24-0.57,0.48-1.13,0.72-1.7
		C256.08,91.25,256.29,91.36,256.5,91.46z"/>
	<path d="M266.06,305.64c-3.02,0-6.04,0-9.06,0c2.98-1.19,5.98-1.75,9.03-0.89C266.04,305.05,266.05,305.34,266.06,305.64z"/>
	<path d="M251.45,229.42c0.39,1.34,0.79,2.67,1.18,4.01c-1.7-0.97-1.8-2.46-1.82-3.97C251.02,229.44,251.24,229.43,251.45,229.42z"
		/>
	<path d="M218.94,276.03c-0.29-0.45-0.58-0.9-0.87-1.35c0.1-0.13,0.2-0.26,0.3-0.39c0.4,0.17,0.82,0.32,1.2,0.52
		c0.43,0.23,0.84,0.5,1.52,0.92c-0.93,0.1-1.59,0.16-2.24,0.23C218.85,275.97,218.94,276.03,218.94,276.03z"/>
	<path d="M248.63,275.34c-0.61,0.2-1.23,0.4-1.84,0.6c-0.08-0.13-0.16-0.26-0.25-0.39c0.3-0.26,0.57-0.61,0.92-0.75
		c0.33-0.13,0.75-0.03,1.13-0.03C248.6,274.97,248.61,275.15,248.63,275.34z"/>
	<path d="M334.71,317.84c-0.62,0.11-1.25,0.22-1.87,0.33c-0.04-0.19-0.08-0.38-0.12-0.58c0.59-0.15,1.19-0.3,1.78-0.45
		C334.57,317.37,334.64,317.6,334.71,317.84z"/>
	<path d="M260.02,118.94c0.58-2.4,1.11-4.9,1.8-7.34c0.48-1.69,1.63-3.18,3.47-2.91c1.83,0.27,4.15,0.71,4.75,2.83
		c0.98,3.49,2.59,6.94,1.42,10.77c-0.29,0.95-0.22,2.03-0.17,3.05c0.09,1.89-0.56,3.29-2.1,4.48c-2.46,1.92-3.57,1.92-5.13-0.68
		c-0.66-1.1-0.86-2.48-1.32-3.71c-0.56-1.51,0-3.54-2.16-4.37C260.21,120.91,260.22,119.77,260.02,118.94z M266.64,112.37
		c-2.23,2.04-1.96,4.26-2.27,6.36c1.49-0.34,2.74-0.62,4.18-0.95C267.94,116.03,267.35,114.38,266.64,112.37z"/>
	<path class="st1" d="M571.69,159.74c6.36,2.25,12.76,2.79,19.33,3.06c1.03,4.69,0.1,9.15-2.28,12.98c-1.3,2.1-3.22,4.3-6.17,4.97
		c-3.44,0.79-4.24,0.62-6.13-2.41C573.67,173.92,571.37,165.16,571.69,159.74z"/>
	<path class="st1" d="M266.64,112.37c0.71,2.01,1.29,3.66,1.91,5.41c-1.44,0.33-2.69,0.61-4.18,0.95
		C264.69,116.63,264.41,114.41,266.64,112.37z"/>
	<rect x="-20" y="-58.55" class="st2" width="792" height="554"/>
</g>
</svg>
