<?xml version="1.0" encoding="utf-8"?>
<!-- Generator: Adobe Illustrator 23.0.1, SVG Export Plug-In . SVG Version: 6.00 Build 0)  -->
<svg version="1.1" id="Layer_1" xmlns="http://www.w3.org/2000/svg" xmlns:xlink="http://www.w3.org/1999/xlink" x="0px" y="0px"
	 viewBox="0 0 1024 600" style="enable-background:new 0 0 1024 600;" xml:space="preserve">
<style type="text/css">
	.st0{fill:#060606;}
	.st1{fill:#050505;}
	.st2{fill:#080808;}
	.st3{fill:#222222;}
	.st4{fill:#2B2C2C;}
	.st5{fill:#1A1A1A;}
	.st6{fill:#EFEEED;}
	.st7{fill:#B3B3B3;}
	.st8{fill:#0A0A0A;}
	.st9{fill:#636362;}
	.st10{fill:#0C0C0C;}
	.st11{fill:#FFFFFF;}
	.st12{fill:#FBFAFA;}
	.st13{fill:#F5F4F4;}
	.st14{fill:#F0EFEF;}
	.st15{fill:#F1F0EF;}
	.st16{fill:#EFEEEE;}
	.st17{fill:#F1EFEF;}
	.st18{fill:#EDEBEB;}
	.st19{fill:#F0EFEE;}
	.st20{fill:#F3F2F1;}
	.st21{fill:#DFDEDE;}
	.st22{fill:#EEEDED;}
	.st23{fill:#E5E4E3;}
	.st24{fill:#E6E5E5;}
	.st25{fill:#DBD9D9;}
	.st26{fill:#EDEDEC;}
	.st27{fill:#E1E1E0;}
	.st28{fill:#E2E1E0;}
	.st29{fill:#E6E5E4;}
	.st30{fill:#E9E8E7;}
	.st31{fill:#D7D6D6;}
	.st32{fill:#EDECEC;}
	.st33{fill:#F5F5F5;}
	.st34{fill:#EAE9E8;}
	.st35{fill:#191919;}
	.st36{fill:#0F0F0F;}
	.st37{fill:#E3E2E2;}
	.st38{fill:#DBDAD9;}
	.st39{fill:#DFDEDD;}
	.st40{fill:#CECCCC;}
	.st41{fill:#E1DFDF;}
	.st42{fill:#434343;}
	.st43{fill:#F8F8F7;}
	.st44{fill:#4D4D4D;}
	.st45{fill:#DDDBDB;}
	.st46{fill:#DEDCDC;}
	.st47{fill:#D4D3D2;}
	.st48{fill:#232323;}
	.st49{fill:#E0DEDE;}
	.st50{fill:#D9D8D7;}
	.st51{fill:#D0CFCF;}
	.st52{fill:#E5E4E4;}
	.st53{fill:#C2C2C2;}
	.st54{fill:#272828;}
	.st55{fill:#313232;}
	.st56{fill:#282829;}
	.st57{fill:#E2E0E0;}
	.st58{fill:#E9E8E8;}
	.st59{fill:#323232;}
	.st60{fill:#D1D0D0;}
	.st61{fill:#EAE8E8;}
	.st62{fill:#C2C0C0;}
	.st63{fill:#B3B2B2;}
	.st64{fill:#CFCFCE;}
	.st65{fill:#AEAEAE;}
	.st66{fill:#989797;}
	.st67{fill:#949494;}
	.st68{fill:#DADAD9;}
	.st69{fill:#ABABAB;}
	.st70{fill:#D4D2D2;}
	.st71{fill:#CCCBCA;}
	.st72{fill:#969595;}
	.st73{fill:#3C3C3C;}
	.st74{fill:#929292;}
	.st75{fill:#F4F3F3;}
	.st76{fill:#DBDBDA;}
	.st77{fill:#CCCBCB;}
	.st78{fill:#DDDCDC;}
	.st79{fill:#FCFCFB;}
	.st80{fill:#FCFBFB;}
	.st81{fill:#F8F7F7;}
	.st82{fill:#505151;}
	.st83{fill:#F6F5F5;}
	.st84{fill:#E1E0E0;}
	.st85{fill:#C4C4C4;}
	.st86{fill:#1E1E1E;}
	.st87{fill:#D2D2D2;}
	.st88{fill:#252626;}
	.st89{fill:#282828;}
	.st90{fill:#E8E6E6;}
	.st91{fill:#D5D4D3;}
	.st92{fill:#C0BFBF;}
	.st93{fill:#2B2C2B;}
	.st94{fill:#C1C1C0;}
	.st95{fill:#ECEAEA;}
	.st96{fill:#EBEAEA;}
	.st97{fill:#DCDBDA;}
	.st98{fill:#636363;}
	.st99{fill:#FDFCFC;}
	.st100{fill:#FEFEFE;}
	.st101{fill:#E8E7E7;}
	.st102{fill:#DAD9D9;}
	.st103{fill:#C9C8C7;}
	.st104{fill:#DBDADA;}
	.st105{fill:#121212;}
	.st106{fill:#1D1E1E;}
	.st107{fill:#656565;}
	.st108{fill:#1B1B1B;}
	.st109{fill:#090909;}
	.st110{fill:#858585;}
	.st111{fill:#9F9E9E;}
	.st112{fill:#A8A8A8;}
	.st113{fill:#B4B3B3;}
	.st114{fill:#111111;}
	.st115{fill:#171718;}
	.st116{fill:#5C5B5A;}
	.st117{fill:#F0F0EF;}
	.st118{fill:#DEDDDD;}
	.st119{fill:#EDECEB;}
	.st120{fill:#050606;}
	.st121{fill:#0B0B0B;}
	.st122{fill:#161616;}
	.st123{fill:#404141;}
	.st124{fill:#ACACAC;}
	.st125{fill:#FCFCFC;}
	.st126{fill:#FDFDFD;}
	.st127{fill:#FBFBFA;}
	.st128{fill:#FAFAF9;}
	.st129{fill:#202020;}
	.st130{fill:#E1E1E1;}
	.st131{fill:#E5E3E3;}
	.st132{fill:#D4D4D3;}
	.st133{fill:#C6C5C5;}
	.st134{fill:#B1B1B1;}
	.st135{fill:#E3E2E1;}
	.st136{fill:#C5C4C4;}
	.st137{fill:#373737;}
	.st138{fill:#E7E6E5;}
	.st139{fill:#2E2F2F;}
	.st140{fill:#D8D8D7;}
	.st141{fill:#3A3A39;}
	.st142{fill:#303030;}
	.st143{fill:#131313;}
	.st144{fill:#0D0D0D;}
	.st145{fill:#151515;}
	.st146{fill:#0D0C0C;}
	.st147{fill:#F7F7F6;}
	.st148{fill:#EEEDEC;}
	.st149{fill:#D9D7D7;}
	.st150{fill:#5B5A5A;}
	.st151{fill:#5D5D5D;}
	.st152{fill:#EBEAE9;}
	.st153{fill:#101010;}
	.st154{fill:#0B0C0C;}
	.st155{fill:#FDFDFC;}
	.st156{fill:#F2F1F1;}
	.st157{fill:#F7F6F6;}
	.st158{fill:#F7F6F5;}
	.st159{fill:#F3F2F2;}
	.st160{fill:#F6F5F4;}
	.st161{fill:#F1F0F0;}
	.st162{fill:#F4F3F2;}
	.st163{fill:#C7C5C5;}
	.st164{fill:#D6D5D4;}
	.st165{fill:#CAC9C9;}
	.st166{fill:#222323;}
	.st167{fill:#161717;}
	.st168{fill:#DAD9D8;}
	.st169{fill:#E7E5E5;}
	.st170{fill:#E2E0DF;}
	.st171{fill:#D9D8D8;}
	.st172{fill:#CAC8C8;}
	.st173{fill:#C9C7C7;}
	.st174{fill:#E0DFDF;}
	.st175{fill:#E4E3E3;}
	.st176{fill:#E7E5E4;}
	.st177{fill:#E6E4E4;}
	.st178{fill:#C9C8C8;}
	.st179{fill:#F8F7F6;}
	.st180{fill:#E9E7E7;}
	.st181{fill:#EEEDEE;}
	.st182{fill:#0A0A0B;}
	.st183{fill:#8E8D8D;}
	.st184{fill:#D3D2D1;}
	.st185{fill:#393A3A;}
	.st186{fill:#4D4E4D;}
	.st187{fill:#C6C6C6;}
	.st188{fill:#ECEBEB;}
	.st189{fill:#CECDCD;}
	.st190{fill:#404040;}
	.st191{fill:#B9B8B8;}
	.st192{fill:#CFCECD;}
	.st193{fill:#C4C3C3;}
	.st194{fill:#979797;}
	.st195{fill:#ABA9A9;}
	.st196{fill:#D5D4D4;}
	.st197{fill:#B6B4B4;}
	.st198{fill:#292A2A;}
	.st199{fill:#3B3C3C;}
	.st200{fill:#060707;}
	.st201{fill:#0A0B0B;}
	.st202{fill:#424343;}
	.st203{fill:#3D3E3E;}
	.st204{fill:#A9A8A8;}
	.st205{fill:#D6D4D4;}
	.st206{fill:#FAF9F9;}
	.st207{fill:#F4F2F2;}
	.st208{fill:#F9F8F7;}
	.st209{fill:#E2E1E1;}
	.st210{fill:#202121;}
	.st211{fill:#F5F4F3;}
	.st212{fill:#272727;}
	.st213{fill:#9B9A9A;}
	.st214{fill:#BFBEBE;}
	.st215{fill:#262626;}
	.st216{fill:#828181;}
	.st217{fill:#C3C2C2;}
	.st218{fill:#B5B5B5;}
	.st219{fill:#AEAFAF;}
	.st220{fill:#E3E1E1;}
	.st221{fill:#C0BEBE;}
	.st222{fill:#BBBABA;}
	.st223{fill:#232424;}
	.st224{fill:#D7D5D5;}
	.st225{fill:#292929;}
	.st226{fill:#444444;}
	.st227{fill:#1B1C1C;}
	.st228{fill:#0E0E0E;}
	.st229{fill:#0F1010;}
	.st230{fill:#2F3030;}
	.st231{fill:#111212;}
	.st232{fill:#181818;}
	.st233{fill:#111112;}
	.st234{fill:#121313;}
	.st235{fill:#141414;}
	.st236{fill:#191A1A;}
	.st237{fill:#0D0E0E;}
	.st238{fill:#181919;}
	.st239{fill:#1C1C1C;}
	.st240{fill:#0E0F0F;}
	.st241{fill:#1E1F1F;}
	.st242{fill:#171717;}
	.st243{fill:#1E1E1D;}
	.st244{fill:#131414;}
	.st245{fill:#333333;}
	.st246{fill:#212222;}
	.st247{fill:#3A3B3B;}
	.st248{fill:#525352;}
	.st249{fill:#2A2B2A;}
	.st250{fill:#FAFAFA;}
	.st251{fill:#EFEDED;}
	.st252{fill:#0C0D0D;}
	.st253{fill:#0A0B0A;}
	.st254{fill:#161515;}
	.st255{fill:#232425;}
	.st256{fill:#F6F6F5;}
	.st257{fill:#FEFEFD;}
	.st258{fill:#262727;}
	.st259{fill:#1D1D1D;}
	.st260{fill:#171818;}
	.st261{fill:#414040;}
	.st262{fill:#282929;}
	.st263{fill:#1A1B1B;}
	.st264{fill:#141515;}
	.st265{fill:#2D2D2D;}
	.st266{fill:#343535;}
	.st267{fill:#3C3D3D;}
	.st268{fill:#2F2F30;}
	.st269{fill:#1B1B1C;}
	.st270{fill:#313131;}
	.st271{fill:#3F4040;}
	.st272{fill:#111010;}
	.st273{fill:#101111;}
	.st274{fill:#1C1D1D;}
	.st275{fill:#242525;}
	.st276{fill:#CFCDCD;}
	.st277{fill:#323333;}
	.st278{fill:#CFCDCC;}
	.st279{fill:#D7D7D7;}
	.st280{fill:#303131;}
	.st281{fill:#B0AFAF;}
	.st282{fill:#CDCDCD;}
	.st283{fill:#242424;}
	.st284{fill:#121111;}
	.st285{fill:#1F1F1F;}
	.st286{fill:#2E2D2D;}
	.st287{fill:#F9F8F8;}
	.st288{fill:#191A19;}
	.st289{fill:#070808;}
	.st290{fill:#1A1A1B;}
	.st291{fill:#525252;}
	.st292{fill:#C5C3C3;}
	.st293{fill:#2C2C2C;}
	.st294{fill:#D8D7D7;}
	.st295{fill:#ECECEB;}
	.st296{fill:#D5D3D3;}
	.st297{fill:#BDBBBB;}
	.st298{fill:#BEBDBC;}
	.st299{fill:#FFFFFE;}
	.st300{fill:#F9F9F9;}
	.st301{fill:#F2F2F1;}
	.st302{fill:#DCDBDB;}
	.st303{fill:#B8B6B6;}
	.st304{fill:#EAE9E9;}
	.st305{fill:#7B7A7A;}
	.st306{fill:#252525;}
	.st307{fill:#D7D6D5;}
	.st308{fill:#A3A3A3;}
	.st309{fill:#D4D3D3;}
	.st310{fill:#424242;}
	.st311{fill:#313231;}
	.st312{fill:#585757;}
	.st313{fill:#1C1C1D;}
	.st314{fill:#434243;}
	.st315{fill:#343434;}
	.st316{fill:#1F2020;}
	.st317{fill:#E1E0DF;}
	.st318{fill:#2F2F2F;}
	.st319{fill:#171817;}
	.st320{fill:#101110;}
	.st321{fill:#151616;}
	.st322{fill:#EBE9E9;}
	.st323{fill:#ECEBEA;}
	.st324{fill:#F3F3F2;}
	.st325{fill:#D2D2D1;}
	.st326{fill:#E4E2E2;}
	.st327{fill:#E4E3E2;}
	.st328{fill:#E7E6E6;}
	.st329{fill:#CECDCC;}
	.st330{fill:#E4E4E4;}
	.st331{fill:#C4C3C2;}
	.st332{fill:#D6D5D5;}
	.st333{fill:#070707;}
	.st334{fill:#3F3E3D;}
	.st335{fill:#B7B5B5;}
	.st336{fill:#ACABAB;}
	.st337{fill:#080909;}
	.st338{fill:#3A3A3A;}
	.st339{fill:#010101;}
	.st340{fill:#6E6E6E;}
	.st341{fill:#C7C5C4;}
	.st342{fill:#BCBBBB;}
	.st343{fill:#FFFEFE;}
	.st344{fill:#F4F4F3;}
	.st345{fill:#D8D8D8;}
	.st346{fill:#818081;}
	.st347{fill:#2D2E2E;}
	.st348{fill:#9E9E9E;}
	.st349{fill:#282928;}
	.st350{fill:#2A2B2B;}
	.st351{fill:#040404;}
	.st352{fill:none;}
	.st353{fill:#2C2D2D;}
	.st354{fill:#474747;}
	.st355{fill:#3F3F3F;}
	.st356{fill:#EEECEC;}
	.st357{fill:#D7D7D6;}
	.st358{fill:#E7E7E7;}
	.st359{fill:#616161;}
	.st360{fill:#EAEAE9;}
	.st361{fill:#A9A9A9;}
	.st362{fill:#FBF9F9;}
	.st363{fill:#E0E0E0;}
	.st364{fill:#A4A4A4;}
	.st365{fill:#D5D5D5;}
	.st366{fill:#E6E6E6;}
	.st367{fill:#3E3E3E;}
	.st368{fill:#DDDCDB;}
	.st369{fill:#A0A0A0;}
	.st370{fill:#E8E7E6;}
	.st371{fill:#E4E4E3;}
	.st372{fill:#3E3F3F;}
	.st373{fill:#848383;}
	.st374{fill:#D2D1D1;}
	.st375{fill:#DFDFDE;}
	.st376{fill:#B7B6B6;}
	.st377{fill:#D1D0CF;}
	.st378{fill:#A7A7A6;}
	.st379{fill:#8D8E8E;}
	.st380{fill:#757575;}
	.st381{fill:#C2C1C1;}
	.st382{fill:#C8C8C7;}
	.st383{fill:#ABAAAA;}
	.st384{fill:#CBCAC9;}
	.st385{fill:#C6C6C5;}
	.st386{fill:#A7A6A7;}
	.st387{fill:#888888;}
	.st388{fill:#F0EEEE;}
	.st389{fill:#AEADAD;}
	.st390{fill:#292A29;}
	.st391{fill:#CCCCCC;}
	.st392{fill:#D3D2D2;}
	.st393{fill:#EFEFEF;}
	.st394{fill:#3C3D3C;}
	.st395{fill:#C8C7C8;}
	.st396{fill:#1D1D1E;}
	.st397{fill:#AAAAAA;}
	.st398{fill:#F9F9F8;}
	.st399{fill:#F2F1F0;}
	.st400{fill:#DAD8D8;}
	.st401{fill:#D0CFCE;}
	.st402{fill:#ECECEC;}
	.st403{fill:#676766;}
	.st404{fill:#BBBABB;}
	.st405{fill:#565655;}
	.st406{fill:#C8C6C6;}
	.st407{fill:#E0DFDE;}
	.st408{fill:#8C8C8C;}
	.st409{fill:#6F6E6F;}
	.st410{fill:#BAB9B9;}
	.st411{fill:#EEEEEE;}
	.st412{fill:#C7C7C7;}
	.st413{fill:#8A898A;}
	.st414{fill:#505050;}
	.st415{fill:#B5B3B3;}
	.st416{clip-path:url(#SVGID_2_);}
	.st417{clip-path:url(#SVGID_4_);}
	.st418{clip-path:url(#SVGID_6_);}
	.st419{fill:#CFCECE;}
	.st420{fill:#383939;}
	.st421{fill:#DEDEDE;}
	.st422{clip-path:url(#SVGID_8_);}
	.st423{clip-path:url(#SVGID_10_);}
	.st424{fill:#0B0C0B;}
	.st425{fill:#C7C6C6;}
	.st426{fill:#1E1E1F;}
	.st427{fill:#F8F8F8;}
	.st428{clip-path:url(#SVGID_12_);}
	.st429{clip-path:url(#SVGID_14_);}
	.st430{clip-path:url(#SVGID_16_);}
	.st431{clip-path:url(#SVGID_18_);}
	.st432{fill:#969696;}
	.st433{fill:#353636;}
	.st434{fill:#0E0E0F;}
	.st435{fill:#484948;}
	.st436{fill:#0D0E0D;}
	.st437{fill:#111211;}
	.st438{fill:#242425;}
	.st439{fill:#343534;}
	.st440{fill:#4A4B4B;}
	.st441{fill:#414242;}
	.st442{fill:#B4B4B4;}
	.st443{fill:#FBFBFB;}
	.st444{fill:#FEFDFD;}
	.st445{fill:#666666;}
	.st446{fill:#565756;}
	.st447{clip-path:url(#SVGID_20_);}
	.st448{clip-path:url(#SVGID_22_);}
</style>
<g>
	<defs>
		<rect id="SVGID_7_" width="1024" height="600"/>
	</defs>
	<clipPath id="SVGID_2_">
		<use xlink:href="#SVGID_7_"  style="overflow:visible;"/>
	</clipPath>
	<g class="st416">
		<defs>
			<rect id="SVGID_9_" x="-9.72" y="-60.28" width="1041" height="740.16"/>
		</defs>
		<clipPath id="SVGID_4_">
			<use xlink:href="#SVGID_9_"  style="overflow:visible;"/>
		</clipPath>
		<g class="st417">
			<path class="st0" d="M1076.1,842.4c-8.68-6.85-17.75-13.27-25.93-20.68c-8.09-7.33-18.24-11.18-26.85-17.62
				c-18.29-13.68-37.29-26.42-55.52-40.17c-22.31-16.83-43.86-34.67-66.27-51.35c-13.14-9.78-27.46-17.95-41.02-27.19
				c-22.63-15.42-42.63-34.36-65.19-49.75c-12.72-8.68-24.9-18.24-38.29-25.96c-1.57-0.91-2.97-2.2-4.28-3.49
				c-10.66-10.52-22.63-19.33-34.95-27.79c-8.04-5.52-15.17-12.38-22.41-18.87c-12.38-11.1-25.17-21.68-37.66-32.63
				c-3.58-3.14-6.57-7.03-9.51-10.82c-3.71-4.79-8.81-6.03-14.36-6.18c-14.33-0.41-28.64,2.05-42.81,1.7
				c-13.53-0.34-27,1.04-40.65,0c-14.62-1.12-29.71-2.29-44.46,0.45c-5.05,0.94-9.64-0.98-14.5-1.16c-18-0.68-35.94,1.66-53.88,1.18
				c-23.21-0.62-46.44-1.74-69.49-4.84c-6.3-0.85-10.66,2.76-15.46,5.72c-11.82,7.28-21.61,17.27-33.29,24.71
				c-15.83,10.08-30.49,21.76-45.61,32.82c-0.84-0.86-0.73-1.75-0.06-2.64c8.41-7.32,17.64-13.55,26.59-20.16
				c10.4-7.68,21.57-14.23,31.06-23.28c5.65-5.39,12.57-9.83,19.62-13.27c8.52-4.16,9.18-11.11,7.74-18.38
				c-1.42-7.12-1-14.27-1.25-21.3c-0.28-7.69-1.49-15.34-1.09-23.11c0.5-9.77,0.81-19.66-0.1-29.38
				c-1.15-12.24-2.32-24.45-2.24-36.74c0.08-12.51-0.63-25-0.97-37.49c-0.42-15.22,0.98-30.49,0.93-45.73
				c-0.04-13.1-0.84-26.2-2.08-39.27c-2.34-24.54-1.13-49.14-0.06-73.67c0.48-11.02-0.91-21.91-0.43-32.9
				c0.18-4.12,1.23-8.11,1-12.46c-0.34-6.32-4.13-8.95-7.85-11.84c-13.66-10.63-26.58-22.11-39.56-33.54
				c-11.03-9.71-23.65-17.37-34.85-26.91c-8.18-6.97-17.04-13.09-24.99-20.43c-11.86-10.94-24.29-21.26-36.45-31.87
				c-0.72-0.63-1.19-1.55-1.78-2.34c-0.67-0.75-0.77-1.51-0.02-2.27c14.25,10.27,27.69,21.54,40.91,33.09
				c3.66,3.61,7.37,7.16,10.8,10.98c0.24,0.32,0.53,0.59,0.88,0.8c-0.28-0.14-0.48-0.38-0.72-0.61c-0.02-0.98,0.32-1.47,1.34-1.06
				c6.82,2.01,9.96,8.56,15.25,12.55c12.71,9.59,24.51,20.36,36.98,30.28c8.5,6.76,16.03,14.53,24.15,21.68
				c4.73,4.16,9.73,8.01,14.51,12.12c1.22,1.05,2.43,1.34,3.9,1.28c13.81-0.51,27.62,0.44,41.44-0.93
				c8.67-0.86,17.5,0.05,26.24-0.38c29.89-1.45,59.71,1.15,89.57,1.51c12.84,0.15,25.61,0.77,38.51,0.21
				c15.47-0.67,30.98-0.53,46.48-1.39c5.73-0.32,11.62-0.85,17.41-0.23c8.92,0.96,17.75-3.12,26.74-0.37
				c0.91,0.28,2.52-1.16,3.58-2.07c17.99-15.49,38.85-26.93,57.94-40.85c1.24-0.45,1.51,0.05,1.16,1.17
				c-20.1,15.46-42.11,28.27-61.7,44.47c-1.86,1.54-2.69,2.73-2.52,4.93c1.78,23.13,0.43,46.33,1.37,69.45
				c0.75,18.4,2.33,36.78,2.33,55.22c0,21.01,0.54,42.05-0.31,63.03c-0.36,8.92,0.68,17.81,0.01,26.56
				c-1,13.11,0.53,26.01,1.75,38.86c1.3,13.6,1.58,27.24,0.66,40.68c-1.37,20.1-0.5,40.15-0.84,60.21
				c-0.09,5.51-0.05,11.26,1.4,16.48c1.48,5.29,6.57,8.8,10.45,12.39c14.83,13.75,30.18,26.97,45.65,40.01
				c5.22,4.4,11.43,7.61,17.07,11.52c9.6,6.65,17.27,15.53,26.13,23.06c11.98,10.18,24.89,18.8,38.56,26.4
				c12.24,6.8,21.58,17.27,32.59,25.6c18.96,14.34,37.03,29.74,57.32,42.49c22.4,14.09,44.65,28.72,64.03,47.2
				c7.03,6.7,15.32,12.2,23.52,17.49c4.91,3.17,8.92,7.29,13.71,10.57c20,13.69,39.71,27.78,59.95,41.16
				c14.89,9.84,28.15,22.14,42.1,33.39c0.41,0.33,0.46,1.12,0.68,1.69C1077.35,842.85,1076.77,842.92,1076.1,842.4z"/>
			<path class="st11" d="M168.35,272.35c-0.35,0.85-0.7,1.7-1.05,2.55c-7.36-0.11-14.72-0.12-22.08-0.08
				c-3.68,0.02-5.22-1.67-5.09-5.29c0.31-8.41,0.73-16.85,2.46-25.06c2.23-10.51,3.92-21.01,3.76-31.78
				c-0.1-6.84,1.45-8.15,8.17-6.5c13.98,3.44,27.61,8.15,41.46,12.11c31.55,9,63.21,17.59,94.64,27.01c4.74,1.42,6.72,3.48,6,8.64
				c-0.94,6.7-2.12,13.4-2.46,20.17c-0.15,3.15-1.58,4.47-4.6,4.38c-13.73-0.4-27.48,0.72-41.19-1.26
				c-9.35-1.35-18.84-0.42-28.27-1.02c-5.12-0.33-7.97-1.77-9.17-6.93c-2.27-9.76-6.8-18.48-13.17-26.24
				c-1.71-2.08-3.41-4.15-5.71-5.58c-6.26-3.89-12.16-1.67-14.51,5.29c-2.69,7.97-6.2,15.7-6.39,24.35
				C171.1,269.12,170.34,271.17,168.35,272.35z"/>
			<path class="st333" d="M168.35,272.35c0.88-11,4.04-21.47,7.68-31.8c2.68-7.57,12.63-8.76,17.63-4.15
				c10.05,9.26,16.76,20.59,19.32,34.09c0.55,2.89,1.15,4.48,4.47,4.36c23.49-0.82,46.81,3.24,70.31,2.48
				c2.99-0.1,4.79,0.32,4.83-4.28c0.07-7.65,1.76-15.3,3.05-22.91c0.38-2.24-0.61-2.14-2.15-2.57
				c-38.71-10.96-77.22-22.63-116.26-32.42c-8.37-2.1-16.48-5.22-24.7-7.91c-3.51-1.15-5.33-0.56-5.02,3.73
				c0.97,13.35-1.32,26.33-4.35,39.31c-1.43,6.12-1.26,12.61-1.79,18.94c-0.28,3.35,1.13,4.37,4.6,4.48
				c7.11,0.22,14.36-1.54,21.32,1.2c-0.6,2.69-2.58,1.24-3.98,1.24c-7,0.02-14-0.1-21-0.06c-2.78,0.01-4.89-0.3-4.65-3.94
				c1.51-22.51,7.02-44.58,7.34-67.2c0.04-2.95,1.31-3.64,3.74-3.14c8.08,1.66,16.42,2.59,24.15,5.27
				c16.65,5.78,32.8,13.05,49.86,17.62c23.43,6.28,46.9,12.37,69.92,20.09c7.65,2.56,7.9,2.26,5.6,12.89
				c-1.46,6.75-3.34,13.36-1.75,20.39c0.7,3.11-2.28,2.39-3.59,2.27c-10.99-1.02-22.01-0.25-32.99-0.66
				c-13.63-0.51-27.26-1.38-40.86-2.45c-5.09-0.4-5.52,2.18-4.57,5.79c4.79,18.27,6.74,37.08,10.8,55.49
				c1.48,6.69,1.35,13.72,2.69,20.45c5.01,25.29,6.35,51.23,13.43,76.16c1.05,3.7,4.98,7.21,1.03,11.76
				c-3.19,3.68-6.56,4.59-10.85,2.77c-3.13-1.33-5.87-1.11-8.33,1.46c-4.35,4.53-9.43,3.99-13.9,0.81
				c-4.43-3.15-8.09-4.29-13.09-1.03c-3.92,2.56-8.89,0.27-10.82-4.42c-3.71-9-5.98-18.28-4.83-28.18
				c0.94-8.13-0.51-16.19-1.14-24.27c-0.16-2.12-0.66-3.27-3.52-2.24c-8.34,2.99-17.32-3.54-16.39-12.62
				c2.85-27.89,2.11-56.02,6.15-83.85C166.82,287.75,168.56,280.11,168.35,272.35z"/>
			<path class="st333" d="M879.24,138.47c2.3,3.1,5.7,5.29,1.87,8.58c-0.64,0.55-0.24,2.37-0.24,3.6
				c0.08,18.04-1.52,36.02-2.12,54.01c-0.45,13.5-1.4,27-2,40.48c-0.49,11.12-0.96,22.31-1.91,33.45c-1,11.76,0.83,23.61,1.78,35.43
				c0.57,7.1,0.09,14.75-0.98,21.95c-1.89,12.71-0.99,25.4-0.89,38.07c0.08,10.67-2.3,21.18-1.32,31.85
				c0.09,0.95-0.04,2.01-1.22,2.64c-2.87-6.66-9.65-7.99-14.93-10.76c-18.36-9.66-36.78-19.11-54.59-29.83
				c-14.28-8.59-29.79-15.1-44.51-22.98c-6.75-3.61-12.97-8.77-20.3-10.67c-8.59-2.24-7.2-6.68-5.78-12.97
				c1.4-6.19,0.07-12.74,0.1-19.12c0.09-21.05,0.53-42.09,1.31-63.12c0.2-5.43,0.68-11.04-0.1-16.33
				c-1.05-7.16,2.68-10.31,7.93-13.06c26.53-13.91,53.61-26.67,80.93-38.99c16.58-7.48,33.52-14.34,49.24-23.64
				C874.77,145.14,879.43,144.28,879.24,138.47z"/>
			<path class="st201" d="M273.66,567.85c0.02,0.88,0.04,1.76,0.06,2.64c-19.53,14.58-40.55,26.51-63.08,35.84
				c-7.99,3.31-15.31,7.98-22.29,13.07c-1.63,1.19-3.03,1.87-4.92,1.78c-1.79,1.14-4.38,1.14-5.22,3.64
				c-5.01,5.8-12.27,8.21-18.59,11.93c-14.48,8.53-27.14,19.45-40.53,29.42c-13.12,9.76-26.35,19.38-39.53,29.07
				c-0.6,0.55-1.14,0.49-1.61-0.17c5.2-7.33,13.5-10.81,20.27-16.19c18.61-14.77,37.12-29.72,56.99-42.81
				c13.17-8.67,25.99-17.86,40.18-24.99c13.74-6.91,27.35-14.1,41.02-21.15C249.21,583.31,261.27,575.26,273.66,567.85z"/>
			<path class="st121" d="M206.88,11.51c0.01,0.76,0.01,1.51,0.02,2.27c-41.79-30.89-77.51-69.25-121.12-97.95
				c5.41-0.54,8.13,3.48,11.49,6.2c11.1,8.98,23.85,15.68,34.57,25.16c21.85,19.31,44.85,37.23,67.06,56.1
				C201.68,5.64,205.21,7.83,206.88,11.51z"/>
			<path class="st10" d="M731.21,68.63c25.27-17.48,50.99-34.36,75.64-52.67c16.28-12.09,33.26-23.28,48.71-36.54
				c5.71-4.9,12.67-8.37,19.05-12.49c1.16-0.49,1.32,0.15,1.22,1.08c-10.72,8.18-21.67,16.05-32.47,24.12
				c-24.3,18.16-49.05,35.72-73.87,53.19c-12.06,8.49-24.67,16.2-37.03,24.26C731.35,70.18,731.23,69.47,731.21,68.63z"/>
			<path class="st232" d="M731.21,68.63c0.42,0.32,0.84,0.64,1.26,0.96c-8.27,8.35-18.74,13.54-28.52,19.71
				c-0.39-0.39-0.78-0.78-1.16-1.17C711.91,81.12,721.45,74.72,731.21,68.63z"/>
			<path class="st306" d="M259.14,56.12C253.17,54.43,251,49,247.79,44.6c4.65,2.71,9.22,5.5,12.3,10.12c-0.35,0.5-0.7,1-1.05,1.5
				L259.14,56.12z"/>
			<path class="st11" d="M380,469.3c0-18.66,0.42-34.33-0.19-49.95c-0.28-7.06-0.21-14.28-2.05-21.27
				c-0.31-1.16-1.44-3.24,2.01-2.39c2.33,0.57,1.63-2.49,1.38-3.66c-1.87-8.73,1.33-18.4-1.69-26.13
				c-4.71-12.09-2.52-23.98-3.03-35.92c-0.53-12.52-0.27-25.1,0.14-37.63c0.32-9.74,2.35-19.46-0.14-29.18
				c7.65-9.33,1.63-20.28,3.59-30.29c0.21-1.07,1.58-2.58,0.03-3.23c-5.16-2.19-3.59-6.65-3.67-10.42
				c-0.26-12.53,0.98-25.01,0.23-37.61c-0.41-6.94,1.22-14.12,0.63-21.26c-0.28-3.45,2.19-4.05,4.81-4.11
				c5.67-0.12,11.35,0.15,17-0.17c16.46-0.93,32.98-1.35,49.41-1.34c21.15,0.02,42.34-0.44,63.53,1.02c14.57,1,29.33-0.57,44-1.11
				c6.4-0.24,12.77,0.07,19.23-0.69c10.41-1.23,20.99-1.06,31.5-1.48c4.81-0.19,6.97,1.19,7.18,6.94
				c0.68,19.06,3.23,38.08,3.23,57.12c0,18.91-2.13,37.83-3.47,56.73c-0.48,6.82,1.03,13.44,1.67,20.13
				c1.32,13.82,2.28,27.5,1.23,41.5c-1.19,15.75-0.5,31.63,0.3,47.53c0.94,18.47,3.84,37.07,0.65,55.68
				c-1.28,7.49-0.53,15.41,0.38,22.64c1.55,12.26-1.58,24.09-0.69,36.12c0.08,1.02,0.02,2.06,0.05,3.09
				c0.16,6.85-2.13,8.45-8.96,8.46c-14.21,0.02-28.42,0.03-42.64,0.66c-12.75,0.57-25.56-0.38-38.35-0.47
				c-20.28-0.14-40.58,0.14-60.85-0.31c-9.88-0.22-19.8,1.27-29.7-0.81c-3.24-0.68-6.88,0.41-10.31,0.87
				c-13.68,1.82-27.05-3.23-40.69-1.78c-2.37,0.25-3.19-0.48-3.34-2.98C381.66,491.16,380.69,478.73,380,469.3z"/>
			<path class="st11" d="M620.86,507.35c2.35-4.78,0.19-9.37-0.3-13.72c-0.53-4.71-1.1-9.22,0.22-13.87
				c2.28-8.02,0.74-16.24,0.07-24.19c-0.87-10.43,0.71-20.68,0.35-31.04c-0.7-19.83-1.99-39.68-1.9-59.48
				c0.06-13.18,2.27-26.44,1.78-39.73c-0.82-22.11-4.8-44.09-3.54-66.28c0.95-16.73,3.34-33.49,2.13-50.2
				c-1.33-18.48-2.6-36.96-3.47-55.47c-0.13-2.7-1.6-3.5-4.02-3.44c-20.11,0.52-40.23,1.62-60.32,1.27
				c-10.23-0.17-20.47,0.73-30.61,0.89c-9.29,0.15-18.72,0.18-28.08,0.22c-23.7,0.09-47.4-0.1-71.1,0.17
				c-12.73,0.15-25.53-0.55-38.15,1.45c-3.37,0.54-7.27-3.3-9.3-0.07c-1.39,2.21,0.52,6.28,0.28,9.46
				c-1.49,20.35-0.94,40.72-1.07,61.09c-0.01,0.82,0.29,1.93-0.12,2.43c-7.96,9.49-1.51,20.66-3.64,30.81
				c-0.33,1.56,0.46,3.18,2.02,3.33c1.98,0.18,1.84,1.37,1.68,2.49c-1.62,11.55,0.81,23.09,0.04,34.63
				c-1.2,17.98,0.22,35.95,0.25,53.92c0.01,7.68-3.85,14.49-3.06,22.19c0.62,5.98-0.04,12.08,0.45,18.07
				c0.24,2.91,3.92,4.14,4.19,7.92c0.76,10.91,0.21,21.84,0.98,32.73c1.07,15.19,0.17,30.4,1.48,45.64
				c0.66,7.67,2.39,16.02-0.51,23.92c-0.33,0.9-0.06,1.91-1.14,2.62c-4.23,2.78-13-1.26-13.77-6.23
				c-3.6-23.07-3.03-46.34-3.98-69.56c-0.65-15.89-0.48-31.81-1.59-47.7c-1.08-15.52-2.29-31.16-1.52-46.65
				c0.71-14.31,1.7-28.67,0.6-42.84c-1.15-14.92-0.35-29.84-1.5-44.75c-0.55-7.18-1.7-14.67,0.29-22.25
				c1.52-5.77-1.39-12.02-1.01-18.25c1.36-22.13,1.66-44.29,1.27-66.45c-0.07-3.9,1.28-5.49,5.4-5.42
				c11.87,0.21,23.88,1.16,35.59-0.21c14.78-1.73,29.54-0.09,44.29-1.54c12.85-1.27,25.81-0.16,38.67,1.55
				c6.07,0.81,12.26,0.8,18.41,0.9c17.32,0.28,34.67,1.2,51.95,0.39c16.23-0.75,32.52,0.79,48.64-1.17
				c11.11-1.35,22.17-0.8,33.25-1.06c5.63-0.13,7.99,2.54,6.94,8.09c-2.45,12.89-1.9,25.95-0.76,38.77
				c0.99,11.11,0.71,22.15,0.7,33.19c-0.02,16.93,1.92,33.68,3.28,50.49c0.29,3.52-2.31,6.03-2.12,9.75
				c0.85,16.28-0.11,32.62,1.43,48.88c0.45,4.79-0.98,9.31-1.24,13.99c-0.86,15.44,0.8,30.84,1.58,46.2
				c0.7,13.88,3.02,27.78,1.94,41.67c-0.96,12.4-1.5,24.8-1.22,37.18c0.28,12.21-0.83,24.46,1.2,36.65
				c1.21,7.29-0.18,8.52-7.44,8.59C630.79,507.39,625.85,507.35,620.86,507.35z"/>
			<path class="st128" d="M377.52,245.01c0,3.68-0.1,7.36,0.04,11.03c0.08,2.17-0.77,2.99-2.83,2.67c-1.68-0.26-3.76-0.84-3.14-2.83
				c2.13-6.79,0.63-13.68,0.88-20.51c0.1-2.7,0.79-4.75,3.33-4.64c2.65,0.12,1.57,2.81,1.63,4.47c0.11,3.26,0.03,6.53,0.03,9.8
				C377.48,245.01,377.5,245.01,377.52,245.01z"/>
			<path class="st211" d="M372.61,382.17c-1.29-4.59,2.69-9.74,0.25-15.1c-0.69-1.51,0.98-1.86,2.28-2
				c1.93-0.21,2.37,0.68,2.45,2.47c0.31,6.99,0.86,13.97,1.13,20.95c0.05,1.31,1.11,3.73-1.64,3.67c-2.25-0.05-4.53-0.69-4.48-3.78
				C372.63,386.54,372.61,384.69,372.61,382.17z"/>
			<path class="st401" d="M259.04,56.21c2.47-0.05,3.77,1.38,5.2,4.13c-3.14-0.63-4.21-2.32-5.1-4.22
				C259.14,56.12,259.04,56.21,259.04,56.21z"/>
			<path class="st2" d="M260.42,247.58c3.13,1.85,1.94,4.36,2.09,6.45c0.25,3.46-0.11,7.01,0.5,10.39c0.25,1.39,0.88,4.06,3.11,3.94
				c2.19-0.12,2.65-2.21,2.58-4.16c-0.07-1.97,0.25-4.44,2.49-3.94c2.45,0.55,0.91,2.8,0.45,4.47c-0.83,2.95-1.14,6.47-5.27,6.33
				c-3.69-0.12-5.19-2.77-6.5-6.09C257.55,259.07,259.4,253.59,260.42,247.58z"/>
			<path class="st121" d="M233.98,255.6c2.05,5.3,1.12,8.51-2.43,9.29c-4.26,0.93-7.09-1.33-8.52-5.08
				c-2.23-5.85-0.76-12.11-1.63-18.11c-0.19-1.31,0.43-1.33,1.17-1.42c1.45-0.18,1.54,0.84,1.65,1.93c0.4,4.19,1.67,8.27,1.28,12.57
				c-0.29,3.13,0.39,6.73,3.64,7.44C233.2,263.08,232.23,258.45,233.98,255.6z"/>
			<path class="st11" d="M226.09,366.86c0.07,12.93,3.42,21.96,4.33,31.34c1.14,11.76,2.83,23.43,6.01,34.87
				c0.61,2.18,1.41,4.2,2.18,6.28c0.96,2.6,0.66,5.28-0.9,7.59c-1.81,2.68-3.66,0.05-5.36-0.33c-4.09-0.91-7.88-1.4-11.6,1.36
				c-3.12,2.32-6.64,2.04-9.74-0.15c-4.05-2.85-8.1-2.77-12.72-1.49c-8.18,2.26-11.62-0.38-12.42-8.58
				c-1.81-18.56-3.37-37.12-3.8-55.78c-0.25-10.75,2.89-20.92,4.51-31.33c2.09-13.48,1.89-26.96,1.71-40.48
				c-0.02-1.65-0.48-4.23-2.46-3.83c-1.95,0.39-0.52,2.63-0.53,4.15c-0.08,7.12-0.35,14.25-0.99,21.34
				c-1.08,12.1-0.71,24.36-4.46,36.18c-0.97,3.04-4.05,5.65-1.91,9.91c0.87,1.74-2.5,2.23-3.79,0.57c-1.96-2.51-4.51-4.02-7.32-3.4
				c-5.47,1.21-4.34-2.27-4.12-5.11c1.11-14.27,2.37-28.52,3.42-42.79c1.35-18.45,2.65-36.81,6.37-55.07
				c2.03-9.95,3.96-19.82,7.17-29.44c2.22-6.65,4.09-6.81,10.64-4.19c7.97,3.19,9.94,10.49,12.78,16.9
				c6.55,14.75,9.26,30.56,11.24,46.51c1.57,12.66,5.36,24.89,7.69,37.4C223.93,349.54,225.09,359.91,226.09,366.86z"/>
			<path class="st75" d="M166.3,377.37c4.87,0.38,11.08,5.32,10.59,7.81c-0.47,2.39-1.59,3.88-4.56,3.48
				c-4.08-0.56-10.23-5.66-9.67-8.55C163.16,377.5,165.11,377.17,166.3,377.37z"/>
			<path class="st11" d="M878.36,146.57c-0.49,17.6,1.08,34.12-2.43,50.46c-0.85,3.96-0.65,8.16-0.83,12.14
				c-0.48,10.4-1.99,20.73-1.81,31.2c0.17,9.42,0.27,18.83-0.85,28.33c-1.17,9.95-0.69,20.19,0.12,30.22
				c0.3,3.77-0.57,7.23-0.53,10.86c0.23,21,0.02,42.01,0.15,63.02c0.06,9.52-2.01,18.9-1.1,29.28c-8.04-4.35-15.64-7.96-22.73-12.39
				c-16.91-10.56-35.08-18.73-52.47-28.36c-19.18-10.62-39.16-19.76-57.73-31.52c-2.5-1.58-3.31-3-3.3-5.74
				c0.08-22.62-0.75-45.28,0.37-67.84c0.6-12.09,0.61-24.16,0.85-36.23c0.07-3.71,1.65-5.4,4.54-7
				c23.24-12.81,47.33-23.89,71.35-35.09c19.44-9.06,39.48-16.8,58.46-26.87C872.71,149.83,874.95,148.5,878.36,146.57z"/>
			<path class="st154" d="M604.07,316.93c0.45,8.62,0.29,16.92,1.47,25.02c1.13,7.82,0.27,15.57,0.76,23.33
				c0.12,1.87-0.61,2.28-2.48,2.35c-5.92,0.21-11.83,0.94-17.75,1.12c-8.67,0.26-9.09,0.14-9.36-8.52
				c-0.39-12.59-0.06-25.2-0.12-37.81c-0.02-3.14,1.14-4.22,4.4-4.29C588.7,317.98,596.42,317.36,604.07,316.93z"/>
			<path class="st143" d="M204.29,308.24c3.86,4.79,4.23,10.81,5.64,16.42c2.52,10.03,3.13,20.29,2.49,30.77
				c-0.61-4.36-1.4-8.7-1.79-13.08c-0.92-10.2-2.75-20.2-5.89-29.96c-0.42-1.32-0.22-2.83-0.31-4.25L204.29,308.24z"/>
			<path class="st1" d="M205.49,366.27c0.82-6.51,0.2-12.98-0.75-19.45C208.28,353.19,206.52,359.77,205.49,366.27z"/>
			<path class="st426" d="M204.43,308.14c-2.23-1.96-2.86-4.44-2.4-7.29l-0.13,0.12c2.9,1.73,2.84,4.44,2.39,7.28
				C204.29,308.24,204.43,308.14,204.43,308.14z"/>
			<path class="st228" d="M202.03,300.85c-1.94-0.77-2.28-2.47-2.85-5.96c2.4,2.51,4.66,3.17,2.72,6.08
				C201.9,300.96,202.03,300.85,202.03,300.85z"/>
			<path class="st0" d="M851.25,371.99c-2.59,0.84-4.65,0.18-6.52-0.77c-20.02-10.13-40.27-19.7-60.78-28.85
				c-13.32-5.95-26.48-12.6-39.48-19.38c-1.08-0.56-2.13-1.18-1.89-2.76c4.13-26.85,3.31-53.9,3.66-80.92
				c0.06-4.97,1.15-10.08,0.94-15.15c-0.1-2.5,0.83-3.83,3.04-4.47c15.86-4.64,30.99-11.43,46.7-16.41
				c16.08-5.1,31.88-10.82,47.42-17.33c6.83-2.86,8.93-1.57,7.75,5.73c-2.05,12.67,0.69,25.12,1.04,37.67
				c0.32,11.38,0.18,22.81-0.54,34.17c-0.92,14.36-1,28.73-1.69,43.08c-0.68,14.14-0.25,28.4-3.02,42.46
				c-1.07,5.43,0.04,11.27-0.59,16.84C846.89,369.37,850.76,369,851.25,371.99z"/>
			<path class="st126" d="M601.01,319.06c2.91,15.22,2.88,29.4,2.83,43.58c-0.01,1.85-0.63,2.48-2.46,2.48
				c-6.02-0.02-11.91,1.69-18.01,1.29c-3.16-0.21-4.34-1.24-4.33-4.42c0.03-11.84-0.03-23.69-0.26-35.53
				c-0.09-4.4,1.35-6.54,6.04-5.92c2.8,0.37,5.58,0.09,8.46,0.92C595.51,322.1,598.97,323.6,601.01,319.06z"/>
			<path class="st11" d="M776.76,240.18c3-0.67,2.7,2.44,4.07,3.64c0.81,0.71,1.46,1.5,2.6,1.16c1.39-0.41,0.8-1.67,0.89-2.58
				c0.1-1.02-0.32-2.23,0.1-3.05c0.86-1.69-2.49-4.11,0.9-5.15c3.14-0.96,3.56,1.87,4.7,3.63c1.93,2.97,2.43,6.44,2.89,9.78
				c0.87,6.39-1.26,8.55-7.65,8.57c-6.83,0.03-6.81,0.02-4.65,6.79c1.28,4.01,2.27,8.13,3.79,12.05c1.55,4.01-0.94,6.17-2.51,9.43
				c-5.86,12.17-15.97,6.33-23.97,5.85c-9.37-0.56-8.67-1.78-8.36-11.87c0.4-13.13,2.14-26.14,2.72-39.24
				c0.22-4.87,1.63-9.68,1.19-14.63c-0.23-2.56,1.38-3.43,3.54-4.17c24.14-8.26,48.31-16.43,72.33-25.02
				c6.38-2.28,12.25-5.95,19.37-7.72c-0.59,11.44,0.3,22.42-0.74,33.49c-0.75,8.02-0.19,16.35,1.1,24.33
				c1.57,9.67,0.59,19.25,0.45,28.84c-0.15,9.54-1.61,19.06-2.25,28.6c-0.18,2.69-0.58,4.45-3.76,4.03
				c-5.85-0.76-11.69-1.6-17.56-2.21c-2.37-0.25-3.24-0.84-3.38-3.57c-0.42-8-2.55-15.33-9.72-20.32c-2.6-1.81-1.53-4.72-0.52-7.15
				c1.99-4.82,3.5-9.83,6.37-14.28c2.59-4.03,1.23-5.87-3.49-5.64c-2.88,0.15-5.79,0.24-8.65-0.04c-1.98-0.2-4.9,3.13-5.72-0.37
				c-0.84-3.56-1.78-7.9,1.85-10.91c1.84-1.53,4.01-2.66,6.03-3.97l-0.02-0.1c0.35,1.76,0.2,3.58,1.38,5.22
				c1.1,1.52,0.84,4.32,3.76,3.96c2.79-0.35,2.68-2.59,2.71-4.68c0.01-1.13-0.4-2.63,1.62-2.5c0.2,0.01,0.41-0.02,0.61-0.07
				c2.38-0.62,1.98-3.65,1.49-3.86c-5.71-2.45-0.26-9.86-5.6-12.22c-0.45-0.2-1.45-0.04-1.69,0.3c-2.51,3.53-4.31,3.64-7.5,0.13
				c-1.64-1.81-4.3,0.77-3.72,3.47c2.01,9.28-5.58,17.07-3.86,26.26c0.21,1.13-0.43,1.98-1.79,1.73c-1.94-0.36-2.27-2-1.76-3.3
				c1.94-4.96,0.3-9.52-1.39-13.99c-1.44-3.81-4.43-7-1.38-11.65c1.19-1.81-9.84-9.86-11.71-8.3c-2.87,2.37-5.52,3.26-9.32,3.58
				c-3.38,0.28-3.26,4.18-1.07,6.71c1.13,1.3,2.99,1.97,4.88,3.15c-1.07,1.84-2.55,3.73-3.3,5.88c-0.63,1.79-1.42,4.48,1.11,5.37
				c2.72,0.96,4.86-0.13,4.79-3.57L776.76,240.18z"/>
			<path class="st11" d="M844.98,367.73c-21.53-10.08-41.97-19.28-62.06-29.22c-9.56-4.73-18.92-9.87-28.75-14.07
				c-3.71-1.59-5.84-4.06-5.72-8.41c0.19-6.78,0.01-13.58,0.06-20.37c0.01-1.64-0.67-4.46,2.51-3.27c6.55,2.46,13.5,0.43,20.09,2.17
				c2.79,0.74,3.88,1.23,3.62,4.97c-1.12,16.18,13.65,29.9,29.41,27.01c7.57-1.39,13.46-6.49,16.17-14.18
				c1.37-3.9,2.62-5.95,7.75-4.58c4.98,1.32,10.5,0.8,15.77,1.57c2.41,0.35,3.64,0.56,3.62,3.42
				C847.3,330.96,843.94,348.97,844.98,367.73z"/>
			<path class="st11" d="M782.11,258.66c9.69,0.08,19,2.23,28.3,0.11c2.61-0.59,3.3,0.87,2.34,3.02
				c-2.37,5.33-1.83,11.77-6.64,16.23c-2.41,2.23,0.62,3.01,1.95,3.73c12.5,6.78,13.32,19.97,8.64,30.52
				c-4.27,9.62-13.03,12.65-24.86,9.03c-13.8-4.22-15.82-19.75-7.46-32.25c0.11-0.17,0.26-0.33,0.41-0.46
				c5.12-4.39,9.1-8.22,2.11-15.13C783.8,270.38,783.77,264.2,782.11,258.66z"/>
			<path class="st19" d="M780.08,228.58c-0.16-2.64-3.95-5.25-0.46-7.6c1.76-1.18,4.01,0.53,4.44,1.6
				C785.38,225.91,781.58,226.54,780.08,228.58z"/>
			<path class="st323" d="M769.57,225.76c0.75-1.93,2.22-1.82,3.66-1.79c2.78,0.06,2.59,2.03,2.47,3.9
				c-0.06,0.9,0.27,2.51-1.22,2.12C772.24,229.4,770.84,227.51,769.57,225.76z"/>
			<path class="st15" d="M776.94,240.01c-1.22,0.26-3.24,1.07-3.52,0.68c-0.85-1.22,0.29-2.47,0.87-3.75
				c0.62-1.36,1.47-3.27,2.62-2.72c3.69,1.79-1.04,3.9-0.15,5.97C776.76,240.18,776.94,240.01,776.94,240.01z"/>
			<path class="st427" d="M785.38,231.5c-1.47,0.04-2.71-0.31-2.1-1.54c0.77-1.54,1.88-3.12,3.92-3.32c1.01-0.1,2.24-0.04,2.02,1.37
				C788.85,230.3,786.93,230.97,785.38,231.5z"/>
			<path class="st119" d="M810.61,232.91c-0.63-3.66,1.11-5.32,4.73-6.72C814.59,229.47,814.26,232.04,810.61,232.91z"/>
			<path class="st31" d="M808.7,238.49c5.18-0.46,6.72,1.8,4.54,6.58c-2.55-1.5-1.38-5.55-4.56-6.67
				C808.67,238.39,808.7,238.49,808.7,238.49z"/>
			<path class="st46" d="M804.71,226.35c0.78,1.03,1.58,1.71,1.85,2.56c0.36,1.17-0.72,2.14-1.58,2.06
				c-0.69-0.06-1.69-1.24-1.78-2.01C803.12,228.23,804.06,227.39,804.71,226.35z"/>
			<path class="st16" d="M812.75,235.62c2.77-1.2,4.38-0.23,6.13,1.47C816.38,238.41,814.72,237.39,812.75,235.62z"/>
			<path class="st188" d="M750.03,224.04c0.04-0.17,0.26-1.02,1.26-0.94c1.09,0.09,0.91,1.06,0.86,1.76
				c-0.05,0.69,0.1,1.74-1.14,1.54C750.08,226.25,749.83,225.52,750.03,224.04z"/>
			<path class="st168" d="M781.16,235.15c1.05,2.28,0.94,3.8,0.19,5.76C780.18,239.06,780.48,237.51,781.16,235.15z"/>
			<path class="st228" d="M584.02,334.74c-0.07-5.75,2.92-9.18,8.03-9.22c3.82-0.03,9.06,4.62,9.26,8.21
				c0.22,4.17-5.53,10.39-9.55,10.32C588.09,343.99,584.07,339.15,584.02,334.74z"/>
			<path class="st229" d="M587.23,363.66c1.9-3.4,1.91-6.04-0.23-8.81c-1.26-1.63-0.99-3.78,0.9-5.4c1.75-1.5,3.44-1.21,5.34-0.46
				c2.23,0.89,2.62,2.85,2.77,4.78c0.09,1.12-0.54,2.29-0.8,3.45c-0.45,2.05,4.03,3.15,1.26,5.49
				C594.09,364.72,591.08,363.81,587.23,363.66z"/>
			<path class="st125" d="M597.65,334.48c-0.01,3.51-1.21,6.57-4.7,6.53c-3.6-0.04-6.76-1.76-6.48-6.48
				c0.15-2.53,0.25-6.19,3.22-5.12C592.39,330.38,598.09,328.56,597.65,334.48z"/>
			<path class="st304" d="M591.73,357.65c-0.6-0.79-1.25-1.55-1.78-2.39c-0.75-1.17-1.71-2.41-0.34-3.73c0.53-0.5,1.46-1.16,1.97-1
				c1.81,0.57,1.14,2.26,1.16,3.54c0.02,1.19-0.22,2.38-0.34,3.58C592.18,357.66,591.95,357.66,591.73,357.65z"/>
			<path class="st317" d="M591.73,357.65c0.22-0.02,0.44-0.02,0.67,0c0.11,1.23,2.4,1.83,1.02,3.46c-0.19,0.22-0.82,0.32-1.09,0.18
				C590.6,360.36,591.71,358.91,591.73,357.65z"/>
		</g>
	</g>
</g>
</svg>
