<?xml version="1.0" encoding="utf-8"?>
<!-- Generator: Adobe Illustrator 23.0.1, SVG Export Plug-In . SVG Version: 6.00 Build 0)  -->
<svg version="1.1" id="Layer_1" xmlns="http://www.w3.org/2000/svg" xmlns:xlink="http://www.w3.org/1999/xlink" x="0px" y="0px"
	 viewBox="0 0 1024 600" style="enable-background:new 0 0 1024 600;" xml:space="preserve">
<style type="text/css">
	.st0{fill:#060606;}
	.st1{fill:#050505;}
	.st2{fill:#080808;}
	.st3{fill:#222222;}
	.st4{fill:#2B2C2C;}
	.st5{fill:#1A1A1A;}
	.st6{fill:#EFEEED;}
	.st7{fill:#B3B3B3;}
	.st8{fill:#0A0A0A;}
	.st9{fill:#636362;}
	.st10{fill:#0C0C0C;}
	.st11{fill:#FFFFFF;}
	.st12{fill:#FBFAFA;}
	.st13{fill:#F5F4F4;}
	.st14{fill:#F0EFEF;}
	.st15{fill:#F1F0EF;}
	.st16{fill:#EFEEEE;}
	.st17{fill:#F1EFEF;}
	.st18{fill:#EDEBEB;}
	.st19{fill:#F0EFEE;}
	.st20{fill:#F3F2F1;}
	.st21{fill:#DFDEDE;}
	.st22{fill:#EEEDED;}
	.st23{fill:#E5E4E3;}
	.st24{fill:#E6E5E5;}
	.st25{fill:#DBD9D9;}
	.st26{fill:#EDEDEC;}
	.st27{fill:#E1E1E0;}
	.st28{fill:#E2E1E0;}
	.st29{fill:#E6E5E4;}
	.st30{fill:#E9E8E7;}
	.st31{fill:#D7D6D6;}
	.st32{fill:#EDECEC;}
	.st33{fill:#F5F5F5;}
	.st34{fill:#EAE9E8;}
	.st35{fill:#191919;}
	.st36{fill:#0F0F0F;}
	.st37{fill:#E3E2E2;}
	.st38{fill:#DBDAD9;}
	.st39{fill:#DFDEDD;}
	.st40{fill:#CECCCC;}
	.st41{fill:#E1DFDF;}
	.st42{fill:#434343;}
	.st43{fill:#F8F8F7;}
	.st44{fill:#4D4D4D;}
	.st45{fill:#DDDBDB;}
	.st46{fill:#DEDCDC;}
	.st47{fill:#D4D3D2;}
	.st48{fill:#232323;}
	.st49{fill:#E0DEDE;}
	.st50{fill:#D9D8D7;}
	.st51{fill:#D0CFCF;}
	.st52{fill:#E5E4E4;}
	.st53{fill:#C2C2C2;}
	.st54{fill:#272828;}
	.st55{fill:#313232;}
	.st56{fill:#282829;}
	.st57{fill:#E2E0E0;}
	.st58{fill:#E9E8E8;}
	.st59{fill:#323232;}
	.st60{fill:#D1D0D0;}
	.st61{fill:#EAE8E8;}
	.st62{fill:#C2C0C0;}
	.st63{fill:#B3B2B2;}
	.st64{fill:#CFCFCE;}
	.st65{fill:#AEAEAE;}
	.st66{fill:#989797;}
	.st67{fill:#949494;}
	.st68{fill:#DADAD9;}
	.st69{fill:#ABABAB;}
	.st70{fill:#D4D2D2;}
	.st71{fill:#CCCBCA;}
	.st72{fill:#969595;}
	.st73{fill:#3C3C3C;}
	.st74{fill:#929292;}
	.st75{fill:#F4F3F3;}
	.st76{fill:#DBDBDA;}
	.st77{fill:#CCCBCB;}
	.st78{fill:#DDDCDC;}
	.st79{fill:#FCFCFB;}
	.st80{fill:#FCFBFB;}
	.st81{fill:#F8F7F7;}
	.st82{fill:#505151;}
	.st83{fill:#F6F5F5;}
	.st84{fill:#E1E0E0;}
	.st85{fill:#C4C4C4;}
	.st86{fill:#1E1E1E;}
	.st87{fill:#D2D2D2;}
	.st88{fill:#252626;}
	.st89{fill:#282828;}
	.st90{fill:#E8E6E6;}
	.st91{fill:#D5D4D3;}
	.st92{fill:#C0BFBF;}
	.st93{fill:#2B2C2B;}
	.st94{fill:#C1C1C0;}
	.st95{fill:#ECEAEA;}
	.st96{fill:#EBEAEA;}
	.st97{fill:#DCDBDA;}
	.st98{fill:#636363;}
	.st99{fill:#FDFCFC;}
	.st100{fill:#FEFEFE;}
	.st101{fill:#E8E7E7;}
	.st102{fill:#DAD9D9;}
	.st103{fill:#C9C8C7;}
	.st104{fill:#DBDADA;}
	.st105{fill:#121212;}
	.st106{fill:#1D1E1E;}
	.st107{fill:#656565;}
	.st108{fill:#1B1B1B;}
	.st109{fill:#090909;}
	.st110{fill:#858585;}
	.st111{fill:#9F9E9E;}
	.st112{fill:#A8A8A8;}
	.st113{fill:#B4B3B3;}
	.st114{fill:#111111;}
	.st115{fill:#171718;}
	.st116{fill:#5C5B5A;}
	.st117{fill:#F0F0EF;}
	.st118{fill:#DEDDDD;}
	.st119{fill:#EDECEB;}
	.st120{fill:#050606;}
	.st121{fill:#0B0B0B;}
	.st122{fill:#161616;}
	.st123{fill:#404141;}
	.st124{fill:#ACACAC;}
	.st125{fill:#FCFCFC;}
	.st126{fill:#FDFDFD;}
	.st127{fill:#FBFBFA;}
	.st128{fill:#FAFAF9;}
	.st129{fill:#202020;}
	.st130{fill:#E1E1E1;}
	.st131{fill:#E5E3E3;}
	.st132{fill:#D4D4D3;}
	.st133{fill:#C6C5C5;}
	.st134{fill:#B1B1B1;}
	.st135{fill:#E3E2E1;}
	.st136{fill:#C5C4C4;}
	.st137{fill:#373737;}
	.st138{fill:#E7E6E5;}
	.st139{fill:#2E2F2F;}
	.st140{fill:#D8D8D7;}
	.st141{fill:#3A3A39;}
	.st142{fill:#303030;}
	.st143{fill:#131313;}
	.st144{fill:#0D0D0D;}
	.st145{fill:#151515;}
	.st146{fill:#0D0C0C;}
	.st147{fill:#F7F7F6;}
	.st148{fill:#EEEDEC;}
	.st149{fill:#D9D7D7;}
	.st150{fill:#5B5A5A;}
	.st151{fill:#5D5D5D;}
	.st152{fill:#EBEAE9;}
	.st153{fill:#101010;}
	.st154{fill:#0B0C0C;}
	.st155{fill:#FDFDFC;}
	.st156{fill:#F2F1F1;}
	.st157{fill:#F7F6F6;}
	.st158{fill:#F7F6F5;}
	.st159{fill:#F3F2F2;}
	.st160{fill:#F6F5F4;}
	.st161{fill:#F1F0F0;}
	.st162{fill:#F4F3F2;}
	.st163{fill:#C7C5C5;}
	.st164{fill:#D6D5D4;}
	.st165{fill:#CAC9C9;}
	.st166{fill:#222323;}
	.st167{fill:#161717;}
	.st168{fill:#DAD9D8;}
	.st169{fill:#E7E5E5;}
	.st170{fill:#E2E0DF;}
	.st171{fill:#D9D8D8;}
	.st172{fill:#CAC8C8;}
	.st173{fill:#C9C7C7;}
	.st174{fill:#E0DFDF;}
	.st175{fill:#E4E3E3;}
	.st176{fill:#E7E5E4;}
	.st177{fill:#E6E4E4;}
	.st178{fill:#C9C8C8;}
	.st179{fill:#F8F7F6;}
	.st180{fill:#E9E7E7;}
	.st181{fill:#EEEDEE;}
	.st182{fill:#0A0A0B;}
	.st183{fill:#8E8D8D;}
	.st184{fill:#D3D2D1;}
	.st185{fill:#393A3A;}
	.st186{fill:#4D4E4D;}
	.st187{fill:#C6C6C6;}
	.st188{fill:#ECEBEB;}
	.st189{fill:#CECDCD;}
	.st190{fill:#404040;}
	.st191{fill:#B9B8B8;}
	.st192{fill:#CFCECD;}
	.st193{fill:#C4C3C3;}
	.st194{fill:#979797;}
	.st195{fill:#ABA9A9;}
	.st196{fill:#D5D4D4;}
	.st197{fill:#B6B4B4;}
	.st198{fill:#292A2A;}
	.st199{fill:#3B3C3C;}
	.st200{fill:#060707;}
	.st201{fill:#0A0B0B;}
	.st202{fill:#424343;}
	.st203{fill:#3D3E3E;}
	.st204{fill:#A9A8A8;}
	.st205{fill:#D6D4D4;}
	.st206{fill:#FAF9F9;}
	.st207{fill:#F4F2F2;}
	.st208{fill:#F9F8F7;}
	.st209{fill:#E2E1E1;}
	.st210{fill:#202121;}
	.st211{fill:#F5F4F3;}
	.st212{fill:#272727;}
	.st213{fill:#9B9A9A;}
	.st214{fill:#BFBEBE;}
	.st215{fill:#262626;}
	.st216{fill:#828181;}
	.st217{fill:#C3C2C2;}
	.st218{fill:#B5B5B5;}
	.st219{fill:#AEAFAF;}
	.st220{fill:#E3E1E1;}
	.st221{fill:#C0BEBE;}
	.st222{fill:#BBBABA;}
	.st223{fill:#232424;}
	.st224{fill:#D7D5D5;}
	.st225{fill:#292929;}
	.st226{fill:#444444;}
	.st227{fill:#1B1C1C;}
	.st228{fill:#0E0E0E;}
	.st229{fill:#0F1010;}
	.st230{fill:#2F3030;}
	.st231{fill:#111212;}
	.st232{fill:#181818;}
	.st233{fill:#111112;}
	.st234{fill:#121313;}
	.st235{fill:#141414;}
	.st236{fill:#191A1A;}
	.st237{fill:#0D0E0E;}
	.st238{fill:#181919;}
	.st239{fill:#1C1C1C;}
	.st240{fill:#0E0F0F;}
	.st241{fill:#1E1F1F;}
	.st242{fill:#171717;}
	.st243{fill:#1E1E1D;}
	.st244{fill:#131414;}
	.st245{fill:#333333;}
	.st246{fill:#212222;}
	.st247{fill:#3A3B3B;}
	.st248{fill:#525352;}
	.st249{fill:#2A2B2A;}
	.st250{fill:#FAFAFA;}
	.st251{fill:#EFEDED;}
	.st252{fill:#0C0D0D;}
	.st253{fill:#0A0B0A;}
	.st254{fill:#161515;}
	.st255{fill:#232425;}
	.st256{fill:#F6F6F5;}
	.st257{fill:#FEFEFD;}
	.st258{fill:#262727;}
	.st259{fill:#1D1D1D;}
	.st260{fill:#171818;}
	.st261{fill:#414040;}
	.st262{fill:#282929;}
	.st263{fill:#1A1B1B;}
	.st264{fill:#141515;}
	.st265{fill:#2D2D2D;}
	.st266{fill:#343535;}
	.st267{fill:#3C3D3D;}
	.st268{fill:#2F2F30;}
	.st269{fill:#1B1B1C;}
	.st270{fill:#313131;}
	.st271{fill:#3F4040;}
	.st272{fill:#111010;}
	.st273{fill:#101111;}
	.st274{fill:#1C1D1D;}
	.st275{fill:#242525;}
	.st276{fill:#CFCDCD;}
	.st277{fill:#323333;}
	.st278{fill:#CFCDCC;}
	.st279{fill:#D7D7D7;}
	.st280{fill:#303131;}
	.st281{fill:#B0AFAF;}
	.st282{fill:#CDCDCD;}
	.st283{fill:#242424;}
	.st284{fill:#121111;}
	.st285{fill:#1F1F1F;}
	.st286{fill:#2E2D2D;}
	.st287{fill:#F9F8F8;}
	.st288{fill:#191A19;}
	.st289{fill:#070808;}
	.st290{fill:#1A1A1B;}
	.st291{fill:#525252;}
	.st292{fill:#C5C3C3;}
	.st293{fill:#2C2C2C;}
	.st294{fill:#D8D7D7;}
	.st295{fill:#ECECEB;}
	.st296{fill:#D5D3D3;}
	.st297{fill:#BDBBBB;}
	.st298{fill:#BEBDBC;}
	.st299{fill:#FFFFFE;}
	.st300{fill:#F9F9F9;}
	.st301{fill:#F2F2F1;}
	.st302{fill:#DCDBDB;}
	.st303{fill:#B8B6B6;}
	.st304{fill:#EAE9E9;}
	.st305{fill:#7B7A7A;}
	.st306{fill:#252525;}
	.st307{fill:#D7D6D5;}
	.st308{fill:#A3A3A3;}
	.st309{fill:#D4D3D3;}
	.st310{fill:#424242;}
	.st311{fill:#313231;}
	.st312{fill:#585757;}
	.st313{fill:#1C1C1D;}
	.st314{fill:#434243;}
	.st315{fill:#343434;}
	.st316{fill:#1F2020;}
	.st317{fill:#E1E0DF;}
	.st318{fill:#2F2F2F;}
	.st319{fill:#171817;}
	.st320{fill:#101110;}
	.st321{fill:#151616;}
	.st322{fill:#EBE9E9;}
	.st323{fill:#ECEBEA;}
	.st324{fill:#F3F3F2;}
	.st325{fill:#D2D2D1;}
	.st326{fill:#E4E2E2;}
	.st327{fill:#E4E3E2;}
	.st328{fill:#E7E6E6;}
	.st329{fill:#CECDCC;}
	.st330{fill:#E4E4E4;}
	.st331{fill:#C4C3C2;}
	.st332{fill:#D6D5D5;}
	.st333{fill:#070707;}
	.st334{fill:#3F3E3D;}
	.st335{fill:#B7B5B5;}
	.st336{fill:#ACABAB;}
	.st337{fill:#080909;}
	.st338{fill:#3A3A3A;}
	.st339{fill:#010101;}
	.st340{fill:#6E6E6E;}
	.st341{fill:#C7C5C4;}
	.st342{fill:#BCBBBB;}
	.st343{fill:#FFFEFE;}
	.st344{fill:#F4F4F3;}
	.st345{fill:#D8D8D8;}
	.st346{fill:#818081;}
	.st347{fill:#2D2E2E;}
	.st348{fill:#9E9E9E;}
	.st349{fill:#282928;}
	.st350{fill:#2A2B2B;}
	.st351{fill:#040404;}
	.st352{fill:none;}
	.st353{fill:#2C2D2D;}
	.st354{fill:#474747;}
	.st355{fill:#3F3F3F;}
	.st356{fill:#EEECEC;}
	.st357{fill:#D7D7D6;}
	.st358{fill:#E7E7E7;}
	.st359{fill:#616161;}
	.st360{fill:#EAEAE9;}
	.st361{fill:#A9A9A9;}
	.st362{fill:#FBF9F9;}
	.st363{fill:#E0E0E0;}
	.st364{fill:#A4A4A4;}
	.st365{fill:#D5D5D5;}
	.st366{fill:#E6E6E6;}
	.st367{fill:#3E3E3E;}
	.st368{fill:#DDDCDB;}
	.st369{fill:#A0A0A0;}
	.st370{fill:#E8E7E6;}
	.st371{fill:#E4E4E3;}
	.st372{fill:#3E3F3F;}
	.st373{fill:#848383;}
	.st374{fill:#D2D1D1;}
	.st375{fill:#DFDFDE;}
	.st376{fill:#B7B6B6;}
	.st377{fill:#D1D0CF;}
	.st378{fill:#A7A7A6;}
	.st379{fill:#8D8E8E;}
	.st380{fill:#757575;}
	.st381{fill:#C2C1C1;}
	.st382{fill:#C8C8C7;}
	.st383{fill:#ABAAAA;}
	.st384{fill:#CBCAC9;}
	.st385{fill:#C6C6C5;}
	.st386{fill:#A7A6A7;}
	.st387{fill:#888888;}
	.st388{fill:#F0EEEE;}
	.st389{fill:#AEADAD;}
	.st390{fill:#292A29;}
	.st391{fill:#CCCCCC;}
	.st392{fill:#D3D2D2;}
	.st393{fill:#EFEFEF;}
	.st394{fill:#3C3D3C;}
	.st395{fill:#C8C7C8;}
	.st396{fill:#1D1D1E;}
	.st397{fill:#AAAAAA;}
	.st398{fill:#F9F9F8;}
	.st399{fill:#F2F1F0;}
	.st400{fill:#DAD8D8;}
	.st401{fill:#D0CFCE;}
	.st402{fill:#ECECEC;}
	.st403{fill:#676766;}
	.st404{fill:#BBBABB;}
	.st405{fill:#565655;}
	.st406{fill:#C8C6C6;}
	.st407{fill:#E0DFDE;}
	.st408{fill:#8C8C8C;}
	.st409{fill:#6F6E6F;}
	.st410{fill:#BAB9B9;}
	.st411{fill:#EEEEEE;}
	.st412{fill:#C7C7C7;}
	.st413{fill:#8A898A;}
	.st414{fill:#505050;}
	.st415{fill:#B5B3B3;}
	.st416{clip-path:url(#SVGID_2_);}
	.st417{clip-path:url(#SVGID_4_);}
	.st418{clip-path:url(#SVGID_6_);}
	.st419{fill:#CFCECE;}
	.st420{fill:#383939;}
	.st421{fill:#DEDEDE;}
	.st422{clip-path:url(#SVGID_8_);}
	.st423{clip-path:url(#SVGID_10_);}
	.st424{fill:#0B0C0B;}
	.st425{fill:#C7C6C6;}
	.st426{fill:#1E1E1F;}
	.st427{fill:#F8F8F8;}
	.st428{clip-path:url(#SVGID_12_);}
	.st429{clip-path:url(#SVGID_14_);}
	.st430{clip-path:url(#SVGID_16_);}
	.st431{clip-path:url(#SVGID_18_);}
	.st432{fill:#969696;}
	.st433{fill:#353636;}
	.st434{fill:#0E0E0F;}
	.st435{fill:#484948;}
	.st436{fill:#0D0E0D;}
	.st437{fill:#111211;}
	.st438{fill:#242425;}
	.st439{fill:#343534;}
	.st440{fill:#4A4B4B;}
	.st441{fill:#414242;}
	.st442{fill:#B4B4B4;}
	.st443{fill:#FBFBFB;}
	.st444{fill:#FEFDFD;}
	.st445{fill:#666666;}
	.st446{fill:#565756;}
	.st447{clip-path:url(#SVGID_20_);}
	.st448{clip-path:url(#SVGID_22_);}
</style>
<path d="M499.04,192.41c18.64,1.51,37.14,3.59,53.75,12.98c20.26,11.46,33.57,28.61,40.62,50.79c2.8,8.82,5.7,17.58,5.02,26.97
	c-0.65,8.92-0.62,18.08-2.75,26.67c-3.35,13.55-9.4,26.13-16.93,38.05c-13.55,21.47-32,36.47-56.46,43.28
	c-16.11,4.49-32,2.66-47.04-5.13c-7.7-3.99-15.83-7.25-23.14-11.84c-5.08-3.19-9.85-7.53-13.42-12.34
	c-6.78-9.14-13.79-18.46-18.49-28.72c-4.16-9.07-5.87-19.42-7.67-29.39c-2.62-14.55,0.17-28.75,4.87-42.58
	c3.73-10.98,8.74-21.47,16.37-30.19c7.49-8.56,15.25-17.16,24.17-24.1C469.78,197.66,484.06,193.58,499.04,192.41z M501.97,388.76
	c18.56-0.64,32.13-7.16,45.26-14.84c3.76-2.2,7.7-4.41,10.77-7.42c13.12-12.86,23.09-27.85,29.46-45.18
	c4.07-11.07,6.45-22.46,6.51-34.22c0.06-12.64-3.45-24.56-7.6-36.43c-7.63-21.81-22.51-36.31-43.85-44.06
	c-8.97-3.26-18.58-4.73-27.87-7.17c-7.76-2.04-15.23-2.88-23.48-1.19c-26.5,5.44-45.48,20.93-59.56,43.01
	c-4.42,6.93-6.82,15.12-10.32,22.65c-7.45,16.06-7.55,32.93-3.04,49.33c3.09,11.22,8.9,21.83,14.49,32.18
	c6.7,12.41,16.27,22.49,29.14,28.81c7.61,3.74,15.38,7.26,23.34,10.14C491.49,386.64,498.16,387.79,501.97,388.76z"/>
<path class="st11" d="M501.97,388.76c-3.81-0.97-10.48-2.12-16.74-4.39c-7.96-2.89-15.73-6.4-23.34-10.14
	c-12.87-6.32-22.44-16.41-29.14-28.81c-5.59-10.35-11.4-20.96-14.49-32.18c-4.51-16.4-4.41-33.27,3.04-49.33
	c3.49-7.53,5.9-15.73,10.32-22.65c14.08-22.08,33.06-37.57,59.56-43.01c8.25-1.69,15.72-0.85,23.48,1.19
	c9.28,2.44,18.89,3.91,27.87,7.17c21.34,7.75,36.21,22.24,43.85,44.06c4.16,11.87,7.66,23.8,7.6,36.43
	c-0.05,11.76-2.44,23.15-6.51,34.22c-6.37,17.34-16.33,32.33-29.46,45.18c-3.07,3.01-7.01,5.22-10.77,7.42
	C534.1,381.6,520.53,388.12,501.97,388.76z M516.83,283.05c-9.79,5.67-13.92,17.25-10.87,28.23c2.22,8.02,7.98,11.76,15.11,13
	c7.56,1.31,13.89-2.08,18.1-8.7c3.79-5.97,6.1-12.38,4.95-20.06c4.19,0,8.09,0.02,11.98-0.01c2.6-0.02,3.61-1.07,2.68-3.8
	c-1.1-3.25-1.46-6.79-2.86-9.88c-4.23-9.35-5.46-18.41-0.69-28.14c2.8-5.69,2.13-6.02-4.03-8.26c-0.3-0.11-0.73-0.21-0.85-0.45
	c-3.72-7.29-12.35-3.93-18.03-9.78c-4.55,17.03-14.66,28.51-28.96,38.64c4.98,3.43,9.2,6.34,13.4,9.28L516.83,283.05z
	 M440.47,301.32c2.2,6.09,4.59,12.34,6.67,18.68c0.55,1.67,0.56,3.75,0.14,5.48c-1.2,4.93-2.43,9.9-4.23,14.63
	c-1.8,4.74,0.34,6.72,4.31,8.19c2.11,0.79,4.33,1.61,6.07,2.98c2.63,2.06,5.14,2.55,8.2,1.21c1.3-0.57,2.91-1.13,4.23-0.87
	c5.3,1.01,7.61-2.08,9.13-6.28c0.95-2.61,1.71-5.3,2.36-8c0.87-3.6,2.48-6.3,5.68-8.66c5.32-3.92,10.14-8.57,14.83-13.25
	c4.47-4.46,3.82-7.24-2.07-9.76c-4.07-1.73-8.32-3.02-12.76-4.6c4.78-5.53,8.04-11.22,7.72-18.22c-0.29-6.39,0.14-13.34-6.32-17.3
	c-6.52-3.99-13.33-4.46-20.09-0.08c-6.61,4.29-11.47,17.51-9.51,26.04c0.43,1.87,0.5,3.82,0.72,5.64
	C450.35,298.8,444.24,294.99,440.47,301.32z"/>
<path d="M516.78,283.1c-4.22-2.91-8.45-5.82-13.43-9.25c14.3-10.12,24.4-21.61,28.96-38.64c5.68,5.85,14.31,2.49,18.03,9.78
	c0.12,0.23,0.55,0.34,0.85,0.45c6.16,2.24,6.83,2.56,4.03,8.26c-4.78,9.73-3.54,18.79,0.69,28.14c1.4,3.09,1.76,6.63,2.86,9.88
	c0.93,2.74-0.08,3.78-2.68,3.8c-3.89,0.03-7.79,0.01-11.98,0.01c1.16,7.68-1.15,14.09-4.95,20.06c-4.21,6.62-10.54,10.01-18.1,8.7
	c-7.13-1.24-12.89-4.98-15.11-13c-3.04-10.98,1.08-22.56,10.87-28.22c-1.03,1.83-1.76,3.93-3.13,5.44
	c-8.45,9.3-9.35,17.79-1.43,27.17c4.23,5.01,7.82,7.59,14.92,5.99c10.12-2.28,14.5-14.72,15.08-22.05c0.21-2.61-0.62-5.69-4.6-6.05
	c-0.09,0.77-0.32,1.42-0.22,2.03c1.89,11.01-0.97,14.86-11.74,14.77c-2.39-0.02-4.99-1.68-6.99-3.24c-0.48-0.38,1.25-3.3,1.58-5.12
	c0.22-1.21-0.23-2.54-0.38-3.82c0.11-3.97,3.11-1.29,4.64-2.01c0.83,0.87,1.55,1.9,2.51,2.59c2.91,2.09,5.91,4.06,9.83,6.71
	c-0.58-4.26-0.79-8.39-1.89-12.28c-0.29-1.02-3.29-1.27-5.05-1.87c-1.2-4.62-4.19-1.48-5.29-0.6c-2.27,1.82-7.46,2.33-4.74,7.44
	c-1.67,2.88-3.34,5.76-5,8.64c-0.48-0.1-0.96-0.2-1.43-0.3c0.67-3.37,0.64-7.12,2.21-10.02c1.78-3.29,4.97-5.82,7.7-8.85
	C521.02,286.01,518.9,284.55,516.78,283.1z M524.98,259.19c-5.02,4.13-9.83,8.17-14.73,12.09c-2.45,1.96-2.42,3.21,0.17,5.33
	c9.14,7.49,19.9,11.81,30.81,15.57c4.62,1.59,9.91,1.21,15.04,1.74c0-2.43,0.37-3.9-0.06-5.06c-2.44-6.62-5-13.21-7.74-19.71
	c-0.34-0.82-1.96-1.56-2.99-1.56C537.33,267.64,531.25,262.99,524.98,259.19z M533.39,238.55c-2.66,5.99-5.23,11.77-7.84,17.63
	c5.42,5.46,12.27,7.58,19.38,9.25c3.57,0.84,5.7-0.88,6.02-3.96c0.24-2.37-0.96-4.89-1.3-6.36c1.62-1.04,3.54-1.62,3.97-2.75
	c0.42-1.11-0.24-3.59-1.18-4.1C546.32,244.87,540,241.86,533.39,238.55z"/>
<path d="M440.47,301.32c3.77-6.33,9.89-2.52,15.07-4.16c-0.22-1.82-0.29-3.77-0.72-5.64c-1.96-8.53,2.9-21.75,9.51-26.04
	c6.76-4.39,13.57-3.92,20.09,0.08c6.46,3.96,6.03,10.92,6.32,17.3c0.32,7-2.93,12.69-7.72,18.22c4.44,1.58,8.7,2.86,12.76,4.6
	c5.89,2.51,6.55,5.3,2.07,9.76c-4.69,4.68-9.51,9.33-14.83,13.25c-3.21,2.36-4.81,5.06-5.68,8.66c-0.65,2.7-1.41,5.39-2.36,8
	c-1.52,4.19-3.83,7.29-9.13,6.28c-1.31-0.25-2.92,0.3-4.23,0.87c-3.06,1.34-5.57,0.85-8.2-1.21c-1.74-1.36-3.96-2.19-6.07-2.98
	c-3.96-1.48-6.11-3.46-4.31-8.19c1.8-4.73,3.04-9.7,4.23-14.63c0.42-1.73,0.41-3.8-0.14-5.48
	C445.06,313.65,442.67,307.41,440.47,301.32z M475.24,299.62c1.72-0.17,3.89,0.26,5.1-0.62c9.64-7,9.64-25.04,0.06-32.18
	c-3.04-2.26-6.52-3.19-10.18-1.22c-9.02,4.85-14.76,18.31-12.56,29.05c0.31,1.53,2.96,3.81,4.24,3.64c2.41-0.32,6.05,2.76,7.36-1.86
	C470.33,299.22,472.44,300.08,475.24,299.62z M442.74,300.96c2.57,6.91,4.93,13.5,7.55,19.99c0.33,0.82,1.96,1.38,3.07,1.57
	c8.08,1.4,16.17,2.77,24.29,3.91c1.67,0.24,3.92,0.02,5.16-0.94c5.59-4.31,10.92-8.97,16.34-13.5c-0.15-0.64-0.3-1.27-0.45-1.91
	C481.37,301.63,463.05,298.56,442.74,300.96z M454.18,332.93c-0.09,0.33-0.18,0.67-0.27,1c-0.43-0.07-0.87-0.11-1.3-0.21
	c-3.94-0.98-6.09,0.29-6.89,4.54c-0.68,3.65-1.43,6.89,3.32,7.99c5.1,1.18,10.21,2.38,15.37,3.23c3.7,0.6,6.13-1.09,7.31-4.88
	c1.49-4.76,3.4-9.38,5.41-14.82c-8.33-1.44-16.47-2.98-24.67-4.12c-1.38-0.19-3.01,1.38-4.52,2.14c0.21,0.43,0.41,0.87,0.62,1.3
	c1.24,0.12,2.49,0.25,3.73,0.37c0.01,0.23,0.02,0.47,0.02,0.7c-1.42,0.29-2.85,0.57-4.27,0.86c-0.02,0.33-0.03,0.65-0.05,0.98
	C450.05,332.31,452.12,332.62,454.18,332.93z"/>
<path class="st11" d="M524.98,259.19c6.27,3.79,12.35,8.45,20.51,8.4c1.02-0.01,2.64,0.74,2.99,1.56c2.74,6.51,5.3,13.09,7.74,19.71
	c0.43,1.17,0.06,2.63,0.06,5.06c-5.13-0.53-10.43-0.15-15.04-1.74c-10.92-3.76-21.67-8.08-30.81-15.57
	c-2.59-2.12-2.61-3.37-0.17-5.33C515.14,267.36,519.95,263.33,524.98,259.19z"/>
<path class="st11" d="M519.92,298.17c0.15,1.28,0.6,2.61,0.38,3.82c-0.33,1.82-2.06,4.74-1.58,5.12c2,1.56,4.6,3.22,6.99,3.24
	c10.77,0.09,13.63-3.75,11.74-14.77c-0.1-0.6,0.13-1.26,0.22-2.03c3.98,0.36,4.81,3.45,4.6,6.05c-0.58,7.34-4.96,19.78-15.08,22.05
	c-7.1,1.6-10.69-0.98-14.92-5.99c-7.92-9.38-7.02-17.87,1.43-27.17c1.37-1.51,2.1-3.61,3.13-5.44c0.01-0.01-0.07,0.07-0.06,0.05
	c2.13,1.44,4.25,2.9,6.63,4.53c-2.73,3.03-5.93,5.55-7.7,8.85c-1.56,2.89-1.53,6.64-2.21,10.02c0.48,0.1,0.96,0.2,1.43,0.3
	c1.67-2.88,3.34-5.76,5.01-8.64C519.92,298.15,519.92,298.17,519.92,298.17z"/>
<path class="st11" d="M533.39,238.55c6.61,3.31,12.93,6.31,19.04,9.69c0.94,0.52,1.6,2.99,1.18,4.1c-0.43,1.14-2.35,1.71-3.97,2.75
	c0.34,1.48,1.55,3.99,1.3,6.36c-0.32,3.08-2.45,4.8-6.02,3.96c-7.11-1.67-13.95-3.78-19.38-9.25
	C528.16,250.32,530.73,244.54,533.39,238.55z"/>
<path class="st11" d="M529.95,291.31c1.76,0.6,4.77,0.85,5.05,1.87c1.09,3.88,1.31,8.01,1.89,12.28c-3.91-2.65-6.91-4.62-9.83-6.71
	c-0.96-0.69-1.68-1.72-2.51-2.59C526.35,294.54,528.15,292.92,529.95,291.31z"/>
<path class="st11" d="M529.95,291.31c-1.8,1.61-3.6,3.23-5.4,4.84c-1.52,0.72-4.52-1.96-4.64,2.01c0,0,0-0.01,0-0.01
	c-2.71-5.11,2.48-5.62,4.74-7.44C525.76,289.83,528.75,286.69,529.95,291.31z"/>
<path class="st11" d="M442.74,300.96c20.3-2.4,38.63,0.67,55.95,9.12c0.15,0.64,0.3,1.27,0.45,1.91
	c-5.42,4.53-10.75,9.19-16.34,13.5c-1.25,0.96-3.49,1.18-5.16,0.94c-8.12-1.14-16.21-2.51-24.29-3.91
	c-1.11-0.19-2.74-0.75-3.07-1.57C447.68,314.47,445.32,307.88,442.74,300.96z"/>
<path class="st11" d="M469.26,296.44c-1.31,4.61-4.95,1.54-7.36,1.86c-1.29,0.17-3.93-2.11-4.24-3.64
	c-2.2-10.74,3.53-24.19,12.56-29.05c3.67-1.97,7.15-1.05,10.18,1.22c9.58,7.14,9.58,25.17-0.06,32.18c-1.21,0.88-3.37,0.44-5.1,0.62
	c0.36-1.94,0.72-3.87,1.08-5.81c2.26-2.89,4.53-5.78,6.18-7.88c-1.35-1.55-2.22-2.56-3.35-3.85c-1.48,1.71-2.92,3.37-3.81,4.4
	c-1.14-1.93-2.41-4.07-3.67-6.21c-0.73,0.25-1.46,0.49-2.19,0.74c0.27,2.54,0.54,5.07,0.81,7.61l0.15-0.17
	c-2.34,1.87-3.36,0.66-4.05-1.65c-0.44-1.48-1.1-2.9-1.66-4.34c-0.64,0.31-1.27,0.61-1.91,0.92c2.2,4.43,4.41,8.86,6.61,13.29
	L469.26,296.44z"/>
<path class="st11" d="M454.18,332.93c-2.06-0.31-4.12-0.62-6.19-0.93c0.02-0.33,0.03-0.65,0.05-0.98c1.42-0.29,2.85-0.57,4.27-0.86
	c-0.01-0.23-0.02-0.47-0.02-0.7c-1.24-0.12-2.49-0.25-3.73-0.37c-0.21-0.43-0.41-0.87-0.62-1.3c1.51-0.76,3.14-2.33,4.52-2.14
	c8.2,1.14,16.35,2.68,24.67,4.12c-2.01,5.43-3.93,10.06-5.41,14.82c-1.19,3.8-3.62,5.49-7.31,4.88c-5.16-0.84-10.27-2.05-15.37-3.23
	c-4.75-1.1-4-4.34-3.32-7.99c0.8-4.25,2.95-5.52,6.89-4.54c0.42,0.1,0.87,0.14,1.3,0.21C454,333.6,454.09,333.27,454.18,332.93z"/>
<path class="st11" d="M476.32,293.81c-0.36,1.94-0.72,3.87-1.08,5.81c-2.8,0.46-4.9-0.39-5.98-3.18c0,0,0.18,0.22,0.18,0.22
	c-0.68-2.86-1.56-5.75,1.01-8.21l-0.15,0.17c2.48,0,4.95,0,7.62,0C477.36,290.46,476.84,292.13,476.32,293.81z"/>
<path d="M476.32,293.81c0.52-1.68,1.03-3.35,1.6-5.2c-2.67,0-5.14,0-7.62,0c-0.27-2.54-0.54-5.07-0.81-7.61
	c0.73-0.25,1.46-0.49,2.19-0.74c1.27,2.14,2.53,4.28,3.67,6.21c0.89-1.03,2.33-2.69,3.81-4.4c1.12,1.29,2,2.3,3.35,3.85
	C480.85,288.03,478.59,290.92,476.32,293.81z"/>
<path d="M470.45,288.44c-2.57,2.46-1.69,5.35-1.01,8.21c-2.2-4.43-4.41-8.86-6.61-13.29c0.64-0.31,1.27-0.61,1.91-0.92
	c0.56,1.44,1.22,2.86,1.66,4.34C467.09,289.1,468.11,290.31,470.45,288.44z"/>
</svg>
