<?xml version="1.0" encoding="utf-8"?>
<!-- Generator: Adobe Illustrator 23.0.1, SVG Export Plug-In . SVG Version: 6.00 Build 0)  -->
<svg version="1.1" id="Layer_1" xmlns="http://www.w3.org/2000/svg" xmlns:xlink="http://www.w3.org/1999/xlink" x="0px" y="0px"
	 viewBox="0 0 1024 453.1" style="enable-background:new 0 0 1024 453.1;" xml:space="preserve">
<style type="text/css">
	.st0{fill:#FFFFFF;}
</style>
<path d="M499,45.5c18.6,1.5,37.1,3.6,53.8,13c20.3,11.5,33.6,28.6,40.6,50.8c2.8,8.8,5.7,17.6,5,27c-0.7,8.9-0.6,18.1-2.8,26.7
	c-3.3,13.5-9.4,26.1-16.9,38c-13.5,21.5-32,36.5-56.5,43.3c-16.1,4.5-32,2.7-47-5.1c-7.7-4-15.8-7.3-23.1-11.8
	c-5.1-3.2-9.9-7.5-13.4-12.3c-6.8-9.1-13.8-18.5-18.5-28.7c-4.2-9.1-5.9-19.4-7.7-29.4c-2.6-14.5,0.2-28.8,4.9-42.6
	c3.7-11,8.7-21.5,16.4-30.2c7.5-8.6,15.3-17.2,24.2-24.1C469.8,50.8,484.1,46.7,499,45.5z M502,241.9c18.6-0.6,32.1-7.2,45.3-14.8
	c3.8-2.2,7.7-4.4,10.8-7.4c13.1-12.9,23.1-27.9,29.5-45.2c4.1-11.1,6.5-22.5,6.5-34.2c0.1-12.6-3.5-24.6-7.6-36.4
	c-7.6-21.8-22.5-36.3-43.8-44.1c-9-3.3-18.6-4.7-27.9-7.2c-7.8-2-15.2-2.9-23.5-1.2c-26.5,5.4-45.5,20.9-59.6,43
	c-4.4,6.9-6.8,15.1-10.3,22.6c-7.5,16.1-7.5,32.9-3,49.3c3.1,11.2,8.9,21.8,14.5,32.2c6.7,12.4,16.3,22.5,29.1,28.8
	c7.6,3.7,15.4,7.3,23.3,10.1C491.5,239.8,498.2,240.9,502,241.9z"/>
<path class="st0" d="M502,241.9c-3.8-1-10.5-2.1-16.7-4.4c-8-2.9-15.7-6.4-23.3-10.1c-12.9-6.3-22.4-16.4-29.1-28.8
	c-5.6-10.4-11.4-21-14.5-32.2c-4.5-16.4-4.4-33.3,3-49.3c3.5-7.5,5.9-15.7,10.3-22.6c14.1-22.1,33.1-37.6,59.6-43
	c8.3-1.7,15.7-0.9,23.5,1.2c9.3,2.4,18.9,3.9,27.9,7.2c21.3,7.8,36.2,22.2,43.8,44.1c4.2,11.9,7.7,23.8,7.6,36.4
	c0,11.8-2.4,23.1-6.5,34.2c-6.4,17.3-16.3,32.3-29.5,45.2c-3.1,3-7,5.2-10.8,7.4C534.1,234.7,520.5,241.2,502,241.9z M516.8,136.2
	c-9.8,5.7-13.9,17.3-10.9,28.2c2.2,8,8,11.8,15.1,13c7.6,1.3,13.9-2.1,18.1-8.7c3.8-6,6.1-12.4,5-20.1c4.2,0,8.1,0,12,0
	c2.6,0,3.6-1.1,2.7-3.8c-1.1-3.3-1.5-6.8-2.9-9.9c-4.2-9.4-5.5-18.4-0.7-28.1c2.8-5.7,2.1-6-4-8.3c-0.3-0.1-0.7-0.2-0.8-0.4
	c-3.7-7.3-12.3-3.9-18-9.8c-4.5,17-14.7,28.5-29,38.6C508.3,130.4,512.6,133.3,516.8,136.2L516.8,136.2z M440.5,154.4
	c2.2,6.1,4.6,12.3,6.7,18.7c0.5,1.7,0.6,3.8,0.1,5.5c-1.2,4.9-2.4,9.9-4.2,14.6c-1.8,4.7,0.3,6.7,4.3,8.2c2.1,0.8,4.3,1.6,6.1,3
	c2.6,2.1,5.1,2.5,8.2,1.2c1.3-0.6,2.9-1.1,4.2-0.9c5.3,1,7.6-2.1,9.1-6.3c1-2.6,1.7-5.3,2.4-8c0.9-3.6,2.5-6.3,5.7-8.7
	c5.3-3.9,10.1-8.6,14.8-13.3c4.5-4.5,3.8-7.2-2.1-9.8c-4.1-1.7-8.3-3-12.8-4.6c4.8-5.5,8-11.2,7.7-18.2c-0.3-6.4,0.1-13.3-6.3-17.3
	c-6.5-4-13.3-4.5-20.1-0.1c-6.6,4.3-11.5,17.5-9.5,26c0.4,1.9,0.5,3.8,0.7,5.6C450.4,151.9,444.2,148.1,440.5,154.4z"/>
<path d="M516.8,136.2c-4.2-2.9-8.5-5.8-13.4-9.3c14.3-10.1,24.4-21.6,29-38.6c5.7,5.9,14.3,2.5,18,9.8c0.1,0.2,0.5,0.3,0.8,0.4
	c6.2,2.2,6.8,2.6,4,8.3c-4.8,9.7-3.5,18.8,0.7,28.1c1.4,3.1,1.8,6.6,2.9,9.9c0.9,2.7-0.1,3.8-2.7,3.8c-3.9,0-7.8,0-12,0
	c1.2,7.7-1.2,14.1-5,20.1c-4.2,6.6-10.5,10-18.1,8.7c-7.1-1.2-12.9-5-15.1-13C502.9,153.4,507,141.8,516.8,136.2
	c-1,1.8-1.7,3.9-3.1,5.4c-8.5,9.3-9.4,17.8-1.4,27.2c4.2,5,7.8,7.6,14.9,6c10.1-2.3,14.5-14.7,15.1-22c0.2-2.6-0.6-5.7-4.6-6
	c-0.1,0.8-0.3,1.4-0.2,2c1.9,11-1,14.9-11.7,14.8c-2.4,0-5-1.7-7-3.2c-0.5-0.4,1.3-3.3,1.6-5.1c0.2-1.2-0.2-2.5-0.4-3.8
	c0.1-4,3.1-1.3,4.6-2c0.8,0.9,1.5,1.9,2.5,2.6c2.9,2.1,5.9,4.1,9.8,6.7c-0.6-4.3-0.8-8.4-1.9-12.3c-0.3-1-3.3-1.3-5-1.9
	c-1.2-4.6-4.2-1.5-5.3-0.6c-2.3,1.8-7.5,2.3-4.7,7.4c-1.7,2.9-3.3,5.8-5,8.6c-0.5-0.1-1-0.2-1.4-0.3c0.7-3.4,0.6-7.1,2.2-10
	c1.8-3.3,5-5.8,7.7-8.9C521,139.1,518.9,137.7,516.8,136.2z M525,112.3c-5,4.1-9.8,8.2-14.7,12.1c-2.5,2-2.4,3.2,0.2,5.3
	c9.1,7.5,19.9,11.8,30.8,15.6c4.6,1.6,9.9,1.2,15,1.7c0-2.4,0.4-3.9-0.1-5.1c-2.4-6.6-5-13.2-7.7-19.7c-0.3-0.8-2-1.6-3-1.6
	C537.3,120.8,531.3,116.1,525,112.3z M533.4,91.7c-2.7,6-5.2,11.8-7.8,17.6c5.4,5.5,12.3,7.6,19.4,9.3c3.6,0.8,5.7-0.9,6-4
	c0.2-2.4-1-4.9-1.3-6.4c1.6-1,3.5-1.6,4-2.8c0.4-1.1-0.2-3.6-1.2-4.1C546.3,98,540,95,533.4,91.7z"/>
<path d="M440.5,154.4c3.8-6.3,9.9-2.5,15.1-4.2c-0.2-1.8-0.3-3.8-0.7-5.6c-2-8.5,2.9-21.8,9.5-26c6.8-4.4,13.6-3.9,20.1,0.1
	c6.5,4,6,10.9,6.3,17.3c0.3,7-2.9,12.7-7.7,18.2c4.4,1.6,8.7,2.9,12.8,4.6c5.9,2.5,6.5,5.3,2.1,9.8c-4.7,4.7-9.5,9.3-14.8,13.3
	c-3.2,2.4-4.8,5.1-5.7,8.7c-0.6,2.7-1.4,5.4-2.4,8c-1.5,4.2-3.8,7.3-9.1,6.3c-1.3-0.3-2.9,0.3-4.2,0.9c-3.1,1.3-5.6,0.9-8.2-1.2
	c-1.7-1.4-4-2.2-6.1-3c-4-1.5-6.1-3.5-4.3-8.2s3-9.7,4.2-14.6c0.4-1.7,0.4-3.8-0.1-5.5C445.1,166.8,442.7,160.5,440.5,154.4z
	 M475.2,152.7c1.7-0.2,3.9,0.3,5.1-0.6c9.6-7,9.6-25,0.1-32.2c-3-2.3-6.5-3.2-10.2-1.2c-9,4.9-14.8,18.3-12.6,29
	c0.3,1.5,3,3.8,4.2,3.6c2.4-0.3,6,2.8,7.4-1.9C470.3,152.3,472.4,153.2,475.2,152.7z M442.7,154.1c2.6,6.9,4.9,13.5,7.5,20
	c0.3,0.8,2,1.4,3.1,1.6c8.1,1.4,16.2,2.8,24.3,3.9c1.7,0.2,3.9,0,5.2-0.9c5.6-4.3,10.9-9,16.3-13.5c-0.1-0.6-0.3-1.3-0.5-1.9
	C481.4,154.7,463,151.7,442.7,154.1z M454.2,186c-0.1,0.3-0.2,0.7-0.3,1c-0.4-0.1-0.9-0.1-1.3-0.2c-3.9-1-6.1,0.3-6.9,4.5
	c-0.7,3.6-1.4,6.9,3.3,8c5.1,1.2,10.2,2.4,15.4,3.2c3.7,0.6,6.1-1.1,7.3-4.9c1.5-4.8,3.4-9.4,5.4-14.8c-8.3-1.4-16.5-3-24.7-4.1
	c-1.4-0.2-3,1.4-4.5,2.1c0.2,0.4,0.4,0.9,0.6,1.3c1.2,0.1,2.5,0.3,3.7,0.4c0,0.2,0,0.5,0,0.7c-1.4,0.3-2.9,0.6-4.3,0.9
	c0,0.3,0,0.6,0,1C450,185.4,452.1,185.7,454.2,186z"/>
<path class="st0" d="M525,112.3c6.3,3.8,12.3,8.5,20.5,8.4c1,0,2.6,0.7,3,1.6c2.7,6.5,5.3,13.1,7.7,19.7c0.4,1.2,0.1,2.6,0.1,5.1
	c-5.1-0.5-10.4-0.1-15-1.7c-10.9-3.8-21.7-8.1-30.8-15.6c-2.6-2.1-2.6-3.4-0.2-5.3C515.1,120.5,520,116.4,525,112.3z"/>
<path class="st0" d="M519.9,151.3c0.2,1.3,0.6,2.6,0.4,3.8c-0.3,1.8-2.1,4.7-1.6,5.1c2,1.6,4.6,3.2,7,3.2
	c10.8,0.1,13.6-3.8,11.7-14.8c-0.1-0.6,0.1-1.3,0.2-2c4,0.4,4.8,3.5,4.6,6c-0.6,7.3-5,19.8-15.1,22c-7.1,1.6-10.7-1-14.9-6
	c-7.9-9.4-7-17.9,1.4-27.2c1.4-1.5,2.1-3.6,3.1-5.4c0,0-0.1,0.1-0.1,0c2.1,1.4,4.3,2.9,6.6,4.5c-2.7,3-5.9,5.5-7.7,8.9
	c-1.6,2.9-1.5,6.6-2.2,10c0.5,0.1,1,0.2,1.4,0.3C516.6,157,518.3,154.1,519.9,151.3C519.9,151.3,519.9,151.3,519.9,151.3z"/>
<path class="st0" d="M533.4,91.7c6.6,3.3,12.9,6.3,19,9.7c0.9,0.5,1.6,3,1.2,4.1c-0.4,1.1-2.3,1.7-4,2.8c0.3,1.5,1.5,4,1.3,6.4
	c-0.3,3.1-2.5,4.8-6,4c-7.1-1.7-14-3.8-19.4-9.3C528.2,103.4,530.7,97.6,533.4,91.7z"/>
<path class="st0" d="M530,144.4c1.8,0.6,4.8,0.9,5,1.9c1.1,3.9,1.3,8,1.9,12.3c-3.9-2.6-6.9-4.6-9.8-6.7c-1-0.7-1.7-1.7-2.5-2.6
	C526.3,147.6,528.2,146,530,144.4z"/>
<path class="st0" d="M530,144.4c-1.8,1.6-3.6,3.2-5.4,4.8c-1.5,0.7-4.5-2-4.6,2v0c-2.7-5.1,2.5-5.6,4.7-7.4
	C525.8,142.9,528.8,139.8,530,144.4z"/>
<path class="st0" d="M442.7,154.1c20.3-2.4,38.6,0.7,56,9.1c0.1,0.6,0.3,1.3,0.5,1.9c-5.4,4.5-10.8,9.2-16.3,13.5
	c-1.3,1-3.5,1.2-5.2,0.9c-8.1-1.1-16.2-2.5-24.3-3.9c-1.1-0.2-2.7-0.8-3.1-1.6C447.7,167.6,445.3,161,442.7,154.1z"/>
<path class="st0" d="M469.3,149.5c-1.3,4.6-5,1.5-7.4,1.9c-1.3,0.2-3.9-2.1-4.2-3.6c-2.2-10.7,3.5-24.2,12.6-29
	c3.7-2,7.1-1,10.2,1.2c9.6,7.1,9.6,25.2-0.1,32.2c-1.2,0.9-3.4,0.4-5.1,0.6c0.4-1.9,0.7-3.9,1.1-5.8c2.3-2.9,4.5-5.8,6.2-7.9
	c-1.4-1.5-2.2-2.6-3.4-3.9c-1.5,1.7-2.9,3.4-3.8,4.4c-1.1-1.9-2.4-4.1-3.7-6.2c-0.7,0.3-1.5,0.5-2.2,0.7c0.3,2.5,0.5,5.1,0.8,7.6
	l0.1-0.2c-2.3,1.9-3.4,0.7-4-1.6c-0.4-1.5-1.1-2.9-1.7-4.3c-0.6,0.3-1.3,0.6-1.9,0.9c2.2,4.4,4.4,8.9,6.6,13.3L469.3,149.5z"/>
<path class="st0" d="M454.2,186c-2.1-0.3-4.1-0.6-6.2-0.9c0-0.3,0-0.6,0-1c1.4-0.3,2.9-0.6,4.3-0.9c0-0.2,0-0.5,0-0.7
	c-1.2-0.1-2.5-0.3-3.7-0.4c-0.2-0.4-0.4-0.9-0.6-1.3c1.5-0.8,3.1-2.3,4.5-2.1c8.2,1.1,16.4,2.7,24.7,4.1c-2,5.4-3.9,10.1-5.4,14.8
	c-1.2,3.8-3.6,5.5-7.3,4.9c-5.2-0.8-10.3-2-15.4-3.2c-4.8-1.1-4-4.3-3.3-8c0.8-4.3,3-5.5,6.9-4.5c0.4,0.1,0.9,0.1,1.3,0.2
	C454,186.7,454.1,186.4,454.2,186z"/>
<path class="st0" d="M476.3,146.9c-0.4,1.9-0.7,3.9-1.1,5.8c-2.8,0.5-4.9-0.4-6-3.2l0.2,0.2c-0.7-2.9-1.6-5.8,1-8.2l-0.1,0.2
	c2.5,0,5,0,7.6,0C477.4,143.6,476.8,145.2,476.3,146.9z"/>
<path d="M476.3,146.9c0.5-1.7,1-3.4,1.6-5.2c-2.7,0-5.1,0-7.6,0c-0.3-2.5-0.5-5.1-0.8-7.6c0.7-0.3,1.5-0.5,2.2-0.7
	c1.3,2.1,2.5,4.3,3.7,6.2c0.9-1,2.3-2.7,3.8-4.4c1.1,1.3,2,2.3,3.4,3.9C480.9,141.1,478.6,144,476.3,146.9z"/>
<path d="M470.5,141.5c-2.6,2.5-1.7,5.4-1,8.2c-2.2-4.4-4.4-8.9-6.6-13.3c0.6-0.3,1.3-0.6,1.9-0.9c0.6,1.4,1.2,2.9,1.7,4.3
	C467.1,142.2,468.1,143.4,470.5,141.5z"/>
</svg>
