<?xml version="1.0" encoding="utf-8"?>
<!-- Generator: Adobe Illustrator 23.0.3, SVG Export Plug-In . SVG Version: 6.00 Build 0)  -->
<svg version="1.1" id="Layer_1" xmlns="http://www.w3.org/2000/svg" xmlns:xlink="http://www.w3.org/1999/xlink" x="0px" y="0px"
	 viewBox="0 0 1024 600" style="enable-background:new 0 0 1024 600;" xml:space="preserve">
<style type="text/css">
	.st0{fill:#FFFFFF;}
	.st1{fill:#060606;}
	.st2{fill:#FEFEFD;}
	.st3{fill:#060707;}
	.st4{fill:#0A0A0A;}
	.st5{fill:#0D0D0D;}
	.st6{fill:#0F0F0F;}
	.st7{fill:#1B1B1B;}
	.st8{fill:#232424;}
	.st9{fill:#111212;}
	.st10{fill:#111111;}
	.st11{fill:#131313;}
	.st12{fill:#191919;}
	.st13{fill:#E7E5E5;}
	.st14{fill:#262727;}
	.st15{fill:#0B0B0B;}
	.st16{fill:#191A1A;}
	.st17{fill:#121212;}
	.st18{fill:#1D1D1D;}
	.st19{fill:#141414;}
	.st20{fill:#171818;}
	.st21{fill:#131414;}
	.st22{fill:#1E1E1E;}
	.st23{fill:#262626;}
	.st24{fill:#181818;}
	.st25{fill:#252626;}
	.st26{fill:#292929;}
	.st27{fill:#414040;}
	.st28{fill:#222323;}
	.st29{fill:#282929;}
	.st30{fill:#1A1B1B;}
	.st31{fill:#141515;}
	.st32{fill:#2D2D2D;}
	.st33{fill:#2E2F2F;}
	.st34{fill:#0B0C0C;}
	.st35{fill:#343535;}
	.st36{fill:#3C3D3D;}
	.st37{fill:#080808;}
	.st38{fill:#2F2F30;}
	.st39{fill:#1B1B1C;}
	.st40{fill:#313131;}
	.st41{fill:#3F4040;}
	.st42{fill:#0C0D0D;}
	.st43{fill:#0C0C0C;}
	.st44{fill:#111010;}
	.st45{fill:#0F1010;}
	.st46{fill:#101111;}
	.st47{fill:#151515;}
	.st48{fill:#121313;}
	.st49{fill:#101010;}
	.st50{fill:#1B1C1C;}
	.st51{fill:#111112;}
	.st52{fill:#0E0E0E;}
	.st53{fill:#181919;}
	.st54{fill:#050505;}
	.st55{fill:#1C1D1D;}
	.st56{fill:#0D0E0E;}
	.st57{fill:#242525;}
	.st58{fill:#DFDEDE;}
	.st59{fill:#CFCDCD;}
	.st60{fill:#323333;}
	.st61{fill:#CFCDCC;}
	.st62{fill:#D7D7D7;}
	.st63{fill:#EDECEC;}
	.st64{fill:#303131;}
	.st65{fill:#B0AFAF;}
	.st66{fill:#CDCDCD;}
	.st67{fill:#242424;}
	.st68{fill:#121111;}
	.st69{fill:#0E0F0F;}
	.st70{fill:#161616;}
	.st71{fill:#1F1F1F;}
	.st72{fill:#1C1C1C;}
	.st73{fill:#F7F6F6;}
	.st74{fill:#2E2D2D;}
	.st75{fill:#EFEEEE;}
	.st76{fill:#171717;}
	.st77{fill:#F9F8F8;}
	.st78{fill:#191A19;}
	.st79{fill:#202020;}
	.st80{fill:#292A2A;}
	.st81{fill:#070808;}
	.st82{fill:#1D1E1E;}
	.st83{fill:#1A1A1B;}
	.st84{fill:#525252;}
	.st85{fill:#444444;}
	.st86{fill:#C5C3C3;}
	.st87{fill:#F8F7F7;}
	.st88{fill:#2C2C2C;}
	.st89{fill:#FBFAFA;}
	.st90{fill:#222222;}
	.st91{fill:#E9E8E8;}
	.st92{fill:#DEDDDD;}
	.st93{fill:#E1E1E1;}
	.st94{fill:#D1D0D0;}
	.st95{fill:#DDDBDB;}
	.st96{fill:#D8D7D7;}
	.st97{fill:#E0DFDF;}
	.st98{fill:#E8E7E7;}
	.st99{fill:#D9D8D7;}
	.st100{fill:#ECECEB;}
	.st101{fill:#D5D3D3;}
	.st102{fill:#BDBBBB;}
	.st103{fill:#BEBDBC;}
	.st104{fill:#F6F5F5;}
	.st105{fill:#EFEDED;}
	.st106{fill:#ECEAEA;}
	.st107{fill:#DCDBDA;}
	.st108{fill:#FFFFFE;}
	.st109{fill:#F1F0F0;}
	.st110{fill:#E6E5E4;}
	.st111{fill:#F9F9F9;}
	.st112{fill:#F3F2F1;}
	.st113{fill:#E7E6E5;}
	.st114{fill:#E3E2E2;}
	.st115{fill:#F2F2F1;}
	.st116{fill:#E8E6E6;}
	.st117{fill:#EAE9E8;}
	.st118{fill:#EDECEB;}
	.st119{fill:#DCDBDB;}
	.st120{fill:#FEFEFE;}
	.st121{fill:#F0EFEE;}
	.st122{fill:#B8B6B6;}
	.st123{fill:#F5F4F4;}
	.st124{fill:#DDDCDC;}
	.st125{fill:#B6B4B4;}
	.st126{fill:#EFEEED;}
	.st127{fill:#F4F3F3;}
	.st128{fill:#EAE9E9;}
	.st129{fill:#7B7A7A;}
	.st130{fill:#F6F5F4;}
	.st131{fill:#F2F1F1;}
	.st132{fill:#161717;}
	.st133{fill:#1A1A1A;}
	.st134{fill:#E3E2E1;}
	.st135{fill:#252525;}
	.st136{fill:#D7D6D5;}
	.st137{fill:#A3A3A3;}
	.st138{fill:#D4D3D3;}
	.st139{fill:#D6D4D4;}
	.st140{fill:#424242;}
	.st141{fill:#313231;}
	.st142{fill:#585757;}
	.st143{fill:#1C1C1D;}
	.st144{fill:#434243;}
	.st145{fill:#343434;}
	.st146{fill:#1F2020;}
	.st147{fill:#272828;}
	.st148{fill:#E1E0DF;}
	.st149{fill:#3C3C3C;}
	.st150{fill:#393A3A;}
	.st151{fill:#2F2F2F;}
	.st152{fill:#171817;}
	.st153{fill:#101110;}
	.st154{fill:#3D3E3E;}
	.st155{fill:#151616;}
	.st156{fill:#DADAD9;}
	.st157{fill:#EBE9E9;}
	.st158{fill:#ECEBEA;}
	.st159{fill:#F3F3F2;}
	.st160{fill:#E5E4E3;}
	.st161{fill:#E6E4E4;}
	.st162{fill:#D2D2D1;}
	.st163{fill:#EEEDED;}
	.st164{fill:#E4E2E2;}
	.st165{fill:#E4E3E2;}
	.st166{fill:#E7E6E6;}
	.st167{fill:#EAE8E8;}
	.st168{fill:#EBEAEA;}
	.st169{fill:#D9D8D8;}
	.st170{fill:#CECDCC;}
	.st171{fill:#E9E8E7;}
	.st172{fill:#DBDAD9;}
	.st173{fill:#E4E4E4;}
	.st174{fill:#F3F2F2;}
	.st175{fill:#C4C3C2;}
	.st176{fill:#D6D5D5;}
	.st177{fill:#EBEAE9;}
	.st178{fill:#262727;stroke:#000000;stroke-width:0.9463;stroke-miterlimit:10;}
</style>
<path class="st0" d="M563.8,575.3c-0.4,9.5-1.7,26.9-1.7,38.9c0,15,32-1.2,32-1.2l34.2,3.6l42.2-3.3l21.2-8.4l2.4-3.1l-2.4-50.3
	l-0.5-37.3l-2.1-25.3l-42.1-3.1l-39.8-2.6l-28.3,10.2l-8.2,1.8l-4,33.7L563.8,575.3z"/>
<path class="st0" d="M569.5,504.8c-1.3,24.2-5.5,60.7-5.5,60.7l-0.2,10L644,575h48.8l-3.3-83.2L678.4,438l-103.7,15.9l-4.4,42.5
	L569.5,504.8z"/>
<polygon class="st0" points="571.8,475 580.3,391.3 563.1,362.4 499.8,320.9 432.2,277.8 419.9,189.4 492.6,183.1 509.6,207 
	525.1,207.4 530,192.2 535.4,150.6 545.2,120.8 550.9,120.2 595.7,129.1 618.4,131.1 629,136.5 632.7,144.1 643.3,151 658.2,163.6 
	658.4,168.4 670,175.3 677.3,180.2 680.6,192.9 680.6,207.4 680.8,223.8 682.5,234 687.3,248.4 687.3,283.5 681.6,337.5 673,404.5 
	676,436.3 685.3,474.2 688.9,501.2 689.5,510.4 "/>
<path class="st0" d="M451.2,204.4c-2.4-0.7-4.9-1.4-5.9,2.1c0,0.1-1.1,0-1.6,0c-1.8,2.3-4.5,4.3-1.5,7.7c0.9,1.1-0.7,2.8-0.8,4.4
	c-0.3,2.2-0.6,4.4-0.4,6.5c0.4,3.2-1.2,4.7-4.1,4.8c-4.8,0.2-9.5,1.2-14.3,1.2c-20-0.2-40,0.1-59.9-0.1c-9.1-0.1-18.1,1.5-27.3,2.3
	c-4.8,0.4-5.7-0.2-6.5-4.8c-2.2-15.3-3-30.8-3.9-46.1c-0.4-6-0.4-12-1.4-18c-1.2-6.8,0.4-8.1,7.1-8.5c13.4-1,26.9-0.3,40.2-2.6
	c0.8-0.1,1.5-0.2,2.3-0.1c19.4,0.6,38.7-0.4,58-1.2c22-0.8,43.9-0.3,65.9-0.7c14.5-0.4,29.1,0.4,43.6,0c2.7-0.1,4.5,0.4,4.7,3.6
	c0.3,3.9-1.4,7.5-3.7,8.3c-0.8,0.3-2-1.9-2.2,0.3c-0.1,1,0,2.5,1.3,2.6c4.9,0.5,4.6,4.2,4.6,7.6c0,10.2,0.1,20.4,0,30.7
	c-0.1,4.4,1,8.6,0.8,12.9c-0.2,4.7-1.2,5.6-5.7,5.8c-12,0.4-24.1-0.4-36.1,0.4c-4.1,0.3-8.3,0-12.5,0.9c-3.1,0.6-5.3-0.4-7.1-3
	c-1.5-2.2-3.2-4.1-5.3-5.8c-1.4-1.3-2.5-2.7-2.2-4.8c0.4-3.2-0.8-4.5-3.9-3c-1.3,0.6-2.6,0.7-4,0.3c-5.6-1.8-11.1-3.6-17.1-3
	C451.8,205.2,451.5,204.7,451.2,204.4z"/>
<path class="st0" d="M485.6,311.7c0.9,1.9,2.5,1.2,4,1.1c3.1-0.2,5.4,1,6.3,4.1c-1.5,1.9-3.7,1.5-5.6,1.4
	c-15.2-0.6-30.3,1.1-45.4,2.1c-13.1,0.8-26.3,1.1-39.4,2c-10,0.6-20.1,0.4-30.1,1.1c-10,0.6-20.1,0.8-30,0.7c-1.9,0-3.7-0.1-5.6,0.3
	c-3.4,0.7-4.9-0.9-5.1-4.2c-0.7-18.8-2.6-37.6-3.6-56.4c-0.4-8.8-0.6-17.6-1.7-26.4c-0.4-3,0.8-4,4-4.6c19.5-3,39.2-2.1,58.8-2.2
	c15.2-0.1,30.3,0.2,45.5-1.4c2.3-0.3,3.8,0.3,4.7,2.6c1.6,4.4,4.8,8.4,2.2,13.5c-0.1,0.1-0.2,0.9,0.3,0.8c2.5-0.4,2.3-0.3,3.5,1.4
	c1.8,2.9,2.7,6.3,4.3,9.2c1,0.8,0.8,1.7,0.1,2.6c-3.1,2.5-7.3,0-10.5,2.1c-0.5,0.4-1.4,0.4-1.9,1.1c-0.5,0.3,0.2,1-0.1,0.4
	c0-0.1,0.1-0.1,0.2-0.3c0.2-0.3,0.4-0.7,0.6-0.6c3,1.7,6.1-1,9.1,0.5c1.8,1,3.1,0.5,3.9-1.3c4.1,2.3,5,6.8,5.9,10.7
	c0.5,2.4-3,2.6-5,2.4c-2.4-0.2-3.9,0.3-4.2,3c-0.4,0.4,1,0.4,0.4,0.2c-0.3-0.1-0.3-0.2,0-0.4c2.9-2.8,6.5-0.5,9.7-1.3
	c1-0.2,1,1.3,1.3,2.2c3,7.5,6.8,14.5,13.4,19.6c3.7,2.8,1.7,7.7,4.3,10.5c0,0-0.2-0.4-0.2-0.9c-0.1-1.7-2.3-3.8,0-4.9
	c1.9-0.9,3,1.6,4.5,2.6C486.8,306.7,487.5,308.8,485.6,311.7z"/>
<path class="st1" d="M453,257.8c-3.5-3.6-4.1-8.9-7.1-12.8c-0.9,1.5,0.6,3.7-1.3,5c-0.5,0.4-1.1,1.3-2,0.5c-1.2-0.9-0.1-1,0.4-1.7
	c1.4-2.2,0.6-4-2.9-5.4c6.7-0.8,4.1-3.8,3.2-7c-1.5-5.3-3.4-6.7-9.6-6.4c-20,1.2-40.1,1.8-60.2,1.1c-13.8-0.4-27.6,0.8-41.4,2
	c-2.2,0.2-2,1.3-1.8,2.8c1.3,10.7,2.1,21.3,1.9,32.2c-0.1,6.3,1.2,12.6,1.6,18.8c0.7,11.4,1.3,22.9,1.9,34.3c0.1,2,0.8,2.3,2.5,2.1
	c7.8-1.3,15.6-0.4,23.5-0.9c21.5-1.1,43.1-0.8,64.7-2.5c6.1-0.4,12.3-0.4,18.4-0.9c16.9-1.5,33.8-2.5,50.8-2.2
	c1.3,0.1,2.8,0.1,4.6,0.2c-2.9-3.4-6.8-4.6-10.3-6.9c5.6-0.5,23.7,11.9,37.4,25.4c0.4,0.5,0.2,1-0.4,1.2c-2.7-0.2-4.7-1.9-6.3-3.7
	c-9.6-10.6-21.3-14-35.7-13.3c-17.6,1-35.2,2-52.8,3c-6.6,0.4-13.3,0.6-19.9,0.8c-11.1,0.4-22.2,1.4-33.4,1.3
	c-12.4-0.3-24.8,1.4-37.1,0.9c-2.1-0.1-4,0.1-3.9,3.1c0.4,13.8,1.3,27.5,5.4,40.9c2,6.4,2.7,6.7,9.4,5.7c3.9-0.5,7.7-0.4,11.6-0.4
	c3.2,0,6.4,0.1,8.9-2.9c1.5-1.9,3.6-1.3,5,0.7c0.5-0.9-0.6-2.5,0.9-3c1.6-0.6,2,0.9,2.7,1.9c2.5,3.1,4.2,3.3,6.9,0.2
	c1.7-2.1,3.4-2.5,5.6-0.8c1.9,1.1-1.9,3,0.4,3.9c0.2-0.3,0.6,0.4,0.8-0.2c-0.5,0.2-1-0.1-1.3-0.5c0-0.9,0.8-1.6,0.9-2.5
	c0.9-1.3,2.4-2.2,3.5-1c4.6,5.4,10.5,2.9,16,3.2c0.8,0.1,1.5-0.2,2.2-0.4c0.4-0.1,0.9-0.2,1.3-0.3c2.3,0.2,2.7-2.2,4.3-3
	c2.2,0.8,3.9,0.9,3.9-2.2c0-1.3,0.4-2.7,1.1-4.1c0.3-0.2-1-0.4-0.4,0c-0.9,1.5-2.2,1.3-3.6,0.9c-0.5-0.4-0.9-0.9-1.4-1.3
	c0.1,0.5,0.6,0.9,0.5,1.5c-0.8,1.3-2.2,1.6-3.2,1.3c-2.9-0.9-5.5-1-8.4-0.3c-2.5,0.6-3.9-1.3-3.9-3.9c0.1-0.7,0.4-1.3,0.9-1.8
	c1.7-1.8,3.6-3,6.1-1.4c1.3,0.8,2.7,0.2,4-0.1c2.8-0.7,5.3-2,8.5-1.1c2.8,0.8,2.8-3,4.4-4.6c0.3-0.4,0.5-0.7,0.9-1
	c2.6-2.2,5.6-3.5,7.4-6.6c1.3-2.2,4.3-2,6.5-3c2.8-1.2,4,0.9,5.6,2.7c2.2,2.7,6,1.9,8.8,3.6c0.8,1.3,2.4,0.2,3.2,1.2
	c1.7,1.2,3.2,2.4,4.6,3.9c1.5,1.6,2.8,3.2,5.5,2.1c1.3-0.6,2.7,0.1,3.7,1.3c1,1.3,0,2.3-0.8,3.2c-2.4,2.4-2.2,5.6-2.5,8.7
	c-0.2,2.2,1.1,3,3,3.2c3.2,0.3,6.5,0.2,9.8,0.1c1.1,0,2-0.2,2.4-1.6c1.5-4.6,3.2-4.9,7.4-1.8c0.7,1.8-1,2.7-2,4.4
	c11.3-0.4,22.2,0.9,32.3,0.3c1.5,0.4,0.6-0.7,0.8-0.2c0,0.3-0.1,0.4-0.4,0.3c-1.6-0.8-3-0.9-4.8-0.2c-1.4,0.6-3,0.7-4.6,0.4
	c-1.3-0.3-2.3-4-4-0.4c-0.1,0.2-0.4,0.1-0.4,0.1c-2.7-3.9-6.3-2.3-9.8-1.9c-0.4,0.1-0.7-0.9-0.8-1.5c0.3-2.5,2-3.3,4.1-3.5
	c1.4-0.1,2.8-0.1,3.5-1.6c0.4-0.8,1.3-1.3,1.9-0.5c2.3,2.8,6.5,0.5,8.8,3.2c2.3-2.2,6.3,1.5,8.3-2.3c0.5-1.1,8.6,2.7,8.8,4
	c0.3,1.9-2.7,2.2-2.2,4.2c-0.4,0.3-0.7,0.4-1.2,0.5c0.9,0.7,1.8-0.1,2.7,0c3-0.2,6,0.3,9-0.4c2.3-1,6.1,1,7.2-1.8
	c1.4-3.7,0.9-7.9,0.2-11.8c-0.4-2-2-2.1-3.7-1.4c-1.3,1.7,3.1,2.4,0.8,4c-1.6,1.2-3.2,0.1-4.8-0.8c-1.5-0.9-2.3-1.3-4.2,0.3
	c-2.3,1.8-4.7-1.3-6.9-2.3c-1.4-0.7-1.3-2.4-0.7-3.7c1.3-2.3,3.4-2.4,5.6-1.8s4.2,1.3,6.5-0.4c1.3-1.1-0.5-1.3-0.1-2.1
	c0.1-0.4,0.3-0.8,0.6-1.1c16.3,8.6,27.4,22.2,35.4,38.4c-0.6,0.1-2.2-0.8-2.2,1.9c0.4,16.5-3.4,32.7-4.4,49.1
	c-0.7,11.7-2.2,23.1-4.1,34.6c-0.7,0-1.3,0-0.7-0.9c1.6-13.3,2.2-26.6,4.3-39.9c0.8-4.8,0.7-9.9,1.1-14.8c0.4-6.7,1.8-13.5,2.4-20.2
	c0.9-10.8-6-27.2-14.8-33c-1,5.3-1,10.6-3.1,15.5c-2.4,5.7-6,11-11.7,13c-4.8,1.7-10.4,1.3-15.6,1.2c-12-0.5-24-0.7-35.9,0.3
	c-21.5,1.7-43,2.2-64.6,3.2c-19.5,1-39.3,0.7-58.9-0.1c-6.7-0.3-13.3-0.9-19.7-2.6c0-1.1,0.8-1.3,1.6-1.7c7.2-0.2,14.2,1.3,21.3,1.8
	c11.1,0.7,22.2,1,33.4-0.1c2.5-0.3,4.9-0.2,7.4-0.3c23.4-0.3,46.7-1.8,70-2.7c15.6-0.5,31.2-1.3,46.9-1.1c2.3,0,4.7-0.2,7-0.3
	c8.9-0.4,13.7-5.8,16.3-13.6c1.5-4.8,2.9-9.8,1-15.7c-1.2,1.7-0.8,2.9-0.8,3.9c-0.1,4.2-0.4,8.3-1.8,12.4
	c-2.2,5.9-6.1,9.1-12.4,10.7c-10.9,2.6-21.8,2.4-32.8,2.9c-18.8,0.7-37.8,0.8-56.6,1c-31.4,0.4-62.9-0.4-94.3-0.4
	c-8.6,0-14.1-6-17.9-13.1c-5.2-9.5-7.2-20.2-8.1-30.8c-1.8-21-2.7-42-4-63c-0.1-0.9,0-1.9,0-2.8c0.4-2.8-0.4-5.5-0.8-8.2
	c-1-21.2-2.8-42.3-4.6-63.4c-1.4-17.4-2.8-34.9-3.2-52.4c-0.4-18.4-2.2-36.8-3.9-55.1c-0.8-8.3-0.9-16.7-1.1-25
	c-0.3-9.1,0.8-17.9,0.5-26.9c-0.1-4,0.4-8.1,1.1-12c2.3-12.9,9.8-20,23-20.9c16.1-1,32.1-2,48.2-2.1c9.8-0.1,19.5,0.4,29.2-0.7
	c5.2-0.6,10.5-0.4,15.8,0.4c6.7,1.1,13.3-0.6,19.9-0.6c19.4,0,38.7,0,58.1,0c4.7,0,9.2-0.8,13.9-0.1c10.8,1.6,16.6,7.3,17.9,18
	c1.3,9.7,0.7,19.5,1.6,29.2c2.1,22.2,0.2,44.6,0.1,66.8c-0.1,21.5-0.6,43.1,0.2,64.6c0.9,24.1,1.9,48.2,1.7,72.5
	c0,1.2-0.1,2.4,1.2,4.2c1-3.8,0.7-6.9,0.4-10c-0.6-4.5-0.5-9-0.7-13.5c-1-26.6-2.2-53.2-2.3-79.8c0-19.8,0.1-39.5,0.4-59.4
	c0.4-19.1,0.2-38.1-0.1-57.2c-0.1-8.2-1.2-16.4-3.5-24.3c-0.4-1.6-1.1-3.2-1-5c0-1,0.5-1.6,1.4-2c3.6,5.2,3.7,11.4,4.6,17.2
	c3.6,24.3,1.5,48.8,1.8,73.3c0.1,7.8,0.6,7.6,8.4,9.3c7.5,1.6,15.1,2.9,22.6,4.8c7.9,2.1,15.9,3.8,24.1,4.5c5.4,0.4,11-0.2,16.3,1.6
	c4.1,1.4,8.6,3.8,9.9,7.4c3,8.6,10.7,10.9,17.3,14.9c3.9,2.3,8,4.8,9.1,9.3c1.1,4.4,4.1,5.8,7.6,7.3c12,5,18.7,17.8,16.2,30.8
	c-0.5,3-0.3,6.2-0.2,9.2c0,2.2-0.2,4.2-2.1,7.3c0.6-7-0.4-12.8,0.9-18.7c1.9-8.6-5.9-22.8-14.1-26.4c-1.5-0.6-3-1.3-5.1-2.1
	c0,4.8-0.4,9.6-3.2,14.3c5.5-19.4-5.7-28.4-21.4-35.3c2.8,8.3,2.7,16.2,0.3,24.2c0-2.4,0-4.9,0-7.4c0-2.5,0.4-5-0.1-7.4
	c-1.5-9.6-3.8-18.7-12.9-24.5c-3.1-2-6.6-2.8-10-2.8c-14.7,0.1-28.7-3.9-42.8-7.2c-4.4-1.1-8.9-1.6-13.7-2.5
	c10,8.3,19.7,16.3,30.8,22.6c10,5.7,15.1,15.2,16.9,26.2c0.7,4.3-1.1,9-0.8,13.6c0.4,5.6,0.3,11.4,0,17c-0.2,4.3-0.8,8.5-1.5,12.7
	c-0.7,3.9,0.4,7.7,1.1,11.5c0.8,4,0.1,8,0.3,11.9c-1.5-10.5-3.5-20.9-2.1-31.7c1.3-9.8-0.3-19.8,0.6-29.7c1-11.4-3.3-20.3-11.5-27.3
	c-5.2-4.5-11.8-7.4-17.5-11.5c-7.7-5.6-14.8-12.1-23.1-17.8c-0.3,11.8-1.2,23.4-0.6,35.1c0.8,17.6,0.2,35.2,0.5,52.7
	c0.4,18.1,1.2,36.1,1.8,54.3c0,0.9-0.4,2.1,0.7,2.4c3.5,1.3,3.2,4.2,3,6.9c-0.3,2.8,0.5,4.2,4.7,3.5c-3.6,2.6-6.1,3.5-9.4,2.3
	c-8.5-2.8-16.1-7.7-24.7-10.3c-10.9-3.3-18.2-10.9-25.6-18.7c-0.4-0.4-0.6-1-1-1.7c2.8-0.7,2.8,2.1,4,3c2.8,1.8,5.2,4.1,7.8,6.3
	c0.8,0.7,1.2,0.7,1.4-0.4c0.5-2.1,2-1,3-0.7c1.3,0.5,1,2.5,0.6,2.8c-3,2.2-0.3,3,1.1,3.7c3.2,1.6,6.3,4.9,10.4,1.8
	c1.2-0.9,3-0.1,3.2,0.6c1.8,6.5,9.1,5.5,12.2,10c1.7-1.3,1.1-2.7,1.1-3.8c0-14.3-0.1-28.5,0-42.8c0-2.4-0.3-3.2-3.2-3.1
	c-11.9,0.4-23.9,0.3-35.8,0.1c-5.6-0.1-10.9,1.2-16.7,1.2c0.9,4.4,4.1,7.2,5.6,10.9c0.5,0.8-0.1,0.9-0.6,0.9
	c-4.4-5.3-7.1-11.7-11.6-16.9c-7.8-9.2-17-14.9-29.7-13.8c-2.7,0.3-4.1,2.5-6.9,2.7c0.8-2.7,3.1-3.4,5-4.7c4.8-1.7,9.3,0.1,13.8,1.2
	c3.3,0.8,6.1,2.7,9.9,0.2c2.7-1.8,5.4,1.2,4,4.6c-0.7,1.7-0.9,2.9,0.4,4c3,2.7,5.8,5.5,8,8.9c0.9,1.3,2.2,0.9,3.3,0.8
	c13.5-0.8,26.9-2.7,40.4-1.2c3.7,0.4,7.6-0.8,11.5-0.6c2.2,0.1,2.6-1.3,2.4-3c-1.3-16.5-0.6-33.1-0.8-49.6c-0.1-4.2-2.9-2-4.6-1.6
	c-0.9,0.2-2,0.7-2.5-0.1c-0.9-1.3,0.8-1.2,1.2-1.7c0.9-1.3,0.8-3.4,0.1-3.9c-3-2.1,0.2-2.7,0.4-4.1c0.5,0.3,0.8,0.4,1,0.5
	c1.2,1.1-0.3,3.9,2.1,3.8c2-0.1,1.3-2.8,2.2-4.1c0.4-0.8,0.1-2.2,0.3-3.2c0.4-2.5-0.4-2.8-3-2.8c-12.2-0.1-24.5-0.6-36.6-0.2
	c-22.5,0.8-45.2-1.2-67.6,1.3c-0.4,0.1-0.9,0.1-1.3,0.1c-17.9-0.5-35.8,0.8-53.7,1.1c-16.6,0.3-33.2,1.9-49.8,2.6
	c-8.2,0.4-7.9,0-7.1,8.1c1.1,10.8,2.2,21.5,2.4,32.3c0.3,11.1,2.2,22.1,2.9,33.1c0.1,1.8,0.9,2.1,2.3,1.8
	c29.3-4.8,58.8-1.9,88.3-2.8c5.4-0.2,10.8-0.5,16.1-0.9c2.2-0.2,4-0.6,3.1-3.9c-0.8-2.7,0.7-5.5,1-8.2c0.7-0.1,1.3,0,0.8,1
	c-1.3,11.3,4.1,20.9,8,30.9c1,2.7,2.2,5.3,3.2,7.9C453.5,257,453.4,257.4,453,257.8z"/>
<path class="st2" d="M543.4,22.3c4.2,11.7,5.5,23.9,5.4,36.4c0,23.7,0.4,47.3-0.2,71c-0.6,25.6,0.2,51.2,0.4,76.9
	c0.1,17,1.7,34,1.9,51c0,4.9,0.8,9.9,0.7,14.8c0,1,0.9,2.9-1.3,2.8c-1.6-0.1-3.4-0.4-3.3-2.9c0-0.8,0-1.5,0-2.3
	c0.3-20.9,0-41.7-1.1-62.5c-1.5-28.9-0.4-57.8-0.8-86.5c-0.2-11.3,1.4-22.5,0.9-33.8c-0.9-18.3-1.8-36.6-2.9-54.9
	c-0.4-6.5-8.3-12.9-15.6-13.6c-6.2-0.6-12.3,0.2-18.5,0.1c-18.7-0.2-37.5-0.7-56.2,0.3c-11,0.5-21.9-1.1-32.7-0.2
	c-14.8,1.3-29.7,0-44.5,1c-11.5,0.8-23,0.8-34.5,1.6C329.3,22.3,321,30,320,41.9c-1,12.4-1.4,24.8-1.4,37.2
	c0,14.2,1.3,28.2,2.4,42.3c1.3,17.1,2.1,34.2,2.9,51.3c0.9,17.7,2.7,35.3,4,53.1c0.8,9.7,2.8,19.3,2.2,29.1
	c-0.4,7.2,1.6,14.2,0.9,21.3c-0.7,2.6,1.1,4.9,0.9,7.4c1.3,21.9,2.3,43.8,4,65.6c0.8,9.9,3,19.6,7,28.9c2.8,6.3,7.3,10.4,13.1,13.6
	c1.2,0.6,2.3,0.6,3.5,0.6c22.2,0,44.3-0.5,66.5,0.4c22.2,0.9,44.4-0.8,66.6-0.4c12.2,0.3,24.4-0.2,36.5-1c6-0.4,11.9-2.1,17.9-3.3
	c5.9-1.3,8.9-8.1,9.6-13.5c0.7-4.8,0.8-9.7-0.4-15.1c3.4,1.9,5.8,3.6,5.5,7.5c-0.5,7.2-1.8,14.1-6.1,20.3
	c-4.2,6.1-10.4,6.4-16.5,6.8c-5.7,0.4-11.5,0.3-17.2,0.1c-21-0.4-42,1.6-63,2.2c-23.2,0.7-46.5,2-69.8,2.4
	c-10,0.2-19.9-0.8-29.7-2.6c-1.3-0.3-2.8-0.1-4.1-0.2c-3.1-0.1-5.2-2.7-7.9-3.7c-0.7-0.6-1.3-1.3-2.1-1.9c-3.7-1.9-5.6-5.2-7.3-8.7
	c-0.5-2.2-1.6-4.2-2-6.5c-1.9-8.3-3.9-16.6-4.6-25c-1.8-21.1-3.4-42.1-4.9-63.1c-1.5-19.8-3.4-39.6-4.8-59.5
	c-1.5-21.1-2.7-42.2-3.8-63.3c-1.6-33.8-4.5-67.5-4.6-101.4c0-8.8,1.3-17.5,2.6-26.3c1.7-11.6,9.5-16.9,19.8-19
	c11.1-2.2,22.4-1.8,33.6-2.8c25.8-2.2,51.7-0.5,77.5-1.1c17.8-0.4,35.5-1.3,53.4-0.9c9.7,0.2,19.5-0.7,29.1,0.2
	c5.1,0.4,9.7,2.1,12.9,6.4C543.3,20.2,543.9,21.1,543.4,22.3z"/>
<path class="st3" d="M543.4,22.3c-1.8-4.1-4.8-6.4-9.1-7.4c-9.9-2.4-19.7-1.9-29.8-1.2c-10.5,0.7-21.1-0.1-31.6,0.4
	c-31,1.4-62.1-0.1-93.1,1.1c-15.5,0.6-31.2,0.5-46.6,4.1c-12.5,3-15.2,10.6-16.8,20c-2.8,16.9-2.3,34.2-1.8,51.3
	c0.4,12.5,1,25,1.9,37.4c1.3,16.6,1.9,33.2,2.7,49.9c0.9,18.3,2.2,36.7,3.7,55c1.4,19.2,3.7,38.3,4.8,57.6c1,17.6,3.2,35,3.7,52.6
	c0.3,10.2,3,20.3,5,30.3c0.2,1.1,0.3,2.2,0.4,3.1c0.5,1,0,1.1-0.8,1c-3.2-13.5-5.3-26.9-6.1-40.8c-0.6-11.7-2-23.3-2.8-35.1
	c-0.7-10.1-1.6-20.3-2.4-30.5c-1.3-15.3-2.7-30.8-4.2-46.1c-0.7-6.6-1-13.3-1.2-19.8c-0.5-20.1-3-40.1-3.1-60.2
	c-0.1-13.5-0.8-27.2-2-40.7c-1.2-14.3-1.8-28.6-1.6-43c0.2-9.2,1.4-18.4,3-27.4c1.8-10.1,11.2-15.2,20.4-17.2
	c11.5-2.5,23.2-1.8,34.8-2.7c28.4-2.2,56.9,0.1,85.4-1.2c18.6-0.8,37.1-0.5,55.7-1c7.4-0.2,15.1-0.9,22.4,1.2
	c4.6,1.3,8.3,3.6,10,8.3C543.9,21.6,543.6,21.9,543.4,22.3z"/>
<path class="st4" d="M683,463.9c-3.6-13.5-7.4-27.1-9.3-41.1c-0.8-6.1-1.6-12.1-0.6-18.4c1.3-9.2,0.1-18.7,2-28.1c2-9.9,3-20,4.3-30
	c1.3-10,1.7-20.3,3.6-30.2c3.3-17.2,3.9-34.7,5.6-52.1c1-8.9-0.7-16.4-4.3-24.3c-2.1-4.7-2.2-10.2-3.3-16.1c2.8,1.3,2.2,3.7,2.6,5.2
	c1.1,5.1,2.3,10.1,4.8,14.8c2.3,4.5,2.4,9.4,2.3,14.3c-0.4,12.5-1.8,24.8-2.9,37.2c-1.3,16.1-4.7,31.8-6.3,47.9
	c-1.3,13.3-4.1,26.6-5.6,39.9c-1.6,14.3-2.8,29,0,43.8c2.2,12.1,6.2,23.9,7.9,36.1C684.2,463.7,683.7,463.9,683,463.9z"/>
<path class="st5" d="M485.6,311.7c-0.9-0.2-2.1-0.1-2.2-1.3c-0.1-1.3,1.1-0.4,1.6-0.7c0.9-0.4,2-1.5,0.8-1.7c-3.2-0.6-3-5-6.8-5.2
	c1.3,1.6,0.7,3.4,1.4,4.8c0.6,1.2,0.4,2.1-0.7,2.7c-1.1,0.5-2.4,0.5-2.9-0.5c-0.8-1.9,1.4-0.5,1.8-1.3c0.1-0.1,0.3-0.4,0.3-0.4
	c-2.7-2.4-1.3-6.7-3.4-8.8c-6.4-6-11.3-12.8-14.2-21.2c-0.7-2.1-0.8-2.2-2.8-0.7c-1.1,0.8-2,0.8-2.9,0.1c-3.3-2.8-3.9-0.5-4.3,3
	c-1.7-2.2-2.5-4.3-1.5-6.1c1-1.7,2.8-3.1,5.2-0.9c0.5,0.4,2.6-1.4,4.3-0.4c0.8-1.5-0.4-2.7-0.9-3.9c-1.2-2.8-2.3-5.6-4.5-7.9
	c-0.1-0.2-0.3-0.3-0.4-0.4c-0.2-0.6-0.1-1.2,0.4-1.6c0.4-0.2,0.7-0.1,1,0.3c3.4,5.1,6.5,10.4,7.5,16.6c0.6,3.6,3,6.3,4,9.2
	c7.2-1.2,7.2-10,13.4-12.6c-2.6,2.8-4.4,5.9-5.4,9.5c-0.1,0.4-0.5,0.7-0.9,1c-5.7,4.4-5.7,4.3-1.8,9.7c0.6,0.1,1,0.4,1.2,1
	c4.3,3.8,8.6,7.5,13.3,10.9C488.6,306.6,488.8,309.5,485.6,311.7z"/>
<path class="st6" d="M535.8,342.1c1.5,1.3,3,2.6,4.6,3.9c0.1,0.8-0.4,1.2-1.1,1.4c-6,1.6-11.9,3.9-18.1,0.9
	c-1.2-0.6-2.3,0.4-3.5,0.7c-2.4,0.8-4.6,0.9-5.8-1.9c-0.6-1.6,1.4-3,0.4-4.6c1.1-1.8,2.7-1.3,4-0.5c2.5,1.2,5.1,0.3,7.5,0.7
	c2.9,0.4,3.4-2.3,5-3.6c2.6,1.1,2.5,2.9,1.6,4.8c1-1,2.2-2.1,4-2.1C535.1,341.8,535.5,341.9,535.8,342.1z"/>
<path class="st7" d="M682.9,463.4c0.3-0.4,0.6-1,0.8-1.3c0.9,4.7,3.4,13.1,5.2,20c1.6,8.6,1.8,7.4,1.6,17.3c-0.4,0-0.7-0.6-1-0.6
	C690,491.4,686.5,478.7,682.9,463.4z"/>
<path class="st8" d="M633.1,219.4c1-12.6,2-25.2,2.9-37.8c2.2,12.8-0.3,25.2-1.7,37.8C633.9,219.4,633.6,219.4,633.1,219.4z"/>
<path class="st9" d="M474.3,243.2c-3.7-6.8-6.5-13.1-11.2-18.4c-5.3-5.9-8.3-6.8-15.2-3.9c2-3.7,5.9-4.8,10-2.8
	C464.4,221.4,473.4,234.7,474.3,243.2z"/>
<path class="st10" d="M606.9,426.4c-3.3-12.6-16.5-16.9-23-27.8c4.3,1,5.1,4.8,7.7,6.8c6.4,4.8,12.6,10,16,17.7
	C607.8,424,609.1,424.8,606.9,426.4z"/>
<path class="st11" d="M461.3,253.8c-3.4,1.8-5.2,0.6-6.4-1.5c-4.2-7.7-8.3-15.5-10-24.3c-0.4-1.9-0.2-3.2,1.6-5
	c-0.8,6.6,1.6,12.1,4.2,17.3C453.2,245.1,454,251.5,461.3,253.8z"/>
<path class="st12" d="M623.4,434.2c-3-7.5-7.8-14-12.7-20.4c5.8,5.5,11.4,11.2,13.5,19.4C624.7,434.2,624.2,434.2,623.4,434.2z"/>
<path class="st13" d="M505.3,234.3c0.5,0,1.1,0,1.6,0c1.4,0.8,5.8-2.4,3.8,2.9l0.1-0.1c-1.8,2.3-3.4,4.8-6.8,4.4
	c-1.7-0.2-2.1-1-1.3-2.4C503.9,237.7,503.8,235.5,505.3,234.3z"/>
<path class="st14" d="M571.8,475c-0.4,3.5-1.3,20.1-2,27.4c-0.4,4.5-0.8,8.7-1.1,11.5c0,0.5-4.8,61.1-4.8,61.5c-0.4,0,0,0.6-0.5,0.5
	c0.1-0.4,4.4-61.6,4.4-62.2c0.4-3.6,0.5-9.3,1.3-15c0.9-6.7,0.5-20.9,1.8-24.1C571.3,475,571.5,474.6,571.8,475z"/>
<path class="st14" d="M690.5,498.5c0,3.6,1,20.1,1.1,27.5c0.1,4.5,0.2,8.8,0.2,11.5c0,0.5,2.2,61.3,2.2,61.6c-0.4,0,0.1,0.5-0.4,0.5
	c0-0.4-2.7-61.7-2.7-62.3c-0.1-3.6-0.6-9.3-0.5-15c0.1-6.7-1.9-20.8-1-24.1C690.1,498.5,690.2,498.1,690.5,498.5z"/>
<path class="st15" d="M658.4,217.5c-3.8-7.9,0.2-14.5,0-21.1C658.4,203,658.4,209.6,658.4,217.5z"/>
<path class="st16" d="M660.4,244.5c-0.8-5.6-1.8-11-2.3-16.5C660.6,233.2,661.8,238.7,660.4,244.5z"/>
<path class="st17" d="M462.7,253.6c1.9-5.6,9.3-4.4,11.6-9.7C473.9,251.2,465.8,249.5,462.7,253.6z"/>
<path class="st18" d="M503.3,238.9c-0.2,0.5-0.4,1.1-0.5,1.6c1.4,0.3,3,0.7,4.3-0.4c1.3-1.1,2.1-2.6,3.7-3.2
	c0.6,1.7-1.4,2.2-1.5,3.5c1.1,0.2,2.1,0.4,3.4,0.5c-3.3,2.1-6.8-0.3-10,1.4c-0.4,0.3-2.4-0.8-2.5-1.3c-0.1-1.4,1.1-2.4,2.2-3.1
	C503.3,237.9,503.7,238,503.3,238.9z"/>
<path class="st16" d="M441.9,217.7c-0.3-0.4-0.5-0.6-0.8-1c1.4-3-0.4-3.6-3-3.9c1.8-2.4,2.8-5.1,5.6-6.3
	C441,209.9,445.3,214.4,441.9,217.7z"/>
<path class="st19" d="M537.6,259.5c-1.3-0.4-3.2-0.8-2.6-2.4c0.6-1.6,0-4.6,1.9-4.8c2.2-0.3,3.4,2.1,3.6,4.3
	C540.6,258.4,539.1,259,537.6,259.5z"/>
<path class="st20" d="M600.9,404.4c-3.8-2.7-7.5-5.5-11.3-8.2c-0.4-1.1,0.2-1.3,1.1-1.1c3,3.7,8.3,4.4,11.1,8.4
	C602.1,404.4,601.7,404.6,600.9,404.4z"/>
<path class="st19" d="M472.2,288.3c1.1-4.6,7.2-4.1,8-9c0-0.2,0.9-0.4,1.2-0.3c0.9,0.5,0.3,1.2,0,1.9
	C479.9,285.5,474.8,285.2,472.2,288.3z"/>
<path class="st21" d="M489.4,284.1c-3.9,2.2-2.7,8.5-8.2,9.3C485.2,291.3,483.5,284.8,489.4,284.1z"/>
<path class="st22" d="M587.9,412.7c4,2.2,6.7,5.3,7.2,10C592.5,419.4,590.7,415.8,587.9,412.7z"/>
<path class="st4" d="M514.4,234.7c1.2,1.4,0.1,4,3.7,3.5c1.5-0.3,1.2,2.5,0.9,4.3c-1.8-2.6-1.8-2.6-4.6,0
	C514.4,239.8,514.4,237.3,514.4,234.7z"/>
<path class="st6" d="M523.4,253.4c-1,2.1,0,5.3-3,4.9c-2.2-0.3-2.4-2.5-2-6C520,257.1,521.7,254.8,523.4,253.4z"/>
<path class="st23" d="M623.4,434.2c0.3-0.4,0.5-0.6,0.8-1c1.6,3.1,3.2,6.2,4.8,9.2c-0.4,0.4-0.7,0.4-1.2,0.1
	C625.7,440.2,624.6,437.1,623.4,434.2z"/>
<path class="st24" d="M338.8,381.8c1.3,3.7,4.8,5.6,6.6,8.8c-4-0.8-6-3.5-6.9-7.3C338.2,382.7,338.3,382.1,338.8,381.8z"/>
<path class="st14" d="M494.3,237c0.3-0.4,0.4-0.6,0.6-0.9c3.4,1.2,3,4.4,3.6,7.1C496.8,241.3,494.8,239.7,494.3,237z"/>
<path class="st25" d="M472.8,293.9c-0.4-0.4-0.8-0.7-1.2-1c1.8-3.1,5.5-2.7,9-4.8C478.7,292,474.2,290.9,472.8,293.9z"/>
<path class="st26" d="M503.3,238.9c-0.3-0.3-0.5-0.6-0.8-0.9c2.5-3.9-0.4-3.1-3.3-2.5c2.2-3,4-2.5,6.1-1.3
	C506,236.4,504.4,237.6,503.3,238.9z"/>
<path class="st27" d="M535.8,342.1c-0.4,0-0.9,0.1-1.3,0.1c-3.1,1-3.4-2.4-5.4-3.3c-1.2-0.2-1.9-0.8-1.8-2.2c0-0.4,0.1-0.8,0.1-1.3
	C530.6,337.3,533.1,339.8,535.8,342.1z"/>
<path class="st28" d="M539.5,346.8c0.3-0.3,0.6-0.5,0.9-0.8c2.2,1.7,4.4,3.3,6.6,4.9c0,0.4-0.1,0.9-0.1,1.3
	C543.5,351.9,540.5,350.7,539.5,346.8z"/>
<path class="st28" d="M347.6,392.4c3.4-0.4,5.1,2.9,7.9,3.7c-0.4,0.3-0.6,0.5-1,0.8C351.8,396,349.2,394.9,347.6,392.4z"/>
<path class="st29" d="M479.2,243.7c-1.9,1.5-3.1,1.2-3.7-1.3c-0.2-0.9-0.4-1.9,0.6-2.3c1.3-0.5,1.1,1,1.6,1.5c0.4,0.4,0.9,0.7,1.3,1
	c0.3,0.3,0.4,0.4,0.3,0.7C479.3,243.6,479.2,243.7,479.2,243.7z"/>
<path class="st3" d="M531.8,253c-2.5,0.8-3.2,2.7-4.1,4.5c-0.1,0.3-1.2,0-1.2-0.9c-0.1-2.6,2-3.5,3.8-4.6
	C530.4,251.9,530.9,252.5,531.8,253z"/>
<path class="st30" d="M463.6,254.5c-0.8,3-3.2,3.2-5.5,3.9c-0.1,0-0.4-0.7-0.4-0.7C459.7,256.6,461.7,255.5,463.6,254.5z"/>
<path class="st28" d="M510.6,237.1c-0.3-1.2,0.5-3.7-2.3-2.1c-0.7,0.4-1.5,0.4-1.4-0.8c1.6-0.7,3.3-2,4.8-0.2
	C513,235.5,512.1,236.5,510.6,237.1z"/>
<path class="st31" d="M562.8,270.3c0-2,0-3.9,0-6.3C564.7,266.3,565.3,268.2,562.8,270.3z"/>
<path class="st32" d="M338.8,381.8c-0.1,0.4-0.2,1-0.3,1.5c-1.7-1.5-1.8-3.9-2.5-5.8c0.3-0.4,0.5-0.6,0.8-1
	C338,378.1,338.9,379.7,338.8,381.8z"/>
<path class="st33" d="M600.9,404.4c0.3-0.3,0.5-0.6,0.8-0.9c1.8,1,3.2,2.2,2.8,4.7C602.8,407.3,601.8,405.9,600.9,404.4z"/>
<path class="st34" d="M635.6,242.6c-1.6-1.4-1.2-3-0.8-5.3C636.9,239.4,635.9,241,635.6,242.6z"/>
<path class="st35" d="M565.2,273.5c0.8,2.7,0,3.6-1,4.3c-0.2,0.1-1-0.3-1.1-0.5C562.6,275.4,564.6,275.4,565.2,273.5z"/>
<path class="st36" d="M579.4,190.1c2.7,1.8,1.9,3.6,1.3,5.3C580.4,193.9,580,192.4,579.4,190.1z"/>
<path class="st36" d="M590.7,395.1c-0.4,0.4-0.7,0.7-1.1,1.1c-0.8-1.2-1.5-2.2-2.5-3.7C589.5,392.5,589.8,394.2,590.7,395.1z"/>
<path class="st37" d="M606.4,251.8c-1.1-2.2-0.6-3.2,0.4-4.8C607.8,248.9,607.5,250,606.4,251.8z"/>
<path class="st38" d="M627.8,442.6c0.4,0,0.7,0,1.2-0.1c1.3,0.7,1.7,2,1.8,3.5C628.5,445.9,628.9,443.6,627.8,442.6z"/>
<path class="st39" d="M475.6,248.7c-1.1,2.6-2.9,2.5-5.2,3.6C472,249.9,473.6,249.7,475.6,248.7z"/>
<path class="st40" d="M479.2,243.7c0-0.4,0-0.7-0.1-1.1c0.6-0.9,1.3-1.8,2.5-1.7c0.1,0,0.4,0.5,0.3,0.8
	C481.6,243.1,479.8,242.7,479.2,243.7z"/>
<path class="st41" d="M454.9,259.5c-0.3,0-0.6,0-0.9,0c-0.4,0.4-0.9,0.5-1.3,0.4c-0.1-0.1-0.3-0.3-0.4-0.4c0.3-0.5,0.5-1.1,0.8-1.6
	c0.1-0.4,0.1-0.9,0.2-1.3C453.7,257.5,454.2,258.5,454.9,259.5z"/>
<path class="st15" d="M450.3,168.1c-3.7,1.9-7.5,1.3-11.2,0.4c-2.2-0.5-2.7-5-1-6.3c1.3-0.9,3-1.1,4.4-0.3c0.5,0.3,1.3,1.3,1.2,1.7
	c-0.5,2.2-3,1.3-4.6,2.3c4.8,2.4,10-1.9,10.5-8.7c1.9,2.3,1.6,5,1.7,8.6c2.2-2.6,1.6-5.9,4.8-7.2c4.6-1.8,7.8,0.2,10.6,2.9
	c1.8,1.7,2.3,1.2,3.7-0.1c2-1.8,4.1-3.9,7.2-1.9c1.8,1.3,3.4,3,3.4,5.2s-2.2,3.2-3.9,4c-1.2,0.5-2.4,1-4.3,1.7
	c1.8,0.3,3.1,0.4,4.6,0.6c-4.4,3-7.6,1-9.1-5.5c0.4,5.6-3,6.6-7.4,7c-2.7,0.2-5,0.2-6.9-2.3c-0.8-1.1-1.9-2.5-3.8-2.3
	c-0.4-0.4-0.8-0.9-1.3-1.3C449.3,167.4,449.8,167.7,450.3,168.1z"/>
<path class="st42" d="M344.2,187.8c-7.8,0-14.7-6.2-14.8-13.3c-0.1-6.5,7-13.7,13.5-13.8c7.5,0,16.3,7.4,16.3,13.8
	C359.2,181.2,351.6,187.8,344.2,187.8z"/>
<path class="st43" d="M496.6,163.6c0.9-0.3,2.2-1.1,2.5-0.8c3,2.5,6.1-0.1,9.2,0.4c3.8,0.4,4.2,0.7,2.8,5.6
	c-0.3-1.7-0.5-2.8-0.7-3.8c-2,0.4-0.7,3-2.6,3.4c-1.4-0.7-0.4-2.4-1-3.3c-2.3,0.4-0.4,5.6-4.6,3.2c-0.2-0.3-0.4-0.4-0.7-0.5
	c0.3,0.1,0.5,0.3,0.8,0.4c-3,2.7-6.7,0.1-10,1c-1.9,0.5-4.7,1.8-5.5-2.5c-0.4-2.2-2.6-1.1-3,1.1c-0.2,0.8-0.2,1.7-1.3,1.4
	c-1-0.3-0.7-1.3-0.6-1.9c0.1-0.4,0.5-0.8,0.6-1.2c0.6-2.3,0.2-6.3,2.2-6.6c3.3-0.6,1.4,4.4,4.4,5.4c1-2,5.9-0.9,4.7-5.8
	c1.6,1.6,1.9,3.2,2.2,4.8c0.1,0.3,0.2,0.5,0.3,0.7C496.5,164,496.6,163.8,496.6,163.6z"/>
<path class="st9" d="M368.2,220.1c-1.3-0.4-3.7,0.4-4.4-2.1c-0.7-2.6,0.1-4.8,3.1-5.6c1-0.3,1.9-1,2.9-1.3c3.6-1.1,9.1,1.4,9.7,4.3
	c0.3,1.5-4.8,8-6.5,8.4c-2.1,0.5-2-0.9-1.8-2.2C371.5,219.6,370.8,218.9,368.2,220.1z"/>
<path class="st44" d="M525.2,210.5c2.1,1,3.6,2,5.7,0.7c1.1-0.6,2.8-0.4,3.6,1.2c0.4,0.8,0.6,1.9-0.4,2.4c-1.3,0.6-2.8,1.8-4.2,0.4
	c-2.3-2.2-4.8-3.4-8.1-2.2c-1.3,0.4-2.4-0.4-2.8-1.8c-0.5-2.1,1.3-2.6,2.4-2.6c3.1-0.1,5.6-0.7,7.1-3.9c0.7-1.5,2.5-1.1,3.8-0.8
	c1.1,0.3,1.7,1.4,1.5,2.6c-0.3,1.7-1.6,2.1-3.1,2C528.7,208.1,526.9,208.4,525.2,210.5z"/>
<path class="st45" d="M413.4,170.2c-2.3-0.7-0.3-3.2-2.2-3.8c-2,0.7,0.3,3.6-2.2,4c-1-0.4-0.4-1.4-0.5-2.2c-0.2-1-0.4-1.9-1.6-1.8
	c-1.1,0-1,0.9-1.3,1.6c-1.1,2.4-6.4,4.1-8.9,3c-0.9-0.4-1.3-1.1-1.3-2.2c0-2.8,2.5-2.1,3.9-2.8c-1.2-1.4-3,0-4.1-1.1
	c0.9-2.2,3.2-1.7,3.9-1c3,3.7,6.7,0.5,10,1C413.2,165.5,414.1,165.3,413.4,170.2z"/>
<path class="st46" d="M455,182.8c0.8-3.5,1.1-3.5,4.2-1.8c0.9,0.4,2.3,0.8,2.9-0.5c0.6-1.5,1.8-1.4,2.6-1.1c2,0.9,3.7,2.3,5.6,0
	c0.1-0.2,1.1,0.3,1.6,0.5c0.1,0-0.1,1-0.4,1.1c-2.4,0.7-1.4,2.3-0.3,2.7c1,0.4,2.7-0.4,3-2c0.2-1,0-2.1,0.6-3.1
	c0.2,0.5,0.4,1.1,0.6,1.6c1.7,3,1.2,5-2.6,4.7c-4.6-0.4-9,1.3-13.5,1c-1.2-0.1-2.3-0.5-3-1.8C456.6,183,455,184,455,182.8z"/>
<path class="st47" d="M391,188.9c-1.5-3.3-3.4-4.6-6.6-1.8c-1.9,1.7-3,1.8-3.5,2.9c-0.4,1.2-1.1,1.9-2.3,1.4c-0.5-0.2-1.3-0.6-1.3-1
	c-0.2-1.3,1-1.6,2-1.9c0.4-0.1,0.6-0.6,1.1-1.1c-1.4-1.1-4.9-0.1-4.1-2.8c0.6-2.2,2.7-2.8,5.5-1.3c1.8,0.9,4.6-0.6,6.9,0.4
	c1.2-1.1-0.6-2.1-0.4-3c0.5-0.1,1.1-0.3,1.2-0.2C390.6,182.9,393.4,185.1,391,188.9z"/>
<path class="st48" d="M437.7,184.9c-3.7-2.5-9.8,5.7-11.9-3.2c-1.6,3.1-1.6,3.1-3.5,1.1c-0.9-1-1.5-0.8-1.8,0.4
	c-0.2,1.1-0.8,1.7-1.9,1.6c-0.3,0-0.8-0.6-0.8-0.7c0.5-0.9,0.1-2.1,1.1-2.9c3.6-2.9,10-1.3,12,4.1c-0.3-3.5,0.8-4.8,3.1-5.4
	c0.8-0.2,1.6-1.3,2.2,0c0.9,1.8-1.2,0.7-1.4,1.3C433,185,436.9,183.4,437.7,184.9z"/>
<path class="st17" d="M501.8,183.7c-1.7,2.7-3.9,1.3-5.5,0.1c-2.2-1.6,0.2-3.7,0.9-4.6c1.3-1.7,3.4-0.9,4.9,0.5
	c0.4,0.4,0.3,2.2,1.1,0.8c2.4-3.8,6.1-0.4,8.9-2.1c0.2-0.1,1.6,0.4,0.9,0.6c-2.6,1,1.3,3.9-1.3,4.2c-2,0.2-5.4,1.7-4.9-3
	C504.9,181.7,504.2,183.9,501.8,183.7c-0.4,0.2-0.7,0-1.1-0.1C501,183.8,501.4,183.9,501.8,183.7z"/>
<path class="st43" d="M433.5,191.5c2.2,1,0.1,3.2,1.3,4.5c1,0.6,1.4-0.7,2.3-0.7c1.7-0.1,2.6,0.7,2.8,2.3c0.2,1.6-0.9,2.2-2.2,2.2
	c-2.9-0.1-5.7-0.6-8.5,0.9c-1.1,0.5-2.5-0.3-3.1-1.4c-0.6-1.1,0.4-1.9,0.9-2.8c1.7-4.2,3.7-1.3,5.6-0.4
	C433.9,194.8,432.3,192.9,433.5,191.5z"/>
<path class="st10" d="M525.6,179.7c3,0,3.3-1.6,2.2-4.5c2.8,4.1,5.9,5.7,10.8,4.3c-1.1,3-3.2,4.9-4.9,7.4c-1-1.3-0.4-2.1-0.1-3
	c0.5-1.3-0.4-2.3-1.7-2.5c-1.9-0.3-1.3,1.1-1.2,2.1c0.2,0.7,0.7,1.5-0.6,1.5c-0.9,0-1.8-0.8-1.6-1.3c0.8-2.8-1.9-2.2-2.9-3.2
	c-0.4-0.2-0.4-0.3-0.3-0.4C525.3,179.8,525.4,179.7,525.6,179.7z"/>
<path class="st49" d="M412.2,199.9c-0.6,0-1.3,0-1.9,0c-0.5-0.1-0.8-0.8-1.4-0.6c0.5,0.4,0.9,0.8,0.5,1.5c-5.3-0.2-5.6-0.4-7.1-3
	c-1.3,0.1-1.3,1-1.3,2c0,0.7-0.4,1.2-1.2,1c-0.8-0.2-0.7-0.7-0.6-1.3c0.4-2.8,2-3.1,4.8-3c2.5,0.1,6.1-0.1,5.3-5.5
	c1,2.1,1.6,3.2,2.2,4.4C413.1,196.5,413.5,198,412.2,199.9z"/>
<path class="st22" d="M372.1,170.9c0.1,1.6,0.1,3.8-1.8,5.4c-0.9,0.8-2,0.8-3-0.1c-0.4-0.4-1-1.1-0.9-1.4c0.4-1.3,1.3-0.5,2.2-0.4
	c1.5,0.3,1.4-1.2,1.5-2.2c0.2-1.3-0.3-1.9-1.7-2.1c-1.8-0.3-4.8,1.4-4.7-2.4c0.1-2.4,2.6-3,4-2.9c2.6,0.2,4.8,1.6,4.3,4.9
	C372.1,169.9,372.1,170.1,372.1,170.9z"/>
<path class="st49" d="M421.4,217.8c-4.6,3.3-8.3,2.2-9.2-2.7c-0.2-1.1-0.3-1.7-1.3-2.5c-1.3-0.8-0.5-2.5,0.3-3.7
	c0.8-1.1,1.5-0.7,2.2,0.1c0.9,1.1,3,1.6,2.3,3.6c-1.7,4.9-1.8,4.9,3.3,5C419.7,217.6,420.4,217.7,421.4,217.8z"/>
<path class="st21" d="M386.1,170.1c-0.3,1.7-1.7,1.4-2.8,1.6c-1.6,0.3-3.4,1-4.6-0.9c-0.7-1.3-0.1-2.2,2.5-4.2
	c-1.2-0.2-2.2-0.3-3.4-0.4c3-2.4,5.4-1.8,7.4,1.9C385.8,168.7,386.2,169.2,386.1,170.1z"/>
<path class="st21" d="M405.6,182.3c1.3-1.9,2.3-0.8,3.6,0.3c1.1,1,1.3,1.8,0.5,3.1c-0.8,1.5-2.2,1.6-3,1.2c-2.5-1.3-5.2,1.3-7.8-0.6
	c1-1.8,3.4,1.1,3.9-1.6c-1.3-0.6-2.7-1.3-4.2-2C400.9,179.7,403.4,182.4,405.6,182.3c0.3,0.3,0.4,0.4,0.5,0.6
	C406,182.6,405.8,182.4,405.6,182.3z"/>
<path class="st20" d="M372.9,188.3c-3,1.9-5.3,2-8.5,0.2c0.5-1.6,3.9,0.6,3.4-2.8c-0.4-3-2-3.9-5.1-3.5c2.5-3,5.5-1.3,8.1-2.1
	C368.1,184.4,368.9,187.3,372.9,188.3z"/>
<path class="st43" d="M490.4,213.5c0.9,0.1,1.8,0.4,2.7,0.3c1.1-0.2,1.9-0.8,1.9-2.2s-1-1.3-1.9-1.3c-2.2,0.1-2.6-1.7-2.8-3.1
	c-0.3-1.9,1.6-2.1,2.8-2.3c2.2-0.5,2.3,1.4,2.8,2.8C497.8,213.6,496.4,215.4,490.4,213.5z"/>
<path class="st24" d="M386.1,170.1c-0.8-0.4-0.9-1.2-0.9-2c0.5-0.7,1-1.5,1.7-2c4-3,4-3,4.2-7.4c2.6,3.5,1.8,7.5,3.1,11
	c0.3,0.7-1.6,1.4-3,1.4C389.5,171.2,387.8,171,386.1,170.1z"/>
<path class="st11" d="M534.1,168.4c-2.5,1-4.7,1.3-4.8,0.2c-0.2-2.6-1.6-5.9,2-7.7c-1.3-2-3.5-0.1-4.7-1.5c1.6-2.2,4.4-2,5.7-1
	c2.2,1.4,0.3,4.7-0.4,5.8C530.5,166.6,531.5,167.3,534.1,168.4z"/>
<path class="st50" d="M480.1,184.1c-3.8,0.2-1.4-2.9-1.6-3.9c-0.1-1.5,2.1-0.9,3-0.5c1.2,0.4,2,1.6,3.1,2.6c0.5-1.9-0.7-3.8,0.4-5.7
	c2,3,1.4,6.3,2.4,9.1c-2.1,1.3-1.9-2.8-3.8-1.1C482.6,183.4,481.4,182.6,480.1,184.1z"/>
<path class="st51" d="M463.2,197.9c-2.2,2.3-4.5,0.7-5.3-0.9s0.1-3.8,3-3.9c3.2-0.1,0.4-2.4,1-3.8c3,1.9,3.3,4.8,3.8,7.4
	C466,198.9,463.9,197.6,463.2,197.9c-0.4-0.4-0.8-0.8-1.3-1.3C462.4,197.1,462.7,197.5,463.2,197.9z"/>
<path class="st52" d="M389.4,214.6c1.7-1,2.8-1.5,4.2-2.3c-1.4-0.2-2.5-0.4-4.5-0.6c4.9-1.1,9.8,3.2,9.2,7c-0.4,2.2-1.9,2.4-6.3,1.3
	c0.2-0.2,0.4-0.4,0.5-0.4c1.4-0.7,4.3,1.3,4.4-1.4c0.1-2.6-2.2-3.2-4.7-3C391.6,215.2,390.8,214.9,389.4,214.6z"/>
<path class="st49" d="M498.8,208.5c-0.7-2.7-0.6-4.1,2.2-4c2.2,0,3.7,0.3,3.1,3c-0.3,1.3,0.6,2.8-0.5,3.9c-1,0.9,0.6,3-1.5,3.3
	c-0.3,0-0.6-0.4-1-0.6c2-1-3.2-3.2,0.7-4.1c0.8-0.2,1-2.4,0-3.2C500.6,205.7,499.6,206.9,498.8,208.5z"/>
<path class="st52" d="M421.4,169.2c-1.3,1.8-2.9,1.3-3.9,0.2c-1.3-1.4-2.2-3.2-1.4-5.3c0.9-2.1,2.8-1.2,4.4-1.3
	c1.4,0.6,2.1,1.6,1.6,3.2c-0.2,0.9-1.4,1.4-0.9,2.7C421.2,168.8,421.3,169,421.4,169.2z"/>
<path class="st10" d="M509.6,207.1c-1.3-1.2-2.1,1.1-3.1-0.1c0-0.2-0.1-0.5,0-0.6c1.3-1.3,3-1.6,4.1-0.4c1.7,2,2.9,4.7,1.8,7.2
	c-0.9,2.2-3.3,2.1-5.4,1.3c0-3,4.7,0.4,3.9-3.5c-0.5-3.3-2.9-0.4-3.9-0.7C506.7,207.3,509.7,209.2,509.6,207.1z"/>
<path class="st15" d="M384.5,219.1c1.8,0.3,2.7-1.3,3.9-0.3c-2.1,1.6-2.1,1.6-6,1.3c-0.3-2.3,2.2-3,2.9-4.9c0.4-1.3,0.6-2.2-0.4-2.8
	c-1.6-1.1-1.7,0.4-1.7,1.4c-0.1,0.9-0.7,1.1-1.3,0.9c-0.9-0.4-0.8-1.3-0.5-2c0.8-2.2,2.7-2.1,4.2-1.4c1.5,0.5,3,1.8,1.7,3.9
	C386.6,216.4,385.6,217.6,384.5,219.1z"/>
<path class="st19" d="M375.8,193.5c0.5,3.1,2.2,3.3,4.1,2.7c0.3,1.9,2.9,1.3,3.3,3c0.4,1.3-0.5,2.2-1.6,3c-1,0.8-1.9,0.5-2.3-0.2
	c-1.2-1.8,0.9-0.6,1.3-1.1c0.3-0.4,0.7-0.6,0.7-0.9c-0.3-1.4-1.4-0.7-2.2-0.9C374.5,198.3,374.5,198.4,375.8,193.5z"/>
<path class="st49" d="M443.2,182.5c-0.7,0.6-1.3,1.3-1.3,2.3c0,0.7-0.3,1.2-1.1,1.1c-0.8-0.1-1-0.5-0.9-1.3c0.4-2.6-1.6-5-0.5-7.7
	c1.4-0.1,1.5,1,1.7,2.1c0.1,0.5-0.5,1.4,0.6,1.7c3.9,0.8,3.9,0.8,3.7,5C443.9,185.1,444.1,183.4,443.2,182.5z"/>
<path class="st28" d="M436.4,214.4c-0.4-1.4,0.4-4.3-2.8-2.4c-0.5,0.3-1-0.2-1.1-1c0-1.6,1.2-2.4,2.2-3.2c0.9-0.7,1.3,0.1,1.6,0.8
	c1.5,2.6,0.8,5.6,1.8,8.4c0.3,0.7-0.4,1.6-1.3,1.5c-0.7,0-1.7-0.3-2.1-0.8c-1.3-1.8,1-0.4,1.2-1.2C436,215.7,436.2,215,436.4,214.4z
	"/>
<path class="st53" d="M525.6,179.7c0,0.3,0,0.4,0,0.7c-1.7-0.6-2.4,2-5.1,0.3c1.9,2.2,3.3,2.4,5.1,3c-3,1.1-5.2,0.3-6.4-2
	c-0.8-1.5,0.3-3.3,1.8-4.1C523.4,176.3,524.4,178.2,525.6,179.7z"/>
<path class="st54" d="M419.5,208.7c2.5-0.8,6-1.3,6.8,0c1.4,2.3,1.3,5.6,1.6,8.5c0,0.4-0.6,2.3-2,2.1c-0.9-0.3-1.9-1.2-2.3-2
	c-1-1.7,0.8-1.2,1.4-1.7c1.3-1.1,0.9-3,0.7-4.5c-0.2-1.3-1.1-2-2.6-2C422,209.2,420.9,210.1,419.5,208.7z"/>
<path class="st45" d="M412.9,195.2c2.7-1.6,4.4-0.1,5.7,1.9c0.6,0.9,1.8,2.7,0.9,3.2c-2,1.1-4.4,0.9-6.5-0.4
	C412.2,198.4,415,196.7,412.9,195.2z"/>
<path class="st37" d="M436.5,170c-2.2,0-4.5,1.1-5.5-0.5c-0.7-1.3-1.6-3.9,1.2-5c0.6-0.3,0.4-1.1-0.3-1.3c-0.5-0.1-2,1.3-1.5-0.4
	c0.4-1.5,2.5-1.4,3.6-0.8c1.6,1-0.8,3,0.7,4.4c-1.4,0-2.5,0.4-1.9,2.2C433.2,170,434.9,168.6,436.5,170z"/>
<path class="st19" d="M488.8,215.5c-1.8,0.5-3.7,0.4-6.3-0.1c2.4-0.6,3.6-1.6,3-3.7c-0.4-1.3,0.3-3-2.6-3c-1.2,0,1.3-2,1.1-4.2
	C487.5,208.2,486.1,212.7,488.8,215.5z"/>
<path class="st55" d="M367.5,198.9c1.4-1.2,0.5-3,1.3-4.5c2.3,2.8,4.4,5.5,2,9.1c-2.5-0.1-0.3-4.2-3.2-3.9
	C367.5,199.4,367.5,199.2,367.5,198.9z"/>
<path class="st18" d="M373.6,160.3c2.2,3.9,2.1,7.4,2.5,10.7c0.1,1-0.5,1-1.1,1c-0.7-0.1-1.1-0.6-1-1.3
	C374.3,167.4,372.3,164.4,373.6,160.3z"/>
<path class="st56" d="M421.7,162.6c0-1.3-1-2.6,0.8-3.9c2.5,3.4,1.2,7.5,2.3,11.1c-1.3,0.5-2.2-0.8-3.5-0.8l0.1,0.1
	c-0.8-1.1,0-2,0.4-3C422,165.1,421.8,163.9,421.7,162.6z"/>
<path class="st46" d="M394.9,203.6c-0.6-3.6-7.8-1.6-6-7c1.8,2.2,1.8,2.2,5-1.3C391.5,198.5,394.9,200.6,394.9,203.6z"/>
<path class="st10" d="M446.7,198.1c-1.7,2.9-3.6,2-5.8,0.2c1.3-0.2,2.4-0.4,3.7-0.5c-1.1-1.7-2.9-2-4.2-2.9c1.7-2.1,1.5-1.9,3.1,0.1
	c0.5,0.7,1.8,0.9,2.2,2C446,197.3,446.6,197.5,446.7,198.1z"/>
<path class="st7" d="M446.7,198.1c-0.4-0.4-0.7-0.7-1-1.2c1.6-0.2,0.1-2.8,1.8-2.5c2.1,0.3,0,2.7,1.8,3.3c2.2-0.9,0.4-3.2,1.3-4.8
	c1.8,1.4,2.4,3.2,1.1,5.1C450.2,199.8,448.3,199.2,446.7,198.1z"/>
<path class="st21" d="M523.1,166.9c-2.7,1.5-4.9,2.1-5,0.4c-0.2-2.8-0.8-5.9,1.2-8.4C522.4,161.2,515.4,166,523.1,166.9z"/>
<path class="st57" d="M454.4,197.8c-1.1-2.2-0.6-4.1,0.9-5.6c0.9-0.9,2.9,1.7,2.2,1.8C454.9,194.4,456.6,197.1,454.4,197.8z"/>
<path class="st40" d="M367.5,198.9c0.1,0.2,0.1,0.4,0,0.6c-2.1,0.4,1.6,3.2-1.3,3c-2.1-0.2-1.6-2-1.5-3.1
	C365,196.5,366.8,200.3,367.5,198.9z"/>
<path class="st58" d="M409.4,200.8c-0.3-0.3-0.4-0.8-0.7-0.8c-1.2,0-2.2-0.3-2.5-1.4c-0.1-0.4,0.4-1.1,0.9-1.3
	c1.4-0.6,2.2,0.2,2.7,1.5c0.2,0.4,0.4,0.8,0.5,1.2C410,200.2,409.7,200.5,409.4,200.8z"/>
<path class="st59" d="M412.9,195.2c2.5,1.4,0.6,3,0.2,4.7c-0.4,0-0.6,0-1,0c-0.3-1.6-0.4-3.1-0.7-4.8
	C411.9,195.2,412.4,195.2,412.9,195.2z"/>
<path class="st60" d="M515.4,179.7c0.6,1.3,2.5,2.2,1.4,4c-0.1,0.2-0.6,0.4-0.7,0.4C514.5,182.9,515.9,181.1,515.4,179.7z"/>
<path class="st61" d="M480.1,184.1c0.1-0.7-0.4-1.7,0.6-1.9c1.6-0.3,2.5,0.8,3,2.2C482.5,184.3,481.2,184.2,480.1,184.1z"/>
<path class="st8" d="M397.3,201.5c-1.6-2.3-1.6-2.3-0.3-4.7C397.2,198.8,397.3,200.1,397.3,201.5z"/>
<path class="st62" d="M433.5,191.5c0,1.8,0.1,3.7-0.1,5.5c-0.1,0.9-0.4,0.9-0.8,0.1c-0.1-0.3,0-0.6-0.1-0.9
	C432.8,194.5,431.6,192.7,433.5,191.5z"/>
<path class="st63" d="M455,182.8c0.5,0.2,1.2,0.3,1.7,0.5c1,0.4,2.2-2.6,2.6-0.2c0.4,1.8-1.9,0.4-2.8,0.9
	C455.8,184,455.1,183.8,455,182.8z"/>
<path class="st64" d="M428.9,164.9c-1.1,1.3-2.2,1.8-3.3,1.3c-0.3-0.1-0.5-1-0.4-1.2C426.2,164.1,427.4,164.5,428.9,164.9z"/>
<path class="st65" d="M496.6,163.6c-0.4,1.3,2.3,0.4,1.4,1.9c-0.3,0.4-1.1,0.9-1.5,0.7c-1.5-0.5-0.4-1.7-0.5-2.6
	C496.3,163.4,496.5,163.4,496.6,163.6z"/>
<path class="st66" d="M421.7,162.6c1.3,1.1,0.4,2.5,0.5,3.8c-0.4,0.3-0.6,0.3-0.9-0.1c0.5-1.4-0.1-2.5-0.9-3.6
	C420.9,162.7,421.2,162.7,421.7,162.6z"/>
<path class="st67" d="M525.7,166.7c-0.9,0.7-1.3,1.2-1.8,1.3c-0.7,0.2-1.2-0.3-1.1-1c0.1-0.3,0.5-0.6,0.9-0.6
	C524.3,166.4,524.8,166.6,525.7,166.7z"/>
<path class="st42" d="M364.7,251.8c0,6.5-4.8,11-11.7,12.2c-5.5,1-13.4-2.6-16.3-7.3c-3.2-5.2-0.9-12.6,5.5-15.9
	c8.3-4.3,18.3-0.8,21.8,7.4C364.6,249.7,364.6,251.3,364.7,251.8z"/>
<path class="st43" d="M386.2,310.8c-0.7,2.9-3.1,5.4-6,7.5c-0.4,0.3-2.2-0.4-2.2-0.8c-0.3-3.9-3.3-4.1-6-5.3
	c-3.5-1.5-3.6-3.8-0.7-6.3c3.4-3,7.4-2.5,11.2-1.1C384.8,305.8,386.4,307.4,386.2,310.8z"/>
<path class="st5" d="M384.6,246c-2.5,2.4-6.3,4.5-1.3,8.3c-1.9,1.1-3.7,1-5.1,0.4c-2.2-1-4-1-6.2-0.1c-0.9,0.4-2.9,0.6-2.6-0.3
	c1.3-3.9-2-5-4.9-7c4.4-1.3,7.5-2.3,8.9-6.3c0.8-2.3,2.4-0.1,2.9,0.8c1.8,3.5,4.5,3.3,7.6,2.4v-0.1c0.3,0.7,0.4,1.3,0.7,2.1
	L384.6,246z"/>
<path class="st6" d="M422.4,242.7c-2.7-1.7-5.6-1.8-7.5,0.6c-1.8,2.2-1.3,4.8,1,6.8c0.2,0.8,0.1,1.3-0.9,0.9
	c-3.6-1.5-3.4-4.8-2.4-7.4c1.1-2.8,4-4,7.1-3.8c2.7,0.3,5.5,0.7,6.2,4.2c0.4,1.7,1,3.2-1.1,4.3c-2.5,1.3-5,1.2-7.4,0.1
	c-1.3-0.5-1.8-1.9-1.3-3.1c0.9-2.2,2.8-3.1,5.2-2.7c0.4,0.1,0.9,0,1.3,0c0.8,0.9,1.1,2.1,1.3,2.5
	C423.5,244.8,423.5,243.5,422.4,242.7z"/>
<path class="st68" d="M403.6,263.1c2.4-0.5,4,0.3,4.8,3c1.6-1.6,0.4-3.3,1.2-4.6c0.9-0.4,1.4,3.5,2.7,0.2c0.7-1.7,2.4-1.7,3.9-1.3
	c0.9,0.3,1.5,1,1.5,2.2c-0.1,2.1-1.8,1.9-3,2.6c-2.8,1.5,1,1.2,0.9,2.2c-0.9,0.7-2,0.6-2.7-0.3c-1.1-1.4-1.9-2.8-3.2-0.2
	c-0.4,0.9-1.3,0.9-2.3,0.4c-0.7-0.3-0.3-2.8-2-1c-1.6,1.6,0.7,2,0.9,3.1c-2.6,0.4-4.1-1.8-6.2-2.4c-1.6-0.4-1.5-2.6-0.6-3.5
	c1.1-1.2,2.7-2.6,4.4-0.4l-0.4,0.3L403.6,263.1z"/>
<path class="st69" d="M464.2,300.3c1.8,0.8,3.9,0.7,5.9-0.7c1.3-0.9,2.7,0.2,3.1,1.1c0.9,1.8,0.5,3.9-0.1,5.8
	c-0.2,0.4-1,0.6-1.3,1.1c-1.4,1.6-2.3,5.3-4.3,4.3c-2.6-1.3-5.6-3.3-6.8-6.5C459.4,302.7,461,300.3,464.2,300.3z"/>
<path class="st56" d="M435.5,242.7c3-0.9,3.9,1.3,5,3.2c0.7,1.3,0.2,2.7-0.6,2.7c-3.7-0.1-7.2,2.5-11,0.6c-3-1.4-2.1-3.9-1.7-6
	c0.3-1.7,1.1-3.6,3.6-3.4c2,0.1,3.9-0.1,3.6,2.8c-0.5,0.3-1.2,0.2-1.8,0.2c-1.5-0.1-2.2,0.7-2.3,2.2c0,0.8,0.4,1.5,1.3,1.6
	c1.3,0.3,1.9-0.7,2.3-1.7C434.3,244,434.7,243.2,435.5,242.7z"/>
<path class="st70" d="M441.9,278c-1.5,2.2-5.2-1.3-6.5,2.5c-0.3,0.6-0.7-2-1.3-3c-0.4-0.7-0.4-2.2-1.3-2.1c-1,0.3-2.7,0.1-2.9,1.7
	c-0.2,2.2-1.1,4-3.2,3.4c-2.2-0.7-2-3-1.5-5.2c1.8,0.5,0.1,3.5,2.2,3.2c1.3-0.2,1-2,1.4-3c0.7-1.7,4.5-0.5,3.8-4.3
	c1.3,2,2.4,3.5,4.8,3c3.2-0.7,4.4,1.1,4.5,3.9L441.9,278z"/>
<path class="st49" d="M434.4,261.2c1.1-1.8,2.2-1.3,3.2,0c1.3,1.4,0,2.4-1,2.9c-2.2,0.9-2.6,2.6-2.2,5.3c-2.1-1.2-2.1-4.5-4.9-2.6
	c-1.3,0.8-4.3,0.8-4.6-1.3c-0.2-1.3-1-3.9,0.4-4.7c2.2-1.2,4,0.4,5.3,2.3c0.4,0.5,0.7,1,1.3,1.9
	C433.2,263.9,431.6,260.7,434.4,261.2c0.4,0.3,0.4,0.5,0.4,0.8C434.8,261.5,434.6,261.3,434.4,261.2z"/>
<path class="st31" d="M380.6,282.6c-1.4,1.5-3,1.3-4.3,0c-1.6-1.6,0.4-3.2,0.2-5c-0.1-0.8,2.2-0.8,3.2,0c1.3,1.1,1.9,2.3,4.5,0.9
	c2.7-1.4,1-3.1,1.7-5.1c2.8,3,2.2,6,2.2,8.9c0,1.3-0.8,1.3-1.9,0.9c-1.5-0.5-3-0.9-4.6-1.3C381.3,282.3,380.2,281.5,380.6,282.6z"/>
<path class="st20" d="M384,263.3c2.4-1.9,3.7,3.4,6.4,0.9c0.4,0.5,0.4,1.1,0,1.7c-0.8,1.4-1.6,2.9-2.4,4.4c-0.7,1.4-1.3,2.4-2.1,0.1
	c-0.4-1.3-1.5-0.7-2.2-0.6c-2.2,0.3-3.9-0.6-5-2.4C380.7,266.1,379.9,261.6,384,263.3z"/>
<path class="st10" d="M387.4,290.7c0.2-1.5,4.8,1,2.5-2.8c-0.1-0.2,0.4-0.9,0.7-1c0.3-0.1,0.8,0.3,1.1,0.4c1.3,1,0.4,3.1,2.4,4.2
	c1.7-1.5,4.1-4.8,6.4-1.1c1.2,2.1-3,1.3-3.7,3c0.8,0.8,2.2-0.3,3,1c-0.7,0.1-1.3,0.3-1.8,0.2c-2.2-0.4-4.4-2-6.6,0.8
	c-0.8,1-3.8,0.4-4.9-1.1C385.4,293.1,386.2,291.6,387.4,290.7L387.4,290.7z"/>
<path class="st71" d="M454,261.3c0.8,6.4-3.9,2.9-4.9,2.1c-1.6-1.3-3-0.3-3.4,0.1c-1.1,0.9,1.5,1.1,0.9,2.2
	c-3.1,1.1-3.2-2.2-4.4-3.5c-2.2,0.6-0.6,3.2-2.5,3.7c-1.3-3.9-0.6-3.8,2.2-5.4c3.5-2.1,6.9-0.8,10.3-1h-0.1
	C452.7,260.2,452.5,261.6,454,261.3L454,261.3z"/>
<path class="st47" d="M445.1,287.9c-0.8,3.6-4.8,5.4-6.9,3.9c-1.3-0.9-1.1-2.2-0.9-3.4c0.2-1.4,1.2-2.2,2.6-2c3,0.3,5.9,0.7,8.9,0.9
	c2,0.1,1.9,1.7,2.3,2.9c0.3,0.6-1.1,1.6-1.2,1.2c-0.6-2.6-3.8,3.1-3.6-1.2C446.3,289.7,445.8,289.1,445.1,287.9z"/>
<path class="st6" d="M400.1,251.2c-0.4-1.4,2.4-9.3,3.5-9.3c0.5,0,1.2,0.4,1.5,0.8c2.6,3.1,5,6.5,7.8,10c-4.8,1.5-9.5-0.9-13.8,1.2
	c-0.5,0.3-1.3-0.6-1-1.1c0.4-0.5,1.3-0.5,2-0.9c1.1-0.4,2.1-1,3.3-1c1-0.1,2.1,0.1,3-0.1c1.2-2-1-2.5-1.6-3.9
	C402.4,247.5,402.9,251.2,400.1,251.2z"/>
<path class="st3" d="M423.3,314.2c-3.1,1.3-6.5,0.9-9.7,1c-1.3,0-1.3-0.9-1.5-1.8c-0.5-2.3,2-5.9-2.4-6.9c0.4-0.8,0.6-1.7,1.1-2.4
	c0.4-0.6,1.3-1.3,1.9-0.8c1.3,1.1,3.1,1.4,3.5,3.3c0.5,2.9-1.8,0.1-2,0.9c-0.3,1.6-0.4,3.4-0.1,5c0.4,1.5,1.9,1.8,3.3,1.3
	C419.5,313.1,421.4,313.2,423.3,314.2z"/>
<path class="st72" d="M454.2,295.2c-1.8-3.9-2.7-6.6-0.6-8.7c1.9-1.9,4.9-0.3,7.5-0.7c1.6-0.3,2.8,2.4,2.1,4.4
	c-0.4,1.1-2,2.3-3.3,1.1C455.9,287.6,454.6,289.8,454.2,295.2z"/>
<path class="st17" d="M377.7,292.9c0.2,1.5,2,0.2,2.5,1.6c-1.5,0.3-2.9,0.5-4.3-0.4c-2.9-1.7-3-1.7-4.1,1.6
	c-0.4,1.1-1.4,1.1-1.6,0.6c-0.6-2.2-1.7-4.8-0.4-7c0.7-1.3,3-1.9,4.4-0.4c1.9,2.2,3.7-0.9,5.4,0.2
	C379.9,290.9,378.4,291.7,377.7,292.9z"/>
<path class="st70" d="M441.8,306.5c-0.1,2.2,1.1,4.5-2,5.9c-2.2,1.1-3.6,0.8-5.5-1.1c1.6,0,3,0.3,4-0.1s2.4-1.5,2-2.7
	c-0.4-1-1.5-2.4-3.2-1.5c-1.2,0.6-3,1-3.1,0c-0.1-1.3,0-3.7,2.2-4c1.5-0.3,3-2,4.7-0.4c-0.6,2.4-2.7,0.7-4,1.7
	C438.6,305.1,440.2,305.8,441.8,306.5L441.8,306.5z"/>
<path class="st73" d="M435.5,242.7c-0.4,2.1-0.1,4.6-2.5,5.5c-1.3,0.4-3.3,0.5-3.9-1.3c-0.5-1.7-0.4-3.5,0.9-5.1
	c2.2-2.5,2.9,1.2,4.4,1C434.8,242.7,435.1,242.7,435.5,242.7z"/>
<path class="st74" d="M369.7,259.6c2.7,2,0.9,5.5,4.4,5.4c3.5-0.2,0.4-3.5,2.5-4.6c2.6,3.1,0.7,6.5,1,9.9c-1.5-1.1-0.4-4-2.7-4
	c-1.6,0-3.6,0.9-3,3.7C370.1,266.7,369.6,263.7,369.7,259.6z"/>
<path class="st28" d="M441.9,306.7c-1-5.5,3.3-3.2,5.6-3.8c3-0.7,3.1,1.1,3.4,3.7c0.3,2.4-0.4,4-1.7,5.8c-0.3-1.9-3.9-3.4-0.4-5.6
	c0.4-0.3,0.6-2-0.4-2.4c-1.3-0.5-3-1-3.7,0.4c-0.7,1.4-1.2,2.5-3,1.7C441.8,306.5,441.9,306.7,441.9,306.7z"/>
<path class="st48" d="M431.2,294.4c-1.2-3.1-3.9-6.1-1.1-10c1.3,1,0.2,7.3,4.2,2.1c0.5-0.7,0.9,1.2,1.3,1.8c1,1.5,0.9,3,0.5,4.6
	c-2.6,0.6-1-4.2-3.7-2.5C431.7,290.9,433.5,293.6,431.2,294.4z"/>
<path class="st75" d="M403.6,251.8c-1.2,0-2.4,0-3.6,0c0-0.2,0-0.4,0-0.6c1.3-0.8,1.4-2.2,2.1-3.4c0.6-1.1,1.4-2,2.2-3
	c1.4,1.7,3.1,3.5,4.5,5.4c1.3,1.7-0.2,1.6-1.3,1.6C406.2,251.4,405,250.8,403.6,251.8z"/>
<path class="st6" d="M419.6,304.3c0.9-0.1,1.4-0.3,2.1-0.3c8-0.3,9.7,1.5,9.1,9.1c-0.1,1.1-0.8,1.7-1.7,1.9
	c-1.2,0.4-2.2-0.1-2.7-1.2c-0.3-0.7-1.6-2.6,1.2-2.1c0.4,0.1,1.3-2.8,0.8-4.5c-0.5-1.6-1.6-2.4-3.4-2.4
	C423.2,304.9,421.5,305.5,419.6,304.3z"/>
<path class="st76" d="M413.8,281.4c-1.7-0.2-1.4-1.7-2.2-2.2c-1.3,0.3-0.9,2.3-2.5,2.5c-1.4-0.8,0.2-2.8-1.3-3.5
	c-0.3,0.1-0.5,0.2-0.8,0.4c-1.1,0.8,0.4,2.6-1.3,3.1c-0.8,0.3-1.1-0.4-1-1.1c0.3-1.7,0.7-3.4,2.2-4.2c1.7-0.9,3.7,1.8,5.6-0.1
	C413.2,277.8,414.4,279.4,413.8,281.4z"/>
<path class="st52" d="M393.9,312c-0.8-3.6,2.9-4.9,3.6-8.5c1.4,2.9-0.8,4.1-0.9,5.9c3.5-0.8,3.5-0.8,4.8,6
	C398.7,314.4,397.9,309.3,393.9,312L393.9,312z"/>
<path class="st47" d="M393.9,311.9c-1.7,0.9,2,2.6-0.6,3.6c-1.7,0.7-2.9,0.7-4.1-0.6c2.1-1.7,5-3.4,0.2-5.4
	c-1.7-0.7-0.4-1.9-0.4-2.8c0-1,0.8-1.8,1.8-1.8c1.4,0,0.6,1.5,1.3,2.1C393.3,308.4,391.7,310.9,393.9,311.9
	C393.9,312,393.9,311.9,393.9,311.9z"/>
<path class="st77" d="M413.1,289.1c1.2-2.4,3.2-3.1,5.6-2.7c2.5,0.4,2.6,2.6,2.7,4.6c-0.3,0.3-0.5,0.4-0.9,0.3
	c-0.2-0.2-0.4-0.4-0.6-0.4c0.1,0.3,0.4,0.4,0.4,0.7c-0.1,2.4-1.3,2.2-2.7,1.2l0.1,0.1C416.3,291.6,414.5,290.5,413.1,289.1z"/>
<path class="st70" d="M410.3,292c-0.1,0.7,0.2,1.9-0.3,2.2c-0.9,0.7-1.4-1-1.4-0.9c-1.4,1.7-3.8-3.8-4.8,0.5c-0.2,0.9-0.9,1-1.3,0.7
	c-0.4-0.3-0.4-1-0.5-1.5c-0.6-2.2,2.3-3,2.5-3c1.9,0.6,4.5-2.2,5.8,1c0.4,0.2,0.4,0.4,0.4,0.6C410.6,291.9,410.4,292,410.3,292z"/>
<path class="st5" d="M391.2,276.8c0.9-0.5,2.6,0.5,3.7,1.7c0.7,0.7,2.1,2.4,0.7,3.6c-1.5,1.3-3.8,1.1-5.2,0.3
	c-1.6-0.9-0.4-2.3,0.7-3.2C393.9,276.9,388.4,279.1,391.2,276.8z"/>
<path class="st78" d="M374.6,278.6c-0.8,1.5-2.8-2.5-3.3,0.7c-0.4,2.9,1.6,2.2,3.1,2.5c-1.4,2.7-3.7,1.6-4.7,0.4
	c-1.2-1.7-1.2-4.6,0.4-5.8C371.7,275.2,374,276.1,374.6,278.6z"/>
<path class="st5" d="M384.5,246.1c4.1,0,8.3,0,12.9,0c-2.2,2.2-11.4,3-13.1,1.6C384.2,247.5,384.5,246.6,384.5,246.1
	C384.6,246,384.5,246.1,384.5,246.1z"/>
<path class="st25" d="M410.3,292c0-0.4,0-0.6,0-0.9c0.9-0.6,1.9-1.3,2.8-2c3-0.6,4,1.4,4.8,3.8C414.8,296.6,412.6,294,410.3,292z"/>
<path class="st79" d="M383.9,244c4-1.3,8.2-2.2,12.4-0.4C392.2,244.2,388,245.7,383.9,244L383.9,244z"/>
<path class="st25" d="M417.5,278.7c1.3-1.2,1.9-4,3.7-3.6c2.1,0.5,1.6,3.4,2.3,5.6c-2.1-2.7-3.9-1.9-5.8-0.3
	C417.2,280,417.1,279.4,417.5,278.7z"/>
<path class="st80" d="M414.9,251c0.3-0.3,0.6-0.5,0.9-0.9c2.5,1.7,5.4,0.9,8.2,1.2C420.9,253.4,417.8,254,414.9,251z"/>
<path class="st55" d="M396.8,250.9c-3.5,0-6.9,0-10.4,0C389.9,250.3,393.3,249.1,396.8,250.9z"/>
<path class="st81" d="M387.5,290.6c-2.6,0.4-3.6,2.7-5.3,4.5C381.2,290.6,382.1,289.9,387.5,290.6L387.5,290.6z"/>
<path class="st82" d="M386.5,253.1c3.3-0.3,6.5-0.5,9.9-0.9C393.2,254.8,389.8,253.2,386.5,253.1z"/>
<path class="st83" d="M420.7,290.9c0.3,0,0.4,0,0.7,0.1c-0.2,1.3,0.8,3-0.8,3.6c-1.3,0.4-2.9,0.3-3-1.8c0.6-0.6,3.9,1.5,1.8-1.8
	C419.9,290.6,420.3,290.6,420.7,290.9z"/>
<path class="st84" d="M417.5,278.7c0.1,0.6,0.1,1.3,0.2,1.9c-1-0.3-1.9,1.4-2.8,0.2c-0.4-0.7-0.4-1.9,0.3-2.5
	C416.2,277.2,416.8,278.2,417.5,278.7z"/>
<path class="st85" d="M377.7,292.9c-0.4-1.7,1-2.5,1.8-3.7C381.4,291.7,381.2,292,377.7,292.9z"/>
<path class="st72" d="M441.8,278.2c1.3-0.4,2.2-0.3,2,1.3c-0.1,0.6-0.5,1.3-1.1,1.2c-1.4-0.4-0.5-1.8-0.7-2.7
	C441.9,278,441.8,278.2,441.8,278.2z"/>
<path class="st86" d="M380.6,282.6c-1-0.3-2.5,0.7-3-1.3c1.5-1.2,2.5,1.3,3.9,0.6C381.2,282.2,380.9,282.4,380.6,282.6z"/>
<path class="st0" d="M494.9,150.6c-14.3,0-28.5-0.7-42.8,0.2c-23.5,1.4-47,1.3-70.5,1.9c-16.9,0.4-33.8,2.5-50.8,2.7
	c-4,0-6.1-0.4-6.5-5.6c-0.9-9.5-0.4-19.1-1.4-28.6c-1.1-11-2.8-22.1-3-33.2c-0.1-3.9,0.8-4.9,5-5.5c10.9-1.3,21.9-1,32.7-1.3
	c14.9-0.4,30-0.1,44.8,1.4c0.9,0.1,1.9,0,2.8,0c26.5,0.7,52.9-0.4,79.3-1.3c17.4-0.5,34.8-1.6,52.3-1.5c2.3,0,5.1-2.2,6.5-0.6
	c1.6,1.8,0.4,5,0.5,7.6c1,18.4-1.7,36.8-0.7,55.2c0.4,8.4,0.4,8.4-8.2,8.4C521.8,150.6,508.4,150.6,494.9,150.6z"/>
<path class="st0" d="M539.5,346.8c1.9,2.6,4.9,3.9,7.4,5.6c-0.4,1,3,1.3,0.5,2.3c-1.9,0.8-3,1.7-2.7,4.3c-1.6-4-4.7-3.8-7.6-3.8
	c-1.5,0-2.2,0.8-2.4,2.2c-0.2,1.3,0.1,2.6,1.8,2.5c2.2-0.1,3,2.7,5.1,2.7c0.8-1.3-1.8-1.7-0.4-3c1.4-1.5,2.1,0.5,3.1,0.4
	c2.5-0.2,3.6,4.2,7.2,2c-2.5-0.4-3.9-1.6-4.3-3.7c1.2-0.7,2.6-0.3,3.9-1c2.2-1.1,3.9,0.1,4,2.5c0.2,4.3,0,8.6,0.1,13
	c0,1.8-0.9,2-2.3,1.9c-2-0.1-4,0-6,0c-3.1,0.9-6.3,0.3-9.4,0.4c-0.9-0.1-1.5-0.5-1.8-1.3c0.5-1-2.6-1.4-0.5-2.7
	c0.8-0.4,3,0.6,2.2-1.7c-0.6-1.7-2.3-1.3-3.7-1.1c-0.8,0.1-1.5,0.8-2.2,1.3c-1-1.3,0.3-3.3-1.9-4.3c-0.1,3.3,0.2,7.1-4.4,2.4
	c-1.6-1.6-2.1,1.8-3.1,2.9c-2.2-1.9-3.9-4.7-7.8-2.6c-2.2,1.2-1.2-2.9-3.3-3.1c0.6,3.1-0.8,4-3.7,3c-2.2-0.7-3.3,0.6-4.4,2.2
	c-0.4,0.3-0.7,0.3-1.1,0.1c-1.6-1.3-3.4-0.4-5.1-0.4c-0.4-0.1-0.7-0.3-1-0.5c-1.3-1-2.8-1-4.4-1c-1.9,0.1-2.5,0.3-1.5,2.3
	c1.2,2.6-0.2,3.5-2.8,3.3c-3.2-0.2-6.5,0-9.8,0c-3.8,0-6.3-0.8-5-5.6c0.8-3.2-0.5-7.3,4-8.9c0.9-0.3,1-1.3,0.1-1.7
	c-1.1-0.4-2-2.1-3.5-0.5c-1.9,1.8-3,1.5-4.5-1c-1.3-2.2-3.9-3.6-6-5.4c0.8-1.2,2.2-1.1,3.3-1.3c1-0.2,2.3,0.2,2.4-1.4
	c0-0.6-0.2-1.3-0.7-1.6c-1.1-0.9-2-0.5-2.8,0.4c-2.5,2.8-3.5,1.3-4.1-1.2c-0.3,1.2,1.4,2.6-0.1,3.9c-3.9-1.5-9.8,0.8-11.4-5.6
	c-0.1-0.4-0.7-0.5-1.1-0.7c-2.2-1.2-2.9,2.3-5.3,1.7c-2.2-0.6-3.8,0.5-3.6,3.3c0.1,2-2,1.5-3,2.2c-1.4,1.1-3,2-4.6,2.9
	c-1.5-1.5-2.5-3.8-4.8-4.4c-0.3,3.7,3.3,2.9,5,4.3c-2,1.9-0.9,6.1-5.8,6c-2.3,0-2.3-2.1-4-1.9c-1.4,0.4,1.9,2.2-0.5,2.5
	c-2.2,0.3-4.7-0.9-6.5,1.4c-0.5,0.6-0.6-0.2-0.8-0.4c-2.1-4-3.8-1.1-5.6,0.3c-1.4,0.6-3.4-1.2-4.4,1.1c-0.5,0.4,0.3,0.8-0.1,0.4
	c-0.1-0.1,0.1-0.1,0.3-0.4c1-1,1.9-1.4,3-0.3c0.7,1.2,1.2,2.8,2.2,3.3c3,1.4,6.4-3.1,6.8-2.2c1.8,3.9,3.9,2.5,6.3,1.5
	c0.3-0.4,0.5-0.4,0.9,0c2.2,0.4,3.5-0.4,3.9-4c1.4,4.9-0.3,8.2-0.4,11.5c0,1.3-1.2,2.2-2.6,1.9c-2.2-0.5,0.2-1.6-0.2-2.3
	c-0.4-0.8-1.1-0.3-1.6-0.4c-0.4,0.3-0.7,0.4-1.2,0.4c-3.7-0.9-4-0.6-3.6,3.3c-5.4,1.9-10.9,0.5-16.3,0.9c-1.8,0.1-1.6-1.6-2.1-2.5
	c-1.3-2.8-2.6-2.7-4.1-0.3c-0.3,0.4-0.6,0.4-0.9,0c-1.6-2.8-4.5-3-4.8-0.2c-0.6,5.5-4.1,2.6-6.3,2.9c-3.5,0.4-2.3-2.7-2.8-4.7
	c0-0.3-0.3-0.4-0.5-0.7c-2,1-0.3,2.4-0.3,3.5c-0.1,1.3-0.2,2-1.7,2c-3,0-0.5-1-0.5-1.7c0-0.8-0.3-1.9-1.5-2
	c-1.2-0.1-2.5,0.1-2.6,1.3c-0.1,2.8-2,3.1-4,3.2c-6.7,0.3-13.5-0.4-20.3,1c-3.7,0.7-5-1.2-6.1-4.3c-3.9-12.1-5.6-24.5-6.1-37.1
	c-0.1-2,0.5-4.2-0.1-6c-1.8-5.2,0.5-5.6,4.9-5.6c17.1-0.1,34.3-0.2,51.4-0.9c12.9-0.5,25.8-1.2,38.7-1.9c20.9-1.3,41.8-2.5,62.7-3
	c8.8-0.2,14.8,3,20.8,8.3c3.9,3.4,8,6.7,12,10c0.6,0.6,1.3,1.3,1.9,1.9c0,0.2,0,0.4,0,0.6c-1.1,4.3-5.2,3-7.4,4.3
	c-4.1,2.5-6.3-3.9-9.2-0.6c-0.2,0.4-0.4,0.8-0.6,1.2c-1.3,2.2-2.4,4.4-4.8,0.7c-0.6-1-1.9-1.6-3.2-0.8c-0.4,0.3-0.6,0.7-0.5,1.2
	c0.3,1.7,1.7,1.4,2.9,1.6c1.7,0.3,3.3,0.7,4.8-0.5c0.4,0,0.8,0.1,1.2,0.4c2.1,3.2,4.2,2.1,6.5,0.3c1.3-1.1,2.8-2.2,3.7,0.4
	c0.4,1.4,1.8,1.3,2.7,1c3.9-1.1,8.7,1.4,11.9-2.8C537.3,345.6,538.7,346.5,539.5,346.8z"/>
<path class="st0" d="M533.1,22.4c5.6,2.2,8.8,6.4,9.1,11.7c1,13.5,1.3,27.2,2.1,40.7c0.2,3.1-1.1,3.5-3.7,3.4
	c-15-0.7-30,0.5-44.9,1.2c-13.3,0.5-26.6-0.3-39.9,0.8c-18,1.4-36.1,1.5-54.2,0.5c-12.8-0.7-25.6-0.7-38.4-1.2
	c-9.1-0.4-18.5-0.3-27.7,1c-4.2,0.5-8.5,0.4-12.8,0.5c-1.3,0-2.7,0.1-2.7-2.1c0.1-13.8-0.1-27.6,2.6-41.3
	c1.6-8.1,7.5-11.1,14.1-13.2c7.2-2.2,15-0.4,22.3-2c3.2-0.7,3.9,1.1,3.8,4c-0.2,5.7-0.1,11.5,0,17.2c0.1,6.3,2.4,8.3,8.8,8.6
	c39.9,2.1,79.8,0.4,119.7,0.9c11.6,0.2,23-1.5,34.4-2.8c3.5-0.4,4.8-3.2,5.3-6.1C532.1,37.1,533.1,30.1,533.1,22.4z"/>
<path class="st0" d="M378.8,21.4c38.4-1.8,76.8-0.5,115.1-1c9.2-0.1,18.5-0.7,27.7-0.9c9.5-0.2,9.5,0,9.5,9.3
	c0,4.9-1.1,9.7-1.7,14.5c-0.6,4.2-3.3,5.6-6.8,5.8c-12.6,1-25.1,2.4-37.7,2.5c-13.8,0-27.6,0.7-41.5,0c-7.2-0.4-14.4,0.2-21.7,0.4
	c-14.3,0.3-28.3-1.4-42.6-1.1c-3.3,0.1-6.6-0.9-10-0.8c-2.4,0-3.9-1.7-4.2-3.9c-1-7.5-1.1-15.1-1.1-22.7c0-2.1,0.9-2.2,2.6-2.2
	C370.5,21.4,374.7,21.4,378.8,21.4z"/>
<path class="st0" d="M345.7,379.5c3.6-0.3,7.3-0.8,10.8-0.9c13.3-0.3,26.5-1.6,39.8-1.1c9.1,0.4,18.1-0.4,27.2-1.7
	c4-0.5,5.9-2.4,6-6.4c0.1-2.3,0.1-4.7,0.4-6.9c1.1-8.5,10.8-15.5,19.6-13.5c4.8,1.1,9.9,1.3,14,4.8c4.8,4.2,8,8.8,7.1,15.3
	c-0.6,4.3,0.8,5.6,5.1,5.7c26.1,1.3,52.2,1.9,78.3,1.8c-1,7-2.3,8.4-9.2,10.2c-6.5,1.8-13.2,2.2-19.8,2.9
	c-12.8,1.2-25.6,0.2-38.4,0.9c-34.3,1.9-68.7,0.4-103,0.7c-7.4,0.1-14.8-0.6-22.2-0.9C354.1,390,349,386,345.7,379.5z"/>
<path class="st87" d="M495.8,369.1c0.3,0,0.5,0,0.8,0c1.6,2.4,3.6,2.9,6,1h0.4c0.2,1.3,0.2,2.8,2.1,1.3c3.3-2.8,6.6-2,8.2,2
	c1.1-0.4,1.3-1.3,1.2-2.2c-0.4-1.4,0.3-2.1,1.6-2c2.4,0.3,0.1,1.3,0.2,2.1c0.3,2.7,3.4,3.5,6.5,1.7c2.5-1.4,2.5-1.4,4.3,0.6
	c0.7-0.9-0.1-3,2.2-2.5c1.1,0.3,0.8,1.1,0.9,1.8c0.3,1.8-0.9,1.9-2.2,1.9c-10.9-0.1-22-0.1-32.9-0.1c-1.2,0-3,0.3-3.1-1.3
	c-0.3-1.8,1.7-1.2,2.7-1.7C495.5,371.1,496.5,370.5,495.8,369.1z"/>
<path class="st9" d="M460.4,349.4c-0.1-2.7-1.9-5.5,0-8.8c1.5,2.1,0.8,3.9,1.2,5.6c0.1,0.6,0.4,1.3,1,1.3c0.5-0.1,1.3-0.8,1.3-1.1
	c-0.8-3.1,1.4-2.6,3-2.2c2.2,0.5,3,2.2,3,4.6c0,2.9-2.1,1.6-3.3,1.8c-1.3,0.2-2.8,0.1-4.1,0.1C461.8,350.2,461,349.9,460.4,349.4z"
	/>
<path class="st88" d="M417.7,374.7c0-1.5-4.7-1.6-1.3-4.1c1.7-1.3,3.4-3,4.8,0.4c-0.6,1.4-1.3,2.8-2.6,3.8l-0.4,0.1L417.7,374.7z"/>
<path class="st89" d="M554.1,276.1c-0.1-2.8-2.3-5.2-1.1-8.6C555.7,270.3,555.6,273.1,554.1,276.1z"/>
<path class="st90" d="M407.2,361.8c-2.5-0.7-2.6,1.3-3,2.7c-0.3,0.9-1.1,1.2-1.8,0.6c-0.4-0.3-0.5-1.2-0.4-1.6c1.3-2.7,3-5,6.4-2.6
	C408,361.2,407.6,361.5,407.2,361.8z"/>
<path class="st87" d="M475.1,207.4c2.3-0.3,2.2,1,2.2,2.2c0,0.8-0.3,1.8-1.2,1.3c-1-0.5-2.1-1.5-2.3-2.5
	C473.2,207.1,474.8,207.5,475.1,207.4z"/>
<path class="st91" d="M332,283.6c-1.3-1.7-0.6-4.1-2.3-5.8c-0.7-0.7,0.4-1.5,1.5-1.7C332.3,278.6,332,281.1,332,283.6z"/>
<path class="st92" d="M535.7,373.7c0.4,0.3,0.7,0.5,1,0.9c0.3,0.2,0.4,0.4,0.3,0.6c-0.1,0.2-0.3,0.3-0.4,0.3c-0.3,0-0.6,0.2-0.9,0.1
	c-1.3-0.4-3.9,1.1-3.8-1.2C532.2,372.3,534.6,374.4,535.7,373.7z"/>
<path class="st93" d="M536.7,375.5c0-0.3,0-0.5,0.1-0.9c3.4,0,6.8,0.1,10.2,0.1C543.7,376.5,540.1,375,536.7,375.5z"/>
<path class="st59" d="M423.4,364.5l-0.4,0.1l-0.4-0.1c-1.2-0.7-3-0.4-3.8-2.2C421.7,360.2,422.3,362.8,423.4,364.5z"/>
<path class="st94" d="M418.6,374.7c0.7-1.3,0.8-3.1,2.6-3.8c0.4,0,0.8,0.1,1.3,0.1C421.2,372.3,422,375.7,418.6,374.7z"/>
<path class="st95" d="M394.3,372.8c0.3,0,0.6,0,0.9,0c-0.3,0.6-0.5,1.3-0.7,1.8c0.4,0.2,0.4,0.4,0.3,0.5c-0.1,0.2-0.2,0.3-0.4,0.3
	c-1.1,0.4-2.4,0.4-2.6-0.8C391.7,373.4,393.7,373.6,394.3,372.8z"/>
<path class="st96" d="M394.5,375.4c0-0.3,0-0.5,0-0.8c1.3,1,2.9-2.8,4,0.6C397.2,376,395.8,375.7,394.5,375.4z"/>
<path class="st97" d="M443.9,347.4c0.6-1,1-2.2,2.3-1.3c0.4,0.3,1.2,0.9,0.6,1.3C446.1,348.2,445,347.8,443.9,347.4z"/>
<path class="st98" d="M454,261.3c-1.3,0.3-1.7,2.9-3.1,1.7c-2.4-1.8,2.9-1.7,1.2-3.6c0.6,0,1.3,0,1.9,0.1
	C454,260,454,260.6,454,261.3z"/>
<path class="st63" d="M529.3,339.4c-0.1-0.2-0.1-0.4,0-0.6c2.2,0.5,2.8,3.4,5.3,3.5c-1.3,1.2-3.6,1.1-3.9,3.4
	C530.1,343.4,530.4,341.3,529.3,339.4z"/>
<path class="st99" d="M524.2,346.5c0.3-0.8,0.4-1.3,1.2-1.5c1.2-0.2,2.2,0.1,2.8,1.2c0.4,1-0.4,1.6-1.1,1.5
	C526.1,347.4,525.2,346.8,524.2,346.5z"/>
<path class="st100" d="M512.3,346.8H512h-0.4c-0.9-1.3-0.7-2.5-0.1-3.8c0.4,0,0.7,0,1,0c0.5,0.3,2.2-0.4,1,1.2
	C513,345,512.2,345.7,512.3,346.8z"/>
<path class="st101" d="M535.5,345.4c-0.5,0.5-0.8,1.2-1.3,1.3c-0.6,0.3-1.2,0-1.2-0.8c-0.1-0.8,0.1-1.6,1-1.6
	C534.4,344.3,534.8,344.9,535.5,345.4z"/>
<path class="st102" d="M513.6,346.9c1.6-1.7,2.8-1.2,3.9-0.9C516.6,347.5,515.4,346.9,513.6,346.9z"/>
<path class="st103" d="M537.9,256c0.2,0.1,0.8,0.4,1,0.9c0.4,1-0.6,0.6-1.1,0.7c-0.5,0.1-1.3,0-1.1-0.9
	C536.8,256.3,536.9,255.8,537.9,256z"/>
<path class="st104" d="M456.7,163.8c0.2,1.9,0.5,3.9,1.9,4.1c2.1,0.4,2.6-2.2,4-3.2c0.9-0.7,0.6-3.1,2.5-2.2c1.7,0.8,1.7,2.3,0,3.6
	c-0.6,0.4-1.1,1.1,0.3,1.4c1,0.3,0.8,1.3,0.5,1.9c-0.6,1.6-9.3,2.4-9.5,1c-0.2-2-1.2-1.9-2.3-2.5c-2.9-1.4,1.3-2.7,0.4-5
	c-1.2-2.9,4-1,5.4-3.3c0.6-1,1.3,0.6,1.9,1.2c1.7,1.8-0.4,2.8-1.1,3.9C459.1,167.1,458.3,163.8,456.7,163.8z"/>
<path class="st105" d="M469.8,164.9c2.2-3.3,4.2-4.7,6.7-3.9c2.2,0.7,3.2,2.7,2.3,5.2C476,162.3,475.2,162.1,469.8,164.9z"/>
<path class="st106" d="M450.3,168.1c-0.6,0.1-1.3,0.3-1.8,0.2c-1.2-0.2-1.9-1-2-2.2c-0.1-0.9,0.4-1.4,1.3-1.5c1.3-0.1,2,0.8,2.2,1.8
	c0.2,0.5,0.1,1.3,0.1,1.9C450.2,168.2,450.3,168.1,450.3,168.1z"/>
<path class="st107" d="M472.6,166.5c0.4-0.9,0.7-2,1.9-1.9c1.1,0.1,1.4,1.1,1.4,2c0,0.8-0.5,2-1.6,1.6
	C473.6,168,473.1,167,472.6,166.5z"/>
<path class="st108" d="M343.6,162.7c6.5,0,12.3,6.1,12.9,12.3c0.5,5.6-6.4,11.1-12.2,11c-6.8-0.1-13.2-5.7-13-11.6
	C331.5,169,338.1,162.7,343.6,162.7z"/>
<path class="st109" d="M494.8,167.2c-0.1,1.3-1,1.2-1.6,1.1c-1.3-0.4-2.9-0.5-2.9-2.2c0-0.7,1-1.4,2.1-1.4
	C494.4,164.5,494,166.5,494.8,167.2z"/>
<path class="st110" d="M502.4,168.1c-0.3,0.1-0.6,0.3-0.9,0.2c-1-0.1-2.2,0.6-2.7-0.8c-0.1-0.3,0.4-1,0.5-1
	C500.7,166.4,502.3,166,502.4,168.1C502.2,168.2,502.4,168.1,502.4,168.1z"/>
<path class="st111" d="M373.2,221.4c1.1-4.1,0.3-5.6-3.7-3.9c-1.1,0.4-3,0.7-3.6-1.1c-0.7-2,1.3-2.2,2.4-2.7
	c2.9-1.6,5.8-1.3,7.7,1.3C378,217.8,375.2,219.3,373.2,221.4z"/>
<path class="st112" d="M401.9,170.1c-2.6-0.3-3.9,0.6-4.6-0.9c-0.2-0.4,0.1-1.5,0.4-1.6C399.5,167,399.8,168.9,401.9,170.1z"/>
<path class="st113" d="M464.6,184.9c-0.4-0.5-1.3-1.2-1.3-1.7c0.2-1,0.8-1.9,1.3-2.8c0.7,0.6,1.5,1.1,1.4,2.2
	C466.1,183.7,466,184.7,464.6,184.9z"/>
<path class="st114" d="M501.8,183.7c-0.7,0.1-1.5,0.4-2.2,0.4c-0.9-0.1-1.7-0.8-1.8-1.8c0-0.3,0.4-0.8,0.7-0.9c1-0.2,1.8,0,2.1,1.3
	C500.7,183.3,501.1,183.7,501.8,183.7L501.8,183.7z"/>
<path class="st96" d="M427.1,198.8c1.1-0.5,1.7-2,3-1.1c0.2,0.1,0.4,0.6,0.4,0.8C429.7,199.6,428.5,198.9,427.1,198.8z"/>
<path class="st115" d="M367,169.2c-1.1,0.2-2-0.7-1.8-1.4c0.2-1.1,1.3-1.5,2.5-1.3c0.7,0.1,1.7-0.1,1.6,1
	C369.2,168.7,368.3,169.2,367,169.2z"/>
<path class="st92" d="M405.6,182.3c1.3,0.3,2.9,0.3,2.7,2.2c0,0.4-1.2,1.3-1.4,1.3C405.2,185,405.9,183.5,405.6,182.3
	C405.7,182.2,405.6,182.3,405.6,182.3z"/>
<path class="st116" d="M392.6,169.9c-2.2,0.5-3.9,0.5-4.6-1.6c-0.3-0.8,0.1-1.5,1-1.8C391.7,165.8,391.8,168.1,392.6,169.9z"/>
<path class="st117" d="M463.2,197.9c-0.2,0-0.4,0.1-0.4,0c-1.1-0.8-3.1-0.1-3.1-2.2c0-0.6,0.4-1.4,1-1.2c1.4,0.6,3,1.4,2.5,3.6
	C463.1,198,463.2,197.9,463.2,197.9z"/>
<path class="st118" d="M421.3,166.4c0.4,0,0.6,0.1,0.9,0.1c0.6,1.2-0.5,1.9-0.7,2.9c-1-0.1-2.4,0.3-2.6-1.1
	C418.8,166.8,420.1,166.4,421.3,166.4z"/>
<path class="st119" d="M417.5,199.2c-0.3,1-1,0.7-1.5,0.7c-0.7,0-1.2-0.4-0.9-1.1c0.2-0.4,0.8-0.8,1.1-0.7
	C416.7,198.3,417.2,198.8,417.5,199.2z"/>
<path class="st120" d="M350.4,262.2c-6.4-0.1-12.8-5.2-12.6-10.2c0.2-6.2,6.8-11,14.8-10.9c4.3,0.1,9.1,6.4,9,12
	C361.6,257.9,356.2,262.2,350.4,262.2z"/>
<path class="st77" d="M379.8,316c-0.3-3-0.5-5.5-4.2-4.6c-1.6,0.4-3.3-0.1-3.3-2.2c0-1.6,1.2-3,2.7-3.3c3-0.5,5.7,0.1,8.3,1.8
	c1.4,1,1.4,2.2,0.3,3C381.6,311.9,381.7,314.3,379.8,316z"/>
<path class="st73" d="M380.3,253.4c-6-1.3-7.1-1.3-9.1-0.1c2.2-3.9-1-4.3-3-5.4c1.8-1.9,4.8-1.6,5.6-4.5c0.3-1.1,1.6-0.9,1.9,0.4
	c0.6,3.2,3.1,2.5,5.4,2.7c-0.6,1.6-1.6,2.4-3.2,3C378.4,250.9,380.3,251.7,380.3,253.4z"/>
<path class="st121" d="M420.6,245.7c0.4,1.4,0.4,2.6-1.2,2.5c-1.2-0.1-1.7-1.1-1.8-2.2c-0.1-1.5,1.3-1.9,2.1-2
	C421.2,243.8,420.3,245.3,420.6,245.7z"/>
<path class="st92" d="M422.4,242.7c3.1,0.3,1.3,2.6,1.3,4.2C423.3,245.5,422.8,244,422.4,242.7C422.5,242.7,422.4,242.7,422.4,242.7
	z"/>
<path class="st122" d="M416.6,262.5c-1.3,1.1-2.2,0.5-3.3,0.4C414.2,261.6,415.1,261.5,416.6,262.5z"/>
<path class="st87" d="M403.6,263.1c-0.1,0.9-0.1,1.8-0.2,2.7c-0.4-0.4-1.2-0.6-1.3-1.1c-0.4-1.4,0.8-1.3,1.6-1.4L403.6,263.1z"/>
<path class="st123" d="M471.8,303.9c-0.6,2.5-2.2,5.1-4.2,5.4c-1.8,0.2-4.1-1.9-5.1-4c-0.4-0.8-0.6-2.2,0.4-3c1.3-1,1.7-0.2,2.3,0.9
	c1.3,2.1,2.6,1,3.4-0.5c0.5-1,1.2-1.4,2.2-1.3C472.3,301.7,471.2,303.1,471.8,303.9z"/>
<path class="st124" d="M439.1,247.2c0,0.7-0.4,1.1-1.1,1.1c-0.8,0-1.6-0.1-1.5-1.1c0.1-0.4,0.7-1.2,1.2-1.3
	C438.3,245.8,438.7,246.6,439.1,247.2z"/>
<path class="st125" d="M434.4,261.2c0.7,0.4,2-0.1,1.9,1.3c-0.1,0.7-0.8,0.8-1.3,0.7C433.2,262.8,434.9,261.7,434.4,261.2
	C434.5,261.2,434.4,261.2,434.4,261.2z"/>
<path class="st126" d="M380.4,267.2c2.4-1.1,3.6-0.5,4.5,1.3C383.1,268.8,381.9,267.8,380.4,267.2z"/>
<path class="st127" d="M391.6,293.8c-0.2,1.1-1,1-1.7,0.9c-1-0.1-1.7-0.8-1.9-1.6c-0.3-1,0.6-1.2,1.4-1.2
	C390.6,291.9,391.4,292.6,391.6,293.8z"/>
<path class="st128" d="M439.6,290.7c1.1-0.4,1.7-2,3-1.3c0.2,0.1,0.3,0.6,0.1,0.8C441.8,291.7,440.6,290.6,439.6,290.7z"/>
<path class="st129" d="M403.6,251.8c1.3-3.5,2.6,0,3.9,0C406.2,251.8,405,251.8,403.6,251.8z"/>
<path class="st130" d="M461.6,289.3c0,0-0.1,0.5-0.8,0.7c-1.3,0.2-1.3-0.9-1.7-1.6c-0.4-0.7,0.2-0.9,0.8-1
	C460.9,287.2,461.6,287.5,461.6,289.3z"/>
<path class="st53" d="M420.7,290.9c-0.4,0-0.8,0.1-1.3,0.1c-0.9-0.4-2-0.8-1.8-2.2c0-0.3,0.7-0.6,1-0.5
	C420.1,288.6,419.9,290.2,420.7,290.9z"/>
<path class="st131" d="M415.7,291.3c0.4,1.3-0.3,1.7-1.1,1.7c-0.4,0-1.2-0.4-1.3-0.7c-0.4-0.8,0.4-1.3,1-1.7
	C415.2,290.1,415.5,290.9,415.7,291.3z"/>
<path class="st37" d="M341.9,119c-8.3,0.4-15.9-5.2-15.8-14.4c0.1-8.4,7.4-15.9,16.1-16.2c7.5-0.3,14.2,7.4,14.2,16.4
	C356.3,113.6,350.9,119,341.9,119z"/>
<path class="st6" d="M377.4,123c-2.5,4.8-3.9,5-8.8,0.7c-1.1,1,0.8,2.6-1,3.7c-1.5-1.2-1.4-4.5-4.5-4c2.7-1,1.2-3.6,2.1-5.8
	c1.6,3.6,3.3,6,6.7,2.4c2,2.7,5.9-1.1,7.7,2.3c0.1,0.2,0.2,1.3,0.7,0.4c2.3-3.9,6,0.4,8.9-1.5c1.5-1,2.8,1.3,2.9,2.8
	c0.2,1.9-2.1,3.7-3.1,3.2c-3.3-1.6-4,0-4.8,2.6c-0.4,1.3-2.1,1.7-3.6,1.5c-1.2-0.1-1.4-1.2-1.7-2c-0.3-0.9,0.8-2.1,1.3-1.3
	c1.1,1.9,1.9,1.7,3,0.3c0.4-0.4,0.9-1.2,0.7-1.5c-0.5-1.4-2.8-1.4-3.1-1.3C377.2,127.8,378.6,123.6,377.4,123z"/>
<path class="st10" d="M400.8,93.7c0.3-2.3,1.7-3.7,3.8-2.6c4.2,2.2,8.5-1.1,13,1.5c-0.7-2.7-0.9-4.6-0.4-7.2
	c1.5,4.4,4.3,7.9,0.4,12.6c0.8-3.2-0.8-3.9-3-4.7c-3.3-1.3-1.8,1.9-2.8,2.5c-1.3,0.8-3.1,1-4.6,1.8c-3.1,1.6-6.6,0.1-9.9,1.7
	c-1,0.4-2.6-1.2-3-2.9c-0.6-3-1.3-6-0.2-9.5c2.2,1.9,0.3,4.6,1.6,5.6C397.2,93.4,399.4,92.1,400.8,93.7c0.4-0.2,0.6-0.3,0.9-0.3
	C401.2,93.4,401,93.6,400.8,93.7z"/>
<path class="st52" d="M524.4,136c2.3,1.1,3.9,2.3,6.4,0.9c1.4-0.9,3.3-0.4,4.2,1.5c0.6,1.3,0.6,2.2-0.6,3.1c-1.6,1.1-3,1.1-4.6-0.3
	c-2.2-2-4.4-3.9-7.9-2.9c-1.5,0.4-2.5-0.5-2.8-2.2c-0.3-2,0.9-3,2.4-3.1c3-0.2,5.7,0,7.2-3.5c0.4-0.8,2.4-0.6,3.4,0
	c1.4,0.9,1.2,2.6,0.6,3.8c-0.4,1.2-1.4,1.7-3,0.9C527.8,133.1,526.1,133.9,524.4,136z"/>
<path class="st69" d="M435.3,111.5c-4.8-1.4-9.9-0.2-14.8-1.1c-1.2-1.3-0.9-2.4,0-3.7c2-3.9,5.6,0.4,8-1.8c-0.2,1.3-1.9,1.7-1.3,2.9
	c0.3,0.6,0.9,1.3,1.5,1.5c0.5,0.2,1.1-0.5,1.1-1.2c0.1-4.3,2.4-4.3,5.6-3.2c1.8,0.6,3.9-0.8,6.5,1.3c-4.1-0.6-2.6,3.9-5.5,4.3
	c-0.7-0.4-1.2-1.3-2.2-1.4C434.3,110.1,436.1,110.2,435.3,111.5z"/>
<path class="st15" d="M373.1,135.7c4.5,0,7.4,1.3,8.3,5.1c0.4,2.2-4.8,7.7-7.4,7.9c-0.5,0.1-1.6-0.4-1.6-0.4
	c0.7-4.1-2.6-3.9-4.9-4.9c-1.3-0.5-3-1.8-2.7-3.9c0.3-1.9,2.1-2.2,3.4-2.7C369.9,136.2,371.9,136,373.1,135.7z"/>
<path class="st5" d="M532,105.9c-0.8,0-1.6,0.2-2.3,0c-5.7-1.4-5.7-1.5-6.3,4.3c-1.1-0.5-0.6-1.5-0.6-2.2c-0.4-8.3,1.5-9.3,9.7-6.4
	c2,0.7,4.1-1.6,6.6-1.3c1.8,0.2,3.2,0.1,3.9,2.2c0.4,1.4-0.4,2.3-1.3,2.4c-1.5,0.1-3.9,1.7-4.1-1.7c0-0.7-0.6-0.9-1.3-0.9
	c-0.9,0-1.4,0.4-1.3,1.3c0,1.3,0.3,2.7-1.8,2.3c-0.6-0.4-0.7-1.3-1.4-1.4C531.5,104.9,532.7,105.2,532,105.9z"/>
<path class="st4" d="M458.5,109.6c-2,0.3-5.1-2.1-4.9,2.6c0,1-1.4,1.4-2.7,1.2c-0.8-0.2-1.5-0.7-1.4-1.5c0.2-1.1,1.2-1.5,2.1-1.1
	c1.5,0.8,1.3-0.2,1.3-1.1c0-0.7,0.1-1.4-1.3-1.1c-1.9,0.5-3.8-0.2-3.5-2.3c0.3-2.3,2.6-1.7,4.3-2.2c3.8-1.1,7.4,0.4,11,0.2
	c2.2-0.1,2.6,0.5,2.2,5.2c-1.3-0.8-0.5-2.8-2.1-3.3c-1.8,0.4-1.3,3.1-3.2,3.5C459.9,109.2,459.2,107.9,458.5,109.6z"/>
<path class="st34" d="M391.7,108.9c0.7-2.4,2.1-2.2,3.6-0.7c1.3,1.3,2,2.9,0.4,4.3c-1.7,1.4-3.7,1.3-5.4-0.3c-0.8-0.7,0.1-2.8-2-2.5
	c-2.3,0.3-0.5,2.8-2.2,3.9c-0.6-3.5-2.6-4.2-5.5-2.3c0.4,2.2,2.3,0.5,3.3,1.4c-0.1,0.2-0.1,0.5-0.3,0.7c-2.8,2.3-4.5-1-6.6-1.4
	c-0.6-0.1,0.1-2.2,1.1-3c1.8-1.7,3.2-2.9,5.9-1.1c2.2,1.5,5.4-0.8,7.9,1l0.2,0.4L391.7,108.9z"/>
<path class="st52" d="M469.7,122.4c-0.6,0-1.7,0.1-1.7,0.1c-0.5-5.5-3.7-3.3-6.5-2.2c0.9,0.6,1.7,1.3,2.8,2.1
	c-0.6,0.2-1,0.4-1.3,0.4c-1.4-0.1-2.9,0.5-3.7-1.6c-0.5-1.5-0.6-2.5,0.4-3.7c1.3-1.4,2.3-1.4,4-0.6c1,0.4,3.4,1.9,2.9-1.6
	c-0.2-1,0.5-1.1,1.5,0c2.2,2.3,4.6,4.1,8.3,3c-1.7,2.2-3.1,4.2-4.8,6.1c-0.6,0.7-1.3,0.4-1.6-0.5c0.3-0.6,0.8-1.2,0.4-1.9
	C470.2,122.1,470,122.3,469.7,122.4z"/>
<path class="st52" d="M367.9,100.4c-2,0-5.6-0.8-5.2-1.4c2-3-1.5-6.1,0.6-8.4c1-1,3.1-1.2,4.8-1.2c3.2-0.1,6.3,3.6,5.9,7.4
	C373.7,100.4,370.6,100.5,367.9,100.4z"/>
<path class="st49" d="M449.4,123.4c-1.9-0.1-0.4-2.2-1.6-2.8c-0.9-0.4-1.9-1.2-2,0.2c-0.4,4.9-4.5,2.5-6.8,3.6
	c-1.1,0.4-3.4-0.6-1.9-3.1c0.7-1.2-0.8-3.5,2-3.6c2.5-0.1,2.9,2.3,4.5,3.4c0.9-1.1,1.8-3.7,3.2-3.3c2,0.5,3.6,2.4,3.8,4.9
	C450.3,123.2,449.7,123.2,449.4,123.4z"/>
<path class="st49" d="M480.9,131c1.9,3,7.6-3.9,8.4,3c0.2,1.5-5.7,8.1-6.9,8c-1.2-0.1-6.2-6.5-6-7.8
	C476.6,131.9,478.2,131,480.9,131z"/>
<path class="st15" d="M420.6,119.1c2.2-0.5,4.3-0.7,5.7,1.6c1.3-1.3-0.2-3,0.9-4.3c1.4,1,1.4,2.4,1.6,3.9c0.2,1.4,0.6,2.9,1,4.4
	c-7.1-2.2-8.5-2.8-8.6-3.9C420.7,120.5,420.1,120,420.6,119.1z"/>
<path class="st52" d="M475.6,107.6c0.5,0.7,1.9-0.2,2.2,0.9c-2.9,1.5-4.4-0.9-5.9-2.3c-2.2,1,0.4,2.6-1.1,3.7c-2-0.1,0-4.8-3.4-3
	c-0.1-0.4-0.3-0.8-0.4-1.3c4.7-0.4,1.4-3.9,1.9-5.9c2.9,1.1,1.2,3.6,2.2,5.5c2.3-1.3,4.8-4.9,7.4-1.5
	C480.4,105.8,476.4,105.5,475.6,107.6z"/>
<path class="st47" d="M426.2,144c-8.6,3.7-13.5,0.5-12.6-7.4c0.1-0.8-0.2-2.3,1.1-2.8c0.9-0.4,2-0.2,2.3,0.9
	c0.4,1.2,2.1,1.9,1.3,3.5c-2.5,5.6-2.4,5.8,3.6,5.8C423,144,424.1,144,426.2,144z"/>
<path class="st5" d="M420.5,135.7c6.6-3.7,9.6-2.3,10.3,3.3c0.1,0.8-0.2,1.6,0.9,2.3c2.3,1.4-0.1,2.2-0.8,2.9
	c-1.8,1.5-3,0.3-3.9-1.3c-0.7-1.1-1.2-2,0.8-2.3c2.2-0.4,0.7-2.2,1-3.4c0.4-1.6-1-1.5-2.1-1.5C425.1,135.7,423.4,135.7,420.5,135.7z
	"/>
<path class="st10" d="M369.7,114.6c-4-1.5-8.9-1-8.6-6.5c0.1-2.5,2.4-3.6,4.8-3.1C372.3,106.1,367.8,111.1,369.7,114.6z"/>
<path class="st53" d="M463,142.3c-3.1-0.4-3.4-3-5.1-4.4c-1.2,0.6,1,3.4-1.3,3.2c-1.8-0.1-1.3-2.2-1.5-3.4c-0.3-1.5-0.2-3-0.2-4.6
	c0-1.1,1.3-1.3,1.4-1c1.3,5.1,2.5-0.1,3.8,0c0.4,0,0.8,0,2.2,0C456.4,136.4,462,138.8,463,142.3z"/>
<path class="st4" d="M380.5,94.9c0.3,6.3,5.4,2.8,8.6,4.1c-3.7,2.5-6.9,1.4-9.3-0.9c-2.2-2.2-2.2-5.4-0.6-8.1c2.2-3.8,6-3,9.4-2.4
	c1.1,0.2,2.9,0.5,3,2.4c0.4,0.9-0.1,1.2-0.8,1.3c-3.2-1.3-6.5-3.6-9.4,0.4C380.8,92.7,381.5,94.1,380.5,94.9z"/>
<path class="st11" d="M400.1,121.8c-0.5-2.6,1.6-2.8,3-2.7c1.6,0.1-0.2,1.7,0.7,2.7c1.8-2.2,3.7-5,6.5-1.3c0.4,0.5,0.9,1.5,0.6,2.1
	c-0.6,1.3-2.1,2.5-3.2,1.9c-2.9-1.4-6.3,3.9-8.5-0.9c0-0.1,0.5-0.5,0.9-0.8C401,122.4,400.1,122.2,400.1,121.8z"/>
<path class="st24" d="M390.9,91c0.3-0.4,0.5-0.6,0.8-1c1.5,1.7,1.3,3.4,0.1,5.2c-1.8,2.7-3.9,0.5-6,0.5c-0.3-0.6-0.4-1.3-1.1-2.2
	c0.1,1.3,0.9,1.4,1.2,2.1c-2.2,2.9-3.7-0.1-5.5-0.8c0.3-1-1.1-1.9-0.2-2.9c2.6-3.1,5.6-3.5,8.7-0.9C389.9,91.9,390.4,91.7,390.9,91z
	"/>
<path class="st132" d="M446,89.6c3-0.1,5.5-0.1,6.3,3c0.5,2.2-0.5,3.6-2.2,4.6c-2.4,1.4-3.1-0.8-4.6-2c1.7,0.3,3.3,1.6,4.8-0.2
	c0.7-0.9,0.5-2.1-0.2-3c-2-2.3-3.4,0.4-5.2,0.7c-0.3-5.6,1.9-7.4,6.3-5C449.9,89.3,447.9,87.5,446,89.6z"/>
<path class="st17" d="M412.3,110.8c-2.9,1.5-5.9,0.7-8.9,0.6c-1.8-0.1-2.1-2-2-3.5c0.2-1.7,1.8-3.2,3-2.6c2.2,1.3,3.8,1.4,5.8-0.2
	c0.8-0.7,2.1,0.1,2.1,1.5c-0.1,0.4-0.3,0.7-0.5,1c-0.9,0.7-1,1.4,0,2.2C412,110.2,412.2,110.4,412.3,110.8z"/>
<path class="st31" d="M497.4,106.7c1.3-1.6-1.4-4.4,2-5.6c1.3-0.4,2.2-1.9,3.9-1.3c0.9,0.4,1.3,1.3,1.1,2.3c-0.3,2-2.2,1.7-3.5,2.3
	c1,0.8,2.5,0.5,3.2,1.9c-1.8,1.4-3.9-0.5-5.6,0.4C498,107.2,497.6,107.2,497.4,106.7z"/>
<path class="st49" d="M395.9,135.9c-2.6,1-4.1,1.8-4.1,4.1c0.4,0.1,0.8,0.4,1.3,0.4c2,0.1,4.4-0.4,4.1,2.7c-0.1,2.1-1.9,2.1-3.5,2.1
	c-2.4,0-4.1-0.5-3.9-3.6C390,138.1,390.5,135.4,395.9,135.9z"/>
<path class="st11" d="M498.2,128.9c0.7,2.1-0.5,3-1.3,3.9c-0.7,0.7-1.5,1.5-0.6,2.2c1.1,1,1.9-0.1,2.3-1.1c0.3-0.6,0.4-1.2,1.6-0.8
	c1,2.1-0.4,4.8,0.9,7.2c-2.8-1.6-4.2-6.2-8.9-3.4C494.4,134.1,495.2,130.9,498.2,128.9z"/>
<path class="st43" d="M457.5,93c-0.9,1.4-1.6,2.6-2.5,4c-1.7-5-1.4-4.1,3.8-5.6c3.6-1,4,0,4.5,2.6c0.1,0.5-0.3,1.1-0.4,1.7
	c-1.4-2.8-3.2-0.6-4.9-0.4C457.7,94.6,457.6,93.9,457.5,93z"/>
<path class="st9" d="M503.2,138.7c0.5-2.2-0.7-4.3-0.7-6.7c2.8,0.4,0.9,2.8,2.2,3.6c1.7,0.5,1.3-1.3,1.8-2c0.6-0.8,0.9-2.2,2.2-1.4
	c1.3,0.8-0.6,1.3-0.5,2.1c0.4,2.4,3,4.1,2.2,7.1c-2-0.6-1.9-2.8-2.9-3.8C506.1,136.2,505.3,139.4,503.2,138.7z"/>
<path class="st133" d="M446.8,141.1c1.6,0.2,2.9,0.4,4.1,0.5c-2.2,0.8-4.5,0.8-6.9,0.4c1.1-2.1,2.6-3.9,2.8-6.2
	c0.1-0.9,0-1.6-0.8-1.9c-0.9-0.3-1.9-0.1-1.5,1.3c0.2,0.7-0.1,1.3-0.9,1.3c-0.9-0.1-1.1-1-1.1-1.7c-0.1-1.3,0.8-1.9,1.8-2.4
	c1.2-0.5,2.3-0.9,3.3,0.3c0.8,1,1.9,2,1.2,3.6C448.1,137.7,447.5,139.3,446.8,141.1z"/>
<path class="st31" d="M437.3,132.9c1.1,0.2,1.4,0.9,1.9,1.8c1.2,2.4,0.3,5.4,2.2,7.6c0.9,1-0.7,0.7-1.2,1.2c-1,1-2.2,1-3.3,0.1
	c-0.9-0.7,0.3-1,0.4-1.5c0.8-1.9,2.5-4.1-1-5.4c-1.6-0.5,0.1-1.3,0-2.2C436.2,133.9,436.2,133,437.3,132.9z"/>
<path class="st10" d="M420.5,106.8c0,1.3,0,2.4,0,3.7c-4.1,3.2-1.5-2.2-3.5-2.3c-0.7,2-2,3.7-4.7,2.7c-0.1-0.1-0.3-0.3-0.4-0.4
	c-0.9-1.2-0.9-2.2,0-3.4c0.1-0.1,0.3-0.3,0.4-0.4c0.6,0.1,0.9,1.3,1.8,0.5C416.1,105.5,418.3,105.9,420.5,106.8z"/>
<path class="st52" d="M512.6,101.4c2.3-2.4,3.9-0.3,5.2,1.2c0.9,0.9,1.2,3.1,0.3,3.9c-1.6,1.3-4.1,1.3-5.6,0.4
	c-1.7-1-0.5-2.9,0.2-4.4c-0.4-0.2-0.4-0.4-0.4-0.6C512.3,101.5,512.4,101.4,512.6,101.4z"/>
<path class="st70" d="M385.9,135.8c1.2-0.1,1,1,1.3,1.5c1.4,2.4,0,5.6,2.2,7.9c0.7,0.7-0.4,0.7-0.9,1c-0.8,0.4-1.7,0.8-2.6,0.1
	c-1.3-1,0.4-1.1,0.4-1.3c-0.1-1.9,2-4.7-2.3-4.7c-1.3,0,0.2-1.1,0.1-1.6C384.1,137.2,384.6,136.2,385.9,135.8z"/>
<path class="st11" d="M420.4,123.8c-1.6,1.2-7.3,0.9-8-0.5c-0.4-0.8-0.4-1.7,0.1-2.6c0.7-1.3,1.3-1.4,4.2-1.2c0.2,2.1-3,0.3-2.7,2.3
	c0.1,0.8,0.6,0.8,1.3,0.9c2.3,0.4,2.7-1.3,3.3-2.8C421.3,120.3,419.3,122.7,420.4,123.8z"/>
<path class="st10" d="M494,106.1c-2.4,1.8-2.4,1.8-3.1-1.6c-2.1,0.2-0.8,2.7-2.6,3.4c-1.3-1.3-1.3-3.2-0.4-4.4
	c1.6-2.2,4-0.9,6.1-0.5C494.6,104.1,494.7,105.1,494,106.1z"/>
<path class="st15" d="M373.3,112.2c0.2-0.2,0.4-0.4,0.5-0.6c0.4-1.6-0.6-3.9,1.8-4.6c0.7-0.2,1.3,0.4,1,1c-1.2,2-0.5,4.9-3.1,6.2
	c-0.9,0.4-1.6-0.3-1.9-0.8c-0.5-1.3-1.7-2.7-1.2-4.2c0.3-0.7,1.3-0.6,1.6,0.4C372.3,110.5,371.8,111.9,373.3,112.2z"/>
<path class="st50" d="M437.4,98.3c-1.4-0.1-2.7-4-4.1-0.2c-0.1,0.2-0.8,0.3-1.2,0.2c-0.8-0.4-0.4-1.4-0.2-1.4c3.5,0.3-2-4.6,2.8-4.4
	c3,0.1,1.1,1.4,1.4,2.2C436.7,95.8,437.8,96.8,437.4,98.3z"/>
<path class="st8" d="M449.4,123.4c0.4-0.3,0.7-0.5,1.1-0.7c1-0.9,1.1-2,0.8-3.2c-0.2-0.9-0.3-1.9,1.2-2c0,1.6,2.3,0.4,2.4,2.2
	C455,124,452.4,124.1,449.4,123.4z"/>
<path class="st37" d="M493.5,109.9c-1.6,4.8-4.7,8.4,0.2,11.5c-2.6,1.3-3.5-0.8-3.9-2.4C488.7,115.7,489.8,112.8,493.5,109.9z"/>
<path class="st67" d="M427.1,93.1c-2.6,0.1-3.8,2.1-5.5,4.9c-0.2-2.8-1.3-4.8-0.1-5.6C423.1,91.5,425.3,91.7,427.1,93.1z"/>
<path class="st52" d="M512.6,101.4c0,0.4,0,0.6,0,1c-3.2-0.3-2.2,3.9-5,4.6c-0.7-1.9-1.9-3.7-1.4-6.3c1.4,0.7,0.7,2.6,2.3,3.1
	C509.6,102.7,509.8,99.7,512.6,101.4z"/>
<path class="st134" d="M435.3,111.5c-1-0.8-1.9-1.5-3-2.3c2.1-1.2,4.2-3.2,4,1.4C436,110.9,435.7,111.2,435.3,111.5z"/>
<path class="st135" d="M494,106.1c0-1,0-2.1,0-3c1.8-1.2,1,0.6,1,1c0,1.7,0.4,3,2.4,2.7c0.4,0.1,0.7,0.1,1,0.1
	C496.6,107.9,494.8,109.5,494,106.1z"/>
<path class="st136" d="M469.7,122.4c0.7-1.2-2-2.3,0-3.4c0.4-0.2,1.3,0.2,1.5,0.5c1.2,1.9-0.5,2.9-1.3,4.1
	C469.7,123.3,469.7,122.9,469.7,122.4z"/>
<path class="st137" d="M420.4,123.8c-1.6-0.8,0.1-3.1-1.7-3.9c-0.8-0.4-1.3-1-0.4-1.7c1.1-0.8,1.4,0.7,2.2,0.8
	c0.3,0.6,0.4,1.3,0.7,1.9C420.1,121.5,421,122.9,420.4,123.8z"/>
<path class="st4" d="M427.7,91.6c3,1.8,1.6,3.9,2.4,6.1C427,96.1,428.3,94,427.7,91.6z"/>
<path class="st99" d="M458.5,109.6c0.1-1.1-1.5-0.6-1.4-1.3c0.1-0.5,1-1.3,1.5-1.3c1.8-0.1,1.3,1.7,1.9,2.6
	C459.9,109.7,459.2,109.6,458.5,109.6z"/>
<path class="st138" d="M532,105.9c0-1.4-2.2-0.3-1.9-1.5c0.1-0.5,1.5-1.2,2.2-1c1.4,0.3,0.4,1.8,0.8,2.6
	C532.7,105.9,532.3,105.9,532,105.9z"/>
<path class="st139" d="M400.1,121.8c0.8,0.7,2.3,0.4,2.7,1.7c0.1,0.2-0.5,0.8-0.8,0.8c-1,0-1.5-0.7-1.8-1.5
	C400.1,122.5,400.1,122.2,400.1,121.8z"/>
<path class="st80" d="M485.3,117.1c0.7,0,1.3,0.3,1.2,1c-0.1,0.4-0.4,0.7-0.8,0.8c-0.7,0.2-1.2-0.4-1.3-1
	C484,116.9,485.1,117.4,485.3,117.1z"/>
<path class="st140" d="M457.7,122.5c-1.5-1-1-2.2-1.1-3.9C458.2,120,457.9,121.3,457.7,122.5z"/>
<path class="st4" d="M354.1,329.1c7.6,0,13.5,6.1,13.5,14.1c0,6.8-6.3,13-13.9,12.7c-6.6-0.3-12.9-4.9-13.2-12.6
	C340.2,335.5,346.3,327.7,354.1,329.1z"/>
<path class="st6" d="M418.3,335.7c1.7,2.9,4.2,2.2,6.5,3.2c-3.6,1.1-6.4,0.6-8.1-2.2c-2-3.2-1-6.7,1.2-9.3c1.8-2.2,5-1.4,7.1-0.5
	c2,0.9,4.5,2.7,3.8,5.6c-0.4,2.1-2,3.4-4.4,3.2C422.5,335.5,420.6,335.7,418.3,335.7z"/>
<path class="st5" d="M387.7,354.3c-3.7,0.2-7.3-0.1-10.9,1.6c-2.2,1.1-5.3,0.5-6.6-2.5c-1.6-3.5,1.4-4.5,3.5-5.9
	c2.5-1.8,4.3-0.7,5.6,1.6c0.4,0.6,0.8,1.3,1,2.1c0.3,1.1,0.4,2.2,1.9,2.1c1.7-0.3,0.7-1.7,0.9-2.6c0.2-0.6-1.3-2.4,0.1-1.8
	c2.3,1,4.3-3.3,6.1,0c0.5,1.1,1.2,2.6-1,2.6C384,351.5,387.9,353.4,387.7,354.3z"/>
<path class="st15" d="M415.9,353.4c-2.2-1-1.7-2.6-2.8-4.2c-1.7,7.5-8.2,3.7-12.3,5.8c-1.3,0.7-2.6-2-3.2-3.8s-0.4-3.5,0.3-5.8
	c1.3,6.9,5.4,4.1,9.1,3.5c2.2-0.4,4.4-0.4,6.6-0.7C417.5,347.5,415.3,351.1,415.9,353.4z"/>
<path class="st17" d="M482.7,344.8c0.3-1,1-2,1.9-1.7c2.9,1,2.8-1,3-4c1.2,3,1.8,4.7,4.6,4.1c2.3-0.4,4.4,2,5.1,3.9
	c0.9,2.2-0.7,2.6-2.5,1.3l0.1-0.1c-2.6,3-4.6-0.1-6.8-0.6c-0.4-0.4-1.1-0.8-1.7-1c0.3,0.4,0.6,0.6,0.9,1c-1.3,2-2.8,2.4-4.6,0.8
	C481.7,347.3,481.9,346.1,482.7,344.8z"/>
<path class="st6" d="M454,335.6c-1,0.1-1.6-1.5-2.9-0.4c-0.9,0.8-2.4,0.6-2.8-0.4c-2.7-6.3-3.9-1.3-5.2,1c-2.2-4.8-1.9-5.5,2.9-5.8
	c2.5-0.2,5.3-2.3,7.4,0.9C455.2,332.3,455,333.9,454,335.6z"/>
<path class="st70" d="M397.2,368.4c-0.7-4.2-3.8-2.5-5.7-3.5c0.1,1.7,1.3,1.2,1.9,1.7c-1.6,1-3,1.1-4.2-0.4c-1-1.3-0.4-3,0-3.9
	c0.8-1.4,3-1.1,4-0.3c1.5,1.1,2.3,1.9,3.6-0.4c1-1.7,2.7-1.3,3.9,0.1c1.3,1.3-0.1,2.3-1,2.9C398.4,365.5,397.1,366.2,397.2,368.4z"
	/>
<path class="st16" d="M374.1,363.5c1.5,0.4,2.4-0.5,3.5-1.4c0.9-0.7,2.6-0.9,3.4,0c2.1,2-1.3,3.4-0.9,5.6c0.3,1.1-1.6,0.7-2.1,0.3
	c-1.9-1.8-4,0.5-6-0.4c0.4-1.7,2-0.7,2.3-1.3c0.6-2.3-4.7-0.1-2.3-3.6C373.2,362,373.6,363,374.1,363.5z"/>
<path class="st17" d="M509.6,357.2c-3.1,2.1-5.6,6.1-9.8,2.1c-1.1,2.2,1,2,1.1,3.1c-2.2,0.2-3.3-0.4-3.2-3c0-1.1,4.2-1.5,0.4-3
	c0.5-0.8,1.3-2,2.1-1C502.8,358.6,506.4,356.5,509.6,357.2z"/>
<path class="st135" d="M406.5,339.4c-3-5.6-3.8-5.7-8.1-2.2c-1.6-3.1,0.7-5.5,1.3-8.1c0.2-1,1.1-0.5,1.7,0
	C404.3,331.6,406.7,334.2,406.5,339.4z"/>
<path class="st20" d="M392.9,334.6c-0.9-1-1.5-0.9-1.9,0.4c-0.3,1,0.5,2.6-2.1,3c0-2.3-0.1-4.5,0-6.6c0.1-1.3-1-3.5,1.8-3.2
	c2.2,0.2,5.2-1.4,6.5,1.7c1.1,2.5-1.8,2.7-2.9,3.9C394.1,334.5,393.6,334.8,392.9,334.6z"/>
<path class="st17" d="M488.3,358.3c-1.4,0.4-2.9,0.6-4.3,0.9c0.2,1.3,1.6,1.2,2.2,2c-2.9,0.4-2.9,0.4-4.8-2.6
	c-2,0.2-0.6,2.9-2.5,3.1c-0.9-3.1,0.5-4.8,5.6-6.5C487,354.4,487.9,356.2,488.3,358.3L488.3,358.3z"/>
<path class="st11" d="M382,341.5c-1.2-3.2,0.8-4.3,1.1-6.5c-2.3-0.2-4.6-0.3-7.8-0.4c2.9-2.3,4.5-5,8.1-6.7
	c-0.4,2.8-3.4,3.2-3.6,5.4c1.5,1.5,4.6-0.7,5.2,1.3C385.7,336.9,383.5,338.7,382,341.5z"/>
<path class="st32" d="M511.6,343c0,1.3,0.1,2.5,0.1,3.8c-2.5,3-5.7,0.9-8.5,0.9c-1.2,0-1.6-1.5-1.3-2.5c0.4-1.3,0.5-2.9,2.2-3
	c1.7-0.2,3.2,0.5,4.2,1.9c0.4,0.6,0.1,1.8,0.8,2.2C511.4,346.3,509.7,343.4,511.6,343z"/>
<path class="st10" d="M482.7,344.8c0,1.3,0,2.5,0,3.7c-4.9,1.4-7.4,0.5-7.4-2.9c0-0.6,0.4-2.1,0.7-1.6
	C478.1,347.3,480.8,343.2,482.7,344.8z"/>
<path class="st132" d="M431.6,353.2c-1.3,0-2.8,0.1-4.1,0.1c-1.1,0.1-2.3-0.8-2.2-1.3c0.7-1.7,0-3-0.4-4.5c-0.1-0.4,0.7-0.5,1.4-0.2
	c2.6,1.3,5.5,2.2,5.1,6C431.5,353.4,431.6,353.2,431.6,353.2z"/>
<path class="st47" d="M479,327.4c0,2.1,0,4.1,0,6.7c-1.6-0.7-2.1-5.3-4.4-1.3c-0.2,0.4-1.1-0.3-1-1c0.2-1.8-0.5-3.6,0.4-5.2
	C475.7,325.3,475.6,334.7,479,327.4z"/>
<path class="st20" d="M497.6,333.6c-2.6,1-4.4-0.9-6.5-1.7c-0.2-0.1-0.3-0.3-0.4-0.4c-0.4-0.9-0.4-1.9,0-2.8
	c0.1-0.2,0.3-0.3,0.4-0.4c3.6-3.7,5.7-3.7,7.8-0.1c-0.3,0.4-0.6,0.5-1.1,0.5c-0.9,0.2-2.3-0.5-2.6,0.9c-0.3,1.3,1,1.7,1.8,2.3
	C497.4,332.4,497.8,332.9,497.6,333.6z"/>
<path class="st141" d="M469.7,329.1c2.9,1.2,1.4,3.5,1.3,5.6c-1.1-2.9-5.3-1.9-5.6-4.3c-0.2-1.5,1-4.4,3.7-5.1
	c1.1,1.6-0.8,2.5-0.6,3.8C468.9,329.8,469.4,329.6,469.7,329.1z"/>
<path class="st12" d="M433.9,337.5c-2.2-3.2-4.5-5.5-3.9-9.1c2,1.3,1.9,3.6,3.1,4.9c2.4-1.2,0.2-4.2,2.6-5.7
	C437.5,331.2,434.6,333.6,433.9,337.5z"/>
<path class="st70" d="M478.6,371.6c1.5-1.6,0.4-4.3,3.9-4.1c3.3,0.2,4.5,1.4,4.8,4.9C484.5,369.9,481.8,371.1,478.6,371.6z"/>
<path class="st20" d="M491.2,331.9c-1.5,2.1-3.5,0.5-5.4,1c0.4-1.6,1-2.8,2.1-3.7c0.9-0.8,2.2-1.8,1.5-3c-1-2.1-2.2,0.9-3.7-0.1
	c1-1.5,2.3-3,4.1-2.2c1.9,0.7,1.4,2.8,1.3,4.5l0.1-0.1C490.3,329.4,489.6,330.7,491.2,331.9L491.2,331.9z"/>
<path class="st142" d="M422.3,353.9c-1.1-2.2-1.2-7.2-4.8-1.9c-1-1.4-1.3-2.7,0-3.5c2.8-1.6,3.1-1.9,3.4-4.4
	C423.6,347.7,424,349.6,422.3,353.9z"/>
<path class="st143" d="M414.3,338.3c-5,2.4-5.9,2.1-6.7-2.8c-0.3-1.3-0.2-2.8-0.3-4.1c0-1-1.7-2.6,0.4-2.9c1.2-0.1,1.3,1.7,1.5,2.9
	c0.1,0.7,0.1,1.5,0,2.2C409,337.1,410,339.2,414.3,338.3z"/>
<path class="st144" d="M506.2,334.3c-2.1,0.4-0.4-3.8-3.3-1.7c-1.3,0.9-1.8-0.3-1.7-1.6c0.1-1.3,0-2.4-0.1-3.7
	c-0.1-1-1.6-2.2-0.2-2.8c2.1-0.7,1.2,1.5,1.6,2.4c0.4,0.8,0.4,1.8,1.6,2C508.1,329.7,505.9,332.4,506.2,334.3z"/>
<path class="st145" d="M371.9,334.8c1.3,2.3,1.5,0,1.7-0.4c0.8-1.9-0.2-4.2,1.7-5.9c0.9,3.7,0,7.2-1.3,10.5c-0.6,1.4-1.4,0.9-2.8-3
	C370.6,334.9,371.3,334.8,371.9,334.8z"/>
<path class="st34" d="M526.6,358.6c-0.4,1.3-0.9,2.6-2.4,1.9c-1.5-0.7-3.9-1.3-4-3.2c-0.1-1.7,2-2.1,3.3-2.1
	C525.3,355.3,526.3,356.7,526.6,358.6z"/>
<path class="st76" d="M462.3,330.9c-0.3-1.4,1.9-2.6,0.6-4.2c-0.3,0-0.5-0.2-0.8-0.1c-1.2,0.4,0.1,2.9-1.9,2.4
	c-0.9-0.2-0.8-1.3-0.5-2c0.5-1.6,1.9-1.8,3.4-1.7c1.5,0.1,2.3,0.8,2.2,2.2c-0.3,1.8-1.6,3.1-2.6,4.6
	C461.9,331.9,461.8,331.4,462.3,330.9z"/>
<path class="st145" d="M502.6,370c-0.1,2.1-1.2,3-3.2,2.9c-2.3-0.3-3.1-1.6-2.8-3.8C498.8,368.2,501.1,366.4,502.6,370z"/>
<path class="st146" d="M488.2,358.4c0.8-0.7,1.5-1.4,2.3-2.2c1.9,1.2-1.8,2.7,0.5,3.8c2.1,0.9,2.5-0.9,3.5-1.9
	c1.2,1.9,0.3,3.1-1.3,3.5c-2.6,0.5-4.4-0.5-4.9-3.4C488.3,358.3,488.2,358.4,488.2,358.4z"/>
<path class="st18" d="M454,329c0-1.2,0-2.3,0-3.5c0.4,0,0.8,0,1.2,0c-0.4,3,4.1,5.9-0.4,9.1C453.8,332.9,454.9,330.8,454,329z"/>
<path class="st147" d="M518.7,360.4c-1.5-2.2-2-4.6-1-7.5C520.2,355.4,518.4,358.1,518.7,360.4z"/>
<path class="st8" d="M462.3,330.9c0.1,0.4,0.1,0.9,0.2,1.3c-0.4,2.5,2.2,0.8,2.8,1.9c-1.7,2.1-3.6,1.8-5.6,0.1
	C460.5,333.2,461.4,332,462.3,330.9z"/>
<path class="st148" d="M487.4,347.7c-1.2-0.2-2.8,1.1-3.5-0.8c-0.3-0.7-0.1-1.6,0.8-1.8c2.2-0.4,2.8,1.2,3.5,2.7h-0.4L487.4,347.7z"
	/>
<path class="st149" d="M371.9,334.8c-0.3,0.4-0.5,0.7-0.8,1.1c-0.1-0.1-0.3-0.2-0.4-0.3c-0.8-1.8-3.9-3.3-2.3-4.9
	C369.3,329.7,370.7,333.2,371.9,334.8z"/>
<path class="st150" d="M392.9,334.6c0.4-0.3,1-0.5,1.4-0.9c1,1.6,2.2,3.1,1.9,5.6C394.2,338.2,393.6,336.4,392.9,334.6z"/>
<path class="st151" d="M497.6,333.6c-0.4-0.3-0.8-0.6-1.2-0.9c0.4-1.5,0.5-3.1,1.3-4.5c0.4,0,0.7,0,1-0.1
	C501.1,330.6,500.9,332.4,497.6,333.6z"/>
<path class="st152" d="M413.7,370c0.7,2.2-0.1,3.8-1.6,4.1c-1.2,0.3-3-0.9-0.8-2.2C412.3,371.5,412.5,370.5,413.7,370z"/>
<path class="st153" d="M476.3,367.3c-0.4,1.5,2,3,0.4,4.5c-0.2,0.2-0.8,0.1-0.8,0C475,370.3,475.2,368.8,476.3,367.3z"/>
<path class="st145" d="M440,335.9c-1-1.2-2.4-2.2-1.3-3.9c0.1-0.2,0.7-0.2,0.8,0C440.6,333.1,440.7,334.4,440,335.9z"/>
<path class="st113" d="M454,329c1.6,1.7,0.5,3.8,0.9,5.6c-0.4,0.4-0.6,0.6-1,1c0.2-1.6,0-3.2-0.7-4.7
	C453.5,330.3,453.8,329.7,454,329z"/>
<path class="st63" d="M469.7,329.1c-0.3,0.8-0.2,2-1.5,1.8c-0.4-0.1-1.1,0-0.8-0.6c0.2-0.4,0.8-0.8,1.3-1.2
	C468.9,329.1,469.4,329.1,469.7,329.1z"/>
<path class="st154" d="M374.1,363.5c-0.6-0.3-1.3-0.6-2-0.9c0.4-0.3,0.6-0.7,1.1-0.8c0.8-0.2,2.1-0.8,2.5,0.1
	C376.1,362.9,374.1,362.4,374.1,363.5z"/>
<path class="st45" d="M524.8,58.6c-1.6,0.4-3-1.5-4.8-0.1c-1.2,1-3.3,1.6-2.6,3.2c0.5,1.1,2.7,2.2,4.5,1.3c2.2-1.2,4.1-2.2,5.9,0.4
	c1.1,1.5,0.4,2.5-0.8,3.5c-2.5,2-4.1,0.3-6-1.2c-2.1-1.5-4.5-2.7-7.2-2.5c-1.4,0.1-2.4-0.2-2.3-1.9c0.1-1.5,0.3-2.9,2.2-2.8
	c3.5,0.3,6.1-1.2,8.3-3.9c1.3-1.6,3.4-1.3,5.1-0.4c0.9,0.4,1.6,1.7,1.2,2.8C527.7,58.6,526.2,58.7,524.8,58.6z"/>
<path class="st45" d="M374,56.7c3.3-0.5,6,1.1,7.1,4.2c1.2,3.2-1.5,4.9-3.9,6.5c-1.2,0.8-2.2,1.7-3.3,2.4c-1.8,1.1-3.1,1.3-2.2-1.5
	c0.5-1.4,0.6-2.1-1.3-2.4c-2.4-0.4-5.8-0.9-5.5-4.3c0.4-3.3,3.7-4.1,6.5-4.9C372.1,56.5,373,56.7,374,56.7z"/>
<path class="st34" d="M479.1,59.8c0.1,1.7-3.9,7-5.4,7.1c-2.3,0.1-5.7-3.5-5.8-6.2c-0.1-2.3,1.5-4.6,3.3-3.9
	C473.8,58,478.3,54.4,479.1,59.8z"/>
<path class="st15" d="M424.3,68c-2.6,1.9-5.6,0.5-8.4,0.7c-1.4,0.1-1.9-1.2-2-2.6c-0.2-2.2,1.2-5.1-2.5-6c-0.6-0.2-0.2-1.4,0.7-1.5
	c1.2-0.2,1.3-2.6,2.9-1.3c0.9,0.8,2.5,1.5,2.2,3c-1.3,6.5-1.4,6.5,5.2,6.5c0.6,0,1.3,0.2,1.8,0.3c0.4,0.2,0.4,0.4,0.4,0.6
	C424.5,67.8,424.4,68,424.3,68z"/>
<path class="st49" d="M457.6,58c-0.9,1.7-3.7,2-3.6,4.3c0.4,0.9,1,0.1,1.4,0.1c1.9,0,4.3-0.9,4.9,1.9c0.4,2-1.3,2.3-2.7,3
	c-2.7,1.4-4.4-0.5-5.4-2C450.5,62.6,453.7,58.2,457.6,58z"/>
<path class="st155" d="M424.3,68c0-0.3,0-0.6,0-0.9c1.1-1.4-2.2-4.5,1.8-4.8c-0.4-1.9-0.3-4.1-2.8-4.6c-1.3-0.3-2.7-0.1-3.9-0.6
	c3,0.3,6.8-2.4,8.4,2.5C429.6,65.6,429.1,66.5,424.3,68z"/>
<path class="st48" d="M400.3,67.2c-2.4,1.2-4.7,1.2-6.9,0.3c1.2-2.2,2.2-4.2,3.4-6.4c0.5-1.1-0.2-1.9-0.9-2.2
	c-1.3-0.7-1.4,0.4-1.4,1.3c0,0.7-0.4,1.3-1.2,1.1c-1.1-0.3-0.9-1.3-0.7-1.9c0.5-1.6,1.9-2.6,3.4-2.5c1.5,0.1,2.3,1.3,2.2,3
	c-0.2,1.2,0.3,2.4-0.6,3.6C395.1,66.8,397.4,67.2,400.3,67.2z"/>
<path class="st12" d="M448.3,56.9c-1.1,1.8-3.2,1.2-3.9,3.2c2.6,0.2,5.2,0.4,5.9,3.5c0.3,1.3-0.6,2.1-1.5,2.6
	c-2.1,1.2-4,1.3-6.1-0.2c1.4-2,2.2,0.2,3.4,0c1.3-0.3,2.6-0.8,2.2-2.2c-0.2-1.1-0.6-2.3-2.3-2.4c-1.2-0.1-3.3,3-3.6-0.6
	c-0.2-2.5,1.6-4.1,4.3-4C447.1,56.7,447.7,56.8,448.3,56.9z"/>
<path class="st52" d="M489.9,66.7c-2.4-0.5-4.3,1.6-6.7,0.9c2.9-3,2.9-3-1-6.5c-0.4-0.3-0.4-1.3-0.3-1.7c0.7-1,1.5-1.9,2.5-2.6
	c0.5-0.4,1.1,0.2,1.3,0.8c0.5,2,1.6,3.9,1.7,6C487.4,65.6,488.7,65.9,489.9,66.7z"/>
<path class="st132" d="M492.7,61.3c1.7-1.1,1-3.8,4-3.4c-3.1,3.4-0.9,6,1.8,9.8c-4.8-2.7-9.3-3.8-8.2-9.6
	C492.7,58,491.6,60.3,492.7,61.3z"/>
<path class="st19" d="M437.9,55.8c-0.9,3-2.2,3.9-3.2,5c2.1,1.9,3.4,0.4,4.8-1.3c1.1,1.2,1.2,2.5,1.4,3.8c0.2,0.9,0.5,2.1-0.4,2.5
	c-1.4,0.5-1.1-0.8-1.3-1.6c-0.7-1.9-2.3-0.6-3.6-1c-1-0.3-2.2,0.5-2.9-0.7c-0.6-1.4,0.5-2.2,1.4-3C434.9,58.5,435.9,57.6,437.9,55.8
	z"/>
<path class="st15" d="M391.5,67.6c-2.4,0.2-3.9,0.8-5.4-0.2c2.2-2.9,2.2-2.9-1.3-5.2c-0.5-0.4-0.7-1-0.3-1.5c0.8-1,0.7-2.8,2.4-3
	c1.1-0.2,1.1,0.9,1.3,1.5C389.3,61.8,389,64.9,391.5,67.6z"/>
<path class="st49" d="M450.5,382.2c-9.2,0-17.5-7.1-17.5-15.2c-0.1-7.7,8.2-15.6,16.2-15.5c8.2,0.1,15,6.7,15.1,14.8
	C464.5,373.4,457.5,383.5,450.5,382.2z"/>
<path class="st156" d="M466.8,348.9c-0.3,0.9-1,0.7-1.4,0.6c-0.4-0.1-0.9-0.4-0.9-0.7c-0.2-0.7,0.4-1.2,1.1-1.1
	C466,348,466.3,348.5,466.8,348.9z"/>
<path class="st120" d="M341.8,116.2c-8.8,0-14.4-4.8-14.2-12c0.3-6.6,7.2-13,14.1-13.1c6.5,0,13.4,6.5,12.6,13.1
	C353.4,111.2,351,117.1,341.8,116.2z"/>
<path class="st131" d="M389.3,125.5c-1.2,0-2-0.6-2-1.3c-0.1-1,0.8-1.4,1.8-1.5c0.9,0,1.7,0.3,1.5,1.3
	C390.5,124.6,389.7,125,389.3,125.5z"/>
<path class="st157" d="M373.2,125.5c-0.8,0-1.2-0.4-1.3-1c-0.4-1.1,0.7-0.7,1.1-0.7c0.6-0.1,1.3,0.2,1.1,1
	C373.9,125,373.8,125.6,373.2,125.5z"/>
<path class="st158" d="M400.2,95.6c-0.1,1.3-0.8,1.9-2.1,2.1c-1.4,0.1-1.8-0.6-2.1-1.8c-0.3-1.2,0.3-1.7,1.3-1.9
	C398.8,93.7,399.6,94.5,400.2,95.6z"/>
<path class="st159" d="M400.8,93.7c2-1.5,2-1.5,4.8-1.3C404.3,94.1,402.7,94.5,400.8,93.7C400.8,93.6,400.8,93.7,400.8,93.7z"/>
<path class="st160" d="M406.5,96c-0.3,1.1-1.2,0.7-1.8,0.7c-0.4,0-1.3,0.2-1.3-0.6c0.1-1.1,1-1.3,2-1.2
	C406.2,94.9,406.5,95.3,406.5,96z"/>
<path class="st161" d="M422.6,107c1.3-0.3,1.6,0.4,1.6,1.3c0,0.5,0.1,1.3-0.7,1.4c-1.2,0.1-1.6-0.8-1.8-1.7
	C421.5,107.2,422.3,107,422.6,107z"/>
<path class="st127" d="M373.6,146.7c1.7-3.9,1.3-5.6-2.8-4.6c-1.5,0.4-3.5,0.1-3.9-1.7s1.8-1.3,2.8-2.1c0.3-0.2,0.5-0.4,0.8-0.4
	c3.5-1.2,7.2-0.4,8.4,2.7C379.9,143.1,377.5,145.8,373.6,146.7z"/>
<path class="st94" d="M541.5,103.1c-0.4,0.4-0.7,0.8-1.1,0.9c-1,0.3-0.9-0.6-0.8-1.2c0-0.4-0.4-1.4,0.7-1.1
	C540.7,101.9,540.9,102.5,541.5,103.1z"/>
<path class="st162" d="M450.9,105.1c1.2-0.2,1.3,0.5,1.3,1.1c-0.2,0.5-0.7,1.1-1.2,1.2c-0.4,0.1-0.9-0.6-1.3-0.9
	C450.1,105.9,450.5,105.5,450.9,105.1z"/>
<path class="st163" d="M391.7,108.9c1.7-0.4,2.6,0.4,2.6,2.1c0,0.3-1,0.7-1.4,0.6c-2-0.3-1-1.7-1-2.8
	C391.8,108.8,391.7,108.9,391.7,108.9z"/>
<path class="st87" d="M368.6,99.6c-1.9-0.4-3.5-0.4-3.3-2.5c0.2-2.3,2.4-1.7,3.8-2.2c1.3-0.4,2.9,0,3,1.9
	C372.3,99.9,368.8,97.4,368.6,99.6z"/>
<path class="st87" d="M368,91c1.1,0.4,3-0.7,3,1.1c-0.1,2-2.2,1.8-3.7,1.7c-1.1-0.1-2.8,0.6-2.6-1.5C365.1,90.1,367,91.6,368,91z"/>
<path class="st104" d="M483,139.4c-1.6,0.1-5.3-4.1-4.8-5.6c0.5-1.4,1.5-2.6,3-0.9c1.1,1.3,1.7,3.5,3,0.2c0.1-0.3,1.3-1.3,2.3-0.6
	c1,0.8,1.3,1.7,0.5,2.8C486,137,484.5,138.4,483,139.4z"/>
<path class="st157" d="M366.1,106.3c1.2,0.4,1.7,1.3,2.2,2.2c-2,0.1-2.2,2.2-3.4,2.9c-0.9,0.5-2-1.2-1.9-2.4
	C363,107,365,107.2,366.1,106.3z"/>
<path class="st163" d="M390.9,91c0.4,1.3,1,3-0.6,3.5c-2.2,0.7-0.9-1.6-1.5-2.3c-2.7-3-5.6-1.8-8.4-0.2
	C382.7,87.3,385.9,87,390.9,91z"/>
<path class="st158" d="M406.5,122.1c0-0.9,0-2.1,1.3-2c0.5,0,1.3,0.9,1.4,1.5c0.3,1.1-0.7,1.7-1.5,1.9
	C406.6,123.8,406.5,122.9,406.5,122.1z"/>
<path class="st91" d="M386,95.7c-1.8,0.2-3.6,0.1-3.4-2.2c0.1-1,1.3-1.8,2.5-1.3c2.2,0.8,2.1,2.2,0.8,3.8L386,95.7z"/>
<path class="st121" d="M404.9,106.9c0.6,0.9,2.6,0.6,2.2,2.2c-0.2,0.7-0.9,1.4-2.1,1.5c-1.7,0.1-1.5-1.4-1.9-2.2
	C402.9,107.6,403.9,107,404.9,106.9z"/>
<path class="st164" d="M412,107.1c0,1.2,0,2.2,0,3.4c-1.3,0.2-2.7,0.5-2.7-1.7C409.3,106.4,410.6,106.9,412,107.1z"/>
<path class="st116" d="M391.5,142.6c1.1-0.4,1.7-0.9,2.4-0.9c0.7,0,1.4,0.5,1.4,1.4c-0.1,1.1-1.1,1.2-1.7,0.9
	C392.9,143.9,392.4,143.2,391.5,142.6z"/>
<path class="st160" d="M516.4,104.7c-0.2,1.4-1.1,1.4-1.7,1.2c-0.7-0.3-1.3-0.8-1.8-1.3c0.6-0.4,1.1-1.2,1.8-1.3
	C515.7,103.2,515.7,104.4,516.4,104.7z"/>
<path class="st120" d="M353.8,353.4c-6.2,1.1-11.5-5-11.4-9.9c0.1-6.6,6-12.1,13.4-12c5.1,0,9.6,5.4,9.7,11.5
	C365.6,349.1,360.3,354.1,353.8,353.4z"/>
<path class="st165" d="M418.9,328.8c7-1.1,8.9,0.3,6.7,5.6C425.2,330,422,329.3,418.9,328.8z"/>
<path class="st166" d="M423.1,332.5c-0.3,1.3-0.7,2.1-1.7,2.1s-1.8-0.7-1.9-1.7c-0.2-1.1,0.9-1.6,1.7-1.8
	C422.5,330.8,422.5,332.1,423.1,332.5z"/>
<path class="st167" d="M375.4,352.6c-1.7,2.2-3.7,2.5-3.8-1.1c0-2.1,2.3-2.9,4.5-2.9c2,0,1.6,1.4,1.6,2.7
	C377.8,352.6,377.6,353.9,375.4,352.6z"/>
<path class="st168" d="M409.4,351c-0.1,1.3-0.9,2-1.8,2.2c-1.1,0.2-1.7-0.7-1.8-1.6c-0.1-1,0.7-1.9,1.6-1.8
	C408.1,349.8,408.8,350.7,409.4,351z"/>
<path class="st169" d="M401.8,350.9c0.4,0.4,0.9,0.8,1,1.3c0.1,1-0.7,1.1-1.5,1.1c-0.7,0-1.2-0.4-1.1-1.1
	C400.1,351.5,400.9,351.1,401.8,350.9z"/>
<path class="st168" d="M495,348.4c-1,0.3-2.1,0.7-2.7-0.4c-0.1-0.2,0.2-1,0.4-1c1.3-0.3,1.9,0.5,2.2,1.6
	C494.8,348.5,495,348.4,495,348.4z"/>
<path class="st170" d="M403.1,333.4c-1.2,0.4-2.2,1.1-3-0.2c-0.4-0.6,0.2-1.3,0.8-1.4C402.6,331.2,401.9,333.4,403.1,333.4z"/>
<path class="st171" d="M396.2,331c-1.9,0.8-3,1.4-4.2,1.7c-1.3,0.3-1.3-0.9-1.3-1.8c0.1-1.6,1.3-2.2,2.6-1.7
	C394.1,329.5,394.9,330.2,396.2,331z"/>
<path class="st172" d="M504.7,343c0.8,1.1,2.3,1,2.2,2.4c-0.1,1.2-1.1,1.3-2.1,1.3c-1.2,0.1-1.9-0.4-1.5-1.5
	C503.5,344.5,504.2,343.9,504.7,343z"/>
<path class="st109" d="M497.9,328.2c1.2,2,0.9,3.6-1.3,4.5c-2-0.6-4-1.7-3-4C494.1,326.8,496.2,326.5,497.9,328.2z"/>
<path class="st173" d="M491.3,332c-0.8-0.5-2.5,0.6-2.6-0.7c-0.2-1.5,1.3-2.4,2.6-3.1C491.2,329.4,491.3,330.7,491.3,332z"/>
<path class="st174" d="M523.5,359c-0.5-0.6-1-1.2-1.5-1.7c0.4-0.1,0.8-0.3,1.3-0.4c0.9-0.1,1.4,0.3,1.3,1.2
	C524.5,358.6,524,358.7,523.5,359z"/>
<path class="st175" d="M499.6,369.3c0.7,0.1,0.9,0.6,1,1.3c0,0.6-0.3,1.2-1.1,0.8c-0.4-0.3-1.2-0.6-1.2-1
	C498.3,369.8,498.9,369.2,499.6,369.3z"/>
<path class="st176" d="M524.7,63.6c0.4,0.5,2,0.1,1.7,1.4c-0.1,0.3-0.6,0.8-0.9,0.7c-0.9-0.2-1.7-0.6-1.6-1.6
	C523.8,63.9,523.9,63.2,524.7,63.6z"/>
<path class="st126" d="M513.9,59.6c0.4,0.4,1.3,0.8,1.3,1.3S514.5,62,514,62s-1.2-0.5-1.3-1C512.8,60.6,513.4,60.1,513.9,59.6z"/>
<path class="st87" d="M372,58.5c3,0.1,4.8,1.5,6.7,2.5c0.6,0.4,1.3,1.1,0.5,1.9c-1.3,1.4-2.2,3.4-4.2,3.9c-1.1,0.3-0.9-0.9-1-1.6
	c-0.2-1.1-0.5-1.9-2.1-1.4c-2,0.5-4.4,0.5-4.3-2.2C367.8,58.8,370.9,59.6,372,58.5z"/>
<path class="st127" d="M471.4,57.7c1.1,3.9,2.7,2.2,4.5,1c0.4-0.3,1.2,0.1,1.3,0.9c0.1,2.2-1.3,3.7-2.7,5c-1.7,1.6-2.2-0.6-3.2-1.1
	c-2.1-1-1.4-2.8-1.3-4.3C470,58.6,470.7,58.3,471.4,57.7z"/>
<path class="st177" d="M458.6,64.9c0,1.4-1.2,1.1-2,1.2c-0.7,0-1.8,0.2-1.6-1c0.1-1.3,1.3-1.7,2.3-1.8
	C458.2,63.2,458.6,64,458.6,64.9z"/>
<path class="st0" d="M462.7,366.8c0,7.2-6.3,14.6-12,14.3c-8.2-0.4-16.1-7.7-16.1-14.8c0-6.6,7.4-12.8,15.2-13
	C457,353.1,462.7,359.7,462.7,366.8z"/>
<path class="st14" d="M563.8,575.3c-0.2,3.5-0.8,20.1-1.1,27.4c-0.2,4.5-0.5,8.7-0.6,11.5c0,0.5-2.7,61.1-2.7,61.5
	c-0.2,0,0,0.6-0.2,0.5c0-0.4,2.5-61.6,2.5-62.2c0.2-3.6,0.3-9.3,0.7-15c0.5-6.7,0.4-20.9,1-24C563.6,575.2,563.7,574.9,563.8,575.3z
	"/>
</svg>
