<?xml version="1.0" encoding="utf-8"?>
<!-- Generator: Adobe Illustrator 23.0.0, SVG Export Plug-In . SVG Version: 6.00 Build 0)  -->
<svg version="1.1" id="Capa_1" xmlns="http://www.w3.org/2000/svg" xmlns:xlink="http://www.w3.org/1999/xlink" x="0px" y="0px"
	 viewBox="0 0 477.2 477.2" style="enable-background:new 0 0 477.2 477.2;" xml:space="preserve">
<style type="text/css">
	.st0{fill:none;}
	.st1{fill:#FF0000;}
	.st2{fill:#00A026;}
	.st3{fill:none;stroke:#FF0000;stroke-miterlimit:10;}
</style>
<g>
	<path d="M360.7,229.1L135.6,4c-5.3-5.3-13.8-5.3-19.1,0s-5.3,13.8,0,19.1L332,238.6L116.5,454.1c-5.3,5.3-5.3,13.8,0,19.1
		c2.6,2.6,6.1,4,9.5,4c3.4,0,6.9-1.3,9.5-4l225.1-225.1C365.9,242.9,365.9,234.3,360.7,229.1z"/>
</g>
<g>
	<path d="M-339.7,231.7l-162-162c-3.8-3.8-9.9-3.8-13.7,0c-3.8,3.8-3.8,9.9,0,13.7l155.1,155.1l-155.1,155.1
		c-3.8,3.8-3.8,9.9,0,13.7c1.9,1.9,4.4,2.9,6.8,2.9s5-0.9,6.8-2.9l162-162C-335.9,241.7-335.9,235.5-339.7,231.7z"/>
</g>
<g>
	<path d="M-1036,231.7l-162-162c-3.8-3.8-9.9-3.8-13.7,0s-3.8,9.9,0,13.7l155.1,155.1l-155.1,155.1c-3.8,3.8-3.8,9.9,0,13.7
		c1.9,1.9,4.4,2.9,6.8,2.9c2.4,0,5-0.9,6.8-2.9l162-162C-1032.3,241.7-1032.3,235.5-1036,231.7z"/>
</g>
<circle class="st0" cx="-2298.9" cy="-82.9" r="75"/>
<circle class="st0" cx="-2107.2" cy="-90" r="75"/>
<path class="st1" d="M-2304.4-82.9c-2.4-2.3-4.7-4.6-7-6.9c-7.8-7.8-15.5-15.5-23.3-23.3c-1.2-1.2-1.8-2.6-1.3-4.2
	c0.5-1.6,1.6-2.5,3.2-2.8c1.7-0.3,2.8,0.6,3.9,1.7c9.5,9.5,19.1,19,28.5,28.6c1.2,1.2,1.7,1.1,2.8,0c9.5-9.6,19.1-19.2,28.7-28.7
	c2.5-2.5,5.8-2,6.9,1c0.7,1.9-0.1,3.3-1.4,4.5c-9.6,9.6-19.1,19.2-28.7,28.7c-1.1,1.1-1.2,1.6,0,2.8c9.6,9.5,19.2,19.1,28.8,28.7
	c1.2,1.2,2,2.6,1.5,4.4c-0.9,3-4.4,3.8-6.7,1.5c-4.9-4.9-9.8-9.8-14.7-14.7c-4.8-4.8-9.7-9.6-14.4-14.5c-1.1-1.1-1.6-1-2.6,0
	c-9.6,9.7-19.2,19.3-28.8,28.9c-2.4,2.4-5.7,1.9-6.9-0.9c-0.8-1.9,0-3.4,1.4-4.7c8.2-8.2,16.4-16.4,24.6-24.5
	C-2308.1-79.2-2306.3-81-2304.4-82.9z"/>
<path class="st2" d="M-2057.4-114.2c0,1.1-0.8,2.2-1.7,3.1c-9.4,9.4-18.9,18.9-28.3,28.3c-11,11-22.1,22.1-33.1,33.1
	c-2.8,2.8-4.5,2.8-7.3,0c-9.2-9.2-18.4-18.4-27.6-27.6c-2.6-2.6-1.8-6.2,1.6-7c1.8-0.5,3,0.4,4.1,1.6c7.7,7.7,15.3,15.3,23,23
	c2.5,2.5,2.5,2.5,5,0c19-19,37.9-37.9,56.9-56.9c1.1-1.1,2.2-1.9,3.9-1.7C-2059-118-2057.5-116.4-2057.4-114.2z"/>
<circle class="st1" cx="-4409.7" cy="-122.8" r="175"/>
<rect x="-3511" y="-762.7" class="st3" width="350" height="351.5"/>
<g>
	<defs>
		<rect id="SVGID_1_" x="-3933.6" y="-746.4" width="300" height="300"/>
	</defs>
	<clipPath id="SVGID_2_">
		<use xlink:href="#SVGID_1_"  style="overflow:visible;"/>
	</clipPath>
	<g style="clip-path:url(#SVGID_2_);">
		
			<image style="overflow:visible;" width="300" height="300" xlink:href="../Personajes/detective/detective-normal.png"  transform="matrix(1 0 0 1 -3933.6421 -735.583)">
		</image>
	</g>
</g>
<rect x="-3871.5" y="-1249.3" class="st0" width="300" height="300"/>
</svg>
