<?xml version="1.0" encoding="utf-8"?>
<!-- Generator: Adobe Illustrator 23.1.1, SVG Export Plug-In . SVG Version: 6.00 Build 0)  -->
<svg version="1.1" id="Capa_1" xmlns="http://www.w3.org/2000/svg" xmlns:xlink="http://www.w3.org/1999/xlink" x="0px" y="0px"
	 viewBox="0 0 1142 433" style="enable-background:new 0 0 1142 433;" xml:space="preserve">
<style type="text/css">
	.st0{fill:#FFB000;}
	.st1{fill:#FFFFFF;}
</style>
<title>Recurso 3</title>
<g id="Capa_1-2">
	
		<image style="overflow:visible;opacity:0.5;enable-background:new    ;" width="1143" height="434" xlink:href="A358A900FBA50108.png"  transform="matrix(0.9977 0 0 0.9977 0.8168 -6.728313e-06)">
	</image>
	<path class="st0" d="M216.4,85.1h708.8c72.5,0,131.2,58.8,131.2,131.2v0c0,72.5-58.8,131.2-131.2,131.2H216.4
		c-72.5,0-131.2-58.8-131.2-131.2v0C85.2,143.9,144,85.1,216.4,85.1z"/>
	<path class="st1" d="M472.6,236.5c3.2,0,5.7,2.6,5.7,5.7s-2.6,5.7-5.7,5.7h-26.1c-3.9,0.2-7.1-2.8-7.3-6.7c0-0.2,0-0.4,0-0.6v-41.4
		c-0.2-3.9,2.8-7.1,6.7-7.3c0.2,0,0.4,0,0.6,0h25.3c3.2,0,5.7,2.6,5.7,5.7s-2.6,5.7-5.7,5.7h-19.4v11h12.1c3,0,5.5,2.5,5.5,5.5
		s-2.5,5.5-5.5,5.5h-12.1v11.2L472.6,236.5z"/>
	<path class="st1" d="M530.3,225.8V242c0,3.5-2.9,6.4-6.4,6.3c-3.5,0-6.3-2.8-6.3-6.3v-16.2c0-6.2-2.9-9-7.1-9c-6.6,0-8,6.6-8,7.5
		V242c0,3.5-2.9,6.4-6.4,6.4c-3.5,0-6.4-2.9-6.4-6.4v-29.4c0-3.5,2.9-6.4,6.4-6.4s6.4,2.9,6.4,6.4c0,0,0,0,0,0v2.5
		c0.2-3,4.8-9.1,13-9.1C523.8,205.9,530.3,211.7,530.3,225.8z"/>
	<path class="st1" d="M568.8,241.8c0,4.2-3.5,6.6-10,6.6c-6.2,0-12.5-1.9-12.5-15.1v-17h-1.6c-2.7,0-4.9-2.2-4.9-4.9
		c0-2.7,2.2-4.9,4.9-4.9c0,0,0,0,0,0h1.6v-4.6c0-3.5,2.9-6.4,6.4-6.4c3.5,0,6.4,2.9,6.4,6.4v4.6h4.6c2.7,0,4.9,2.2,4.9,4.9
		c0,2.7-2.2,4.9-4.9,4.9c0,0,0,0,0,0h-4.6v17.7c0,2.2,0.6,3.5,2.2,3.5c0.8,0,2.2-0.3,3-0.2C567.1,237.1,568.8,238.8,568.8,241.8z"/>
	<path class="st1" d="M609.7,211.7c0,3.6-2.6,6-8.1,6c-5.6,0-9,4.2-9.1,6.6V242c0,3.5-2.9,6.4-6.4,6.4c-3.5,0-6.4-2.9-6.4-6.4v-29.4
		c0-3.5,2.9-6.4,6.4-6.4s6.4,2.9,6.4,6.4c0,0,0,0,0,0v2.5c0.2-3,5-9.1,11.4-9.1c3-0.2,5.6,2.1,5.8,5.1
		C609.7,211.3,609.7,211.5,609.7,211.7z"/>
	<path class="st1" d="M659.1,212.4v29.7c-0.1,3.5-3,6.3-6.6,6.3c-3,0-5.6-2.1-6.2-5c-1.2,2.1-4.7,5-10.6,5
		c-8.8,0-19.2-6.7-19.2-21.4c0-14.2,10.6-21.3,19.2-21.3c5.4,0,9.4,3,10.4,5.8v0.7c0.1-3.5,2.9-6.3,6.4-6.3
		C656.1,206.1,659,208.9,659.1,212.4z M646.7,227.1c0-7.8-5-10.4-8.6-10.4c-4.6,0-8.8,3.6-8.8,10.4s4.2,10.5,8.8,10.5
		C641.7,237.6,646.7,235.1,646.7,227.1z"/>
	<path class="st1" d="M702.4,211.7c0,3.6-2.6,6-8.1,6c-5.6,0-9,4.2-9.1,6.6V242c0,3.5-2.9,6.4-6.4,6.4c-3.5,0-6.4-2.9-6.4-6.4v-29.4
		c0-3.5,2.9-6.4,6.4-6.4s6.4,2.9,6.4,6.4c0,0,0,0,0,0v2.5c0.2-3,5-9.1,11.4-9.1c3-0.2,5.6,2.1,5.8,5.1
		C702.4,211.3,702.4,211.5,702.4,211.7z"/>
</g>
</svg>
