<svg xmlns="http://www.w3.org/2000/svg" viewBox="0 0 377.08 396.22"><defs><style>.cls-1{fill:#f48634;}.cls-2{fill:#e83438;}.cls-3{fill:#60ba52;}.cls-4{fill:#fad725;}.cls-5{fill:#863a94;}.cls-6{fill:#057;}.cls-7{fill:#7a4396;}.cls-8{fill:#e3db3d;}.cls-9{fill:#08adec;}.cls-10{fill:#28b5c3;}</style></defs><title>Recurso 1</title><g id="Capa_2" data-name="Capa 2"><g id="Capa_1-2" data-name="Capa 1"><path class="cls-1" d="M67.86,146.89c-2.56-1.38-2.22-4.28-3.12-6.44-3.12-7.46-5.8-15.1-8.64-22.67,2-.85,4-1.59,5.92-2.58,17.45-9,34.68-18.45,52.38-26.91,9.68-4.64,19.11-9.75,28.83-14.32,11-5.16,21.52-11.2,32.25-16.87,2.76-1.46,4.57-.92,5.62,2.2,1.21,3.62,2.64,7.17,4,10.75,1.05,2.82,2.68,3.57,5.32,1.72a62,62,0,0,1,6.72-4.16C206.36,62.75,215.67,58,225,53.18c7.38-3.82,14.69-7.78,22.15-11.45A348.29,348.29,0,0,0,277.9,25c.4.87.73,1.8,1.85,2l9.06,24.14-1.1,2.7c-14.29,5.26-27,13.62-40.62,20.31-15.75,7.76-31.17,16.19-46.74,24.34-2.65,1.38-4.29.69-5.21-2.22-1-3.32-2.3-6.58-3.56-9.83-1.09-2.82-2.22-4.45-5.85-2.31a219,219,0,0,1-23.35,12.26c-21.85,9.46-41.93,22.43-63.89,31.75-9.62,4.08-18.37,10.43-27.95,15C69,143.81,67.68,144.87,67.86,146.89Z"/><path class="cls-2" d="M277.9,25a348.29,348.29,0,0,1-30.8,16.75c-7.46,3.67-14.77,7.63-22.15,11.45-9.28,4.81-18.59,9.57-27.84,14.43a62,62,0,0,0-6.72,4.16c-2.64,1.85-4.27,1.1-5.32-1.72-1.33-3.58-2.76-7.13-4-10.75-1-3.12-2.86-3.66-5.62-2.2C164.75,62.77,154.2,68.81,143.23,74c-9.72,4.57-19.15,9.68-28.83,14.32C96.7,96.75,79.47,106.2,62,115.2c-1.91,1-3.94,1.73-5.92,2.58q-4-9.52-8-19a6.36,6.36,0,0,0-2.14-5c-.22-2.14.88-3.19,2.74-4.13q44.13-22.35,88.17-44.85c9.6-4.89,19.19-9.8,28.72-14.83,2.51-1.33,3.66-1.14,4.57,1.82,1.21,4,3.14,7.67,4.54,11.56.83,2.34,2,2.79,4.09,1.61,3.67-2.09,7.36-4.13,11-6.2a42.61,42.61,0,0,0,12-5.9c19.53-9.62,39-19.36,58-29.93a19.82,19.82,0,0,0,3.57-1.47c3.51-2.32,5.46-2,7,2.46s2.74,9.05,5.34,13.06l0,0C275.65,19.82,278.27,22,277.9,25Z"/><path class="cls-3" d="M84.05,190.53c-1.25-5.58-3.88-10.61-6.22-15.76l-.12-3a56.12,56.12,0,0,0,14.16-7.05h0c3.39-.5,6.14-2.51,9-4.12,9.59-5.45,20.08-9.23,29-15.81h0a11.31,11.31,0,0,0,2.35-.64c13.64-6.86,27.44-13.44,40.82-20.78,6.29-3.45,13.47-5.41,18.81-10.56h0a7.23,7.23,0,0,0,4.68-1.3c2.89-2.21,4.53-1.56,5.49,2.1s2.64,7.11,3.87,10.7c.66,1.92,1.83,3,3.67,2,3.11-1.79,6.95-2.38,9.25-5.52a13.46,13.46,0,0,0,2.8-.78c7.28-3.77,14.51-7.63,21.78-11.4q19.17-9.94,38.37-19.82A12.85,12.85,0,0,0,289,84.9h.43l.41-.13c3.33-1.17,7.07-1.77,8.18-6,0-.76,0-1.53,0-2.3,3.81,3.34,2.79,8.67,5.09,12.54,3,5,4.53,10.54,6.52,15.92-2.89,3.11-8.06,3.33-9.91,7.77-6.3,2-12,5.17-17.85,8.17a5.22,5.22,0,0,0-1.95.08c-6.05,3-12.57,5.34-17.89,9.31-3.33,2.48-8.79,1.38-10.33,6.4l-1.76.3c-6.2,2.95-12.73,5.29-18.09,9.78h0a21.58,21.58,0,0,0-11.95,6l0,0-1.93-.08h0c-.6-4.65-2.83-8.74-4.49-13-.42-1.08-1.65-.8-2.61-.81-3.38-2.69-5.78,2.37-9,1.15-3.06-1.44-3.75,2-5.77,2.9-9.13,3.86-18.24,7.86-27,12.51-2.43,1.29-5.52,2.56-7.05,5.4-2.5.28-3.46,3.1-5.62,3.64-7.11,1.76-13.38,5.68-19.5,9.11-7.68,4.3-16,7.54-23.13,12.95-5,.22-9.23,2.39-13.61,4.77-4.07,2.21-7.62,5.94-12.79,5.83Z"/><path class="cls-4" d="M281.79,88.79q-19.19,9.9-38.37,19.82c-7.27,3.77-14.5,7.63-21.78,11.4a13.46,13.46,0,0,1-2.8.78c-2.42.06-5,.44-6.15-3.66-1,3.39-1,7.11-3.74,6.68-1.66-.27-3.14-3.76-3.09-6.51a2.67,2.67,0,0,1,0-.49c.74-4.26-4.19-5.72-4.69-9.39a2.28,2.28,0,0,0-1.73-.19c-2.34,2.14-5.89,2.62-7.56,5.62h0a77.08,77.08,0,0,0-17.17,7.46c-10.7,6.24-22.24,11-33.31,16.68-4.12,2.1-9.85,2.05-11.5,7.84h0c-1.95.07-4.22-.79-5.72.83a9,9,0,0,1-7.91,3.21c-.58-.06-1.58.23-1.77.64-2.09,4.7-7.63,4.07-10.84,7.2-3.4,3.31-9.53,2.86-11.78,8h0c-3.48-2-6.77-.68-8.9,1.74-3.25,3.69-4.76,2.25-6.36-1.1A23.52,23.52,0,0,0,75,163.57c-3.07-2.82-2.54-7.43-5.2-10.44-.17-2.22-2.43-3.8-1.93-6.24-.18-2,1.16-3.08,2.68-3.8,9.58-4.54,18.33-10.89,27.95-15,22-9.32,42-22.29,63.89-31.75a219,219,0,0,0,23.35-12.26c3.63-2.14,4.76-.51,5.85,2.31,1.26,3.25,2.51,6.51,3.56,9.83.92,2.91,2.56,3.6,5.21,2.22,15.57-8.15,31-16.58,46.74-24.34,13.59-6.69,26.33-15,40.62-20.31,1.88,4.55,3.92,9,5.58,13.68,1,2.79.5,6.34,4.42,7.32l.3,1.7c0,.76,0,1.53,0,2.29-2.94,1.69-6.93,2-8.18,6l-.41.13H289C286.17,85.45,281.5,82.56,281.79,88.79Zm4.07-11.51c1.52,2,2.33,3.93,4.43,3.58.51-.09,1.34-2.33,1-3C290.13,75.89,288.22,77,285.86,77.28ZM90.28,158.05c.27.12.61.4.81.32a.82.82,0,0,0,.33-.77.83.83,0,0,0-.76-.33C90.46,157.35,90.4,157.78,90.28,158.05Z"/><path class="cls-5" d="M251.83,200.67c-6.9,2.31-12,8-19,10.1-6.57-.58-11.91,2.34-17,6-.65-1.28-1.38-2.53-1.94-3.85-.32-.74-.48-1.9-1.46-1.41a3.92,3.92,0,0,0-2.42,2.91c-.13,1.07.17,2.05,1.4,2.18,1.46.16,3,.12,4.43.17-3.25,4.4-6.52,1.44-9.78,0l-.27-.94c.12-4.64.19-8.79-3.62-12.86-2.69-2.88-2.63-2.12-3.76.41-.53,1.16-1.67,2.06-1.46,3.53l0,0c-1.55-.14-3.06-.23-3.07,2l0,0c-1.65,0-3.3-.16-4.94-.06-4,.25-9.87,4.73-10.93,8.23l0-.05A47.91,47.91,0,0,0,160,223.8c-2,1.3-4.26,2.92-6.22,2.64-5.61-.78-6.08,2.79-6.68,6.61V233c-3.65-.71-6.63,0-8.15,3.83l0,0c-1.94.11-3.91-.46-5.79.65-4.35,2.58-8.78,5.05-13.83,6-3.28.62-3.75,2.74-3.3,5.5l0-.07-8.38,0,.06,0c0-1.63,1-3.66-1.74-4.16-2.56-4.13-3-9.22-6-13.12l-.9-2.91c1.11-2.51,3.61.81,3.89-.42,1-4.49,6.71-4,7.95-8,7.49-4.13,14.78-8.66,22.9-11.56,1.61-.15,3.83.82,4-2.1h0c2.72,2.72,5.73,4.76,9.88,4.15,1.08-.16,2.49.29,2.92-1.17s-.66-2.61-1.79-3.17c-1.7-.83-3.3-1.5-3-3.82,6-4.85,13.25-7.29,19.93-10.81,8.59-4.52,17.34-8.72,26-13.06,3.59.52,6.34-3.25,10.08-2,2.68,4,6.18,1.35,9.38,1.21-2.85-2.67-6.3-.45-9.38-1.2l.06-3.86.1-.08c1.92-.74,5,1.59,5.79-2.12h0c1.61-.11,3.75.81,4-2h0c4-1,8-3.81,11.9.14l.07.15a17.7,17.7,0,0,0,2.39,10.73c1.43,2.56,4.37,4.47,6.38,2.54,1.76-1.69,4.11-3.11,5.34-5.43l0,0c1.58-.18,3.66.62,3.93-2.06h0c1.14,0,2.83.51,3.34-.06,2.45-2.69,9,.63,8.66-6h0c5.81-.66,12.18,1.63,17.17-3.38a1.89,1.89,0,0,1,2.71.23c1.23,1.18,2.63,1.82,3.75.16.9-1.33-.16-2.41-1.08-3.47-.71-.81-2-1.33-1.87-2.7.74-1.07,1.81-.81,2.74-.72,7.38.68,7.29.65,10.29-5.44a4.63,4.63,0,0,1,3.25-1.89c1.38-.16,2.9-.12,3.42-1.41s1.26-1.49,2.25-1.17c1.71.57.54,1.4.12,2.22-.6,1.18.53,1.8,1.1,1.38,3.87-2.84,9.09-2.73,12.75-5.58s4.82-.64,5.26,2.13c.37,2.31,1.56,2.91,3.19,4.2,3.42,2.73,7.5.59,10.82,2.44,2.43,3.15,1.54,5.25-2,6.63-5.14,2-9.47,5.78-15.08,6.84a3,3,0,0,0-2.6,2.58c-.38,1-1.33.94-2.14,1.12L298,177.16c-.41-1.48.58-3.71-1.7-4.18-2.57-.52-2.33,1.65-2.55,3.24-.2,1.38-1.39,1.81-2.39,2.33-6.52,3.4-13,6.81-19.62,10.1-2.14,1.07-4.18,4.46-6.91.48a1.63,1.63,0,0,0-2.71,1c-.23,3-2.24,3.55-4.36,5S252.22,197.27,251.83,200.67Zm1.91-9.39c0-1.75-.68-2.5-2.11-2.38-1.85.16-1.75,1.57-1.79,2.87-.06,1.61.29,3.36,2.2,2.78C252.93,194.28,253.28,192.22,253.74,191.28ZM117.17,225.77c-2.28-1.14-4.55-1.74-7.19.25A8,8,0,0,0,117.17,225.77Zm24.27-10c3.36,1.2,5.58,1.46,8.66-.28C146.93,214.58,144.71,214.4,141.44,215.81Zm118.19-29.16c.09-1.27-.61-1.77-1.8-1.79-.92,0-1.69.32-1.81,1.29a1.88,1.88,0,0,0,1.54,2.22C258.74,188.58,259.34,187.74,259.63,186.65Zm50.75-35.31c-.11,1.24.64,1.37,1.23,1.32s1.4-.33,1.53-.72c.3-.88-.59-1-1.19-1A5.84,5.84,0,0,0,310.38,151.34ZM204.59,202.8l-.21-.39c-.1.11-.25.22-.26.33s.12.26.19.39Z"/><path class="cls-6" d="M265.81,306.4c-4.28,1.49-8.72,1.28-13.14,1.26-6.87,0-6.87,0-6.31-6.93.66-.15,1.35-.39,1.12-1.22-.1-.34-.71-.53-1.09-.79-.09-8.14-.15-16.27-.27-24.4-.05-2.73,1.11-3.94,3.88-3.8s5.31,0,8,.05c12,.23,16.86,4.17,19.28,15.73,5.31-15.59,12.08-17.76,23.61-16,8.91,1.39,13,8.18,12.55,19.09-.42,11.1-5.5,17.41-14.91,18.54-12.24,1.47-16.44-1.93-20.95-17.42-1.52,3.95-1.33,8.15-4.4,10.91-1.62-1.76-2.91-3.88-5.32-4.74q.75-3,1.52-6c.66-.15,1.35-.4,1.12-1.22-.1-.34-.71-.53-1.09-.79-.41-3.11-.87-6.2-2.59-8.93-.19-2.9-.21-2.93-2.07-1.83a27.22,27.22,0,0,0-6.22-1.46c-3.42-.3-5.17.35-4.82,4.4.39,4.6.09,9.27.09,13.9,0,7.5,1.32,8.45,8.56,6.08,1.09-.36,2.14-.84,3.2-1.27,2.19.33,2.81,1.45,1.49,3.27A5.23,5.23,0,0,0,265.81,306.4Zm20.37-16.87c.09,1,.15,2.35.33,3.67.79,5.77,3.38,8.43,8.4,8.69,5.7.29,8.55-2.15,10-8.15a23.26,23.26,0,0,0-.29-11.31c-.89-3.62-3.33-5.62-6.9-6.32C290.8,274.75,286,280.19,286.18,289.53Z"/><path class="cls-6" d="M335.52,290.3c4.19,3.6,5.29,8.63,7.94,14,2.2-6.15,4.18-11.58,6.1-17,1.59-4.54,3.32-9,4.6-13.67.83-3,2.87-3.36,5.25-3.21s5.23-.72,6.44,3c3.28,10.1,7,20.06,10.42,30.1.48,1.4,1.88,3.57-.7,4-2.19.38-5.07,1.53-6.61-1.59-1.08-2.18-.68-5.8-3.14-6.41-3.45-.86-7.26-.28-10.91-.37-2.54-.06-2.9,1.76-3.23,3.61-.7,3.89-2.73,5.31-6.9,5.09-8.49-.44-8.5-.16-11.64-7.92-.62-1.53-1.23-3.07-2-4.54a4.79,4.79,0,0,0-5.82-2.72c-2.47.7-1.18,3.09-1.32,4.74a48.47,48.47,0,0,0,0,6.49c.13,2.54-.37,4-3.49,4s-4-1.06-4-4.07c.15-9.82.11-19.64,0-29.45,0-2.74.93-3.94,3.78-3.8,3.48.18,7,0,10.48.11,5.78.17,9.86,2.81,10.94,6.95C343.14,283,341.43,286.65,335.52,290.3Zm-11.59-9.13c0,3-.93,6.23,3.9,5.65,3.47-.41,6.34-1.26,6.38-5.33,0-4.53-3.24-5-6.81-5.32C322.69,275.77,324.16,279.12,323.93,281.17ZM360.2,279h-1c-.83,2.51-1.67,5-2.49,7.53-2.47,7.51-2.47,7.43,5.36,6.9,2.21-.15,2.95-.47,2-2.85C362.57,286.83,361.46,282.9,360.2,279Z"/><path class="cls-6" d="M99.82,332.67c0,4.33.08,8.66,0,13-.06,2,.47,3.22,2.75,2.92a2.78,2.78,0,0,1,.5,0c9.61.5,9.6.5,12.72-8.59,2.31-6.75,4.95-13.41,6.87-20.27,1.12-4,3.68-4,6.77-4s4.83.6,5.89,3.89c3.36,10.43,7.18,20.7,10.71,31.07.5,1.46,2.42,3.83-.63,4.35-2.28.39-6.3,1.84-6.81-1.73-1.21-8.44-7.13-6.78-12.6-7.11-3.68-.22-5.58,1-6.12,4.56s-2.6,4.85-6.25,4.62c-5.81-.36-11.65-.43-17.48-.31-3.16.07-4.45-.79-4.39-4.19.17-10.32.13-20.65,0-31,0-3,.9-4.17,4-4.18,3.27,0,4.39,1.26,4.2,4.5-.24,4.15,0,8.32,0,12.49Zm28.75-9.12c-1.67,4.91-2.83,8.68-4.26,12.35-1.3,3.34-.3,4.23,3.14,4.17,6.57-.12,6.58.05,4.51-6.33C131,330.8,130,327.86,128.57,323.55Z"/><path class="cls-6" d="M170.07,324.93c0,8.49,0,17,0,25.47,0,2.62.17,5-3.57,5.05-4.08.09-3.89-2.43-3.86-5.26.07-9.32,0-18.64.05-28,0-2.5-.91-5.53,3-6.33,5.23-1.09,9.66.35,11.08,4.08,2.88,7.56,5.55,15.19,8.68,23.79,3-8,5.74-15.11,8.44-22.2,2-5.28,6.5-7.33,11.86-5.54,2,.66,2.35,2.08,2.35,3.86,0,10.65-.07,21.31,0,32,0,2.68-1.15,3.49-3.55,3.47s-4-.49-3.93-3.6c.18-9,.06-17.95.06-27.5-2.44,2.23-2.57,5-3.45,7.35q-3.6,9.56-6.78,19.26c-.92,2.8-2.12,4.53-5.47,4.56-3.62,0-4.28-2.35-5.15-4.92C177,341.88,174,333.32,171,324.75Z"/><path class="cls-6" d="M249.83,382.66c-2.32,2-.71,4.64-1.21,6.93s1.79,6.19-3.27,6-2.95-3.95-3-6.28c-.24-6.11-.07-12.23-.07-18.34,0-6.5,0-6.5,6.59-6.17l.49,1.2.51-1.19c2.73-.28,5.43-.43,8,.83l1.68.78c6,4,5.31,10.32-1.57,14.93l1.23,1.17c.47.46,1.24.86,1.35,1.39,1.57,7.67,8.3,5.47,13.09,6.76a3.31,3.31,0,0,0,4.27-2.47c.63-2.38-.57-3.73-2.56-4.73a64.69,64.69,0,0,1-6.5-3.54c-3.09-2-4.08-5.06-3.41-8.67s3-5.78,6.51-6.68c6.84-1.74,11,.55,10.59,6.23a54.32,54.32,0,0,0-6-1.69c-1.87-.32-3.82.13-4.57,2.13s.48,3.49,2.26,4.41,3.9,1.83,5.79,2.87c3.55,2,5.25,5.05,4.7,9.07s-3,6.55-6.82,7.72a12.19,12.19,0,0,1-3.93.53c-4.7-.15-9.36-1.48-14.1-.51a1.52,1.52,0,0,0-1.6-1.49c-2.18-3.65-2.37-8.45-6.4-11C251.28,381.66,250.62,381.46,249.83,382.66ZM248.65,374c.11,2-.85,4.59,2.91,4.18,2.88-.32,5.37-.95,5.3-4.5-.05-3.26-2.28-3.83-5.06-4.1C247.83,369.16,248.67,371.77,248.65,374Zm-4.06-7-.5.73a3.49,3.49,0,0,0,.77.15c.09,0,.28-.31.25-.36A4.26,4.26,0,0,0,244.59,367Z"/><path class="cls-6" d="M267.69,337.12c4.25,3.46,5.46,8.57,7.4,13.25.59,1.41,2.72,3.67.05,4.49-2.36.73-5.75,1.86-7.45-1.6-1.46-3-2.6-6.1-3.89-9.15-.71-1.71-1.53-3.36-3.24-4.28-3.17-1.71-4.93-.72-5,2.85a73.27,73.27,0,0,0,0,8c.25,3.08-.73,4.57-4,4.7s-4.16-1.45-4.11-4.52q.24-15.45.08-30.91c0-3.07,1.16-4.23,4.12-4.06,4.48.27,9-.39,13.44.48s8.1,2.9,9.09,7.87-.46,9.15-5.17,11.78A8.83,8.83,0,0,0,267.69,337.12Zm-12.25-9.53c.32,2.44-1.35,6.08,3.66,5.57,3.77-.39,7-1.16,6.95-5.89-.09-4.58-3.54-4.9-6.93-5.28C254.18,321.45,255.68,325.07,255.44,327.59Z"/><path class="cls-6" d="M338.41,335.81c0,5.32-.18,10.65.06,16,.15,3.26-1.86,3.52-4.08,3.63s-4.4-.29-4-3.49a22.94,22.94,0,0,0,0-3c0-11.74-.4-12-12.19-10.68-2,.23-2.47,1-2.44,2.76.08,3.66-.15,7.33.07,11,.18,2.92-1.58,3.49-3.69,3.31-1.89-.16-4.48.5-4.43-3.1.14-11.14.09-22.29,0-33.43,0-3,2-3,4-3s4.15-.05,4.05,3c-.09,2.66.22,5.35-.08,8-.42,3.6.63,4.9,4.51,4.87,10.09-.08,10.11.12,10.14-10.32,0-2.83-.61-5.8,4-5.6,3,.12,4.16,1.2,4.09,4.18-.13,5.32,0,10.64,0,16Z"/><path class="cls-6" d="M1.23,335.59c0-5,.11-10,0-14.95-.1-3.29,1-5,4.54-4.8,4.79.31,9.61-.3,14.38.76,9.6,2.12,14.32,9.1,13.72,20.55-.55,10.34-6.39,16.87-16,17.61-4.13.32-8.3.13-12.45.33-3,.15-4.21-1.06-4.15-4C1.32,345.89,1.23,340.74,1.23,335.59Zm7.94-.35h0c0,3.5.16,7,0,10.48-.15,2.55.92,3,3.18,3.08,8.33.29,12.6-3.48,13.27-12,.69-8.73-3.11-13.59-11.15-14.59-3.62-.45-5.82.14-5.34,4.54A77.33,77.33,0,0,1,9.17,335.24Z"/><path class="cls-6" d="M185.11,280c0,9-.07,16.42,0,23.86,0,2.63-.6,4-3.6,3.91s-3.18-1.55-3.16-3.83c.06-9.14,0-18.28.1-27.43,0-2.09-1.28-5.29,2.1-5.74s7.32-1.52,9.58,2.95a198.72,198.72,0,0,0,11.92,20.71V282.2c0-2.49.15-5,0-7.48-.22-2.83.5-4.31,3.72-4.35s3.21,1.82,3.19,4.16c-.07,9.14,0,18.29-.06,27.43,0,2.14,1,5.13-2.43,5.62-3.13.44-6.36.55-8.22-3-3.75-7.2-7.6-14.35-11.42-21.52C186.53,282.47,186.19,281.93,185.11,280Z"/><path class="cls-6" d="M99.15,288.36c.07,14.42-8.23,21.7-22.21,19.47C68,306.41,63.47,299.52,64,288c.64-14.11,12.18-21.85,25.44-17.05C95.85,273.25,99.11,279.09,99.15,288.36ZM72,290.14a30.68,30.68,0,0,0,.51,4c1.22,5.62,4,7.87,9.25,7.75,5-.11,8.17-2.95,9.13-8.15a27.87,27.87,0,0,0-.12-10.42c-1-5.14-5-7.91-10.22-7.31C75.05,276.68,72.11,281.05,72,290.14Z"/><path class="cls-6" d="M27.68,289.45c-.15-15.05,10.56-23.1,24.83-18.61a14.41,14.41,0,0,1,4.39,2.26c5.64,4.35,7.61,15.9,4.33,24.58-2.79,7.35-8.86,11-17.32,10.54C32.47,307.54,27.8,302.14,27.68,289.45Zm7.9-.37c.08,1.25.11,2.25.2,3.24.58,6.48,3.16,9.39,8.54,9.64,5.6.27,8.9-2.61,10.12-8.79a23.12,23.12,0,0,0-.17-9.41c-1.14-5.3-4.32-8-9.35-7.8-4.7.14-8.25,3.41-9,8.39C35.69,286,35.68,287.67,35.58,289.08Z"/><path class="cls-6" d="M227.25,346.48c-5.46-1.61-8.31.69-9.32,6.09-.73,3.9-4,3.08-6.41,2.51-3.52-.84-1.08-3.32-.59-4.77,3.4-10.2,7.18-20.28,10.48-30.51,1.1-3.42,2.89-4.23,6.16-4.14s5.45.45,6.65,4.25c3.24,10.26,7.1,20.33,10.51,30.54.47,1.41,2.93,4.12-.69,4.64-2.39.35-6.2,1.78-7-2.33C235.92,347,232.81,345,227.25,346.48Zm.16-22.86c-1.14,3.25-1.93,5.4-2.64,7.59-3.05,9.32-3,9.33,6.85,8.69.28,0,.55-.26,1.06-.52Z"/><path class="cls-6" d="M101,380c0-4.16.09-8.32,0-12.47-.08-2.64,1.41-2.88,3.48-3s3,.76,3,2.85c0,6.15,0,12.31.06,18.46,0,1.78-.9,4.65,2.39,4.26,2.91-.36,6.9,2.41,8.58-2.38,2.3-6.58,4.68-13.13,6.77-19.78.87-2.74,2.33-3.53,5.08-3.43,2.54.1,4.24.36,5.17,3.29,2.57,8.05,5.57,16,8.29,24,.4,1.18,1.87,3.14-.53,3.66-1.92.41-4.95,1.28-5.5-1.65-1.47-7.71-7.33-4.62-11.72-5.19-2.25-.29-2.28,1.63-2.54,2.94-.71,3.46-2.69,4.44-6.07,4.15a63.69,63.69,0,0,0-11.47-.05c-4.19.39-5.27-1.39-5-5.18C101.16,387,101,383.49,101,380Zm24.72,3.67c2.55,0,4.51,0,6.47,0,1.09,0,2.11-.2,1.66-1.59-1.06-3.34-2.25-6.64-3.82-11.2C128.35,375.84,127.16,379.37,125.71,383.66Z"/><path class="cls-6" d="M358.11,315.87c3.79-.92,5.36,1.21,6.43,4.44,3.37,10.07,6.91,20.08,10.31,30.14.5,1.5,2.53,3.68-.35,4.49-2.53.71-5.72,1.63-7.34-2-1-2.22-.68-5.87-3.12-6.39-4-.85-8.27-.48-12.41-.36-2.18.06-2,2.33-2.63,3.77s-.81,3.48-1.89,4.5c-1.69,1.61-4.19,1.24-6.14.34-2.43-1.12-.45-3,0-4.27,3.39-10.06,7.17-20,10.4-30.1C352.54,316.76,354.24,315,358.11,315.87Zm-.64,7.58c-1.25,3.86-2.11,6.55-3,9.22-2.63,7.83-2.19,8.32,5.93,7.41,2.12-.24,2.51-.81,1.78-2.79C360.63,333.11,359.3,328.86,357.47,323.45Z"/><path class="cls-6" d="M132,288.63c0-4.48.14-9-.05-13.45-.14-3.37,1-5,4.52-4.69,3,.22,6,0,9,.11,11.47.39,17.42,6.48,17.46,17.81,0,12.13-5.83,19-17.33,19.12-16.47.14-13.2,2.63-13.56-12.92C132,292.62,132,290.63,132,288.63Zm7.73.27h0c0,3.33.11,6.66,0,10-.11,2.2.7,2.79,2.84,2.86,5.94.18,9.71-1.87,11.54-6.65,2.27-5.94.82-13.49-3.11-16.6a10.6,10.6,0,0,0-9.93-1.65c-2.76.87-.94,4.32-1.27,6.6A38.37,38.37,0,0,0,139.76,288.9Z"/><path class="cls-6" d="M121.19,290.26c4.28,3.28,5.32,8.2,7.31,12.52.62,1.34,2.78,3.81.19,4.62-2.29.72-5.75,1.86-7.37-1.81-1-2.27-1.72-4.68-2.75-6.94a26.25,26.25,0,0,0-2.78-4.68c-1.26-1.68-3.29-1.76-5-1.22s-.75,2.31-.82,3.5a52,52,0,0,0,0,7.49c.28,3.06-.93,4.11-3.93,4.11-3.19,0-3.88-1.47-3.84-4.32.12-9.49.15-19,0-28.46-.06-3.52,1.29-4.76,4.69-4.56s7,0,10.48.17c5.8.33,9.38,3,10.4,7.62C128.85,283.3,126.87,287.09,121.19,290.26Zm-11.36-9c.45,2.41-1.52,6,3.57,5.6,3.75-.31,6.66-1.4,6.59-5.61-.07-4.59-3.73-4.66-7.12-4.95C108.23,275.85,110.5,279.4,109.83,281.22Z"/><path class="cls-6" d="M227.47,270.36c3.24-.17,5.21.5,6.26,3.77,3.12,9.77,6.69,19.4,9.93,29.14.42,1.25,2.47,3.43-.16,4.11-2.23.57-5.25,1.85-7-1.43-1.13-2.14-.56-5.79-3.1-6.38-3.63-.84-7.57-.36-11.38-.44-1.72,0-2.13,1.2-2.53,2.53a39.11,39.11,0,0,1-1.49,4.22c-1.29,3-4.1,2.09-6.06,1.64-2.45-.58-1-2.72-.49-4.12,3.27-9.57,6.81-19.06,9.86-28.7C222.46,271.1,224.42,269.92,227.47,270.36Zm-.25,7.45c-1.39,3.89-2.45,6.63-3.35,9.41-2.09,6.5-2.06,6.41,4.94,6.31,2.65,0,3.7-.62,2.65-3.41C230.08,286.44,228.89,282.69,227.22,277.81Z"/><path class="cls-6" d="M36.9,335.18c0-5,.08-10,0-15-.08-2.87.88-4.43,3.94-4.39,5.32.06,10.64.11,16,.05,2.32,0,3.18.91,3.28,3.24.1,2.51-1.09,3.19-3.25,3.17a50,50,0,0,1-6.48-.06c-4.3-.64-5.75.75-5.57,5.28.15,3.58,1.17,4.64,4.54,4.24,2-.24,4,0,6,0,2.4-.07,2.6,1.49,2.64,3.29s-.58,2.86-2.57,2.79a45.86,45.86,0,0,1-5-.05c-4.22-.64-5.6.66-5.64,5.24-.05,4.86,1.25,6.58,6,5.85,2-.3,4,.06,6-.08,2.28-.16,3.35.62,3.42,3,.08,2.66-1.08,3.41-3.59,3.34-5.15-.14-10.31-.15-15.46,0-3.34.11-4.34-1.32-4.23-4.48C37,345.5,36.9,340.34,36.9,335.18Z"/><path class="cls-6" d="M276.61,335.92c.17-15.6,11.73-24.59,24.77-19.26,1.88.77,3.82,1.48,3.9,3.93,0,1.44.65,3.16-.64,4.24s-2.33-.6-3.39-1.11c-8.09-3.88-14.14-.79-15.69,8a23.16,23.16,0,0,0-.09,7.43c1.21,8.5,7.83,12,15.71,8.49,1.19-.54,2.58-3.35,3.93-.79a4.79,4.79,0,0,1-1.69,6.56c-8.65,5.91-22.28,1.31-25.62-8.67A27.38,27.38,0,0,1,276.61,335.92Z"/><path class="cls-6" d="M.05,289.88c.06-14.79,10.61-23.35,23-19.07,1.9.65,3.9,1.41,4.2,3.75.17,1.42.83,3.14-.43,4.27s-2.31-.54-3.36-1c-7.34-3.49-13.12-.59-14.8,7.4a21.58,21.58,0,0,0,.08,8.4c1.31,7.15,7.29,10,14.41,7.08,1.24-.51,2.7-3.11,4-.81A4.36,4.36,0,0,1,25.63,306c-8,5.49-20.94,1.47-24.13-7.72A20.5,20.5,0,0,1,.05,289.88Z"/><path class="cls-6" d="M297,379.78c0-3.82.06-7.64,0-11.46-.06-2.76,1.09-3.92,3.89-3.68,2.15.18,4.32,0,6.48.06,9.66.21,15,5,15.4,13.87.46,10.22-4.16,15.78-14,16.87C297,396.74,297,396.74,297,385.26Zm6.44.3h.07a55.69,55.69,0,0,1-.06,7c-.44,3.52,1.43,3.86,4.13,3.51,3.71-.48,6.88-1.9,7.84-5.79,1.08-4.4,1.62-9-1.93-12.66a8.32,8.32,0,0,0-8.76-2.17c-2.76,1-.84,4.07-1.24,6.17A21.12,21.12,0,0,0,303.45,380.08Z"/><path class="cls-6" d="M22.83,380.29c0-10.29,5.28-16.07,14.76-16.19S52,369.59,51.9,379.87s-5.36,16-14.91,16C27.13,395.89,22.82,391.15,22.83,380.29Zm22.36-.94c0-.36-.08-1.19-.15-2-.36-4.45-2.16-7.61-7.13-7.9-4.56-.27-7.28,2.18-8.39,7.27-.72,3.36-.11,6.61.76,9.78.65,2.38,2.55,3.74,5.06,4.17C41.59,391.74,45.2,387.79,45.19,379.35Z"/><path class="cls-6" d="M70.16,381.13c3.29,2.93,4.4,6.63,5.84,10.13.57,1.38,2.3,3.33-.07,4.17-2,.71-4.69,1.14-5.91-1.86-.93-2.3-1.89-4.58-2.85-6.86s-2.46-4.38-5.15-3.63c-2.33.65-1,3.12-1.21,4.76a29.57,29.57,0,0,0,0,5c.11,2.16-.93,3-3,2.91s-3.52-.36-3.49-3c.08-8.3,0-16.59,0-24.89,0-1.5.27-3.16,2.36-3.12,4.14.07,8.33-.12,12.4.46a7.38,7.38,0,0,1,6.48,6.65C76.21,376.22,74.26,379.17,70.16,381.13Zm-9.43-7.21c.33,1.63-1.1,4.54,2.69,4.31,2.82-.17,5.46-.74,5.58-4.3s-2.32-4.16-5.29-4.4C60.1,369.25,60.76,371.64,60.73,373.92Z"/><path class="cls-6" d="M350.78,380.08c0-3.67.22-7.35-.06-11s1.24-4.77,4.64-4.42c2,.21,4,0,6,.05,9.43.17,14.63,5.13,15.07,14.3.46,9.5-4.42,15.4-13.56,16.43-12.12,1.37-12.18,1.32-12.1-10.87,0-1.5,0-3,0-4.5Zm6.18.16h0a49.84,49.84,0,0,1-.05,6.47c-.48,3.64,1.42,4.22,4.35,3.87,4.17-.49,7.39-2.38,8.17-6.71.84-4.62,1.15-9.37-3.33-12.65a8.33,8.33,0,0,0-8-1.25c-2.33,1-.78,3.81-1,5.8A33.31,33.31,0,0,0,357,380.24Z"/><path class="cls-6" d="M156.82,379.9c0-4,.06-8,0-12-.05-2.35.95-3.32,3.28-3.24,3.16.11,6.34-.13,9.48.16,7.94.74,12.31,5.61,12.75,13.91.49,9.06-3.23,14.42-11.25,16.16-13,2.84-14.23,1.92-14.23-11C156.83,382.56,156.83,381.23,156.82,379.9ZM163,380a49.85,49.85,0,0,1,0,6.47c-.49,3.88,1.54,4.52,4.67,4.09,4.21-.58,7-2.76,8-7,1.23-5.23-.27-10.48-3.68-12.57a8.86,8.86,0,0,0-8.11-1c-1.86.82-.62,3.61-.78,5.51C162.87,377,163,378.53,163,380Z"/><path class="cls-7" d="M329.64,155.74c-3.32-1.85-7.4.29-10.82-2.44-1.63-1.29-2.82-1.89-3.19-4.2-.44-2.77-1.59-5-5.26-2.13s-8.88,2.74-12.75,5.58c-.57.42-1.7-.2-1.1-1.38.42-.82,1.59-1.65-.12-2.22-1-.32-1.73-.13-2.25,1.17s-2,1.25-3.42,1.41a4.63,4.63,0,0,0-3.25,1.89c-3,6.09-2.91,6.12-10.29,5.44-.93-.09-2-.35-2.74.72-.12,1.37,1.16,1.89,1.87,2.7.92,1.06,2,2.14,1.08,3.47-1.12,1.66-2.52,1-3.75-.16a1.89,1.89,0,0,0-2.71-.23c-5,5-11.36,2.72-17.17,3.38,2.62-4.59,7.76-4.79,11.84-6.89,10.23-5.26,20.31-10.81,30.51-16.13,6.71-3.5,13.53-6.8,20.3-10.18.27.54,2.31.25,1.13,1.17-3.43,2.68-1.9,5.66-.52,8.18,1.05,1.91,2.6,3.59,3.65,5.62.61,1.17,1.78,2.56,3.58,2.09,2-.53,1.38-2.31,1.53-3.69.09-.81.1-1.64.15-2.46l1.65,2.71C328.28,151.35,329,153.55,329.64,155.74Z"/><path class="cls-6" d="M335.28,364.76c2.92-.6,4.28.4,5.11,2.9,2.7,8.16,5.63,16.24,8.41,24.37.43,1.25,1.78,3.1-.78,3.46-1.75.24-4.6,1.3-5.08-1.36-1.06-5.89-5-5.67-9.48-5.69-3.19,0-5.08.8-5.48,4.05s-2.75,3.63-5.12,3c-3.06-.81-1-3-.54-4.35,2.48-7.55,5.17-15,7.71-22.54C331,365.85,332,363.46,335.28,364.76Zm.2,7.21-1,.27c-1,3-1.95,5.92-2.92,8.87-.28.85-1.32,2.13.2,2.34,2.24.32,4.77.5,6.79-.27,1.09-.42-.24-2.61-.71-4C337.05,376.8,336.28,374.38,335.48,372Z"/><path class="cls-6" d="M206.44,389.36c2.37-7.7,4.34-14.35,6.52-20.93.5-1.51.36-3.83,3.07-3.81,2.54,0,4.71-.34,3.19,3.68-3,7.89-5.56,15.93-8,24-.87,2.84-2.49,3.46-5.12,3.45s-4.23-.85-5.07-3.54c-2.44-7.73-5.14-15.38-7.62-23.1-.46-1.44-2.41-3.62.61-4.33,2.09-.5,4.6-.87,5.55,2.4C201.57,374.15,203.83,381.06,206.44,389.36Z"/><path class="cls-6" d="M221.09,379.59c0-3.82.06-7.64,0-11.45-.06-2.56,1-3.57,3.58-3.5q6,.18,11.95,0c2-.06,2.67.76,2.66,2.59s-1,2.63-2.81,2.51c-1.49-.09-3,0-4.48,0-2.68-.16-4.6-.23-4.61,3.68s2.13,3.74,4.7,3.66a23.77,23.77,0,0,1,3.48,0,2.27,2.27,0,0,1,2.2,2.72c-.11,1.81-1.19,2.14-2.7,2.07a21.19,21.19,0,0,1-3,0c-4-.81-4.53,1.19-4.61,4.65s1.08,4.44,4.25,4.1c1.64-.17,3.32,0,5,0s2.9.45,2.8,2.48c-.1,1.87-1.07,2.56-2.91,2.53-4.15-.07-8.3,0-12.45,0-2.54,0-3-1.52-3-3.56C221.08,387.89,221.09,383.74,221.09,379.59Z"/><path class="cls-6" d="M.94,380.1c0-3.82.14-7.65,0-11.46-.16-3.1,1.11-4.19,4.1-4,2.48.18,5-.08,7.46.11,6,.48,9.25,3.55,9.5,8.81.27,6-3.09,10.64-9.14,10.86-4.75.17-6.45,1.49-5.77,6.24.29,2,1.15,4.88-2.82,5C0,395.82,1,392.86,1,390.56.88,387.08.94,383.59.94,380.1Zm8.83-10.46c-4-.79-2.87,2.62-2.56,4.44.35,2-2.37,5.73,2.62,5.79,3.7,0,5.52-1.79,5.6-5.32S13.53,369.5,9.77,369.64Z"/><path class="cls-6" d="M173.63,289.05c0,5-.16,10,.06,14.92.14,3.29-1.47,3.86-4.23,3.85s-3.67-1.11-3.63-3.9c.15-9.94.17-19.89,0-29.83,0-2.9,1-3.8,3.66-3.75s4.39.43,4.22,3.8C173.44,279.1,173.63,284.08,173.63,289.05Z"/><path class="cls-6" d="M191,380.16c0,4.14-.09,8.29,0,12.42.07,2.48-1.11,3.11-3.33,3.07s-2.94-.78-2.92-2.95q.12-12.68,0-25.35c0-2.3,1.1-2.73,3.07-2.72s3.21.24,3.17,2.61c-.09,4.3,0,8.61,0,12.92Z"/><path class="cls-6" d="M286.79,379.82c0-4,.07-8,0-11.95-.06-2.26.67-3.28,3.11-3.29s3.26.74,3.23,3.13q-.15,12.19,0,24.4c0,2.42-.62,3.61-3.35,3.61-3.08,0-3-1.86-2.94-4C286.82,387.78,286.8,383.8,286.79,379.82Z"/><path class="cls-7" d="M251.83,200.67c.39-3.4,3.87-4.22,5.88-5.59s4.13-2,4.36-5a1.63,1.63,0,0,1,2.71-1c2.73,4,4.77.59,6.91-.48,6.58-3.29,13.1-6.7,19.62-10.1,1-.52,2.19-1,2.39-2.33.22-1.59,0-3.76,2.55-3.24,2.28.47,1.29,2.7,1.7,4.18l-9.21,5.42c-10.33,5.24-20.66,10.52-31,15.7C255.83,199.22,254.11,200.66,251.83,200.67Z"/><path class="cls-7" d="M147.08,233.05c.6-3.82,1.07-7.39,6.68-6.61,2,.28,4.21-1.34,6.22-2.64A47.91,47.91,0,0,1,178.05,217C168.12,223.1,157.62,228.12,147.08,233.05Z"/><path class="cls-7" d="M215.83,216.76c5.08-3.65,10.42-6.57,17-6-7.3,3.85-14.63,7.62-21.86,11.59-2.05,1.13-2.94.73-3.52-1.37-.39-1.42-.92-2.81-1.38-4.21,3.26,1.42,6.53,4.38,9.78,0Z"/><path class="cls-8" d="M297.86,72.83l-.15,2c-3.92-1-3.42-4.53-4.42-7.32-1.66-4.63-3.7-9.13-5.58-13.68l1.1-2.7c3.43,4.24,4,9.74,6.46,14.45A55.31,55.31,0,0,1,297.86,72.83Z"/><path class="cls-7" d="M116,249c-.45-2.76,0-4.88,3.3-5.5,5.05-.95,9.48-3.42,13.83-6,1.88-1.11,3.85-.54,5.79-.65A134,134,0,0,1,116,249Z"/><path class="cls-7" d="M178.08,217c1.06-3.5,6.93-8,10.93-8.23,1.64-.1,3.29,0,4.94.06A70.74,70.74,0,0,1,178.08,217Z"/><path class="cls-7" d="M197,206.92c-.21-1.47.93-2.37,1.46-3.53,1.13-2.53,1.07-3.29,3.76-.41,3.81,4.07,3.74,8.22,3.62,12.86a28.06,28.06,0,0,1-2.22-4.92C202.67,207.23,201,205.23,197,206.92Z"/><path class="cls-6" d="M265.81,306.4a5.23,5.23,0,0,1,1.21-3.52c1.32-1.82.7-2.94-1.49-3.27l2.3-2.89c2.41.86,3.7,3,5.32,4.74C271.44,304.2,268.82,305.59,265.81,306.4Z"/><path class="cls-7" d="M107.66,248.9l8.38,0c-1.18.79-2.4,1.55-3.56,2.37C109.41,253.44,107.85,252.6,107.66,248.9Z"/><path class="cls-7" d="M138.92,236.83c1.52-3.83,4.5-4.54,8.15-3.83A17.51,17.51,0,0,1,138.92,236.83Z"/><path class="cls-7" d="M106,244.76c2.69.5,1.73,2.53,1.74,4.16A6.58,6.58,0,0,1,106,244.76Z"/><path class="cls-7" d="M193.92,208.88c0-2.23,1.52-2.14,3.07-2C196.43,208.26,195.23,208.66,193.92,208.88Z"/><path class="cls-6" d="M246.39,298.72c.38.26,1,.45,1.09.79.23.83-.46,1.07-1.12,1.22Z"/><path class="cls-6" d="M249.83,382.66c.79-1.2,1.45-1,2,.2Z"/><path class="cls-6" d="M249.82,364.85l-.51,1.19-.49-1.2Z"/><path class="cls-6" d="M258.23,393.89a1.52,1.52,0,0,1,1.6,1.49C258.7,395.52,258.52,394.65,258.23,393.89Z"/><path class="cls-6" d="M259.49,366.46l-1.68-.78Z"/><path class="cls-6" d="M259.15,382.56l-1.23-1.17Z"/><path class="cls-9" d="M95.87,218.81a.77.77,0,0,1-.18-.74c-.15-2.86,1-5.54-1.36-8.53-1.9-2.43.4-6.75-1.85-9.79a10.69,10.69,0,0,1,1.49-1c6.42-3,11.82-7.94,18.67-10.18,1-.31,1.07-1.14,1.11-2,7.08-5.41,15.45-8.65,23.13-12.95,6.12-3.43,12.39-7.35,19.5-9.11,2.16-.54,3.12-3.36,5.62-3.64,4.55.74,7.82-1.87,11.63-3.76,4.85-2.41,9.24-5.58,14.27-7.78,4.58-2,8.79-4.52,13.95-4.54.48,2.37,1.81,2.07,3.57,1.31-.95-1.85-2.45-1-3.59-1.3.28-1.58-1.06-3.15,0-4.74,3.2,1.22,5.6-3.84,9-1.15a29.38,29.38,0,0,0,1.11,5.21c1.36,3.28,1.71,7.34,6,8.61h0c.08,1.09.73,2.41,1.68,1.88,4.21-2.38,9.82-2.64,12.24-7.82h0c2.41-.2.83,3.53,3.46,3.33.73-3.28,3.15-4.48,6.09-6,3.17-1.6,8.26-1.8,8.54-7.15l1.76-.3a9.38,9.38,0,0,0,3.83-.52c6.71-2,12-6.82,18.45-9.38,2.79-1.1,6.89-1.81,7.89-5.89,5.83-3,11.55-6.21,17.85-8.17a7.05,7.05,0,0,0,6-1.54c2.14-1.91,4.06-1.84,6.22-.31,3.23,7.24,6.53,14.46,8.66,22.14-.92,1.61-2.77,1.67-4.14,2.51-6.77,3.38-13.59,6.68-20.3,10.18-10.2,5.32-20.28,10.87-30.51,16.13-4.08,2.1-9.22,2.3-11.84,6.89h0c-4.72.56-8.48,3.06-12,6h0c-1.61.12-3.58-.47-3.93,2.06l0,0a7.5,7.5,0,0,0-4.31.89c-3.13,2-5.09,1.9-6.65-2.2-.82-2.15-.92-5-3.15-6.53l-.07-.15c.28-2.32-.11-4.81-2.84-4.61-3.42.26-7,1.06-9.06,4.47h0c-1.62.1-3.6-.5-4,2h0c-2,.57-4.72-.93-5.79,2.12l-.1.08c-3.54,1.65-7.6,2.41-10.14,5.81-8.69,4.34-17.44,8.54-26,13.06-6.68,3.52-14,6-19.93,10.81-3.09.52-6,1.32-8,4h0c-1.63.14-3.59-.36-4,2.1-8.12,2.9-15.41,7.43-22.9,11.56-3.68-1.57-5.73,2-8.7,2.75C98.24,224.37,98.51,219.41,95.87,218.81Z"/><path class="cls-8" d="M129.91,144.82c1.65-5.79,7.38-5.74,11.5-7.84,11.07-5.64,22.61-10.44,33.31-16.68a77.08,77.08,0,0,1,17.17-7.46c-5.34,5.15-12.52,7.11-18.81,10.56-13.38,7.34-27.18,13.92-40.82,20.78A11.31,11.31,0,0,1,129.91,144.82Z"/><path class="cls-10" d="M113.75,186.56c0,.84-.15,1.67-1.11,2-6.85,2.24-12.25,7.14-18.67,10.18a10.69,10.69,0,0,0-1.49,1c2.25,3,0,7.36,1.85,9.79,2.34,3,1.21,5.67,1.36,8.53-3.66-6.62-6-13.76-8.34-20.91,5.17.11,8.72-3.62,12.79-5.83C104.52,189,108.72,186.78,113.75,186.56Z"/><path class="cls-10" d="M201.81,140.05c-1,1.59.3,3.16,0,4.74h0c-5.16,0-9.37,2.53-13.95,4.54-5,2.2-9.42,5.37-14.27,7.78-3.81,1.89-7.08,4.5-11.63,3.76,1.53-2.84,4.62-4.11,7.05-5.4,8.75-4.65,17.86-8.65,27-12.51C198.06,142.09,198.75,138.61,201.81,140.05Z"/><path class="cls-8" d="M91.87,164.76c2.25-5.19,8.38-4.74,11.78-8,3.21-3.13,8.75-2.5,10.84-7.2.19-.41,1.19-.7,1.77-.64a9,9,0,0,0,7.91-3.21c1.5-1.62,3.77-.76,5.72-.83-9,6.58-19.46,10.36-29,15.81C98,162.25,95.26,164.26,91.87,164.76Z"/><path class="cls-8" d="M191.88,112.85c1.67-3,5.22-3.48,7.56-5.62a2.28,2.28,0,0,1,1.73.19c.5,3.67,5.43,5.13,4.69,9.39a2.67,2.67,0,0,0,0,.49c-.05,2.75,1.43,6.24,3.09,6.51,2.73.43,2.73-3.29,3.74-6.68,1.19,4.1,3.73,3.72,6.15,3.66-2.3,3.14-6.14,3.73-9.25,5.52-1.84,1.07-3,0-3.67-2-1.23-3.59-2.9-7-3.87-10.7s-2.6-4.31-5.49-2.1A7.23,7.23,0,0,1,191.88,112.85Z"/><path class="cls-10" d="M281.86,120.91c-1,4.08-5.1,4.79-7.89,5.89-6.49,2.56-11.74,7.37-18.45,9.38a9.38,9.38,0,0,1-3.83.52c1.54-5,7-3.92,10.33-6.4,5.32-4,11.84-6.33,17.89-9.31A5.22,5.22,0,0,1,281.86,120.91Z"/><path class="cls-10" d="M249.93,137c-.28,5.35-5.37,5.55-8.54,7.15-2.94,1.48-5.36,2.68-6.09,6-2.63.2-1.05-3.53-3.46-3.33C237.2,142.29,243.73,140,249.93,137Z"/><path class="cls-8" d="M77.71,171.81c-.94-2-3.06-3.87-1.1-6.41,1.6,3.35,3.11,4.79,6.36,1.1,2.13-2.42,5.42-3.79,8.9-1.74A56.12,56.12,0,0,1,77.71,171.81Z"/><path class="cls-10" d="M217.89,152.72c-4.28-1.27-4.63-5.33-6-8.61a29.38,29.38,0,0,1-1.11-5.21c1,0,2.19-.27,2.61.81C215.06,144,217.29,148.07,217.89,152.72Z"/><path class="cls-10" d="M311.9,110.89c-2.16-1.53-4.08-1.6-6.22.31a7.05,7.05,0,0,1-6,1.54c1.85-4.44,7-4.66,9.91-7.77C310.48,106.91,311.92,108.61,311.9,110.89Z"/><path class="cls-10" d="M231.82,146.79c-2.42,5.18-8,5.44-12.24,7.82-1,.53-1.6-.79-1.68-1.88l1.93.08.41.24-.37-.26A21.58,21.58,0,0,1,231.82,146.79Z"/><path class="cls-8" d="M289.81,84.78c1.25-4,5.24-4.28,8.18-6C296.88,83,293.14,83.61,289.81,84.78Z"/><path class="cls-8" d="M281.79,88.79c-.29-6.23,4.38-3.34,7.18-3.89A12.85,12.85,0,0,1,281.79,88.79Z"/><path class="cls-8" d="M285.86,77.28c2.36-.31,4.27-1.39,5.4.6.37.65-.46,2.89-1,3C288.19,81.21,287.38,79.3,285.86,77.28Z"/><path class="cls-8" d="M90.28,158.05c.12-.27.18-.7.38-.78a.83.83,0,0,1,.76.33.82.82,0,0,1-.33.77C90.89,158.45,90.55,158.17,90.28,158.05Z"/><path class="cls-7" d="M137.76,206.61c2-2.69,5-3.49,8-4-.33,2.32,1.27,3,3,3.82,1.13.56,2.24,1.63,1.79,3.17s-1.84,1-2.92,1.17C143.49,211.37,140.48,209.33,137.76,206.61Z"/><path class="cls-7" d="M223.73,169c2.23,1.58,2.33,4.38,3.15,6.53,1.56,4.1,3.52,4.17,6.65,2.2a7.5,7.5,0,0,1,4.31-.89c-1.23,2.32-3.58,3.74-5.34,5.43-2,1.93-4.95,0-6.38-2.54A17.7,17.7,0,0,1,223.73,169Z"/><path class="cls-7" d="M102.18,223c3-.71,5-4.32,8.7-2.75-1.24,4-6.93,3.54-7.95,8-.28,1.23-2.78-2.09-3.89.42-.3-1.15-.59-2.31-.89-3.47C99.63,224.75,101.78,225.47,102.18,223Z"/><path class="cls-7" d="M241.79,174.75c3.52-3,7.28-5.46,12-6,.37,6.59-6.21,3.27-8.66,6C244.62,175.26,242.93,174.76,241.79,174.75Z"/><path class="cls-7" d="M211.76,168.7c2.06-3.41,5.64-4.21,9.06-4.47,2.73-.2,3.12,2.29,2.84,4.61C219.74,164.89,215.74,167.69,211.76,168.7Z"/><path class="cls-7" d="M191.76,178.73c2.54-3.4,6.6-4.16,10.14-5.81l-.06,3.86h0C198.1,175.48,195.35,179.25,191.76,178.73Z"/><path class="cls-7" d="M215.84,216.76c-1.48,0-3,0-4.43-.17-1.23-.13-1.53-1.11-1.4-2.18a3.92,3.92,0,0,1,2.42-2.91c1-.49,1.14.67,1.46,1.41.56,1.32,1.29,2.57,1.94,3.85Z"/><path class="cls-7" d="M253.74,191.28c-.46.94-.81,3-1.7,3.27-1.91.58-2.26-1.17-2.2-2.78,0-1.3-.06-2.71,1.79-2.87C253.06,188.78,253.71,189.53,253.74,191.28Z"/><path class="cls-7" d="M201.84,176.78c3.08.75,6.53-1.47,9.38,1.2-3.2.14-6.7,2.77-9.38-1.21Z"/><path class="cls-7" d="M117.17,225.77A8,8,0,0,1,110,226C112.62,224,114.89,224.63,117.17,225.77Z"/><path class="cls-7" d="M141.44,215.81c3.27-1.41,5.49-1.23,8.66-.28C147,217.27,144.8,217,141.44,215.81Z"/><path class="cls-7" d="M259.63,186.65c-.29,1.09-.89,1.93-2.07,1.72a1.88,1.88,0,0,1-1.54-2.22c.12-1,.89-1.3,1.81-1.29C259,184.88,259.72,185.38,259.63,186.65Z"/><path class="cls-7" d="M202,172.84c1.07-3.05,3.81-1.55,5.79-2.12C207,174.43,203.92,172.1,202,172.84Z"/><path class="cls-7" d="M133.78,208.72c.4-2.46,2.36-2,4-2.1C137.61,209.54,135.39,208.57,133.78,208.72Z"/><path class="cls-7" d="M237.88,176.8c.35-2.53,2.32-1.94,3.93-2.06C241.54,177.42,239.46,176.62,237.88,176.8Z"/><path class="cls-7" d="M207.79,170.72c.37-2.53,2.35-1.93,4-2C211.54,171.53,209.4,170.61,207.79,170.72Z"/><path class="cls-7" d="M310.38,151.34a5.84,5.84,0,0,1,1.57-.42c.6,0,1.49.14,1.19,1-.13.39-1,.68-1.53.72S310.27,152.58,310.38,151.34Z"/><path class="cls-7" d="M204.59,202.8l-.28.33c-.07-.13-.2-.26-.19-.39s.16-.22.26-.33Z"/><path class="cls-6" d="M266.79,279.79,264.72,278C266.58,276.86,266.6,276.89,266.79,279.79Z"/><path class="cls-6" d="M269.35,290.73l0-2c.38.26,1,.45,1.09.79C270.7,290.33,270,290.58,269.35,290.73Z"/><path class="cls-6" d="M244.59,367a4.26,4.26,0,0,1,.52.52c0,.05-.16.36-.25.36a3.49,3.49,0,0,1-.77-.15Z"/><path class="cls-5" d="M316.42,135.54c1.37-.84,3.22-.9,4.14-2.51a68,68,0,0,1,5.38,13.42c-.05.82-.06,1.65-.15,2.46-.15,1.38.5,3.16-1.53,3.69-1.8.47-3-.92-3.58-2.09-1.05-2-2.6-3.71-3.65-5.62-1.38-2.52-2.91-5.5.52-8.18C318.73,135.79,316.69,136.08,316.42,135.54Z"/><path class="cls-10" d="M102.18,223c-.4,2.44-2.55,1.72-4,2.23-.92-2.09-2.2-4.06-2.28-6.45C98.51,219.41,98.24,224.37,102.18,223Z"/><path class="cls-10" d="M201.83,144.79c1.14.29,2.64-.55,3.59,1.3-1.76.76-3.09,1.06-3.57-1.31Z"/><path class="cls-9" d="M219.87,152.79l.37.26-.41-.24Z"/></g></g></svg>