<svg xmlns="http://www.w3.org/2000/svg" viewBox="0 0 676.86 106.07"><defs><style>.cls-1{fill:#42658b;}.cls-2{fill:#057;}</style></defs><title>Recurso 2</title><g id="Capa_2" data-name="Capa 2"><g id="Capa_1-2" data-name="Capa 1"><path class="cls-1" d="M478.23,11.76a6.29,6.29,0,0,0-3.68-1.08,6.6,6.6,0,0,0-3.1.68,6.29,6.29,0,0,0-2.13,1.83,7.81,7.81,0,0,0-1.23,2.62,11.59,11.59,0,0,0-.4,3.07,12.85,12.85,0,0,0,.4,3.27,7.77,7.77,0,0,0,1.23,2.7,6.23,6.23,0,0,0,2.14,1.83,6.71,6.71,0,0,0,3.12.68,6.07,6.07,0,0,0,2.37-.44,5.35,5.35,0,0,0,3-3.08,7.34,7.34,0,0,0,.51-2.33h2.7a9.24,9.24,0,0,1-2.64,6,8.53,8.53,0,0,1-6.13,2.13,9.72,9.72,0,0,1-4.11-.81,8.1,8.1,0,0,1-2.92-2.23,9.49,9.49,0,0,1-1.74-3.34,14.26,14.26,0,0,1-.58-4.15,13.4,13.4,0,0,1,.62-4.15,10.26,10.26,0,0,1,1.83-3.39,8.55,8.55,0,0,1,3-2.28,9.7,9.7,0,0,1,4.13-.84,10.24,10.24,0,0,1,3,.43,8,8,0,0,1,2.52,1.25A6.85,6.85,0,0,1,482,12.14a7.35,7.35,0,0,1,1,2.85h-2.7A5,5,0,0,0,478.23,11.76Z"/><path class="cls-1" d="M488.62,8.89V29.14h-2.41V8.89Z"/><path class="cls-1" d="M505.35,29.08a3.37,3.37,0,0,1-1.73.37,2.07,2.07,0,0,1-1.49-.52,2.28,2.28,0,0,1-.55-1.72,5.84,5.84,0,0,1-2.31,1.72,8.13,8.13,0,0,1-4.74.3,4.42,4.42,0,0,1-1.55-.71,3.37,3.37,0,0,1-1-1.26,4.19,4.19,0,0,1-.38-1.89,4.35,4.35,0,0,1,.42-2A3.8,3.8,0,0,1,493.11,22a5.07,5.07,0,0,1,1.59-.75c.6-.17,1.2-.31,1.83-.43s1.29-.23,1.88-.3a10.26,10.26,0,0,0,1.58-.28,2.61,2.61,0,0,0,1.08-.54,1.31,1.31,0,0,0,.39-1,2.5,2.5,0,0,0-.29-1.28,2.1,2.1,0,0,0-.77-.74,3.16,3.16,0,0,0-1-.34,9,9,0,0,0-1.15-.08,5.06,5.06,0,0,0-2.55.58,2.48,2.48,0,0,0-1.11,2.2h-2.41a5.23,5.23,0,0,1,.57-2.3,4.33,4.33,0,0,1,1.36-1.52A5.93,5.93,0,0,1,496,14.4a10.29,10.29,0,0,1,2.34-.26,14.53,14.53,0,0,1,2,.14,5.34,5.34,0,0,1,1.77.58,3.41,3.41,0,0,1,1.27,1.23,4,4,0,0,1,.49,2.07v7.53a6.13,6.13,0,0,0,.09,1.24c.07.26.29.4.67.4a2.56,2.56,0,0,0,.74-.14Zm-3.91-7.54a3,3,0,0,1-1.2.5c-.49.1-1,.19-1.54.25l-1.63.23a6.27,6.27,0,0,0-1.48.41,2.69,2.69,0,0,0-1.06.81,2.29,2.29,0,0,0-.41,1.43,2,2,0,0,0,.24,1,2.1,2.1,0,0,0,.62.67,2.58,2.58,0,0,0,.9.36,4.68,4.68,0,0,0,1.07.12A5.68,5.68,0,0,0,499,27a4.45,4.45,0,0,0,1.39-.82,3.33,3.33,0,0,0,.79-1.08,2.74,2.74,0,0,0,.26-1.09Z"/><path class="cls-1" d="M517.46,29.14V26.82h-.06a5,5,0,0,1-2,2,5.9,5.9,0,0,1-2.8.63,6.45,6.45,0,0,1-2.41-.38A3.72,3.72,0,0,1,508.67,28a4.08,4.08,0,0,1-.84-1.69,9.07,9.07,0,0,1-.24-2.17V14.48H510v9.93a2.91,2.91,0,0,0,.79,2.15,3,3,0,0,0,2.19.8,5.05,5.05,0,0,0,1.91-.34,3.6,3.6,0,0,0,1.35-1,4.24,4.24,0,0,0,.81-1.46,6.27,6.27,0,0,0,.26-1.83V14.48h2.42V29.14Z"/><path class="cls-1" d="M534.05,29.14v-2H534a3.57,3.57,0,0,1-1.87,1.76,7.33,7.33,0,0,1-2.81.53,6.55,6.55,0,0,1-3-.62,6.08,6.08,0,0,1-2.1-1.67A7.25,7.25,0,0,1,523,24.72a9.84,9.84,0,0,1-.43-2.95,10.51,10.51,0,0,1,.41-2.95,7.09,7.09,0,0,1,1.25-2.43,6.22,6.22,0,0,1,2.1-1.64,6.61,6.61,0,0,1,2.93-.61,7.67,7.67,0,0,1,1.22.11,6.51,6.51,0,0,1,1.31.39,5.45,5.45,0,0,1,1.23.71,3.81,3.81,0,0,1,1,1.09h.06V8.89h2.41V29.14Zm-8.67-5.2a5.58,5.58,0,0,0,.82,1.74,4.09,4.09,0,0,0,1.42,1.22,4.34,4.34,0,0,0,2,.46,4.17,4.17,0,0,0,2.07-.49,4.11,4.11,0,0,0,1.39-1.26,5.25,5.25,0,0,0,.78-1.77,8.7,8.7,0,0,0,0-4.1,5.32,5.32,0,0,0-.81-1.77,4.16,4.16,0,0,0-1.43-1.23,4.41,4.41,0,0,0-2.13-.47,4.14,4.14,0,0,0-2.07.48A3.8,3.8,0,0,0,526.08,18a5.52,5.52,0,0,0-.74,1.81,9.72,9.72,0,0,0-.23,2.1A7.48,7.48,0,0,0,525.38,23.94Z"/><path class="cls-1" d="M540.31,11.84V8.89h2.41v2.95Zm2.41,2.64V29.14h-2.41V14.48Z"/><path class="cls-1" d="M559.45,29.08a3.34,3.34,0,0,1-1.73.37,2.08,2.08,0,0,1-1.49-.52,2.32,2.32,0,0,1-.55-1.72,5.71,5.71,0,0,1-2.31,1.72,7.64,7.64,0,0,1-2.85.52,7.77,7.77,0,0,1-1.89-.22,4.37,4.37,0,0,1-1.54-.71,3.39,3.39,0,0,1-1-1.26,4.33,4.33,0,0,1-.38-1.89,4.23,4.23,0,0,1,.43-2A3.59,3.59,0,0,1,547.22,22a5.13,5.13,0,0,1,1.58-.75c.6-.17,1.21-.31,1.83-.43s1.29-.23,1.89-.3a10.11,10.11,0,0,0,1.57-.28,2.49,2.49,0,0,0,1.08-.54,1.28,1.28,0,0,0,.4-1,2.4,2.4,0,0,0-.3-1.28,2,2,0,0,0-.77-.74,3.16,3.16,0,0,0-1-.34,8.86,8.86,0,0,0-1.14-.08,5.13,5.13,0,0,0-2.56.58,2.46,2.46,0,0,0-1.1,2.2h-2.41a5.1,5.1,0,0,1,.57-2.3,4.33,4.33,0,0,1,1.36-1.52,5.75,5.75,0,0,1,1.94-.83,10.29,10.29,0,0,1,2.34-.26,14.39,14.39,0,0,1,2,.14,5.34,5.34,0,0,1,1.77.58,3.43,3.43,0,0,1,1.28,1.23,4,4,0,0,1,.48,2.07v7.53a5.34,5.34,0,0,0,.1,1.24c.06.26.29.4.67.4a2.5,2.5,0,0,0,.73-.14Zm-3.91-7.54a2.89,2.89,0,0,1-1.19.5c-.49.1-1,.19-1.55.25l-1.63.23a6.05,6.05,0,0,0-1.47.41,2.72,2.72,0,0,0-1.07.81,2.29,2.29,0,0,0-.41,1.43,2,2,0,0,0,.24,1,2,2,0,0,0,.63.67,2.45,2.45,0,0,0,.89.36,4.7,4.7,0,0,0,1.08.12,5.66,5.66,0,0,0,2-.33,4.33,4.33,0,0,0,1.39-.82,3.19,3.19,0,0,0,.79-1.08,2.74,2.74,0,0,0,.26-1.09Z"/><path class="cls-1" d="M582.17,28.9a9.71,9.71,0,0,1-3.55.7,9.4,9.4,0,0,1-4-.84,9.16,9.16,0,0,1-3-2.26,9.92,9.92,0,0,1-1.9-3.26,11.44,11.44,0,0,1-.65-3.82,14.31,14.31,0,0,1,.61-4.22,10.48,10.48,0,0,1,1.81-3.5,8.84,8.84,0,0,1,3-2.39,9.32,9.32,0,0,1,4.21-.9,12,12,0,0,1,3.11.39,7.79,7.79,0,0,1,2.61,1.2,7.14,7.14,0,0,1,1.92,2.09,8.16,8.16,0,0,1,1.07,3h-2.7a5.29,5.29,0,0,0-.73-2,4.86,4.86,0,0,0-1.34-1.37,5.9,5.9,0,0,0-1.8-.81,8.2,8.2,0,0,0-2.14-.27,6.39,6.39,0,0,0-3.16.74,6.28,6.28,0,0,0-2.15,1.94,8.51,8.51,0,0,0-1.24,2.75,12.91,12.91,0,0,0-.4,3.16,10.28,10.28,0,0,0,.46,3.05,7.7,7.7,0,0,0,1.33,2.58,6.32,6.32,0,0,0,5.16,2.46,7.22,7.22,0,0,0,2.81-.51,5.79,5.79,0,0,0,3.32-3.51,7.1,7.1,0,0,0,.37-2.59h-6.47V18.48h8.88V29.14h-1.71l-.7-2.52A6.74,6.74,0,0,1,582.17,28.9Z"/><path class="cls-1" d="M604.09,29.08a3.37,3.37,0,0,1-1.73.37,2.07,2.07,0,0,1-1.49-.52,2.28,2.28,0,0,1-.55-1.72A5.8,5.8,0,0,1,598,28.93a8.1,8.1,0,0,1-4.73.3,4.42,4.42,0,0,1-1.55-.71,3.37,3.37,0,0,1-1-1.26,4.19,4.19,0,0,1-.38-1.89,4.35,4.35,0,0,1,.42-2A3.69,3.69,0,0,1,591.85,22a5.07,5.07,0,0,1,1.59-.75c.59-.17,1.2-.31,1.83-.43s1.29-.23,1.88-.3a10.26,10.26,0,0,0,1.58-.28,2.61,2.61,0,0,0,1.08-.54,1.31,1.31,0,0,0,.39-1,2.4,2.4,0,0,0-.3-1.28,2,2,0,0,0-.76-.74,3.16,3.16,0,0,0-1-.34,9,9,0,0,0-1.15-.08,5.06,5.06,0,0,0-2.55.58,2.48,2.48,0,0,0-1.11,2.2h-2.41a5.23,5.23,0,0,1,.57-2.3,4.33,4.33,0,0,1,1.36-1.52,5.93,5.93,0,0,1,1.94-.83,10.29,10.29,0,0,1,2.34-.26,14.39,14.39,0,0,1,2,.14,5.33,5.33,0,0,1,1.78.58,3.41,3.41,0,0,1,1.27,1.23,4,4,0,0,1,.48,2.07v7.53a6,6,0,0,0,.1,1.24c.07.26.29.4.67.4a2.56,2.56,0,0,0,.74-.14Zm-3.92-7.54A2.89,2.89,0,0,1,599,22c-.49.1-1,.19-1.54.25l-1.63.23a6.27,6.27,0,0,0-1.48.41,2.69,2.69,0,0,0-1.06.81,2.23,2.23,0,0,0-.41,1.43,2,2,0,0,0,.24,1,2.1,2.1,0,0,0,.62.67,2.58,2.58,0,0,0,.9.36,4.68,4.68,0,0,0,1.07.12,5.59,5.59,0,0,0,2-.33,4.23,4.23,0,0,0,1.39-.82,3.23,3.23,0,0,0,.8-1.08,2.72,2.72,0,0,0,.25-1.09Z"/><path class="cls-1" d="M608.51,14.48v3.09h.06a6.41,6.41,0,0,1,2.15-2.63,5.39,5.39,0,0,1,3.24-.8v2.55a6.91,6.91,0,0,0-2.47.4,3.89,3.89,0,0,0-1.65,1.16,4.75,4.75,0,0,0-.9,1.86,10,10,0,0,0-.29,2.51v6.52h-2.41V14.48Z"/><path class="cls-1" d="M625.64,28.21a6.68,6.68,0,0,1-4.14,1.24,7.52,7.52,0,0,1-3-.56,6.08,6.08,0,0,1-2.17-1.59A6.61,6.61,0,0,1,615,24.86a11.55,11.55,0,0,1-.49-3.09,8.77,8.77,0,0,1,.51-3.06,7.17,7.17,0,0,1,1.43-2.41,6.49,6.49,0,0,1,2.18-1.59,6.63,6.63,0,0,1,2.77-.57,6,6,0,0,1,3.24.81A6.37,6.37,0,0,1,626.67,17a8.08,8.08,0,0,1,1.08,2.72,11.45,11.45,0,0,1,.24,2.8H617a5.75,5.75,0,0,0,.22,1.83,4.1,4.1,0,0,0,2.27,2.6,5.09,5.09,0,0,0,2.07.4,4.19,4.19,0,0,0,2.51-.71,3.38,3.38,0,0,0,1.29-2.16h2.39A6,6,0,0,1,625.64,28.21Zm-.58-9.42a4.18,4.18,0,0,0-.88-1.32,4.1,4.1,0,0,0-3-1.2,4.3,4.3,0,0,0-1.68.32,3.94,3.94,0,0,0-1.29.9,4.16,4.16,0,0,0-.85,1.32,5,5,0,0,0-.37,1.6h8.42A5.18,5.18,0,0,0,625.06,18.79Z"/><path class="cls-1" d="M633,14.48v2H633a3.61,3.61,0,0,1,1.87-1.78,7.15,7.15,0,0,1,2.81-.55,6.55,6.55,0,0,1,3,.63,6,6,0,0,1,2.1,1.68A7.4,7.4,0,0,1,644,18.9a9.84,9.84,0,0,1,.43,3,10.46,10.46,0,0,1-.41,2.95,7,7,0,0,1-1.25,2.43,6,6,0,0,1-2.1,1.63,7.3,7.3,0,0,1-4.14.48,6.52,6.52,0,0,1-1.32-.37,5.16,5.16,0,0,1-1.23-.69,3.94,3.94,0,0,1-1-1.09H633v7.54h-2.41V14.48Zm8.67,5.21a5.34,5.34,0,0,0-.83-1.75,4.05,4.05,0,0,0-1.41-1.22,4.37,4.37,0,0,0-2-.45,4.17,4.17,0,0,0-2.07.48A4.11,4.11,0,0,0,633.92,18a5.25,5.25,0,0,0-.78,1.77,8.65,8.65,0,0,0-.24,2,8.4,8.4,0,0,0,.25,2.08,5.13,5.13,0,0,0,.81,1.77,4.19,4.19,0,0,0,1.43,1.24,4.53,4.53,0,0,0,2.13.47,4.1,4.1,0,0,0,2.08-.49A3.83,3.83,0,0,0,641,25.6a5.57,5.57,0,0,0,.74-1.82,9.72,9.72,0,0,0,.23-2.1A7.4,7.4,0,0,0,641.65,19.69Z"/><path class="cls-1" d="M649.8,14.48v2h.06a3.58,3.58,0,0,1,1.87-1.78,7.1,7.1,0,0,1,2.8-.55,6.57,6.57,0,0,1,3,.63,6,6,0,0,1,2.1,1.68,7.79,7.79,0,0,1,1.26,2.45,10.69,10.69,0,0,1,0,5.9,6.84,6.84,0,0,1-1.25,2.43,5.83,5.83,0,0,1-2.09,1.63,6.8,6.8,0,0,1-2.94.59,6.68,6.68,0,0,1-1.2-.11,6.18,6.18,0,0,1-1.32-.37,5.22,5.22,0,0,1-1.24-.69,4.06,4.06,0,0,1-1-1.09h-.06v7.54h-2.41V14.48Zm8.66,5.21a5.32,5.32,0,0,0-.82-1.75,4,4,0,0,0-1.42-1.22,4.34,4.34,0,0,0-2-.45A4,4,0,0,0,650.73,18a5.25,5.25,0,0,0-.78,1.77,8.65,8.65,0,0,0-.24,2,8.41,8.41,0,0,0,.26,2.08,5.13,5.13,0,0,0,.81,1.77,4.1,4.1,0,0,0,1.43,1.24,4.47,4.47,0,0,0,2.13.47,4.13,4.13,0,0,0,2.08-.49,3.83,3.83,0,0,0,1.35-1.27,5.56,5.56,0,0,0,.73-1.82,9.72,9.72,0,0,0,.23-2.1A7.4,7.4,0,0,0,658.46,19.69Z"/><path class="cls-1" d="M674.5,28.21a6.68,6.68,0,0,1-4.14,1.24,7.48,7.48,0,0,1-3.05-.56,6.08,6.08,0,0,1-2.17-1.59,6.61,6.61,0,0,1-1.32-2.44,12,12,0,0,1-.5-3.09,8.77,8.77,0,0,1,.51-3.06,7.36,7.36,0,0,1,1.44-2.41,6.49,6.49,0,0,1,2.18-1.59,6.63,6.63,0,0,1,2.77-.57,6,6,0,0,1,3.24.81A6.37,6.37,0,0,1,675.53,17a8.08,8.08,0,0,1,1.08,2.72,11.45,11.45,0,0,1,.24,2.8h-11a5.75,5.75,0,0,0,.22,1.83,4.1,4.1,0,0,0,2.27,2.6,5.09,5.09,0,0,0,2.07.4,4.19,4.19,0,0,0,2.51-.71,3.46,3.46,0,0,0,1.29-2.16h2.38A5.89,5.89,0,0,1,674.5,28.21Zm-.58-9.42a4.36,4.36,0,0,0-.88-1.32,4.1,4.1,0,0,0-3-1.2,4.3,4.3,0,0,0-1.68.32,3.84,3.84,0,0,0-1.29.9,4.36,4.36,0,0,0-.86,1.32,5,5,0,0,0-.36,1.6h8.42A5.18,5.18,0,0,0,673.92,18.79Z"/><path class="cls-1" d="M478.18,62.93a9.62,9.62,0,0,1-3.54.7,9.45,9.45,0,0,1-4.06-.84,9.12,9.12,0,0,1-3-2.26,9.74,9.74,0,0,1-1.9-3.26,11.25,11.25,0,0,1-.65-3.83,14.29,14.29,0,0,1,.61-4.21,10.3,10.3,0,0,1,1.81-3.5,8.75,8.75,0,0,1,3-2.39,9.29,9.29,0,0,1,4.21-.9,12.42,12.42,0,0,1,3.1.38A7.82,7.82,0,0,1,480.35,44a7.12,7.12,0,0,1,1.93,2.08,8.27,8.27,0,0,1,1.06,3h-2.69a5.3,5.3,0,0,0-.74-2,4.83,4.83,0,0,0-1.33-1.37,5.9,5.9,0,0,0-1.8-.81,8.26,8.26,0,0,0-2.14-.27,6.19,6.19,0,0,0-5.32,2.68,8.29,8.29,0,0,0-1.23,2.75,12.44,12.44,0,0,0-.4,3.16,10.28,10.28,0,0,0,.45,3.05,7.91,7.91,0,0,0,1.34,2.58,6.32,6.32,0,0,0,5.16,2.46,7.17,7.17,0,0,0,2.8-.52,5.79,5.79,0,0,0,2.06-1.4,5.72,5.72,0,0,0,1.26-2.1,6.7,6.7,0,0,0,.37-2.59h-6.46V52.51h8.87V63.17h-1.7l-.71-2.52A6.68,6.68,0,0,1,478.18,62.93Z"/><path class="cls-1" d="M500.1,63.11a3.34,3.34,0,0,1-1.73.37,2.08,2.08,0,0,1-1.49-.52,2.32,2.32,0,0,1-.55-1.72A5.71,5.71,0,0,1,494,63a7.64,7.64,0,0,1-2.85.52,7.77,7.77,0,0,1-1.89-.22,4.55,4.55,0,0,1-1.54-.71,3.39,3.39,0,0,1-1-1.26,4.33,4.33,0,0,1-.38-1.89,4.23,4.23,0,0,1,.43-2,3.59,3.59,0,0,1,1.12-1.29,5.13,5.13,0,0,1,1.58-.75,18.71,18.71,0,0,1,1.83-.43q1-.2,1.89-.3a10.11,10.11,0,0,0,1.57-.28,2.49,2.49,0,0,0,1.08-.54,1.33,1.33,0,0,0,.4-1,2.4,2.4,0,0,0-.3-1.28,2,2,0,0,0-.77-.74,3.16,3.16,0,0,0-1-.34A8.86,8.86,0,0,0,493,50.3a5.1,5.1,0,0,0-2.56.58,2.46,2.46,0,0,0-1.1,2.2h-2.41a5.23,5.23,0,0,1,.56-2.3,4.36,4.36,0,0,1,1.37-1.52,5.56,5.56,0,0,1,1.94-.83,10.29,10.29,0,0,1,2.34-.26,14.39,14.39,0,0,1,2,.14,5.34,5.34,0,0,1,1.77.58,3.43,3.43,0,0,1,1.28,1.23,4,4,0,0,1,.48,2.07v7.53a5.34,5.34,0,0,0,.1,1.24c.06.26.29.4.66.4a2.26,2.26,0,0,0,.74-.15Zm-3.91-7.54a3,3,0,0,1-1.19.5c-.49.1-1,.19-1.55.25l-1.63.23a6.05,6.05,0,0,0-1.47.41,2.72,2.72,0,0,0-1.07.81,2.29,2.29,0,0,0-.41,1.43,1.87,1.87,0,0,0,.87,1.67,2.46,2.46,0,0,0,.89.37,4.7,4.7,0,0,0,1.08.12,5.66,5.66,0,0,0,2-.33,4.33,4.33,0,0,0,1.39-.82,3.19,3.19,0,0,0,.79-1.08,2.74,2.74,0,0,0,.26-1.09Z"/><path class="cls-1" d="M504.84,42.92V50.5h.06a3.58,3.58,0,0,1,1.87-1.78,6.93,6.93,0,0,1,2.8-.55,6.7,6.7,0,0,1,3,.62,6.11,6.11,0,0,1,2.1,1.69,7.79,7.79,0,0,1,1.26,2.45,10.69,10.69,0,0,1,0,5.9,6.84,6.84,0,0,1-1.25,2.43,5.83,5.83,0,0,1-2.09,1.63,7,7,0,0,1-2.94.59,7.75,7.75,0,0,1-1.2-.11,6.82,6.82,0,0,1-1.32-.37,5.22,5.22,0,0,1-1.24-.69,4,4,0,0,1-1-1.1h-.06v2h-2.41V42.92Zm8.66,10.79a5.37,5.37,0,0,0-.82-1.74,4,4,0,0,0-1.42-1.22,4.34,4.34,0,0,0-2-.45A4,4,0,0,0,505.77,52a5.25,5.25,0,0,0-.78,1.77,8.65,8.65,0,0,0-.24,2,8.41,8.41,0,0,0,.26,2.08,5.13,5.13,0,0,0,.81,1.77,4.2,4.2,0,0,0,1.43,1.24,4.47,4.47,0,0,0,2.13.47,4.13,4.13,0,0,0,2.08-.49,3.83,3.83,0,0,0,1.35-1.27,5.56,5.56,0,0,0,.73-1.82,9.72,9.72,0,0,0,.23-2.1A7.53,7.53,0,0,0,513.5,53.71Z"/><path class="cls-1" d="M521.34,48.51V51.6h.06A6.51,6.51,0,0,1,523.55,49a5.46,5.46,0,0,1,3.24-.79v2.55a6.69,6.69,0,0,0-2.47.4,3.89,3.89,0,0,0-1.65,1.16,4.89,4.89,0,0,0-.9,1.86,10,10,0,0,0-.29,2.51v6.52h-2.41V48.51Z"/><path class="cls-1" d="M528.74,45.87V42.92h2.41v2.95Zm2.41,2.64V63.17h-2.41V48.51Z"/><path class="cls-1" d="M545.27,62.24a6.64,6.64,0,0,1-4.14,1.24,7.64,7.64,0,0,1-3-.56,6,6,0,0,1-2.17-1.59,6.69,6.69,0,0,1-1.32-2.44,11.62,11.62,0,0,1-.5-3.09,8.77,8.77,0,0,1,.51-3.06A7.34,7.34,0,0,1,536,50.33a6.49,6.49,0,0,1,2.19-1.59,6.62,6.62,0,0,1,2.76-.57,6,6,0,0,1,3.25.81A6.44,6.44,0,0,1,546.31,51a8.21,8.21,0,0,1,1.08,2.73,11.45,11.45,0,0,1,.24,2.8h-11a5.75,5.75,0,0,0,.23,1.83,4,4,0,0,0,2.27,2.6,5.06,5.06,0,0,0,2.07.4,4.19,4.19,0,0,0,2.51-.71A3.49,3.49,0,0,0,545,58.52h2.38A5.86,5.86,0,0,1,545.27,62.24Zm-.58-9.42a4,4,0,0,0-.88-1.32,4.06,4.06,0,0,0-3-1.2,4.35,4.35,0,0,0-1.69.32,3.94,3.94,0,0,0-1.29.9,4.11,4.11,0,0,0-.85,1.32,5,5,0,0,0-.37,1.6h8.43A4.93,4.93,0,0,0,544.69,52.82Z"/><path class="cls-1" d="M552.68,42.92V63.17h-2.41V42.92Z"/><path class="cls-1" d="M576.89,62.93a9.62,9.62,0,0,1-3.54.7,9.45,9.45,0,0,1-4.06-.84,9.12,9.12,0,0,1-3-2.26,9.74,9.74,0,0,1-1.9-3.26,11.25,11.25,0,0,1-.65-3.83,14.29,14.29,0,0,1,.61-4.21,10.3,10.3,0,0,1,1.81-3.5,8.75,8.75,0,0,1,3-2.39,9.29,9.29,0,0,1,4.21-.9,12.42,12.42,0,0,1,3.1.38A7.82,7.82,0,0,1,579.06,44,7.12,7.12,0,0,1,581,46.11a8.27,8.27,0,0,1,1.06,3h-2.69a5.3,5.3,0,0,0-.74-2,4.83,4.83,0,0,0-1.33-1.37,5.9,5.9,0,0,0-1.8-.81,8.26,8.26,0,0,0-2.14-.27A6.19,6.19,0,0,0,568,47.39a8.29,8.29,0,0,0-1.23,2.75,12.44,12.44,0,0,0-.4,3.16,10.28,10.28,0,0,0,.45,3.05,7.91,7.91,0,0,0,1.34,2.58,6.32,6.32,0,0,0,5.16,2.46,7.17,7.17,0,0,0,2.8-.52,5.79,5.79,0,0,0,2.06-1.4,5.72,5.72,0,0,0,1.26-2.1,6.7,6.7,0,0,0,.37-2.59h-6.46V52.51h8.87V63.17h-1.7l-.71-2.52A6.68,6.68,0,0,1,576.89,62.93Z"/><path class="cls-1" d="M595.69,63.17V60.85h-.05a5,5,0,0,1-2,2,5.92,5.92,0,0,1-2.81.63,6.48,6.48,0,0,1-2.41-.38A3.86,3.86,0,0,1,586.9,62a4.06,4.06,0,0,1-.83-1.69,8.57,8.57,0,0,1-.25-2.17V48.51h2.41v9.93a2.91,2.91,0,0,0,.8,2.15,3,3,0,0,0,2.18.8,4.88,4.88,0,0,0,1.92-.35,3.51,3.51,0,0,0,1.34-1,4.17,4.17,0,0,0,.81-1.46,6,6,0,0,0,.27-1.83V48.51H598V63.17Z"/><path class="cls-1" d="M607.86,48.51v2.13h-2.92v9.1a2.53,2.53,0,0,0,.07.68.76.76,0,0,0,.27.4,1.23,1.23,0,0,0,.55.18,7.75,7.75,0,0,0,.92,0h1.11v2.13H606a8.27,8.27,0,0,1-1.6-.13,2.43,2.43,0,0,1-1.08-.46,2,2,0,0,1-.6-1,5.26,5.26,0,0,1-.2-1.64V50.64H600V48.51h2.5v-4.4h2.41v4.4Z"/><path class="cls-1" d="M610.67,45.87V42.92h2.41v2.95Zm2.41,2.64V63.17h-2.41V48.51Z"/><path class="cls-1" d="M627.2,62.24a6.68,6.68,0,0,1-4.14,1.24,7.65,7.65,0,0,1-3-.56,6.08,6.08,0,0,1-2.17-1.59,6.69,6.69,0,0,1-1.32-2.44,12,12,0,0,1-.5-3.09,8.77,8.77,0,0,1,.51-3.06A7.36,7.36,0,0,1,618,50.33a6.36,6.36,0,0,1,2.18-1.59,6.63,6.63,0,0,1,2.77-.57,6,6,0,0,1,3.24.81A6.44,6.44,0,0,1,628.23,51a8.21,8.21,0,0,1,1.08,2.73,11.45,11.45,0,0,1,.24,2.8h-11a5.75,5.75,0,0,0,.22,1.83,4.1,4.1,0,0,0,2.27,2.6,5.09,5.09,0,0,0,2.07.4,4.19,4.19,0,0,0,2.51-.71,3.49,3.49,0,0,0,1.29-2.16h2.38A5.89,5.89,0,0,1,627.2,62.24Zm-.58-9.42a4.18,4.18,0,0,0-.88-1.32,4.1,4.1,0,0,0-3-1.2,4.3,4.3,0,0,0-1.68.32,3.84,3.84,0,0,0-1.29.9,4.13,4.13,0,0,0-.86,1.32,5,5,0,0,0-.36,1.6H627A5.18,5.18,0,0,0,626.62,52.82Zm-3-11.48-2.72,4.59h1.82l4-4.59Z"/><path class="cls-1" d="M634.23,48.51V51.6h.06A6.51,6.51,0,0,1,636.44,49a5.45,5.45,0,0,1,3.23-.79v2.55a6.67,6.67,0,0,0-2.46.4,3.89,3.89,0,0,0-1.65,1.16,4.91,4.91,0,0,0-.91,1.86,10.46,10.46,0,0,0-.28,2.51v6.52H632V48.51Z"/><path class="cls-1" d="M643.67,48.51V51.6h.06A6.6,6.6,0,0,1,645.88,49a5.46,5.46,0,0,1,3.24-.79v2.55a6.69,6.69,0,0,0-2.47.4A3.8,3.8,0,0,0,645,52.28a4.76,4.76,0,0,0-.91,1.86,10,10,0,0,0-.28,2.51v6.52H641.4V48.51Z"/><path class="cls-1" d="M660.8,62.24a6.68,6.68,0,0,1-4.14,1.24,7.69,7.69,0,0,1-3-.56,6.08,6.08,0,0,1-2.17-1.59,7,7,0,0,1-1.32-2.44,12,12,0,0,1-.49-3.09,8.77,8.77,0,0,1,.51-3.06,7.34,7.34,0,0,1,1.43-2.41,6.36,6.36,0,0,1,2.18-1.59,6.7,6.7,0,0,1,2.77-.57,6,6,0,0,1,3.25.81A6.44,6.44,0,0,1,661.84,51a8.19,8.19,0,0,1,1.07,2.73,11.45,11.45,0,0,1,.24,2.8h-11a5.75,5.75,0,0,0,.23,1.83,4,4,0,0,0,2.27,2.6,5,5,0,0,0,2.07.4,4.21,4.21,0,0,0,2.51-.71,3.49,3.49,0,0,0,1.29-2.16h2.38A5.86,5.86,0,0,1,660.8,62.24Zm-.58-9.42a4.1,4.1,0,0,0-2.18-2.2,4.54,4.54,0,0,0-3.35,0,3.94,3.94,0,0,0-1.29.9,4.11,4.11,0,0,0-.85,1.32,5,5,0,0,0-.37,1.6h8.42A4.92,4.92,0,0,0,660.22,52.82Z"/><path class="cls-1" d="M673.31,50.64H665V48.51h11.4v1.65l-9,10.88h9.36v2.13H664.46V61.33Z"/><path class="cls-1" d="M478.18,97a9.9,9.9,0,0,1-7.6-.14,9.12,9.12,0,0,1-3-2.26,9.74,9.74,0,0,1-1.9-3.26,11.25,11.25,0,0,1-.65-3.83,14.29,14.29,0,0,1,.61-4.21,10.3,10.3,0,0,1,1.81-3.5,8.89,8.89,0,0,1,3-2.4,9.43,9.43,0,0,1,4.21-.89,12.42,12.42,0,0,1,3.1.38,7.82,7.82,0,0,1,2.61,1.21,7.12,7.12,0,0,1,1.93,2.08,8.21,8.21,0,0,1,1.06,3h-2.69a5.3,5.3,0,0,0-.74-2,4.7,4.7,0,0,0-1.33-1.37,5.9,5.9,0,0,0-1.8-.81,8.26,8.26,0,0,0-2.14-.27,6.29,6.29,0,0,0-3.16.74,6.4,6.4,0,0,0-2.16,1.94,8.29,8.29,0,0,0-1.23,2.75,12.39,12.39,0,0,0-.4,3.16,10.28,10.28,0,0,0,.45,3A8.12,8.12,0,0,0,469.48,93a6.28,6.28,0,0,0,5.16,2.45,7.17,7.17,0,0,0,2.8-.51,5.74,5.74,0,0,0,3.32-3.5,6.7,6.7,0,0,0,.37-2.59h-6.46V86.54h8.87V97.2h-1.7l-.71-2.52A6.76,6.76,0,0,1,478.18,97Z"/><path class="cls-1" d="M497,97.2V94.87h-.05a4.91,4.91,0,0,1-2,2,5.8,5.8,0,0,1-2.81.64,6.69,6.69,0,0,1-2.41-.38A4,4,0,0,1,488.19,96a4.12,4.12,0,0,1-.83-1.69,8.62,8.62,0,0,1-.25-2.17V82.54h2.42v9.92a2.92,2.92,0,0,0,.79,2.16,3,3,0,0,0,2.18.79,4.88,4.88,0,0,0,1.92-.34,3.62,3.62,0,0,0,1.34-1,4.17,4.17,0,0,0,.81-1.46,6,6,0,0,0,.27-1.83V82.54h2.41V97.2Z"/><path class="cls-1" d="M503,79.9V77h2.41v3Zm2.41,2.64V97.2H503V82.54Z"/><path class="cls-1" d="M511.73,77V97.2h-2.41V77Z"/><path class="cls-1" d="M518,77V97.2h-2.41V77Z"/><path class="cls-1" d="M532.15,96.26A6.62,6.62,0,0,1,528,97.51a7.48,7.48,0,0,1-3-.57,5.86,5.86,0,0,1-2.17-1.58,6.69,6.69,0,0,1-1.32-2.44,12,12,0,0,1-.5-3.09,8.87,8.87,0,0,1,.51-3.07,7.44,7.44,0,0,1,1.43-2.41,6.47,6.47,0,0,1,2.19-1.58,6.62,6.62,0,0,1,2.76-.57,6,6,0,0,1,3.25.81,6.44,6.44,0,0,1,2.07,2,8.16,8.16,0,0,1,1.08,2.72,11.53,11.53,0,0,1,.24,2.81h-11a5.78,5.78,0,0,0,.22,1.83,4.19,4.19,0,0,0,.82,1.53A4.06,4.06,0,0,0,526,95a5.1,5.1,0,0,0,2.07.39,4.12,4.12,0,0,0,2.51-.71,3.44,3.44,0,0,0,1.29-2.15h2.38A5.87,5.87,0,0,1,532.15,96.26Zm-.59-9.41a4.16,4.16,0,0,0-.87-1.32,4.25,4.25,0,0,0-1.31-.88,4.06,4.06,0,0,0-1.66-.32,4.18,4.18,0,0,0-1.69.32,4.07,4.07,0,0,0-1.29.89,4.34,4.34,0,0,0-.85,1.32,5,5,0,0,0-.36,1.61H532A4.93,4.93,0,0,0,531.56,86.85Z"/><path class="cls-1" d="M539.18,82.54v3.09h.05A6.61,6.61,0,0,1,541.39,83a5.45,5.45,0,0,1,3.23-.79v2.55a6.77,6.77,0,0,0-2.47.4,3.86,3.86,0,0,0-1.64,1.16,4.76,4.76,0,0,0-.91,1.86,10,10,0,0,0-.28,2.51V97.2h-2.41V82.54Z"/><path class="cls-1" d="M548.7,82.54v2.15h.06a5.35,5.35,0,0,1,4.74-2.49,5.28,5.28,0,0,1,2.46.57,3.14,3.14,0,0,1,1.56,1.92,5.21,5.21,0,0,1,2-1.84,5.5,5.5,0,0,1,2.65-.65,7.72,7.72,0,0,1,2,.24,4.21,4.21,0,0,1,1.53.75,3.49,3.49,0,0,1,1,1.32,4.77,4.77,0,0,1,.36,1.94V97.2h-2.41V87.59a6.47,6.47,0,0,0-.12-1.28,2.57,2.57,0,0,0-.42-1,2.1,2.1,0,0,0-.87-.7,3.43,3.43,0,0,0-1.43-.25,3.8,3.8,0,0,0-2.81,1,3.67,3.67,0,0,0-1,2.72V97.2h-2.41V87.59a5.94,5.94,0,0,0-.13-1.31,2.66,2.66,0,0,0-.44-1,1.92,1.92,0,0,0-.83-.68,3.26,3.26,0,0,0-1.35-.24,3.63,3.63,0,0,0-1.8.42,4,4,0,0,0-1.22,1,4.11,4.11,0,0,0-.68,1.24,3.45,3.45,0,0,0-.21,1.06V97.2h-2.41V82.54Z"/><path class="cls-1" d="M570.29,86.86a6.78,6.78,0,0,1,1.36-2.44,6.39,6.39,0,0,1,2.24-1.63,8.28,8.28,0,0,1,6.14,0,6.4,6.4,0,0,1,2.22,1.63,6.78,6.78,0,0,1,1.36,2.44,9.6,9.6,0,0,1,.46,3,9.45,9.45,0,0,1-.46,3,6.69,6.69,0,0,1-1.36,2.42A6.26,6.26,0,0,1,580,96.93a8.41,8.41,0,0,1-6.14,0,6.24,6.24,0,0,1-2.24-1.62,6.69,6.69,0,0,1-1.36-2.42,9.45,9.45,0,0,1-.46-3A9.6,9.6,0,0,1,570.29,86.86Zm2.45,5.39a4.92,4.92,0,0,0,1,1.73A4.13,4.13,0,0,0,575.18,95a4.42,4.42,0,0,0,3.54,0A4.13,4.13,0,0,0,580.18,94a4.92,4.92,0,0,0,1-1.73,7.95,7.95,0,0,0,0-4.73,5.11,5.11,0,0,0-1-1.75,4.18,4.18,0,0,0-1.46-1.08,4.53,4.53,0,0,0-3.54,0,4.18,4.18,0,0,0-1.46,1.08,5.11,5.11,0,0,0-1,1.75,7.95,7.95,0,0,0,0,4.73Z"/><path class="cls-1" d="M609.28,95.71a8.28,8.28,0,0,1-5.9,1.94,9.21,9.21,0,0,1-6.11-1.85q-2.21-1.86-2.2-5.92V77h2.69V89.88A5.52,5.52,0,0,0,599.21,94a5.76,5.76,0,0,0,4.17,1.4,5.22,5.22,0,0,0,3.93-1.4,5.78,5.78,0,0,0,1.34-4.13V77h2.7V89.88C611.35,92.47,610.66,94.42,609.28,95.71Z"/><path class="cls-1" d="M617.44,82.54v3.09h.06A6.6,6.6,0,0,1,619.65,83a5.48,5.48,0,0,1,3.24-.79v2.55a6.69,6.69,0,0,0-2.47.4,3.8,3.8,0,0,0-1.64,1.16,4.76,4.76,0,0,0-.91,1.86,10,10,0,0,0-.28,2.51V97.2h-2.42V82.54Z"/><path class="cls-1" d="M627.2,77v7.57h0a3.65,3.65,0,0,1,1.88-1.77,6.93,6.93,0,0,1,2.8-.55,6.7,6.7,0,0,1,3,.62A6,6,0,0,1,637,84.51,7.61,7.61,0,0,1,638.26,87a10.69,10.69,0,0,1,0,5.9A6.84,6.84,0,0,1,637,95.29a5.83,5.83,0,0,1-2.09,1.63,7,7,0,0,1-2.94.59,8,8,0,0,1-1.21-.11,6.93,6.93,0,0,1-1.31-.37,4.93,4.93,0,0,1-1.24-.7,4,4,0,0,1-1-1.09h0v2h-2.41V77Zm8.66,10.79A5.37,5.37,0,0,0,635,86a4,4,0,0,0-1.42-1.22,4.34,4.34,0,0,0-2-.45,4,4,0,0,0-3.46,1.74,5.25,5.25,0,0,0-.78,1.77,8.53,8.53,0,0,0,0,4.1,5.13,5.13,0,0,0,.81,1.77,4,4,0,0,0,1.43,1.23,4.34,4.34,0,0,0,2.12.47,4.14,4.14,0,0,0,2.09-.48,3.85,3.85,0,0,0,1.35-1.28,5.42,5.42,0,0,0,.73-1.81,9.72,9.72,0,0,0,.23-2.1A7.48,7.48,0,0,0,635.86,87.74Z"/><path class="cls-1" d="M646.93,75.36l-4,4.6h-1.82l2.72-4.6ZM641.66,97.2h2.41V82.54h-2.41Z"/><path class="cls-1" d="M650.08,82.54v2.32h.06a5.08,5.08,0,0,1,4.76-2.66,6.22,6.22,0,0,1,2.41.4,3.9,3.9,0,0,1,1.56,1.1,4.08,4.08,0,0,1,.84,1.69,9.07,9.07,0,0,1,.24,2.17V97.2h-2.41V87.27a2.75,2.75,0,0,0-3-2.94,4.83,4.83,0,0,0-1.91.34,3.47,3.47,0,0,0-1.35,1,4.17,4.17,0,0,0-.81,1.46,6,6,0,0,0-.27,1.83V97.2h-2.41V82.54Z"/><path class="cls-2" d="M87.05,84.26a3,3,0,0,1-2.88,3.24c-1.33,0-1.68-1-1.68-2.26V78h-3.7v7.86c0,3.31,1.5,5,4.29,5a4.64,4.64,0,0,0,4.08-2.61v2.25h3.53V78H87.05Z"/><polygon class="cls-2" points="0 0 0 24.03 4.81 24.03 4.81 14.49 11.66 14.49 11.66 10.16 4.81 10.16 4.81 4.81 11.79 4.81 11.79 0 0 0"/><polygon class="cls-2" points="106 0.01 18.21 0.01 18.21 4.8 101.05 4.8 101.04 101.17 4.81 101.18 4.82 30.17 0 30.17 0 106 105.99 106 105.99 106 106 106 106 0.01"/><path class="cls-2" d="M21.79,87.54a3.18,3.18,0,1,1,3.09-3.18,3.13,3.13,0,0,1-3.09,3.18m6.76-15.09H24.88v6a4.22,4.22,0,0,0,.09,1l0,.12a5,5,0,0,0-4-1.63c-3,0-5.65,2.18-5.65,6.35s2.3,6.51,5.75,6.51c2.78,0,3.74-1.48,4.1-2.66h.05a11.4,11.4,0,0,0-.05,1.3v1.13h3.41Z"/><path class="cls-2" d="M84,26.25a1.77,1.77,0,0,1-1.83-2c.08-1.26,1.65-2.21,4.75-1.61,0,2-.88,3.64-2.92,3.59m.76-10.91a11.24,11.24,0,0,0-4.52.82v3.36a7.93,7.93,0,0,1,4-1.07c1.87,0,2.7.68,2.7,2.42V21c-3.87-1.06-7.7.64-7.7,3.8a3.66,3.66,0,0,0,3.84,3.79c2.35,0,3.7-1.24,4.1-2.65v2.31h3.49v-7.9c0-3.13-2-5-5.89-5"/><path class="cls-2" d="M395.65,53V90A3.65,3.65,0,0,1,392,93.72q-26.61,0-53.21,0a10.06,10.06,0,0,1-4.95-1.58A20.58,20.58,0,0,1,323.74,79a4.64,4.64,0,0,1,.37-2.8c3.39-7.7,6.86-15.36,10.28-23a3.64,3.64,0,0,0,.31-1.48q0-17.7,0-35.39c0-2.61,1.17-3.8,3.74-3.8h53.49c1.39,0,2.63.3,3.29,1.63a4.32,4.32,0,0,1,.41,1.91Q395.67,34.51,395.65,53ZM341.24,18.81V49.9h48.18V18.81Zm-9.58,56.11c.33,0,.51,0,.69,0q23.26,0,46.55,0a1,1,0,0,0,1.09-.68c2.47-5.75,5-11.49,7.45-17.24.1-.23.16-.48.25-.76l-.48,0q-23.23,0-46.46,0a1,1,0,0,0-1,.7c-1.31,3-2.67,6-4,8.94Zm-.1,6.36a13.38,13.38,0,0,0,5.91,5.61,5.27,5.27,0,0,0,2.17.51q20.42,0,40.83,0h1.09c-.17-.29-.27-.43-.34-.59-.79-1.56-1.67-3.08-2.31-4.7a1.19,1.19,0,0,0-1.35-.91h-45C332.25,81.23,332,81.26,331.56,81.28Z"/><path class="cls-2" d="M408.3,53V97.51a8.16,8.16,0,0,1-8.58,8.56H331.14a8.42,8.42,0,0,1-8.77-9.35,3.14,3.14,0,0,1,3.32-3,3.09,3.09,0,0,1,3,3.15c0,.37,0,.73,0,1.1a1.81,1.81,0,0,0,1.74,1.76c.54,0,1.09,0,1.63,0h67.5c1.9,0,2.47-.58,2.47-2.5q0-44.25,0-88.5c0-1.82-.64-2.46-2.46-2.46H331.35c-2,0-2.68.67-2.68,2.65V52.85a3.13,3.13,0,0,1-4.62,3,3.21,3.21,0,0,1-1.69-3.09q0-8.6,0-17.19v-27A8.19,8.19,0,0,1,331,0h69a8.18,8.18,0,0,1,8.31,8.28Z"/><path class="cls-2" d="M217.93,78.2l17.6,27.8,29.81-49.61H238.43V74.91h-6.94V56.39H188.87a25,25,0,0,0-25.14,23.45,24.78,24.78,0,0,0,24.74,26.1h39L214.19,85.19v0H188.82V78.2Z"/><polygon class="cls-2" points="188.81 28.46 188.81 0 165.9 0 165.9 49.55 188.81 49.55 209.85 49.55 209.85 28.46 188.81 28.46"/><path class="cls-2" d="M224.6,0H195.5a0,0,0,0,0,0,0V21.5a0,0,0,0,0,0,0h21.36a0,0,0,0,1,0,0v6.87l0,21.11h8.92a24.77,24.77,0,0,0,24.06-24.25C250.11,11.34,238.55,0,224.6,0Z"/></g></g></svg>