<svg xmlns="http://www.w3.org/2000/svg" viewBox="0 0 408.31 332.91"><defs><style>.cls-1,.cls-5{opacity:0.2;}.cls-1{isolation:isolate;}.cls-1,.cls-7{font-size:24px;fill:#42658b;font-family:HelveticaNeue, Helvetica Neue;}.cls-2{letter-spacing:-0.11em;}.cls-3{letter-spacing:-0.02em;}.cls-4{letter-spacing:-0.02em;}.cls-6{fill:#057;}.cls-8{letter-spacing:-0.02em;}</style></defs><title>Recurso 2</title><g id="Capa_2" data-name="Capa 2"><g id="Capa_1-2" data-name="Capa 1"><text class="cls-1" transform="translate(67.16 292.56)">Copyright ® 2019 - 2020.<tspan class="cls-2" x="-33.25" y="28.8">T</tspan><tspan x="-22.14" y="28.8">odos los de</tspan><tspan class="cls-3" x="103.21" y="28.8">r</tspan><tspan x="110.77" y="28.8">echos </tspan><tspan class="cls-4" x="182.34" y="28.8">r</tspan><tspan x="189.9" y="28.8">eservados.</tspan></text><g class="cls-5"><path class="cls-6" d="M87.1,84.3a2.94,2.94,0,0,1-2.7,3.2h-.1c-1.3,0-1.7-1-1.7-2.3V78H78.9v7.9c0,3.3,1.5,5,4.3,5a4.63,4.63,0,0,0,4.1-2.6v2.2h3.5V78H87.2v6.3Z"/><polygon class="cls-6" points="0 0 0 24 4.8 24 4.8 14.5 11.7 14.5 11.7 10.2 4.8 10.2 4.8 4.8 11.8 4.8 11.8 0 0 0"/><polygon class="cls-6" points="106 0 18.2 0 18.2 4.8 101.1 4.8 101 101.2 4.8 101.2 4.8 30.2 0 30.2 0 106 106 106 106 106 106 106 106 0"/><path class="cls-6" d="M21.8,87.5a3.22,3.22,0,0,1-3.3-3.1,3.16,3.16,0,0,1,3.1-3.3,3.22,3.22,0,0,1,3.3,3.1v.1a3.14,3.14,0,0,1-3.1,3.2h0m6.8-15.1H24.9v6a3.4,3.4,0,0,0,.1,1v.1a5,5,0,0,0-4-1.6c-3,0-5.6,2.2-5.6,6.3s2.3,6.5,5.8,6.5c2.8,0,3.7-1.5,4.1-2.7h0a5.65,5.65,0,0,0,0,1.3v1.1h3.4Z"/><path class="cls-6" d="M84,26.2a1.71,1.71,0,0,1-1.8-1.7v-.3c.1-1.3,1.7-2.2,4.8-1.6-.1,2-1,3.7-3,3.6m.8-10.9a11.56,11.56,0,0,0-4.5.8v3.4a8,8,0,0,1,4-1.1c1.9,0,2.7.7,2.7,2.4V21c-3.9-1.1-7.7.6-7.7,3.8a3.67,3.67,0,0,0,3.5,3.8h.3c2.3,0,3.7-1.2,4.1-2.6v2.3h3.5V20.4c0-3.2-2-5.1-5.9-5.1"/><path class="cls-6" d="M395.6,53V90a3.67,3.67,0,0,1-3.6,3.7H338.7a9.86,9.86,0,0,1-5-1.6A20.53,20.53,0,0,1,323.6,79a4.6,4.6,0,0,1,.4-2.8c3.4-7.7,6.9-15.4,10.3-23a4,4,0,0,0,.3-1.5V16.3c0-2.6,1.2-3.8,3.7-3.8h53.5c1.4,0,2.6.3,3.3,1.6a4.33,4.33,0,0,1,.4,1.9C395.7,28.4,395.7,40.7,395.6,53ZM341.2,18.8V49.9h48.2V18.8Zm-9.5,56.1h47.2a1,1,0,0,0,1.1-.7c2.5-5.8,5-11.5,7.5-17.2a1.88,1.88,0,0,0,.2-.8h-47a1,1,0,0,0-1,.7c-1.3,3-2.7,6-4,8.9Zm-.1,6.4a13.32,13.32,0,0,0,5.9,5.6,5.45,5.45,0,0,0,2.2.5h41.9c-.2-.3-.3-.4-.3-.6a50.83,50.83,0,0,1-2.3-4.7,1.18,1.18,0,0,0-1.4-.9h-45C332.2,81.2,332,81.3,331.6,81.3Z"/><path class="cls-6" d="M408.3,53V97.5a8.23,8.23,0,0,1-7.7,8.6H331.2a8.46,8.46,0,0,1-8.8-8V96.8a3.14,3.14,0,0,1,3.3-3h0a3.12,3.12,0,0,1,3,3.2v1.1a1.84,1.84,0,0,0,1.7,1.8h69.1c1.9,0,2.5-.6,2.5-2.5V8.9c0-1.8-.6-2.5-2.5-2.5H331.3c-2,0-2.7.7-2.7,2.7V53a3.2,3.2,0,0,1-2.9,3.4,3.92,3.92,0,0,1-1.8-.4,3.26,3.26,0,0,1-1.7-3.1V8.7A8.25,8.25,0,0,1,330,.1h69.9a8.15,8.15,0,0,1,8.3,8v.2Z"/><path class="cls-6" d="M217.9,78.2,235.5,106l29.8-49.6H238.4V74.9h-6.9V56.4H188.9a24.82,24.82,0,0,0-1.7,49.6h40.3L214.2,85.3H188.8v-7h29.1Z"/><polygon class="cls-6" points="188.8 28.5 188.8 0 165.9 0 165.9 49.5 188.8 49.5 209.9 49.5 209.9 28.5 188.8 28.5"/><path class="cls-6" d="M224.6,0H195.5V21.5h21.4v28h8.9a24.8,24.8,0,0,0,24.1-24.2A25.14,25.14,0,0,0,224.6,0Z"/></g><g class="cls-5"><text class="cls-7" transform="translate(113.7 173.71)">Claudia Ga<tspan class="cls-3" x="119.11" y="0">r</tspan><tspan x="126.67" y="0">eppe</tspan><tspan x="0.04" y="28.8">Gabriel Gutiér</tspan><tspan class="cls-8" x="148.9" y="28.8">r</tspan><tspan x="156.46" y="28.8">ez</tspan><tspan x="6.67" y="57.6">Guillermo Urbín</tspan></text></g></g></g></svg>