<svg xmlns="http://www.w3.org/2000/svg" viewBox="0 0 955.92 468.9"><defs><style>.cls-1{fill:#ec3237;}.cls-2{fill:#f48534;}.cls-3{fill:#fed723;}.cls-4{fill:#5fba51;}.cls-5{fill:#00aeee;}.cls-6{fill:#815aa3;}.cls-7{fill:none;}.cls-8{fill:#fee571;}.cls-9{fill:#eb282e;}.cls-10{fill:#f47f2b;}.cls-11{fill:#58b749;}.cls-12{fill:#fed519;}.cls-13{fill:#057;}</style></defs><title>Recurso 3</title><g id="Capa_2" data-name="Capa 2"><g id="Capa_1-2" data-name="Capa 1"><rect class="cls-1" x="47.02" y="438.9" width="145" height="28.72"/><rect class="cls-1" x="47.02" y="438.9" width="145" height="28.72"/><rect class="cls-2" x="192.23" y="438.9" width="145" height="28.72"/><rect class="cls-3" x="337.45" y="438.9" width="145" height="28.72"/><rect class="cls-4" x="482.66" y="438.9" width="145" height="28.72"/><rect class="cls-5" x="627.87" y="438.9" width="145" height="28.72"/><rect class="cls-6" x="773.09" y="438.9" width="145" height="28.72"/><path class="cls-7" d="M627.14,468a1.18,1.18,0,0,1,.11-.19h-.07Z"/><path class="cls-7" d="M482.1,468.15a1.77,1.77,0,0,1,.15-.31h-.1Z"/><path class="cls-7" d="M772.09,467.64H772l-.33.18.24,1.09c-.06-.33-.11-.65-.17-1A3,3,0,0,1,772.09,467.64Z"/><path class="cls-7" d="M336.91,468.09l0-.23h-.07A2.29,2.29,0,0,1,336.91,468.09Z"/><path class="cls-7" d="M337,467.7h0l-.09.16.18-.16Z"/><path class="cls-8" d="M337,468.9a1.65,1.65,0,0,0-.12-.81Z"/><path class="cls-8" d="M482,468.9l.1-.75A2,2,0,0,0,482,468.9Z"/><path class="cls-5" d="M626.76,467.47c.14.12.29.21.42.34h.07a2,2,0,0,1,.58-.59c2.17-1.13,4.53-.94,6.85-.94q64.7,0,129.39,0c2.61,0,5.38-.46,7.63,1.51l.33-.18q-.06-14.2-.11-28.42c-1.15-.1-2.31-.27-3.46-.27q-69,0-138.08,0c-1.15,0-2.31.16-3.47.26h0Q626.84,453.33,626.76,467.47Z"/><path class="cls-5" d="M764.07,466.3q-64.7-.06-129.39,0c-2.32,0-4.68-.19-6.85.94a2,2,0,0,0-.58.59H771.7C769.45,465.84,766.68,466.3,764.07,466.3Z"/><path class="cls-5" d="M626.76,467.47v.21l.42.14h0C627.05,467.68,626.9,467.59,626.76,467.47Z"/><path class="cls-2" d="M191.13,439.85c1.89,5.07.51,10.33.79,15.49.23,4.08,0,8.18,0,12.28h0s.22.33.22.33h.14a1.84,1.84,0,0,1,.68-.71c2.33-1.2,4.86-.94,7.33-.95q64.31,0,128.61,0c2.48,0,5-.26,7.34.94a1.77,1.77,0,0,1,.62.63h.07l.09-.16h0q0-14.26,0-28.53h0c-11.65-.09-23.29-.25-34.94-.24q-55.42,0-110.86.16a4.78,4.78,0,0,0,0,.76Zm3,.28h140.7l-.12.5H194.16Z"/><path class="cls-2" d="M336.19,467.23c-2.33-1.2-4.86-.93-7.34-.94q-64.31,0-128.61,0c-2.47,0-5-.25-7.33.95a1.84,1.84,0,0,0-.68.71l144.58-.09A1.77,1.77,0,0,0,336.19,467.23Z"/><path class="cls-4" d="M482.15,467.84h.1a1.87,1.87,0,0,1,.59-.6c2.17-1.14,4.53-.94,6.85-.94q64.94,0,129.87,0a21.73,21.73,0,0,1,6,.46,3.94,3.94,0,0,1,.83.39,6.6,6.6,0,0,1-.88-3.62c-.13-6.75-.15-13.5,0-20.25a5.42,5.42,0,0,1,1.42-4.08c-1.65-.1-3.3-.27-5-.27q-67.55,0-135.1,0c-1.65,0-3.31.16-5,.25q-.08,14.16-.13,28.32Zm142.69-27.57-.2.5H484.33v-.5Z"/><path class="cls-4" d="M626.35,467.15a3.94,3.94,0,0,0-.83-.39,21.73,21.73,0,0,0-6-.46q-64.93,0-129.87,0c-2.32,0-4.68-.2-6.85.94a1.87,1.87,0,0,0-.59.6q63.29,0,126.57.05c6,0,12-.14,17.94-.21h0A5,5,0,0,1,626.35,467.15Z"/><path class="cls-4" d="M481.75,467.73l.39.11h0l-.39-.34Z"/><path class="cls-4" d="M625.47,463.53a6.6,6.6,0,0,0,.88,3.62,3.22,3.22,0,0,1,.41.32q.09-14.13.15-28.27h0a5.42,5.42,0,0,0-1.42,4.08C625.32,450,625.34,456.78,625.47,463.53Z"/><path class="cls-4" d="M626.35,467.15a5,5,0,0,0,.41.53h0v-.21A3.22,3.22,0,0,0,626.35,467.15Z"/><path class="cls-3" d="M338.4,464.62c.36-7.46.37-14.92,0-22.38a4.2,4.2,0,0,0-1.43-3.07q0,14.26,0,28.53A4.34,4.34,0,0,0,338.4,464.62Z"/><path class="cls-3" d="M480.5,463.56a6.75,6.75,0,0,0,.83,3.59l.07,0,.36.32q.06-14.16.13-28.32a5.66,5.66,0,0,0-1.38,4.11C480.35,450.05,480.37,456.8,480.5,463.56Z"/><path class="cls-3" d="M481.4,467.18l-.07,0a4.47,4.47,0,0,0,.42.58h0v-.23Z"/><path class="cls-1" d="M191.75,467.62l-.38-.37c-1.84-1-3.86-1-5.85-1q-65.91,0-131.82,0c-2.32,0-4.7-.09-6.62,1.62l138.82,0C187.85,467.89,189.8,467.72,191.75,467.62Z"/><path class="cls-1" d="M191.92,455.34c-.28-5.16,1.1-10.42-.79-15.49h0l-.14.1h0l-.24.21a3.39,3.39,0,0,0-.11.65c-.19,7.06-.06,14.12,0,21.18,0,1.95-.16,4,1.28,5.63h0C191.91,463.52,192.15,459.42,191.92,455.34Z"/><path class="cls-1" d="M52.9,439.91H92.64q48.75,0,97.51,0l.67,0a3.12,3.12,0,0,1,.34-.77,12.53,12.53,0,0,0-1.49-.15q-69.52,0-139.06,0c-1.18,0-2.72-.75-3.5.94h2.55A19.48,19.48,0,0,1,52.9,439.91Z"/><path class="cls-1" d="M191.13,439.85a4.78,4.78,0,0,1,0-.76,3.12,3.12,0,0,0-.34.77Z"/><path class="cls-1" d="M49.66,439.9H52.9A19.48,19.48,0,0,0,49.66,439.9Z"/><path class="cls-1" d="M190.82,439.86l-.67,0q-48.77.06-97.51,0l98.15,0Z"/><path class="cls-1" d="M191,440l.14-.1h-.31l0,.09Z"/><path class="cls-9" d="M47.11,439.9l0,1a5.57,5.57,0,0,1,1.06-.59A3.64,3.64,0,0,1,47.11,439.9Z"/><path class="cls-9" d="M190.75,440.16s0-.08,0-.12c-1.35.63-2.79.33-4.19.33q-67.54,0-135.08,0a14.07,14.07,0,0,1-3.37-.06,5.57,5.57,0,0,0-1.06.59q69.12,0,138.23,0C187.11,440.86,189.13,441.57,190.75,440.16Z"/><path class="cls-9" d="M191,440h0a2,2,0,0,1-.22.09s0,.08,0,.12L191,440Z"/><path class="cls-9" d="M49.66,439.9H47.11a3.64,3.64,0,0,0,1,.41A6,6,0,0,1,49.66,439.9Z"/><path class="cls-9" d="M92.64,439.92H52.9l.94,0Z"/><path class="cls-9" d="M92.64,439.92H53.84l-.94,0H49.66a6,6,0,0,0-1.53.41,14.07,14.07,0,0,0,3.37.06q67.55,0,135.08,0c1.4,0,2.84.3,4.19-.33,0,0,0-.06,0-.09Z"/><path class="cls-9" d="M191,440h-.2s0,.06,0,.09A2,2,0,0,0,191,440Z"/><path class="cls-10" d="M334.86,440.13H194.16v.5H334.74Z"/><path class="cls-11" d="M624.64,440.77l.2-.5H484.33v.5Z"/><path class="cls-12" d="M479.67,440H339.36c-.06.17-.13.34-.19.5h140.5Z"/><path class="cls-13" d="M374.87,405.88c-.09-.22-.19-.43-.28-.64A1.31,1.31,0,0,0,374.87,405.88Z"/><path class="cls-13" d="M953.6,172.07c-1.94-17.43-5.83-34.52-14.46-50.09a63.34,63.34,0,0,0-30.21-27.86c-11.7-6.33-24.39-9.85-37.16-13.14-1.37-1.32-3.12-1.13-4.8-1.18h0a8.75,8.75,0,0,0-5.08-.91l-.22-.17-.22.16a9.65,9.65,0,0,0-5.54-.94c-13.57-2.62-27.31-3.09-41.08-3.2-20.08-.15-40.09.8-59.94,4.08a16.23,16.23,0,0,0-6.6.84,4.34,4.34,0,0,0-.5.2l.1-.06a79.68,79.68,0,0,0-18,3.06l0,0c-1.73,0-3.49-.06-5,1-1.78,0-3.58,0-5.15,1.08h0c-10.46,1.48-20.38,4.93-30.46,7.9-13.09,3.86-26.26,7.45-38.34,14-8.51,2.64-15.89,7.47-23.21,12.32-2.17,1.44-3.49,1.44-5.58-.16a29,29,0,0,0-26.86-5.13c-5.35,1.53-13,4.12-12.88,8.67.11,5.43,7.69,7.73,13.28,9.59,5,1.65,10.06.91,15.25.66-.22,2.17-1.7,3.17-2.63,4.45a62.87,62.87,0,0,0-11,23.86C592.54,183,604.59,197.6,626.83,197c2.16-.06,4.32-.33,6.47-.57,10.42-1.11,20.68-3.61,31.19-4,15.92-.59,23.36,5.2,26.74,20.77,2.63,12.12,2.77,24.45,2.89,36.78.21,22.8-.34,45.64,1.82,68.39,1.17,12.3,3.12,24.46,8.17,35.87s13.25,19.42,25.94,22c6.36,1.29,12.67,3,19.08,3.83,4,.54,5.07,2.06,4.91,6-.33,8.48-.1,17-.1,25.48,0,11.45,0,11.32,11.29,11.41,3.38,0,4.62-.75,4.53-4.38-.24-10.15.09-20.32-.17-30.47-.1-3.93.52-6.1,5-4.95a7,7,0,0,0,2-.06c2.48,1.12,1.62,3.36,1.69,5.23.41,11.23-.72,22.48.61,33.69h0l0,0h0v0a24.73,24.73,0,0,0,14.89-.06h0c.09-10.93.15-21.86.3-32.78,0-1.74-.72-3.68.87-5.18a280.94,280.94,0,0,0,43-1.2c2.93-.41,3.06,1.36,3,3.6-.09,8.49,0,17,0,25.49,0,11.07,0,10.9,11.18,11.08,3.75.07,4.81-.92,4.72-4.7-.26-11.32.07-22.66-.16-34-.11-5.11,3.69-3.66,6.2-4.2,3.56-.77,2.58,2.14,2.59,3.85.08,9.33,0,18.67,0,28,0,11.13,0,11,11.35,11,3.18,0,4.3-.72,4.24-4.12-.21-11.66.32-23.34-.25-35-.29-5.86,1.54-8,7.19-9.06,14.21-2.65,26.42-8.77,34.55-21.54A135,135,0,0,0,936,327C954.33,276.78,959.5,225,953.6,172.07ZM684,182.42c-.5,1.43-.44,3.52-3.13,2.6-12.21-4.15-24.36-1.4-36.53.41-7.72,1.15-15.41,2.84-23.31,1.78-9.61-1.29-15.26-7.44-15.22-17.21.06-13.1,6.3-23.66,14.86-32.87,10-10.7,22.81-17.15,35.91-23,5.15-2.31,10.53-4.12,15.69-6.43,2.89-1.28,4.32-.69,5.82,2.15A92,92,0,0,1,684,182.42Zm49.71-57.18c-10.83,10.64-29.67,10.61-40.65,0-2.26-2.19-1.7-3.36.34-5,5.84-4.8,12.4-7.57,20-7.49s14.2,2.7,20,7.5C735.61,121.92,735.85,123.14,733.71,125.24Z"/><path class="cls-13" d="M599,309.86a157,157,0,0,0,26.19,2c.3-3.29-1.88-5.57-2.23-8.34-1.34-10.59-3.63-21-6-31.38-2.52-11.2-4.26-22.57-5.84-34-1-7-1.77-7.63-8.4-7.86-7.16-.26-14.34-.1-21.48-.64-4-.31-5.67,1.32-6.91,4.7-7.71,21.11-16.4,41.82-25.52,62.36-4.67,10.49-4,11.14,7.67,10.27,3.84.48,7.68,1.5,11.49-.11h0c3.58-9.7,10.6-12.17,20.47-11.14,10.1,1.06,11.86,1.9,13.45,12a1.79,1.79,0,0,1-.12.24C601.25,309.19,599.5,308.63,599,309.86Zm-5.27-29.29c-2.79-.37-5.59-.77-8.4-.89-4.26-.2-5.52-2-3.88-6,3-7.28,5.87-14.6,9.28-23.1a74.23,74.23,0,0,1,5.79,27.61C596.57,280.11,595.66,280.83,593.74,280.57Z"/><path class="cls-13" d="M600.61,342.87c-.71-7.09-1.83-7.65-8.93-7.79-3.32-.07-6.65,0-10,0v-.52c-3.16,0-6.38.4-9.46-.09-4.89-.79-7,1.2-8.71,5.68-7.38,19.95-15.24,39.71-24.2,59a70.24,70.24,0,0,0-3.12,8.92c-.8,2.61-.11,4,3,4a122.49,122.49,0,0,1,14,.52c3.73.37,5.9-.65,7.1-4.4,1-3.11,2.23-7,6.08-7.2,6.43-.38,13-.91,19.31,1.12,2.1.68,3.71,1.68,4.48,4.15,2.72,8.68,2.82,8.64,11.79,9,1.17,0,2.33.12,3.5.13,2.64,0,6,1,7.77-.22,3-2.14-.65-4.93-1-7.54C609.76,385.77,602.81,364.76,600.61,342.87Zm-18.15,42.48c-15.14-1.85-14.11.23-8.79-14,1.9-5.08,4.22-10,6.82-16.08,3.5,9.58,5.36,18.1,5.52,27C586.06,384.94,585.15,385.68,582.46,385.35Z"/><path class="cls-13" d="M524,379.08a10.07,10.07,0,0,1,.69-8,46.3,46.3,0,0,0,2.09-36.41c-3.43-10-9.83-14.29-20.37-14.11a74.73,74.73,0,0,0-9.47.51c-19.63,2.82-17-1.16-15.89,18.19,1.44,24.93,3,49.85,3.91,74.8.12,3,1.28,4.29,4.14,4.29h6c3.46,0,5.17-1.11,5.37-5.21.46-9.44-2.2-18.79-.51-28.23.33-1.83-.48-4.45,2.57-4.49,2.49,0,5.11.24,6.16,3.2a13.27,13.27,0,0,1,1,3.35c.74,9.83,5.51,18.27,9.29,27l.67,1h0c3,1.94,6.13.54,9.17.26,6.07-.55,6.22-.72,4.09-6.58C529.36,399,527,389,524,379.08ZM513.63,350c-.15,2.16-.43,4.31-.45,6.46,0,2.93-1.56,4.49-4.14,5.51-8,3.14-10.44,1.65-11.07-6.91-.13-1.82-.17-3.65-.22-4.85,0-1,0-1.29,0-1.62.18-10.58-1.07-8.55,8.65-8.55C511.61,340,514.09,343.58,513.63,350Z"/><path class="cls-13" d="M679.72,272.46c-4.16-.78-4.08-4.69-5.64-7.38-2.35-4-4.58-8.62-9.67-9.34-6.48-.91-11.93-4.49-18.15-6-2.25-.54-3.39-2.63-3.92-4.82a26.05,26.05,0,0,1-.09-12.35c1-4.31,5.13-6.65,10.53-6.56,4.45.07,7,2.28,8.15,6.56,1.89,7.23,2,7.21,9.5,6.44.66-.07,1.32-.2,2-.22,2.76-.08,3.5-1.55,3.59-4.19.69-20.45-16.76-32-35.09-23a12,12,0,0,1-6.65,1.21c-4.69-1.53-9.5-.83-14.27-.78l-9.66-.51c2.85,2.28,6,2.67,9.24,2.52,3.73,1.25,7.57,1.07,11.42,1,.47,1,4.24-.26,2,2.13-8.48,9.17-7.63,20-6.32,31,.64,5.37,3.38,9.53,7.49,13.07,6.07,5.22,13.27,8.07,20.58,10.88,5.51,2.11,7.32,5.29,7,11.22-.1,1.82-.35,3.64-.49,5.46-.64,7.93-1.39,8.67-9.27,9-4.86.23-8.61-3.18-9.79-8.75-.3-1.37.31-3.78-1.36-3.9a72.58,72.58,0,0,0-12.33.27c-1.78.16-1.89,2.06-1.8,3.62.41,6.81,1.81,13.18,7.68,17.65,2,1.51,3.94,3.12,2.4,6.17,5.26-.5,10.31-2.07,14.33,2.29a.84.84,0,0,0,1.52-.24c1-2.56,3.49-2.43,5.43-2.9,7.94-1.92,14.81-5.68,16.56-14,1.45-6.93,6.43-13.48,3.3-21.14-1.4-3.27-1.4-3.27.87-3.09C679.55,273.61,680,272.52,679.72,272.46Z"/><path class="cls-13" d="M416.62,313.84c-8.38-.71-16.69-1.65-25.16-.86-3.19.29-5.11,1-5.65,4.12-1.11,6.33-3.38,12.54-1.92,19.14.79,3.59-1.69,6.64-1.71,10.23-.06,9.44-.51,18.88-1,28.31-.55,11-3.29,21.74-2.95,32.78.06,1.95-.41,4.22,2.62,4.43,12.12.87,24.23,1.8,36.39,1.81,2.07,0,3.48-.89,3.63-3.22.3-4.82.71-9.63,1-14.44.14-2.54-1.4-4.8-3.64-4.45-3.78.6-7.5-1.77-11.34.45-1.86,1.08-4.54.76-6.85,1-3,.34-4.38-.9-4.06-4a52.11,52.11,0,0,0,.6-9c-.41-5.41,1.91-6.68,7-6.23,4.43.39,10.64,2.54,13-.27,2.65-3.12,1.86-9.16,2.57-13.93,0-.16,0-.33.06-.49.33-3.49-1.21-5.37-4.75-5.5s-7-.41-10.48-.31c-3.8.1-5-1.49-4.52-5.17.3-2.5,1.27-4.22,5.39-5.78-7.1-.23-3.69-4.18-4.71-6.36,3.41-2.52,7.35-.1,10.92-1.2a11.45,11.45,0,0,0,5.52.06c.31,0,.62.1.92.15,2.52.45,5,1.1,7.53-.25.37-1.87.75-3.73,1.12-5.6.08-.7.16-1.4.23-2.1.4-3.67.7-7.35-.35-11C423.14,314.37,419.94,314.12,416.62,313.84Z"/><path class="cls-13" d="M670.79,382c.72-1.23.71-1.94-.52-2.1-2.64-.35-2.68-2.53-3.54-4.25-2.55-5-4.76-10.86-11.09-11.87S644,359.45,638,358c-2.46-.59-3.59-2.74-4.29-5.1a26.19,26.19,0,0,1-.56-9.41c.46-6,3.83-9,10.2-9.28,5.82-.23,9,2.1,9.4,8.48.32,4.77,2.35,5.5,6.25,4.82,2-.35,4-.58,5.93-.74,1.64-.12,2.17-1,2.48-2.51C670,331.37,660,318,646.87,316.81c-6.62-.6-12.37,1.79-18.15,4.37-11.37,8.84-12.68,20.89-10.87,34a21.71,21.71,0,0,0,7.7,14c5.53,4.78,11.91,7.72,18.7,10.16,8.65,3.11,12.54,16.43,7.28,24.09-1.17,1.7-3,1.8-4.75,2.33-4,1.2-7.26-1-10.8-1.88a5,5,0,0,1-1.89-3.27c-.72-2.62.82-6.54-2.83-7.47-3.1-.79-6.57-.35-9.85-.14-2.67.16-3.57,2-3.32,4.55.62,6.56,2,12.77,7.64,17.11,1.29,1,3.3,2.15,3,3.71-.6,3.23.82,2.45,2.77,2.12,6.44-1.09,10.32.73,12.25,5.49a6.73,6.73,0,0,0,1.88,4.79c.14.14,1.19-.3,1.18-.37-.27-1.62-.4-3.31-1.68-4.56-1.52-4.13,1-5.12,4.3-5.73,10.53-2,16.32-8.59,18.32-18.86.47-2.43.9-4.86,1.24-7.31.19-1.38.8-1.66,2-1.07l1.73-.85C670.17,389,668.57,385.77,670.79,382Z"/><path class="cls-13" d="M628.71,321.19h0l.11-.08Z"/><path class="cls-13" d="M335.31,283c-2.05.37-1.07,1.75-.76,2.85,4.56-2.12,4.62,2.53,6.61,4.35,8.24,7.53,17.55,10.89,29.08,9.83,20.61-1.89,34.49-12.53,39.66-32-2.66-1.72-2-3.45,0-5.2-.45-5.07-.48-10.18-.78-15.25-.47-8.19-15.82-23.08-25.23-22.74-5.31.19-10.74-.54-15.94.27-20.14,3.15-31.56,13-33.92,33.51-1.29,11.27-1.11,11.47,2.52,21.37C337,281.21,337.46,282.61,335.31,283Zm21.84-39.51a16.48,16.48,0,0,1,19-6.07,18.41,18.41,0,0,1,11.49,10.88,40.8,40.8,0,0,1,2.3,24.45c-1.9,8.91-10.08,15.26-18.71,14.89Q357,287,354.91,272.13a8.89,8.89,0,0,1-.28-1c-.88-1.15-3-2.29.25-3.46l1.14-.76-1.21-2.85C351.35,259.26,352.42,249.79,357.15,243.48Z"/><path class="cls-13" d="M452.37,225c-.17,0-.33,0-.5,0-1.83-.17-2.7.74-3.1,2.47-2.41,10.46-4.88,20.9-7.31,31.35-1.74,7.49-3.43,15-5.14,22.48L435,281.2c0-3.2.41-6.47-.07-9.6-2.18-14.28-3.86-28.63-4.87-43-.24-3.33-2.42-5-4.59-4.89-4.34.16-8.66,1.12-13.06,1.27-1.15,0-.77,1.65-1.19,2.45-2.1,4,1.84,6.79,2,10.29.33,7.89-1,16,2.94,23.43.93,1.76-1.69,4.25-.64,5,3,2.18,2.29,5.34,3,8.05s-2.37,7.93-5.21,9.35c-3.53,1.76-.46,2.58.61,3.65,1.06,0,2-1.6,3.14-.3.83.4,1.91.49,2.11,1.69l-2.33.36c4.54,3.92,5.85,9.27,6.24,14.87.33,4.69,1.92,7.2,7.21,6.5a40.15,40.15,0,0,1,10,.26c3.07.38,3.93-1,4.67-3.66,6.38-22.7,13-45.35,18.47-68.29C467.16,222.89,469.88,226,452.37,225Z"/><path class="cls-13" d="M461.15,335.88c-.1-3-.19-5.95-.29-8.93.1-2.28.21-4.57.31-6.85l-.18-3.28-1,.3c-1.42,2.11-.95,4.5-1,6.81a.47.47,0,0,0-.09.72c-.07.16-.12.32-.19.48a17.82,17.82,0,0,0-.82,6.77c-.76,1.22,0,3.53-2.7,3.36-14.07-.9-19.37,8.55-23.25,19.74a83.12,83.12,0,0,0-4.85,29.84,13.35,13.35,0,0,1,2,9.05c1,3.68,1.72,7.5,3.16,11,3.69,9,10.52,12.73,20.21,12.08,5-.34,8.38-3.52,12.21-6.24a12,12,0,0,1,.94,2.06c.81,3.49,3.1,4.41,6.37,3.85,3.44-.59,2.14-3.34,2.22-5.18.39-10.32.44-20.65.92-31,.18-3.81-.72-5.5-4.85-5a72.62,72.62,0,0,1-12,.64c-5.92-.27-5,3.92-5.21,7.38-.18,3.2-1.2,7.14,4.44,6.45a2,2,0,0,1,2.36,1.35c1.22,3-1.55,9.18-4.89,10.59-3.61,1.54-6.52-.25-8-5a20,20,0,0,1-.9-4.39c-.88-11.34.17-22.61,1.35-33.87a12,12,0,0,1,2.34-6c2.95-3.89,7.46-3.33,9.44,1.14,1,2.37.92,4.87,1,7.36.06,1.7,0,3.53,2.45,3.53,3.49,0,7-.09,10.48-.19a2.42,2.42,0,0,0,2.57-2.44C477,350.84,470.14,337,461.15,335.88Z"/><path class="cls-13" d="M471.43,231.61c-.58,4.84-1.44,9.62-1.21,14.69.21,4.71-1.26,9.69-1.29,14.63l0,11a7.62,7.62,0,0,0-.05,4.51c-.1.3-.19.59-.27.89a23.9,23.9,0,0,0-.67,7.59l-.07,1.49a12.46,12.46,0,0,0-.86,6.5c-.05.56-.09,1.12-.14,1.68a9.44,9.44,0,0,0-.85,5.31c0,.83-.09,1.66-.14,2.49a20.76,20.76,0,0,0,0,11.06h0l0,.34.33.12c.39.27.77.77,1.17.79,11.92.62,23.85,1.23,35.78,1.75,1.42.07,3,.17,4-1.36h0c.94-5.61,2.45-11.19.81-16.92l-1.25-1.25c-1.71-1.79-3.47-.91-5.23-.12h0c-2-1.06-3.71-1.84-6.28-.68s-5.78,1.21-8.73,1.48c-2.36.23-3.77-.91-3.56-3.52.3-4,.6-7.92.86-11.88.09-1.31.54-2.39,2-2.26,5.38.46,10.88-.75,16.18,1l1.82-.37h0c.7-4.38,1.43-8.76,2.1-13.14.58-3.82-.72-6-5-6-3.46,0-6.94-.45-10.39-.27-4.57.23-4.34-2.39-4.39-5.71,0-2.09,3.31-2.31,1.92-4.61-3.71-.32-1.42-3.18-2-4.81.15,0,.31-.05.47-.08a2.57,2.57,0,0,1,.4-.06,2.15,2.15,0,0,1,1.88-1.82h0l2.9-.16,4.2-.23a21.52,21.52,0,0,1,2.41.17c4.11.73,7.12-.23,7.73-5h0l.06-9.9c1.32-3.17-1.78-2.89-3.12-4-7.54-.9-15-1.72-22.7-1C473.24,224.7,472.27,224.57,471.43,231.61Z"/><path class="cls-13" d="M546.17,287.94c0-5.32.42-10.61.75-15.91.27-4.37,1.32-8.64,1.29-13-.05-8.42-.71-16.84.1-25.25.86-8.92.19-9.76-8.41-9.37l-1.49.07v.11a41.51,41.51,0,0,1-5,0c-4.53-.55-6,1.45-6,5.87-.07,6.48-1,12.94-1.25,19.42-.35,10.1-.17,20.22-.63,30.31-.33,7.45-1.83,8.74-9.24,9.24-1.65.11-2.63.58-2.76,2.12-.3,3.48-.57,7-.6,10.45,0,2.21,1.57,3.17,3.62,3.35,6.52.59,13,.51,19.18-2A15.76,15.76,0,0,0,546.17,287.94Z"/><path class="cls-13" d="M372,335a49,49,0,0,0-.63-9.43c-1.34-10.11-2.12-10.58-12-8-.14,0-.26.2-.39.31-2,1.12-1.4,3.2-1.61,4.85a91.37,91.37,0,0,0,.08,21.8,69,69,0,0,1-.32,14.37c-.16,1.64-.76,2-2.15,1.22q-1.41-4.09-2.83-8.2c-.82-5.46-2.84-10.53-5-15.55h0c-1.77-5.35-3.52-10.7-5.35-16-.3-.91-.64-2.18-1.77-2.2-4.8-.09-10-.95-14.23,1.15-3.57,1.76-2,6.16-1.6,9.61a19.45,19.45,0,0,1-.16,3.48c-1.42,22.28-1.42,44.57-.8,66.87.28,9.93.32,9.78,10.23,9.8,3.9,0,5.27-1.46,5.39-5.25.31-9.32-.35-18.6-.74-27.9-.11-.58-.2-1.16-.28-1.75-.58-5.1.87-10.2.34-15.3h0l.14-.23-.18-.21c.5-.56.78-1.44,1.8-1.27h0c-.07.74-.07,1.45.7,1.86l2.28,5.19h0c2.8,12,6.78,23.57,10.86,35.18,2.29,6.53,6,7.73,12.06,7.61,4.13-.08,5.39-1.09,5.36-5.22C371.05,379.52,370.7,357.25,372,335Z"/><path class="cls-13" d="M390.89,188.91c-.08-5.37-2.75-8.32-8.09-8.79a58.5,58.5,0,0,0-7.94.14c-4.23.19-6.3,2.1-5.7,6.65a66.13,66.13,0,0,1,.07,8.45c0,2.82,0,5.64,0,8.46,0,7.5,2.61,10.23,10.07,10.39a54.45,54.45,0,0,0,7.43-.5c2.83-.33,4.35-1.66,4.25-4.9C390.76,202.18,391,195.54,390.89,188.91Zm-10.64,20.75c-1.65,0-2.31-1.17-2.32-2.65-.05-6.64,0-13.27-.06-19.91,0-1.26.14-2.38,1.72-2.45a2.23,2.23,0,0,1,2.58,2.36c.09,3.48,0,7,0,10.45h.09c0,3.15,0,6.3,0,9.46C382.3,208.37,382,209.68,380.25,209.66Z"/><path class="cls-13" d="M563.08,200.05c0,12.69,3.13,15.46,15.87,13.87a41,41,0,0,0,4.83-1.18c1-9.28.25-18.58.38-27.87h0c-4.49-7.11-11.21-4.82-17.54-4.18-2.64.27-3.65,1.75-3.58,4.39C563.16,190.07,563.08,195.06,563.08,200.05Zm10.44-15.39a2.2,2.2,0,0,1,2.52,2.4c.06,3.48,0,7,0,10.45h.06V207c0,1.2,0,2.48-1.53,2.69a2.18,2.18,0,0,1-2.72-2.19c-.12-7-.12-13.94-.16-20.9A1.73,1.73,0,0,1,573.52,184.66Z"/><path class="cls-13" d="M536.45,213.13c8.8,4.26,19.35-1.76,19.65-11.4.16-5.48-.08-11,.08-16.46.1-3.28-1.23-4.31-4.42-4.34s-4.43,1.29-4.36,4.43c.11,5.32.06,10.64,0,16,0,2.67-.42,5.24-4.2,6.6,0-8.09-.07-15.66,0-23.22,0-3.3-1.8-3.72-4.49-3.74s-4.14.62-4.12,3.56c.06,8.48,0,17,0,25.44A3,3,0,0,0,536.45,213.13Z"/><path class="cls-13" d="M453.88,185.53A74.54,74.54,0,0,0,454,209.1h0c2.42,6.86,8.15,4.71,13.06,4.82a7.49,7.49,0,0,0,5.2-.89h0c1.1-.73,2.41-1.34,1.74-3.07-3.29-2.73-6.64.33-10-.09l-1.86-.91c0-.13.11-.27.08-.37a3.83,3.83,0,0,0-.3-.65c0-2.8-.23-5.62,0-8.4.4-4.86-1.28-9.87,1.1-14.57l6-.2c2.42.48,6.11,3.15,4.77-2.79-4.79-2.93-9.82-2.5-14.93-1.1h0C456.22,181.42,454.27,182.65,453.88,185.53Z"/><path class="cls-13" d="M511.6,185.18c3.95.61,3,3.56,3,6,0,3.81-.21,7.64.07,11.43.25,3.34-.23,6-3.69,7.3-1.17,2.28.19,3,2.08,3.1,3.93.11,7.87.12,11.8,0,1.8-.06,3.34-.74,2.08-3.08-3.72-1.39-3.93-4.36-3.76-7.74.21-4.14,0-8.29,0-12.43,0-1.91-.6-4.07,2.53-4.32a2,2,0,0,0,1.61-2.63,2.13,2.13,0,0,0-2.12-1.76c-4.3,0-8.61-.05-12.92,0-1.1,0-1.7,1-1.84,2C510.4,184,510.81,185.06,511.6,185.18Z"/><path class="cls-13" d="M482.89,185c.8.12,1.48.22,2.07.33,3,.9,3.31,3.54,3.29,7.06,0,6.56-1.1,13.2.69,19.7a5.91,5.91,0,0,0,7.13,0c1.81-6.46.67-13.05.71-19.57,0-4,0-7.24,5-7.61,1.14-.91,1.67-1.87.22-3a42.08,42.08,0,0,0-19.33-.12h0C481.48,183,481.22,184.05,482.89,185Z"/><path class="cls-13" d="M415.4,213.57c1.84-.53,4.06-.73,3.46-3.61-1-2.27-2.75-1-4.18-.86-2.53.32-5,.93-7.5-.25-.77-2.39-.51-4.86-.62-7.3-.27-6.21.67-12.44-.48-18.63h0l0-.05h0v0c-1.91-3.54-4.6-1.87-7.16-1.06v0l0,0h0c-2.27,2.59-1.08,5.72-1,8.52.25,6.56-1.41,13.24,1.07,19.68.71,1.69,1.76,3,3.78,3,1.58,1.33,3.43,1,5.25.88A15.93,15.93,0,0,0,415.4,213.57Z"/><path class="cls-13" d="M506.81,243.56c.93,1,2.53.55,3.8.3,1.53-.31,1.28-1.67,1.44-2.78.47-3.36-.91-6.9,1-10.13.49-2.52.51-4.77-2.89-5.08-1.67-.08-1.91,1.32-2.52,2.33a2.14,2.14,0,0,1-.65.75h0c0,3.32,0,6.63-.07,10h0a1.81,1.81,0,0,1,.11.6C507.05,240.91,505.66,242.36,506.81,243.56Z"/><path class="cls-13" d="M373.23,408l-.29,4.61c-.08.18-.14.36-.21.55a18.06,18.06,0,0,0-.71,6.71.49.49,0,0,0-.08.73c-.09.19-.15.37-.22.56a19.06,19.06,0,0,0-.79,6.68h0a6.79,6.79,0,0,0,0,6.26h0c1.12,1,2.22,1.92,2.17-.7,1.09-3.78.86-7.65.78-11.51.1-2.28.2-4.55.31-6.83C373.29,412.83,374.78,410.23,373.23,408Z"/><path class="cls-13" d="M424,218.12c-.15,1.37.37,2.21,1.82,2.28,1.77.13,2.9-.66,3.1-2.42.14-1.29.15-3-1.59-2.92A3.38,3.38,0,0,0,424,218.12Z"/><path class="cls-13" d="M425.86,207.3h0c-.31,3.14,1.66,4.59,4.16,5.65,1.44,1.5,3.25,1,5,1,3.86.51,7.66.57,11.15-1.57,1.75-2.68.48-3.66-2.15-3.53s-5.27.53-7.9.82a5.2,5.2,0,0,1-2-4.67c.1-3.25,0-6.49,0-9.74,2.45-1,5.38.83,7.64-1.29.56-1.13,1.22-2.26-.36-3.13-2.27-1.51-5,0-7.3-1h0c0-1.94,0-3.86,2-5l6,.11c1.79.6,4.1.68,4.54-1.12.61-2.44-2.7-1.39-3.66-2.75-4-1.72-7.94-1.39-11.91,0-2.91.82-5.28,2.13-5.1,5.71A92,92,0,0,0,425.86,207.3Z"/><path class="cls-13" d="M451,304c-1.72.45-1.8,2.15-2,3.6-.07.64.1,1.42,1,1.38,2.22-.09,1.74-2,2.14-3.21C452.26,304.77,452,303.76,451,304Z"/><path class="cls-13" d="M428.87,415.81c.47-1.77-.44-3.3-.85-4.91C426.94,412.77,425.64,414.68,428.87,415.81Z"/><path class="cls-13" d="M628.72,321.18l.11-.08s0,0,0,0A.75.75,0,0,0,628.72,321.18Z"/><path class="cls-13" d="M628.11,317.18c-1.25,1.72-.64,2.88.68,3.88C629.74,319.6,629.79,318.31,628.11,317.18Z"/><path class="cls-13" d="M351.05,184.78l6,0c1.8.52,4.18.75,4.65-1.1.64-2.51-2.74-1.38-3.71-2.76-4.78-1.58-9.47-1.83-13.93,1a5.27,5.27,0,0,0-3.22,5.16c-.11,6.62-.2,13.25,0,19.86.13,4,2.86,6.42,6.6,6.91,4.55.59,9.23.87,13.61-1.23,1.85-1.73,1.52-3.19-.79-3.88-1-.3-2.25.23-3.39.4-6.76,1-7.49.4-7.53-6.36,0-5.26-.08-10.53-.12-15.79l1.86-2.24Z"/><path class="cls-13" d="M461.79,286.9c-.53.14-1,.68-1.26.93-.1,1.25.65,1.25,1.21,1.24a1.15,1.15,0,0,0,1.23-1.15A.9.9,0,0,0,461.79,286.9Z"/><path class="cls-13" d="M349.48,145.72c8.37-.62,16.62.46,24.87,1.67,11.68,1.73,23.3,4.18,35.22,3.64,15.83-.71,25.27-8.32,29.49-23.61a43,43,0,0,0,.32-20.29C437,95.29,431.3,85,424.18,75.43c-.93-1.25-2.42-2.19-2.56-4,14.2,2.73,25.82-.3,34.87-8.77,2.34-2.2,2.54-3.51,0-5.82-13.17-12.12-33.59-13-48.2-1.52-2.24,1.76-3.53,1.92-5.9.29a199.17,199.17,0,0,0-38.86-20.34c-48.18-19.35-98.48-29.15-150-33.4C207,1.34,200.42,2,194.06,0h-9c-6.27,2.11-12.7.61-19,.83-2.32-.22-4.85,1.23-7-.83h-4C144.07,1.38,133,1,122,2.62c-23.36,3.41-45.9,9.2-67.08,20C27.87,36.34,13,59.07,5.63,87.6c-.44,1.71-1.43,3.79.52,5.15C8.53,90.31,7.61,86.55,10,84,2.34,113.46-.39,143.43,0,173.78s4.67,60.27,10.35,90.39c-1.86-.8-.91-2.89-2.55-3.19h0a269.1,269.1,0,0,0,18,58.53c4.56,10.39,9.9,20.34,17.1,29.22C49.6,357,57.61,363.16,68,366c5.76,1.59,11.43,3.59,17.26,4.87,3.81.84,4.94,2.46,4.81,6.36-.32,10.32-.14,20.65-.09,31,0,4.64-1.57,11,.81,13.48,3,3.19,9.42.63,14.34,1.13,3.19.33,3.91-1,3.88-4q-.21-19,0-38c0-1.62-1.6-5.41,2.21-4.47,3.15.78,8.92-2.11,9,4.67.09,9-.11,18,.07,27,.09,4.77-2.16,11,1,13.91s9.23.41,14,.9c3.61.38,4-1.33,4-4.34-.14-11.49.09-23-.14-34.48-.07-3.65,1.08-4.42,4.53-4.12a437.8,437.8,0,0,0,49.92,1.64c3.36-.1,3.81,1.17,3.75,4-.15,7.49-.18,15,0,22.48.11,4.77-2.15,11,.91,13.91s9.22.45,14,.88c3,.27,4-.68,4-3.84-.2-10.49-.08-21-.08-31.48,0-7.14,0-6.91,7.22-7.56,3.66-.33,4.06,1.12,4,4.13-.16,8-.19,16,0,24,.11,4.76-2.16,11,.95,13.89s9.22.42,14,.88c3.43.33,4.13-1.08,4.09-4.25-.17-12.32,0-24.65-.14-37-.05-3.17.9-4.3,4.06-4.73a215.28,215.28,0,0,0,28.81-6,41,41,0,0,0,23.75-17.14,68.9,68.9,0,0,0,8.43-18c5.06-16,6.84-32.53,7.8-49.18,1.48-25.79.55-51.63,1.15-77.43.34-14.65.69-29.36,4.81-43.58C328.63,152.83,336.43,146.69,349.48,145.72ZM339.92,43.54c1.54-3,2.82-4.13,6.45-2.72,16.64,6.44,33,13.4,48,23.19,13.31,8.67,23.81,19.77,30.15,34.46,3.19,7.41,5.4,15.09,3.92,23.32-1.91,10.54-8.3,16.36-19,17.28-10.07.87-19.91-1-29.79-2.54-12.19-1.86-24.38-4-36.76-1.88-2.9.51-6.6,2.73-8.43,1.63-2.79-1.67-2.81-6.08-3.79-9.4A107,107,0,0,1,326.6,96.8C326.54,77.92,331.32,60.27,339.92,43.54ZM322,62.17C308.5,76,283.86,76,270.59,62.06c-1.89-2-1.67-3.08.19-4.78a37.36,37.36,0,0,1,50.86-.22C323.6,58.84,324.08,60,322,62.17Z"/><path class="cls-13" d="M377.73,77a8.65,8.65,0,0,0,8.52-8.62,8.74,8.74,0,0,0-8.7-9A8.81,8.81,0,1,0,377.73,77Z"/><path class="cls-13" d="M353,77a8.79,8.79,0,1,0,.12-17.58A8.79,8.79,0,1,0,353,77Z"/><path class="cls-13" d="M647.25,122.46a7.19,7.19,0,0,0,.25,14.37,7.19,7.19,0,1,0-.25-14.37Z"/><path class="cls-13" d="M667.34,122.43a7.38,7.38,0,0,0-7.27,6.85,7.15,7.15,0,1,0,7.27-6.85Z"/></g></g></svg>