<?xml version="1.0" encoding="utf-8"?>
<!-- Generator: Adobe Illustrator 23.1.1, SVG Export Plug-In . SVG Version: 6.00 Build 0)  -->
<svg version="1.1" id="Capa_1" xmlns="http://www.w3.org/2000/svg" xmlns:xlink="http://www.w3.org/1999/xlink" x="0px" y="0px"
	 viewBox="0 0 1142 433" style="enable-background:new 0 0 1142 433;" xml:space="preserve">
<style type="text/css">
	.st0{fill:#FFB000;}
	.st1{fill:#FFFFFF;}
</style>
<g>
	
		<image style="overflow:visible;opacity:0.5;enable-background:new    ;" width="1142" height="434" xlink:href="A358A900FBA50108.png"  transform="matrix(0.9985 0 0 0.9985 0.8797 -0.1657)">
	</image>
	<path class="st0" d="M216.4,85.1h708.8c72.5,0,131.2,58.8,131.2,131.2l0,0c0,72.5-58.8,131.2-131.2,131.2H216.4
		c-72.5,0-131.2-58.8-131.2-131.2l0,0C85.2,143.9,144,85.1,216.4,85.1z"/>
</g>
<g>
	<path class="st1" d="M419.9,198.6c2,2,3,3.8,3,5.8c0,3-2.5,5.3-5.6,5.3c-1.9,0-4-1.1-5.2-2.5c-2.3-1.7-3.6-2.2-6-2.2
		c-4.1,0-6.1,2.1-6.1,4.8c0,1.6,0.6,3.9,5.1,5.6l2.3,0.8c14.1,5.2,18.5,10.5,18.5,17.9c0,11.8-11.8,17.5-21.4,17.5
		c-6,0-12.3-2.1-16.7-6.5c-1-1.2-3-3.6-3-6.7c0-2.7,1.8-5.7,5.5-5.7c2.9,0,4.8,2,6.3,3.7c3,2.9,6.1,3.3,7.9,3.3
		c2.9,0,7.6-0.9,7.6-5.7c0-3.2-1.8-5.2-7.9-7.5l-2.5-0.9c-8.6-3.3-15.1-7.4-15.1-16.1c0-10.2,8.4-16.4,19-16.4
		C412.4,193.3,416.4,195.4,419.9,198.6z"/>
	<path class="st1" d="M434,198.4c0-3.5,3.1-6.5,6.6-6.5s6.6,2.9,6.6,6.5c0,3.4-3.1,6.4-6.6,6.4S434,201.8,434,198.4z M447.2,215
		v30.1c0,3.7-3,6.6-6.6,6.6s-6.6-3-6.6-6.6V215c0-3.7,3-6.6,6.6-6.6S447.2,211.3,447.2,215z"/>
	<path class="st1" d="M499.1,245.2c0,0.6-0.1,1.1-0.2,1.7v3.4c0,13.3-12.8,17.6-21.5,17.6c-4.9,0-9-1.3-10.8-1.9
		c-2.9-1.2-4.3-3.3-4.3-5.7c0-3,2.4-5.2,5.2-5.2c0.4,0,1.1,0,2.4,0.4c1.5,0.1,4,1.1,7.6,1.1c6.1,0,8.4-3.5,8.4-6.5v-3.5
		c-1.3,2.1-4.9,4.9-10.7,4.9c-9,0-19.7-6.9-19.7-21.9c0-14.6,10.8-21.8,19.7-21.8c5.6,0,9.6,3.1,10.7,6v0.7c0-3.5,3-6.5,6.6-6.5
		c3.4,0,6.7,3,6.7,6.5V245.2z M486.4,229.9c0-8-5.2-10.7-8.8-10.7c-4.7,0-9,3.7-9,10.7c0,7,4.3,10.7,9,10.7
		C481.2,240.7,486.4,238.1,486.4,229.9z"/>
	<path class="st1" d="M508.8,231.4v-16.6c0-3.6,3-6.5,6.6-6.5c3.5,0,6.5,2.9,6.5,6.5v16.6c0,6.4,3,9.3,7.3,9.3
		c6.7,0,8.2-6.8,8.2-7.7v-18.2c0-3.6,3-6.5,6.6-6.5s6.6,2.9,6.6,6.5v30.2c0,3.7-3,6.6-6.6,6.6s-6.6-3-6.6-6.6v-2.5
		c-0.2,3-4.9,9.3-13.3,9.3C515.6,251.7,508.8,245.8,508.8,231.4z"/>
	<path class="st1" d="M560.3,198.4c0-3.5,3.1-6.5,6.6-6.5s6.6,2.9,6.6,6.5c0,3.4-3.1,6.4-6.6,6.4S560.3,201.8,560.3,198.4z
		 M573.5,215v30.1c0,3.7-3,6.6-6.6,6.6s-6.6-3-6.6-6.6V215c0-3.7,3-6.6,6.6-6.6S573.5,211.3,573.5,215z"/>
	<path class="st1" d="M624.3,227.9c0,5.2-2.8,6.9-8,6.9l-20.9-0.2c1.1,4.2,4.5,6.6,9.8,6.6c2.5,0,2.9-0.3,5.2-0.9
		c1.7-0.6,3.1-1.3,4.8-1.3c2.7,0,4.3,1.9,4.3,4.3c0,1.6-0.7,3.4-3.1,5.3c-2.8,1.7-6.6,3-11.7,3c-11.1,0-22.9-6.6-22.9-21.6
		s12.5-22,21.9-22C613,208.1,624.3,215.6,624.3,227.9z M595.4,225.8h16.1c-0.8-4.7-4-6.4-7.8-6.4
		C599.8,219.4,596.1,221.2,595.4,225.8z"/>
	<path class="st1" d="M674.1,228.5v16.6c0,3.6-3,6.5-6.6,6.5c-3.5,0-6.5-2.9-6.5-6.5v-16.6c0-6.4-3-9.3-7.3-9.3
		c-6.7,0-8.2,6.8-8.2,7.7v18.2c0,3.6-3,6.5-6.6,6.5c-3.5,0-6.6-2.9-6.6-6.5V215c0-3.7,3-6.6,6.6-6.6c3.5,0,6.6,3,6.6,6.6v2.5
		c0.2-3,4.9-9.3,13.3-9.3C667.4,208.2,674.1,214.1,674.1,228.5z"/>
	<path class="st1" d="M709.8,244.9c0,4.3-3.6,6.7-10.2,6.7c-6.3,0-12.8-2-12.8-15.5v-17.5h-1.6c-3.2,0-5.2-2.1-5.2-5
		c0-3,2-5.1,5.2-5.1h1.6v-4.8c0-3.6,3-6.6,6.6-6.6c3.5,0,6.6,2.9,6.6,6.6v4.8h4.8c3.2,0,5.2,2.1,5.2,5.1c0,2.9-2,5-5.2,5h-4.8v18.1
		c0,2.2,0.7,3.6,2.2,3.6c0.8,0,2.2-0.3,3.1-0.2C708,240.2,709.8,241.9,709.8,244.9z"/>
	<path class="st1" d="M757.2,227.9c0,5.2-2.8,6.9-8,6.9l-20.9-0.2c1.1,4.2,4.5,6.6,9.8,6.6c2.5,0,2.9-0.3,5.2-0.9
		c1.7-0.6,3.1-1.3,4.8-1.3c2.7,0,4.3,1.9,4.3,4.3c0,1.6-0.7,3.4-3.1,5.3c-2.8,1.7-6.6,3-11.7,3c-11.1,0-22.9-6.6-22.9-21.6
		s12.5-22,21.9-22C745.9,208.1,757.2,215.6,757.2,227.9z M728.3,225.8h16.1c-0.8-4.7-4-6.4-7.8-6.4
		C732.7,219.4,729,221.2,728.3,225.8z"/>
</g>
</svg>
