<?xml version="1.0" encoding="utf-8"?>
<!-- Generator: Adobe Illustrator 23.0.0, SVG Export Plug-In . SVG Version: 6.00 Build 0)  -->
<svg version="1.1" id="Capa_1" xmlns="http://www.w3.org/2000/svg" xmlns:xlink="http://www.w3.org/1999/xlink" x="0px" y="0px"
	 viewBox="0 0 269.7 120.3" style="enable-background:new 0 0 269.7 120.3;" xml:space="preserve">
<style type="text/css">
	.st0{fill:#F7FBFF;}
	.st1{fill:#FFB000;}
	.st2{fill:#FFFFFF;}
	.st3{fill:#F20F7B;}
	.st4{fill:#005577;}
</style>
<rect x="357" y="-239.1" class="st0" width="246.2" height="151.5"/>
<title>Recurso 1</title>
<path class="st1" d="M24.9,41.1c0,2.1-0.3,4-0.9,5.8c-0.6,1.7-1.4,3.3-2.5,4.5c-1.1,1.3-2.5,2.2-4.1,2.9c-1.7,0.7-3.5,1-5.7,1
	c-1.6,0-3.1-0.2-4.5-0.7c-1.4-0.4-2.7-1.1-3.7-2c-1.1-0.9-1.9-2-2.5-3.3c-0.7-1.3-1-2.9-1-4.7c0-1.3,0.1-2.4,0.4-3.4
	s0.7-1.8,1.2-2.6s1.1-1.5,1.7-2.1c0.6-0.7,1.3-1.3,2-2c0.7-0.6,1.4-1.2,2.1-1.9s1.3-1.4,1.9-2.4c0.6-0.9,1-2,1.4-3.3
	s0.5-2.8,0.5-4.5h2.3c0,1.6-0.1,3-0.4,4.2c-0.3,1.2-0.7,2.3-1.1,3.3c-0.5,1-1,1.8-1.7,2.6c-0.6,0.8-1.3,1.5-2,2.2s-1.4,1.4-2.1,2.1
	c-0.7,0.7-1.4,1.5-1.9,2.3c-0.6,0.8-1,1.7-1.3,2.6c-0.3,0.9-0.5,1.9-0.5,2.9c0,1.5,0.3,2.7,0.8,3.8s1.3,1.9,2.1,2.6
	c0.9,0.7,1.9,1.2,3.1,1.5s2.3,0.5,3.6,0.5c1.8,0,3.4-0.3,4.7-0.9c1.4-0.6,2.5-1.4,3.4-2.5s1.6-2.3,2-3.8c0.5-1.5,0.7-3,0.7-4.7
	C22.9,41.1,24.9,41.1,24.9,41.1z M13.7,17.8h-3v-6.1h3V17.8z"/>
<path class="st1" d="M61.7,40.7c-3.3,2.6-7.3,3.9-12,3.9c-3.2,0-6-0.6-8.6-1.7c-2.5-1.2-4.7-2.7-6.4-4.7s-3.1-4.4-4-7.1
	s-1.4-5.6-1.4-8.7s0.5-6,1.4-8.7s2.2-5.1,4-7.1c1.7-2,3.9-3.6,6.4-4.7C43.6,0.6,46.5,0,49.7,0s6,0.6,8.5,1.7
	c2.5,1.2,4.6,2.7,6.4,4.7c1.7,2,3.1,4.4,4,7.1s1.4,5.6,1.4,8.7c0,3.5-0.5,6.7-1.6,9.5c-1.1,2.9-2.7,5.3-4.7,7.3l6.6,4.8l-1.4,1.8
	L61.7,40.7z M61.4,37.7c1.9-1.9,3.4-4.2,4.4-6.8s1.5-5.5,1.5-8.6c0-2.7-0.4-5.3-1.2-7.8c-0.8-2.4-1.9-4.5-3.5-6.4
	c-1.5-1.8-3.4-3.3-5.5-4.3c-2.2-1.1-4.6-1.6-7.4-1.6c-2.8,0-5.3,0.5-7.5,1.6s-4,2.5-5.5,4.3S34,12,33.2,14.5c-0.8,2.4-1.2,5-1.2,7.8
	s0.4,5.3,1.2,7.8c0.8,2.4,1.9,4.5,3.5,6.4c1.5,1.8,3.4,3.3,5.5,4.3c2.2,1.1,4.7,1.6,7.5,1.6c3.9,0,7.3-1.1,10-3.2l-6.4-4.6l1.4-1.8
	L61.4,37.7z"/>
<path class="st1" d="M99.4,43.6h-2.3V37H97c-0.4,1.2-1,2.2-1.7,3.1c-0.7,0.9-1.6,1.7-2.6,2.3s-2,1.1-3.2,1.4
	c-1.2,0.3-2.3,0.5-3.5,0.5c-1.8,0-3.3-0.2-4.6-0.7c-1.3-0.4-2.3-1-3.1-1.7c-0.8-0.7-1.4-1.5-1.9-2.4s-0.8-1.8-1-2.7S75.1,35,75,34.1
	c0-0.9-0.1-1.6-0.1-2.2v-19h2.3v19.4c0,0.8,0.1,1.8,0.2,2.9c0.1,1.1,0.5,2.2,1,3.3c0.6,1.1,1.4,2,2.6,2.7c1.2,0.8,2.8,1.1,4.9,1.1
	c1.7,0,3.3-0.3,4.6-1c1.4-0.6,2.5-1.5,3.5-2.7c1-1.1,1.7-2.5,2.2-4.1s0.7-3.3,0.7-5.2V12.9h2.3v30.7H99.4z"/>
<path class="st1" d="M106.6,7.2V1h2.3v6.1L106.6,7.2L106.6,7.2z M106.6,43.6V12.9h2.3v30.7H106.6z"/>
<path class="st1" d="M116.9,28.6V29c0,1.8,0.2,3.5,0.7,5.1s1.2,3.1,2.1,4.3s2.1,2.2,3.5,2.9s3.1,1.1,4.9,1.1c3.1,0,5.5-0.8,7.3-2.4
	c1.8-1.6,3-3.8,3.7-6.7h2.3c-0.7,3.6-2.1,6.3-4.4,8.2c-2.2,1.9-5.2,2.9-8.9,2.9c-2.3,0-4.2-0.4-5.9-1.2c-1.7-0.8-3.1-1.9-4.2-3.3
	c-1.1-1.4-2-3.1-2.5-5c-0.6-1.9-0.8-4-0.8-6.2c0-2.1,0.3-4.2,0.9-6.2s1.4-3.7,2.6-5.2s2.6-2.7,4.3-3.6c1.7-0.9,3.8-1.3,6.1-1.3
	c2.1,0,4,0.4,5.7,1.2s3,1.9,4.1,3.3s2,3,2.5,4.8c0.6,1.8,0.9,3.7,0.9,5.8c0,0.2,0,0.4,0,0.7c0,0.3,0,0.5,0,0.6h-24.9V28.6z
	 M139.5,26.6c-0.1-1.7-0.4-3.3-0.8-4.7c-0.5-1.5-1.2-2.8-2.1-3.9c-0.9-1.1-2.1-2-3.4-2.7c-1.3-0.7-2.9-1-4.6-1c-1.8,0-3.4,0.3-4.8,1
	s-2.6,1.6-3.5,2.7c-1,1.1-1.7,2.5-2.2,4s-0.8,3.1-1,4.7h22.4V26.6z M133.3,0.1h3l-8,8.4h-2.2L133.3,0.1z"/>
<path class="st1" d="M147,12.9h2.3v6.6h0.1c0.4-1.2,1-2.2,1.7-3.1s1.6-1.7,2.6-2.3s2-1.1,3.2-1.4c1.2-0.3,2.3-0.5,3.5-0.5
	c1.8,0,3.3,0.2,4.6,0.7c1.3,0.4,2.3,1,3.1,1.7s1.4,1.5,1.9,2.4c0.5,0.9,0.8,1.8,1,2.7c0.2,0.9,0.3,1.8,0.4,2.7
	c0,0.9,0.1,1.6,0.1,2.2v19H169V24.2c0-0.8-0.1-1.7-0.2-2.9c-0.1-1.2-0.5-2.3-1-3.3c-0.6-1.1-1.5-2-2.6-2.7c-1.2-0.8-2.8-1.1-4.9-1.1
	c-1.7,0-3.3,0.3-4.7,1c-1.4,0.6-2.5,1.5-3.5,2.7c-1,1.1-1.7,2.5-2.2,4.1s-0.7,3.3-0.7,5.2v16.6H147V12.9z"/>
<g>
	<path class="st1" d="M105.3,62.6v0.2c0,1.2,0.2,2.3,0.5,3.3s0.8,2,1.4,2.8s1.4,1.4,2.3,1.9s2,0.7,3.2,0.7c2,0,3.5-0.5,4.7-1.6
		c1.2-1,2-2.5,2.4-4.3h1.5c-0.4,2.3-1.4,4.1-2.8,5.3s-3.4,1.8-5.7,1.8c-1.5,0-2.7-0.3-3.8-0.8c-1.1-0.5-2-1.2-2.7-2.2
		c-0.7-0.9-1.3-2-1.6-3.2c-0.4-1.2-0.5-2.6-0.5-4s0.2-2.7,0.6-4s0.9-2.4,1.7-3.3c0.7-1,1.7-1.7,2.8-2.3c1.1-0.6,2.4-0.9,3.9-0.9
		c1.4,0,2.6,0.3,3.7,0.8s2,1.2,2.7,2.1c0.7,0.9,1.3,1.9,1.6,3.1c0.4,1.2,0.6,2.4,0.6,3.7c0,0.1,0,0.3,0,0.4c0,0.2,0,0.3,0,0.4
		L105.3,62.6L105.3,62.6z M119.8,61.3c-0.1-1.1-0.2-2.1-0.5-3.1s-0.8-1.8-1.4-2.5s-1.3-1.3-2.2-1.7c-0.9-0.4-1.8-0.7-2.9-0.7
		c-1.2,0-2.2,0.2-3.1,0.7c-0.9,0.4-1.7,1-2.3,1.8c-0.6,0.7-1.1,1.6-1.4,2.6s-0.5,2-0.6,3L119.8,61.3L119.8,61.3z"/>
	<path class="st1" d="M125.4,65.7c0.1,0.9,0.3,1.7,0.6,2.4c0.4,0.7,0.8,1.3,1.4,1.8s1.2,0.9,2,1.1s1.6,0.4,2.5,0.4
		c0.6,0,1.3-0.1,2.1-0.2c0.7-0.1,1.4-0.3,2-0.6c0.6-0.3,1.1-0.7,1.6-1.3c0.4-0.5,0.6-1.2,0.6-2.1c0-1.1-0.3-1.9-1-2.5
		s-1.5-1-2.5-1.3s-2.1-0.6-3.3-0.7c-1.2-0.2-2.3-0.5-3.3-0.9s-1.8-0.9-2.5-1.6c-0.7-0.7-1-1.7-1-3.1c0-1,0.2-1.8,0.7-2.4
		c0.4-0.7,1-1.2,1.7-1.6c0.7-0.4,1.4-0.7,2.3-0.8c0.8-0.2,1.7-0.2,2.5-0.2c1,0,2,0.1,2.9,0.3s1.7,0.6,2.3,1.1c0.7,0.5,1.2,1.2,1.5,2
		c0.4,0.8,0.6,1.8,0.6,2.9h-1.5c0-0.9-0.1-1.7-0.4-2.3c-0.3-0.6-0.7-1.2-1.2-1.6c-0.5-0.4-1.1-0.7-1.9-0.9c-0.7-0.2-1.5-0.3-2.3-0.3
		c-0.7,0-1.3,0.1-2,0.2c-0.7,0.1-1.3,0.3-1.8,0.7c-0.5,0.3-1,0.7-1.3,1.2s-0.5,1.1-0.5,1.8c0,0.8,0.2,1.4,0.6,1.9s0.9,0.9,1.5,1.2
		s1.3,0.5,2.1,0.7s1.6,0.4,2.4,0.5c1,0.2,1.9,0.4,2.7,0.6c0.9,0.2,1.6,0.6,2.2,1c0.6,0.4,1.1,1,1.5,1.6c0.4,0.7,0.5,1.5,0.5,2.5
		c0,1.1-0.2,2-0.7,2.6c-0.5,0.7-1.1,1.2-1.8,1.7c-0.7,0.4-1.6,0.7-2.5,0.9c-0.9,0.2-1.8,0.2-2.7,0.2c-1.1,0-2.2-0.1-3.1-0.4
		c-1-0.3-1.8-0.7-2.5-1.3c-0.7-0.6-1.3-1.3-1.7-2.2c-0.4-0.9-0.6-1.9-0.7-3C124,65.7,125.4,65.7,125.4,65.7z"/>
</g>
<g id="Capa_1-2">
	<g id="Capa_1-2-2">
		
			<image style="overflow:visible;opacity:0.5;enable-background:new    ;" width="1141" height="435" xlink:href="B81E5E666B3B44DC.png"  transform="matrix(0.9992 0 0 0.9992 -509.243 205.9174)">
		</image>
		<path class="st1" d="M-295.1,291.4h708.8c72.5,0,131.2,58.8,131.2,131.2l0,0c0,72.5-58.8,131.2-131.2,131.2h-708.8
			c-72.5,0-131.2-58.8-131.2-131.2l0,0l0,0C-426.3,350.1-367.5,291.4-295.1,291.4L-295.1,291.4z"/>
		<path class="st2" d="M-29.2,442.9c3.2,0,5.7,2.6,5.7,5.7c0,3.2-2.6,5.7-5.7,5.7h-26.1c-3.9,0.2-7.1-2.8-7.3-6.7l0,0
			c0-0.2,0-0.4,0-0.6v-41.5c-0.2-3.9,2.8-7.1,6.7-7.3l0,0H-30c3.2,0,5.7,2.6,5.7,5.7c0,3.2-2.6,5.7-5.7,5.7h-19.4v11h12.1
			c3,0,5.5,2.5,5.5,5.5s-2.5,5.5-5.5,5.5h-12.1v11.2L-29.2,442.9z"/>
		<path class="st2" d="M24.9,432.1v16.2c0,3.5-2.9,6.4-6.4,6.3c-3.5,0-6.3-2.8-6.3-6.3v-16.2c0-6.2-2.9-9-7.1-9c-6.6,0-8,6.6-8,7.5
			v17.8c0,3.5-2.9,6.4-6.4,6.4s-6.4-2.9-6.4-6.4v-29.5c0-3.5,2.9-6.4,6.4-6.4s6.4,2.9,6.4,6.4v2.5c0.2-3,4.8-9.1,13-9.1
			S24.9,418.1,24.9,432.1z"/>
		<path class="st2" d="M70.8,418.1c0,1-0.3,2.1-0.8,3l-13.4,28.4c-1.4,3-3.4,4.9-6.4,4.9s-5-1.8-6.3-4.9l-13.5-28.4
			c-0.4-0.9-0.7-2-0.7-3c0-3.2,2.6-5.7,5.8-5.7l0,0l0,0c2.4,0,4.7,1.4,6.1,4.6l8.6,19.8l8.6-19.8c1.3-3.1,3.6-4.6,6-4.6
			c3.2-0.1,5.8,2.4,5.9,5.6L70.8,418.1z"/>
		<path class="st2" d="M78,402.7c-0.1-3.6,2.7-6.6,6.2-6.7c3.6-0.1,6.6,2.7,6.7,6.2c0.1,3.6-2.7,6.6-6.2,6.7h-0.2
			C81,408.9,78.2,406.2,78,402.7z M90.9,418.9v29.4c0.1,3.5-2.6,6.5-6.2,6.7c-3.5,0.1-6.5-2.6-6.7-6.1l0,0c0-0.2,0-0.3,0-0.5V419
			c-0.1-3.5,2.6-6.5,6.2-6.7c3.5-0.1,6.5,2.6,6.7,6.2C90.9,418.6,90.9,418.8,90.9,418.9z"/>
		<path class="st2" d="M141.6,418.8v29.7c-0.1,3.5-3,6.3-6.6,6.3c-3,0-5.6-2.1-6.2-5c-1.2,2.1-4.7,5-10.6,5
			c-8.8,0-19.2-6.7-19.2-21.4c0-14.2,10.6-21.3,19.2-21.3c5.4,0,9.4,3,10.4,5.9v0.7c0.1-3.5,2.9-6.3,6.4-6.3
			C138.5,412.4,141.4,415.2,141.6,418.8z M129.2,433.5c0-7.8-5-10.4-8.6-10.4c-4.6,0-8.8,3.6-8.8,10.4s4.2,10.5,8.8,10.5
			C124.1,444,129.2,441.5,129.2,433.5z"/>
		<path class="st2" d="M181.2,418.1c0,3.6-2.6,6-8.1,6c-5.6,0-9,4.2-9.1,6.6v17.8c-0.1,3.5-3.1,6.3-6.7,6.2c-3.3-0.1-6-2.8-6.2-6.2
			V419c-0.1-3.5,2.6-6.5,6.2-6.7c3.5-0.1,6.5,2.6,6.7,6.2c0,0.2,0,0.3,0,0.5v2.5c0.2-3,5-9.1,11.4-9.1c3-0.2,5.6,2.1,5.8,5.1
			C181.2,417.6,181.2,417.8,181.2,418.1z"/>
	</g>
</g>
<g>
	<path class="st1" d="M69.9,65.9L87,111.8H76.5l-3.5-10.2H55.9l-3.6,10.2H42.2l17.4-45.9H69.9z M70.4,94l-5.8-16.8h-0.1l-6,16.8
		H70.4z"/>
	<path class="st1" d="M99.4,65.9v45.9h-9.1V65.9H99.4z"/>
	<path class="st1" d="M116.4,103.8c1.4,1.3,3.3,2,5.9,2c1.8,0,3.4-0.5,4.8-1.4c1.3-0.9,2.1-1.9,2.4-2.9h8c-1.3,4-3.3,6.8-5.9,8.5
		c-2.7,1.7-5.9,2.6-9.6,2.6c-2.6,0-5-0.4-7.1-1.3c-2.1-0.8-3.9-2-5.3-3.6c-1.5-1.5-2.6-3.4-3.4-5.5c-0.8-2.1-1.2-4.5-1.2-7.1
		c0-2.5,0.4-4.8,1.2-6.9c0.8-2.1,2-4,3.5-5.6c1.5-1.6,3.3-2.8,5.4-3.7c2.1-0.9,4.4-1.3,6.9-1.3c2.8,0,5.3,0.5,7.4,1.6
		c2.1,1.1,3.8,2.6,5.2,4.4c1.3,1.8,2.3,3.9,2.9,6.3c0.6,2.4,0.8,4.8,0.6,7.4h-24C114.3,100.3,115,102.5,116.4,103.8z M126.7,86.3
		c-1.1-1.2-2.8-1.8-5-1.8c-1.5,0-2.7,0.2-3.6,0.7c-1,0.5-1.7,1.1-2.3,1.8c-0.6,0.7-1,1.5-1.2,2.3c-0.2,0.8-0.4,1.5-0.4,2.2H129
		C128.6,89.3,127.8,87.5,126.7,86.3z"/>
	<path class="st1" d="M141.1,78.6h10.4l5.8,8.7l5.8-8.7h10.1l-10.9,15.6l12.3,17.7h-10.4l-6.9-10.5l-6.9,10.5H140l12-17.5
		L141.1,78.6z"/>
</g>
<g>
	<g id="Capa_1-2_1_">
		<path class="st3" d="M370.5,46.8L370.5,46.8c16.3,0,29.5,13.2,29.5,29.5l0,0v38.8l0,0h-59l0,0V76.3C341,60,354.2,46.8,370.5,46.8
			L370.5,46.8z"/>
		<circle class="st3" cx="370.5" cy="16.5" r="21"/>
	</g>
</g>
<g>
	<g id="Capa_1-2_2_">
		<path class="st4" d="M461.7,171.5L461.7,171.5c16.3,0,29.5,13.2,29.5,29.5l0,0v38.8l0,0h-59l0,0V201
			C432.2,184.7,445.4,171.5,461.7,171.5L461.7,171.5z"/>
		<circle class="st4" cx="461.7" cy="141.2" r="21"/>
	</g>
</g>
<g>
	<path class="st1" d="M194.1,99.2c0-2,0.2-3.8,0.5-5.4c0.4-1.5,0.8-2.9,1.4-4.1c0.6-1.2,1.3-2.3,2.1-3.3s1.7-1.9,2.6-2.8
		c0.9-0.9,1.8-1.8,2.7-2.7c0.9-0.9,1.7-1.9,2.4-2.9s1.3-2.1,1.7-3.3c0.4-1.2,0.6-2.4,0.6-3.7c0-1.9-0.3-3.5-1-4.8s-1.6-2.5-2.7-3.3
		c-1.1-0.9-2.4-1.5-3.9-1.9s-3-0.6-4.6-0.6c-2.3,0-4.3,0.4-6,1.1c-1.7,0.8-3.2,1.8-4.3,3.2c-1.1,1.4-2,3-2.6,4.8s-0.9,3.9-0.9,6
		h-2.9c0-2.7,0.4-5.1,1.1-7.4c0.7-2.2,1.8-4.1,3.2-5.7s3.2-2.8,5.3-3.7c2.1-0.9,4.5-1.3,7.2-1.3c2,0,3.9,0.3,5.7,0.8
		c1.8,0.6,3.4,1.4,4.7,2.5c1.4,1.1,2.4,2.5,3.2,4.3c0.8,1.7,1.2,3.7,1.2,6c0,1.6-0.2,3-0.6,4.3c-0.4,1.2-0.9,2.4-1.5,3.4
		s-1.4,1.9-2.2,2.8c-0.8,0.8-1.6,1.7-2.5,2.5s-1.7,1.6-2.6,2.4c-0.9,0.8-1.7,1.8-2.4,3s-1.3,2.5-1.7,4.1c-0.4,1.6-0.7,3.5-0.7,5.7
		H194.1z M193.7,105.1h3.9v7.8h-3.9V105.1z"/>
</g>
</svg>
