<?xml version="1.0" encoding="utf-8"?>
<!-- Generator: Adobe Illustrator 21.0.0, SVG Export Plug-In . SVG Version: 6.00 Build 0)  -->
<svg version="1.1" id="Capa_1" xmlns="http://www.w3.org/2000/svg" xmlns:xlink="http://www.w3.org/1999/xlink" x="0px" y="0px"
	 viewBox="0 0 100 100" style="enable-background:new 0 0 100 100;" xml:space="preserve">
<style type="text/css">
	.st0{fill:#751443;}
	.st1{fill:none;stroke:#751443;stroke-miterlimit:10;}
	.st2{fill:#E6E7E8;}
	.st3{fill:#DE5D50;}
	.st4{fill:#F26754;}
	.st5{fill:#4B1232;}
	.st6{fill:none;stroke:#751443;stroke-width:9;stroke-miterlimit:10;}
</style>
<g>
	<g>
		<path class="st5" d="M5.9,21.5h73.9c0.9,0,1.7,0.7,1.7,1.7v73.9c0,0.9-0.7,1.7-1.7,1.7H5.9c-0.9,0-1.7-0.7-1.7-1.7V23.2
			C4.2,22.2,5,21.5,5.9,21.5z"/>
		<path class="st0" d="M10.1,84.8h65.6c0.9,0,1.7,0.7,1.7,1.7v7.7c0,0.9-0.7,1.7-1.7,1.7H10.1c-0.9,0-1.7-0.7-1.7-1.7v-7.7
			C8.4,85.6,9.2,84.8,10.1,84.8z"/>
		<path class="st0" d="M92.2,60.1H72.8c-2,0-3.6-1.6-3.6-3.6V35c0-2-1.6-3.6-3.6-3.6h0c-2,0-3.6-1.6-3.6-3.6V4.8
			c0-2,1.6-3.6,3.6-3.6h26.5c2,0,3.6,1.6,3.6,3.6v51.7C95.8,58.5,94.2,60.1,92.2,60.1z"/>
	</g>
</g>
</svg>
