<?xml version="1.0" encoding="utf-8"?>
<!-- Generator: Adobe Illustrator 21.0.0, SVG Export Plug-In . SVG Version: 6.00 Build 0)  -->
<svg version="1.1" id="Capa_1" xmlns="http://www.w3.org/2000/svg" xmlns:xlink="http://www.w3.org/1999/xlink" x="0px" y="0px"
	 viewBox="0 0 100 100" style="enable-background:new 0 0 100 100;" xml:space="preserve">
<style type="text/css">
	.st0{fill:#751443;}
	.st1{fill:none;stroke:#751443;stroke-miterlimit:10;}
	.st2{fill:#E6E7E8;}
	.st3{fill:#DE5D50;}
	.st4{fill:#F26754;}
	.st5{fill:#4B1232;}
	.st6{fill:none;stroke:#751443;stroke-width:9;stroke-miterlimit:10;}
</style>
<g>
	<path class="st0" d="M50,25.9c-13.3,0-24,10.6-24,23.9c0,13.3,10.6,24.1,23.9,24.1c13.2,0,24-10.7,24-24
		C73.9,36.7,63.2,25.9,50,25.9z M49.8,65.5c-8.6,0-15.7-7.1-15.7-15.6c0-8.5,7.2-15.6,15.7-15.7c8.8-0.1,15.9,7.1,15.7,15.9
		C65.4,58.8,58.5,65.5,49.8,65.5z"/>
	<path class="st0" d="M70.1,3.2c-13.6-0.1-27.1-0.1-40.7,0C14.8,3.4,3.5,14.8,3.2,29.5c-0.1,6.8,0,13.6,0,20.3c0,6.5,0,13,0,19.5
		c0.1,15.4,11.2,27,26.5,27.3c13.6,0.3,27.1,0.3,40.7,0C85,96.3,96.3,85,96.6,70.7c0.3-13.8,0.3-27.7,0-41.5
		C96.3,14.6,84.7,3.3,70.1,3.2z M88.2,70.2c-0.1,10.4-8,18-18.4,18.1c-6.6,0.1-13.3,0-19.9,0s-13.3,0.1-19.9,0
		c-10-0.1-17.9-7-18.2-16.9c-0.5-14.2-0.5-28.5,0-42.8c0.3-9.8,8.1-16.9,18.1-17.1c13.4-0.2,26.8-0.2,40.3,0
		c10.5,0.2,18,8,18.1,18.5C88.4,43.3,88.4,56.7,88.2,70.2z"/>
	<path class="st0" d="M74.8,18.8c-3.1,0-6,2.8-5.9,5.9c0,3,2.6,5.7,5.6,5.8c3.2,0.1,6-2.5,6.1-5.7C80.7,21.6,78,18.8,74.8,18.8z"/>
</g>
</svg>
