<?xml version="1.0" encoding="utf-8"?>
<!-- Generator: Adobe Illustrator 21.0.0, SVG Export Plug-In . SVG Version: 6.00 Build 0)  -->
<svg version="1.1"
	 id="svg3447" inkscape:version="0.48.3.1 r9886" sodipodi:docname="undo_font_awesome.svg" xmlns:cc="http://creativecommons.org/ns#" xmlns:dc="http://purl.org/dc/elements/1.1/" xmlns:inkscape="http://www.inkscape.org/namespaces/inkscape" xmlns:rdf="http://www.w3.org/1999/02/22-rdf-syntax-ns#" xmlns:sodipodi="http://sodipodi.sourceforge.net/DTD/sodipodi-0.dtd" xmlns:svg="http://www.w3.org/2000/svg"
	 xmlns="http://www.w3.org/2000/svg" xmlns:xlink="http://www.w3.org/1999/xlink" x="0px" y="0px" viewBox="0 0 1080 1080"
	 style="enable-background:new 0 0 1080 1080;" xml:space="preserve">
<style type="text/css">
	.st0{fill:#FFFFFF;}
</style>
<sodipodi:namedview  bordercolor="#666666" borderopacity="1" gridtolerance="10" guidetolerance="10" id="namedview3453" inkscape:current-layer="svg3447" inkscape:cx="896" inkscape:cy="896" inkscape:pageopacity="0" inkscape:pageshadow="2" inkscape:window-height="480" inkscape:window-maximized="0" inkscape:window-width="640" inkscape:window-x="0" inkscape:window-y="25" inkscape:zoom="0.13169643" objecttolerance="10" pagecolor="#ffffff" showgrid="false">
	</sodipodi:namedview>
<g id="g3449" transform="matrix(1,0,0,-1,113.89831,1262.6441)">
	<path id="path3451" inkscape:connector-curvature="0" class="st0" d="M880.5,733.1c0-62.7-12.3-122.5-36.8-179.6
		s-57.5-106.3-98.8-147.7s-90.6-74.3-147.7-98.8c-57.1-24.5-116.9-36.8-179.6-36.8c-71.9,0-139.5,15.3-202.8,45.8
		S98.1,389.4,54.5,444.4s-73.2,117.7-88.9,188c-1.2,5.6,0.2,11,4.2,16.3c3.6,4.8,8.6,7.2,15.1,7.2h119.9c9.2,0,15.3-4.6,18.1-13.9
		C143,577,180.1,524.5,234.4,484.5s115.3-60,183.2-60c41.8,0,81.7,8.1,119.6,24.4c38,16.3,70.8,38.3,98.5,66
		c27.7,27.7,49.7,60.6,66,98.5c16.3,38,24.4,77.8,24.4,119.6s-8.1,81.7-24.4,119.6c-16.3,38-38.3,70.8-66,98.5s-60.6,49.7-98.5,66
		c-38,16.3-77.8,24.4-119.6,24.4c-39.4,0-77.1-7.1-113.3-21.4s-68.3-34.7-96.4-61.2l82.6-83.2c12.5-12.1,15.3-25.9,8.4-41.6
		c-6.8-16.1-18.7-24.1-35.6-24.1h-270c-10.4,0-19.5,3.8-27.1,11.5c-7.6,7.6-11.5,16.7-11.5,27.1v270c0,16.9,8,28.7,24.1,35.6
		c15.7,6.8,29.5,4,41.6-8.4l78.3-77.7c43,40.6,92.1,72,147.4,94.3s112.4,33.4,171.5,33.4c62.7,0,122.5-12.3,179.6-36.8
		c57.1-24.5,106.3-57.5,147.7-98.8c41.4-41.4,74.3-90.6,98.8-147.7C868.2,855.6,880.5,795.8,880.5,733.1z"/>
</g>
</svg>
