<svg xmlns="http://www.w3.org/2000/svg" viewBox="0 0 96.21 128.66"><defs><style>.cls-1{fill:#057;}.cls-2{fill:#ffb000;}</style></defs><title>Recurso 2</title><g id="Capa_2" data-name="Capa 2"><g id="Capa_1-2" data-name="Capa 1"><path class="cls-1" d="M95.68,101.07c-1.19-4.42-.91-9.24-1.33-13.87q-2.1-23.83-4.24-47.67C89.57,33.37,87.35,28,81.54,25.3c-4.4-2-6.15-5-6.11-9.54,0-5.64-3-9.19-8-11.48C55.86-1.06,44-1.16,32,2.61,24.53,5,19.43,9.43,19.78,17.94c.15,3.65-1.75,5.24-4.67,6.66-6.24,3-9.25,8.23-9.68,15.13C5.07,45.37,4.1,51,4,56.61c-.4,19.79-6.71,39.32-2.62,59.3.41,2-1.51,4.87,2.32,5.47,2.29.35,4.53,1,6.83,1.31.46.06,1.41-1,1.55-1.66,1.27-5.94,4.82-11.25,4.55-17.66-.14-3.24.74-6.52,1.16-9.78a135.9,135.9,0,0,0,2.88,27.73c.65,3,1,4.59,4.4,5.23a124.81,124.81,0,0,0,45.11.11c3.66-.64,4.69-2.24,4.32-5.63-.18-1.6-.41-3.79.45-4.81,3.23-3.82,2.28-8.12,2.2-12.38,0-2.45-.56-4.94.87-8.59,1.1,8.94,1.35,16.91,5.12,24.07.78,1.49.21,4.17,3.06,3.3s7.73.21,7.91-3.42C94.4,113.14,97.4,107.43,95.68,101.07Zm-34.16-74a60,60,0,0,0,10.33-8.67C73.48,22.81,69.37,26.32,61.52,27.1ZM49.47,30.83a3.4,3.4,0,0,1-3.71-.24A116,116,0,0,1,29.63,19.84c-2.94-2.35-1.89-3.36.88-4.66C36.06,12.58,42,12,48.05,11.54c6,.4,12.1,1.2,17.73,4,2.13,1.05,2.73,2.1.59,3.91A113.23,113.23,0,0,1,49.47,30.83ZM25.93,9.34A31.69,31.69,0,0,1,40.16,3.73C49.89,2.43,59.4,3,68.08,8.32c2.85,1.74,3.41,2.42,3.33,4.14-.74,3.31-2.67,1.06-4,.45-10.53-5-21.4-5.5-32.51-2.59C32.56,11,30.35,12.2,28,13c-1.08.36-2.24,2.23-3.37.57S24.38,10.43,25.93,9.34ZM23.16,18.1l10.08,9.11.24.05a.22.22,0,0,0,0,.11l1.26.25c-.15.16-.31.45-.47.46-.49,0-.86-.16-.79-.71l-.08,0-.15-.14C25.86,25.77,22.58,23,23.16,18.1ZM68,123.89a123.61,123.61,0,0,1-19.77,1.64,115.71,115.71,0,0,1-20.27-1.61c-2.2-.35-4.34-.78-3.83-3.89.6-3.65,3-1.62,4.57-1.33a100.48,100.48,0,0,0,38.45-.08c1.37-.27,3.59-2.17,4.25,1.09C71.92,122.5,70.43,123.48,68,123.89Zm23.11-6.54c-.29,1.64-1.89,1.49-3.11,1.73-.94.18-1.77-.17-1.64-1.18.24-1.76,1.83-1.5,3-1.72C90.21,116.2,91.26,116.3,91.07,117.35Zm-.93-4.53c-5.09,2.3-6.88,1.07-7.58-5.1C80.83,92.36,79.17,77,77.45,61.64c-.17-1.52.42-4-1.88-3.86S74.31,60.47,74.24,62a458.29,458.29,0,0,0,0,45.85c.26,4.35-1.48,6.39-5.58,7.3a95.43,95.43,0,0,1-42,0c-3.82-.84-5.49-2.78-5.3-7,.35-7.63.1-15.3.1-22.95h0c0-7.81.05-15.63,0-23.45,0-1.47.88-3.88-1.57-4-2.06-.1-1.56,2.23-1.71,3.56C16.54,75.14,15,89,13.45,102.88a36.82,36.82,0,0,1-.6,4.94c-.61,2.4.61,6-4.25,5.63s-6.43-2.78-6-7.18Q3.64,94.1,4.72,81.94C6,68.2,7.47,54.48,8.41,40.73c.51-7.44,4.23-12,10.76-14.72,1.11-.47,18.76,6.48,19,7.64a14.89,14.89,0,0,1,.18,3.48c0,10.48,0,21,.05,31.43,0,1.31-.81,3.53,1.4,3.6s1.58-2.15,1.58-3.5c0-10.31.17-20.63,0-30.94-.08-3.39,1-4.07,4-3.2.93.28,2.09.72,2.89.41,6.44-2.51,6.11,1.45,6,5.83-.18,9.15-.11,18.3,0,27.45,0,1.41-1,4,1.52,3.89,2.31-.08,1.45-2.6,1.46-4.09.07-10.48.14-21,0-31.44,0-2.81.81-4.14,3.54-4.91s5.51-2.29,8.29-3.37,4.66-4.16,8.49-1.84c4.45,2.71,8.45,5.46,9,11.06Q88,50.89,89.22,64.29C90.45,78,91.6,91.78,92.79,105.52,93,108.37,93.37,111.35,90.14,112.82Z"/><path class="cls-2" d="M91.07,117.35c-.29,1.64-1.89,1.49-3.11,1.73-.94.18-1.77-.17-1.64-1.18.24-1.76,1.83-1.5,3-1.72C90.21,116.2,91.26,116.3,91.07,117.35Z"/><path class="cls-2" d="M68,123.89a123.61,123.61,0,0,1-19.77,1.64,115.71,115.71,0,0,1-20.27-1.61c-2.2-.35-4.34-.78-3.83-3.89.6-3.65,3-1.62,4.57-1.33a100.48,100.48,0,0,0,38.45-.08c1.37-.27,3.59-2.17,4.25,1.09C71.92,122.5,70.43,123.48,68,123.89Z"/><path class="cls-2" d="M90.14,112.82c-5.09,2.3-6.88,1.07-7.58-5.1C80.83,92.36,79.17,77,77.45,61.64c-.17-1.52.42-4-1.88-3.86S74.31,60.47,74.24,62a458.29,458.29,0,0,0,0,45.85c.26,4.35-1.48,6.39-5.58,7.3a95.43,95.43,0,0,1-42,0c-3.82-.84-5.49-2.78-5.3-7,.35-7.63.1-15.3.1-22.95h0c0-7.81.05-15.63,0-23.45,0-1.47.88-3.88-1.57-4-2.06-.1-1.56,2.23-1.71,3.56C16.54,75.14,15,89,13.45,102.88a36.82,36.82,0,0,1-.6,4.94c-.61,2.4.61,6-4.25,5.63s-6.43-2.78-6-7.18Q3.64,94.1,4.72,81.94C6,68.2,7.47,54.48,8.41,40.73c.51-7.44,4.23-12,10.76-14.72,1.11-.47,18.76,6.48,19,7.64a14.89,14.89,0,0,1,.18,3.48c0,10.48,0,21,.05,31.43,0,1.31-.81,3.53,1.4,3.6s1.58-2.15,1.58-3.5c0-10.31.17-20.63,0-30.94-.08-3.39,1-4.07,4-3.2.93.28,2.09.72,2.89.41,6.44-2.51,6.11,1.45,6,5.83-.18,9.15-.11,18.3,0,27.45,0,1.41-1,4,1.52,3.89,2.31-.08,1.45-2.6,1.46-4.09.07-10.48.14-21,0-31.44,0-2.81.81-4.14,3.54-4.91s5.51-2.29,8.29-3.37,4.66-4.16,8.49-1.84c4.45,2.71,8.45,5.46,9,11.06Q88,50.89,89.22,64.29C90.45,78,91.6,91.78,92.79,105.52,93,108.37,93.37,111.35,90.14,112.82Z"/><path class="cls-2" d="M61.52,27.1a60,60,0,0,0,10.33-8.67C73.48,22.81,69.37,26.32,61.52,27.1Z"/><path class="cls-2" d="M33.24,27.21C25.86,25.77,22.58,23,23.16,18.1Z"/><path class="cls-2" d="M71.41,12.46c-.74,3.31-2.67,1.06-4,.45-10.53-5-21.4-5.5-32.51-2.59C32.56,11,30.35,12.2,28,13c-1.08.36-2.24,2.23-3.37.57s-.24-3.13,1.31-4.22A31.69,31.69,0,0,1,40.16,3.73C49.89,2.43,59.4,3,68.08,8.32,70.93,10.06,71.49,10.74,71.41,12.46Z"/><path class="cls-1" d="M66.37,19.43a113.23,113.23,0,0,1-16.9,11.4,3.4,3.4,0,0,1-3.71-.24A116,116,0,0,1,29.63,19.84c-2.94-2.35-1.89-3.36.88-4.66C36.06,12.58,42,12,48.05,11.54c6,.4,12.1,1.2,17.73,4C67.91,16.57,68.51,17.62,66.37,19.43Z"/></g></g></svg>