<svg xmlns="http://www.w3.org/2000/svg" viewBox="0 0 90.79 135.2"><defs><style>.cls-1{fill:#057;}.cls-2{fill:#fff;}.cls-3{fill:#9aaf8e;}</style></defs><title>Recurso 5</title><g id="Capa_2" data-name="Capa 2"><g id="Capa_1-2" data-name="Capa 1"><path class="cls-1" d="M83.62,55.4c-7.18-9.82-5.44-20.83-.54-31.27,1.72-3.64.63-5.95-2.13-8.14a13.39,13.39,0,0,0-6.21-3c-3-.47-4.36-1.63-4.52-5C69.93,1.81,67.87.12,61.7.07Q45.23-.06,28.76.07c-5.38,0-7.86,2.22-7.89,7.43,0,3.5-1.26,4.73-4.57,5.56-8.7,2.21-10.52,5.8-7.22,13.81C13,36.35,13.47,45.76,8,54.58,4.55,60.08,2,65.24,1,72c-1.58,10.6.1,21.07-1,31.54,0,.46.26,1,.28,1.45a79.51,79.51,0,0,0,4,23.35c1,2.91,1.38,4.45,4.66,4.76,12.09,1.19,24.16,2.41,36.74,1.94,9.75.49,19.86-.34,30-1.25,5.7-.51,12.32.06,11.83-8.81,0-.16.15-.3.22-.44,2-4.47,2.51-9.17,2.77-14,.39-7.43.14-14.83.27-22.24C90.93,76.61,91.07,65.61,83.62,55.4Zm2.51,10.79c.63,2.94-.15,3.93-3.12,3.86-5.47-.13-11,0-16.43,0s-11-.08-16.43,0c-2.31,0-3.1-.74-3.27-3.11-.83-11.69-.9-11.68,10.51-11.68H73.32C79.09,55.24,84.89,60.37,86.13,66.19ZM47,93.14c-.08-2,1.35-2,2.73-2,6.66,0,13.47-.89,19.93.26,6.15,1.1,1.8,7,2.81,10.6.53,1.88.88,4.43-2.81,4.13-3.31-.28-6.66-.07-10-.07-.83,0-1.67.07-2.49,0-3.26-.31-7.9,1.59-9.48-.81C45.5,102.05,47.14,97.26,47,93.14ZM58.72,38c2.63.33,5.28.52,7.9.89,8.4,1.18,8.17,1.26,10.21,9.17.89,3.44.23,4.27-3.17,4.05-3.8-.25-7.62-.05-11.43-.05-4,0-8-.13-11.93,0-2.62.12-3.32-.85-3.43-3.41C46.37,36.36,46.29,36.37,58.72,38Zm9.61-20.1c3-4.14,5.83-1.6,8.62-.46s4.4,3.18,2.65,6.63a30.36,30.36,0,0,0-3.11,9.39c-.35,2.48-1.61,3.59-3.36,2.9-8.2-1-15.6-2-23-2.73-2.56-.26-3.28-1.26-3.25-3.76s1.49-2.4,3.23-2.43A22,22,0,0,0,68.33,17.89ZM23.91,8.13c.36-3.53,2-4.93,5.49-4.83,5.49.15,11,0,16.48,0,4.66,0,9.32-.06,14,0,2.24,0,5.29-.92,6.29,1.71,1.2,3.17,2.15,6.86.1,10-3.54,5.5-8.85,8.37-15.32,9.12-2.73.31-4.06-.94-4-3.7a33.61,33.61,0,0,0,0-4.49c-.3-2.69.6-3.88,3.49-3.91A20.4,20.4,0,0,0,62,8.05c.93-.65,2.05-1.5,1.2-2.85s-1.92-.55-3,0c-9.76,5.53-19.54,5.62-29.33,0-1-.56-2.06-1.61-3-.16-.78,1.24.15,2.17,1.15,2.89A19.57,19.57,0,0,0,40.12,12.1c3.08.08,4.17,1.08,3.79,4.09a52.89,52.89,0,0,0-.08,5.49c0,1.58-.91,2.28-2.47,2.56C33,25.71,23.08,16.45,23.91,8.13ZM29,52.05c-4.15,0-8.31-.11-12.46,0-2.55.08-3-.78-2.56-3.24,1.7-8.6,1.6-8.69,10.78-10,5.09-.7,10.23-1.07,15.32-1.8,2.66-.38,3.77.07,3.87,3.17C44.31,52.05,44.43,52.05,29,52.05ZM11.54,24.24C10,20.86,10.9,18.74,14,17.49c2.83-1.14,5.72-3.81,8.65.36C27,24.07,33.32,27.17,40.91,27.4c2,.06,3.17.3,3,2.67-.12,1.7.1,3.18-2.36,3.44-7.92.84-15.81,1.88-23.72,2.85-1.66.09-2.68-.15-3.13-2.22A47.18,47.18,0,0,0,11.54,24.24Zm-6,39.84c3.06-4.77,5.66-10.14,13.49-9,7,1,14.25.28,21.39.15,2.47,0,3.41.53,3.51,3.26C44.37,70,44.48,70,32.77,70H24.3c-5,0-10,0-14.94,0C4.76,70,3.13,67.87,5.56,64.08Zm38.29,40.07c0,2-1.29,2-2.67,2H31.23a72.81,72.81,0,0,0-8,.06c-3.58.38-4.86-.62-4.71-4.53C19,91.21,18.8,91.2,29.29,91.2c1.49,0,3-.09,4.47,0,3.26.26,8.25-1.55,9.38.76C44.78,95.36,43.73,100,43.85,104.15ZM3.65,75.88c.47-2,1.43-2.69,3.4-2.68,11.28,0,22.56,0,33.84,0,1.23,0,2.91-.44,2.94,1.65.05,3.81.08,7.62,0,11.43-.06,2-1.74,1.63-3,1.66-3.15,0-6.3,0-9.45,0h-2c-3.31-.09-7.23.91-9.75-.54-2.84-1.64-1.51-6-1.88-9.2s-2-3.57-4.79-3.26-4.88.83-4.17,4.39c.36,1.78.37,3.62.62,5.43.22,1.56.54,3.12-1.8,3.15C5.8,88,4,88.42,3.45,85.71A23,23,0,0,1,3.65,75.88Zm8.6,5c-.1-1-.56-2.22.85-2.37,1.83-.23,1.47,1.42,1.55,2.45.42,5.11.76,10.22,1.13,15.38-.36,5.09-.69,10.21-1.11,15.32-.08,1,.2,2.67-1.63,2.38-1.39-.22-.92-1.52-.82-2.44A144.71,144.71,0,0,0,12.25,80.85Zm-9,13.92c.32-2.44,1-3.77,4-3.67,3.51.1,2.31,2.44,2.5,4.16a27.08,27.08,0,0,1,0,3c0,1.67-.06,3.32,0,5,.08,2.06-.72,3-2.91,2.93-1.84-.06-3.06-.21-3.41-2.49A32.05,32.05,0,0,1,3.28,94.77Zm2.4,26.59a29,29,0,0,1-1.85-9.71c0-2,.91-2.5,2.75-2.53,2.1,0,2.59.9,2.31,2.74-.45,2.93-.62,5.35,3.56,5.94,3.74.52,5.53-.5,5.24-4.22-.29-3.88,1.48-4.69,5-4.48a115.71,115.71,0,0,0,15.91,0c4.56-.39,6,1.24,5.3,5.49a22.3,22.3,0,0,0,0,3.47c0,9.28,0,9.46-9.4,9-8.1-.4-16.18-1.39-24.28-1.89C7.49,125,6.48,123.5,5.68,121.36Zm2.43,7.26C26,131.55,44.18,129,62,131.57,44,132.15,25.92,132.36,8.11,128.62Zm74.91.95c-5.37.37-10.65,2.08-16.19.17,5.42-.51,10.83-1,16.25-1.56Zm3.88-15.5a16.64,16.64,0,0,1-.42,4c-1,4.27-2.47,7.17-8,7.42-9.26.41-18.5,1.54-27.8,1.73-2.79,0-4.12-.56-3.7-3.5a12.35,12.35,0,0,0,0-1.49c.11-4.13-1.33-9.53.74-12,2.46-3,8.1-.47,11.57-1a54.5,54.5,0,0,0,6.74,0c4.83-.67,7.92.37,7.69,6.17-.13,3.39,2.44,2.82,4.64,2.39s4.81-.36,4.11-4.05c-.3-1.59-2.43-4.45,1.86-4.49S86.85,112.06,86.9,114.07Zm-8.44.11c-3.64-5.11-3.69-30.17-.08-35.72A258.06,258.06,0,0,0,78.46,114.18Zm6.61-8.07c-3.49.75-4.22-1.74-3.73-4,.79-3.63-3.15-8.63,2.61-10.82,2.22-.86,3.82.42,3.75,3.08,0,1.49,0,3,0,5.15C86.87,101.25,89.75,105.11,85.07,106.11Zm2.62-20.65c-.29,2.62-2.09,2.54-4,2.53-2.34,0-2.09-1.6-2-3.12.09-1.32.14-2.64.31-4,.64-5-1.29-6.9-6.19-6.22-1.06.15-1.92.5-2.07,1.72-.09.66-.13,1.33-.24,2C71.91,88,71.91,88,62.22,88c-2.66,0-5.32,0-8,0-8.52-.12-7.16,1.09-7.31-7.47a23.92,23.92,0,0,0,0-3.49c-.46-3.14.9-3.91,3.91-3.87,10.63.17,21.27.23,31.89,0,3.48-.08,4.69,1.3,5.06,4.41A33.85,33.85,0,0,1,87.69,85.46Z"/><path class="cls-2" d="M14.65,80.93c-.08-1,.28-2.68-1.55-2.45-1.41.15-.95,1.41-.85,2.37a144.71,144.71,0,0,1,0,30.72c-.1.92-.57,2.22.82,2.44,1.83.29,1.55-1.36,1.63-2.38.42-5.11.75-10.23,1.11-15.32C15.41,91.15,15.07,86,14.65,80.93Z"/><path class="cls-1" d="M62,131.57c-18.09.58-36.12.79-53.93-2.95C26,131.55,44.18,129,62,131.57Z"/><path class="cls-1" d="M83.08,128.18,83,129.57c-5.37.37-10.65,2.08-16.19.17C72.25,129.23,77.66,128.7,83.08,128.18Z"/><path class="cls-3" d="M85.07,106.11c-3.49.75-4.22-1.74-3.73-4,.79-3.63-3.15-8.63,2.61-10.82,2.22-.86,3.82.42,3.75,3.08,0,1.49,0,3,0,5.15C86.87,101.25,89.75,105.11,85.07,106.11Z"/><path class="cls-3" d="M72.43,102.05c.53,1.88.88,4.43-2.81,4.13-3.31-.28-6.66-.07-10-.07-.83,0-1.67.07-2.49,0-3.26-.31-7.9,1.59-9.48-.81-2.16-3.25-.52-8-.7-12.16-.08-2,1.35-2,2.73-2,6.66,0,13.47-.89,19.93.26C75.77,92.55,71.42,98.44,72.43,102.05Z"/><path class="cls-3" d="M86.9,114.07a16.64,16.64,0,0,1-.42,4c-1,4.27-2.47,7.17-8,7.42-9.26.41-18.5,1.54-27.8,1.73-2.79,0-4.12-.56-3.7-3.5a12.35,12.35,0,0,0,0-1.49c.11-4.13-1.33-9.53.74-12,2.46-3,8.1-.47,11.57-1a54.5,54.5,0,0,0,6.74,0c4.83-.67,7.92.37,7.69,6.17-.13,3.39,2.44,2.82,4.64,2.39s4.81-.36,4.11-4.05c-.3-1.59-2.43-4.45,1.86-4.49S86.85,112.06,86.9,114.07Z"/><path class="cls-3" d="M43.9,114.55a22.3,22.3,0,0,0,0,3.47c0,9.28,0,9.46-9.4,9-8.1-.4-16.18-1.39-24.28-1.89-2.7-.15-3.71-1.63-4.51-3.77a29,29,0,0,1-1.85-9.71c0-2,.91-2.5,2.75-2.53,2.1,0,2.59.9,2.31,2.74-.45,2.93-.62,5.35,3.56,5.94,3.74.52,5.53-.5,5.24-4.22-.29-3.88,1.48-4.69,5-4.48a115.71,115.71,0,0,0,15.91,0C43.16,108.67,44.58,110.3,43.9,114.55Z"/><path class="cls-3" d="M9.76,98.25c0,1.67-.06,3.32,0,5,.08,2.06-.72,3-2.91,2.93-1.84-.06-3.06-.21-3.41-2.49a32.05,32.05,0,0,1-.16-8.91c.32-2.44,1-3.77,4-3.67,3.51.1,2.31,2.44,2.5,4.16A27.08,27.08,0,0,1,9.76,98.25Z"/><path class="cls-3" d="M43.85,104.15c0,2-1.29,2-2.67,2H31.23a72.81,72.81,0,0,0-8,.06c-3.58.38-4.86-.62-4.71-4.53C19,91.21,18.8,91.2,29.29,91.2c1.49,0,3-.09,4.47,0,3.26.26,8.25-1.55,9.38.76C44.78,95.36,43.73,100,43.85,104.15Z"/><path class="cls-3" d="M87.69,85.46c-.29,2.62-2.09,2.54-4,2.53-2.34,0-2.09-1.6-2-3.12.09-1.32.14-2.64.31-4,.64-5-1.29-6.9-6.19-6.22-1.06.15-1.92.5-2.07,1.72-.09.66-.13,1.33-.24,2C71.91,88,71.91,88,62.22,88c-2.66,0-5.32,0-8,0-8.52-.12-7.16,1.09-7.31-7.47a23.92,23.92,0,0,0,0-3.49c-.46-3.14.9-3.91,3.91-3.87,10.63.17,21.27.23,31.89,0,3.48-.08,4.69,1.3,5.06,4.41A33.85,33.85,0,0,1,87.69,85.46Z"/><path class="cls-3" d="M43.8,86.32c-.06,2-1.74,1.63-3,1.66-3.15,0-6.3,0-9.45,0h-2c-3.31-.09-7.23.91-9.75-.54-2.84-1.64-1.51-6-1.88-9.2s-2-3.57-4.79-3.26-4.88.83-4.17,4.39c.36,1.78.37,3.62.62,5.43.22,1.56.54,3.12-1.8,3.15C5.8,88,4,88.42,3.45,85.71a23,23,0,0,1,.2-9.83c.47-2,1.43-2.69,3.4-2.68,11.28,0,22.56,0,33.84,0,1.23,0,2.91-.44,2.94,1.65C43.88,78.7,43.91,82.51,43.8,86.32Z"/><path class="cls-3" d="M83,70.05c-5.47-.13-11,0-16.43,0s-11-.08-16.43,0c-2.31,0-3.1-.74-3.27-3.11-.83-11.69-.9-11.68,10.51-11.68H73.32c5.77,0,11.57,5.12,12.81,10.94C86.76,69.13,86,70.12,83,70.05Z"/><path class="cls-3" d="M32.77,70H24.3c-5,0-10,0-14.94,0-4.6,0-6.23-2.13-3.8-5.92,3.06-4.77,5.66-10.14,13.49-9,7,1,14.25.28,21.39.15,2.47,0,3.41.53,3.51,3.26C44.37,70,44.48,70,32.77,70Z"/><path class="cls-3" d="M29,52.05c-4.15,0-8.31-.11-12.46,0-2.55.08-3-.78-2.56-3.24,1.7-8.6,1.6-8.69,10.78-10,5.09-.7,10.23-1.07,15.32-1.8,2.66-.38,3.77.07,3.87,3.17C44.31,52.05,44.43,52.05,29,52.05Z"/><path class="cls-3" d="M43.9,30.07c-.12,1.7.1,3.18-2.36,3.44-7.92.84-15.81,1.88-23.72,2.85-1.66.09-2.68-.15-3.13-2.22a47.18,47.18,0,0,0-3.15-9.9C10,20.86,10.9,18.74,14,17.49c2.83-1.14,5.72-3.81,8.65.36C27,24.07,33.32,27.17,40.91,27.4,42.87,27.46,44.08,27.7,43.9,30.07Z"/><path class="cls-3" d="M73.66,52.1c-3.8-.25-7.62-.05-11.43-.05-4,0-8-.13-11.93,0-2.62.12-3.32-.85-3.43-3.41-.5-12.31-.58-12.3,11.85-10.68,2.63.33,5.28.52,7.9.89,8.4,1.18,8.17,1.26,10.21,9.17C77.72,51.49,77.06,52.32,73.66,52.1Z"/><path class="cls-3" d="M79.6,24.06a30.36,30.36,0,0,0-3.11,9.39c-.35,2.48-1.61,3.59-3.36,2.9-8.2-1-15.6-2-23-2.73-2.56-.26-3.28-1.26-3.25-3.76s1.49-2.4,3.23-2.43a22,22,0,0,0,18.24-9.54c3-4.14,5.83-1.6,8.62-.46S81.35,20.61,79.6,24.06Z"/><path class="cls-3" d="M66.25,15.12c-3.54,5.5-8.85,8.37-15.32,9.12-2.73.31-4.06-.94-4-3.7a33.61,33.61,0,0,0,0-4.49c-.3-2.69.6-3.88,3.49-3.91A20.4,20.4,0,0,0,62,8.05c.93-.65,2.05-1.5,1.2-2.85s-1.92-.55-3,0c-9.76,5.53-19.54,5.62-29.33,0-1-.56-2.06-1.61-3-.16-.78,1.24.15,2.17,1.15,2.89A19.57,19.57,0,0,0,40.12,12.1c3.08.08,4.17,1.08,3.79,4.09a52.89,52.89,0,0,0-.08,5.49c0,1.58-.91,2.28-2.47,2.56C33,25.71,23.08,16.45,23.91,8.13c.36-3.53,2-4.93,5.49-4.83,5.49.15,11,0,16.48,0,4.66,0,9.32-.06,14,0,2.24,0,5.29-.92,6.29,1.71C67.35,8.24,68.3,11.93,66.25,15.12Z"/><path class="cls-2" d="M76.46,80.93c.08-1-.28-2.68,1.55-2.45,1.41.15.95,1.41.85,2.37a144.71,144.71,0,0,0,0,30.72c.1.92.57,2.22-.82,2.44-1.83.29-1.55-1.36-1.63-2.38-.42-5.11-.75-10.23-1.11-15.32C75.7,91.15,76,86,76.46,80.93Z"/></g></g></svg>