<svg xmlns="http://www.w3.org/2000/svg" viewBox="0 0 77.49 134.49"><defs><style>.cls-1{fill:#057;}.cls-2{fill:#5589a3;}</style></defs><title>Recurso 4</title><g id="Capa_2" data-name="Capa 2"><g id="Capa_1-2" data-name="Capa 1"><path class="cls-1" d="M71.76,10.64a154.91,154.91,0,0,1-15.27-9.4A5.71,5.71,0,0,0,50.07.77C44.69,3.42,38.28,5.16,33.22,2.46c-8.84-4.7-14.65,0-21.1,4.22-2.93,1.9-5.82,3.88-8.9,5.5C.65,13.53,0,15.37,0,18.16A200.23,200.23,0,0,0,6.53,67.43c2.14,7.95,3,16,1.72,24.17C7.11,98.65,6.1,105.74,4.5,112.68c-.93,4.06,0,6.44,3.59,8.53,4.71,2.77,9.13,6.06,13.69,9.11,8.81,5.92,6.41,5.67,12.64-1.61,4.88-5.69,3.84-5.49,8.33-.17A38.89,38.89,0,0,1,45.58,132c1.72,2.62,3.51,3,6.13,1,3.7-2.81,7.37-5.93,11.56-7.77C72.89,121,74.16,114.56,71.5,105c-3.29-11.72-4.5-23.94-1.13-36,4.1-14.65,6-29.59,6.91-44.73a22.44,22.44,0,0,1,0-3.48C78.12,16,76.26,12.92,71.76,10.64ZM28.9,5a30.35,30.35,0,0,0,20-.11c1.38-.47,2.89-1.11,2.78,1.66a102.29,102.29,0,0,1-13,46.7A99.81,99.81,0,0,1,25.79,7.44C25.7,4.74,26.54,4.22,28.9,5Zm6.84,116.46A54.53,54.53,0,0,1,28.88,130c-1.1,1.19-2.12-.34-3-.9-5.26-3.49-10.42-7.14-15.71-10.59-2.06-1.34-2.89-2.71-2.32-5.3,1.25-5.66,2.12-11.41,3.23-17.59,3.88,1.6,7.45,3.11,11,4.55,1.07.42,2.35.95,3-.55s-.6-2.28-1.69-2.45c-10.89-1.72-11.8-9-11.73-18.31.08-10.78-4.74-21-6.1-31.69Q3.87,33.31,3.17,19.39c-.07-1.45-.39-3,1.27-4,5.77-3.52,11.5-7.11,17.78-11C22.8,17.08,24.5,28.85,28.94,40a117.4,117.4,0,0,0,6,13.11c1.49,2.7,1.57,4.87-.25,7.26s-2.3,5.35-2.28,8.45c.1,14.46,0,28.92.06,43.38,0,1.64-.22,3.29.76,4.83S36.83,119.65,35.74,121.47ZM70,53.59h0a.24.24,0,0,1,0,.08l.09-.1c0,7.92-4,15.07-4.35,22.9-.17,3.31-.95,6.72-.42,9.91.76,4.57-1.09,6.8-5,8.14a52,52,0,0,0-5.54,2.21c-1.22.58-3.47.8-2.51,2.88s2.6.61,3.89.11A70.46,70.46,0,0,0,63.4,96.6c2-1,3-.78,3.4,1.5.93,5.4,1.86,10.8,2.94,16.17.37,1.85-.45,2.72-1.81,3.63-5.66,3.78-11.31,7.6-16.89,11.51-1.55,1.09-2.49,1-3.69-.51-3.31-4.17-6.72-8.26-10.18-12.29-1.21-1.42-1.24-3-1.24-4.66q0-22,0-43.91a9.38,9.38,0,0,1,1.21-5.23C48.11,45.16,54.78,26.15,55,4.33c6.36,4,12.08,7.53,17.82,11.09a2.2,2.2,0,0,1,1.27,2C73.68,29.56,73.36,41.75,70,53.59Z"/><path class="cls-2" d="M51.66,6.56a102.29,102.29,0,0,1-13,46.7A99.81,99.81,0,0,1,25.79,7.44c-.09-2.7.75-3.22,3.11-2.43a30.35,30.35,0,0,0,20-.11C50.26,4.43,51.77,3.79,51.66,6.56Z"/><path class="cls-2" d="M65.71,76.48c-.17,3.31-.95,6.72-.42,9.91.76,4.57-1.09,6.8-5,8.14a52,52,0,0,0-5.54,2.21c-1.22.58-3.47.8-2.51,2.88s2.6.61,3.89.11A70.46,70.46,0,0,0,63.4,96.6c2-1,3-.78,3.4,1.5.93,5.4,1.86,10.8,2.94,16.17.37,1.85-.45,2.72-1.81,3.63-5.66,3.78-11.31,7.6-16.89,11.51-1.55,1.09-2.49,1-3.69-.51-3.31-4.17-6.72-8.26-10.18-12.29-1.21-1.42-1.24-3-1.24-4.66q0-22,0-43.91a9.38,9.38,0,0,1,1.21-5.23C48.11,45.16,54.78,26.15,55,4.33c6.36,4,12.08,7.53,17.82,11.09a2.2,2.2,0,0,1,1.27,2c-.4,12.17-.72,24.36-4.09,36.2h0c.37-3.18-1.68-2.86-3.78-2.6-4.59.57-9.18,1.09-13.78,1.6-1.41.15-3.42-.3-3.25,1.91.14,1.85,2,1.28,3.22,1.25A85.4,85.4,0,0,0,70,53.6s0,0,0,.08l.09-.1C70.09,61.5,66.11,68.65,65.71,76.48Z"/><path class="cls-2" d="M35.74,121.47A54.53,54.53,0,0,1,28.88,130c-1.1,1.19-2.12-.34-3-.9-5.26-3.49-10.42-7.14-15.71-10.59-2.06-1.34-2.89-2.71-2.32-5.3,1.25-5.66,2.12-11.41,3.23-17.59,3.88,1.6,7.45,3.11,11,4.55,1.07.42,2.35.95,3-.55s-.6-2.28-1.69-2.45c-10.89-1.72-11.8-9-11.73-18.31.08-10.78-4.74-21-6.1-31.69Q3.87,33.31,3.17,19.39c-.07-1.45-.39-3,1.27-4,5.77-3.52,11.5-7.11,17.78-11C22.8,17.08,24.5,28.85,28.94,40a117.4,117.4,0,0,0,6,13.11c1.49,2.7,1.57,4.87-.25,7.26s-2.3,5.35-2.28,8.45c.1,14.46,0,28.92.06,43.38,0,1.64-.22,3.29.76,4.83S36.83,119.65,35.74,121.47Z"/><path class="cls-1" d="M70,53.6a85.4,85.4,0,0,1-17.59,2.16c-1.19,0-3.08.6-3.22-1.25C49,52.3,51,52.75,52.42,52.6c4.6-.51,9.19-1,13.78-1.6C68.3,50.74,70.35,50.42,70,53.6Z"/><path class="cls-2" d="M70,53.68s0-.06,0-.08h.08Z"/></g></g></svg>