<svg xmlns="http://www.w3.org/2000/svg" viewBox="0 0 104.27 123.66"><defs><style>.cls-1{fill:#057;}.cls-2{fill:#fcd9fa;}</style></defs><title>Recurso 6</title><g id="Capa_2" data-name="Capa 2"><g id="Capa_1-2" data-name="Capa 1"><path class="cls-1" d="M103.55,93.7C93.62,75.79,90.26,56.33,90.17,36.1c0-8.26-1.26-16.39-6.38-23.15-2.25-3-3.64-5.75-3.23-9.46C80.91.33,79.83-.59,76.5.44a79.33,79.33,0,0,1-48.58,0C24.34-.72,23.45.5,23.44,3.81c0,2.07.84,4.37-.91,6.2-7.38,7.66-8.61,17.32-8.75,27.27C13.52,56,10.47,74,2,90.86c-3.21,6.43-3.08,7,3.6,10.12,1,.5,2.17.81,3.24,1.25.73.31,1.92.68,1.38,1.63C7,109.5,12.53,109,14.93,110.7c2.59,1.82,8.06.09,7.43,6,0,.27,1,.88,1.59,1,9.52,1.19,18.4,5.35,25.8,6,12,.08,20.61-5.24,30.19-6,1-.09,2.4-.93,2.06-1.75-1.64-3.93,1.73-3.25,3.48-4,2.43-1,4.92-2,7.39-3,1.67-.66,2.54-1.89,1.48-3.49-1.64-2.48-.14-3.14,1.81-3.62,2.32-.58,4.17-2,6.16-3.21S104.84,96,103.55,93.7ZM27,5.47c.78-3.14,3-.76,4.33-.46a90.75,90.75,0,0,0,42.35-.2c1.07-.26,2.87-2.33,3.52.38.46,1.94.41,3.9-2.35,4.58-7.58,1.87-15.19,3.4-22.7,3.07a82.78,82.78,0,0,1-21.49-2.68C27.85,9.5,26.32,8.17,27,5.47ZM7.81,98.34C5,97,2.8,96.29,5,92c8.43-16.19,11.53-33.77,12-51.87.16-7.16.37-14.27,3.35-21a24.31,24.31,0,0,1,4-6.26A2,2,0,0,1,27,12.55c.78.37,1.55.66,1.22,1.76-.13.29-.28.59-.43.89-6.78,13.71-6,28.71-7.4,43.34-1.18,12.57-2.89,25-6.48,37.17C12.77,99.58,10.92,99.85,7.81,98.34ZM19,108.71c-4-1.5-6.38-2-3.88-7.62,5.63-12.51,6.8-26.2,8.35-39.72,1.47-12.81.43-25.94,4.91-38.35.9-2.49,2-4.92,2.93-7.38.63-1.61,1.72-1.7,3.22-1.26s2.25,1.29,1.68,2.4c-5.47,18.65-2.37,37.49-4.78,55.89C30,83.52,28.56,94.33,25.81,105,24.74,109.1,23.18,110.3,19,108.71Zm21.4,4.45c-.15,3.21-1.3,3.81-4.24,3.57-10-.8-10.11-.93-7.48-10.29C34.43,85.83,36,64.7,36,43.42A106.93,106.93,0,0,1,39.09,18.3c.8-3.29,2.77-2.5,4.86-2.46,2.65.05,2.18,1.79,2.07,3.47q-1.5,23.34-3,46.67C42.15,81.71,41.14,97.43,40.38,113.16ZM58,119.78a82,82,0,0,1-8.9.49c-5.21-.15-6.78-2.37-5.63-6.58C45.41,82,47.32,50.77,49.23,19.58,49.34,17.79,49.08,16,52,16s3.07,1.51,3.21,3.78q2.84,48,5.86,96.05C61.23,118.3,60.62,119.59,58,119.78Zm16.72-4.16c-10.17,2.29-10.38,2.4-11.06-7.83C62.1,83.92,60.78,60,59.37,36.17c-.34-5.64-.69-11.27-1-16.91-.09-1.6-.55-3.33,2.13-3.51,2.23-.15,3.68,0,4.35,2.61a101.69,101.69,0,0,1,3,26.1c.66,22.6,1.65,45.17,9,66.84C77.8,114,77.65,115,74.72,115.62ZM86,108.28c-1.45.36-2.87.84-4,1.17-3.28.61-3.06-2-3.49-3.43-3.42-11.66-4.84-23.67-6.26-35.7-1.57-13.39-.15-26.9-1.93-40.25C69.8,26,69,21.91,68.14,17.84c-.28-1.4-1.32-2.65,1.11-3.39,2.16-.66,3,.09,3.78,1.84,4.18,9.21,5.82,18.92,6.3,29,.73,15.42,2.23,30.78,6,45.8a46.14,46.14,0,0,0,3.69,10.77C91.32,106,89.67,107.38,86,108.28Zm10-9.94c-2.18,1.18-4.43,2.1-5.64-1.78-4.11-13.25-5.84-26.89-7-40.63s-.86-28-7.28-40.88c-1.24-2.49.69-2.27,1.89-2.89,1.81,0,2.45,1.51,3.26,2.68,5.1,7.33,5.79,15.83,5.85,24.31C87.18,58,90.69,76.1,99.34,93,101.55,97.29,97.89,97.3,96,98.34Z"/><path class="cls-2" d="M74.84,9.77c-7.58,1.87-15.19,3.4-22.7,3.07a82.78,82.78,0,0,1-21.49-2.68c-2.8-.66-4.33-2-3.66-4.69.78-3.14,3-.76,4.33-.46a90.75,90.75,0,0,0,42.35-.2c1.07-.26,2.87-2.33,3.52.38C77.65,7.13,77.6,9.09,74.84,9.77Z"/><path class="cls-2" d="M96,98.34c-2.18,1.18-4.43,2.1-5.64-1.78-4.11-13.25-5.84-26.89-7-40.63s-.86-28-7.28-40.88c-1.24-2.49.69-2.27,1.89-2.89,1.81,0,2.45,1.51,3.26,2.68,5.1,7.33,5.79,15.83,5.85,24.31C87.18,58,90.69,76.1,99.34,93,101.55,97.29,97.89,97.3,96,98.34Z"/><path class="cls-2" d="M86,108.28c-1.45.36-2.87.84-4,1.17-3.28.61-3.06-2-3.49-3.43-3.42-11.66-4.84-23.67-6.26-35.7-1.57-13.39-.15-26.9-1.93-40.25C69.8,26,69,21.91,68.14,17.84c-.28-1.4-1.32-2.65,1.11-3.39,2.16-.66,3,.09,3.78,1.84,4.18,9.21,5.82,18.92,6.3,29,.73,15.42,2.23,30.78,6,45.8a46.14,46.14,0,0,0,3.69,10.77C91.32,106,89.67,107.38,86,108.28Z"/><path class="cls-2" d="M74.72,115.62c-10.17,2.29-10.38,2.4-11.06-7.83C62.1,83.92,60.78,60,59.37,36.17c-.34-5.64-.69-11.27-1-16.91-.09-1.6-.55-3.33,2.13-3.51,2.23-.15,3.68,0,4.35,2.61a101.69,101.69,0,0,1,3,26.1c.66,22.6,1.65,45.17,9,66.84C77.8,114,77.65,115,74.72,115.62Z"/><path class="cls-2" d="M58,119.78a82,82,0,0,1-8.9.49c-5.21-.15-6.78-2.37-5.63-6.58C45.41,82,47.32,50.77,49.23,19.58,49.34,17.79,49.08,16,52,16s3.07,1.51,3.21,3.78q2.84,48,5.86,96.05C61.23,118.3,60.62,119.59,58,119.78Z"/><path class="cls-2" d="M46,19.31q-1.5,23.34-3,46.67c-.92,15.73-1.93,31.45-2.69,47.18-.15,3.21-1.3,3.81-4.24,3.57-10-.8-10.11-.93-7.48-10.29C34.43,85.83,36,64.7,36,43.42A106.93,106.93,0,0,1,39.09,18.3c.8-3.29,2.77-2.5,4.86-2.46C46.6,15.89,46.13,17.63,46,19.31Z"/><path class="cls-2" d="M36.19,16.78c-5.47,18.65-2.37,37.49-4.78,55.89C30,83.52,28.56,94.33,25.81,105c-1.07,4.14-2.63,5.34-6.83,3.75-4-1.5-6.38-2-3.88-7.62,5.63-12.51,6.8-26.2,8.35-39.72,1.47-12.81.43-25.94,4.91-38.35.9-2.49,2-4.92,2.93-7.38.63-1.61,1.72-1.7,3.22-1.26S36.76,15.67,36.19,16.78Z"/><path class="cls-2" d="M28.23,14.31c-.13.29-.28.59-.43.89-6.78,13.71-6,28.71-7.4,43.34-1.18,12.57-2.89,25-6.48,37.17-1.15,3.87-3,4.14-6.11,2.63C5,97,2.8,96.29,5,92c8.43-16.19,11.53-33.77,12-51.87.16-7.16.37-14.27,3.35-21a24.31,24.31,0,0,1,4-6.26A2,2,0,0,1,27,12.55C27.79,12.92,28.56,13.21,28.23,14.31Z"/></g></g></svg>