<svg xmlns="http://www.w3.org/2000/svg" viewBox="0 0 71.58 131.19"><defs><style>.cls-1{fill:#057;}.cls-2{fill:#efe026;}</style></defs><title>Recurso 7</title><g id="Capa_2" data-name="Capa 2"><g id="Capa_1-2" data-name="Capa 1"><path class="cls-1" d="M71.47,122.5c-.77-4.75-1.18-9.57-2.18-14.26C66.66,95.87,63.73,83.55,66,70.79A224.49,224.49,0,0,0,69.5,45.12c.12-1.94,1-4.07-.16-5.86-6.09-9.11-5.82-19.54-6.28-29.79C62.82,4.18,56.57-1.24,51.46.25A55.63,55.63,0,0,1,20,.26C15-1.16,8.46,4.29,8.39,9.56c-.11,8.65.11,17.56-3.92,25.38A22.47,22.47,0,0,0,2.34,48.73C3,54.5,3.78,60.27,4.8,66a79.25,79.25,0,0,1,.46,27.26c-1.59,9.33-4.08,18.48-5.15,27.92-.45,4,.42,5.9,4.8,6.73a193,193,0,0,0,30.83,3.29,170.38,170.38,0,0,0,32-3.58C70.91,126.92,72,125.54,71.47,122.5ZM20.18,4.69c.84-1.95,2.95-.16,4.34.1a56.65,56.65,0,0,0,23.27-.27c3.09-.72,5.07-.83,4.07,2.83a4.86,4.86,0,0,1-1.72,4.72c-4.4,4.45-7.84,9.58-8.72,15.89-.54,3.88-3.51,3.18-5.63,3.21s-5.25.62-5.7-3.16c-.7-5.86-3.84-10.52-7.6-14.84a13,13,0,0,1-2-2.18A7.66,7.66,0,0,1,20.18,4.69ZM45.06,28.76c.26-5.15,2.72-8.54,6-12.71C51.13,21.86,50.22,26,45.06,28.76Zm-18.63-.44C21.76,25.9,21,24.54,20.24,16.74,24.13,19.85,25.73,22.85,26.43,28.32Zm28.24,98.07c-15.4,2.49-30.81,1.51-46.16-1.12-4-.69-5.51-2-4.75-6.45,1.21-7,2.58-14,4.16-21,3-13.44,1.34-26.74-1.1-40.05C6,53.2,5.76,48.53,5.33,43.9c-.11-1.13-.33-2.54.2-3.39C11.45,31,11.22,20.24,11.89,9.66c.19-3,.13-3,4.07-4.81,2.91,24.67,6,29.34,19.25,29.58A23.68,23.68,0,0,0,48.44,30.7c4.46-2.78,5.54-7.32,6-12S55,9.54,55.3,4.83C58.81,5.37,60.1,7,60,10.55c-.2,10.19.38,20.3,5.77,29.43.73,1.23.38,2.57.34,3.9A144.91,144.91,0,0,1,63,68.07c-2.89,14.44.67,28.34,3.19,42.43C69.17,126.89,71.36,123.7,54.67,126.39Z"/><path class="cls-2" d="M51.86,7.35a4.86,4.86,0,0,1-1.72,4.72c-4.4,4.45-7.84,9.58-8.72,15.89-.54,3.88-3.51,3.18-5.63,3.21s-5.25.62-5.7-3.16c-.7-5.86-3.84-10.52-7.6-14.84a13,13,0,0,1-2-2.18,7.66,7.66,0,0,1-.28-6.3c.84-1.95,2.95-.16,4.34.1a56.65,56.65,0,0,0,23.27-.27C50.88,3.8,52.86,3.69,51.86,7.35Z"/><path class="cls-2" d="M54.67,126.39c-15.4,2.49-30.81,1.51-46.16-1.12-4-.69-5.51-2-4.75-6.45,1.21-7,2.58-14,4.16-21,3-13.44,1.34-26.74-1.1-40.05C6,53.2,5.76,48.53,5.33,43.9c-.11-1.13-.33-2.54.2-3.39C11.45,31,11.22,20.24,11.89,9.66c.19-3,.13-3,4.07-4.81,2.91,24.67,6,29.34,19.25,29.58A23.68,23.68,0,0,0,48.44,30.7c4.46-2.78,5.54-7.32,6-12S55,9.54,55.3,4.83C58.81,5.37,60.1,7,60,10.55c-.2,10.19.38,20.3,5.77,29.43.73,1.23.38,2.57.34,3.9A144.91,144.91,0,0,1,63,68.07c-2.89,14.44.67,28.34,3.19,42.43C69.17,126.89,71.36,123.7,54.67,126.39Z"/></g></g></svg>