<svg xmlns="http://www.w3.org/2000/svg" viewBox="0 0 50.63 136.03"><defs><style>.cls-1{fill:#057;}.cls-2{fill:#f09;}</style></defs><title>Recurso 3</title><g id="Capa_2" data-name="Capa 2"><g id="Capa_1-2" data-name="Capa 1"><path class="cls-1" d="M47.73,3.5c-.86-3-2.07-4-5.29-3.29A80.64,80.64,0,0,1,8.31.27C4.26-.61,3.15.91,2.24,4.42-1,16.74-.1,29.13,1,41.56,2.11,54.46,5.58,67,6,80.07,6.52,97,7.82,113.9,8.58,130.82c.24,5.34,4.05,5.1,7.37,5.08s6.71-.12,6.67-5.22c-.06-7.3.47-14.6.78-21.9.7-16.91,1.19-33.82,2-50.8.07.8.16,1.6.19,2.41.67,23.08,1.5,46.15,1.87,69.24.09,5.21,2.82,6.17,6.76,6.37,5.39.27,6.92-1.2,7.3-6.16,2.2-29.44,2.33-59,7.55-88.27C51.33,29,51.35,16.1,47.73,3.5ZM46.48,13.72c-.19,1.1.45,2.73-1.61,2.15-2.45-.7-4.94-2-5.22-4.53C39.42,9.27,42,9.7,43.45,9.52,47,9.06,45.84,12.12,46.48,13.72Zm-38-10a87.54,87.54,0,0,0,33.14,0c1.06-.21,2.53-.83,2.72,1S43,6.18,41.92,6.4A91.39,91.39,0,0,1,25.09,7.93,92.21,92.21,0,0,1,8.26,6.38c-1-.21-2.68.12-2.49-1.64S7.44,3.5,8.52,3.71ZM25.86,19a1.88,1.88,0,0,1-1.28,0,9.87,9.87,0,0,1,.67-8.51c.48.95.85,1.36.88,1.79C26.32,14.5,26.67,16.77,25.86,19ZM11,10.7c-1,3.43-3.62,4.71-7.14,5.51C3.91,8.68,4.31,8.38,11,10.7ZM43.55,57.26C40.13,73.83,41,90.69,39.63,107.39c-.48,5.62-.86,11.27-1,16.91-.06,3.13-1.67,3.42-4.12,3.31-2.14-.09-3.82-.07-3.9-3.07-.4-14.79-1-29.57-1.43-42.49.58-18.18-1-34.4-2.07-50.65A4.49,4.49,0,0,0,27,29.92c-.54-1.23.42-3.47-1.8-3.55s-1.67,2.13-1.77,3.41c-.71,8.27-1.55,16.55-1.85,24.85-.82,22.73-1.4,45.47-2,68.21-.07,2.51.48,4.88-3.58,4.85-3.64,0-4.2-1.44-4.48-4.69-1.76-20.18-.73-40.56-4-60.63C5.36,49.57,3.23,36.8,3.34,23.76c0-2.82.41-4.51,3.66-5a8.84,8.84,0,0,0,6.63-5.58c1.17-2.83,3-2.42,5.19-2.07,2.61.42,1.64,2.46,1.79,3.94a15.09,15.09,0,0,1,0,3.49C20.18,22,22,22.69,25,22.62c2.82-.07,5-.2,4.51-3.95a25.89,25.89,0,0,1,0-4.49c0-1.23-.45-3,1.57-3,1.62,0,3.64-1.54,4.82.92a12.43,12.43,0,0,0,9.44,7.33c2.25.42,1.43,2.34,1.46,3.65A153.19,153.19,0,0,1,43.55,57.26Z"/><path class="cls-2" d="M44.38,4.68c.18,1.72-1.4,1.5-2.46,1.72A91.39,91.39,0,0,1,25.09,7.93,92.21,92.21,0,0,1,8.26,6.38c-1-.21-2.68.12-2.49-1.64s1.67-1.24,2.75-1a87.54,87.54,0,0,0,33.14,0C42.72,3.49,44.19,2.87,44.38,4.68Z"/><path class="cls-2" d="M44.87,15.87c-2.45-.7-4.94-2-5.22-4.53C39.42,9.27,42,9.7,43.45,9.52c3.57-.46,2.39,2.6,3,4.2C46.29,14.82,46.93,16.45,44.87,15.87Z"/><path class="cls-2" d="M25.86,19a1.88,1.88,0,0,1-1.28,0,9.87,9.87,0,0,1,.67-8.51c.48.95.85,1.36.88,1.79C26.32,14.5,26.67,16.77,25.86,19Z"/><path class="cls-2" d="M11,10.7c-1,3.43-3.62,4.71-7.14,5.51C3.91,8.68,4.31,8.38,11,10.7Z"/><path class="cls-2" d="M46.83,23.07a153.19,153.19,0,0,1-3.28,34.19C40.13,73.83,41,90.69,39.63,107.39c-.48,5.62-.86,11.27-1,16.91-.06,3.13-1.67,3.42-4.12,3.31-2.14-.09-3.82-.07-3.9-3.07-.4-14.79-1-29.57-1.43-42.49.58-18.18-1-34.4-2.07-50.65A4.49,4.49,0,0,0,27,29.92c-.54-1.23.42-3.47-1.8-3.55s-1.67,2.13-1.77,3.41c-.71,8.27-1.55,16.55-1.85,24.85-.82,22.73-1.4,45.47-2,68.21-.07,2.51.48,4.88-3.58,4.85-3.64,0-4.2-1.44-4.48-4.69-1.76-20.18-.73-40.56-4-60.63C5.36,49.57,3.23,36.8,3.34,23.76c0-2.82.41-4.51,3.66-5a8.84,8.84,0,0,0,6.63-5.58c1.17-2.83,3-2.42,5.19-2.07,2.61.42,1.64,2.46,1.79,3.94a15.09,15.09,0,0,1,0,3.49C20.18,22,22,22.69,25,22.62c2.82-.07,5-.2,4.51-3.95a25.89,25.89,0,0,1,0-4.49c0-1.23-.45-3,1.57-3,1.62,0,3.64-1.54,4.82.92a12.43,12.43,0,0,0,9.44,7.33C47.62,19.84,46.8,21.76,46.83,23.07Z"/></g></g></svg>