<svg xmlns="http://www.w3.org/2000/svg" viewBox="0 0 52.77 136"><defs><style>.cls-1{fill:#057;}.cls-2{fill:#addbea;}</style></defs><title>Recurso 8</title><g id="Capa_2" data-name="Capa 2"><g id="Capa_1-2" data-name="Capa 1"><path class="cls-1" d="M50.57,4.07c-.35-3.5-1.5-4.43-5-4A145.65,145.65,0,0,1,7.25.11C3.57-.37,2.7.75,2.36,4.16A467,467,0,0,0,.17,63.89c.58,22.26.58,44.55.66,66.83,0,3.72.79,5.66,5,5.21a47.16,47.16,0,0,1,9,0c3.67.31,4.63-1.34,4.4-4.68-1.05-14.79-.56-29.57.38-44.33.92-14.37,2.52-28.67,6.46-43.21.83,1,1.15,1.18,1.23,1.46.45,1.77.9,3.54,1.27,5.33,5.31,25.88,6.21,52.06,5.35,78.37-.22,7-.17,7,6.74,7,11.5,0,11.49,0,11.49-11.74,0-16.45-.49-32.93.17-49.37A505.3,505.3,0,0,0,50.57,4.07Zm-2.84,6.61a3.43,3.43,0,0,1-.1,2.22c-2.41.36-4.09-1-5.55-2.87C44.06,10,46.39,7.86,47.73,10.68ZM34.2,4.47c3.61-.4,7.23-.69,10.84-.95.92-.07,2.18-.22,2.11,1.27,0,1-1,1.23-1.82,1.3-3.62.31-7.24.56-11,.85-.92-.16-2.51.55-2.67-1.15C31.5,3.84,33.25,4.57,34.2,4.47ZM5.78,4.33c.23-1.11,1.28-.86,2-.81,3.48.25,7,.49,10.42.93,1.08.14,3.16-.86,3.06,1.3s-2.15.73-2.86,1.2c-3.85-.31-7.33-.54-10.8-.88C6.7,6,5.48,5.77,5.78,4.33Zm-.64,6.18C6.66,8,8.86,10,12.09,9.33c-2.71,2.68-4.51,4-6.7,3.7C4.21,12.87,4.71,11.22,5.14,10.51Zm43.79,15.3c-.19,7.8,0,15.6,0,23.41-.57,26.41.18,52.85-.17,79.28-.09,6.54-4.49,3.51-7.26,4.07-3.54.73-4.28-.91-4.2-4.42.6-28,0-55.84-6.64-83.23-.51-2.09-1.07-4.18-1.74-6.23-.49-1.48-.39-3.75-2.65-3.63-1.87.1-1.82,2.18-2.23,3.51a179.6,179.6,0,0,0-6.46,33.2c-2.13,18.7-2.39,37.47-1.89,56.26.07,2.64.26,5.37-3.66,4.56-2.92-.61-7.86,2.53-7.75-4.14.27-15.61-.56-31.21-.32-46.84C4.17,65.19,3,48.74,3.55,32.28l.18-5.48c.18-5.45.18-10.72,7.36-12.36,3.21-.74,4.7-5.29,9.37-4.32,2.8.59,3.65,1.32,3.47,4-.17,2.48-.06,5,0,7.48,0,1.14,0,2.6,1.53,2.7,1.91.11,1.85-1.52,1.91-2.83a37.84,37.84,0,0,1,0-4c.37-2.33-1.41-6.13,1.13-6.69,3.45-.76,7.93-2.36,10.84,2a4.16,4.16,0,0,0,2.39,1.72C48.25,15.74,49.07,20.3,48.93,25.81Z"/><path class="cls-2" d="M12.09,9.33c-2.71,2.68-4.51,4-6.7,3.7-1.18-.16-.68-1.81-.25-2.52C6.66,8,8.86,10,12.09,9.33Z"/><path class="cls-2" d="M21.28,5.75c-.09,2.06-2.15.73-2.86,1.2-3.85-.31-7.33-.54-10.8-.88C6.7,6,5.48,5.77,5.78,4.33c.23-1.11,1.28-.86,2-.81,3.48.25,7,.49,10.42.93C19.3,4.59,21.38,3.59,21.28,5.75Z"/><path class="cls-2" d="M47.15,4.79c0,1-1,1.23-1.82,1.3-3.62.31-7.24.56-11,.85-.92-.16-2.51.55-2.67-1.15-.19-1.95,1.56-1.22,2.51-1.32,3.61-.4,7.23-.69,10.84-.95C46,3.45,47.22,3.3,47.15,4.79Z"/><path class="cls-2" d="M47.63,12.9c-2.41.36-4.09-1-5.55-2.87,2,0,4.31-2.17,5.65.65A3.43,3.43,0,0,1,47.63,12.9Z"/><path class="cls-2" d="M48.93,25.81c-.19,7.8,0,15.6,0,23.41-.57,26.41.18,52.85-.17,79.28-.09,6.54-4.49,3.51-7.26,4.07-3.54.73-4.28-.91-4.2-4.42.6-28,0-55.84-6.64-83.23-.51-2.09-1.07-4.18-1.74-6.23-.49-1.48-.39-3.75-2.65-3.63-1.87.1-1.82,2.18-2.23,3.51a179.6,179.6,0,0,0-6.46,33.2c-2.13,18.7-2.39,37.47-1.89,56.26.07,2.64.26,5.37-3.66,4.56-2.92-.61-7.86,2.53-7.75-4.14.27-15.61-.56-31.21-.32-46.84C4.17,65.19,3,48.74,3.55,32.28l.18-5.48c.18-5.45.18-10.72,7.36-12.36,3.21-.74,4.7-5.29,9.37-4.32,2.8.59,3.65,1.32,3.47,4-.17,2.48-.06,5,0,7.48,0,1.14,0,2.6,1.53,2.7,1.91.11,1.85-1.52,1.91-2.83a37.84,37.84,0,0,1,0-4c.37-2.33-1.41-6.13,1.13-6.69,3.45-.76,7.93-2.36,10.84,2a4.16,4.16,0,0,0,2.39,1.72C48.25,15.74,49.07,20.3,48.93,25.81Z"/></g></g></svg>