<svg xmlns="http://www.w3.org/2000/svg" viewBox="0 0 106.19 120.25"><defs><style>.cls-1{fill:#057;}.cls-2{fill:#fff;}</style></defs><title>Recurso 11</title><g id="Capa_2" data-name="Capa 2"><g id="Capa_1-2" data-name="Capa 1"><path class="cls-1" d="M97.24,17.83a12.65,12.65,0,0,0-9.12-6.24c-4.39-.87-8.67-2.3-13.05-3.25-3.26-.7-5.92-2-7.31-5.2C66.7.68,64.83-.07,62.17,0c-6,.18-12,.14-18,0-2.27,0-4,.59-4.84,2.67-1.6,3.85-4.86,5.07-8.55,5.89-4.05.9-8,2.3-12.08,3-4.73.8-7.69,3.54-10,7.45C3.65,27.81,1.36,37.52.22,47.43c-.81,7,.38,7.86,7.23,8.38a68.88,68.88,0,0,0,8.45.61c3.6-.19,4.85.89,4.7,4.71-.33,8.47-.1,17-.1,25.44,0,8.31.22,16.63-.09,24.93-.16,4.24.94,6.1,5.45,6.76a191.86,191.86,0,0,0,55.14,0c4.53-.65,5.47-2.59,5.42-6.79-.23-17,0-33.92-.16-50.87,0-3.08.63-4.33,4-4.19,4,.16,7.94-.65,11.93-.74,2.74,0,3.58-1,3.8-3.82C107,39.46,103.23,28.37,97.24,17.83ZM65.09,5.65c4.12,3.61,2.62,7.28.59,10.52-2.36,3.77-5.13.09-8.59.25C60.18,12.65,63.09,9.76,65.09,5.65ZM45.25,4c.85-1.91,4.2-.63,6.43-.76,2.64-.16,5.29,0,7.94,0,1,0,1.93.06,2.08.46C62,6,56.18,13.41,54.18,14c-2.65.74-3.38-2-5-3.11a3.64,3.64,0,0,1-.63-.76C47,8.22,44.32,6.06,45.25,4Zm10.23,30.3c0,1.39-.47,2.14-2,2.17s-2.22-.56-2.24-2c0-4.45,0-8.9-.06-13.35,0-2,2-2,3-2.18,1.69-.3,1.24,1.41,1.24,2.5,0,2,0,3.95,0,5.92C55.47,29.65,55.44,32,55.48,34.25ZM41.59,5.6a44.5,44.5,0,0,0,8.68,10.81c-3.89-.12-6.66,3.51-9.06-.11C39.09,13.1,37.65,9.37,41.59,5.6ZM17.51,49.67c-2.41-.31-3.72-.5-5-.64C2.72,48,2.66,48,5,38.14c1.53-6.46,3.39-12.83,7.15-18.43.6-.9,1.07-2.31,2.47-2.05,1.13.2,1.16,1.5,1.48,2.4,2.81,8.06,3.75,16.47,4.33,24.9C20.56,47.09,20.55,50.47,17.51,49.67Zm67.9-22.1a154,154,0,0,0-2.35,23.75c0,19.62-.08,39.24.08,58.86,0,3.34-1,4.7-4.25,5.17a182.36,182.36,0,0,1-51.17,0c-3.29-.46-4.24-1.85-4.17-5.15.23-11,.09-22,.09-35.24C23.11,61.5,25,45.65,21.77,30a100.54,100.54,0,0,0-3.13-12c-.8-2.36-.44-3.1,2-3.6a128.46,128.46,0,0,0,12.5-3.31c2.22-.69,3,.05,3.38,2.1a14,14,0,0,0,2.57,5.89c1.39,1.91,2.92,3,5.48,1.86,3.13-1.39,4.07.12,3.93,3.21-.19,4,.14,8-.1,12-.22,3.72,2.1,3.58,4.5,3.38s5.77,1.25,5.7-3.3c-.06-4.33,0-8.65,0-13,0-1.44-.24-3.55,2.18-2.6,6.47,2.54,8-2.27,9.14-6.47.93-3.35,2.15-3.64,5.09-2.67,4.25,1.39,10.11,1,12.6,3.79C90.35,18.31,86.08,23.29,85.41,27.57Zm15.41,21.07a45.06,45.06,0,0,0-6.45.41c-8.2.87-8.34.88-7.67-7.56s1.82-16.63,5.47-24.9c6.5,7.41,8.39,16.15,10.38,24.84.29,1.29.32,2.65.69,3.91C103.91,47.6,103.49,48.74,100.82,48.64Z"/><path class="cls-1" d="M55.48,34.25c0,1.39-.47,2.14-2,2.17s-2.22-.56-2.24-2c0-4.45,0-8.9-.06-13.35,0-2,2-2,3-2.18,1.69-.3,1.24,1.41,1.24,2.5,0,2,0,3.95,0,5.92C55.47,29.65,55.44,32,55.48,34.25Z"/><path class="cls-2" d="M100.82,48.64a45.06,45.06,0,0,0-6.45.41c-8.2.87-8.34.88-7.67-7.56s1.82-16.63,5.47-24.9c6.5,7.41,8.39,16.15,10.38,24.84.29,1.29.32,2.65.69,3.91C103.91,47.6,103.49,48.74,100.82,48.64Z"/><path class="cls-2" d="M17.51,49.67c-2.41-.31-3.72-.5-5-.64C2.72,48,2.66,48,5,38.14c1.53-6.46,3.39-12.83,7.15-18.43.6-.9,1.07-2.31,2.47-2.05,1.13.2,1.16,1.5,1.48,2.4,2.81,8.06,3.75,16.47,4.33,24.9C20.56,47.09,20.55,50.47,17.51,49.67Z"/><path class="cls-1" d="M85.41,27.57c.67-4.28,4.94-9.26,2.22-12.3-2.49-2.78-8.35-2.4-12.6-3.79-2.94-1-4.16-.68-5.09,2.67-1.17,4.2-2.67,9-9.14,6.47-2.42-.95-2.17,1.16-2.18,2.6,0,4.32-.07,8.64,0,13,.07,4.55-3.33,3.1-5.7,3.3s-4.72.34-4.5-3.38c.24-4-.09-8,.1-12,.14-3.09-.8-4.6-3.93-3.21-2.56,1.13-4.09,0-5.48-1.86a14,14,0,0,1-2.57-5.89c-.36-2-1.16-2.79-3.38-2.1a128.46,128.46,0,0,1-12.5,3.31c-2.45.5-2.81,1.24-2,3.6a100.54,100.54,0,0,1,3.13,12C25,45.65,23.11,61.5,23.64,74.94c0,13.29.14,24.27-.09,35.24-.07,3.3.88,4.69,4.17,5.15a182.36,182.36,0,0,0,51.17,0c3.28-.47,4.28-1.83,4.25-5.17-.16-19.62-.07-39.24-.08-58.86A154,154,0,0,1,85.41,27.57Zm-15,11.82c-2.19,0-6.29,1.36-6.24-1.49,0-3.24,4.2-.35,5.9-1.79,2.51.89,6.58-1,6.58,1.78S72.64,39.37,70.44,39.39Z"/><path class="cls-1" d="M76.68,37.89c0,3-4,1.48-6.24,1.5s-6.29,1.36-6.24-1.49c0-3.24,4.2-.35,5.9-1.79C72.61,37,76.68,35.06,76.68,37.89Z"/></g></g></svg>