<svg xmlns="http://www.w3.org/2000/svg" viewBox="0 0 122.73 119.53"><defs><style>.cls-1{fill:#cf9;}.cls-2{fill:#057;}</style></defs><title>Recurso 9</title><g id="Capa_2" data-name="Capa 2"><g id="Capa_1-2" data-name="Capa 1"><path class="cls-1" d="M114.78,43.65a95.36,95.36,0,0,1-15.85,8.16c-1.25.5-2.53,1.16-3.55-.3-.57-.83-3.27-2.81-4.95-4.63a5.34,5.34,0,0,0-.36.87,3.6,3.6,0,0,0-.12.44,3.43,3.43,0,0,0-.09.44c0,.26-.07.53-.09.8s0,.26,0,.39c0,.75,0,1.5,0,2.26-.08,19-.24,37.91-.08,56.86,0,3.69-1.31,4.82-4.62,5.4a136.38,136.38,0,0,1-47.13,0c-3.58-.61-5.1-1.78-5-5.7.3-9.64.1-19.29.1-28.94H33c0-1.82-.11-3.66,0-5.48a107.13,107.13,0,0,0,.18-12.4c0-.59-.06-1.19-.1-1.78s-.06-1-.1-1.43c0-.63-.1-1.25-.15-1.87,0-.14,0-.28,0-.41-.06-.6-.13-1.2-.2-1.79l-.09-.75c-.08-.67-.17-1.33-.27-2-.11-.81-.24-1.61-.38-2.42s-.28-1.6-.44-2.4a37.83,37.83,0,0,0-2.86,4.74c-1.07,1.5-2.22,4.34-3.42,3.91C18.57,55.81,9,51.18,3.89,45.42c1.79-4.59,6.68-10.86,9.8-15.53l.43-.65c.27-.43.54-.85.78-1.25s.41-.64.67-1l.72-1c1.36-1.85,3.26-4.21,5-6.43a1.34,1.34,0,0,1,.11-.14c1.05-1.35,2.05-2.65,2.81-3.75l.06-.08a1.81,1.81,0,0,1,.22-.32l.11-.16c.12-.12.23-.24.37-.36a5.83,5.83,0,0,1,1.62-.89,70.3,70.3,0,0,0,7.74-3.43c4.92-2.63,8.4-4.24,13.24,1.9,7,8.87,24.4,6.44,30.42-3.21,1.49-2.39,2.6-2.27,4.63-1.3C87,9.86,91.35,11.9,95.8,13.73a7.59,7.59,0,0,1,1.37.71,3.91,3.91,0,0,1,.92.89v0a.83.83,0,0,0,.08.12l.08.12a0,0,0,0,0,0,0l0,0c1,1.48,2.06,3.05,3.2,4.67,4.56,6.46,10.06,13.68,13.59,18.88l.42.62C116.62,41.44,116.71,42.44,114.78,43.65Z"/><path class="cls-2" d="M121.54,43.13c-2.87-4.07-6-8.08-8.14-12.53C106.7,16.77,95.8,8.4,81.35,3.78c-6-1.92-11.48-5.11-18.07-2.66a6.52,6.52,0,0,1-4.42-.07c-6.12-2.6-11.31.16-16.62,2.49q-9.12,4-18.24,8a9.71,9.71,0,0,0-4.58,3.63c-6,9.37-12.07,18.72-18.34,27.91-1.91,2.8-1.14,4.4,1.14,6.21A59.55,59.55,0,0,0,17.88,58c4.52,1.77,8.92,3.27,11.58-3.26a35.14,35.14,0,0,1,.35,5.73c.12,17.13.29,34.27.3,51.4,0,3,.87,4.42,4,5a140.16,140.16,0,0,0,54.53,0c3.57-.7,4.07-2.69,4.06-5.59q0-15.72,0-31.45V54c2.83,2.84,3.54,6.71,7.91,5.29,7.34-2.4,14.22-5.5,20.31-10.34C123.3,47.08,123.16,45.44,121.54,43.13ZM50.81,3.6c.6-1.43,1.66-.5,2.5-.28a31.58,31.58,0,0,0,16.18-.07c.76-.21,1.64-.83,2.24,0s.08,1.9-.51,2.72c-2.53,3.54-6.4,3.66-10,4-3.67-.4-7.2-.59-9.59-3.68C51,5.49,50.37,4.63,50.81,3.6ZM47,5.27a10.5,10.5,0,0,0,3.32,4.25c5.55,3.65,9.2,4.12,15.26,3.11A13.69,13.69,0,0,0,72.26,10,10.54,10.54,0,0,0,75.6,5.3a5.52,5.52,0,0,1-2.52,5.42c-7.53,5.56-17.85,5.39-24.26-.75A4.84,4.84,0,0,1,47,5.27ZM3.89,45.42c6.6,3.74,13.18,7.38,21.24,10.26C18.57,55.81,9,51.18,3.89,45.42Zm23.27,6.23c-1.07,1.5-2.37.5-3.57.07-.31-.11-.63-.21-.93-.34-5.79-2.49-11.49-5.13-16.4-9.18,1.77-4.53,4.79-8.31,7.43-12.31l.43-.65c.27-.43.54-.85.78-1.25s.44-.69.67-1l.72-1c1.47-1.93,3.22-3.79,5-6.43a1.34,1.34,0,0,1,.11-.14c2,10.31,3,19,7.16,27.36C29.61,48.91,28.17,50.22,27.16,51.65Zm63.33-4.91a5.7,5.7,0,0,0-.42,1,3.6,3.6,0,0,0-.12.44,3.43,3.43,0,0,0-.09.44c0,.26-.07.53-.09.8s0,.26,0,.39c0,.75,0,1.5,0,2.26-.08,19-.24,37.91-.08,56.86,0,3.69-1.31,4.82-4.62,5.4a136.38,136.38,0,0,1-47.13,0c-3.58-.61-5.1-1.78-5-5.7.3-9.64.1-19.29.1-28.94H33c0-1.82-.11-3.66,0-5.48a107.13,107.13,0,0,0,.18-12.4c0-.6-.06-1.19-.1-1.78s-.06-1-.1-1.43c0-.63-.1-1.25-.15-1.87,0-.14,0-.28,0-.41-.06-.6-.13-1.2-.2-1.79l-.09-.75c-.08-.67-.17-1.33-.27-2-.11-.81-.24-1.61-.38-2.42s-.28-1.6-.44-2.4a97.71,97.71,0,0,0-4.75-16.49c-1.47-3.81-1.6-8.13-2.56-12.16a4,4,0,0,1,.11-2.72,2.88,2.88,0,0,1,.76-.92,5.83,5.83,0,0,1,1.62-.89,70.3,70.3,0,0,0,7.74-3.43c4.92-2.63,8.4-4.24,13.24,1.9,7,8.87,24.4,6.44,30.42-3.21,1.49-2.39,2.6-2.27,4.63-1.3C87,9.86,91.35,11.9,95.8,13.73a7.59,7.59,0,0,1,1.37.71,3.31,3.31,0,0,1,.92.86.36.36,0,0,1,.08.12l.08.12a0,0,0,0,0,0,0l0,0a4.29,4.29,0,0,1,.25,3C96.58,28.21,95.31,38,90.49,46.74Zm4.89,4.77C94.47,50.2,93,49,94,47.09c4-8.14,5.51-17,7.52-26.83.1-.46.19-.93.29-1.4,4.86,7.43,9,13.9,13.3,20.28l.42.62c1.13,1.68,1.22,2.68-.71,3.89a95.36,95.36,0,0,1-15.85,8.16C97.68,52.31,96.4,53,95.38,51.51Zm3.09,4.43c6.87-3.27,13.7-6.6,20.32-10.37A36.66,36.66,0,0,1,98.47,55.94Z"/><path class="cls-2" d="M71.22,6c-2.53,3.54-6.4,3.66-10,4-3.67-.4-7.2-.59-9.59-3.68-.62-.8-1.27-1.66-.83-2.69.6-1.43,1.66-.5,2.5-.28a31.58,31.58,0,0,0,16.18-.07c.76-.21,1.64-.83,2.24,0S71.81,5.15,71.22,6Z"/><path class="cls-2" d="M115.07,39.14c-3.53-5.2-9-12.42-13.59-18.88.1-.46.19-.93.29-1.4C106.63,26.29,110.82,32.76,115.07,39.14Z"/><path class="cls-1" d="M73.08,10.72c-7.53,5.56-17.85,5.39-24.26-.75A4.84,4.84,0,0,1,47,5.27a10.5,10.5,0,0,0,3.32,4.25c5.55,3.65,9.2,4.12,15.26,3.11A13.69,13.69,0,0,0,72.26,10,10.54,10.54,0,0,0,75.6,5.3,5.52,5.52,0,0,1,73.08,10.72Z"/><path class="cls-1" d="M118.79,45.57A36.66,36.66,0,0,1,98.47,55.94C105.34,52.67,112.17,49.34,118.79,45.57Z"/></g></g></svg>