<svg xmlns="http://www.w3.org/2000/svg" viewBox="0 0 124.11 104.07"><defs><style>.cls-1{fill:#057;}.cls-2{fill:#49ceb4;}</style></defs><title>Recurso 10</title><g id="Capa_2" data-name="Capa 2"><g id="Capa_1-2" data-name="Capa 1"><path class="cls-1" d="M124.09,92q-1-19.44-3.21-38.75c-2-17.21-8.42-33.49-10.21-50.72-.3-2.94-2-2.71-4.28-2.27A234.31,234.31,0,0,1,71.27,4.47,229.4,229.4,0,0,1,17.17.21c-3-.58-3.89.16-4.05,3a42.78,42.78,0,0,1-1.24,9.88A291.55,291.55,0,0,0,.07,89.73c-.22,8.64-.41,8.78,8,10.52,14.24,3,28.72,3.32,43.18,3.67,8.88.22,8.88,0,10.37-8.35C63,96.4,63,97.88,62.93,99.1c-.23,4,1.6,5.23,5.42,4.92,4.63-.37,9.31-.25,14-.43,12-.47,23.9-1.15,35.64-3.87C122.35,98.71,124.35,96.89,124.09,92Zm-9.78-56.81c-12.22,4.67-28.08-5.8-28.15-18.57,2.36,5.81,5.49,11,10.8,14.45S108.23,34.86,114.31,35.19ZM87.43,6.45c5.55-1,11.16-1.75,16.72-2.67,2-.33,3.77-.52,3.78,2.29,0,2,1.13,4.16-2.39,4.79a251,251,0,0,1-30.15,3.71c-2.56.13-4.31-1.53-6.46-2.35C73.51,4.83,81.07,7.64,87.43,6.45ZM65.8,7.83c0,.15-.07.31-.1.46a32.25,32.25,0,0,1-4.76.53,41.26,41.26,0,0,1-5.5-1ZM16.18,5.28c.15-2.89,2.32-1.67,3.7-1.4A155.63,155.63,0,0,0,48.45,7.19c3.83,0,2.85,5.12,6.62,4.24-4.26,4.14-9.12,3.21-13.83,2.62-7.55-.93-15.07-2.17-22.62-3.14C14.45,10.38,16.07,7.46,16.18,5.28Zm-5,22.21c1.46-4.2,1.26-9.7,4-12.58,3.06-3.25,8.22.38,12.48.7,6.69.51,7.06,1.64,3.2,7.31a19.74,19.74,0,0,1-16.41,8.67C11.68,32,9.74,31.53,11.15,27.49ZM37.34,16.35c1.44,4-.88,9.23-6.2,13.89C24.9,35.7,17.78,38.12,9.48,35.37,23.49,36,32.74,29.84,37.34,16.35ZM4.7,95.42l-.42-.09L4,95.17l.35.09.35.16c9.48,2.1,19.15,2.87,28.73,4.24C23.75,98.86,13.83,99.72,4.7,95.42Zm62.18,4.82c9.84-.87,19.73-.62,29.58-1.14A142,142,0,0,1,66.88,100.24ZM117,92.45c-12.53,3-25.34,3.42-37.3,4a92.09,92.09,0,0,0-9.81.08c-3.27.37-4.44-.8-4.67-4C64.76,86.27,64,80,63.35,73.72c-.12-1.08.32-2.69-1.39-2.67-1.87,0-1.57,1.71-1.69,3-.64,6.62-1.35,13.22-2,19.84-.15,1.66-.37,2.7-2.56,2.67-16.3-.2-32.59-.46-48.62-4-2.9-.64-4.09-1.66-4-4.92A323,323,0,0,1,8.05,42.54c.4-2.2.9-3,3.42-2.83,14.14,1,24.63-5.84,29.7-19.26.69-1.84,1.15-3.31,3.67-3,1.91.22,3.47.11,3.9,2.6a4.72,4.72,0,0,0,4.56,4c2.6.24,4.23-1.21,5.58-3.39,2.13-3.45,4-3.49,6.05-.09,1.33,2.22,2.95,3.71,5.53,3.5a4.85,4.85,0,0,0,4.74-4.37c.4-2.91,2.6-1.87,4.22-2.17,1.9-.36,2.37.68,3,2.31,5.62,14.39,14.86,20.49,30.26,19.88,2.38-.09,2.84,1,3.16,2.74,2.83,15.39,4.13,30.94,5,46.55C121,91.87,118.89,92,117,92.45Z"/><path class="cls-1" d="M31.14,30.24C24.9,35.7,17.78,38.12,9.48,35.37c14,.61,23.26-5.53,27.86-19C38.78,20.37,36.46,25.58,31.14,30.24Z"/><path class="cls-1" d="M96.46,99.1a142,142,0,0,1-29.58,1.14C76.72,99.37,86.61,99.62,96.46,99.1Z"/><path class="cls-1" d="M33.43,99.66c-9.68-.8-19.6.06-28.73-4.24C14.18,97.52,23.85,98.29,33.43,99.66Z"/><path class="cls-1" d="M114.31,35.19c-12.22,4.67-28.08-5.8-28.15-18.57,2.36,5.81,5.49,11,10.8,14.45S108.23,34.86,114.31,35.19Z"/><path class="cls-1" d="M65.8,7.83c0,.15-.07.31-.1.46a32.25,32.25,0,0,1-4.76.53,41.26,41.26,0,0,1-5.5-1Z"/><path class="cls-2" d="M30.79,22.92a19.74,19.74,0,0,1-16.41,8.67c-2.7.38-4.64-.06-3.23-4.1,1.46-4.2,1.26-9.7,4-12.58,3.06-3.25,8.22.38,12.48.7C34.28,16.12,34.65,17.25,30.79,22.92Z"/><path class="cls-2" d="M92.74,22.92a19.74,19.74,0,0,0,16.41,8.67c2.7.38,4.64-.06,3.23-4.1-1.46-4.2-1.26-9.7-4-12.58-3.06-3.25-8.22.38-12.48.7C89.25,16.12,88.88,17.25,92.74,22.92Z"/><path class="cls-2" d="M105.54,10.86a251,251,0,0,1-30.15,3.71c-2.56.13-4.31-1.53-6.46-2.35,4.58-7.39,12.14-4.58,18.5-5.77,5.55-1,11.16-1.75,16.72-2.67,2-.33,3.77-.52,3.78,2.29C107.94,8.05,109.06,10.23,105.54,10.86Z"/><path class="cls-2" d="M55.07,11.43c-4.26,4.14-9.12,3.21-13.83,2.62-7.55-.93-15.07-2.17-22.62-3.14-4.17-.53-2.55-3.45-2.44-5.63.15-2.89,2.32-1.67,3.7-1.4A155.63,155.63,0,0,0,48.45,7.19C52.28,7.21,51.3,12.31,55.07,11.43Z"/><path class="cls-2" d="M117,92.45c-12.53,3-25.34,3.42-37.3,4a92.09,92.09,0,0,0-9.81.08c-3.27.37-4.44-.8-4.67-4C64.76,86.27,64,80,63.35,73.72c-.12-1.08.32-2.69-1.39-2.67-1.87,0-1.57,1.71-1.69,3-.64,6.62-1.35,13.22-2,19.84-.15,1.66-.37,2.7-2.56,2.67-16.3-.2-32.59-.46-48.62-4-2.9-.64-4.09-1.66-4-4.92A323,323,0,0,1,8.05,42.54c.4-2.2.9-3,3.42-2.83,14.14,1,24.63-5.84,29.7-19.26.69-1.84,1.15-3.31,3.67-3,1.91.22,3.47.11,3.9,2.6a4.72,4.72,0,0,0,4.56,4c2.6.24,4.23-1.21,5.58-3.39,2.13-3.45,4-3.49,6.05-.09,1.33,2.22,2.95,3.71,5.53,3.5a4.85,4.85,0,0,0,4.74-4.37c.4-2.91,2.6-1.87,4.22-2.17,1.9-.36,2.37.68,3,2.31,5.62,14.39,14.86,20.49,30.26,19.88,2.38-.09,2.84,1,3.16,2.74,2.83,15.39,4.13,30.94,5,46.55C121,91.87,118.89,92,117,92.45Z"/></g></g></svg>