<svg xmlns="http://www.w3.org/2000/svg" viewBox="0 0 71.54 136.16"><defs><style>.cls-1{fill:#057;}.cls-2{fill:#fff;}.cls-3{fill:#f4f0ce;}</style></defs><title>Recurso 12</title><g id="Capa_2" data-name="Capa 2"><g id="Capa_1-2" data-name="Capa 1"><path class="cls-1" d="M70.91,114.43C66,101,62.38,87.21,61.75,72.77a26.21,26.21,0,0,0-3.46-12.38C56,56.59,56.34,53,57.16,49c1.21-5.85,3.41-11.84,2.94-17.59-.56-6.83-1.13-13.52,0-20.28A3.44,3.44,0,0,0,58.36,7.4c-3-2.08-6-4.11-9-6.29C47.22-.51,45.94-.06,44.75,2.29c-1.52,3-3.93,5.32-6.23,7.73-1.7,1.77-3,2.11-4.85.12-2.39-2.55-4.94-4.95-6.57-8.08C26.32.54,25.39-.69,23.69.45c-3.86,2.59-8,4.94-11.21,8.24-2.11,2.2.3,5.7.29,8.65,0,2,.51,4.09,0,5.95-2.5,9.82,1,19,2.58,28.45.25,1.47,1,3.09.27,4.38-5.06,8.46-5.42,17.94-6.45,27.35-1.18,10.77-4.64,21-8.12,31.25-.43,1.28-1.89,2.9-.47,4.14,2.65,2.32,6.62,2.62,7.33,7.75.28,2,7.46,1.65,8.91,6.29,6.71-1.57,12.18,4.51,18.95,2.93,6.77,1.81,12.37-4.51,19.22-2.9,1.48-4.86,6.39-4.54,9.77-6.54a1.41,1.41,0,0,0,.45-1.31c-1.5-3.24,1.08-3.61,3-4.24C71.73,119.7,72.15,117.85,70.91,114.43Zm-21.2-104c.77-1.13.68-4,3.12-2.67,1.71.91,4.26,1.62,3.83,4.55-1.82,12.39,1.43,25.12-2.82,37.4-1.63,4.73-6.91,8.5-11.82,7.35-2-.47-1.53-1.9-1.55-3.08-.06-5.48,0-11,0-16.44s0-11,0-16.44c0-1.68-.28-3.62,2.61-2.28,1.63.76,2.28-.78,2.93-1.93C47.21,14.72,48.31,12.47,49.71,10.43Zm-1.14-6.7c-2.77,9-4.79,11.2-8.52,9.71Zm-24.38.82c2.06,2.32,4.16,4.61,6.15,7,.58.69,2.33,1.38.47,2.61-1.1.74-2,.94-2.8-.48-1.52-2.84-3.1-5.65-4.65-8.48Zm-8.71,7.32C15,9.06,17.87,8.46,19.56,7.56S21.38,8.92,22,9.89a23.73,23.73,0,0,1,2.19,3.9C26,18,28.17,20.7,32.94,17c1-.78,2.87-1.88,3.8.06.56,1.16.64,2.64-1.58,3.33-2,.64-1.69,1.84.32,2.9,2.27,1.19,2.28,3.18,0,4.41-1.92,1-2.31,1.92-.39,3,2.9,1.65,2.86,3.06,0,4.65-1.51.85-1.87,1.81,0,2.74.29.15.78,0,1,.19,3.12,3.35-1.85,4.24-1.88,6.23,0,1.73,5.19,2.63,1.65,5.6-1.75,1.47-3.7,2.08,0,3.18,1.64.49,1.1,1.78,1,2.82-.16,1.36-1.32,1.28-2.3,1.27s-2-.13-3-.21c-11.75-.81-11-1-14.21-11.82C14,34.16,17.26,23,15.48,11.87ZM6.87,118.56c-2.67-1-2.92-2.34-2-4.87a149.28,149.28,0,0,0,7.6-28.84c.9-6.06.52-12.29,2.41-18.23.94-3,1.9-5.88,4.44-8.12-6.12,16.75-3.47,34.66-7.48,51.6a34.43,34.43,0,0,1-1.34,5.29C9.86,116.91,10.31,119.84,6.87,118.56Zm11,5.59c-.83,3-2.7,1.52-4.32,1.1s-2.91-.54-2-2.89c5.92-14.74,5.67-30.49,7.35-45.93A48.91,48.91,0,0,1,24,58.58c1.61,4,.08,6.68-.29,9.37-1.86,13.65-.4,27.51-2.79,41.13C20,114.14,19.19,119.2,17.82,124.15Zm1.64,6.23c5.22-17.31,6.59-33.81,6.42-50.49-.05-5.68,1.05-11.24,2-16.81.2-1.14.31-2.67,1.76-2.59,1.89.1,1.55,1.85,1.48,3.11C30,84.85,29,106.1,27.53,127.33,27.16,132.89,22.55,128.57,19.46,130.38Zm18.87,2.37a15,15,0,0,0-3.48,0c-3.19.4-4.38-.67-4.14-4.1,1-14.89,1.82-29.79,2.69-44.68.38-6.62.69-13.25,1.16-19.87.08-1.11-.48-3.09,1.57-3s1.44,1.89,1.51,3.12q.91,16.63,1.78,33.28h.13c.56,10.6,1,21.21,1.77,31.8C41.51,132,41.06,133,38.33,132.75Zm5.83-9.54Q42.47,94.88,40.9,66.53c-.08-1.33-.06-2.66-.11-4,0-1.11.28-2,1.51-2.14,1.39-.11,1.44,1.09,1.63,2a85.52,85.52,0,0,1,2,15.78c.25,17.29,1,34.51,6.49,51.44C44.64,130.19,44.57,130.19,44.16,123.21Zm14.13,2.25c-2.91,1-3.81.06-4.49-2.56-3-11.81-4.1-23.87-4.44-36-.24-8.31-.26-16.59-2.15-24.75-.25-1.07-.81-2.34,1-2.62,1.43.72,1.4,2.18,1.85,3.4,3.83,10.3,3.58,21.2,4.64,31.9.89,8.94,2.07,17.82,5.28,26.26C60.84,123.36,61.09,124.51,58.29,125.46ZM65,118.63c-3.41,1.05-3-1.82-3.45-3.43-2.88-9.61-3.75-19.57-4.32-29.49a96.53,96.53,0,0,0-4.3-24.93,2,2,0,0,1,.4-2.47,28.19,28.19,0,0,1,5.29,15.76c.58,13.61,4.13,26.51,8.39,39.28C67.87,116,68,117.68,65,118.63Z"/><path class="cls-2" d="M48.57,3.73c-2.77,9-4.79,11.2-8.52,9.71Z"/><path class="cls-2" d="M30.81,14.15c-1.1.74-2,.94-2.8-.48-1.52-2.84-3.1-5.65-4.65-8.48l.83-.64c2.06,2.32,4.16,4.61,6.15,7C30.92,12.23,32.67,12.92,30.81,14.15Z"/><path class="cls-3" d="M34.15,44.52c0,1.73,5.19,2.63,1.65,5.6-1.75,1.47-3.7,2.08,0,3.18,1.64.49,1.1,1.78,1,2.82-.16,1.36-1.32,1.28-2.3,1.27s-2-.13-3-.21c-11.75-.81-11-1-14.21-11.82C14,34.16,17.26,23,15.48,11.87,15,9.06,17.87,8.46,19.56,7.56S21.38,8.92,22,9.89a23.73,23.73,0,0,1,2.19,3.9C26,18,28.17,20.7,32.94,17c1-.78,2.87-1.88,3.8.06.56,1.16.64,2.64-1.58,3.33-2,.64-1.69,1.84.32,2.9,2.27,1.19,2.28,3.18,0,4.41-1.92,1-2.31,1.92-.39,3,2.9,1.65,2.86,3.06,0,4.65-1.51.85-1.87,1.81,0,2.74.29.15.78,0,1,.19C39.15,41.64,34.18,42.53,34.15,44.52Z"/><path class="cls-3" d="M56.66,12.31c-1.82,12.39,1.43,25.12-2.82,37.4-1.63,4.73-6.91,8.5-11.82,7.35-2-.47-1.53-1.9-1.55-3.08-.06-5.48,0-11,0-16.44s0-11,0-16.44c0-1.68-.28-3.62,2.61-2.28,1.63.76,2.28-.78,2.93-1.93,1.23-2.17,2.33-4.42,3.73-6.46.77-1.13.68-4,3.12-2.67C54.54,8.67,57.09,9.38,56.66,12.31Z"/><path class="cls-3" d="M65,118.63c-3.41,1.05-3-1.82-3.45-3.43-2.88-9.61-3.75-19.57-4.32-29.49a96.53,96.53,0,0,0-4.3-24.93,2,2,0,0,1,.4-2.47,28.19,28.19,0,0,1,5.29,15.76c.58,13.61,4.13,26.51,8.39,39.28C67.87,116,68,117.68,65,118.63Z"/><path class="cls-3" d="M58.29,125.46c-2.91,1-3.81.06-4.49-2.56-3-11.81-4.1-23.87-4.44-36-.24-8.31-.26-16.59-2.15-24.75-.25-1.07-.81-2.34,1-2.62,1.43.72,1.4,2.18,1.85,3.4,3.83,10.3,3.58,21.2,4.64,31.9.89,8.94,2.07,17.82,5.28,26.26C60.84,123.36,61.09,124.51,58.29,125.46Z"/><path class="cls-3" d="M52.44,129.66c-7.8.53-7.87.53-8.28-6.45Q42.47,94.88,40.9,66.53c-.08-1.33-.06-2.66-.11-4,0-1.11.28-2,1.51-2.14,1.39-.11,1.44,1.09,1.63,2a85.52,85.52,0,0,1,2,15.78C46.2,95.51,47,112.73,52.44,129.66Z"/><path class="cls-3" d="M38.33,132.75a15,15,0,0,0-3.48,0c-3.19.4-4.38-.67-4.14-4.1,1-14.89,1.82-29.79,2.69-44.68.38-6.62.69-13.25,1.16-19.87.08-1.11-.48-3.09,1.57-3s1.44,1.89,1.51,3.12q.91,16.63,1.78,33.28h.13c.56,10.6,1,21.21,1.77,31.8C41.51,132,41.06,133,38.33,132.75Z"/><path class="cls-3" d="M31.14,63.6C30,84.85,29,106.1,27.53,127.33c-.37,5.56-5,1.24-8.07,3,5.22-17.31,6.59-33.81,6.42-50.49-.05-5.68,1.05-11.24,2-16.81.2-1.14.31-2.67,1.76-2.59C31.55,60.59,31.21,62.34,31.14,63.6Z"/><path class="cls-3" d="M23.69,68c-1.86,13.65-.4,27.51-2.79,41.13-.89,5.06-1.71,10.12-3.08,15.07-.83,3-2.7,1.52-4.32,1.1s-2.91-.54-2-2.89c5.92-14.74,5.67-30.49,7.35-45.93A48.91,48.91,0,0,1,24,58.58C25.59,62.6,24.06,65.26,23.69,68Z"/><path class="cls-3" d="M19.31,58.5c-6.12,16.75-3.47,34.66-7.48,51.6a34.43,34.43,0,0,1-1.34,5.29c-.63,1.52-.18,4.45-3.62,3.17-2.67-1-2.92-2.34-2-4.87a149.28,149.28,0,0,0,7.6-28.84c.9-6.06.52-12.29,2.41-18.23C15.81,63.67,16.77,60.74,19.31,58.5Z"/></g></g></svg>