<svg xmlns="http://www.w3.org/2000/svg" viewBox="0 0 107.54 107.54"><defs><style>.cls-1{fill:none;}.cls-2{fill:#ffb000;}</style></defs><title>Recurso 4</title><g id="Capa_2" data-name="Capa 2"><g id="Capa_1-2" data-name="Capa 1"><path class="cls-1" d="M53.77,0A53.77,53.77,0,0,0,24.36,98.79a29.49,29.49,0,0,1,58.82,0A53.77,53.77,0,0,0,53.77,0Zm0,62.11a21,21,0,1,1,20.95-21A21,21,0,0,1,53.77,62.11Z"/><path class="cls-2" d="M53.77,71.47A29.47,29.47,0,0,0,24.36,98.79a53.8,53.8,0,0,0,58.82,0A29.48,29.48,0,0,0,53.77,71.47Z"/><circle class="cls-2" cx="53.77" cy="41.16" r="20.95" transform="translate(-5.9 9.14) rotate(-9.22)"/></g></g></svg>