<svg id="Capa_1" data-name="Capa 1" xmlns="http://www.w3.org/2000/svg" viewBox="0 0 87.15 81.45"><defs><style>.cls-1{fill:#47706d;stroke:#211915;stroke-width:0.93px;}.cls-1,.cls-4{stroke-miterlimit:10;}.cls-2{fill:#f6f7f6;}.cls-3{fill:#cf736e;}.cls-4{fill:#211915;stroke:#aa534a;stroke-linecap:round;stroke-width:1.86px;}.cls-5{fill:#d8d9dd;}</style></defs><title>Mesa de trabajo 17</title><rect class="cls-1" x="1.48" y="3.01" width="83.79" height="77" rx="3.03"/><rect class="cls-2" x="28.09" y="15.48" width="8.3" height="10.43"/><rect class="cls-2" x="39.23" y="15.48" width="8.3" height="10.43"/><rect class="cls-2" x="50.61" y="15.48" width="8.3" height="10.43"/><rect class="cls-2" x="28.09" y="28.13" width="8.3" height="10.43"/><rect class="cls-2" x="39.23" y="28.13" width="8.3" height="10.43"/><rect class="cls-2" x="50.61" y="28.13" width="8.3" height="10.43"/><rect class="cls-2" x="28.09" y="40.78" width="8.3" height="10.43"/><rect class="cls-2" x="39.23" y="40.78" width="8.3" height="10.43"/><rect class="cls-2" x="50.61" y="40.78" width="8.3" height="10.43"/><rect class="cls-2" x="28.09" y="53.43" width="8.3" height="10.43"/><rect class="cls-2" x="39.23" y="53.43" width="8.3" height="10.43"/><rect class="cls-2" x="50.61" y="53.43" width="8.3" height="10.43"/><rect class="cls-3" x="61.52" y="15.48" width="8.3" height="10.43"/><rect class="cls-3" x="72.91" y="15.48" width="8.3" height="10.43"/><rect class="cls-3" x="61.52" y="28.13" width="8.3" height="10.43"/><rect class="cls-3" x="72.91" y="28.13" width="8.3" height="10.43"/><rect class="cls-3" x="61.52" y="40.78" width="8.3" height="10.43"/><rect class="cls-3" x="72.91" y="40.78" width="8.3" height="10.43"/><rect class="cls-3" x="61.52" y="53.43" width="8.3" height="10.43"/><rect class="cls-3" x="72.91" y="53.43" width="8.3" height="10.43"/><rect class="cls-2" x="28.09" y="66.07" width="8.3" height="10.43"/><rect class="cls-2" x="17.33" y="28.13" width="8.3" height="10.43"/><rect class="cls-2" x="17.33" y="40.78" width="8.3" height="10.43"/><rect class="cls-2" x="17.33" y="53.43" width="8.3" height="10.43"/><rect class="cls-2" x="17.33" y="66.07" width="8.3" height="10.43"/><rect class="cls-2" x="5.95" y="28.13" width="8.3" height="10.43"/><rect class="cls-2" x="5.95" y="40.78" width="8.3" height="10.43"/><rect class="cls-2" x="5.95" y="53.43" width="8.3" height="10.43"/><rect class="cls-2" x="5.95" y="66.07" width="8.3" height="10.43"/><rect class="cls-2" x="39.23" y="66.07" width="8.3" height="10.43"/><line class="cls-4" x1="7.67" y1="30.92" x2="12.53" y2="35.78"/><line class="cls-4" x1="12.53" y1="30.92" x2="7.67" y2="35.78"/><line class="cls-4" x1="19.05" y1="30.92" x2="23.92" y2="35.78"/><line class="cls-4" x1="23.92" y1="30.92" x2="19.05" y2="35.78"/><line class="cls-4" x1="29.8" y1="30.92" x2="34.67" y2="35.78"/><line class="cls-4" x1="34.67" y1="30.92" x2="29.8" y2="35.78"/><line class="cls-4" x1="40.95" y1="30.92" x2="45.81" y2="35.78"/><line class="cls-4" x1="45.81" y1="30.92" x2="40.95" y2="35.78"/><rect class="cls-5" x="78.27" y="5.86" width="3.56" height="5.19" rx="1.78"/><rect class="cls-5" x="73.38" y="5.86" width="3.56" height="5.19" rx="1.78"/><rect class="cls-5" x="68.4" y="5.86" width="3.56" height="5.19" rx="1.78"/><rect class="cls-5" x="63.51" y="5.86" width="3.56" height="5.19" rx="1.78"/><rect class="cls-5" x="58.56" y="5.86" width="3.56" height="5.19" rx="1.78"/><rect class="cls-5" x="53.67" y="5.86" width="3.56" height="5.19" rx="1.78"/><rect class="cls-5" x="49.1" y="5.86" width="3.56" height="5.19" rx="1.78"/><rect class="cls-5" x="44.21" y="5.86" width="3.56" height="5.19" rx="1.78"/><rect class="cls-5" x="39.23" y="5.86" width="3.56" height="5.19" rx="1.78"/><rect class="cls-5" x="34.34" y="5.86" width="3.56" height="5.19" rx="1.78"/><rect class="cls-5" x="29.39" y="5.86" width="3.56" height="5.19" rx="1.78"/><rect class="cls-5" x="24.5" y="5.86" width="3.56" height="5.19" rx="1.78"/><rect class="cls-5" x="19.7" y="5.86" width="3.56" height="5.19" rx="1.78"/><rect class="cls-5" x="14.8" y="5.86" width="3.56" height="5.19" rx="1.78"/><rect class="cls-5" x="9.82" y="5.86" width="3.56" height="5.19" rx="1.78"/><rect class="cls-5" x="4.93" y="5.86" width="3.56" height="5.19" rx="1.78"/></svg>