<svg id="Capa_1" data-name="Capa 1" xmlns="http://www.w3.org/2000/svg" viewBox="0 0 46.81 114.44"><defs><style>.cls-1{fill:#cf736e;}.cls-1,.cls-2,.cls-3{stroke:#211915;stroke-miterlimit:10;}.cls-1,.cls-3{stroke-width:0.93px;}.cls-2{fill:none;stroke-width:0.46px;}.cls-3{fill:#ca6055;}</style></defs><title>Mesa de trabajo 18</title><path class="cls-1" d="M40.18,26.29v81.13H5.6V26.29A18.28,18.28,0,0,1,17.81,12V4.08A5.83,5.83,0,0,1,22.93.7h.4A5.49,5.49,0,0,1,28,4.08V12A18.28,18.28,0,0,1,40.18,26.29Z"/><line class="cls-2" x1="11.74" y1="74.58" x2="11.74" y2="100.42"/><line class="cls-2" x1="11.74" y1="67.41" x2="11.74" y2="71.59"/><path class="cls-3" d="M44.27,110.93a3.5,3.5,0,0,1-3.5,3.51H5.09a3.51,3.51,0,0,1,0-7H40.77A3.5,3.5,0,0,1,44.27,110.93Z"/></svg>