<svg id="Capa_1" data-name="Capa 1" xmlns="http://www.w3.org/2000/svg" viewBox="0 0 106.09 100.85"><defs><style>.cls-1{fill:#aa534a;}.cls-1,.cls-2,.cls-3{stroke:#211915;stroke-miterlimit:10;}.cls-1,.cls-2{stroke-width:0.89px;}.cls-2{fill:#cf736e;}.cls-3{fill:none;stroke-width:0.45px;}</style></defs><title>Mesa de trabajo 19</title><path class="cls-1" d="M54.17,80.89V78.74H51.91v2.15s-2.6.27-3.13,2.57v13a4.61,4.61,0,0,0,4.29,3.06h0a4.43,4.43,0,0,0,4.2-3.06v-13C56.77,81.16,54.17,80.89,54.17,80.89ZM55,93.77a1.87,1.87,0,0,1-3.74,0v-7.2a1.87,1.87,0,1,1,3.74,0Z"/><rect class="cls-1" x="46.6" y="11.96" width="12.87" height="66.78" rx="5.07"/><path class="cls-2" d="M103.4,10.47a3.27,3.27,0,0,1-3.15-.12L91.48,5.26a3.36,3.36,0,0,0-1.7-.46h-32C53.28,4.8,54.17,12,54.17,12h-2.9s.88-7.16-3.62-7.16h-32a3.39,3.39,0,0,0-1.7.46L5.18,10.35A3.27,3.27,0,0,1,2,10.47,2.46,2.46,0,0,1,.78,7.61,3.34,3.34,0,0,1,3,5L13.8,1.28a3.47,3.47,0,0,1,1.1-.18H46.42a3.33,3.33,0,0,1,1.52.36A17.81,17.81,0,0,1,52.72,5a17.65,17.65,0,0,1,4.78-3.5A3.33,3.33,0,0,1,59,1.1H90.53a3.38,3.38,0,0,1,1.1.18L102.42,5a3.31,3.31,0,0,1,2.23,2.62A2.46,2.46,0,0,1,103.4,10.47Z"/><line class="cls-3" x1="49.67" y1="53.67" x2="49.67" y2="69.46"/></svg>