<svg id="Capa_1" data-name="Capa 1" xmlns="http://www.w3.org/2000/svg" viewBox="0 0 85.62 94.64"><defs><style>.cls-1,.cls-3{fill:#558283;}.cls-1,.cls-2{stroke:#212120;stroke-miterlimit:10;}.cls-2{fill:#456d6b;}</style></defs><title>Mesa de trabajo 3</title><path class="cls-1" d="M54.92,3.43a42,42,0,1,1-25.53,80L34,68.9A26.73,26.73,0,1,0,16.69,35.32L2.14,30.67A42,42,0,0,1,54.92,3.43Z"/><path class="cls-2" d="M8.36,70.21,28,91.83a2.37,2.37,0,0,0,4-.87l8.88-27.85a2.38,2.38,0,0,0-2.77-3L9.61,66.29A2.38,2.38,0,0,0,8.36,70.21Z"/><path class="cls-3" d="M15,71.53,27.35,85.07a1.49,1.49,0,0,0,2.52-.55l5.56-17.43a1.48,1.48,0,0,0-1.73-1.91l-17.89,3.9A1.48,1.48,0,0,0,15,71.53Z"/></svg>