<svg id="Capa_1" data-name="Capa 1" xmlns="http://www.w3.org/2000/svg" viewBox="0 0 43.66 129.7"><defs><style>.cls-1{fill:#5d8988;}.cls-1,.cls-2,.cls-5{stroke:#211915;stroke-miterlimit:10;}.cls-1,.cls-2{stroke-width:0.82px;}.cls-2,.cls-3{fill:#47706d;}.cls-4{fill:#cf736e;}.cls-5{fill:none;stroke-width:0.41px;}</style></defs><title>Mesa de trabajo 16</title><polygon class="cls-1" points="20.39 32.93 16.94 35.07 16.94 45.87 26.81 45.87 26.81 35.07 22.81 32.93 22.81 7.53 20.57 3.16 20.39 32.93"/><path class="cls-1" d="M21.6,45.87h0A11.91,11.91,0,0,1,33.51,57.78v48.88a0,0,0,0,1,0,0H9.69a0,0,0,0,1,0,0V57.78A11.91,11.91,0,0,1,21.6,45.87Z"/><rect class="cls-2" x="18.25" y="110.35" width="6.98" height="13.4"/><rect class="cls-2" x="10.52" y="123.75" width="22.33" height="3.63"/><rect class="cls-3" x="18.2" y="77.6" width="6.98" height="28.69" transform="translate(43.38 183.88) rotate(180)"/><rect class="cls-1" x="1.13" y="106.66" width="41.03" height="3.69"/><rect class="cls-3" x="11.83" y="73.97" width="20.28" height="3.63" transform="translate(43.94 151.56) rotate(180)"/><path class="cls-4" d="M20.31,47.26h3.31a8.49,8.49,0,0,1,8.49,8.49V73.1a0,0,0,0,1,0,0H11.83a0,0,0,0,1,0,0V55.75A8.49,8.49,0,0,1,20.31,47.26Z"/><rect class="cls-3" x="1.44" y="108.76" width="40.4" height="1.27"/><line class="cls-5" x1="14.52" y1="55.67" x2="14.52" y2="70.19"/></svg>