<svg id="Capa_1" data-name="Capa 1" xmlns="http://www.w3.org/2000/svg" viewBox="0 0 50.04 114.92"><defs><style>.cls-1{fill:#47706d;}.cls-1,.cls-2,.cls-3,.cls-5{stroke:#211915;stroke-miterlimit:10;}.cls-1,.cls-2{stroke-width:0.96px;}.cls-2{fill:#5d8988;}.cls-3,.cls-4,.cls-5{fill:none;}.cls-3{stroke-width:0.48px;}.cls-5{stroke-width:0.93px;}</style></defs><title>Mesa de trabajo 15</title><path class="cls-1" d="M3.26,106.82c.79-.22,4.73-1.33,6.33-2.63a2,2,0,0,0,.63-1c.91-3,6.23-20.67,6.37-24.68a2,2,0,0,1,.12-.59L19,71.79a2.1,2.1,0,0,1,.77-1h0a2,2,0,0,0-.42-3.59l-.42-.15a2,2,0,0,0-2.73,2.06l0,.51a2.14,2.14,0,0,1-.12.87l-1.58,4.26a2.64,2.64,0,0,1-.18.38l-4.27,6.77a1.93,1.93,0,0,0-.19.38L5.94,93a1,1,0,0,0-.05.16L2.06,107l.92-.11Z"/><rect class="cls-1" x="35.51" y="4.81" width="10.47" height="5.59" transform="translate(76.32 28.89) rotate(-159.68)"/><path class="cls-2" d="M28.37,7.23h.69a5.52,5.52,0,0,1,5.52,5.52V68.88A4.11,4.11,0,0,1,30.48,73H27a4.11,4.11,0,0,1-4.11-4.11V12.75a5.52,5.52,0,0,1,5.52-5.52Z" transform="translate(41.72 87.69) rotate(-159.68)"/><line class="cls-3" x1="22.15" y1="60.75" x2="38.44" y2="16.73"/><path class="cls-3" d="M8.65,101.09l-3.76,2.43S7.5,92.25,9,89.49"/><rect class="cls-4" x="-42.92" y="12.89" width="110.94" height="133.62" transform="translate(-3.35 158.8) rotate(-159.68)"/><line class="cls-5" x1="2.06" y1="112" x2="11.28" y2="112"/><line class="cls-5" x1="14.32" y1="112" x2="23.54" y2="112"/><line class="cls-5" x1="26.63" y1="112" x2="35.85" y2="112"/><line class="cls-5" x1="38.89" y1="112" x2="48.1" y2="112"/></svg>